<?xml version="1.0" encoding="UTF-8"?>
<svg xmlns="http://www.w3.org/2000/svg" width="900" height="600" viewBox="0 0 900 600">
<rect width="100%" height="100%" fill="#f7f0e8" />
<circle cx="33" cy="434" r="11" fill="#f0d2c0" opacity="0.35" />
<circle cx="781" cy="221" r="28" fill="#f0d2c0" opacity="0.43" />
<circle cx="88" cy="520" r="16" fill="#f0d2c0" opacity="0.42" />
<circle cx="184" cy="92" r="10" fill="#f0d2c0" opacity="0.51" />
<circle cx="853" cy="462" r="25" fill="#f0d2c0" opacity="0.52" />
<circle cx="657" cy="207" r="22" fill="#f0d2c0" opacity="0.56" />
<circle cx="608" cy="189" r="26" fill="#f0d2c0" opacity="0.58" />
<circle cx="806" cy="438" r="14" fill="#f0d2c0" opacity="0.59" />
<circle cx="390" cy="104" r="28" fill="#f0d2c0" opacity="0.50" />
<circle cx="611" cy="492" r="15" fill="#f0d2c0" opacity="0.37" />
<circle cx="876" cy="298" r="23" fill="#f0d2c0" opacity="0.50" />
<circle cx="617" cy="559" r="12" fill="#f0d2c0" opacity="0.37" />
<circle cx="228" cy="239" r="19" fill="#f0d2c0" opacity="0.36" />
<circle cx="736" cy="245" r="14" fill="#f0d2c0" opacity="0.57" />
<circle cx="457" cy="16" r="27" fill="#f0d2c0" opacity="0.51" />
<circle cx="770" cy="38" r="23" fill="#f0d2c0" opacity="0.54" />
<circle cx="308" cy="390" r="18" fill="#f0d2c0" opacity="0.57" />
<circle cx="684" cy="229" r="15" fill="#f0d2c0" opacity="0.44" />
<circle cx="839" cy="454" r="17" fill="#f0d2c0" opacity="0.46" />
<circle cx="372" cy="268" r="24" fill="#f0d2c0" opacity="0.46" />
<circle cx="852" cy="15" r="19" fill="#f0d2c0" opacity="0.38" />
<circle cx="31" cy="234" r="17" fill="#f0d2c0" opacity="0.45" />
<circle cx="862" cy="523" r="28" fill="#f0d2c0" opacity="0.43" />
<circle cx="827" cy="564" r="28" fill="#f0d2c0" opacity="0.49" />
<circle cx="688" cy="275" r="28" fill="#f0d2c0" opacity="0.41" />
<circle cx="64" cy="295" r="10" fill="#f0d2c0" opacity="0.38" />
<circle cx="716" cy="506" r="16" fill="#f0d2c0" opacity="0.57" />
<circle cx="328" cy="563" r="23" fill="#f0d2c0" opacity="0.35" />
<circle cx="586" cy="465" r="11" fill="#f0d2c0" opacity="0.54" />
<circle cx="570" cy="559" r="27" fill="#f0d2c0" opacity="0.37" />
<circle cx="863" cy="106" r="21" fill="#f0d2c0" opacity="0.50" />
<circle cx="126" cy="252" r="23" fill="#f0d2c0" opacity="0.58" />
<circle cx="169" cy="476" r="11" fill="#f0d2c0" opacity="0.39" />
<circle cx="155" cy="299" r="14" fill="#f0d2c0" opacity="0.39" />
<circle cx="822" cy="578" r="9" fill="#f0d2c0" opacity="0.43" />
<circle cx="654" cy="34" r="29" fill="#f0d2c0" opacity="0.55" />
<circle cx="75" cy="186" r="19" fill="#f0d2c0" opacity="0.50" />
<circle cx="136" cy="309" r="25" fill="#f0d2c0" opacity="0.50" />
<circle cx="387" cy="30" r="13" fill="#f0d2c0" opacity="0.46" />
<circle cx="295" cy="204" r="11" fill="#f0d2c0" opacity="0.48" />
<circle cx="673" cy="426" r="19" fill="#f0d2c0" opacity="0.42" />
<circle cx="822" cy="175" r="11" fill="#f0d2c0" opacity="0.38" />
<circle cx="481" cy="370" r="23" fill="#f0d2c0" opacity="0.40" />
<circle cx="439" cy="40" r="15" fill="#f0d2c0" opacity="0.51" />
<circle cx="254" cy="368" r="16" fill="#f0d2c0" opacity="0.40" />
<circle cx="361" cy="420" r="24" fill="#f0d2c0" opacity="0.48" />
<circle cx="15" cy="41" r="15" fill="#f0d2c0" opacity="0.48" />
<circle cx="364" cy="308" r="18" fill="#f0d2c0" opacity="0.49" />
<circle cx="868" cy="81" r="11" fill="#f0d2c0" opacity="0.36" />
<circle cx="460" cy="231" r="27" fill="#f0d2c0" opacity="0.45" />
<circle cx="853" cy="8" r="27" fill="#f0d2c0" opacity="0.52" />
<circle cx="856" cy="295" r="17" fill="#f0d2c0" opacity="0.56" />
<circle cx="484" cy="324" r="20" fill="#f0d2c0" opacity="0.42" />
<circle cx="749" cy="65" r="14" fill="#f0d2c0" opacity="0.50" />
<circle cx="589" cy="148" r="11" fill="#f0d2c0" opacity="0.43" />
<circle cx="401" cy="7" r="29" fill="#f0d2c0" opacity="0.58" />
<circle cx="884" cy="217" r="11" fill="#f0d2c0" opacity="0.58" />
<circle cx="429" cy="67" r="9" fill="#f0d2c0" opacity="0.48" />
<circle cx="254" cy="191" r="20" fill="#f0d2c0" opacity="0.54" />
<circle cx="601" cy="344" r="12" fill="#f0d2c0" opacity="0.47" />
<circle cx="665" cy="528" r="25" fill="#f0d2c0" opacity="0.59" />
<circle cx="197" cy="338" r="15" fill="#f0d2c0" opacity="0.57" />
<circle cx="25" cy="15" r="17" fill="#f0d2c0" opacity="0.58" />
<circle cx="502" cy="300" r="23" fill="#f0d2c0" opacity="0.50" />
<circle cx="297" cy="282" r="27" fill="#f0d2c0" opacity="0.46" />
<circle cx="791" cy="276" r="24" fill="#f0d2c0" opacity="0.52" />
<circle cx="15" cy="359" r="10" fill="#f0d2c0" opacity="0.42" />
<circle cx="196" cy="417" r="29" fill="#f0d2c0" opacity="0.42" />
<circle cx="141" cy="332" r="20" fill="#f0d2c0" opacity="0.35" />
<circle cx="465" cy="162" r="8" fill="#f0d2c0" opacity="0.45" />
<circle cx="536" cy="243" r="29" fill="#f0d2c0" opacity="0.43" />
<circle cx="686" cy="444" r="18" fill="#f0d2c0" opacity="0.41" />
<circle cx="268" cy="39" r="23" fill="#f0d2c0" opacity="0.42" />
<circle cx="23" cy="516" r="19" fill="#f0d2c0" opacity="0.59" />
<circle cx="702" cy="405" r="27" fill="#f0d2c0" opacity="0.38" />
<circle cx="87" cy="294" r="28" fill="#f0d2c0" opacity="0.43" />
<circle cx="181" cy="486" r="14" fill="#f0d2c0" opacity="0.37" />
<circle cx="138" cy="385" r="23" fill="#f0d2c0" opacity="0.44" />
<circle cx="761" cy="98" r="18" fill="#f0d2c0" opacity="0.41" />
<circle cx="268" cy="182" r="28" fill="#f0d2c0" opacity="0.45" />
<circle cx="573" cy="69" r="20" fill="#f0d2c0" opacity="0.39" />
<circle cx="92" cy="526" r="27" fill="#f0d2c0" opacity="0.53" />
<circle cx="291" cy="23" r="16" fill="#f0d2c0" opacity="0.59" />
<circle cx="331" cy="231" r="17" fill="#f0d2c0" opacity="0.49" />
<circle cx="477" cy="21" r="16" fill="#f0d2c0" opacity="0.57" />
<circle cx="805" cy="121" r="9" fill="#f0d2c0" opacity="0.41" />
<circle cx="35" cy="2" r="26" fill="#f0d2c0" opacity="0.50" />
<circle cx="475" cy="362" r="23" fill="#f0d2c0" opacity="0.56" />
<circle cx="386" cy="162" r="12" fill="#f0d2c0" opacity="0.59" />
<circle cx="332" cy="485" r="22" fill="#f0d2c0" opacity="0.40" />
<circle cx="353" cy="189" r="28" fill="#f0d2c0" opacity="0.47" />
<circle cx="899" cy="547" r="20" fill="#f0d2c0" opacity="0.51" />
<circle cx="511" cy="470" r="19" fill="#f0d2c0" opacity="0.55" />
<circle cx="199" cy="173" r="19" fill="#f0d2c0" opacity="0.59" />
<circle cx="187" cy="156" r="25" fill="#f0d2c0" opacity="0.51" />
<circle cx="244" cy="94" r="21" fill="#f0d2c0" opacity="0.41" />
<circle cx="244" cy="275" r="25" fill="#f0d2c0" opacity="0.36" />
<circle cx="75" cy="527" r="8" fill="#f0d2c0" opacity="0.46" />
<circle cx="785" cy="435" r="10" fill="#f0d2c0" opacity="0.51" />
<circle cx="283" cy="558" r="20" fill="#f0d2c0" opacity="0.57" />
<circle cx="35" cy="124" r="18" fill="#f0d2c0" opacity="0.47" />
<circle cx="529" cy="485" r="14" fill="#f0d2c0" opacity="0.41" />
<circle cx="662" cy="385" r="15" fill="#f0d2c0" opacity="0.42" />
<circle cx="168" cy="185" r="24" fill="#f0d2c0" opacity="0.41" />
<circle cx="371" cy="367" r="26" fill="#f0d2c0" opacity="0.57" />
<circle cx="520" cy="141" r="20" fill="#f0d2c0" opacity="0.43" />
<circle cx="441" cy="180" r="21" fill="#f0d2c0" opacity="0.51" />
<circle cx="575" cy="469" r="11" fill="#f0d2c0" opacity="0.58" />
<circle cx="96" cy="135" r="19" fill="#f0d2c0" opacity="0.39" />
<circle cx="295" cy="129" r="11" fill="#f0d2c0" opacity="0.48" />
<circle cx="36" cy="13" r="16" fill="#f0d2c0" opacity="0.48" />
<circle cx="624" cy="61" r="13" fill="#f0d2c0" opacity="0.44" />
<circle cx="67" cy="127" r="11" fill="#f0d2c0" opacity="0.53" />
<circle cx="380" cy="563" r="8" fill="#f0d2c0" opacity="0.55" />
<circle cx="635" cy="450" r="29" fill="#f0d2c0" opacity="0.56" />
<circle cx="641" cy="217" r="19" fill="#f0d2c0" opacity="0.53" />
<circle cx="337" cy="213" r="13" fill="#f0d2c0" opacity="0.37" />
<circle cx="32" cy="343" r="20" fill="#f0d2c0" opacity="0.50" />
<circle cx="735" cy="20" r="27" fill="#f0d2c0" opacity="0.57" />
<circle cx="818" cy="514" r="11" fill="#f0d2c0" opacity="0.38" />
<circle cx="454" cy="581" r="11" fill="#f0d2c0" opacity="0.37" />
<circle cx="220" cy="582" r="17" fill="#f0d2c0" opacity="0.50" />
<circle cx="674" cy="43" r="24" fill="#f0d2c0" opacity="0.51" />
<circle cx="840" cy="175" r="9" fill="#f0d2c0" opacity="0.41" />
<circle cx="470" cy="553" r="8" fill="#f0d2c0" opacity="0.52" />
<circle cx="381" cy="11" r="17" fill="#f0d2c0" opacity="0.37" />
<circle cx="263" cy="572" r="16" fill="#f0d2c0" opacity="0.37" />
<circle cx="250" cy="452" r="20" fill="#f0d2c0" opacity="0.42" />
<circle cx="754" cy="357" r="21" fill="#f0d2c0" opacity="0.38" />
<circle cx="801" cy="381" r="22" fill="#f0d2c0" opacity="0.44" />
<circle cx="463" cy="365" r="18" fill="#f0d2c0" opacity="0.56" />
<circle cx="290" cy="440" r="22" fill="#f0d2c0" opacity="0.50" />
<circle cx="293" cy="414" r="21" fill="#f0d2c0" opacity="0.55" />
<circle cx="28" cy="299" r="4" fill="#6f4c8b" opacity="0.85" />
<circle cx="725" cy="234" r="7" fill="#6f4c8b" opacity="0.72" />
<circle cx="237" cy="317" r="4" fill="#6f4c8b" opacity="0.74" />
<circle cx="739" cy="48" r="3" fill="#6f4c8b" opacity="0.57" />
<circle cx="43" cy="118" r="3" fill="#6f4c8b" opacity="0.64" />
<circle cx="468" cy="307" r="3" fill="#6f4c8b" opacity="0.58" />
<circle cx="821" cy="500" r="9" fill="#6f4c8b" opacity="0.86" />
<circle cx="96" cy="119" r="7" fill="#6f4c8b" opacity="0.70" />
<circle cx="421" cy="51" r="11" fill="#6f4c8b" opacity="0.87" />
<circle cx="408" cy="509" r="10" fill="#6f4c8b" opacity="0.58" />
<circle cx="536" cy="99" r="7" fill="#6f4c8b" opacity="0.76" />
<circle cx="876" cy="570" r="3" fill="#6f4c8b" opacity="0.75" />
<circle cx="668" cy="527" r="10" fill="#6f4c8b" opacity="0.82" />
<circle cx="81" cy="116" r="4" fill="#6f4c8b" opacity="0.59" />
<circle cx="13" cy="100" r="7" fill="#6f4c8b" opacity="0.85" />
<circle cx="410" cy="10" r="8" fill="#6f4c8b" opacity="0.71" />
<circle cx="84" cy="185" r="5" fill="#6f4c8b" opacity="0.70" />
<circle cx="202" cy="106" r="4" fill="#6f4c8b" opacity="0.75" />
<circle cx="24" cy="482" r="7" fill="#6f4c8b" opacity="0.70" />
<circle cx="85" cy="88" r="6" fill="#6f4c8b" opacity="0.88" />
<circle cx="149" cy="298" r="8" fill="#6f4c8b" opacity="0.60" />
<circle cx="887" cy="224" r="11" fill="#6f4c8b" opacity="0.78" />
<circle cx="146" cy="219" r="4" fill="#6f4c8b" opacity="0.79" />
<circle cx="616" cy="525" r="7" fill="#6f4c8b" opacity="0.71" />
<circle cx="140" cy="48" r="6" fill="#6f4c8b" opacity="0.69" />
<circle cx="846" cy="42" r="4" fill="#6f4c8b" opacity="0.82" />
<circle cx="647" cy="60" r="7" fill="#6f4c8b" opacity="0.55" />
<circle cx="384" cy="182" r="9" fill="#6f4c8b" opacity="0.62" />
<circle cx="152" cy="481" r="4" fill="#6f4c8b" opacity="0.57" />
<circle cx="459" cy="402" r="6" fill="#6f4c8b" opacity="0.77" />
<circle cx="591" cy="393" r="9" fill="#6f4c8b" opacity="0.70" />
<circle cx="56" cy="86" r="6" fill="#6f4c8b" opacity="0.79" />
<circle cx="94" cy="416" r="8" fill="#6f4c8b" opacity="0.57" />
<circle cx="549" cy="465" r="11" fill="#6f4c8b" opacity="0.60" />
<circle cx="519" cy="506" r="6" fill="#6f4c8b" opacity="0.85" />
<circle cx="558" cy="137" r="4" fill="#6f4c8b" opacity="0.84" />
<circle cx="446" cy="522" r="7" fill="#6f4c8b" opacity="0.58" />
<circle cx="103" cy="299" r="3" fill="#6f4c8b" opacity="0.86" />
<circle cx="316" cy="533" r="7" fill="#6f4c8b" opacity="0.66" />
<circle cx="538" cy="218" r="7" fill="#6f4c8b" opacity="0.79" />
<circle cx="554" cy="99" r="4" fill="#6f4c8b" opacity="0.66" />
<circle cx="374" cy="477" r="5" fill="#6f4c8b" opacity="0.78" />
<circle cx="484" cy="437" r="7" fill="#6f4c8b" opacity="0.89" />
<circle cx="240" cy="190" r="11" fill="#6f4c8b" opacity="0.85" />
<circle cx="741" cy="89" r="6" fill="#6f4c8b" opacity="0.77" />
<circle cx="665" cy="45" r="11" fill="#6f4c8b" opacity="0.85" />
<circle cx="372" cy="442" r="4" fill="#6f4c8b" opacity="0.57" />
<circle cx="582" cy="551" r="11" fill="#6f4c8b" opacity="0.60" />
<circle cx="36" cy="533" r="11" fill="#6f4c8b" opacity="0.60" />
<circle cx="96" cy="365" r="6" fill="#6f4c8b" opacity="0.68" />
<circle cx="214" cy="410" r="7" fill="#6f4c8b" opacity="0.70" />
<circle cx="409" cy="232" r="4" fill="#6f4c8b" opacity="0.63" />
<circle cx="438" cy="523" r="4" fill="#6f4c8b" opacity="0.79" />
<circle cx="94" cy="365" r="4" fill="#6f4c8b" opacity="0.79" />
<circle cx="613" cy="541" r="9" fill="#6f4c8b" opacity="0.77" />
<circle cx="889" cy="158" r="8" fill="#6f4c8b" opacity="0.72" />
<circle cx="76" cy="501" r="3" fill="#6f4c8b" opacity="0.89" />
<circle cx="546" cy="271" r="11" fill="#6f4c8b" opacity="0.81" />
<circle cx="13" cy="404" r="11" fill="#6f4c8b" opacity="0.63" />
<circle cx="297" cy="110" r="10" fill="#6f4c8b" opacity="0.61" />
<circle cx="841" cy="320" r="10" fill="#6f4c8b" opacity="0.89" />
<circle cx="102" cy="150" r="9" fill="#6f4c8b" opacity="0.73" />
<circle cx="22" cy="418" r="6" fill="#6f4c8b" opacity="0.58" />
<circle cx="405" cy="447" r="9" fill="#6f4c8b" opacity="0.66" />
<circle cx="96" cy="34" r="5" fill="#6f4c8b" opacity="0.60" />
<circle cx="865" cy="18" r="5" fill="#6f4c8b" opacity="0.76" />
<circle cx="846" cy="547" r="8" fill="#6f4c8b" opacity="0.78" />
<circle cx="52" cy="401" r="11" fill="#6f4c8b" opacity="0.81" />
<circle cx="742" cy="571" r="8" fill="#6f4c8b" opacity="0.86" />
<circle cx="576" cy="58" r="10" fill="#6f4c8b" opacity="0.86" />
<circle cx="119" cy="544" r="7" fill="#6f4c8b" opacity="0.73" />
<circle cx="336" cy="11" r="6" fill="#6f4c8b" opacity="0.88" />
<circle cx="628" cy="511" r="3" fill="#6f4c8b" opacity="0.85" />
<circle cx="225" cy="23" r="11" fill="#6f4c8b" opacity="0.87" />
<line x1="741" y1="167" x2="752" y2="212" stroke="#c889a0" stroke-width="1.15" opacity="0.2" />
<line x1="279" y1="157" x2="259" y2="158" stroke="#c889a0" stroke-width="2.44" opacity="0.2" />
<line x1="265" y1="362" x2="294" y2="400" stroke="#c889a0" stroke-width="2.56" opacity="0.2" />
<line x1="527" y1="519" x2="479" y2="511" stroke="#c889a0" stroke-width="2.37" opacity="0.2" />
<line x1="875" y1="308" x2="867" y2="297" stroke="#c889a0" stroke-width="2.59" opacity="0.2" />
<line x1="97" y1="139" x2="151" y2="136" stroke="#c889a0" stroke-width="1.66" opacity="0.2" />
<line x1="543" y1="443" x2="580" y2="404" stroke="#c889a0" stroke-width="1.18" opacity="0.2" />
<line x1="583" y1="277" x2="540" y2="332" stroke="#c889a0" stroke-width="1.15" opacity="0.2" />
<line x1="74" y1="344" x2="75" y2="392" stroke="#c889a0" stroke-width="3.17" opacity="0.2" />
<line x1="819" y1="380" x2="760" y2="419" stroke="#c889a0" stroke-width="2.33" opacity="0.2" />
<line x1="594" y1="119" x2="606" y2="106" stroke="#c889a0" stroke-width="2.36" opacity="0.2" />
<line x1="728" y1="505" x2="726" y2="554" stroke="#c889a0" stroke-width="1.81" opacity="0.2" />
<line x1="857" y1="34" x2="844" y2="49" stroke="#c889a0" stroke-width="2.89" opacity="0.2" />
<line x1="833" y1="478" x2="864" y2="467" stroke="#c889a0" stroke-width="2.13" opacity="0.2" />
<line x1="119" y1="235" x2="155" y2="183" stroke="#c889a0" stroke-width="2.66" opacity="0.2" />
<line x1="169" y1="77" x2="109" y2="83" stroke="#c889a0" stroke-width="1.77" opacity="0.2" />
<line x1="398" y1="360" x2="418" y2="380" stroke="#c889a0" stroke-width="3.43" opacity="0.2" />
<line x1="439" y1="274" x2="442" y2="271" stroke="#c889a0" stroke-width="2.40" opacity="0.2" />
<line x1="560" y1="467" x2="539" y2="457" stroke="#c889a0" stroke-width="2.34" opacity="0.2" />
<line x1="160" y1="161" x2="139" y2="121" stroke="#c889a0" stroke-width="3.43" opacity="0.2" />
<line x1="87" y1="533" x2="105" y2="488" stroke="#c889a0" stroke-width="3.26" opacity="0.2" />
<line x1="278" y1="537" x2="326" y2="553" stroke="#c889a0" stroke-width="1.56" opacity="0.2" />
<line x1="262" y1="78" x2="318" y2="108" stroke="#c889a0" stroke-width="3.08" opacity="0.2" />
<line x1="111" y1="27" x2="157" y2="60" stroke="#c889a0" stroke-width="2.92" opacity="0.2" />
<line x1="173" y1="112" x2="156" y2="85" stroke="#c889a0" stroke-width="2.37" opacity="0.2" />
<line x1="325" y1="407" x2="266" y2="427" stroke="#c889a0" stroke-width="2.53" opacity="0.2" />
<line x1="86" y1="529" x2="98" y2="547" stroke="#c889a0" stroke-width="1.68" opacity="0.2" />
<line x1="563" y1="519" x2="605" y2="461" stroke="#c889a0" stroke-width="1.54" opacity="0.2" />
<line x1="742" y1="370" x2="763" y2="347" stroke="#c889a0" stroke-width="1.29" opacity="0.2" />
<line x1="594" y1="27" x2="550" y2="-30" stroke="#c889a0" stroke-width="2.74" opacity="0.2" />
</svg>