<?xml version="1.0" encoding="UTF-8"?>
<svg xmlns="http://www.w3.org/2000/svg" width="900" height="600" viewBox="0 0 900 600">
<rect width="100%" height="100%" fill="#f5ebe0" />
<circle cx="253" cy="159" r="21" fill="#f1d4c2" opacity="0.55" />
<circle cx="739" cy="414" r="14" fill="#f1d4c2" opacity="0.45" />
<circle cx="643" cy="209" r="19" fill="#f1d4c2" opacity="0.41" />
<circle cx="136" cy="375" r="17" fill="#f1d4c2" opacity="0.51" />
<circle cx="508" cy="422" r="15" fill="#f1d4c2" opacity="0.60" />
<circle cx="127" cy="249" r="25" fill="#f1d4c2" opacity="0.42" />
<circle cx="525" cy="397" r="17" fill="#f1d4c2" opacity="0.40" />
<circle cx="887" cy="581" r="8" fill="#f1d4c2" opacity="0.58" />
<circle cx="627" cy="507" r="14" fill="#f1d4c2" opacity="0.56" />
<circle cx="619" cy="273" r="10" fill="#f1d4c2" opacity="0.38" />
<circle cx="225" cy="446" r="8" fill="#f1d4c2" opacity="0.48" />
<circle cx="48" cy="28" r="28" fill="#f1d4c2" opacity="0.51" />
<circle cx="438" cy="552" r="14" fill="#f1d4c2" opacity="0.54" />
<circle cx="413" cy="146" r="25" fill="#f1d4c2" opacity="0.60" />
<circle cx="538" cy="579" r="29" fill="#f1d4c2" opacity="0.38" />
<circle cx="306" cy="446" r="23" fill="#f1d4c2" opacity="0.42" />
<circle cx="69" cy="336" r="19" fill="#f1d4c2" opacity="0.56" />
<circle cx="233" cy="598" r="9" fill="#f1d4c2" opacity="0.46" />
<circle cx="362" cy="175" r="18" fill="#f1d4c2" opacity="0.45" />
<circle cx="586" cy="406" r="28" fill="#f1d4c2" opacity="0.43" />
<circle cx="838" cy="202" r="22" fill="#f1d4c2" opacity="0.47" />
<circle cx="268" cy="399" r="17" fill="#f1d4c2" opacity="0.47" />
<circle cx="652" cy="339" r="20" fill="#f1d4c2" opacity="0.55" />
<circle cx="295" cy="56" r="19" fill="#f1d4c2" opacity="0.53" />
<circle cx="446" cy="26" r="16" fill="#f1d4c2" opacity="0.54" />
<circle cx="705" cy="188" r="28" fill="#f1d4c2" opacity="0.48" />
<circle cx="894" cy="486" r="26" fill="#f1d4c2" opacity="0.45" />
<circle cx="368" cy="114" r="11" fill="#f1d4c2" opacity="0.38" />
<circle cx="23" cy="560" r="29" fill="#f1d4c2" opacity="0.49" />
<circle cx="827" cy="481" r="25" fill="#f1d4c2" opacity="0.55" />
<circle cx="861" cy="457" r="20" fill="#f1d4c2" opacity="0.58" />
<circle cx="182" cy="108" r="19" fill="#f1d4c2" opacity="0.50" />
<circle cx="271" cy="84" r="8" fill="#f1d4c2" opacity="0.47" />
<circle cx="708" cy="66" r="25" fill="#f1d4c2" opacity="0.60" />
<circle cx="293" cy="71" r="18" fill="#f1d4c2" opacity="0.45" />
<circle cx="153" cy="545" r="29" fill="#f1d4c2" opacity="0.45" />
<circle cx="847" cy="447" r="13" fill="#f1d4c2" opacity="0.38" />
<circle cx="618" cy="332" r="22" fill="#f1d4c2" opacity="0.45" />
<circle cx="100" cy="252" r="10" fill="#f1d4c2" opacity="0.55" />
<circle cx="636" cy="322" r="28" fill="#f1d4c2" opacity="0.36" />
<circle cx="323" cy="304" r="18" fill="#f1d4c2" opacity="0.44" />
<circle cx="438" cy="90" r="13" fill="#f1d4c2" opacity="0.53" />
<circle cx="363" cy="438" r="21" fill="#f1d4c2" opacity="0.36" />
<circle cx="375" cy="421" r="9" fill="#f1d4c2" opacity="0.47" />
<circle cx="450" cy="95" r="8" fill="#f1d4c2" opacity="0.54" />
<circle cx="533" cy="461" r="10" fill="#f1d4c2" opacity="0.43" />
<circle cx="304" cy="95" r="10" fill="#f1d4c2" opacity="0.52" />
<circle cx="840" cy="5" r="27" fill="#f1d4c2" opacity="0.53" />
<circle cx="188" cy="404" r="12" fill="#f1d4c2" opacity="0.45" />
<circle cx="65" cy="336" r="12" fill="#f1d4c2" opacity="0.53" />
<circle cx="865" cy="35" r="8" fill="#f1d4c2" opacity="0.44" />
<circle cx="373" cy="586" r="15" fill="#f1d4c2" opacity="0.46" />
<circle cx="865" cy="398" r="11" fill="#f1d4c2" opacity="0.49" />
<circle cx="867" cy="235" r="19" fill="#f1d4c2" opacity="0.57" />
<circle cx="821" cy="136" r="14" fill="#f1d4c2" opacity="0.55" />
<circle cx="884" cy="568" r="13" fill="#f1d4c2" opacity="0.46" />
<circle cx="283" cy="408" r="28" fill="#f1d4c2" opacity="0.60" />
<circle cx="550" cy="133" r="19" fill="#f1d4c2" opacity="0.44" />
<circle cx="749" cy="197" r="15" fill="#f1d4c2" opacity="0.43" />
<circle cx="317" cy="35" r="14" fill="#f1d4c2" opacity="0.36" />
<circle cx="244" cy="44" r="17" fill="#f1d4c2" opacity="0.54" />
<circle cx="198" cy="246" r="23" fill="#f1d4c2" opacity="0.41" />
<circle cx="25" cy="14" r="22" fill="#f1d4c2" opacity="0.40" />
<circle cx="215" cy="49" r="8" fill="#f1d4c2" opacity="0.58" />
<circle cx="112" cy="380" r="11" fill="#f1d4c2" opacity="0.50" />
<circle cx="706" cy="227" r="29" fill="#f1d4c2" opacity="0.37" />
<circle cx="722" cy="231" r="8" fill="#f1d4c2" opacity="0.58" />
<circle cx="239" cy="448" r="21" fill="#f1d4c2" opacity="0.35" />
<circle cx="418" cy="161" r="25" fill="#f1d4c2" opacity="0.41" />
<circle cx="85" cy="592" r="26" fill="#f1d4c2" opacity="0.45" />
<circle cx="363" cy="253" r="24" fill="#f1d4c2" opacity="0.48" />
<circle cx="563" cy="205" r="27" fill="#f1d4c2" opacity="0.37" />
<circle cx="422" cy="544" r="23" fill="#f1d4c2" opacity="0.35" />
<circle cx="712" cy="455" r="14" fill="#f1d4c2" opacity="0.43" />
<circle cx="76" cy="528" r="12" fill="#f1d4c2" opacity="0.45" />
<circle cx="385" cy="514" r="27" fill="#f1d4c2" opacity="0.53" />
<circle cx="877" cy="294" r="21" fill="#f1d4c2" opacity="0.59" />
<circle cx="352" cy="70" r="10" fill="#f1d4c2" opacity="0.54" />
<circle cx="464" cy="276" r="15" fill="#f1d4c2" opacity="0.37" />
<circle cx="731" cy="266" r="10" fill="#f1d4c2" opacity="0.56" />
<circle cx="808" cy="479" r="17" fill="#f1d4c2" opacity="0.51" />
<circle cx="713" cy="173" r="16" fill="#f1d4c2" opacity="0.42" />
<circle cx="58" cy="401" r="29" fill="#f1d4c2" opacity="0.48" />
<circle cx="802" cy="598" r="11" fill="#f1d4c2" opacity="0.47" />
<circle cx="144" cy="468" r="24" fill="#f1d4c2" opacity="0.40" />
<circle cx="343" cy="284" r="15" fill="#f1d4c2" opacity="0.42" />
<circle cx="520" cy="38" r="19" fill="#f1d4c2" opacity="0.38" />
<circle cx="10" cy="565" r="14" fill="#f1d4c2" opacity="0.41" />
<circle cx="398" cy="72" r="19" fill="#f1d4c2" opacity="0.50" />
<circle cx="744" cy="172" r="25" fill="#f1d4c2" opacity="0.40" />
<circle cx="106" cy="403" r="16" fill="#f1d4c2" opacity="0.49" />
<circle cx="659" cy="565" r="14" fill="#f1d4c2" opacity="0.54" />
<circle cx="786" cy="197" r="23" fill="#f1d4c2" opacity="0.55" />
<circle cx="55" cy="348" r="25" fill="#f1d4c2" opacity="0.48" />
<circle cx="563" cy="305" r="25" fill="#f1d4c2" opacity="0.58" />
<circle cx="893" cy="242" r="17" fill="#f1d4c2" opacity="0.41" />
<circle cx="698" cy="227" r="22" fill="#f1d4c2" opacity="0.39" />
<circle cx="271" cy="79" r="21" fill="#f1d4c2" opacity="0.45" />
<circle cx="259" cy="124" r="8" fill="#f1d4c2" opacity="0.38" />
<circle cx="832" cy="429" r="11" fill="#f1d4c2" opacity="0.41" />
<circle cx="341" cy="298" r="28" fill="#f1d4c2" opacity="0.40" />
<circle cx="694" cy="261" r="21" fill="#f1d4c2" opacity="0.58" />
<circle cx="654" cy="323" r="25" fill="#f1d4c2" opacity="0.48" />
<circle cx="869" cy="151" r="23" fill="#f1d4c2" opacity="0.37" />
<circle cx="620" cy="189" r="25" fill="#f1d4c2" opacity="0.45" />
<circle cx="108" cy="429" r="10" fill="#f1d4c2" opacity="0.39" />
<circle cx="183" cy="280" r="28" fill="#f1d4c2" opacity="0.37" />
<circle cx="862" cy="271" r="10" fill="#f1d4c2" opacity="0.59" />
<circle cx="508" cy="134" r="22" fill="#f1d4c2" opacity="0.38" />
<circle cx="855" cy="435" r="20" fill="#f1d4c2" opacity="0.55" />
<circle cx="325" cy="291" r="15" fill="#f1d4c2" opacity="0.45" />
<circle cx="648" cy="548" r="27" fill="#f1d4c2" opacity="0.53" />
<circle cx="420" cy="51" r="21" fill="#f1d4c2" opacity="0.54" />
<circle cx="59" cy="61" r="8" fill="#f1d4c2" opacity="0.49" />
<circle cx="409" cy="195" r="11" fill="#f1d4c2" opacity="0.59" />
<circle cx="421" cy="361" r="26" fill="#f1d4c2" opacity="0.41" />
<circle cx="99" cy="413" r="10" fill="#f1d4c2" opacity="0.56" />
<circle cx="830" cy="15" r="19" fill="#f1d4c2" opacity="0.45" />
<circle cx="196" cy="361" r="25" fill="#f1d4c2" opacity="0.40" />
<circle cx="481" cy="13" r="8" fill="#f1d4c2" opacity="0.38" />
<circle cx="428" cy="533" r="22" fill="#f1d4c2" opacity="0.43" />
<circle cx="280" cy="431" r="9" fill="#f1d4c2" opacity="0.55" />
<circle cx="224" cy="194" r="10" fill="#f1d4c2" opacity="0.59" />
<circle cx="159" cy="154" r="26" fill="#f1d4c2" opacity="0.35" />
<circle cx="863" cy="162" r="16" fill="#f1d4c2" opacity="0.43" />
<circle cx="179" cy="470" r="25" fill="#f1d4c2" opacity="0.58" />
<circle cx="493" cy="476" r="14" fill="#f1d4c2" opacity="0.45" />
<circle cx="138" cy="482" r="9" fill="#f1d4c2" opacity="0.52" />
<circle cx="832" cy="346" r="8" fill="#f1d4c2" opacity="0.45" />
<circle cx="354" cy="349" r="13" fill="#f1d4c2" opacity="0.56" />
<circle cx="669" cy="326" r="8" fill="#f1d4c2" opacity="0.56" />
<circle cx="769" cy="243" r="12" fill="#f1d4c2" opacity="0.56" />
<circle cx="108" cy="311" r="12" fill="#f1d4c2" opacity="0.56" />
<circle cx="59" cy="146" r="4" fill="#5f4b8b" opacity="0.80" />
<circle cx="251" cy="138" r="11" fill="#5f4b8b" opacity="0.68" />
<circle cx="379" cy="96" r="9" fill="#5f4b8b" opacity="0.62" />
<circle cx="96" cy="302" r="4" fill="#5f4b8b" opacity="0.66" />
<circle cx="190" cy="298" r="8" fill="#5f4b8b" opacity="0.67" />
<circle cx="823" cy="90" r="7" fill="#5f4b8b" opacity="0.77" />
<circle cx="460" cy="356" r="8" fill="#5f4b8b" opacity="0.72" />
<circle cx="571" cy="545" r="6" fill="#5f4b8b" opacity="0.62" />
<circle cx="600" cy="335" r="5" fill="#5f4b8b" opacity="0.57" />
<circle cx="189" cy="82" r="8" fill="#5f4b8b" opacity="0.80" />
<circle cx="463" cy="423" r="5" fill="#5f4b8b" opacity="0.83" />
<circle cx="434" cy="568" r="10" fill="#5f4b8b" opacity="0.87" />
<circle cx="285" cy="414" r="10" fill="#5f4b8b" opacity="0.77" />
<circle cx="265" cy="149" r="11" fill="#5f4b8b" opacity="0.72" />
<circle cx="856" cy="491" r="4" fill="#5f4b8b" opacity="0.67" />
<circle cx="566" cy="109" r="10" fill="#5f4b8b" opacity="0.59" />
<circle cx="262" cy="406" r="4" fill="#5f4b8b" opacity="0.68" />
<circle cx="64" cy="245" r="4" fill="#5f4b8b" opacity="0.57" />
<circle cx="88" cy="349" r="5" fill="#5f4b8b" opacity="0.67" />
<circle cx="355" cy="264" r="10" fill="#5f4b8b" opacity="0.79" />
<circle cx="408" cy="71" r="7" fill="#5f4b8b" opacity="0.87" />
<circle cx="494" cy="542" r="4" fill="#5f4b8b" opacity="0.79" />
<circle cx="646" cy="198" r="9" fill="#5f4b8b" opacity="0.78" />
<circle cx="838" cy="170" r="9" fill="#5f4b8b" opacity="0.59" />
<circle cx="831" cy="326" r="11" fill="#5f4b8b" opacity="0.90" />
<circle cx="857" cy="62" r="5" fill="#5f4b8b" opacity="0.87" />
<circle cx="367" cy="571" r="7" fill="#5f4b8b" opacity="0.68" />
<circle cx="862" cy="223" r="3" fill="#5f4b8b" opacity="0.68" />
<circle cx="565" cy="137" r="11" fill="#5f4b8b" opacity="0.59" />
<circle cx="620" cy="309" r="6" fill="#5f4b8b" opacity="0.65" />
<circle cx="492" cy="335" r="4" fill="#5f4b8b" opacity="0.69" />
<circle cx="451" cy="172" r="10" fill="#5f4b8b" opacity="0.90" />
<circle cx="331" cy="597" r="8" fill="#5f4b8b" opacity="0.85" />
<circle cx="845" cy="257" r="10" fill="#5f4b8b" opacity="0.90" />
<circle cx="590" cy="373" r="3" fill="#5f4b8b" opacity="0.64" />
<circle cx="407" cy="121" r="7" fill="#5f4b8b" opacity="0.57" />
<circle cx="703" cy="475" r="11" fill="#5f4b8b" opacity="0.61" />
<circle cx="167" cy="41" r="8" fill="#5f4b8b" opacity="0.57" />
<circle cx="389" cy="172" r="10" fill="#5f4b8b" opacity="0.83" />
<circle cx="97" cy="121" r="7" fill="#5f4b8b" opacity="0.59" />
<circle cx="308" cy="380" r="6" fill="#5f4b8b" opacity="0.78" />
<circle cx="287" cy="147" r="8" fill="#5f4b8b" opacity="0.90" />
<circle cx="39" cy="94" r="11" fill="#5f4b8b" opacity="0.73" />
<circle cx="104" cy="489" r="4" fill="#5f4b8b" opacity="0.84" />
<circle cx="694" cy="376" r="3" fill="#5f4b8b" opacity="0.76" />
<circle cx="445" cy="581" r="8" fill="#5f4b8b" opacity="0.66" />
<circle cx="735" cy="75" r="4" fill="#5f4b8b" opacity="0.65" />
<circle cx="120" cy="259" r="5" fill="#5f4b8b" opacity="0.71" />
<circle cx="569" cy="241" r="6" fill="#5f4b8b" opacity="0.70" />
<circle cx="516" cy="199" r="9" fill="#5f4b8b" opacity="0.58" />
<circle cx="481" cy="92" r="8" fill="#5f4b8b" opacity="0.61" />
<circle cx="37" cy="474" r="6" fill="#5f4b8b" opacity="0.66" />
<circle cx="724" cy="30" r="8" fill="#5f4b8b" opacity="0.71" />
<circle cx="865" cy="425" r="11" fill="#5f4b8b" opacity="0.56" />
<circle cx="609" cy="580" r="6" fill="#5f4b8b" opacity="0.82" />
<circle cx="638" cy="186" r="3" fill="#5f4b8b" opacity="0.68" />
<circle cx="601" cy="79" r="8" fill="#5f4b8b" opacity="0.85" />
<circle cx="756" cy="212" r="7" fill="#5f4b8b" opacity="0.69" />
<circle cx="645" cy="549" r="8" fill="#5f4b8b" opacity="0.87" />
<circle cx="247" cy="366" r="6" fill="#5f4b8b" opacity="0.89" />
<circle cx="738" cy="336" r="11" fill="#5f4b8b" opacity="0.72" />
<circle cx="671" cy="267" r="8" fill="#5f4b8b" opacity="0.67" />
<circle cx="870" cy="328" r="11" fill="#5f4b8b" opacity="0.79" />
<circle cx="510" cy="193" r="5" fill="#5f4b8b" opacity="0.78" />
<circle cx="718" cy="598" r="6" fill="#5f4b8b" opacity="0.64" />
<circle cx="38" cy="78" r="7" fill="#5f4b8b" opacity="0.70" />
<circle cx="331" cy="528" r="10" fill="#5f4b8b" opacity="0.59" />
<circle cx="177" cy="235" r="3" fill="#5f4b8b" opacity="0.61" />
<circle cx="391" cy="84" r="3" fill="#5f4b8b" opacity="0.88" />
<circle cx="198" cy="310" r="3" fill="#5f4b8b" opacity="0.55" />
<circle cx="715" cy="430" r="9" fill="#5f4b8b" opacity="0.83" />
<circle cx="445" cy="568" r="9" fill="#5f4b8b" opacity="0.58" />
<circle cx="305" cy="457" r="11" fill="#5f4b8b" opacity="0.71" />
<circle cx="138" cy="218" r="6" fill="#5f4b8b" opacity="0.59" />
<circle cx="851" cy="306" r="11" fill="#5f4b8b" opacity="0.89" />
<circle cx="163" cy="494" r="4" fill="#5f4b8b" opacity="0.89" />
<circle cx="115" cy="533" r="4" fill="#5f4b8b" opacity="0.73" />
<circle cx="542" cy="205" r="11" fill="#5f4b8b" opacity="0.67" />
<circle cx="427" cy="78" r="10" fill="#5f4b8b" opacity="0.85" />
<circle cx="57" cy="91" r="8" fill="#5f4b8b" opacity="0.77" />
<circle cx="187" cy="20" r="9" fill="#5f4b8b" opacity="0.71" />
<circle cx="26" cy="457" r="10" fill="#5f4b8b" opacity="0.83" />
<circle cx="460" cy="18" r="11" fill="#5f4b8b" opacity="0.75" />
<circle cx="441" cy="442" r="9" fill="#5f4b8b" opacity="0.58" />
<circle cx="224" cy="225" r="6" fill="#5f4b8b" opacity="0.80" />
<circle cx="474" cy="200" r="4" fill="#5f4b8b" opacity="0.70" />
<circle cx="356" cy="97" r="5" fill="#5f4b8b" opacity="0.76" />
<circle cx="157" cy="147" r="10" fill="#5f4b8b" opacity="0.83" />
<circle cx="130" cy="51" r="3" fill="#5f4b8b" opacity="0.73" />
<circle cx="142" cy="409" r="6" fill="#5f4b8b" opacity="0.60" />
<circle cx="103" cy="167" r="4" fill="#5f4b8b" opacity="0.89" />
<circle cx="33" cy="56" r="9" fill="#5f4b8b" opacity="0.57" />
<circle cx="97" cy="553" r="6" fill="#5f4b8b" opacity="0.73" />
<circle cx="247" cy="413" r="6" fill="#5f4b8b" opacity="0.80" />
<circle cx="393" cy="407" r="5" fill="#5f4b8b" opacity="0.60" />
<circle cx="564" cy="134" r="4" fill="#5f4b8b" opacity="0.79" />
<circle cx="316" cy="555" r="8" fill="#5f4b8b" opacity="0.66" />
<circle cx="855" cy="159" r="10" fill="#5f4b8b" opacity="0.73" />
<circle cx="231" cy="318" r="8" fill="#5f4b8b" opacity="0.79" />
<circle cx="613" cy="340" r="4" fill="#5f4b8b" opacity="0.69" />
<circle cx="56" cy="46" r="6" fill="#5f4b8b" opacity="0.74" />
<circle cx="531" cy="91" r="3" fill="#5f4b8b" opacity="0.75" />
<circle cx="128" cy="201" r="11" fill="#5f4b8b" opacity="0.84" />
<circle cx="777" cy="316" r="10" fill="#5f4b8b" opacity="0.61" />
<circle cx="741" cy="434" r="9" fill="#5f4b8b" opacity="0.67" />
<circle cx="128" cy="186" r="5" fill="#5f4b8b" opacity="0.70" />
<circle cx="831" cy="448" r="11" fill="#5f4b8b" opacity="0.82" />
<circle cx="843" cy="491" r="9" fill="#5f4b8b" opacity="0.89" />
<circle cx="794" cy="501" r="3" fill="#5f4b8b" opacity="0.56" />
<line x1="771" y1="56" x2="759" y2="67" stroke="#c17c74" stroke-width="2.32" opacity="0.2" />
<line x1="741" y1="126" x2="738" y2="101" stroke="#c17c74" stroke-width="1.13" opacity="0.2" />
<line x1="341" y1="555" x2="318" y2="590" stroke="#c17c74" stroke-width="2.93" opacity="0.2" />
<line x1="655" y1="282" x2="610" y2="320" stroke="#c17c74" stroke-width="1.73" opacity="0.2" />
<line x1="307" y1="113" x2="274" y2="86" stroke="#c17c74" stroke-width="2.31" opacity="0.2" />
<line x1="676" y1="313" x2="644" y2="272" stroke="#c17c74" stroke-width="2.51" opacity="0.2" />
<line x1="592" y1="2" x2="555" y2="51" stroke="#c17c74" stroke-width="1.09" opacity="0.2" />
<line x1="855" y1="491" x2="897" y2="533" stroke="#c17c74" stroke-width="1.29" opacity="0.2" />
<line x1="516" y1="516" x2="525" y2="483" stroke="#c17c74" stroke-width="3.25" opacity="0.2" />
<line x1="182" y1="516" x2="232" y2="571" stroke="#c17c74" stroke-width="2.51" opacity="0.2" />
<line x1="219" y1="217" x2="213" y2="245" stroke="#c17c74" stroke-width="3.07" opacity="0.2" />
<line x1="661" y1="74" x2="674" y2="101" stroke="#c17c74" stroke-width="2.93" opacity="0.2" />
<line x1="150" y1="455" x2="107" y2="477" stroke="#c17c74" stroke-width="2.69" opacity="0.2" />
<line x1="473" y1="491" x2="485" y2="481" stroke="#c17c74" stroke-width="1.18" opacity="0.2" />
<line x1="434" y1="356" x2="413" y2="403" stroke="#c17c74" stroke-width="2.89" opacity="0.2" />
<line x1="598" y1="507" x2="625" y2="545" stroke="#c17c74" stroke-width="2.47" opacity="0.2" />
<line x1="762" y1="307" x2="727" y2="344" stroke="#c17c74" stroke-width="1.90" opacity="0.2" />
<line x1="392" y1="220" x2="401" y2="206" stroke="#c17c74" stroke-width="3.38" opacity="0.2" />
<line x1="325" y1="74" x2="312" y2="75" stroke="#c17c74" stroke-width="2.27" opacity="0.2" />
<line x1="415" y1="499" x2="396" y2="511" stroke="#c17c74" stroke-width="1.70" opacity="0.2" />
<line x1="591" y1="541" x2="570" y2="542" stroke="#c17c74" stroke-width="1.71" opacity="0.2" />
<line x1="348" y1="231" x2="374" y2="269" stroke="#c17c74" stroke-width="1.94" opacity="0.2" />
<line x1="362" y1="122" x2="313" y2="157" stroke="#c17c74" stroke-width="2.15" opacity="0.2" />
<line x1="769" y1="64" x2="717" y2="119" stroke="#c17c74" stroke-width="1.47" opacity="0.2" />
<line x1="572" y1="598" x2="595" y2="635" stroke="#c17c74" stroke-width="1.14" opacity="0.2" />
<line x1="69" y1="142" x2="29" y2="149" stroke="#c17c74" stroke-width="1.95" opacity="0.2" />
<line x1="674" y1="94" x2="682" y2="72" stroke="#c17c74" stroke-width="1.38" opacity="0.2" />
<line x1="161" y1="221" x2="108" y2="250" stroke="#c17c74" stroke-width="1.07" opacity="0.2" />
<line x1="69" y1="222" x2="52" y2="180" stroke="#c17c74" stroke-width="2.40" opacity="0.2" />
<line x1="864" y1="159" x2="815" y2="186" stroke="#c17c74" stroke-width="2.22" opacity="0.2" />
</svg>