<?xml version="1.0" encoding="UTF-8"?>
<svg xmlns="http://www.w3.org/2000/svg" width="900" height="600" viewBox="0 0 900 600">
<rect width="100%" height="100%" fill="#f5ebe0" />
<circle cx="432" cy="478" r="12" fill="#f1d4c2" opacity="0.52" />
<circle cx="68" cy="82" r="28" fill="#f1d4c2" opacity="0.53" />
<circle cx="589" cy="199" r="24" fill="#f1d4c2" opacity="0.59" />
<circle cx="411" cy="372" r="24" fill="#f1d4c2" opacity="0.48" />
<circle cx="399" cy="52" r="27" fill="#f1d4c2" opacity="0.57" />
<circle cx="421" cy="566" r="27" fill="#f1d4c2" opacity="0.59" />
<circle cx="692" cy="587" r="13" fill="#f1d4c2" opacity="0.44" />
<circle cx="34" cy="238" r="23" fill="#f1d4c2" opacity="0.41" />
<circle cx="726" cy="44" r="10" fill="#f1d4c2" opacity="0.56" />
<circle cx="138" cy="460" r="17" fill="#f1d4c2" opacity="0.44" />
<circle cx="803" cy="549" r="10" fill="#f1d4c2" opacity="0.37" />
<circle cx="569" cy="5" r="27" fill="#f1d4c2" opacity="0.50" />
<circle cx="305" cy="57" r="20" fill="#f1d4c2" opacity="0.35" />
<circle cx="793" cy="187" r="9" fill="#f1d4c2" opacity="0.52" />
<circle cx="246" cy="234" r="25" fill="#f1d4c2" opacity="0.56" />
<circle cx="344" cy="216" r="21" fill="#f1d4c2" opacity="0.56" />
<circle cx="455" cy="398" r="25" fill="#f1d4c2" opacity="0.51" />
<circle cx="285" cy="262" r="21" fill="#f1d4c2" opacity="0.44" />
<circle cx="95" cy="442" r="29" fill="#f1d4c2" opacity="0.36" />
<circle cx="75" cy="572" r="26" fill="#f1d4c2" opacity="0.57" />
<circle cx="31" cy="180" r="26" fill="#f1d4c2" opacity="0.49" />
<circle cx="210" cy="592" r="21" fill="#f1d4c2" opacity="0.53" />
<circle cx="580" cy="5" r="26" fill="#f1d4c2" opacity="0.57" />
<circle cx="687" cy="465" r="9" fill="#f1d4c2" opacity="0.42" />
<circle cx="376" cy="147" r="8" fill="#f1d4c2" opacity="0.51" />
<circle cx="378" cy="490" r="16" fill="#f1d4c2" opacity="0.53" />
<circle cx="203" cy="579" r="24" fill="#f1d4c2" opacity="0.42" />
<circle cx="221" cy="509" r="18" fill="#f1d4c2" opacity="0.52" />
<circle cx="553" cy="85" r="25" fill="#f1d4c2" opacity="0.53" />
<circle cx="369" cy="390" r="27" fill="#f1d4c2" opacity="0.51" />
<circle cx="20" cy="18" r="12" fill="#f1d4c2" opacity="0.45" />
<circle cx="221" cy="84" r="11" fill="#f1d4c2" opacity="0.45" />
<circle cx="89" cy="54" r="16" fill="#f1d4c2" opacity="0.37" />
<circle cx="599" cy="223" r="14" fill="#f1d4c2" opacity="0.38" />
<circle cx="525" cy="186" r="29" fill="#f1d4c2" opacity="0.44" />
<circle cx="318" cy="542" r="24" fill="#f1d4c2" opacity="0.55" />
<circle cx="343" cy="42" r="26" fill="#f1d4c2" opacity="0.38" />
<circle cx="643" cy="115" r="18" fill="#f1d4c2" opacity="0.43" />
<circle cx="79" cy="388" r="14" fill="#f1d4c2" opacity="0.39" />
<circle cx="402" cy="120" r="11" fill="#f1d4c2" opacity="0.52" />
<circle cx="595" cy="109" r="9" fill="#f1d4c2" opacity="0.50" />
<circle cx="885" cy="397" r="10" fill="#f1d4c2" opacity="0.42" />
<circle cx="540" cy="270" r="27" fill="#f1d4c2" opacity="0.58" />
<circle cx="880" cy="458" r="15" fill="#f1d4c2" opacity="0.60" />
<circle cx="276" cy="78" r="24" fill="#f1d4c2" opacity="0.49" />
<circle cx="184" cy="419" r="16" fill="#f1d4c2" opacity="0.42" />
<circle cx="308" cy="374" r="28" fill="#f1d4c2" opacity="0.55" />
<circle cx="728" cy="422" r="11" fill="#f1d4c2" opacity="0.41" />
<circle cx="218" cy="195" r="20" fill="#f1d4c2" opacity="0.49" />
<circle cx="381" cy="537" r="18" fill="#f1d4c2" opacity="0.36" />
<circle cx="755" cy="122" r="13" fill="#f1d4c2" opacity="0.57" />
<circle cx="391" cy="314" r="14" fill="#f1d4c2" opacity="0.39" />
<circle cx="448" cy="342" r="11" fill="#f1d4c2" opacity="0.56" />
<circle cx="602" cy="451" r="24" fill="#f1d4c2" opacity="0.54" />
<circle cx="151" cy="529" r="12" fill="#f1d4c2" opacity="0.46" />
<circle cx="57" cy="287" r="13" fill="#f1d4c2" opacity="0.40" />
<circle cx="323" cy="13" r="26" fill="#f1d4c2" opacity="0.40" />
<circle cx="324" cy="320" r="26" fill="#f1d4c2" opacity="0.49" />
<circle cx="329" cy="369" r="14" fill="#f1d4c2" opacity="0.46" />
<circle cx="452" cy="456" r="21" fill="#f1d4c2" opacity="0.56" />
<circle cx="607" cy="293" r="21" fill="#f1d4c2" opacity="0.36" />
<circle cx="166" cy="296" r="19" fill="#f1d4c2" opacity="0.44" />
<circle cx="41" cy="410" r="12" fill="#f1d4c2" opacity="0.49" />
<circle cx="218" cy="384" r="8" fill="#f1d4c2" opacity="0.46" />
<circle cx="516" cy="23" r="11" fill="#f1d4c2" opacity="0.55" />
<circle cx="625" cy="115" r="23" fill="#f1d4c2" opacity="0.47" />
<circle cx="891" cy="242" r="17" fill="#f1d4c2" opacity="0.51" />
<circle cx="296" cy="391" r="11" fill="#f1d4c2" opacity="0.48" />
<circle cx="638" cy="30" r="28" fill="#f1d4c2" opacity="0.37" />
<circle cx="665" cy="29" r="10" fill="#f1d4c2" opacity="0.51" />
<circle cx="470" cy="262" r="23" fill="#f1d4c2" opacity="0.52" />
<circle cx="855" cy="433" r="23" fill="#f1d4c2" opacity="0.41" />
<circle cx="96" cy="568" r="26" fill="#f1d4c2" opacity="0.47" />
<circle cx="413" cy="424" r="21" fill="#f1d4c2" opacity="0.54" />
<circle cx="85" cy="453" r="15" fill="#f1d4c2" opacity="0.57" />
<circle cx="44" cy="390" r="11" fill="#f1d4c2" opacity="0.56" />
<circle cx="383" cy="63" r="28" fill="#f1d4c2" opacity="0.38" />
<circle cx="892" cy="66" r="16" fill="#f1d4c2" opacity="0.42" />
<circle cx="651" cy="449" r="22" fill="#f1d4c2" opacity="0.54" />
<circle cx="150" cy="178" r="11" fill="#f1d4c2" opacity="0.52" />
<circle cx="611" cy="66" r="20" fill="#f1d4c2" opacity="0.43" />
<circle cx="16" cy="198" r="13" fill="#f1d4c2" opacity="0.53" />
<circle cx="766" cy="529" r="13" fill="#f1d4c2" opacity="0.48" />
<circle cx="46" cy="305" r="14" fill="#f1d4c2" opacity="0.47" />
<circle cx="535" cy="404" r="21" fill="#f1d4c2" opacity="0.57" />
<circle cx="100" cy="385" r="11" fill="#f1d4c2" opacity="0.40" />
<circle cx="818" cy="66" r="13" fill="#f1d4c2" opacity="0.38" />
<circle cx="292" cy="264" r="8" fill="#f1d4c2" opacity="0.47" />
<circle cx="77" cy="20" r="14" fill="#f1d4c2" opacity="0.45" />
<circle cx="37" cy="13" r="27" fill="#f1d4c2" opacity="0.47" />
<circle cx="842" cy="293" r="13" fill="#f1d4c2" opacity="0.53" />
<circle cx="632" cy="331" r="28" fill="#f1d4c2" opacity="0.57" />
<circle cx="871" cy="525" r="8" fill="#f1d4c2" opacity="0.58" />
<circle cx="491" cy="564" r="14" fill="#f1d4c2" opacity="0.49" />
<circle cx="420" cy="510" r="16" fill="#f1d4c2" opacity="0.36" />
<circle cx="37" cy="90" r="8" fill="#f1d4c2" opacity="0.40" />
<circle cx="812" cy="424" r="26" fill="#f1d4c2" opacity="0.58" />
<circle cx="387" cy="581" r="17" fill="#f1d4c2" opacity="0.55" />
<circle cx="378" cy="244" r="23" fill="#f1d4c2" opacity="0.52" />
<circle cx="77" cy="180" r="21" fill="#f1d4c2" opacity="0.58" />
<circle cx="603" cy="141" r="10" fill="#f1d4c2" opacity="0.42" />
<circle cx="482" cy="341" r="25" fill="#f1d4c2" opacity="0.37" />
<circle cx="239" cy="595" r="10" fill="#f1d4c2" opacity="0.50" />
<circle cx="362" cy="548" r="9" fill="#f1d4c2" opacity="0.38" />
<circle cx="857" cy="396" r="10" fill="#f1d4c2" opacity="0.46" />
<circle cx="854" cy="146" r="29" fill="#f1d4c2" opacity="0.40" />
<circle cx="826" cy="324" r="18" fill="#f1d4c2" opacity="0.37" />
<circle cx="521" cy="264" r="12" fill="#f1d4c2" opacity="0.43" />
<circle cx="567" cy="301" r="23" fill="#f1d4c2" opacity="0.59" />
<circle cx="714" cy="93" r="29" fill="#f1d4c2" opacity="0.58" />
<circle cx="846" cy="589" r="11" fill="#f1d4c2" opacity="0.59" />
<circle cx="328" cy="463" r="19" fill="#f1d4c2" opacity="0.40" />
<circle cx="887" cy="221" r="21" fill="#f1d4c2" opacity="0.48" />
<circle cx="116" cy="113" r="11" fill="#f1d4c2" opacity="0.54" />
<circle cx="424" cy="17" r="29" fill="#f1d4c2" opacity="0.42" />
<circle cx="638" cy="170" r="20" fill="#f1d4c2" opacity="0.39" />
<circle cx="105" cy="229" r="27" fill="#f1d4c2" opacity="0.47" />
<circle cx="849" cy="502" r="11" fill="#f1d4c2" opacity="0.42" />
<circle cx="59" cy="300" r="11" fill="#f1d4c2" opacity="0.57" />
<circle cx="718" cy="394" r="23" fill="#f1d4c2" opacity="0.39" />
<circle cx="713" cy="60" r="26" fill="#f1d4c2" opacity="0.43" />
<circle cx="625" cy="117" r="21" fill="#f1d4c2" opacity="0.41" />
<circle cx="860" cy="43" r="24" fill="#f1d4c2" opacity="0.35" />
<circle cx="604" cy="592" r="26" fill="#f1d4c2" opacity="0.39" />
<circle cx="537" cy="73" r="21" fill="#f1d4c2" opacity="0.55" />
<circle cx="200" cy="306" r="12" fill="#f1d4c2" opacity="0.42" />
<circle cx="195" cy="422" r="15" fill="#f1d4c2" opacity="0.58" />
<circle cx="9" cy="451" r="15" fill="#f1d4c2" opacity="0.53" />
<circle cx="123" cy="387" r="15" fill="#f1d4c2" opacity="0.54" />
<circle cx="122" cy="538" r="19" fill="#f1d4c2" opacity="0.42" />
<circle cx="159" cy="251" r="18" fill="#f1d4c2" opacity="0.59" />
<circle cx="120" cy="580" r="23" fill="#f1d4c2" opacity="0.49" />
<circle cx="731" cy="2" r="29" fill="#f1d4c2" opacity="0.53" />
<circle cx="63" cy="189" r="9" fill="#f1d4c2" opacity="0.46" />
<circle cx="208" cy="347" r="28" fill="#f1d4c2" opacity="0.54" />
<circle cx="138" cy="184" r="12" fill="#f1d4c2" opacity="0.54" />
<circle cx="297" cy="357" r="13" fill="#f1d4c2" opacity="0.43" />
<circle cx="508" cy="268" r="25" fill="#f1d4c2" opacity="0.48" />
<circle cx="273" cy="582" r="26" fill="#f1d4c2" opacity="0.45" />
<circle cx="110" cy="382" r="8" fill="#f1d4c2" opacity="0.59" />
<circle cx="45" cy="146" r="23" fill="#f1d4c2" opacity="0.52" />
<circle cx="511" cy="510" r="21" fill="#f1d4c2" opacity="0.42" />
<circle cx="162" cy="353" r="14" fill="#f1d4c2" opacity="0.46" />
<circle cx="383" cy="312" r="21" fill="#f1d4c2" opacity="0.57" />
<circle cx="299" cy="160" r="27" fill="#f1d4c2" opacity="0.44" />
<circle cx="618" cy="25" r="12" fill="#f1d4c2" opacity="0.60" />
<circle cx="622" cy="40" r="15" fill="#f1d4c2" opacity="0.60" />
<circle cx="426" cy="562" r="16" fill="#f1d4c2" opacity="0.38" />
<circle cx="114" cy="83" r="23" fill="#f1d4c2" opacity="0.36" />
<circle cx="93" cy="389" r="29" fill="#f1d4c2" opacity="0.54" />
<circle cx="370" cy="380" r="9" fill="#5f4b8b" opacity="0.84" />
<circle cx="430" cy="478" r="11" fill="#5f4b8b" opacity="0.89" />
<circle cx="898" cy="14" r="10" fill="#5f4b8b" opacity="0.65" />
<circle cx="32" cy="293" r="5" fill="#5f4b8b" opacity="0.87" />
<circle cx="445" cy="67" r="10" fill="#5f4b8b" opacity="0.77" />
<circle cx="515" cy="179" r="6" fill="#5f4b8b" opacity="0.64" />
<circle cx="33" cy="141" r="3" fill="#5f4b8b" opacity="0.87" />
<circle cx="424" cy="539" r="4" fill="#5f4b8b" opacity="0.84" />
<circle cx="555" cy="22" r="8" fill="#5f4b8b" opacity="0.89" />
<circle cx="733" cy="338" r="4" fill="#5f4b8b" opacity="0.56" />
<circle cx="863" cy="294" r="9" fill="#5f4b8b" opacity="0.68" />
<circle cx="158" cy="153" r="4" fill="#5f4b8b" opacity="0.63" />
<circle cx="853" cy="517" r="8" fill="#5f4b8b" opacity="0.57" />
<circle cx="622" cy="531" r="7" fill="#5f4b8b" opacity="0.81" />
<circle cx="695" cy="222" r="9" fill="#5f4b8b" opacity="0.82" />
<circle cx="749" cy="344" r="10" fill="#5f4b8b" opacity="0.69" />
<circle cx="779" cy="131" r="5" fill="#5f4b8b" opacity="0.56" />
<circle cx="617" cy="255" r="9" fill="#5f4b8b" opacity="0.83" />
<circle cx="471" cy="219" r="6" fill="#5f4b8b" opacity="0.69" />
<circle cx="187" cy="370" r="4" fill="#5f4b8b" opacity="0.60" />
<circle cx="331" cy="589" r="10" fill="#5f4b8b" opacity="0.57" />
<circle cx="422" cy="348" r="8" fill="#5f4b8b" opacity="0.60" />
<circle cx="676" cy="117" r="3" fill="#5f4b8b" opacity="0.74" />
<circle cx="559" cy="523" r="3" fill="#5f4b8b" opacity="0.80" />
<circle cx="500" cy="8" r="10" fill="#5f4b8b" opacity="0.84" />
<circle cx="710" cy="402" r="4" fill="#5f4b8b" opacity="0.82" />
<circle cx="866" cy="282" r="10" fill="#5f4b8b" opacity="0.85" />
<circle cx="388" cy="42" r="7" fill="#5f4b8b" opacity="0.87" />
<circle cx="475" cy="4" r="8" fill="#5f4b8b" opacity="0.82" />
<circle cx="838" cy="550" r="3" fill="#5f4b8b" opacity="0.58" />
<circle cx="63" cy="105" r="7" fill="#5f4b8b" opacity="0.87" />
<circle cx="230" cy="437" r="8" fill="#5f4b8b" opacity="0.73" />
<circle cx="592" cy="482" r="9" fill="#5f4b8b" opacity="0.72" />
<circle cx="101" cy="249" r="7" fill="#5f4b8b" opacity="0.86" />
<circle cx="118" cy="22" r="6" fill="#5f4b8b" opacity="0.85" />
<circle cx="98" cy="451" r="8" fill="#5f4b8b" opacity="0.89" />
<circle cx="189" cy="551" r="4" fill="#5f4b8b" opacity="0.61" />
<circle cx="720" cy="247" r="4" fill="#5f4b8b" opacity="0.78" />
<circle cx="742" cy="547" r="8" fill="#5f4b8b" opacity="0.80" />
<circle cx="79" cy="367" r="9" fill="#5f4b8b" opacity="0.72" />
<circle cx="316" cy="137" r="9" fill="#5f4b8b" opacity="0.64" />
<circle cx="649" cy="117" r="5" fill="#5f4b8b" opacity="0.83" />
<circle cx="443" cy="136" r="7" fill="#5f4b8b" opacity="0.79" />
<circle cx="453" cy="201" r="11" fill="#5f4b8b" opacity="0.63" />
<circle cx="509" cy="51" r="6" fill="#5f4b8b" opacity="0.64" />
<circle cx="72" cy="273" r="10" fill="#5f4b8b" opacity="0.87" />
<circle cx="271" cy="120" r="3" fill="#5f4b8b" opacity="0.79" />
<circle cx="355" cy="573" r="7" fill="#5f4b8b" opacity="0.56" />
<circle cx="205" cy="531" r="3" fill="#5f4b8b" opacity="0.77" />
<circle cx="624" cy="552" r="9" fill="#5f4b8b" opacity="0.71" />
<circle cx="549" cy="521" r="3" fill="#5f4b8b" opacity="0.65" />
<circle cx="259" cy="283" r="11" fill="#5f4b8b" opacity="0.58" />
<circle cx="695" cy="297" r="8" fill="#5f4b8b" opacity="0.69" />
<circle cx="884" cy="392" r="3" fill="#5f4b8b" opacity="0.67" />
<circle cx="372" cy="158" r="5" fill="#5f4b8b" opacity="0.71" />
<circle cx="88" cy="6" r="6" fill="#5f4b8b" opacity="0.81" />
<circle cx="557" cy="126" r="11" fill="#5f4b8b" opacity="0.55" />
<circle cx="257" cy="407" r="9" fill="#5f4b8b" opacity="0.58" />
<circle cx="587" cy="330" r="6" fill="#5f4b8b" opacity="0.74" />
<circle cx="425" cy="199" r="5" fill="#5f4b8b" opacity="0.83" />
<circle cx="633" cy="296" r="5" fill="#5f4b8b" opacity="0.82" />
<circle cx="290" cy="231" r="5" fill="#5f4b8b" opacity="0.67" />
<circle cx="86" cy="195" r="5" fill="#5f4b8b" opacity="0.89" />
<circle cx="132" cy="105" r="6" fill="#5f4b8b" opacity="0.74" />
<circle cx="832" cy="430" r="8" fill="#5f4b8b" opacity="0.80" />
<circle cx="382" cy="303" r="11" fill="#5f4b8b" opacity="0.76" />
<circle cx="47" cy="231" r="7" fill="#5f4b8b" opacity="0.85" />
<circle cx="872" cy="570" r="3" fill="#5f4b8b" opacity="0.65" />
<circle cx="556" cy="253" r="6" fill="#5f4b8b" opacity="0.58" />
<circle cx="762" cy="467" r="6" fill="#5f4b8b" opacity="0.84" />
<circle cx="160" cy="63" r="4" fill="#5f4b8b" opacity="0.77" />
<circle cx="391" cy="174" r="8" fill="#5f4b8b" opacity="0.62" />
<circle cx="444" cy="505" r="9" fill="#5f4b8b" opacity="0.79" />
<circle cx="419" cy="366" r="9" fill="#5f4b8b" opacity="0.80" />
<circle cx="232" cy="329" r="8" fill="#5f4b8b" opacity="0.83" />
<circle cx="327" cy="23" r="7" fill="#5f4b8b" opacity="0.64" />
<circle cx="560" cy="598" r="4" fill="#5f4b8b" opacity="0.78" />
<circle cx="411" cy="55" r="5" fill="#5f4b8b" opacity="0.63" />
<circle cx="575" cy="177" r="7" fill="#5f4b8b" opacity="0.85" />
<circle cx="885" cy="85" r="6" fill="#5f4b8b" opacity="0.84" />
<circle cx="325" cy="315" r="4" fill="#5f4b8b" opacity="0.84" />
<circle cx="369" cy="244" r="3" fill="#5f4b8b" opacity="0.74" />
<circle cx="634" cy="446" r="7" fill="#5f4b8b" opacity="0.90" />
<circle cx="518" cy="378" r="4" fill="#5f4b8b" opacity="0.77" />
<circle cx="598" cy="61" r="7" fill="#5f4b8b" opacity="0.89" />
<circle cx="601" cy="473" r="7" fill="#5f4b8b" opacity="0.70" />
<circle cx="446" cy="207" r="9" fill="#5f4b8b" opacity="0.81" />
<circle cx="321" cy="206" r="11" fill="#5f4b8b" opacity="0.89" />
<circle cx="491" cy="512" r="7" fill="#5f4b8b" opacity="0.71" />
<circle cx="352" cy="454" r="4" fill="#5f4b8b" opacity="0.59" />
<circle cx="585" cy="434" r="5" fill="#5f4b8b" opacity="0.67" />
<circle cx="292" cy="230" r="11" fill="#5f4b8b" opacity="0.81" />
<circle cx="269" cy="174" r="6" fill="#5f4b8b" opacity="0.64" />
<circle cx="14" cy="224" r="7" fill="#5f4b8b" opacity="0.67" />
<line x1="168" y1="170" x2="227" y2="114" stroke="#c17c74" stroke-width="3.45" opacity="0.2" />
<line x1="198" y1="560" x2="197" y2="578" stroke="#c17c74" stroke-width="1.65" opacity="0.2" />
<line x1="46" y1="109" x2="84" y2="150" stroke="#c17c74" stroke-width="1.29" opacity="0.2" />
<line x1="48" y1="316" x2="99" y2="330" stroke="#c17c74" stroke-width="2.76" opacity="0.2" />
<line x1="93" y1="74" x2="136" y2="75" stroke="#c17c74" stroke-width="1.01" opacity="0.2" />
<line x1="112" y1="360" x2="147" y2="315" stroke="#c17c74" stroke-width="3.16" opacity="0.2" />
<line x1="420" y1="429" x2="401" y2="379" stroke="#c17c74" stroke-width="3.00" opacity="0.2" />
<line x1="197" y1="450" x2="231" y2="452" stroke="#c17c74" stroke-width="2.57" opacity="0.2" />
<line x1="348" y1="555" x2="342" y2="547" stroke="#c17c74" stroke-width="3.48" opacity="0.2" />
<line x1="474" y1="234" x2="459" y2="194" stroke="#c17c74" stroke-width="2.36" opacity="0.2" />
<line x1="837" y1="174" x2="852" y2="192" stroke="#c17c74" stroke-width="1.81" opacity="0.2" />
<line x1="125" y1="411" x2="127" y2="458" stroke="#c17c74" stroke-width="2.89" opacity="0.2" />
<line x1="721" y1="26" x2="758" y2="-30" stroke="#c17c74" stroke-width="1.68" opacity="0.2" />
<line x1="378" y1="63" x2="344" y2="28" stroke="#c17c74" stroke-width="3.24" opacity="0.2" />
<line x1="100" y1="124" x2="90" y2="138" stroke="#c17c74" stroke-width="1.32" opacity="0.2" />
<line x1="521" y1="532" x2="570" y2="580" stroke="#c17c74" stroke-width="2.10" opacity="0.2" />
<line x1="237" y1="339" x2="272" y2="339" stroke="#c17c74" stroke-width="2.66" opacity="0.2" />
<line x1="441" y1="128" x2="489" y2="101" stroke="#c17c74" stroke-width="2.32" opacity="0.2" />
<line x1="835" y1="125" x2="819" y2="121" stroke="#c17c74" stroke-width="2.27" opacity="0.2" />
<line x1="214" y1="187" x2="158" y2="143" stroke="#c17c74" stroke-width="3.18" opacity="0.2" />
<line x1="331" y1="439" x2="356" y2="398" stroke="#c17c74" stroke-width="1.45" opacity="0.2" />
<line x1="387" y1="490" x2="437" y2="504" stroke="#c17c74" stroke-width="1.03" opacity="0.2" />
<line x1="13" y1="352" x2="20" y2="331" stroke="#c17c74" stroke-width="3.07" opacity="0.2" />
<line x1="787" y1="599" x2="814" y2="570" stroke="#c17c74" stroke-width="3.16" opacity="0.2" />
<line x1="447" y1="343" x2="447" y2="382" stroke="#c17c74" stroke-width="3.28" opacity="0.2" />
<line x1="766" y1="361" x2="788" y2="397" stroke="#c17c74" stroke-width="1.39" opacity="0.2" />
<line x1="501" y1="131" x2="446" y2="94" stroke="#c17c74" stroke-width="1.21" opacity="0.2" />
<line x1="708" y1="575" x2="741" y2="569" stroke="#c17c74" stroke-width="1.90" opacity="0.2" />
<line x1="799" y1="294" x2="838" y2="335" stroke="#c17c74" stroke-width="2.91" opacity="0.2" />
<line x1="486" y1="293" x2="525" y2="336" stroke="#c17c74" stroke-width="1.09" opacity="0.2" />
</svg>