<?xml version="1.0" encoding="UTF-8"?>
<svg xmlns="http://www.w3.org/2000/svg" width="900" height="600" viewBox="0 0 900 600">
<rect width="100%" height="100%" fill="#f7f0e8" />
<circle cx="199" cy="234" r="24" fill="#f0d2c0" opacity="0.48" />
<circle cx="888" cy="142" r="25" fill="#f0d2c0" opacity="0.41" />
<circle cx="601" cy="537" r="19" fill="#f0d2c0" opacity="0.54" />
<circle cx="4" cy="529" r="12" fill="#f0d2c0" opacity="0.58" />
<circle cx="565" cy="459" r="23" fill="#f0d2c0" opacity="0.57" />
<circle cx="697" cy="157" r="14" fill="#f0d2c0" opacity="0.43" />
<circle cx="136" cy="553" r="8" fill="#f0d2c0" opacity="0.37" />
<circle cx="210" cy="92" r="12" fill="#f0d2c0" opacity="0.38" />
<circle cx="737" cy="137" r="10" fill="#f0d2c0" opacity="0.36" />
<circle cx="258" cy="7" r="22" fill="#f0d2c0" opacity="0.39" />
<circle cx="189" cy="417" r="13" fill="#f0d2c0" opacity="0.57" />
<circle cx="298" cy="451" r="8" fill="#f0d2c0" opacity="0.50" />
<circle cx="855" cy="586" r="26" fill="#f0d2c0" opacity="0.57" />
<circle cx="140" cy="445" r="24" fill="#f0d2c0" opacity="0.39" />
<circle cx="870" cy="289" r="11" fill="#f0d2c0" opacity="0.43" />
<circle cx="11" cy="563" r="29" fill="#f0d2c0" opacity="0.44" />
<circle cx="557" cy="405" r="17" fill="#f0d2c0" opacity="0.60" />
<circle cx="845" cy="572" r="25" fill="#f0d2c0" opacity="0.38" />
<circle cx="36" cy="567" r="11" fill="#f0d2c0" opacity="0.46" />
<circle cx="682" cy="548" r="27" fill="#f0d2c0" opacity="0.53" />
<circle cx="515" cy="341" r="22" fill="#f0d2c0" opacity="0.57" />
<circle cx="882" cy="391" r="23" fill="#f0d2c0" opacity="0.37" />
<circle cx="251" cy="476" r="27" fill="#f0d2c0" opacity="0.45" />
<circle cx="290" cy="552" r="12" fill="#f0d2c0" opacity="0.52" />
<circle cx="862" cy="320" r="16" fill="#f0d2c0" opacity="0.56" />
<circle cx="339" cy="79" r="28" fill="#f0d2c0" opacity="0.53" />
<circle cx="448" cy="176" r="14" fill="#f0d2c0" opacity="0.47" />
<circle cx="17" cy="11" r="21" fill="#f0d2c0" opacity="0.43" />
<circle cx="604" cy="462" r="26" fill="#f0d2c0" opacity="0.44" />
<circle cx="314" cy="212" r="23" fill="#f0d2c0" opacity="0.55" />
<circle cx="368" cy="466" r="17" fill="#f0d2c0" opacity="0.36" />
<circle cx="83" cy="53" r="24" fill="#f0d2c0" opacity="0.53" />
<circle cx="835" cy="585" r="25" fill="#f0d2c0" opacity="0.56" />
<circle cx="440" cy="13" r="11" fill="#f0d2c0" opacity="0.58" />
<circle cx="831" cy="322" r="29" fill="#f0d2c0" opacity="0.59" />
<circle cx="150" cy="506" r="12" fill="#f0d2c0" opacity="0.39" />
<circle cx="289" cy="69" r="10" fill="#f0d2c0" opacity="0.57" />
<circle cx="548" cy="352" r="29" fill="#f0d2c0" opacity="0.40" />
<circle cx="304" cy="46" r="28" fill="#f0d2c0" opacity="0.43" />
<circle cx="513" cy="509" r="28" fill="#f0d2c0" opacity="0.37" />
<circle cx="558" cy="143" r="8" fill="#f0d2c0" opacity="0.42" />
<circle cx="181" cy="100" r="19" fill="#f0d2c0" opacity="0.42" />
<circle cx="871" cy="437" r="23" fill="#f0d2c0" opacity="0.46" />
<circle cx="1" cy="413" r="28" fill="#f0d2c0" opacity="0.49" />
<circle cx="886" cy="285" r="15" fill="#f0d2c0" opacity="0.40" />
<circle cx="660" cy="347" r="15" fill="#f0d2c0" opacity="0.39" />
<circle cx="571" cy="40" r="14" fill="#f0d2c0" opacity="0.57" />
<circle cx="812" cy="150" r="16" fill="#f0d2c0" opacity="0.48" />
<circle cx="484" cy="497" r="8" fill="#f0d2c0" opacity="0.53" />
<circle cx="634" cy="136" r="28" fill="#f0d2c0" opacity="0.53" />
<circle cx="550" cy="6" r="29" fill="#f0d2c0" opacity="0.36" />
<circle cx="480" cy="500" r="26" fill="#f0d2c0" opacity="0.39" />
<circle cx="207" cy="338" r="21" fill="#f0d2c0" opacity="0.53" />
<circle cx="226" cy="61" r="20" fill="#f0d2c0" opacity="0.48" />
<circle cx="107" cy="79" r="17" fill="#f0d2c0" opacity="0.53" />
<circle cx="658" cy="243" r="23" fill="#f0d2c0" opacity="0.45" />
<circle cx="559" cy="376" r="26" fill="#f0d2c0" opacity="0.51" />
<circle cx="540" cy="313" r="14" fill="#f0d2c0" opacity="0.53" />
<circle cx="610" cy="38" r="15" fill="#f0d2c0" opacity="0.37" />
<circle cx="26" cy="2" r="14" fill="#f0d2c0" opacity="0.45" />
<circle cx="140" cy="241" r="18" fill="#f0d2c0" opacity="0.52" />
<circle cx="353" cy="110" r="24" fill="#f0d2c0" opacity="0.55" />
<circle cx="539" cy="30" r="17" fill="#f0d2c0" opacity="0.46" />
<circle cx="523" cy="575" r="27" fill="#f0d2c0" opacity="0.52" />
<circle cx="48" cy="326" r="15" fill="#f0d2c0" opacity="0.38" />
<circle cx="879" cy="465" r="27" fill="#f0d2c0" opacity="0.49" />
<circle cx="375" cy="175" r="17" fill="#f0d2c0" opacity="0.38" />
<circle cx="511" cy="51" r="12" fill="#f0d2c0" opacity="0.48" />
<circle cx="215" cy="287" r="13" fill="#f0d2c0" opacity="0.60" />
<circle cx="561" cy="524" r="23" fill="#f0d2c0" opacity="0.43" />
<circle cx="313" cy="341" r="13" fill="#f0d2c0" opacity="0.36" />
<circle cx="308" cy="72" r="21" fill="#f0d2c0" opacity="0.55" />
<circle cx="850" cy="3" r="9" fill="#f0d2c0" opacity="0.45" />
<circle cx="520" cy="183" r="18" fill="#f0d2c0" opacity="0.55" />
<circle cx="733" cy="219" r="24" fill="#f0d2c0" opacity="0.41" />
<circle cx="195" cy="308" r="25" fill="#f0d2c0" opacity="0.49" />
<circle cx="14" cy="305" r="9" fill="#f0d2c0" opacity="0.55" />
<circle cx="219" cy="22" r="27" fill="#f0d2c0" opacity="0.54" />
<circle cx="69" cy="438" r="22" fill="#f0d2c0" opacity="0.52" />
<circle cx="226" cy="454" r="12" fill="#f0d2c0" opacity="0.45" />
<circle cx="197" cy="392" r="29" fill="#f0d2c0" opacity="0.47" />
<circle cx="206" cy="74" r="8" fill="#f0d2c0" opacity="0.54" />
<circle cx="103" cy="348" r="22" fill="#f0d2c0" opacity="0.51" />
<circle cx="314" cy="549" r="22" fill="#f0d2c0" opacity="0.48" />
<circle cx="718" cy="540" r="16" fill="#f0d2c0" opacity="0.38" />
<circle cx="296" cy="42" r="17" fill="#f0d2c0" opacity="0.39" />
<circle cx="53" cy="137" r="11" fill="#f0d2c0" opacity="0.48" />
<circle cx="342" cy="320" r="11" fill="#f0d2c0" opacity="0.47" />
<circle cx="302" cy="194" r="26" fill="#f0d2c0" opacity="0.45" />
<circle cx="822" cy="176" r="28" fill="#f0d2c0" opacity="0.41" />
<circle cx="703" cy="426" r="28" fill="#f0d2c0" opacity="0.49" />
<circle cx="845" cy="73" r="8" fill="#f0d2c0" opacity="0.36" />
<circle cx="552" cy="229" r="17" fill="#f0d2c0" opacity="0.59" />
<circle cx="539" cy="118" r="14" fill="#f0d2c0" opacity="0.36" />
<circle cx="134" cy="546" r="28" fill="#f0d2c0" opacity="0.50" />
<circle cx="807" cy="587" r="19" fill="#f0d2c0" opacity="0.40" />
<circle cx="97" cy="334" r="23" fill="#f0d2c0" opacity="0.51" />
<circle cx="645" cy="244" r="16" fill="#f0d2c0" opacity="0.53" />
<circle cx="553" cy="303" r="19" fill="#f0d2c0" opacity="0.50" />
<circle cx="413" cy="156" r="10" fill="#f0d2c0" opacity="0.47" />
<circle cx="483" cy="219" r="25" fill="#f0d2c0" opacity="0.45" />
<circle cx="25" cy="170" r="9" fill="#f0d2c0" opacity="0.49" />
<circle cx="885" cy="353" r="22" fill="#f0d2c0" opacity="0.57" />
<circle cx="39" cy="137" r="26" fill="#f0d2c0" opacity="0.56" />
<circle cx="384" cy="288" r="24" fill="#f0d2c0" opacity="0.43" />
<circle cx="464" cy="23" r="15" fill="#f0d2c0" opacity="0.39" />
<circle cx="875" cy="523" r="17" fill="#f0d2c0" opacity="0.44" />
<circle cx="746" cy="437" r="9" fill="#f0d2c0" opacity="0.50" />
<circle cx="387" cy="457" r="23" fill="#f0d2c0" opacity="0.39" />
<circle cx="737" cy="282" r="29" fill="#f0d2c0" opacity="0.43" />
<circle cx="857" cy="412" r="25" fill="#f0d2c0" opacity="0.50" />
<circle cx="837" cy="124" r="9" fill="#f0d2c0" opacity="0.49" />
<circle cx="441" cy="503" r="23" fill="#f0d2c0" opacity="0.54" />
<circle cx="315" cy="148" r="12" fill="#f0d2c0" opacity="0.54" />
<circle cx="125" cy="295" r="23" fill="#f0d2c0" opacity="0.36" />
<circle cx="827" cy="346" r="24" fill="#f0d2c0" opacity="0.44" />
<circle cx="877" cy="585" r="16" fill="#f0d2c0" opacity="0.36" />
<circle cx="377" cy="341" r="24" fill="#f0d2c0" opacity="0.42" />
<circle cx="342" cy="141" r="21" fill="#f0d2c0" opacity="0.37" />
<circle cx="892" cy="476" r="8" fill="#f0d2c0" opacity="0.60" />
<circle cx="352" cy="426" r="10" fill="#f0d2c0" opacity="0.41" />
<circle cx="755" cy="350" r="24" fill="#f0d2c0" opacity="0.41" />
<circle cx="600" cy="271" r="21" fill="#f0d2c0" opacity="0.47" />
<circle cx="359" cy="126" r="14" fill="#f0d2c0" opacity="0.40" />
<circle cx="170" cy="112" r="28" fill="#f0d2c0" opacity="0.55" />
<circle cx="461" cy="66" r="12" fill="#f0d2c0" opacity="0.51" />
<circle cx="117" cy="422" r="19" fill="#f0d2c0" opacity="0.36" />
<circle cx="240" cy="591" r="11" fill="#f0d2c0" opacity="0.45" />
<circle cx="73" cy="447" r="26" fill="#f0d2c0" opacity="0.58" />
<circle cx="466" cy="20" r="14" fill="#f0d2c0" opacity="0.42" />
<circle cx="174" cy="240" r="9" fill="#f0d2c0" opacity="0.39" />
<circle cx="514" cy="148" r="19" fill="#f0d2c0" opacity="0.38" />
<circle cx="88" cy="433" r="25" fill="#f0d2c0" opacity="0.51" />
<circle cx="238" cy="34" r="6" fill="#6f4c8b" opacity="0.80" />
<circle cx="55" cy="403" r="3" fill="#6f4c8b" opacity="0.68" />
<circle cx="657" cy="351" r="8" fill="#6f4c8b" opacity="0.73" />
<circle cx="6" cy="240" r="5" fill="#6f4c8b" opacity="0.89" />
<circle cx="846" cy="331" r="11" fill="#6f4c8b" opacity="0.58" />
<circle cx="281" cy="205" r="3" fill="#6f4c8b" opacity="0.87" />
<circle cx="240" cy="272" r="10" fill="#6f4c8b" opacity="0.79" />
<circle cx="897" cy="105" r="4" fill="#6f4c8b" opacity="0.57" />
<circle cx="214" cy="430" r="3" fill="#6f4c8b" opacity="0.67" />
<circle cx="625" cy="173" r="3" fill="#6f4c8b" opacity="0.82" />
<circle cx="705" cy="583" r="5" fill="#6f4c8b" opacity="0.88" />
<circle cx="204" cy="229" r="8" fill="#6f4c8b" opacity="0.57" />
<circle cx="692" cy="578" r="10" fill="#6f4c8b" opacity="0.74" />
<circle cx="229" cy="312" r="11" fill="#6f4c8b" opacity="0.63" />
<circle cx="403" cy="72" r="7" fill="#6f4c8b" opacity="0.62" />
<circle cx="612" cy="299" r="7" fill="#6f4c8b" opacity="0.57" />
<circle cx="430" cy="121" r="5" fill="#6f4c8b" opacity="0.76" />
<circle cx="624" cy="208" r="4" fill="#6f4c8b" opacity="0.80" />
<circle cx="288" cy="397" r="11" fill="#6f4c8b" opacity="0.64" />
<circle cx="570" cy="176" r="6" fill="#6f4c8b" opacity="0.72" />
<circle cx="297" cy="47" r="9" fill="#6f4c8b" opacity="0.72" />
<circle cx="372" cy="100" r="5" fill="#6f4c8b" opacity="0.66" />
<circle cx="696" cy="436" r="8" fill="#6f4c8b" opacity="0.84" />
<circle cx="899" cy="403" r="4" fill="#6f4c8b" opacity="0.78" />
<circle cx="774" cy="61" r="7" fill="#6f4c8b" opacity="0.76" />
<circle cx="126" cy="257" r="3" fill="#6f4c8b" opacity="0.80" />
<circle cx="693" cy="359" r="8" fill="#6f4c8b" opacity="0.61" />
<circle cx="85" cy="306" r="3" fill="#6f4c8b" opacity="0.72" />
<circle cx="42" cy="316" r="5" fill="#6f4c8b" opacity="0.84" />
<circle cx="666" cy="333" r="8" fill="#6f4c8b" opacity="0.86" />
<circle cx="422" cy="352" r="7" fill="#6f4c8b" opacity="0.61" />
<circle cx="57" cy="348" r="6" fill="#6f4c8b" opacity="0.76" />
<circle cx="301" cy="571" r="6" fill="#6f4c8b" opacity="0.58" />
<circle cx="521" cy="99" r="4" fill="#6f4c8b" opacity="0.66" />
<circle cx="507" cy="491" r="9" fill="#6f4c8b" opacity="0.57" />
<circle cx="760" cy="450" r="5" fill="#6f4c8b" opacity="0.58" />
<circle cx="209" cy="94" r="11" fill="#6f4c8b" opacity="0.61" />
<circle cx="12" cy="13" r="5" fill="#6f4c8b" opacity="0.71" />
<circle cx="505" cy="159" r="7" fill="#6f4c8b" opacity="0.72" />
<circle cx="357" cy="330" r="5" fill="#6f4c8b" opacity="0.65" />
<circle cx="143" cy="575" r="9" fill="#6f4c8b" opacity="0.72" />
<circle cx="687" cy="147" r="8" fill="#6f4c8b" opacity="0.90" />
<circle cx="898" cy="295" r="11" fill="#6f4c8b" opacity="0.61" />
<circle cx="613" cy="230" r="5" fill="#6f4c8b" opacity="0.76" />
<circle cx="726" cy="467" r="7" fill="#6f4c8b" opacity="0.80" />
<circle cx="675" cy="466" r="8" fill="#6f4c8b" opacity="0.73" />
<circle cx="268" cy="27" r="7" fill="#6f4c8b" opacity="0.60" />
<circle cx="34" cy="276" r="6" fill="#6f4c8b" opacity="0.84" />
<circle cx="893" cy="245" r="5" fill="#6f4c8b" opacity="0.66" />
<circle cx="535" cy="1" r="5" fill="#6f4c8b" opacity="0.65" />
<circle cx="149" cy="400" r="11" fill="#6f4c8b" opacity="0.65" />
<circle cx="331" cy="63" r="5" fill="#6f4c8b" opacity="0.62" />
<circle cx="746" cy="524" r="4" fill="#6f4c8b" opacity="0.79" />
<circle cx="221" cy="480" r="4" fill="#6f4c8b" opacity="0.66" />
<circle cx="10" cy="82" r="11" fill="#6f4c8b" opacity="0.59" />
<circle cx="722" cy="267" r="4" fill="#6f4c8b" opacity="0.59" />
<circle cx="137" cy="462" r="11" fill="#6f4c8b" opacity="0.86" />
<circle cx="321" cy="421" r="5" fill="#6f4c8b" opacity="0.78" />
<circle cx="441" cy="522" r="9" fill="#6f4c8b" opacity="0.62" />
<circle cx="167" cy="498" r="3" fill="#6f4c8b" opacity="0.72" />
<circle cx="253" cy="542" r="8" fill="#6f4c8b" opacity="0.78" />
<circle cx="303" cy="220" r="8" fill="#6f4c8b" opacity="0.74" />
<circle cx="132" cy="358" r="5" fill="#6f4c8b" opacity="0.61" />
<circle cx="284" cy="119" r="3" fill="#6f4c8b" opacity="0.82" />
<circle cx="47" cy="174" r="11" fill="#6f4c8b" opacity="0.71" />
<circle cx="183" cy="235" r="11" fill="#6f4c8b" opacity="0.65" />
<circle cx="326" cy="282" r="8" fill="#6f4c8b" opacity="0.82" />
<circle cx="343" cy="66" r="4" fill="#6f4c8b" opacity="0.70" />
<circle cx="328" cy="351" r="4" fill="#6f4c8b" opacity="0.72" />
<circle cx="190" cy="195" r="7" fill="#6f4c8b" opacity="0.82" />
<circle cx="664" cy="179" r="9" fill="#6f4c8b" opacity="0.78" />
<circle cx="55" cy="283" r="8" fill="#6f4c8b" opacity="0.88" />
<circle cx="6" cy="292" r="8" fill="#6f4c8b" opacity="0.62" />
<circle cx="550" cy="94" r="9" fill="#6f4c8b" opacity="0.62" />
<circle cx="295" cy="514" r="11" fill="#6f4c8b" opacity="0.58" />
<circle cx="467" cy="498" r="6" fill="#6f4c8b" opacity="0.64" />
<circle cx="742" cy="301" r="5" fill="#6f4c8b" opacity="0.77" />
<circle cx="100" cy="167" r="11" fill="#6f4c8b" opacity="0.60" />
<circle cx="374" cy="429" r="4" fill="#6f4c8b" opacity="0.56" />
<circle cx="493" cy="431" r="8" fill="#6f4c8b" opacity="0.73" />
<circle cx="226" cy="367" r="4" fill="#6f4c8b" opacity="0.64" />
<circle cx="630" cy="163" r="11" fill="#6f4c8b" opacity="0.56" />
<circle cx="225" cy="379" r="3" fill="#6f4c8b" opacity="0.73" />
<circle cx="194" cy="13" r="8" fill="#6f4c8b" opacity="0.74" />
<circle cx="337" cy="271" r="9" fill="#6f4c8b" opacity="0.71" />
<circle cx="783" cy="5" r="11" fill="#6f4c8b" opacity="0.89" />
<circle cx="843" cy="129" r="6" fill="#6f4c8b" opacity="0.69" />
<circle cx="57" cy="70" r="8" fill="#6f4c8b" opacity="0.80" />
<circle cx="350" cy="25" r="10" fill="#6f4c8b" opacity="0.57" />
<circle cx="277" cy="566" r="9" fill="#6f4c8b" opacity="0.73" />
<circle cx="347" cy="340" r="5" fill="#6f4c8b" opacity="0.69" />
<line x1="148" y1="295" x2="149" y2="264" stroke="#c889a0" stroke-width="1.73" opacity="0.2" />
<line x1="158" y1="424" x2="113" y2="413" stroke="#c889a0" stroke-width="1.56" opacity="0.2" />
<line x1="388" y1="358" x2="346" y2="368" stroke="#c889a0" stroke-width="2.51" opacity="0.2" />
<line x1="93" y1="173" x2="109" y2="224" stroke="#c889a0" stroke-width="1.52" opacity="0.2" />
<line x1="824" y1="307" x2="845" y2="361" stroke="#c889a0" stroke-width="1.69" opacity="0.2" />
<line x1="753" y1="235" x2="783" y2="265" stroke="#c889a0" stroke-width="2.31" opacity="0.2" />
<line x1="252" y1="97" x2="235" y2="137" stroke="#c889a0" stroke-width="1.88" opacity="0.2" />
<line x1="773" y1="263" x2="767" y2="268" stroke="#c889a0" stroke-width="3.45" opacity="0.2" />
<line x1="29" y1="588" x2="-31" y2="574" stroke="#c889a0" stroke-width="3.09" opacity="0.2" />
<line x1="750" y1="37" x2="723" y2="26" stroke="#c889a0" stroke-width="1.05" opacity="0.2" />
<line x1="762" y1="496" x2="758" y2="548" stroke="#c889a0" stroke-width="1.20" opacity="0.2" />
<line x1="717" y1="2" x2="748" y2="38" stroke="#c889a0" stroke-width="3.36" opacity="0.2" />
<line x1="779" y1="525" x2="742" y2="493" stroke="#c889a0" stroke-width="3.02" opacity="0.2" />
<line x1="436" y1="335" x2="454" y2="375" stroke="#c889a0" stroke-width="2.26" opacity="0.2" />
<line x1="216" y1="37" x2="185" y2="79" stroke="#c889a0" stroke-width="1.49" opacity="0.2" />
<line x1="729" y1="107" x2="783" y2="87" stroke="#c889a0" stroke-width="2.51" opacity="0.2" />
<line x1="240" y1="151" x2="251" y2="170" stroke="#c889a0" stroke-width="1.60" opacity="0.2" />
<line x1="609" y1="103" x2="657" y2="97" stroke="#c889a0" stroke-width="1.96" opacity="0.2" />
<line x1="665" y1="252" x2="609" y2="216" stroke="#c889a0" stroke-width="3.48" opacity="0.2" />
<line x1="28" y1="156" x2="-5" y2="145" stroke="#c889a0" stroke-width="2.63" opacity="0.2" />
<line x1="604" y1="15" x2="581" y2="-22" stroke="#c889a0" stroke-width="2.91" opacity="0.2" />
<line x1="150" y1="435" x2="191" y2="448" stroke="#c889a0" stroke-width="1.01" opacity="0.2" />
<line x1="190" y1="331" x2="160" y2="351" stroke="#c889a0" stroke-width="2.74" opacity="0.2" />
<line x1="196" y1="72" x2="205" y2="112" stroke="#c889a0" stroke-width="2.40" opacity="0.2" />
<line x1="532" y1="230" x2="497" y2="226" stroke="#c889a0" stroke-width="2.08" opacity="0.2" />
<line x1="795" y1="77" x2="741" y2="30" stroke="#c889a0" stroke-width="3.30" opacity="0.2" />
<line x1="528" y1="181" x2="501" y2="223" stroke="#c889a0" stroke-width="2.98" opacity="0.2" />
<line x1="488" y1="590" x2="466" y2="644" stroke="#c889a0" stroke-width="1.18" opacity="0.2" />
<line x1="813" y1="88" x2="768" y2="36" stroke="#c889a0" stroke-width="1.80" opacity="0.2" />
<line x1="741" y1="509" x2="704" y2="544" stroke="#c889a0" stroke-width="1.33" opacity="0.2" />
</svg>