<?xml version="1.0" encoding="UTF-8"?>
<svg xmlns="http://www.w3.org/2000/svg" width="900" height="600" viewBox="0 0 900 600">
<rect width="100%" height="100%" fill="#f7f0e8" />
<circle cx="212" cy="153" r="24" fill="#f0d2c0" opacity="0.57" />
<circle cx="110" cy="489" r="21" fill="#f0d2c0" opacity="0.51" />
<circle cx="35" cy="511" r="20" fill="#f0d2c0" opacity="0.60" />
<circle cx="459" cy="90" r="17" fill="#f0d2c0" opacity="0.48" />
<circle cx="744" cy="92" r="15" fill="#f0d2c0" opacity="0.49" />
<circle cx="51" cy="525" r="24" fill="#f0d2c0" opacity="0.47" />
<circle cx="774" cy="379" r="23" fill="#f0d2c0" opacity="0.36" />
<circle cx="853" cy="96" r="29" fill="#f0d2c0" opacity="0.42" />
<circle cx="488" cy="241" r="24" fill="#f0d2c0" opacity="0.49" />
<circle cx="130" cy="79" r="22" fill="#f0d2c0" opacity="0.43" />
<circle cx="553" cy="401" r="24" fill="#f0d2c0" opacity="0.39" />
<circle cx="238" cy="535" r="11" fill="#f0d2c0" opacity="0.36" />
<circle cx="94" cy="344" r="26" fill="#f0d2c0" opacity="0.42" />
<circle cx="216" cy="286" r="20" fill="#f0d2c0" opacity="0.49" />
<circle cx="165" cy="270" r="23" fill="#f0d2c0" opacity="0.43" />
<circle cx="808" cy="408" r="21" fill="#f0d2c0" opacity="0.44" />
<circle cx="695" cy="452" r="24" fill="#f0d2c0" opacity="0.53" />
<circle cx="736" cy="493" r="27" fill="#f0d2c0" opacity="0.42" />
<circle cx="572" cy="121" r="28" fill="#f0d2c0" opacity="0.37" />
<circle cx="761" cy="434" r="22" fill="#f0d2c0" opacity="0.36" />
<circle cx="45" cy="593" r="23" fill="#f0d2c0" opacity="0.40" />
<circle cx="872" cy="427" r="21" fill="#f0d2c0" opacity="0.51" />
<circle cx="790" cy="189" r="12" fill="#f0d2c0" opacity="0.45" />
<circle cx="319" cy="372" r="19" fill="#f0d2c0" opacity="0.38" />
<circle cx="619" cy="396" r="20" fill="#f0d2c0" opacity="0.37" />
<circle cx="636" cy="597" r="19" fill="#f0d2c0" opacity="0.42" />
<circle cx="25" cy="599" r="14" fill="#f0d2c0" opacity="0.55" />
<circle cx="181" cy="358" r="9" fill="#f0d2c0" opacity="0.49" />
<circle cx="215" cy="590" r="29" fill="#f0d2c0" opacity="0.59" />
<circle cx="113" cy="468" r="29" fill="#f0d2c0" opacity="0.58" />
<circle cx="23" cy="266" r="12" fill="#f0d2c0" opacity="0.37" />
<circle cx="165" cy="228" r="15" fill="#f0d2c0" opacity="0.52" />
<circle cx="888" cy="445" r="19" fill="#f0d2c0" opacity="0.54" />
<circle cx="46" cy="456" r="25" fill="#f0d2c0" opacity="0.41" />
<circle cx="154" cy="94" r="20" fill="#f0d2c0" opacity="0.43" />
<circle cx="818" cy="31" r="24" fill="#f0d2c0" opacity="0.41" />
<circle cx="470" cy="381" r="10" fill="#f0d2c0" opacity="0.51" />
<circle cx="161" cy="91" r="21" fill="#f0d2c0" opacity="0.48" />
<circle cx="366" cy="166" r="17" fill="#f0d2c0" opacity="0.56" />
<circle cx="61" cy="2" r="17" fill="#f0d2c0" opacity="0.39" />
<circle cx="45" cy="231" r="10" fill="#f0d2c0" opacity="0.48" />
<circle cx="369" cy="482" r="9" fill="#f0d2c0" opacity="0.52" />
<circle cx="658" cy="201" r="29" fill="#f0d2c0" opacity="0.37" />
<circle cx="44" cy="77" r="20" fill="#f0d2c0" opacity="0.38" />
<circle cx="80" cy="352" r="10" fill="#f0d2c0" opacity="0.36" />
<circle cx="12" cy="378" r="8" fill="#f0d2c0" opacity="0.48" />
<circle cx="20" cy="320" r="12" fill="#f0d2c0" opacity="0.52" />
<circle cx="252" cy="126" r="24" fill="#f0d2c0" opacity="0.37" />
<circle cx="898" cy="472" r="19" fill="#f0d2c0" opacity="0.40" />
<circle cx="776" cy="432" r="11" fill="#f0d2c0" opacity="0.54" />
<circle cx="744" cy="95" r="10" fill="#f0d2c0" opacity="0.39" />
<circle cx="875" cy="22" r="16" fill="#f0d2c0" opacity="0.50" />
<circle cx="67" cy="268" r="21" fill="#f0d2c0" opacity="0.50" />
<circle cx="485" cy="280" r="20" fill="#f0d2c0" opacity="0.47" />
<circle cx="819" cy="540" r="9" fill="#f0d2c0" opacity="0.59" />
<circle cx="474" cy="326" r="28" fill="#f0d2c0" opacity="0.52" />
<circle cx="24" cy="422" r="9" fill="#f0d2c0" opacity="0.38" />
<circle cx="203" cy="254" r="16" fill="#f0d2c0" opacity="0.52" />
<circle cx="734" cy="363" r="19" fill="#f0d2c0" opacity="0.57" />
<circle cx="736" cy="165" r="18" fill="#f0d2c0" opacity="0.42" />
<circle cx="128" cy="177" r="29" fill="#f0d2c0" opacity="0.42" />
<circle cx="165" cy="389" r="11" fill="#f0d2c0" opacity="0.59" />
<circle cx="42" cy="410" r="29" fill="#f0d2c0" opacity="0.42" />
<circle cx="506" cy="35" r="23" fill="#f0d2c0" opacity="0.38" />
<circle cx="701" cy="525" r="26" fill="#f0d2c0" opacity="0.51" />
<circle cx="710" cy="164" r="17" fill="#f0d2c0" opacity="0.38" />
<circle cx="183" cy="370" r="18" fill="#f0d2c0" opacity="0.36" />
<circle cx="253" cy="359" r="20" fill="#f0d2c0" opacity="0.55" />
<circle cx="361" cy="201" r="23" fill="#f0d2c0" opacity="0.57" />
<circle cx="146" cy="198" r="15" fill="#f0d2c0" opacity="0.51" />
<circle cx="642" cy="252" r="28" fill="#f0d2c0" opacity="0.47" />
<circle cx="77" cy="72" r="15" fill="#f0d2c0" opacity="0.46" />
<circle cx="841" cy="63" r="26" fill="#f0d2c0" opacity="0.53" />
<circle cx="623" cy="485" r="26" fill="#f0d2c0" opacity="0.45" />
<circle cx="712" cy="330" r="8" fill="#f0d2c0" opacity="0.51" />
<circle cx="646" cy="170" r="13" fill="#f0d2c0" opacity="0.46" />
<circle cx="588" cy="255" r="21" fill="#f0d2c0" opacity="0.41" />
<circle cx="678" cy="381" r="28" fill="#f0d2c0" opacity="0.56" />
<circle cx="48" cy="271" r="25" fill="#f0d2c0" opacity="0.58" />
<circle cx="587" cy="94" r="29" fill="#f0d2c0" opacity="0.41" />
<circle cx="376" cy="256" r="23" fill="#f0d2c0" opacity="0.56" />
<circle cx="296" cy="551" r="25" fill="#f0d2c0" opacity="0.38" />
<circle cx="99" cy="151" r="21" fill="#f0d2c0" opacity="0.59" />
<circle cx="474" cy="538" r="21" fill="#f0d2c0" opacity="0.49" />
<circle cx="868" cy="557" r="13" fill="#f0d2c0" opacity="0.49" />
<circle cx="563" cy="222" r="27" fill="#f0d2c0" opacity="0.39" />
<circle cx="333" cy="30" r="20" fill="#f0d2c0" opacity="0.50" />
<circle cx="757" cy="61" r="17" fill="#f0d2c0" opacity="0.37" />
<circle cx="65" cy="110" r="29" fill="#f0d2c0" opacity="0.54" />
<circle cx="524" cy="326" r="23" fill="#f0d2c0" opacity="0.47" />
<circle cx="188" cy="79" r="25" fill="#f0d2c0" opacity="0.51" />
<circle cx="872" cy="313" r="11" fill="#f0d2c0" opacity="0.53" />
<circle cx="596" cy="199" r="26" fill="#f0d2c0" opacity="0.59" />
<circle cx="636" cy="388" r="8" fill="#f0d2c0" opacity="0.60" />
<circle cx="44" cy="361" r="16" fill="#f0d2c0" opacity="0.53" />
<circle cx="289" cy="542" r="12" fill="#f0d2c0" opacity="0.40" />
<circle cx="358" cy="472" r="8" fill="#f0d2c0" opacity="0.55" />
<circle cx="192" cy="429" r="26" fill="#f0d2c0" opacity="0.56" />
<circle cx="4" cy="555" r="25" fill="#f0d2c0" opacity="0.41" />
<circle cx="428" cy="310" r="8" fill="#f0d2c0" opacity="0.49" />
<circle cx="296" cy="567" r="21" fill="#f0d2c0" opacity="0.49" />
<circle cx="316" cy="564" r="18" fill="#f0d2c0" opacity="0.44" />
<circle cx="247" cy="58" r="22" fill="#f0d2c0" opacity="0.45" />
<circle cx="560" cy="581" r="10" fill="#f0d2c0" opacity="0.42" />
<circle cx="608" cy="574" r="11" fill="#f0d2c0" opacity="0.58" />
<circle cx="366" cy="458" r="16" fill="#f0d2c0" opacity="0.44" />
<circle cx="183" cy="224" r="11" fill="#f0d2c0" opacity="0.51" />
<circle cx="234" cy="463" r="13" fill="#f0d2c0" opacity="0.42" />
<circle cx="155" cy="302" r="20" fill="#f0d2c0" opacity="0.35" />
<circle cx="153" cy="387" r="20" fill="#f0d2c0" opacity="0.52" />
<circle cx="558" cy="311" r="12" fill="#f0d2c0" opacity="0.37" />
<circle cx="304" cy="576" r="27" fill="#f0d2c0" opacity="0.55" />
<circle cx="534" cy="297" r="11" fill="#f0d2c0" opacity="0.47" />
<circle cx="438" cy="15" r="11" fill="#f0d2c0" opacity="0.35" />
<circle cx="651" cy="271" r="24" fill="#f0d2c0" opacity="0.40" />
<circle cx="858" cy="27" r="13" fill="#f0d2c0" opacity="0.50" />
<circle cx="342" cy="28" r="8" fill="#f0d2c0" opacity="0.53" />
<circle cx="52" cy="230" r="11" fill="#f0d2c0" opacity="0.46" />
<circle cx="598" cy="559" r="13" fill="#f0d2c0" opacity="0.49" />
<circle cx="155" cy="296" r="25" fill="#f0d2c0" opacity="0.39" />
<circle cx="740" cy="108" r="15" fill="#f0d2c0" opacity="0.37" />
<circle cx="566" cy="267" r="29" fill="#f0d2c0" opacity="0.35" />
<circle cx="410" cy="492" r="17" fill="#f0d2c0" opacity="0.53" />
<circle cx="385" cy="14" r="9" fill="#f0d2c0" opacity="0.44" />
<circle cx="143" cy="465" r="13" fill="#f0d2c0" opacity="0.39" />
<circle cx="402" cy="446" r="26" fill="#f0d2c0" opacity="0.46" />
<circle cx="865" cy="518" r="17" fill="#f0d2c0" opacity="0.49" />
<circle cx="121" cy="421" r="26" fill="#f0d2c0" opacity="0.43" />
<circle cx="46" cy="397" r="28" fill="#f0d2c0" opacity="0.47" />
<circle cx="569" cy="570" r="28" fill="#f0d2c0" opacity="0.55" />
<circle cx="854" cy="290" r="28" fill="#f0d2c0" opacity="0.58" />
<circle cx="541" cy="177" r="10" fill="#f0d2c0" opacity="0.43" />
<circle cx="16" cy="105" r="15" fill="#f0d2c0" opacity="0.51" />
<circle cx="31" cy="342" r="11" fill="#f0d2c0" opacity="0.49" />
<circle cx="682" cy="443" r="18" fill="#f0d2c0" opacity="0.57" />
<circle cx="895" cy="405" r="22" fill="#f0d2c0" opacity="0.37" />
<circle cx="39" cy="103" r="10" fill="#f0d2c0" opacity="0.37" />
<circle cx="361" cy="88" r="11" fill="#f0d2c0" opacity="0.46" />
<circle cx="818" cy="199" r="16" fill="#f0d2c0" opacity="0.57" />
<circle cx="471" cy="527" r="10" fill="#f0d2c0" opacity="0.45" />
<circle cx="470" cy="320" r="25" fill="#f0d2c0" opacity="0.58" />
<circle cx="332" cy="226" r="14" fill="#f0d2c0" opacity="0.38" />
<circle cx="382" cy="180" r="20" fill="#f0d2c0" opacity="0.56" />
<circle cx="456" cy="587" r="26" fill="#f0d2c0" opacity="0.51" />
<circle cx="742" cy="162" r="11" fill="#f0d2c0" opacity="0.35" />
<circle cx="101" cy="137" r="11" fill="#f0d2c0" opacity="0.38" />
<circle cx="439" cy="8" r="19" fill="#f0d2c0" opacity="0.50" />
<circle cx="483" cy="171" r="22" fill="#f0d2c0" opacity="0.51" />
<circle cx="857" cy="584" r="17" fill="#f0d2c0" opacity="0.44" />
<circle cx="815" cy="168" r="8" fill="#f0d2c0" opacity="0.55" />
<circle cx="508" cy="240" r="10" fill="#6f4c8b" opacity="0.67" />
<circle cx="366" cy="10" r="3" fill="#6f4c8b" opacity="0.57" />
<circle cx="627" cy="438" r="5" fill="#6f4c8b" opacity="0.74" />
<circle cx="672" cy="520" r="7" fill="#6f4c8b" opacity="0.60" />
<circle cx="837" cy="349" r="9" fill="#6f4c8b" opacity="0.76" />
<circle cx="16" cy="200" r="11" fill="#6f4c8b" opacity="0.65" />
<circle cx="711" cy="496" r="11" fill="#6f4c8b" opacity="0.64" />
<circle cx="633" cy="261" r="7" fill="#6f4c8b" opacity="0.63" />
<circle cx="543" cy="2" r="7" fill="#6f4c8b" opacity="0.85" />
<circle cx="113" cy="427" r="4" fill="#6f4c8b" opacity="0.79" />
<circle cx="385" cy="253" r="6" fill="#6f4c8b" opacity="0.61" />
<circle cx="646" cy="496" r="5" fill="#6f4c8b" opacity="0.61" />
<circle cx="692" cy="10" r="8" fill="#6f4c8b" opacity="0.69" />
<circle cx="721" cy="589" r="11" fill="#6f4c8b" opacity="0.82" />
<circle cx="300" cy="136" r="5" fill="#6f4c8b" opacity="0.71" />
<circle cx="513" cy="163" r="10" fill="#6f4c8b" opacity="0.76" />
<circle cx="483" cy="338" r="5" fill="#6f4c8b" opacity="0.61" />
<circle cx="546" cy="388" r="3" fill="#6f4c8b" opacity="0.69" />
<circle cx="621" cy="235" r="3" fill="#6f4c8b" opacity="0.60" />
<circle cx="829" cy="416" r="10" fill="#6f4c8b" opacity="0.57" />
<circle cx="267" cy="247" r="6" fill="#6f4c8b" opacity="0.86" />
<circle cx="350" cy="109" r="5" fill="#6f4c8b" opacity="0.78" />
<circle cx="218" cy="214" r="3" fill="#6f4c8b" opacity="0.60" />
<circle cx="805" cy="242" r="9" fill="#6f4c8b" opacity="0.69" />
<circle cx="587" cy="338" r="6" fill="#6f4c8b" opacity="0.72" />
<circle cx="255" cy="145" r="9" fill="#6f4c8b" opacity="0.62" />
<circle cx="102" cy="583" r="8" fill="#6f4c8b" opacity="0.86" />
<circle cx="434" cy="355" r="10" fill="#6f4c8b" opacity="0.88" />
<circle cx="696" cy="68" r="11" fill="#6f4c8b" opacity="0.67" />
<circle cx="475" cy="317" r="3" fill="#6f4c8b" opacity="0.85" />
<circle cx="524" cy="397" r="4" fill="#6f4c8b" opacity="0.76" />
<circle cx="596" cy="129" r="3" fill="#6f4c8b" opacity="0.63" />
<circle cx="173" cy="47" r="6" fill="#6f4c8b" opacity="0.81" />
<circle cx="734" cy="567" r="7" fill="#6f4c8b" opacity="0.59" />
<circle cx="490" cy="381" r="4" fill="#6f4c8b" opacity="0.82" />
<circle cx="711" cy="344" r="3" fill="#6f4c8b" opacity="0.63" />
<circle cx="318" cy="490" r="7" fill="#6f4c8b" opacity="0.84" />
<circle cx="725" cy="209" r="6" fill="#6f4c8b" opacity="0.73" />
<circle cx="93" cy="519" r="3" fill="#6f4c8b" opacity="0.84" />
<circle cx="454" cy="188" r="3" fill="#6f4c8b" opacity="0.76" />
<circle cx="105" cy="197" r="4" fill="#6f4c8b" opacity="0.76" />
<circle cx="17" cy="571" r="8" fill="#6f4c8b" opacity="0.59" />
<circle cx="493" cy="480" r="11" fill="#6f4c8b" opacity="0.86" />
<circle cx="556" cy="185" r="10" fill="#6f4c8b" opacity="0.80" />
<circle cx="839" cy="534" r="7" fill="#6f4c8b" opacity="0.70" />
<circle cx="124" cy="363" r="5" fill="#6f4c8b" opacity="0.66" />
<circle cx="166" cy="375" r="6" fill="#6f4c8b" opacity="0.67" />
<circle cx="633" cy="9" r="5" fill="#6f4c8b" opacity="0.88" />
<circle cx="133" cy="471" r="10" fill="#6f4c8b" opacity="0.83" />
<circle cx="239" cy="571" r="7" fill="#6f4c8b" opacity="0.89" />
<circle cx="424" cy="87" r="10" fill="#6f4c8b" opacity="0.85" />
<circle cx="609" cy="170" r="7" fill="#6f4c8b" opacity="0.56" />
<circle cx="173" cy="45" r="6" fill="#6f4c8b" opacity="0.65" />
<circle cx="288" cy="506" r="10" fill="#6f4c8b" opacity="0.57" />
<circle cx="264" cy="202" r="11" fill="#6f4c8b" opacity="0.66" />
<circle cx="412" cy="60" r="7" fill="#6f4c8b" opacity="0.61" />
<circle cx="643" cy="531" r="7" fill="#6f4c8b" opacity="0.84" />
<circle cx="148" cy="268" r="6" fill="#6f4c8b" opacity="0.89" />
<circle cx="477" cy="22" r="7" fill="#6f4c8b" opacity="0.88" />
<circle cx="770" cy="12" r="6" fill="#6f4c8b" opacity="0.86" />
<circle cx="762" cy="582" r="11" fill="#6f4c8b" opacity="0.90" />
<circle cx="642" cy="217" r="11" fill="#6f4c8b" opacity="0.56" />
<circle cx="4" cy="413" r="3" fill="#6f4c8b" opacity="0.82" />
<circle cx="518" cy="149" r="11" fill="#6f4c8b" opacity="0.56" />
<circle cx="338" cy="130" r="6" fill="#6f4c8b" opacity="0.78" />
<circle cx="652" cy="391" r="3" fill="#6f4c8b" opacity="0.79" />
<circle cx="22" cy="476" r="9" fill="#6f4c8b" opacity="0.84" />
<circle cx="722" cy="89" r="4" fill="#6f4c8b" opacity="0.72" />
<circle cx="862" cy="598" r="10" fill="#6f4c8b" opacity="0.79" />
<circle cx="252" cy="88" r="9" fill="#6f4c8b" opacity="0.70" />
<circle cx="546" cy="152" r="10" fill="#6f4c8b" opacity="0.77" />
<circle cx="119" cy="415" r="7" fill="#6f4c8b" opacity="0.56" />
<circle cx="258" cy="129" r="9" fill="#6f4c8b" opacity="0.61" />
<circle cx="95" cy="154" r="6" fill="#6f4c8b" opacity="0.73" />
<circle cx="572" cy="544" r="3" fill="#6f4c8b" opacity="0.60" />
<circle cx="51" cy="110" r="9" fill="#6f4c8b" opacity="0.88" />
<circle cx="429" cy="187" r="5" fill="#6f4c8b" opacity="0.65" />
<circle cx="416" cy="8" r="9" fill="#6f4c8b" opacity="0.81" />
<circle cx="885" cy="335" r="10" fill="#6f4c8b" opacity="0.79" />
<circle cx="97" cy="466" r="7" fill="#6f4c8b" opacity="0.65" />
<circle cx="664" cy="409" r="11" fill="#6f4c8b" opacity="0.72" />
<circle cx="379" cy="121" r="8" fill="#6f4c8b" opacity="0.84" />
<circle cx="108" cy="38" r="3" fill="#6f4c8b" opacity="0.80" />
<circle cx="376" cy="517" r="8" fill="#6f4c8b" opacity="0.90" />
<circle cx="643" cy="105" r="9" fill="#6f4c8b" opacity="0.74" />
<circle cx="449" cy="126" r="5" fill="#6f4c8b" opacity="0.80" />
<circle cx="609" cy="422" r="8" fill="#6f4c8b" opacity="0.67" />
<circle cx="654" cy="484" r="7" fill="#6f4c8b" opacity="0.87" />
<circle cx="856" cy="542" r="11" fill="#6f4c8b" opacity="0.57" />
<circle cx="125" cy="373" r="5" fill="#6f4c8b" opacity="0.63" />
<circle cx="284" cy="334" r="10" fill="#6f4c8b" opacity="0.55" />
<circle cx="275" cy="241" r="10" fill="#6f4c8b" opacity="0.88" />
<circle cx="240" cy="488" r="9" fill="#6f4c8b" opacity="0.89" />
<circle cx="545" cy="126" r="6" fill="#6f4c8b" opacity="0.55" />
<circle cx="825" cy="556" r="6" fill="#6f4c8b" opacity="0.75" />
<circle cx="580" cy="326" r="10" fill="#6f4c8b" opacity="0.88" />
<circle cx="516" cy="323" r="3" fill="#6f4c8b" opacity="0.65" />
<circle cx="209" cy="409" r="3" fill="#6f4c8b" opacity="0.69" />
<circle cx="48" cy="277" r="6" fill="#6f4c8b" opacity="0.77" />
<line x1="689" y1="220" x2="725" y2="173" stroke="#c889a0" stroke-width="1.32" opacity="0.2" />
<line x1="334" y1="292" x2="393" y2="266" stroke="#c889a0" stroke-width="2.75" opacity="0.2" />
<line x1="62" y1="203" x2="24" y2="233" stroke="#c889a0" stroke-width="1.48" opacity="0.2" />
<line x1="81" y1="250" x2="129" y2="252" stroke="#c889a0" stroke-width="1.76" opacity="0.2" />
<line x1="14" y1="228" x2="-43" y2="223" stroke="#c889a0" stroke-width="1.86" opacity="0.2" />
<line x1="343" y1="457" x2="288" y2="487" stroke="#c889a0" stroke-width="2.51" opacity="0.2" />
<line x1="607" y1="342" x2="555" y2="381" stroke="#c889a0" stroke-width="2.04" opacity="0.2" />
<line x1="32" y1="407" x2="-15" y2="458" stroke="#c889a0" stroke-width="2.12" opacity="0.2" />
<line x1="259" y1="368" x2="284" y2="364" stroke="#c889a0" stroke-width="3.40" opacity="0.2" />
<line x1="561" y1="352" x2="560" y2="310" stroke="#c889a0" stroke-width="1.35" opacity="0.2" />
<line x1="58" y1="410" x2="63" y2="420" stroke="#c889a0" stroke-width="3.46" opacity="0.2" />
<line x1="717" y1="536" x2="740" y2="590" stroke="#c889a0" stroke-width="2.00" opacity="0.2" />
<line x1="815" y1="83" x2="866" y2="99" stroke="#c889a0" stroke-width="2.22" opacity="0.2" />
<line x1="893" y1="521" x2="881" y2="557" stroke="#c889a0" stroke-width="2.61" opacity="0.2" />
<line x1="748" y1="526" x2="765" y2="569" stroke="#c889a0" stroke-width="3.25" opacity="0.2" />
<line x1="62" y1="333" x2="21" y2="377" stroke="#c889a0" stroke-width="2.30" opacity="0.2" />
<line x1="513" y1="349" x2="541" y2="320" stroke="#c889a0" stroke-width="1.92" opacity="0.2" />
<line x1="712" y1="358" x2="728" y2="332" stroke="#c889a0" stroke-width="2.48" opacity="0.2" />
<line x1="329" y1="446" x2="371" y2="445" stroke="#c889a0" stroke-width="1.13" opacity="0.2" />
<line x1="491" y1="241" x2="504" y2="281" stroke="#c889a0" stroke-width="1.52" opacity="0.2" />
<line x1="841" y1="163" x2="821" y2="177" stroke="#c889a0" stroke-width="2.91" opacity="0.2" />
<line x1="120" y1="520" x2="162" y2="500" stroke="#c889a0" stroke-width="1.58" opacity="0.2" />
<line x1="500" y1="581" x2="459" y2="564" stroke="#c889a0" stroke-width="2.28" opacity="0.2" />
<line x1="504" y1="103" x2="469" y2="101" stroke="#c889a0" stroke-width="1.72" opacity="0.2" />
<line x1="895" y1="454" x2="872" y2="470" stroke="#c889a0" stroke-width="1.05" opacity="0.2" />
<line x1="679" y1="462" x2="643" y2="410" stroke="#c889a0" stroke-width="3.41" opacity="0.2" />
<line x1="551" y1="557" x2="598" y2="538" stroke="#c889a0" stroke-width="2.60" opacity="0.2" />
<line x1="321" y1="163" x2="372" y2="154" stroke="#c889a0" stroke-width="2.53" opacity="0.2" />
<line x1="836" y1="299" x2="877" y2="286" stroke="#c889a0" stroke-width="1.09" opacity="0.2" />
<line x1="323" y1="418" x2="340" y2="453" stroke="#c889a0" stroke-width="3.36" opacity="0.2" />
</svg>