<?xml version="1.0" encoding="UTF-8"?>
<svg xmlns="http://www.w3.org/2000/svg" width="900" height="600" viewBox="0 0 900 600">
<rect width="100%" height="100%" fill="#f5ebe0" />
<circle cx="879" cy="509" r="14" fill="#f1d4c2" opacity="0.54" />
<circle cx="31" cy="549" r="18" fill="#f1d4c2" opacity="0.39" />
<circle cx="46" cy="249" r="15" fill="#f1d4c2" opacity="0.55" />
<circle cx="52" cy="247" r="27" fill="#f1d4c2" opacity="0.58" />
<circle cx="11" cy="499" r="10" fill="#f1d4c2" opacity="0.50" />
<circle cx="327" cy="115" r="11" fill="#f1d4c2" opacity="0.56" />
<circle cx="219" cy="345" r="17" fill="#f1d4c2" opacity="0.55" />
<circle cx="129" cy="550" r="18" fill="#f1d4c2" opacity="0.39" />
<circle cx="500" cy="334" r="24" fill="#f1d4c2" opacity="0.55" />
<circle cx="249" cy="227" r="28" fill="#f1d4c2" opacity="0.39" />
<circle cx="839" cy="269" r="27" fill="#f1d4c2" opacity="0.59" />
<circle cx="866" cy="382" r="14" fill="#f1d4c2" opacity="0.36" />
<circle cx="645" cy="273" r="9" fill="#f1d4c2" opacity="0.38" />
<circle cx="464" cy="545" r="13" fill="#f1d4c2" opacity="0.36" />
<circle cx="788" cy="325" r="9" fill="#f1d4c2" opacity="0.56" />
<circle cx="475" cy="154" r="29" fill="#f1d4c2" opacity="0.57" />
<circle cx="797" cy="459" r="16" fill="#f1d4c2" opacity="0.36" />
<circle cx="396" cy="202" r="10" fill="#f1d4c2" opacity="0.36" />
<circle cx="512" cy="246" r="10" fill="#f1d4c2" opacity="0.48" />
<circle cx="467" cy="410" r="23" fill="#f1d4c2" opacity="0.56" />
<circle cx="529" cy="154" r="19" fill="#f1d4c2" opacity="0.48" />
<circle cx="644" cy="226" r="23" fill="#f1d4c2" opacity="0.59" />
<circle cx="460" cy="59" r="12" fill="#f1d4c2" opacity="0.58" />
<circle cx="822" cy="460" r="21" fill="#f1d4c2" opacity="0.48" />
<circle cx="205" cy="569" r="28" fill="#f1d4c2" opacity="0.43" />
<circle cx="598" cy="186" r="10" fill="#f1d4c2" opacity="0.42" />
<circle cx="270" cy="196" r="26" fill="#f1d4c2" opacity="0.59" />
<circle cx="877" cy="460" r="11" fill="#f1d4c2" opacity="0.41" />
<circle cx="266" cy="367" r="29" fill="#f1d4c2" opacity="0.50" />
<circle cx="58" cy="290" r="25" fill="#f1d4c2" opacity="0.37" />
<circle cx="371" cy="115" r="18" fill="#f1d4c2" opacity="0.53" />
<circle cx="27" cy="197" r="28" fill="#f1d4c2" opacity="0.36" />
<circle cx="733" cy="377" r="28" fill="#f1d4c2" opacity="0.48" />
<circle cx="787" cy="246" r="22" fill="#f1d4c2" opacity="0.37" />
<circle cx="459" cy="229" r="19" fill="#f1d4c2" opacity="0.57" />
<circle cx="650" cy="595" r="12" fill="#f1d4c2" opacity="0.50" />
<circle cx="417" cy="408" r="15" fill="#f1d4c2" opacity="0.44" />
<circle cx="65" cy="329" r="10" fill="#f1d4c2" opacity="0.45" />
<circle cx="592" cy="424" r="8" fill="#f1d4c2" opacity="0.60" />
<circle cx="172" cy="391" r="12" fill="#f1d4c2" opacity="0.49" />
<circle cx="8" cy="265" r="9" fill="#f1d4c2" opacity="0.40" />
<circle cx="565" cy="186" r="18" fill="#f1d4c2" opacity="0.53" />
<circle cx="89" cy="368" r="25" fill="#f1d4c2" opacity="0.50" />
<circle cx="65" cy="33" r="12" fill="#f1d4c2" opacity="0.52" />
<circle cx="691" cy="558" r="23" fill="#f1d4c2" opacity="0.51" />
<circle cx="488" cy="306" r="29" fill="#f1d4c2" opacity="0.45" />
<circle cx="282" cy="585" r="19" fill="#f1d4c2" opacity="0.54" />
<circle cx="336" cy="453" r="29" fill="#f1d4c2" opacity="0.43" />
<circle cx="264" cy="174" r="29" fill="#f1d4c2" opacity="0.44" />
<circle cx="130" cy="31" r="21" fill="#f1d4c2" opacity="0.46" />
<circle cx="538" cy="579" r="25" fill="#f1d4c2" opacity="0.43" />
<circle cx="64" cy="209" r="28" fill="#f1d4c2" opacity="0.49" />
<circle cx="726" cy="264" r="8" fill="#f1d4c2" opacity="0.46" />
<circle cx="108" cy="490" r="15" fill="#f1d4c2" opacity="0.41" />
<circle cx="774" cy="91" r="14" fill="#f1d4c2" opacity="0.41" />
<circle cx="175" cy="282" r="17" fill="#f1d4c2" opacity="0.57" />
<circle cx="260" cy="186" r="9" fill="#f1d4c2" opacity="0.49" />
<circle cx="419" cy="247" r="26" fill="#f1d4c2" opacity="0.56" />
<circle cx="115" cy="31" r="20" fill="#f1d4c2" opacity="0.49" />
<circle cx="310" cy="311" r="12" fill="#f1d4c2" opacity="0.56" />
<circle cx="561" cy="125" r="26" fill="#f1d4c2" opacity="0.57" />
<circle cx="352" cy="202" r="16" fill="#f1d4c2" opacity="0.46" />
<circle cx="540" cy="30" r="12" fill="#f1d4c2" opacity="0.39" />
<circle cx="810" cy="225" r="20" fill="#f1d4c2" opacity="0.44" />
<circle cx="233" cy="228" r="8" fill="#f1d4c2" opacity="0.59" />
<circle cx="64" cy="514" r="22" fill="#f1d4c2" opacity="0.40" />
<circle cx="568" cy="303" r="18" fill="#f1d4c2" opacity="0.47" />
<circle cx="468" cy="20" r="20" fill="#f1d4c2" opacity="0.54" />
<circle cx="838" cy="457" r="8" fill="#f1d4c2" opacity="0.55" />
<circle cx="42" cy="93" r="28" fill="#f1d4c2" opacity="0.43" />
<circle cx="486" cy="331" r="18" fill="#f1d4c2" opacity="0.56" />
<circle cx="431" cy="311" r="12" fill="#f1d4c2" opacity="0.60" />
<circle cx="696" cy="98" r="9" fill="#f1d4c2" opacity="0.51" />
<circle cx="731" cy="244" r="23" fill="#f1d4c2" opacity="0.46" />
<circle cx="459" cy="96" r="18" fill="#f1d4c2" opacity="0.60" />
<circle cx="797" cy="88" r="26" fill="#f1d4c2" opacity="0.39" />
<circle cx="218" cy="496" r="25" fill="#f1d4c2" opacity="0.58" />
<circle cx="5" cy="338" r="17" fill="#f1d4c2" opacity="0.44" />
<circle cx="366" cy="260" r="25" fill="#f1d4c2" opacity="0.56" />
<circle cx="663" cy="370" r="8" fill="#f1d4c2" opacity="0.59" />
<circle cx="862" cy="581" r="10" fill="#f1d4c2" opacity="0.60" />
<circle cx="486" cy="426" r="20" fill="#f1d4c2" opacity="0.40" />
<circle cx="336" cy="570" r="9" fill="#f1d4c2" opacity="0.37" />
<circle cx="742" cy="182" r="28" fill="#f1d4c2" opacity="0.50" />
<circle cx="151" cy="92" r="8" fill="#f1d4c2" opacity="0.55" />
<circle cx="759" cy="479" r="11" fill="#f1d4c2" opacity="0.37" />
<circle cx="468" cy="101" r="18" fill="#f1d4c2" opacity="0.59" />
<circle cx="808" cy="117" r="20" fill="#f1d4c2" opacity="0.37" />
<circle cx="290" cy="284" r="18" fill="#f1d4c2" opacity="0.54" />
<circle cx="410" cy="489" r="24" fill="#f1d4c2" opacity="0.42" />
<circle cx="50" cy="212" r="18" fill="#f1d4c2" opacity="0.47" />
<circle cx="185" cy="55" r="14" fill="#f1d4c2" opacity="0.57" />
<circle cx="277" cy="502" r="13" fill="#f1d4c2" opacity="0.60" />
<circle cx="684" cy="542" r="8" fill="#f1d4c2" opacity="0.47" />
<circle cx="658" cy="397" r="28" fill="#f1d4c2" opacity="0.43" />
<circle cx="158" cy="439" r="23" fill="#f1d4c2" opacity="0.41" />
<circle cx="543" cy="382" r="27" fill="#f1d4c2" opacity="0.48" />
<circle cx="450" cy="92" r="26" fill="#f1d4c2" opacity="0.53" />
<circle cx="180" cy="14" r="20" fill="#f1d4c2" opacity="0.39" />
<circle cx="763" cy="285" r="18" fill="#f1d4c2" opacity="0.37" />
<circle cx="176" cy="44" r="15" fill="#f1d4c2" opacity="0.52" />
<circle cx="759" cy="393" r="24" fill="#f1d4c2" opacity="0.57" />
<circle cx="894" cy="415" r="11" fill="#f1d4c2" opacity="0.52" />
<circle cx="238" cy="170" r="27" fill="#f1d4c2" opacity="0.60" />
<circle cx="135" cy="466" r="25" fill="#f1d4c2" opacity="0.55" />
<circle cx="875" cy="335" r="25" fill="#f1d4c2" opacity="0.43" />
<circle cx="232" cy="423" r="10" fill="#f1d4c2" opacity="0.58" />
<circle cx="459" cy="36" r="11" fill="#f1d4c2" opacity="0.50" />
<circle cx="875" cy="458" r="19" fill="#f1d4c2" opacity="0.40" />
<circle cx="177" cy="576" r="20" fill="#f1d4c2" opacity="0.37" />
<circle cx="569" cy="134" r="25" fill="#f1d4c2" opacity="0.53" />
<circle cx="813" cy="237" r="16" fill="#f1d4c2" opacity="0.39" />
<circle cx="88" cy="578" r="13" fill="#f1d4c2" opacity="0.53" />
<circle cx="636" cy="51" r="11" fill="#f1d4c2" opacity="0.35" />
<circle cx="351" cy="549" r="19" fill="#f1d4c2" opacity="0.58" />
<circle cx="147" cy="202" r="17" fill="#f1d4c2" opacity="0.55" />
<circle cx="214" cy="385" r="19" fill="#f1d4c2" opacity="0.41" />
<circle cx="480" cy="69" r="24" fill="#f1d4c2" opacity="0.46" />
<circle cx="881" cy="400" r="22" fill="#f1d4c2" opacity="0.54" />
<circle cx="330" cy="378" r="11" fill="#f1d4c2" opacity="0.59" />
<circle cx="378" cy="474" r="21" fill="#f1d4c2" opacity="0.35" />
<circle cx="696" cy="500" r="10" fill="#f1d4c2" opacity="0.36" />
<circle cx="150" cy="120" r="13" fill="#f1d4c2" opacity="0.39" />
<circle cx="140" cy="148" r="19" fill="#f1d4c2" opacity="0.46" />
<circle cx="676" cy="503" r="20" fill="#f1d4c2" opacity="0.39" />
<circle cx="664" cy="206" r="27" fill="#f1d4c2" opacity="0.56" />
<circle cx="786" cy="518" r="20" fill="#f1d4c2" opacity="0.53" />
<circle cx="353" cy="561" r="22" fill="#f1d4c2" opacity="0.36" />
<circle cx="896" cy="458" r="17" fill="#f1d4c2" opacity="0.51" />
<circle cx="13" cy="52" r="23" fill="#f1d4c2" opacity="0.55" />
<circle cx="868" cy="279" r="19" fill="#f1d4c2" opacity="0.38" />
<circle cx="35" cy="346" r="29" fill="#f1d4c2" opacity="0.56" />
<circle cx="273" cy="536" r="12" fill="#f1d4c2" opacity="0.50" />
<circle cx="207" cy="187" r="7" fill="#5f4b8b" opacity="0.84" />
<circle cx="529" cy="499" r="7" fill="#5f4b8b" opacity="0.72" />
<circle cx="514" cy="573" r="3" fill="#5f4b8b" opacity="0.85" />
<circle cx="648" cy="586" r="3" fill="#5f4b8b" opacity="0.81" />
<circle cx="699" cy="151" r="6" fill="#5f4b8b" opacity="0.55" />
<circle cx="826" cy="422" r="8" fill="#5f4b8b" opacity="0.67" />
<circle cx="602" cy="416" r="11" fill="#5f4b8b" opacity="0.59" />
<circle cx="422" cy="279" r="5" fill="#5f4b8b" opacity="0.65" />
<circle cx="36" cy="146" r="9" fill="#5f4b8b" opacity="0.62" />
<circle cx="845" cy="0" r="5" fill="#5f4b8b" opacity="0.61" />
<circle cx="778" cy="259" r="7" fill="#5f4b8b" opacity="0.81" />
<circle cx="646" cy="231" r="11" fill="#5f4b8b" opacity="0.80" />
<circle cx="174" cy="91" r="10" fill="#5f4b8b" opacity="0.78" />
<circle cx="46" cy="279" r="3" fill="#5f4b8b" opacity="0.84" />
<circle cx="460" cy="280" r="10" fill="#5f4b8b" opacity="0.80" />
<circle cx="455" cy="199" r="5" fill="#5f4b8b" opacity="0.69" />
<circle cx="251" cy="500" r="6" fill="#5f4b8b" opacity="0.77" />
<circle cx="762" cy="69" r="4" fill="#5f4b8b" opacity="0.64" />
<circle cx="224" cy="530" r="3" fill="#5f4b8b" opacity="0.67" />
<circle cx="300" cy="0" r="11" fill="#5f4b8b" opacity="0.81" />
<circle cx="38" cy="274" r="11" fill="#5f4b8b" opacity="0.80" />
<circle cx="764" cy="382" r="4" fill="#5f4b8b" opacity="0.65" />
<circle cx="196" cy="457" r="4" fill="#5f4b8b" opacity="0.85" />
<circle cx="677" cy="158" r="11" fill="#5f4b8b" opacity="0.90" />
<circle cx="83" cy="383" r="11" fill="#5f4b8b" opacity="0.55" />
<circle cx="115" cy="237" r="11" fill="#5f4b8b" opacity="0.75" />
<circle cx="73" cy="448" r="7" fill="#5f4b8b" opacity="0.83" />
<circle cx="506" cy="266" r="10" fill="#5f4b8b" opacity="0.66" />
<circle cx="530" cy="60" r="6" fill="#5f4b8b" opacity="0.82" />
<circle cx="505" cy="426" r="8" fill="#5f4b8b" opacity="0.63" />
<circle cx="521" cy="410" r="3" fill="#5f4b8b" opacity="0.61" />
<circle cx="562" cy="262" r="11" fill="#5f4b8b" opacity="0.64" />
<circle cx="65" cy="390" r="7" fill="#5f4b8b" opacity="0.65" />
<circle cx="225" cy="307" r="5" fill="#5f4b8b" opacity="0.71" />
<circle cx="436" cy="24" r="3" fill="#5f4b8b" opacity="0.77" />
<circle cx="11" cy="466" r="11" fill="#5f4b8b" opacity="0.85" />
<circle cx="851" cy="141" r="7" fill="#5f4b8b" opacity="0.58" />
<circle cx="849" cy="272" r="10" fill="#5f4b8b" opacity="0.65" />
<circle cx="433" cy="520" r="4" fill="#5f4b8b" opacity="0.55" />
<circle cx="799" cy="427" r="4" fill="#5f4b8b" opacity="0.85" />
<circle cx="388" cy="294" r="7" fill="#5f4b8b" opacity="0.61" />
<circle cx="775" cy="476" r="5" fill="#5f4b8b" opacity="0.78" />
<circle cx="444" cy="38" r="7" fill="#5f4b8b" opacity="0.77" />
<circle cx="749" cy="531" r="3" fill="#5f4b8b" opacity="0.77" />
<circle cx="772" cy="180" r="10" fill="#5f4b8b" opacity="0.81" />
<circle cx="896" cy="531" r="11" fill="#5f4b8b" opacity="0.58" />
<circle cx="805" cy="393" r="6" fill="#5f4b8b" opacity="0.87" />
<circle cx="496" cy="568" r="11" fill="#5f4b8b" opacity="0.73" />
<circle cx="360" cy="537" r="10" fill="#5f4b8b" opacity="0.56" />
<circle cx="115" cy="167" r="11" fill="#5f4b8b" opacity="0.75" />
<circle cx="782" cy="119" r="11" fill="#5f4b8b" opacity="0.74" />
<circle cx="703" cy="421" r="3" fill="#5f4b8b" opacity="0.60" />
<circle cx="459" cy="416" r="9" fill="#5f4b8b" opacity="0.87" />
<circle cx="350" cy="420" r="6" fill="#5f4b8b" opacity="0.88" />
<circle cx="14" cy="43" r="4" fill="#5f4b8b" opacity="0.89" />
<circle cx="73" cy="239" r="9" fill="#5f4b8b" opacity="0.63" />
<circle cx="511" cy="284" r="6" fill="#5f4b8b" opacity="0.90" />
<circle cx="110" cy="481" r="9" fill="#5f4b8b" opacity="0.90" />
<circle cx="709" cy="377" r="3" fill="#5f4b8b" opacity="0.74" />
<circle cx="217" cy="242" r="7" fill="#5f4b8b" opacity="0.79" />
<circle cx="356" cy="527" r="7" fill="#5f4b8b" opacity="0.60" />
<circle cx="633" cy="103" r="10" fill="#5f4b8b" opacity="0.80" />
<circle cx="184" cy="447" r="9" fill="#5f4b8b" opacity="0.74" />
<circle cx="179" cy="374" r="7" fill="#5f4b8b" opacity="0.70" />
<circle cx="324" cy="210" r="9" fill="#5f4b8b" opacity="0.67" />
<circle cx="110" cy="176" r="9" fill="#5f4b8b" opacity="0.71" />
<circle cx="842" cy="301" r="6" fill="#5f4b8b" opacity="0.65" />
<circle cx="218" cy="232" r="3" fill="#5f4b8b" opacity="0.56" />
<circle cx="678" cy="238" r="9" fill="#5f4b8b" opacity="0.70" />
<circle cx="568" cy="543" r="4" fill="#5f4b8b" opacity="0.78" />
<circle cx="68" cy="293" r="7" fill="#5f4b8b" opacity="0.68" />
<circle cx="846" cy="327" r="5" fill="#5f4b8b" opacity="0.83" />
<circle cx="329" cy="346" r="9" fill="#5f4b8b" opacity="0.76" />
<circle cx="637" cy="499" r="5" fill="#5f4b8b" opacity="0.55" />
<circle cx="185" cy="376" r="8" fill="#5f4b8b" opacity="0.89" />
<circle cx="357" cy="190" r="7" fill="#5f4b8b" opacity="0.78" />
<circle cx="186" cy="114" r="6" fill="#5f4b8b" opacity="0.79" />
<circle cx="229" cy="453" r="9" fill="#5f4b8b" opacity="0.68" />
<circle cx="726" cy="414" r="9" fill="#5f4b8b" opacity="0.80" />
<circle cx="411" cy="48" r="7" fill="#5f4b8b" opacity="0.65" />
<circle cx="612" cy="411" r="9" fill="#5f4b8b" opacity="0.81" />
<circle cx="136" cy="463" r="8" fill="#5f4b8b" opacity="0.89" />
<circle cx="495" cy="467" r="4" fill="#5f4b8b" opacity="0.75" />
<circle cx="169" cy="258" r="10" fill="#5f4b8b" opacity="0.73" />
<circle cx="187" cy="390" r="10" fill="#5f4b8b" opacity="0.78" />
<circle cx="188" cy="351" r="5" fill="#5f4b8b" opacity="0.74" />
<circle cx="332" cy="350" r="9" fill="#5f4b8b" opacity="0.55" />
<circle cx="443" cy="159" r="5" fill="#5f4b8b" opacity="0.80" />
<circle cx="79" cy="267" r="9" fill="#5f4b8b" opacity="0.86" />
<circle cx="91" cy="191" r="10" fill="#5f4b8b" opacity="0.90" />
<circle cx="22" cy="128" r="11" fill="#5f4b8b" opacity="0.62" />
<circle cx="487" cy="510" r="11" fill="#5f4b8b" opacity="0.75" />
<circle cx="888" cy="192" r="11" fill="#5f4b8b" opacity="0.83" />
<circle cx="241" cy="323" r="8" fill="#5f4b8b" opacity="0.62" />
<circle cx="141" cy="307" r="11" fill="#5f4b8b" opacity="0.77" />
<circle cx="570" cy="541" r="5" fill="#5f4b8b" opacity="0.56" />
<circle cx="36" cy="88" r="9" fill="#5f4b8b" opacity="0.69" />
<line x1="585" y1="595" x2="542" y2="585" stroke="#c17c74" stroke-width="2.91" opacity="0.2" />
<line x1="286" y1="505" x2="280" y2="538" stroke="#c17c74" stroke-width="1.40" opacity="0.2" />
<line x1="779" y1="346" x2="752" y2="367" stroke="#c17c74" stroke-width="1.03" opacity="0.2" />
<line x1="318" y1="50" x2="264" y2="15" stroke="#c17c74" stroke-width="3.39" opacity="0.2" />
<line x1="600" y1="153" x2="648" y2="161" stroke="#c17c74" stroke-width="2.49" opacity="0.2" />
<line x1="338" y1="468" x2="328" y2="509" stroke="#c17c74" stroke-width="2.00" opacity="0.2" />
<line x1="635" y1="444" x2="624" y2="481" stroke="#c17c74" stroke-width="1.62" opacity="0.2" />
<line x1="485" y1="368" x2="513" y2="347" stroke="#c17c74" stroke-width="1.86" opacity="0.2" />
<line x1="425" y1="191" x2="381" y2="168" stroke="#c17c74" stroke-width="3.04" opacity="0.2" />
<line x1="469" y1="97" x2="439" y2="62" stroke="#c17c74" stroke-width="1.95" opacity="0.2" />
<line x1="428" y1="318" x2="460" y2="352" stroke="#c17c74" stroke-width="1.42" opacity="0.2" />
<line x1="235" y1="598" x2="282" y2="651" stroke="#c17c74" stroke-width="1.48" opacity="0.2" />
<line x1="813" y1="0" x2="758" y2="-19" stroke="#c17c74" stroke-width="1.92" opacity="0.2" />
<line x1="594" y1="414" x2="598" y2="408" stroke="#c17c74" stroke-width="1.10" opacity="0.2" />
<line x1="860" y1="218" x2="894" y2="250" stroke="#c17c74" stroke-width="1.57" opacity="0.2" />
<line x1="523" y1="200" x2="495" y2="170" stroke="#c17c74" stroke-width="2.97" opacity="0.2" />
<line x1="801" y1="248" x2="814" y2="193" stroke="#c17c74" stroke-width="2.94" opacity="0.2" />
<line x1="756" y1="488" x2="717" y2="439" stroke="#c17c74" stroke-width="1.86" opacity="0.2" />
<line x1="78" y1="53" x2="112" y2="76" stroke="#c17c74" stroke-width="3.09" opacity="0.2" />
<line x1="212" y1="132" x2="252" y2="166" stroke="#c17c74" stroke-width="2.25" opacity="0.2" />
<line x1="704" y1="443" x2="703" y2="468" stroke="#c17c74" stroke-width="2.71" opacity="0.2" />
<line x1="881" y1="199" x2="890" y2="225" stroke="#c17c74" stroke-width="1.07" opacity="0.2" />
<line x1="796" y1="263" x2="853" y2="312" stroke="#c17c74" stroke-width="3.46" opacity="0.2" />
<line x1="687" y1="234" x2="713" y2="176" stroke="#c17c74" stroke-width="2.27" opacity="0.2" />
<line x1="8" y1="16" x2="-13" y2="12" stroke="#c17c74" stroke-width="2.85" opacity="0.2" />
<line x1="338" y1="39" x2="313" y2="43" stroke="#c17c74" stroke-width="1.70" opacity="0.2" />
<line x1="573" y1="479" x2="548" y2="428" stroke="#c17c74" stroke-width="2.31" opacity="0.2" />
<line x1="361" y1="499" x2="337" y2="497" stroke="#c17c74" stroke-width="1.91" opacity="0.2" />
<line x1="286" y1="60" x2="330" y2="39" stroke="#c17c74" stroke-width="1.89" opacity="0.2" />
<line x1="24" y1="407" x2="0" y2="375" stroke="#c17c74" stroke-width="1.87" opacity="0.2" />
</svg>