<?xml version="1.0" encoding="UTF-8"?>
<svg xmlns="http://www.w3.org/2000/svg" width="900" height="600" viewBox="0 0 900 600">
<rect width="100%" height="100%" fill="#f8e6e6" />
<circle cx="309" cy="20" r="13" fill="#f2c9d1" opacity="0.41" />
<circle cx="779" cy="449" r="10" fill="#f2c9d1" opacity="0.47" />
<circle cx="98" cy="103" r="12" fill="#f2c9d1" opacity="0.53" />
<circle cx="72" cy="347" r="24" fill="#f2c9d1" opacity="0.38" />
<circle cx="882" cy="510" r="23" fill="#f2c9d1" opacity="0.57" />
<circle cx="415" cy="477" r="24" fill="#f2c9d1" opacity="0.49" />
<circle cx="351" cy="337" r="18" fill="#f2c9d1" opacity="0.48" />
<circle cx="197" cy="555" r="18" fill="#f2c9d1" opacity="0.51" />
<circle cx="388" cy="384" r="11" fill="#f2c9d1" opacity="0.58" />
<circle cx="690" cy="405" r="8" fill="#f2c9d1" opacity="0.38" />
<circle cx="374" cy="564" r="29" fill="#f2c9d1" opacity="0.41" />
<circle cx="568" cy="482" r="25" fill="#f2c9d1" opacity="0.40" />
<circle cx="663" cy="597" r="9" fill="#f2c9d1" opacity="0.55" />
<circle cx="564" cy="179" r="20" fill="#f2c9d1" opacity="0.35" />
<circle cx="472" cy="112" r="17" fill="#f2c9d1" opacity="0.60" />
<circle cx="203" cy="462" r="17" fill="#f2c9d1" opacity="0.39" />
<circle cx="667" cy="281" r="8" fill="#f2c9d1" opacity="0.54" />
<circle cx="123" cy="166" r="15" fill="#f2c9d1" opacity="0.40" />
<circle cx="16" cy="243" r="23" fill="#f2c9d1" opacity="0.57" />
<circle cx="242" cy="472" r="14" fill="#f2c9d1" opacity="0.46" />
<circle cx="707" cy="416" r="17" fill="#f2c9d1" opacity="0.50" />
<circle cx="649" cy="519" r="10" fill="#f2c9d1" opacity="0.55" />
<circle cx="490" cy="380" r="19" fill="#f2c9d1" opacity="0.51" />
<circle cx="633" cy="472" r="9" fill="#f2c9d1" opacity="0.50" />
<circle cx="544" cy="30" r="23" fill="#f2c9d1" opacity="0.59" />
<circle cx="368" cy="267" r="22" fill="#f2c9d1" opacity="0.44" />
<circle cx="103" cy="121" r="11" fill="#f2c9d1" opacity="0.41" />
<circle cx="129" cy="443" r="19" fill="#f2c9d1" opacity="0.52" />
<circle cx="121" cy="565" r="13" fill="#f2c9d1" opacity="0.42" />
<circle cx="517" cy="186" r="18" fill="#f2c9d1" opacity="0.54" />
<circle cx="126" cy="536" r="16" fill="#f2c9d1" opacity="0.41" />
<circle cx="833" cy="351" r="14" fill="#f2c9d1" opacity="0.41" />
<circle cx="631" cy="277" r="27" fill="#f2c9d1" opacity="0.43" />
<circle cx="808" cy="460" r="8" fill="#f2c9d1" opacity="0.43" />
<circle cx="268" cy="428" r="27" fill="#f2c9d1" opacity="0.40" />
<circle cx="807" cy="318" r="25" fill="#f2c9d1" opacity="0.60" />
<circle cx="83" cy="121" r="20" fill="#f2c9d1" opacity="0.52" />
<circle cx="703" cy="347" r="15" fill="#f2c9d1" opacity="0.44" />
<circle cx="260" cy="552" r="19" fill="#f2c9d1" opacity="0.43" />
<circle cx="50" cy="268" r="29" fill="#f2c9d1" opacity="0.56" />
<circle cx="477" cy="515" r="25" fill="#f2c9d1" opacity="0.37" />
<circle cx="107" cy="107" r="20" fill="#f2c9d1" opacity="0.59" />
<circle cx="475" cy="205" r="14" fill="#f2c9d1" opacity="0.36" />
<circle cx="617" cy="404" r="10" fill="#f2c9d1" opacity="0.39" />
<circle cx="626" cy="348" r="26" fill="#f2c9d1" opacity="0.58" />
<circle cx="728" cy="215" r="10" fill="#f2c9d1" opacity="0.46" />
<circle cx="229" cy="90" r="20" fill="#f2c9d1" opacity="0.48" />
<circle cx="833" cy="288" r="11" fill="#f2c9d1" opacity="0.50" />
<circle cx="789" cy="64" r="15" fill="#f2c9d1" opacity="0.47" />
<circle cx="204" cy="217" r="16" fill="#f2c9d1" opacity="0.41" />
<circle cx="173" cy="7" r="11" fill="#f2c9d1" opacity="0.56" />
<circle cx="872" cy="91" r="27" fill="#f2c9d1" opacity="0.42" />
<circle cx="245" cy="114" r="14" fill="#f2c9d1" opacity="0.49" />
<circle cx="276" cy="11" r="13" fill="#f2c9d1" opacity="0.55" />
<circle cx="341" cy="320" r="23" fill="#f2c9d1" opacity="0.58" />
<circle cx="729" cy="496" r="22" fill="#f2c9d1" opacity="0.43" />
<circle cx="648" cy="343" r="10" fill="#f2c9d1" opacity="0.43" />
<circle cx="222" cy="135" r="10" fill="#f2c9d1" opacity="0.55" />
<circle cx="524" cy="503" r="11" fill="#f2c9d1" opacity="0.55" />
<circle cx="75" cy="103" r="18" fill="#f2c9d1" opacity="0.42" />
<circle cx="339" cy="179" r="23" fill="#f2c9d1" opacity="0.55" />
<circle cx="30" cy="528" r="21" fill="#f2c9d1" opacity="0.36" />
<circle cx="427" cy="503" r="8" fill="#f2c9d1" opacity="0.50" />
<circle cx="462" cy="124" r="10" fill="#f2c9d1" opacity="0.46" />
<circle cx="285" cy="143" r="27" fill="#f2c9d1" opacity="0.46" />
<circle cx="750" cy="385" r="18" fill="#f2c9d1" opacity="0.47" />
<circle cx="430" cy="111" r="19" fill="#f2c9d1" opacity="0.59" />
<circle cx="273" cy="36" r="19" fill="#f2c9d1" opacity="0.55" />
<circle cx="481" cy="56" r="15" fill="#f2c9d1" opacity="0.55" />
<circle cx="680" cy="538" r="23" fill="#f2c9d1" opacity="0.54" />
<circle cx="161" cy="328" r="11" fill="#f2c9d1" opacity="0.58" />
<circle cx="735" cy="64" r="11" fill="#f2c9d1" opacity="0.42" />
<circle cx="52" cy="220" r="17" fill="#f2c9d1" opacity="0.43" />
<circle cx="873" cy="20" r="25" fill="#f2c9d1" opacity="0.55" />
<circle cx="209" cy="588" r="13" fill="#f2c9d1" opacity="0.43" />
<circle cx="575" cy="554" r="28" fill="#f2c9d1" opacity="0.59" />
<circle cx="244" cy="456" r="16" fill="#f2c9d1" opacity="0.42" />
<circle cx="144" cy="303" r="9" fill="#f2c9d1" opacity="0.40" />
<circle cx="823" cy="105" r="12" fill="#f2c9d1" opacity="0.44" />
<circle cx="692" cy="372" r="21" fill="#f2c9d1" opacity="0.49" />
<circle cx="453" cy="256" r="19" fill="#f2c9d1" opacity="0.44" />
<circle cx="358" cy="89" r="16" fill="#f2c9d1" opacity="0.52" />
<circle cx="93" cy="57" r="19" fill="#f2c9d1" opacity="0.37" />
<circle cx="643" cy="482" r="28" fill="#f2c9d1" opacity="0.42" />
<circle cx="245" cy="393" r="8" fill="#f2c9d1" opacity="0.36" />
<circle cx="197" cy="269" r="19" fill="#f2c9d1" opacity="0.42" />
<circle cx="161" cy="368" r="13" fill="#f2c9d1" opacity="0.51" />
<circle cx="313" cy="526" r="26" fill="#f2c9d1" opacity="0.47" />
<circle cx="51" cy="303" r="15" fill="#f2c9d1" opacity="0.35" />
<circle cx="412" cy="362" r="29" fill="#f2c9d1" opacity="0.38" />
<circle cx="378" cy="352" r="16" fill="#f2c9d1" opacity="0.52" />
<circle cx="438" cy="179" r="26" fill="#f2c9d1" opacity="0.55" />
<circle cx="10" cy="539" r="25" fill="#f2c9d1" opacity="0.53" />
<circle cx="60" cy="337" r="9" fill="#f2c9d1" opacity="0.59" />
<circle cx="684" cy="274" r="19" fill="#f2c9d1" opacity="0.47" />
<circle cx="387" cy="412" r="19" fill="#f2c9d1" opacity="0.38" />
<circle cx="489" cy="544" r="10" fill="#f2c9d1" opacity="0.56" />
<circle cx="877" cy="246" r="8" fill="#f2c9d1" opacity="0.53" />
<circle cx="396" cy="89" r="18" fill="#f2c9d1" opacity="0.57" />
<circle cx="499" cy="535" r="27" fill="#f2c9d1" opacity="0.48" />
<circle cx="287" cy="347" r="17" fill="#f2c9d1" opacity="0.58" />
<circle cx="382" cy="98" r="18" fill="#f2c9d1" opacity="0.60" />
<circle cx="254" cy="146" r="18" fill="#f2c9d1" opacity="0.60" />
<circle cx="291" cy="474" r="11" fill="#f2c9d1" opacity="0.37" />
<circle cx="374" cy="133" r="18" fill="#f2c9d1" opacity="0.42" />
<circle cx="555" cy="320" r="27" fill="#f2c9d1" opacity="0.54" />
<circle cx="115" cy="223" r="28" fill="#f2c9d1" opacity="0.56" />
<circle cx="882" cy="108" r="29" fill="#f2c9d1" opacity="0.58" />
<circle cx="351" cy="545" r="28" fill="#f2c9d1" opacity="0.54" />
<circle cx="870" cy="360" r="14" fill="#f2c9d1" opacity="0.55" />
<circle cx="92" cy="378" r="28" fill="#f2c9d1" opacity="0.41" />
<circle cx="873" cy="503" r="27" fill="#f2c9d1" opacity="0.35" />
<circle cx="64" cy="208" r="14" fill="#f2c9d1" opacity="0.52" />
<circle cx="112" cy="463" r="27" fill="#f2c9d1" opacity="0.56" />
<circle cx="678" cy="145" r="21" fill="#f2c9d1" opacity="0.45" />
<circle cx="595" cy="198" r="25" fill="#f2c9d1" opacity="0.58" />
<circle cx="699" cy="499" r="27" fill="#f2c9d1" opacity="0.38" />
<circle cx="631" cy="116" r="15" fill="#f2c9d1" opacity="0.39" />
<circle cx="73" cy="262" r="27" fill="#f2c9d1" opacity="0.42" />
<circle cx="112" cy="38" r="27" fill="#f2c9d1" opacity="0.55" />
<circle cx="281" cy="528" r="26" fill="#f2c9d1" opacity="0.57" />
<circle cx="82" cy="477" r="29" fill="#f2c9d1" opacity="0.38" />
<circle cx="448" cy="24" r="9" fill="#f2c9d1" opacity="0.58" />
<circle cx="374" cy="22" r="14" fill="#f2c9d1" opacity="0.38" />
<circle cx="843" cy="572" r="9" fill="#f2c9d1" opacity="0.55" />
<circle cx="169" cy="559" r="22" fill="#f2c9d1" opacity="0.56" />
<circle cx="119" cy="106" r="20" fill="#f2c9d1" opacity="0.53" />
<circle cx="844" cy="367" r="9" fill="#f2c9d1" opacity="0.57" />
<circle cx="683" cy="240" r="28" fill="#f2c9d1" opacity="0.36" />
<circle cx="828" cy="178" r="10" fill="#f2c9d1" opacity="0.44" />
<circle cx="305" cy="366" r="29" fill="#f2c9d1" opacity="0.57" />
<circle cx="571" cy="446" r="11" fill="#f2c9d1" opacity="0.42" />
<circle cx="431" cy="184" r="29" fill="#f2c9d1" opacity="0.51" />
<circle cx="763" cy="180" r="18" fill="#f2c9d1" opacity="0.45" />
<circle cx="378" cy="443" r="17" fill="#f2c9d1" opacity="0.52" />
<circle cx="359" cy="71" r="27" fill="#f2c9d1" opacity="0.42" />
<circle cx="551" cy="188" r="16" fill="#f2c9d1" opacity="0.51" />
<circle cx="535" cy="568" r="27" fill="#f2c9d1" opacity="0.54" />
<circle cx="287" cy="5" r="16" fill="#f2c9d1" opacity="0.37" />
<circle cx="86" cy="344" r="12" fill="#f2c9d1" opacity="0.56" />
<circle cx="83" cy="467" r="25" fill="#f2c9d1" opacity="0.54" />
<circle cx="745" cy="588" r="27" fill="#f2c9d1" opacity="0.43" />
<circle cx="843" cy="465" r="28" fill="#f2c9d1" opacity="0.49" />
<circle cx="521" cy="412" r="25" fill="#f2c9d1" opacity="0.48" />
<circle cx="137" cy="98" r="11" fill="#f2c9d1" opacity="0.50" />
<circle cx="70" cy="302" r="14" fill="#f2c9d1" opacity="0.40" />
<circle cx="787" cy="551" r="26" fill="#f2c9d1" opacity="0.51" />
<circle cx="142" cy="599" r="15" fill="#f2c9d1" opacity="0.43" />
<circle cx="448" cy="204" r="20" fill="#f2c9d1" opacity="0.47" />
<circle cx="270" cy="314" r="16" fill="#f2c9d1" opacity="0.59" />
<circle cx="68" cy="290" r="6" fill="#6b4fa1" opacity="0.82" />
<circle cx="508" cy="529" r="5" fill="#6b4fa1" opacity="0.71" />
<circle cx="535" cy="68" r="7" fill="#6b4fa1" opacity="0.80" />
<circle cx="194" cy="527" r="6" fill="#6b4fa1" opacity="0.68" />
<circle cx="365" cy="554" r="5" fill="#6b4fa1" opacity="0.73" />
<circle cx="351" cy="235" r="3" fill="#6b4fa1" opacity="0.85" />
<circle cx="213" cy="431" r="5" fill="#6b4fa1" opacity="0.62" />
<circle cx="400" cy="177" r="5" fill="#6b4fa1" opacity="0.89" />
<circle cx="717" cy="502" r="5" fill="#6b4fa1" opacity="0.66" />
<circle cx="326" cy="576" r="7" fill="#6b4fa1" opacity="0.71" />
<circle cx="125" cy="552" r="11" fill="#6b4fa1" opacity="0.81" />
<circle cx="685" cy="473" r="3" fill="#6b4fa1" opacity="0.85" />
<circle cx="581" cy="305" r="4" fill="#6b4fa1" opacity="0.85" />
<circle cx="866" cy="67" r="11" fill="#6b4fa1" opacity="0.62" />
<circle cx="168" cy="547" r="11" fill="#6b4fa1" opacity="0.74" />
<circle cx="367" cy="212" r="11" fill="#6b4fa1" opacity="0.87" />
<circle cx="39" cy="501" r="7" fill="#6b4fa1" opacity="0.83" />
<circle cx="443" cy="248" r="6" fill="#6b4fa1" opacity="0.78" />
<circle cx="662" cy="32" r="5" fill="#6b4fa1" opacity="0.82" />
<circle cx="312" cy="184" r="6" fill="#6b4fa1" opacity="0.80" />
<circle cx="835" cy="194" r="8" fill="#6b4fa1" opacity="0.63" />
<circle cx="75" cy="244" r="11" fill="#6b4fa1" opacity="0.57" />
<circle cx="69" cy="43" r="3" fill="#6b4fa1" opacity="0.76" />
<circle cx="24" cy="102" r="9" fill="#6b4fa1" opacity="0.79" />
<circle cx="830" cy="407" r="10" fill="#6b4fa1" opacity="0.86" />
<circle cx="876" cy="228" r="4" fill="#6b4fa1" opacity="0.78" />
<circle cx="578" cy="470" r="11" fill="#6b4fa1" opacity="0.70" />
<circle cx="744" cy="220" r="6" fill="#6b4fa1" opacity="0.62" />
<circle cx="852" cy="4" r="8" fill="#6b4fa1" opacity="0.72" />
<circle cx="47" cy="384" r="5" fill="#6b4fa1" opacity="0.61" />
<circle cx="840" cy="285" r="9" fill="#6b4fa1" opacity="0.58" />
<circle cx="550" cy="520" r="7" fill="#6b4fa1" opacity="0.82" />
<circle cx="263" cy="567" r="10" fill="#6b4fa1" opacity="0.65" />
<circle cx="157" cy="369" r="10" fill="#6b4fa1" opacity="0.78" />
<circle cx="687" cy="517" r="11" fill="#6b4fa1" opacity="0.72" />
<circle cx="176" cy="360" r="9" fill="#6b4fa1" opacity="0.79" />
<circle cx="117" cy="287" r="8" fill="#6b4fa1" opacity="0.57" />
<circle cx="155" cy="587" r="7" fill="#6b4fa1" opacity="0.69" />
<circle cx="697" cy="375" r="7" fill="#6b4fa1" opacity="0.75" />
<circle cx="769" cy="322" r="4" fill="#6b4fa1" opacity="0.89" />
<circle cx="51" cy="154" r="8" fill="#6b4fa1" opacity="0.59" />
<circle cx="219" cy="72" r="11" fill="#6b4fa1" opacity="0.88" />
<circle cx="49" cy="239" r="4" fill="#6b4fa1" opacity="0.59" />
<circle cx="444" cy="592" r="3" fill="#6b4fa1" opacity="0.75" />
<circle cx="449" cy="339" r="7" fill="#6b4fa1" opacity="0.87" />
<circle cx="548" cy="15" r="11" fill="#6b4fa1" opacity="0.61" />
<circle cx="55" cy="365" r="10" fill="#6b4fa1" opacity="0.83" />
<circle cx="83" cy="95" r="10" fill="#6b4fa1" opacity="0.69" />
<circle cx="536" cy="488" r="3" fill="#6b4fa1" opacity="0.73" />
<circle cx="519" cy="445" r="9" fill="#6b4fa1" opacity="0.76" />
<circle cx="532" cy="288" r="6" fill="#6b4fa1" opacity="0.66" />
<circle cx="264" cy="144" r="10" fill="#6b4fa1" opacity="0.86" />
<circle cx="104" cy="148" r="9" fill="#6b4fa1" opacity="0.89" />
<circle cx="74" cy="299" r="11" fill="#6b4fa1" opacity="0.71" />
<circle cx="485" cy="142" r="10" fill="#6b4fa1" opacity="0.78" />
<circle cx="661" cy="397" r="8" fill="#6b4fa1" opacity="0.62" />
<circle cx="855" cy="498" r="5" fill="#6b4fa1" opacity="0.78" />
<circle cx="309" cy="194" r="5" fill="#6b4fa1" opacity="0.73" />
<circle cx="447" cy="31" r="10" fill="#6b4fa1" opacity="0.83" />
<circle cx="698" cy="342" r="5" fill="#6b4fa1" opacity="0.89" />
<circle cx="891" cy="288" r="5" fill="#6b4fa1" opacity="0.56" />
<circle cx="543" cy="339" r="3" fill="#6b4fa1" opacity="0.80" />
<circle cx="759" cy="35" r="7" fill="#6b4fa1" opacity="0.79" />
<circle cx="899" cy="318" r="5" fill="#6b4fa1" opacity="0.74" />
<circle cx="692" cy="328" r="10" fill="#6b4fa1" opacity="0.64" />
<circle cx="6" cy="7" r="5" fill="#6b4fa1" opacity="0.70" />
<circle cx="452" cy="76" r="6" fill="#6b4fa1" opacity="0.64" />
<circle cx="1" cy="358" r="8" fill="#6b4fa1" opacity="0.77" />
<circle cx="652" cy="116" r="5" fill="#6b4fa1" opacity="0.64" />
<circle cx="767" cy="562" r="11" fill="#6b4fa1" opacity="0.58" />
<circle cx="409" cy="72" r="4" fill="#6b4fa1" opacity="0.57" />
<circle cx="533" cy="154" r="7" fill="#6b4fa1" opacity="0.77" />
<circle cx="47" cy="113" r="7" fill="#6b4fa1" opacity="0.76" />
<circle cx="298" cy="197" r="3" fill="#6b4fa1" opacity="0.84" />
<circle cx="550" cy="496" r="5" fill="#6b4fa1" opacity="0.74" />
<circle cx="742" cy="475" r="5" fill="#6b4fa1" opacity="0.70" />
<circle cx="519" cy="343" r="8" fill="#6b4fa1" opacity="0.87" />
<circle cx="77" cy="105" r="5" fill="#6b4fa1" opacity="0.84" />
<line x1="556" y1="278" x2="603" y2="304" stroke="#bb7ca4" stroke-width="2.11" opacity="0.2" />
<line x1="246" y1="374" x2="262" y2="342" stroke="#bb7ca4" stroke-width="2.83" opacity="0.2" />
<line x1="746" y1="498" x2="725" y2="501" stroke="#bb7ca4" stroke-width="1.01" opacity="0.2" />
<line x1="130" y1="211" x2="146" y2="270" stroke="#bb7ca4" stroke-width="3.22" opacity="0.2" />
<line x1="334" y1="467" x2="312" y2="505" stroke="#bb7ca4" stroke-width="2.44" opacity="0.2" />
<line x1="118" y1="549" x2="163" y2="557" stroke="#bb7ca4" stroke-width="2.79" opacity="0.2" />
<line x1="574" y1="486" x2="557" y2="517" stroke="#bb7ca4" stroke-width="1.05" opacity="0.2" />
<line x1="282" y1="425" x2="263" y2="432" stroke="#bb7ca4" stroke-width="1.87" opacity="0.2" />
<line x1="526" y1="204" x2="466" y2="237" stroke="#bb7ca4" stroke-width="1.66" opacity="0.2" />
<line x1="260" y1="159" x2="275" y2="133" stroke="#bb7ca4" stroke-width="3.12" opacity="0.2" />
<line x1="600" y1="262" x2="610" y2="226" stroke="#bb7ca4" stroke-width="1.95" opacity="0.2" />
<line x1="586" y1="190" x2="600" y2="189" stroke="#bb7ca4" stroke-width="2.36" opacity="0.2" />
<line x1="526" y1="562" x2="513" y2="525" stroke="#bb7ca4" stroke-width="1.57" opacity="0.2" />
<line x1="302" y1="59" x2="244" y2="87" stroke="#bb7ca4" stroke-width="2.01" opacity="0.2" />
<line x1="580" y1="226" x2="578" y2="212" stroke="#bb7ca4" stroke-width="2.04" opacity="0.2" />
<line x1="464" y1="20" x2="414" y2="-26" stroke="#bb7ca4" stroke-width="1.27" opacity="0.2" />
<line x1="780" y1="523" x2="770" y2="472" stroke="#bb7ca4" stroke-width="1.16" opacity="0.2" />
<line x1="343" y1="89" x2="290" y2="135" stroke="#bb7ca4" stroke-width="2.96" opacity="0.2" />
<line x1="411" y1="163" x2="413" y2="159" stroke="#bb7ca4" stroke-width="2.39" opacity="0.2" />
<line x1="701" y1="224" x2="716" y2="226" stroke="#bb7ca4" stroke-width="3.29" opacity="0.2" />
<line x1="386" y1="414" x2="383" y2="465" stroke="#bb7ca4" stroke-width="1.39" opacity="0.2" />
<line x1="95" y1="305" x2="85" y2="281" stroke="#bb7ca4" stroke-width="2.98" opacity="0.2" />
<line x1="15" y1="451" x2="-19" y2="501" stroke="#bb7ca4" stroke-width="2.24" opacity="0.2" />
<line x1="628" y1="158" x2="581" y2="110" stroke="#bb7ca4" stroke-width="3.22" opacity="0.2" />
<line x1="873" y1="319" x2="834" y2="351" stroke="#bb7ca4" stroke-width="2.48" opacity="0.2" />
<line x1="818" y1="13" x2="815" y2="16" stroke="#bb7ca4" stroke-width="1.46" opacity="0.2" />
<line x1="155" y1="243" x2="98" y2="197" stroke="#bb7ca4" stroke-width="1.07" opacity="0.2" />
<line x1="771" y1="171" x2="792" y2="159" stroke="#bb7ca4" stroke-width="2.62" opacity="0.2" />
<line x1="137" y1="573" x2="134" y2="612" stroke="#bb7ca4" stroke-width="3.26" opacity="0.2" />
<line x1="475" y1="28" x2="474" y2="-9" stroke="#bb7ca4" stroke-width="1.52" opacity="0.2" />
</svg>