<?xml version="1.0" encoding="UTF-8"?>
<svg xmlns="http://www.w3.org/2000/svg" width="900" height="600" viewBox="0 0 900 600">
<rect width="100%" height="100%" fill="#f1eaf7" />
<circle cx="89" cy="295" r="24" fill="#d8c1f0" opacity="0.47" />
<circle cx="822" cy="256" r="25" fill="#d8c1f0" opacity="0.45" />
<circle cx="444" cy="415" r="8" fill="#d8c1f0" opacity="0.54" />
<circle cx="121" cy="65" r="17" fill="#d8c1f0" opacity="0.38" />
<circle cx="327" cy="551" r="10" fill="#d8c1f0" opacity="0.49" />
<circle cx="45" cy="435" r="20" fill="#d8c1f0" opacity="0.37" />
<circle cx="434" cy="129" r="28" fill="#d8c1f0" opacity="0.40" />
<circle cx="116" cy="412" r="24" fill="#d8c1f0" opacity="0.52" />
<circle cx="151" cy="581" r="25" fill="#d8c1f0" opacity="0.52" />
<circle cx="682" cy="25" r="13" fill="#d8c1f0" opacity="0.37" />
<circle cx="124" cy="416" r="22" fill="#d8c1f0" opacity="0.43" />
<circle cx="237" cy="413" r="9" fill="#d8c1f0" opacity="0.51" />
<circle cx="453" cy="284" r="15" fill="#d8c1f0" opacity="0.37" />
<circle cx="888" cy="278" r="8" fill="#d8c1f0" opacity="0.58" />
<circle cx="391" cy="149" r="15" fill="#d8c1f0" opacity="0.47" />
<circle cx="667" cy="53" r="17" fill="#d8c1f0" opacity="0.51" />
<circle cx="6" cy="336" r="28" fill="#d8c1f0" opacity="0.56" />
<circle cx="574" cy="396" r="21" fill="#d8c1f0" opacity="0.38" />
<circle cx="493" cy="522" r="22" fill="#d8c1f0" opacity="0.59" />
<circle cx="27" cy="334" r="10" fill="#d8c1f0" opacity="0.49" />
<circle cx="721" cy="229" r="14" fill="#d8c1f0" opacity="0.40" />
<circle cx="412" cy="354" r="10" fill="#d8c1f0" opacity="0.53" />
<circle cx="699" cy="564" r="27" fill="#d8c1f0" opacity="0.39" />
<circle cx="265" cy="379" r="18" fill="#d8c1f0" opacity="0.46" />
<circle cx="786" cy="279" r="12" fill="#d8c1f0" opacity="0.46" />
<circle cx="626" cy="374" r="25" fill="#d8c1f0" opacity="0.58" />
<circle cx="825" cy="141" r="22" fill="#d8c1f0" opacity="0.54" />
<circle cx="89" cy="292" r="10" fill="#d8c1f0" opacity="0.49" />
<circle cx="683" cy="470" r="17" fill="#d8c1f0" opacity="0.47" />
<circle cx="260" cy="264" r="20" fill="#d8c1f0" opacity="0.36" />
<circle cx="128" cy="185" r="16" fill="#d8c1f0" opacity="0.59" />
<circle cx="778" cy="495" r="18" fill="#d8c1f0" opacity="0.49" />
<circle cx="529" cy="68" r="9" fill="#d8c1f0" opacity="0.35" />
<circle cx="255" cy="93" r="19" fill="#d8c1f0" opacity="0.47" />
<circle cx="796" cy="335" r="18" fill="#d8c1f0" opacity="0.39" />
<circle cx="408" cy="407" r="25" fill="#d8c1f0" opacity="0.45" />
<circle cx="211" cy="460" r="25" fill="#d8c1f0" opacity="0.39" />
<circle cx="221" cy="324" r="18" fill="#d8c1f0" opacity="0.49" />
<circle cx="547" cy="329" r="22" fill="#d8c1f0" opacity="0.59" />
<circle cx="610" cy="150" r="13" fill="#d8c1f0" opacity="0.43" />
<circle cx="827" cy="37" r="26" fill="#d8c1f0" opacity="0.60" />
<circle cx="491" cy="193" r="19" fill="#d8c1f0" opacity="0.44" />
<circle cx="593" cy="136" r="16" fill="#d8c1f0" opacity="0.40" />
<circle cx="681" cy="23" r="16" fill="#d8c1f0" opacity="0.42" />
<circle cx="431" cy="21" r="12" fill="#d8c1f0" opacity="0.44" />
<circle cx="556" cy="174" r="25" fill="#d8c1f0" opacity="0.51" />
<circle cx="840" cy="35" r="25" fill="#d8c1f0" opacity="0.45" />
<circle cx="357" cy="592" r="25" fill="#d8c1f0" opacity="0.45" />
<circle cx="569" cy="342" r="14" fill="#d8c1f0" opacity="0.38" />
<circle cx="600" cy="112" r="9" fill="#d8c1f0" opacity="0.58" />
<circle cx="162" cy="579" r="8" fill="#d8c1f0" opacity="0.38" />
<circle cx="456" cy="399" r="29" fill="#d8c1f0" opacity="0.53" />
<circle cx="764" cy="40" r="24" fill="#d8c1f0" opacity="0.42" />
<circle cx="159" cy="441" r="9" fill="#d8c1f0" opacity="0.48" />
<circle cx="109" cy="332" r="21" fill="#d8c1f0" opacity="0.46" />
<circle cx="246" cy="535" r="15" fill="#d8c1f0" opacity="0.55" />
<circle cx="349" cy="152" r="14" fill="#d8c1f0" opacity="0.41" />
<circle cx="101" cy="69" r="22" fill="#d8c1f0" opacity="0.58" />
<circle cx="29" cy="496" r="16" fill="#d8c1f0" opacity="0.41" />
<circle cx="359" cy="412" r="15" fill="#d8c1f0" opacity="0.53" />
<circle cx="760" cy="63" r="9" fill="#d8c1f0" opacity="0.60" />
<circle cx="29" cy="20" r="13" fill="#d8c1f0" opacity="0.51" />
<circle cx="427" cy="503" r="25" fill="#d8c1f0" opacity="0.43" />
<circle cx="749" cy="375" r="25" fill="#d8c1f0" opacity="0.38" />
<circle cx="470" cy="45" r="20" fill="#d8c1f0" opacity="0.41" />
<circle cx="835" cy="435" r="13" fill="#d8c1f0" opacity="0.38" />
<circle cx="622" cy="239" r="21" fill="#d8c1f0" opacity="0.44" />
<circle cx="230" cy="5" r="27" fill="#d8c1f0" opacity="0.37" />
<circle cx="204" cy="226" r="11" fill="#d8c1f0" opacity="0.49" />
<circle cx="160" cy="107" r="28" fill="#d8c1f0" opacity="0.54" />
<circle cx="334" cy="318" r="16" fill="#d8c1f0" opacity="0.53" />
<circle cx="858" cy="303" r="24" fill="#d8c1f0" opacity="0.46" />
<circle cx="797" cy="315" r="17" fill="#d8c1f0" opacity="0.49" />
<circle cx="183" cy="81" r="29" fill="#d8c1f0" opacity="0.46" />
<circle cx="835" cy="465" r="28" fill="#d8c1f0" opacity="0.37" />
<circle cx="278" cy="334" r="29" fill="#d8c1f0" opacity="0.49" />
<circle cx="449" cy="47" r="9" fill="#d8c1f0" opacity="0.45" />
<circle cx="831" cy="19" r="21" fill="#d8c1f0" opacity="0.55" />
<circle cx="219" cy="527" r="15" fill="#d8c1f0" opacity="0.48" />
<circle cx="229" cy="288" r="17" fill="#d8c1f0" opacity="0.38" />
<circle cx="218" cy="446" r="22" fill="#d8c1f0" opacity="0.58" />
<circle cx="638" cy="442" r="28" fill="#d8c1f0" opacity="0.37" />
<circle cx="326" cy="279" r="28" fill="#d8c1f0" opacity="0.48" />
<circle cx="171" cy="114" r="12" fill="#d8c1f0" opacity="0.44" />
<circle cx="578" cy="545" r="22" fill="#d8c1f0" opacity="0.52" />
<circle cx="659" cy="106" r="13" fill="#d8c1f0" opacity="0.41" />
<circle cx="575" cy="332" r="20" fill="#d8c1f0" opacity="0.38" />
<circle cx="778" cy="323" r="13" fill="#d8c1f0" opacity="0.37" />
<circle cx="39" cy="393" r="29" fill="#d8c1f0" opacity="0.44" />
<circle cx="899" cy="76" r="25" fill="#d8c1f0" opacity="0.38" />
<circle cx="624" cy="137" r="28" fill="#d8c1f0" opacity="0.50" />
<circle cx="678" cy="161" r="9" fill="#d8c1f0" opacity="0.51" />
<circle cx="635" cy="212" r="21" fill="#d8c1f0" opacity="0.53" />
<circle cx="204" cy="161" r="25" fill="#d8c1f0" opacity="0.44" />
<circle cx="308" cy="125" r="19" fill="#d8c1f0" opacity="0.40" />
<circle cx="639" cy="265" r="23" fill="#d8c1f0" opacity="0.38" />
<circle cx="35" cy="592" r="14" fill="#d8c1f0" opacity="0.53" />
<circle cx="682" cy="94" r="17" fill="#d8c1f0" opacity="0.53" />
<circle cx="22" cy="400" r="19" fill="#d8c1f0" opacity="0.46" />
<circle cx="850" cy="64" r="14" fill="#d8c1f0" opacity="0.38" />
<circle cx="881" cy="173" r="29" fill="#d8c1f0" opacity="0.40" />
<circle cx="217" cy="321" r="11" fill="#d8c1f0" opacity="0.43" />
<circle cx="263" cy="208" r="8" fill="#d8c1f0" opacity="0.54" />
<circle cx="490" cy="507" r="13" fill="#d8c1f0" opacity="0.41" />
<circle cx="125" cy="311" r="19" fill="#d8c1f0" opacity="0.54" />
<circle cx="66" cy="32" r="15" fill="#d8c1f0" opacity="0.57" />
<circle cx="372" cy="123" r="22" fill="#d8c1f0" opacity="0.45" />
<circle cx="595" cy="307" r="8" fill="#d8c1f0" opacity="0.57" />
<circle cx="839" cy="546" r="24" fill="#d8c1f0" opacity="0.55" />
<circle cx="310" cy="54" r="26" fill="#d8c1f0" opacity="0.48" />
<circle cx="703" cy="100" r="29" fill="#d8c1f0" opacity="0.44" />
<circle cx="849" cy="16" r="13" fill="#d8c1f0" opacity="0.51" />
<circle cx="610" cy="284" r="26" fill="#d8c1f0" opacity="0.51" />
<circle cx="433" cy="366" r="27" fill="#d8c1f0" opacity="0.37" />
<circle cx="5" cy="399" r="17" fill="#d8c1f0" opacity="0.42" />
<circle cx="816" cy="55" r="19" fill="#d8c1f0" opacity="0.45" />
<circle cx="37" cy="299" r="29" fill="#d8c1f0" opacity="0.43" />
<circle cx="734" cy="444" r="15" fill="#d8c1f0" opacity="0.43" />
<circle cx="613" cy="521" r="29" fill="#d8c1f0" opacity="0.59" />
<circle cx="450" cy="539" r="8" fill="#d8c1f0" opacity="0.54" />
<circle cx="308" cy="576" r="15" fill="#d8c1f0" opacity="0.51" />
<circle cx="23" cy="28" r="15" fill="#d8c1f0" opacity="0.57" />
<circle cx="898" cy="474" r="23" fill="#d8c1f0" opacity="0.50" />
<circle cx="155" cy="44" r="19" fill="#d8c1f0" opacity="0.44" />
<circle cx="449" cy="363" r="22" fill="#d8c1f0" opacity="0.40" />
<circle cx="371" cy="99" r="14" fill="#d8c1f0" opacity="0.60" />
<circle cx="789" cy="201" r="21" fill="#d8c1f0" opacity="0.45" />
<circle cx="56" cy="337" r="19" fill="#d8c1f0" opacity="0.48" />
<circle cx="605" cy="251" r="19" fill="#d8c1f0" opacity="0.54" />
<circle cx="375" cy="210" r="19" fill="#d8c1f0" opacity="0.57" />
<circle cx="100" cy="405" r="17" fill="#d8c1f0" opacity="0.56" />
<circle cx="92" cy="44" r="21" fill="#d8c1f0" opacity="0.35" />
<circle cx="616" cy="287" r="16" fill="#d8c1f0" opacity="0.49" />
<circle cx="731" cy="333" r="20" fill="#d8c1f0" opacity="0.49" />
<circle cx="852" cy="539" r="28" fill="#d8c1f0" opacity="0.55" />
<circle cx="216" cy="292" r="14" fill="#d8c1f0" opacity="0.50" />
<circle cx="293" cy="534" r="13" fill="#d8c1f0" opacity="0.45" />
<circle cx="388" cy="388" r="14" fill="#d8c1f0" opacity="0.52" />
<circle cx="832" cy="222" r="27" fill="#d8c1f0" opacity="0.48" />
<circle cx="447" cy="489" r="14" fill="#d8c1f0" opacity="0.41" />
<circle cx="509" cy="41" r="28" fill="#d8c1f0" opacity="0.59" />
<circle cx="566" cy="305" r="20" fill="#d8c1f0" opacity="0.39" />
<circle cx="162" cy="292" r="12" fill="#d8c1f0" opacity="0.59" />
<circle cx="594" cy="88" r="8" fill="#d8c1f0" opacity="0.43" />
<circle cx="579" cy="100" r="17" fill="#d8c1f0" opacity="0.41" />
<circle cx="453" cy="414" r="14" fill="#d8c1f0" opacity="0.43" />
<circle cx="603" cy="518" r="8" fill="#d8c1f0" opacity="0.41" />
<circle cx="199" cy="207" r="21" fill="#d8c1f0" opacity="0.56" />
<circle cx="291" cy="104" r="14" fill="#d8c1f0" opacity="0.55" />
<circle cx="92" cy="93" r="17" fill="#d8c1f0" opacity="0.60" />
<circle cx="206" cy="150" r="7" fill="#4f3d8b" opacity="0.66" />
<circle cx="445" cy="61" r="7" fill="#4f3d8b" opacity="0.74" />
<circle cx="265" cy="492" r="11" fill="#4f3d8b" opacity="0.89" />
<circle cx="834" cy="154" r="8" fill="#4f3d8b" opacity="0.77" />
<circle cx="758" cy="236" r="3" fill="#4f3d8b" opacity="0.72" />
<circle cx="751" cy="255" r="7" fill="#4f3d8b" opacity="0.86" />
<circle cx="891" cy="186" r="3" fill="#4f3d8b" opacity="0.73" />
<circle cx="608" cy="499" r="9" fill="#4f3d8b" opacity="0.69" />
<circle cx="706" cy="482" r="4" fill="#4f3d8b" opacity="0.61" />
<circle cx="606" cy="65" r="7" fill="#4f3d8b" opacity="0.58" />
<circle cx="547" cy="511" r="8" fill="#4f3d8b" opacity="0.75" />
<circle cx="272" cy="216" r="5" fill="#4f3d8b" opacity="0.83" />
<circle cx="420" cy="398" r="4" fill="#4f3d8b" opacity="0.62" />
<circle cx="65" cy="125" r="7" fill="#4f3d8b" opacity="0.63" />
<circle cx="673" cy="461" r="7" fill="#4f3d8b" opacity="0.63" />
<circle cx="130" cy="31" r="11" fill="#4f3d8b" opacity="0.59" />
<circle cx="642" cy="108" r="8" fill="#4f3d8b" opacity="0.88" />
<circle cx="372" cy="381" r="10" fill="#4f3d8b" opacity="0.63" />
<circle cx="812" cy="47" r="11" fill="#4f3d8b" opacity="0.74" />
<circle cx="54" cy="231" r="11" fill="#4f3d8b" opacity="0.78" />
<circle cx="772" cy="452" r="4" fill="#4f3d8b" opacity="0.57" />
<circle cx="2" cy="5" r="9" fill="#4f3d8b" opacity="0.75" />
<circle cx="511" cy="139" r="3" fill="#4f3d8b" opacity="0.61" />
<circle cx="270" cy="421" r="6" fill="#4f3d8b" opacity="0.67" />
<circle cx="18" cy="136" r="7" fill="#4f3d8b" opacity="0.75" />
<circle cx="421" cy="571" r="10" fill="#4f3d8b" opacity="0.59" />
<circle cx="714" cy="172" r="9" fill="#4f3d8b" opacity="0.72" />
<circle cx="791" cy="533" r="9" fill="#4f3d8b" opacity="0.64" />
<circle cx="172" cy="68" r="11" fill="#4f3d8b" opacity="0.56" />
<circle cx="584" cy="151" r="5" fill="#4f3d8b" opacity="0.88" />
<circle cx="402" cy="577" r="6" fill="#4f3d8b" opacity="0.82" />
<circle cx="17" cy="212" r="3" fill="#4f3d8b" opacity="0.72" />
<circle cx="744" cy="133" r="7" fill="#4f3d8b" opacity="0.75" />
<circle cx="790" cy="87" r="10" fill="#4f3d8b" opacity="0.87" />
<circle cx="159" cy="276" r="9" fill="#4f3d8b" opacity="0.69" />
<circle cx="789" cy="253" r="5" fill="#4f3d8b" opacity="0.87" />
<circle cx="246" cy="226" r="10" fill="#4f3d8b" opacity="0.80" />
<circle cx="160" cy="548" r="10" fill="#4f3d8b" opacity="0.64" />
<circle cx="48" cy="347" r="3" fill="#4f3d8b" opacity="0.79" />
<circle cx="244" cy="143" r="8" fill="#4f3d8b" opacity="0.57" />
<circle cx="741" cy="214" r="3" fill="#4f3d8b" opacity="0.71" />
<circle cx="486" cy="527" r="5" fill="#4f3d8b" opacity="0.64" />
<circle cx="99" cy="583" r="8" fill="#4f3d8b" opacity="0.66" />
<circle cx="547" cy="576" r="11" fill="#4f3d8b" opacity="0.57" />
<circle cx="780" cy="222" r="8" fill="#4f3d8b" opacity="0.57" />
<circle cx="600" cy="104" r="6" fill="#4f3d8b" opacity="0.74" />
<circle cx="850" cy="19" r="5" fill="#4f3d8b" opacity="0.71" />
<circle cx="360" cy="131" r="8" fill="#4f3d8b" opacity="0.65" />
<circle cx="464" cy="429" r="10" fill="#4f3d8b" opacity="0.79" />
<circle cx="134" cy="463" r="8" fill="#4f3d8b" opacity="0.59" />
<circle cx="408" cy="454" r="5" fill="#4f3d8b" opacity="0.86" />
<circle cx="614" cy="31" r="5" fill="#4f3d8b" opacity="0.84" />
<circle cx="482" cy="496" r="6" fill="#4f3d8b" opacity="0.85" />
<circle cx="379" cy="412" r="8" fill="#4f3d8b" opacity="0.61" />
<circle cx="377" cy="185" r="7" fill="#4f3d8b" opacity="0.74" />
<circle cx="84" cy="451" r="9" fill="#4f3d8b" opacity="0.77" />
<circle cx="42" cy="303" r="10" fill="#4f3d8b" opacity="0.72" />
<circle cx="199" cy="55" r="11" fill="#4f3d8b" opacity="0.70" />
<circle cx="338" cy="323" r="11" fill="#4f3d8b" opacity="0.61" />
<circle cx="142" cy="154" r="6" fill="#4f3d8b" opacity="0.57" />
<circle cx="120" cy="575" r="11" fill="#4f3d8b" opacity="0.64" />
<circle cx="895" cy="324" r="9" fill="#4f3d8b" opacity="0.69" />
<circle cx="677" cy="253" r="6" fill="#4f3d8b" opacity="0.72" />
<circle cx="385" cy="363" r="9" fill="#4f3d8b" opacity="0.56" />
<circle cx="197" cy="28" r="7" fill="#4f3d8b" opacity="0.62" />
<circle cx="276" cy="94" r="6" fill="#4f3d8b" opacity="0.73" />
<circle cx="428" cy="321" r="8" fill="#4f3d8b" opacity="0.63" />
<circle cx="751" cy="476" r="9" fill="#4f3d8b" opacity="0.84" />
<circle cx="57" cy="461" r="9" fill="#4f3d8b" opacity="0.85" />
<circle cx="256" cy="183" r="6" fill="#4f3d8b" opacity="0.79" />
<circle cx="795" cy="161" r="10" fill="#4f3d8b" opacity="0.57" />
<circle cx="261" cy="395" r="5" fill="#4f3d8b" opacity="0.71" />
<circle cx="762" cy="337" r="7" fill="#4f3d8b" opacity="0.58" />
<circle cx="873" cy="585" r="8" fill="#4f3d8b" opacity="0.77" />
<circle cx="889" cy="111" r="9" fill="#4f3d8b" opacity="0.85" />
<circle cx="466" cy="562" r="8" fill="#4f3d8b" opacity="0.58" />
<circle cx="388" cy="531" r="9" fill="#4f3d8b" opacity="0.73" />
<circle cx="82" cy="58" r="8" fill="#4f3d8b" opacity="0.67" />
<circle cx="866" cy="436" r="4" fill="#4f3d8b" opacity="0.74" />
<circle cx="511" cy="545" r="9" fill="#4f3d8b" opacity="0.58" />
<circle cx="555" cy="533" r="8" fill="#4f3d8b" opacity="0.72" />
<circle cx="306" cy="193" r="8" fill="#4f3d8b" opacity="0.70" />
<circle cx="690" cy="574" r="7" fill="#4f3d8b" opacity="0.76" />
<line x1="192" y1="6" x2="226" y2="-31" stroke="#c39bd3" stroke-width="2.56" opacity="0.2" />
<line x1="185" y1="71" x2="178" y2="59" stroke="#c39bd3" stroke-width="1.35" opacity="0.2" />
<line x1="430" y1="62" x2="435" y2="16" stroke="#c39bd3" stroke-width="3.39" opacity="0.2" />
<line x1="813" y1="47" x2="850" y2="10" stroke="#c39bd3" stroke-width="1.73" opacity="0.2" />
<line x1="891" y1="235" x2="884" y2="219" stroke="#c39bd3" stroke-width="1.03" opacity="0.2" />
<line x1="138" y1="238" x2="165" y2="292" stroke="#c39bd3" stroke-width="2.70" opacity="0.2" />
<line x1="224" y1="57" x2="232" y2="23" stroke="#c39bd3" stroke-width="1.75" opacity="0.2" />
<line x1="761" y1="171" x2="717" y2="204" stroke="#c39bd3" stroke-width="1.66" opacity="0.2" />
<line x1="157" y1="465" x2="125" y2="508" stroke="#c39bd3" stroke-width="3.39" opacity="0.2" />
<line x1="881" y1="269" x2="887" y2="256" stroke="#c39bd3" stroke-width="2.82" opacity="0.2" />
<line x1="462" y1="491" x2="450" y2="510" stroke="#c39bd3" stroke-width="1.92" opacity="0.2" />
<line x1="570" y1="269" x2="621" y2="218" stroke="#c39bd3" stroke-width="2.11" opacity="0.2" />
<line x1="353" y1="244" x2="321" y2="185" stroke="#c39bd3" stroke-width="2.82" opacity="0.2" />
<line x1="561" y1="54" x2="580" y2="-5" stroke="#c39bd3" stroke-width="1.07" opacity="0.2" />
<line x1="309" y1="280" x2="331" y2="256" stroke="#c39bd3" stroke-width="1.39" opacity="0.2" />
<line x1="362" y1="127" x2="338" y2="175" stroke="#c39bd3" stroke-width="2.97" opacity="0.2" />
<line x1="86" y1="483" x2="83" y2="495" stroke="#c39bd3" stroke-width="2.96" opacity="0.2" />
<line x1="505" y1="50" x2="499" y2="68" stroke="#c39bd3" stroke-width="2.62" opacity="0.2" />
<line x1="348" y1="247" x2="384" y2="304" stroke="#c39bd3" stroke-width="1.60" opacity="0.2" />
<line x1="880" y1="424" x2="854" y2="387" stroke="#c39bd3" stroke-width="2.96" opacity="0.2" />
<line x1="866" y1="75" x2="831" y2="70" stroke="#c39bd3" stroke-width="1.19" opacity="0.2" />
<line x1="430" y1="550" x2="479" y2="516" stroke="#c39bd3" stroke-width="1.97" opacity="0.2" />
<line x1="589" y1="406" x2="646" y2="390" stroke="#c39bd3" stroke-width="3.45" opacity="0.2" />
<line x1="300" y1="247" x2="317" y2="218" stroke="#c39bd3" stroke-width="3.17" opacity="0.2" />
<line x1="143" y1="443" x2="146" y2="477" stroke="#c39bd3" stroke-width="2.36" opacity="0.2" />
<line x1="91" y1="110" x2="105" y2="52" stroke="#c39bd3" stroke-width="2.78" opacity="0.2" />
<line x1="505" y1="27" x2="551" y2="70" stroke="#c39bd3" stroke-width="3.49" opacity="0.2" />
<line x1="54" y1="530" x2="22" y2="550" stroke="#c39bd3" stroke-width="1.96" opacity="0.2" />
<line x1="27" y1="321" x2="82" y2="347" stroke="#c39bd3" stroke-width="1.50" opacity="0.2" />
<line x1="887" y1="37" x2="925" y2="63" stroke="#c39bd3" stroke-width="3.25" opacity="0.2" />
</svg>