<?xml version="1.0" encoding="UTF-8"?>
<svg xmlns="http://www.w3.org/2000/svg" width="900" height="600" viewBox="0 0 900 600">
<rect width="100%" height="100%" fill="#f1eaf7" />
<circle cx="836" cy="249" r="21" fill="#d8c1f0" opacity="0.46" />
<circle cx="837" cy="538" r="14" fill="#d8c1f0" opacity="0.55" />
<circle cx="400" cy="359" r="9" fill="#d8c1f0" opacity="0.56" />
<circle cx="518" cy="383" r="24" fill="#d8c1f0" opacity="0.45" />
<circle cx="487" cy="462" r="29" fill="#d8c1f0" opacity="0.35" />
<circle cx="680" cy="416" r="11" fill="#d8c1f0" opacity="0.44" />
<circle cx="659" cy="578" r="14" fill="#d8c1f0" opacity="0.55" />
<circle cx="326" cy="368" r="18" fill="#d8c1f0" opacity="0.59" />
<circle cx="776" cy="231" r="11" fill="#d8c1f0" opacity="0.52" />
<circle cx="43" cy="524" r="24" fill="#d8c1f0" opacity="0.53" />
<circle cx="220" cy="300" r="10" fill="#d8c1f0" opacity="0.58" />
<circle cx="450" cy="13" r="25" fill="#d8c1f0" opacity="0.45" />
<circle cx="375" cy="532" r="19" fill="#d8c1f0" opacity="0.50" />
<circle cx="110" cy="558" r="23" fill="#d8c1f0" opacity="0.50" />
<circle cx="273" cy="114" r="25" fill="#d8c1f0" opacity="0.51" />
<circle cx="687" cy="191" r="21" fill="#d8c1f0" opacity="0.38" />
<circle cx="1" cy="75" r="22" fill="#d8c1f0" opacity="0.39" />
<circle cx="286" cy="68" r="12" fill="#d8c1f0" opacity="0.40" />
<circle cx="786" cy="198" r="13" fill="#d8c1f0" opacity="0.48" />
<circle cx="277" cy="164" r="19" fill="#d8c1f0" opacity="0.43" />
<circle cx="866" cy="487" r="10" fill="#d8c1f0" opacity="0.51" />
<circle cx="519" cy="73" r="21" fill="#d8c1f0" opacity="0.51" />
<circle cx="130" cy="49" r="21" fill="#d8c1f0" opacity="0.39" />
<circle cx="208" cy="34" r="14" fill="#d8c1f0" opacity="0.44" />
<circle cx="744" cy="48" r="23" fill="#d8c1f0" opacity="0.43" />
<circle cx="700" cy="20" r="25" fill="#d8c1f0" opacity="0.36" />
<circle cx="578" cy="161" r="12" fill="#d8c1f0" opacity="0.50" />
<circle cx="242" cy="54" r="15" fill="#d8c1f0" opacity="0.52" />
<circle cx="817" cy="143" r="9" fill="#d8c1f0" opacity="0.59" />
<circle cx="261" cy="378" r="29" fill="#d8c1f0" opacity="0.45" />
<circle cx="271" cy="529" r="25" fill="#d8c1f0" opacity="0.43" />
<circle cx="710" cy="41" r="10" fill="#d8c1f0" opacity="0.53" />
<circle cx="574" cy="406" r="26" fill="#d8c1f0" opacity="0.58" />
<circle cx="768" cy="339" r="8" fill="#d8c1f0" opacity="0.48" />
<circle cx="205" cy="236" r="17" fill="#d8c1f0" opacity="0.55" />
<circle cx="788" cy="45" r="10" fill="#d8c1f0" opacity="0.59" />
<circle cx="632" cy="348" r="15" fill="#d8c1f0" opacity="0.49" />
<circle cx="199" cy="36" r="24" fill="#d8c1f0" opacity="0.47" />
<circle cx="885" cy="549" r="24" fill="#d8c1f0" opacity="0.40" />
<circle cx="98" cy="551" r="18" fill="#d8c1f0" opacity="0.45" />
<circle cx="273" cy="67" r="17" fill="#d8c1f0" opacity="0.49" />
<circle cx="835" cy="225" r="18" fill="#d8c1f0" opacity="0.41" />
<circle cx="643" cy="101" r="25" fill="#d8c1f0" opacity="0.43" />
<circle cx="23" cy="468" r="22" fill="#d8c1f0" opacity="0.44" />
<circle cx="246" cy="537" r="22" fill="#d8c1f0" opacity="0.38" />
<circle cx="461" cy="37" r="22" fill="#d8c1f0" opacity="0.44" />
<circle cx="456" cy="164" r="22" fill="#d8c1f0" opacity="0.47" />
<circle cx="869" cy="30" r="29" fill="#d8c1f0" opacity="0.57" />
<circle cx="759" cy="20" r="10" fill="#d8c1f0" opacity="0.50" />
<circle cx="139" cy="225" r="8" fill="#d8c1f0" opacity="0.55" />
<circle cx="793" cy="439" r="19" fill="#d8c1f0" opacity="0.57" />
<circle cx="529" cy="6" r="9" fill="#d8c1f0" opacity="0.50" />
<circle cx="590" cy="524" r="13" fill="#d8c1f0" opacity="0.36" />
<circle cx="657" cy="294" r="15" fill="#d8c1f0" opacity="0.60" />
<circle cx="651" cy="506" r="9" fill="#d8c1f0" opacity="0.44" />
<circle cx="749" cy="487" r="18" fill="#d8c1f0" opacity="0.53" />
<circle cx="57" cy="377" r="28" fill="#d8c1f0" opacity="0.52" />
<circle cx="517" cy="118" r="16" fill="#d8c1f0" opacity="0.40" />
<circle cx="289" cy="154" r="16" fill="#d8c1f0" opacity="0.39" />
<circle cx="255" cy="596" r="23" fill="#d8c1f0" opacity="0.41" />
<circle cx="224" cy="422" r="12" fill="#d8c1f0" opacity="0.40" />
<circle cx="303" cy="432" r="11" fill="#d8c1f0" opacity="0.41" />
<circle cx="872" cy="140" r="26" fill="#d8c1f0" opacity="0.51" />
<circle cx="693" cy="406" r="13" fill="#d8c1f0" opacity="0.58" />
<circle cx="421" cy="318" r="21" fill="#d8c1f0" opacity="0.42" />
<circle cx="266" cy="19" r="17" fill="#d8c1f0" opacity="0.45" />
<circle cx="132" cy="127" r="17" fill="#d8c1f0" opacity="0.58" />
<circle cx="228" cy="466" r="17" fill="#d8c1f0" opacity="0.57" />
<circle cx="894" cy="94" r="21" fill="#d8c1f0" opacity="0.53" />
<circle cx="520" cy="279" r="27" fill="#d8c1f0" opacity="0.52" />
<circle cx="821" cy="52" r="20" fill="#d8c1f0" opacity="0.41" />
<circle cx="280" cy="48" r="20" fill="#d8c1f0" opacity="0.44" />
<circle cx="520" cy="181" r="29" fill="#d8c1f0" opacity="0.53" />
<circle cx="667" cy="280" r="28" fill="#d8c1f0" opacity="0.39" />
<circle cx="536" cy="415" r="26" fill="#d8c1f0" opacity="0.38" />
<circle cx="4" cy="384" r="21" fill="#d8c1f0" opacity="0.50" />
<circle cx="789" cy="319" r="13" fill="#d8c1f0" opacity="0.58" />
<circle cx="528" cy="28" r="26" fill="#d8c1f0" opacity="0.47" />
<circle cx="726" cy="189" r="12" fill="#d8c1f0" opacity="0.50" />
<circle cx="23" cy="485" r="19" fill="#d8c1f0" opacity="0.56" />
<circle cx="113" cy="266" r="15" fill="#d8c1f0" opacity="0.49" />
<circle cx="612" cy="150" r="27" fill="#d8c1f0" opacity="0.59" />
<circle cx="232" cy="575" r="14" fill="#d8c1f0" opacity="0.48" />
<circle cx="877" cy="400" r="15" fill="#d8c1f0" opacity="0.49" />
<circle cx="748" cy="384" r="16" fill="#d8c1f0" opacity="0.48" />
<circle cx="94" cy="38" r="27" fill="#d8c1f0" opacity="0.39" />
<circle cx="283" cy="186" r="11" fill="#d8c1f0" opacity="0.47" />
<circle cx="767" cy="576" r="20" fill="#d8c1f0" opacity="0.41" />
<circle cx="295" cy="508" r="28" fill="#d8c1f0" opacity="0.49" />
<circle cx="705" cy="147" r="19" fill="#d8c1f0" opacity="0.55" />
<circle cx="80" cy="244" r="12" fill="#d8c1f0" opacity="0.41" />
<circle cx="612" cy="134" r="26" fill="#d8c1f0" opacity="0.57" />
<circle cx="566" cy="260" r="19" fill="#d8c1f0" opacity="0.53" />
<circle cx="813" cy="452" r="26" fill="#d8c1f0" opacity="0.46" />
<circle cx="414" cy="389" r="21" fill="#d8c1f0" opacity="0.46" />
<circle cx="478" cy="86" r="8" fill="#d8c1f0" opacity="0.39" />
<circle cx="162" cy="500" r="24" fill="#d8c1f0" opacity="0.56" />
<circle cx="430" cy="211" r="8" fill="#d8c1f0" opacity="0.38" />
<circle cx="19" cy="394" r="9" fill="#d8c1f0" opacity="0.36" />
<circle cx="562" cy="11" r="27" fill="#d8c1f0" opacity="0.41" />
<circle cx="78" cy="396" r="26" fill="#d8c1f0" opacity="0.40" />
<circle cx="475" cy="421" r="10" fill="#d8c1f0" opacity="0.50" />
<circle cx="485" cy="312" r="8" fill="#d8c1f0" opacity="0.44" />
<circle cx="51" cy="417" r="13" fill="#d8c1f0" opacity="0.51" />
<circle cx="20" cy="499" r="27" fill="#d8c1f0" opacity="0.56" />
<circle cx="367" cy="545" r="9" fill="#d8c1f0" opacity="0.54" />
<circle cx="840" cy="584" r="16" fill="#d8c1f0" opacity="0.43" />
<circle cx="225" cy="563" r="22" fill="#d8c1f0" opacity="0.60" />
<circle cx="432" cy="49" r="15" fill="#d8c1f0" opacity="0.48" />
<circle cx="407" cy="248" r="19" fill="#d8c1f0" opacity="0.50" />
<circle cx="687" cy="537" r="8" fill="#d8c1f0" opacity="0.57" />
<circle cx="36" cy="323" r="18" fill="#d8c1f0" opacity="0.40" />
<circle cx="297" cy="246" r="29" fill="#d8c1f0" opacity="0.40" />
<circle cx="622" cy="285" r="20" fill="#d8c1f0" opacity="0.58" />
<circle cx="659" cy="57" r="8" fill="#d8c1f0" opacity="0.37" />
<circle cx="641" cy="220" r="21" fill="#d8c1f0" opacity="0.43" />
<circle cx="660" cy="372" r="18" fill="#d8c1f0" opacity="0.53" />
<circle cx="48" cy="68" r="13" fill="#d8c1f0" opacity="0.37" />
<circle cx="822" cy="460" r="13" fill="#d8c1f0" opacity="0.47" />
<circle cx="838" cy="330" r="9" fill="#d8c1f0" opacity="0.47" />
<circle cx="770" cy="140" r="25" fill="#d8c1f0" opacity="0.45" />
<circle cx="161" cy="416" r="28" fill="#d8c1f0" opacity="0.60" />
<circle cx="5" cy="434" r="25" fill="#d8c1f0" opacity="0.46" />
<circle cx="404" cy="49" r="12" fill="#d8c1f0" opacity="0.43" />
<circle cx="16" cy="507" r="24" fill="#d8c1f0" opacity="0.35" />
<circle cx="560" cy="237" r="26" fill="#d8c1f0" opacity="0.58" />
<circle cx="876" cy="389" r="26" fill="#d8c1f0" opacity="0.59" />
<circle cx="275" cy="357" r="13" fill="#d8c1f0" opacity="0.57" />
<circle cx="532" cy="19" r="28" fill="#d8c1f0" opacity="0.43" />
<circle cx="56" cy="441" r="8" fill="#d8c1f0" opacity="0.42" />
<circle cx="502" cy="193" r="17" fill="#d8c1f0" opacity="0.60" />
<circle cx="45" cy="460" r="19" fill="#d8c1f0" opacity="0.48" />
<circle cx="275" cy="588" r="14" fill="#d8c1f0" opacity="0.55" />
<circle cx="368" cy="386" r="13" fill="#d8c1f0" opacity="0.59" />
<circle cx="11" cy="434" r="13" fill="#d8c1f0" opacity="0.58" />
<circle cx="587" cy="168" r="29" fill="#d8c1f0" opacity="0.37" />
<circle cx="250" cy="552" r="19" fill="#d8c1f0" opacity="0.52" />
<circle cx="342" cy="240" r="20" fill="#d8c1f0" opacity="0.41" />
<circle cx="786" cy="325" r="18" fill="#d8c1f0" opacity="0.48" />
<circle cx="169" cy="135" r="14" fill="#d8c1f0" opacity="0.38" />
<circle cx="835" cy="592" r="19" fill="#d8c1f0" opacity="0.41" />
<circle cx="897" cy="238" r="18" fill="#d8c1f0" opacity="0.51" />
<circle cx="66" cy="542" r="23" fill="#d8c1f0" opacity="0.42" />
<circle cx="873" cy="30" r="18" fill="#d8c1f0" opacity="0.42" />
<circle cx="7" cy="354" r="29" fill="#d8c1f0" opacity="0.58" />
<circle cx="461" cy="462" r="19" fill="#d8c1f0" opacity="0.53" />
<circle cx="844" cy="134" r="16" fill="#d8c1f0" opacity="0.40" />
<circle cx="377" cy="133" r="26" fill="#d8c1f0" opacity="0.48" />
<circle cx="389" cy="420" r="28" fill="#d8c1f0" opacity="0.36" />
<circle cx="774" cy="3" r="20" fill="#d8c1f0" opacity="0.46" />
<circle cx="520" cy="194" r="23" fill="#d8c1f0" opacity="0.46" />
<circle cx="611" cy="284" r="16" fill="#d8c1f0" opacity="0.59" />
<circle cx="760" cy="37" r="24" fill="#d8c1f0" opacity="0.56" />
<circle cx="459" cy="396" r="23" fill="#d8c1f0" opacity="0.44" />
<circle cx="225" cy="588" r="27" fill="#d8c1f0" opacity="0.38" />
<circle cx="656" cy="179" r="10" fill="#d8c1f0" opacity="0.41" />
<circle cx="49" cy="395" r="16" fill="#d8c1f0" opacity="0.57" />
<circle cx="209" cy="198" r="12" fill="#d8c1f0" opacity="0.37" />
<circle cx="855" cy="550" r="12" fill="#d8c1f0" opacity="0.57" />
<circle cx="9" cy="219" r="9" fill="#d8c1f0" opacity="0.49" />
<circle cx="836" cy="343" r="5" fill="#4f3d8b" opacity="0.56" />
<circle cx="35" cy="81" r="5" fill="#4f3d8b" opacity="0.68" />
<circle cx="130" cy="195" r="11" fill="#4f3d8b" opacity="0.57" />
<circle cx="464" cy="37" r="9" fill="#4f3d8b" opacity="0.56" />
<circle cx="716" cy="567" r="11" fill="#4f3d8b" opacity="0.78" />
<circle cx="70" cy="432" r="9" fill="#4f3d8b" opacity="0.89" />
<circle cx="576" cy="566" r="6" fill="#4f3d8b" opacity="0.58" />
<circle cx="204" cy="371" r="7" fill="#4f3d8b" opacity="0.66" />
<circle cx="211" cy="340" r="7" fill="#4f3d8b" opacity="0.88" />
<circle cx="486" cy="55" r="11" fill="#4f3d8b" opacity="0.77" />
<circle cx="240" cy="301" r="7" fill="#4f3d8b" opacity="0.74" />
<circle cx="610" cy="331" r="9" fill="#4f3d8b" opacity="0.73" />
<circle cx="815" cy="340" r="7" fill="#4f3d8b" opacity="0.60" />
<circle cx="484" cy="45" r="8" fill="#4f3d8b" opacity="0.89" />
<circle cx="846" cy="351" r="10" fill="#4f3d8b" opacity="0.68" />
<circle cx="666" cy="421" r="9" fill="#4f3d8b" opacity="0.64" />
<circle cx="557" cy="165" r="5" fill="#4f3d8b" opacity="0.79" />
<circle cx="507" cy="323" r="3" fill="#4f3d8b" opacity="0.89" />
<circle cx="708" cy="179" r="8" fill="#4f3d8b" opacity="0.77" />
<circle cx="491" cy="3" r="9" fill="#4f3d8b" opacity="0.70" />
<circle cx="795" cy="16" r="9" fill="#4f3d8b" opacity="0.58" />
<circle cx="893" cy="597" r="8" fill="#4f3d8b" opacity="0.85" />
<circle cx="576" cy="168" r="5" fill="#4f3d8b" opacity="0.55" />
<circle cx="369" cy="202" r="7" fill="#4f3d8b" opacity="0.78" />
<circle cx="728" cy="142" r="3" fill="#4f3d8b" opacity="0.88" />
<circle cx="656" cy="353" r="6" fill="#4f3d8b" opacity="0.75" />
<circle cx="30" cy="505" r="6" fill="#4f3d8b" opacity="0.79" />
<circle cx="736" cy="69" r="8" fill="#4f3d8b" opacity="0.89" />
<circle cx="244" cy="493" r="6" fill="#4f3d8b" opacity="0.88" />
<circle cx="806" cy="399" r="4" fill="#4f3d8b" opacity="0.88" />
<circle cx="308" cy="429" r="5" fill="#4f3d8b" opacity="0.70" />
<circle cx="485" cy="570" r="11" fill="#4f3d8b" opacity="0.59" />
<circle cx="680" cy="598" r="10" fill="#4f3d8b" opacity="0.59" />
<circle cx="155" cy="144" r="5" fill="#4f3d8b" opacity="0.60" />
<circle cx="612" cy="333" r="3" fill="#4f3d8b" opacity="0.68" />
<circle cx="151" cy="518" r="10" fill="#4f3d8b" opacity="0.70" />
<circle cx="490" cy="187" r="10" fill="#4f3d8b" opacity="0.74" />
<circle cx="803" cy="555" r="7" fill="#4f3d8b" opacity="0.77" />
<circle cx="463" cy="453" r="8" fill="#4f3d8b" opacity="0.69" />
<circle cx="734" cy="116" r="3" fill="#4f3d8b" opacity="0.62" />
<circle cx="688" cy="527" r="4" fill="#4f3d8b" opacity="0.84" />
<circle cx="458" cy="152" r="11" fill="#4f3d8b" opacity="0.68" />
<circle cx="758" cy="504" r="11" fill="#4f3d8b" opacity="0.74" />
<circle cx="301" cy="347" r="11" fill="#4f3d8b" opacity="0.85" />
<circle cx="107" cy="379" r="8" fill="#4f3d8b" opacity="0.84" />
<circle cx="59" cy="313" r="10" fill="#4f3d8b" opacity="0.79" />
<circle cx="506" cy="125" r="10" fill="#4f3d8b" opacity="0.85" />
<circle cx="211" cy="228" r="5" fill="#4f3d8b" opacity="0.89" />
<circle cx="287" cy="297" r="5" fill="#4f3d8b" opacity="0.63" />
<circle cx="70" cy="308" r="3" fill="#4f3d8b" opacity="0.74" />
<circle cx="67" cy="33" r="8" fill="#4f3d8b" opacity="0.85" />
<circle cx="296" cy="217" r="7" fill="#4f3d8b" opacity="0.67" />
<circle cx="695" cy="302" r="3" fill="#4f3d8b" opacity="0.80" />
<circle cx="821" cy="256" r="10" fill="#4f3d8b" opacity="0.79" />
<circle cx="393" cy="324" r="8" fill="#4f3d8b" opacity="0.59" />
<circle cx="766" cy="108" r="10" fill="#4f3d8b" opacity="0.70" />
<circle cx="707" cy="264" r="4" fill="#4f3d8b" opacity="0.87" />
<circle cx="568" cy="258" r="10" fill="#4f3d8b" opacity="0.59" />
<circle cx="602" cy="139" r="4" fill="#4f3d8b" opacity="0.60" />
<circle cx="573" cy="536" r="11" fill="#4f3d8b" opacity="0.74" />
<circle cx="888" cy="584" r="10" fill="#4f3d8b" opacity="0.60" />
<circle cx="373" cy="257" r="8" fill="#4f3d8b" opacity="0.55" />
<circle cx="228" cy="190" r="3" fill="#4f3d8b" opacity="0.71" />
<circle cx="138" cy="53" r="7" fill="#4f3d8b" opacity="0.73" />
<circle cx="680" cy="13" r="11" fill="#4f3d8b" opacity="0.59" />
<circle cx="332" cy="196" r="5" fill="#4f3d8b" opacity="0.86" />
<circle cx="328" cy="228" r="7" fill="#4f3d8b" opacity="0.78" />
<circle cx="847" cy="199" r="9" fill="#4f3d8b" opacity="0.55" />
<circle cx="42" cy="342" r="8" fill="#4f3d8b" opacity="0.76" />
<circle cx="257" cy="292" r="11" fill="#4f3d8b" opacity="0.68" />
<circle cx="309" cy="511" r="11" fill="#4f3d8b" opacity="0.76" />
<circle cx="64" cy="381" r="10" fill="#4f3d8b" opacity="0.76" />
<circle cx="256" cy="64" r="3" fill="#4f3d8b" opacity="0.57" />
<circle cx="616" cy="471" r="10" fill="#4f3d8b" opacity="0.72" />
<circle cx="351" cy="27" r="5" fill="#4f3d8b" opacity="0.64" />
<circle cx="534" cy="83" r="9" fill="#4f3d8b" opacity="0.74" />
<circle cx="470" cy="216" r="9" fill="#4f3d8b" opacity="0.85" />
<circle cx="402" cy="565" r="7" fill="#4f3d8b" opacity="0.84" />
<circle cx="398" cy="71" r="10" fill="#4f3d8b" opacity="0.85" />
<circle cx="655" cy="5" r="9" fill="#4f3d8b" opacity="0.77" />
<circle cx="704" cy="572" r="4" fill="#4f3d8b" opacity="0.75" />
<circle cx="868" cy="481" r="10" fill="#4f3d8b" opacity="0.64" />
<circle cx="854" cy="203" r="5" fill="#4f3d8b" opacity="0.71" />
<circle cx="23" cy="268" r="10" fill="#4f3d8b" opacity="0.65" />
<circle cx="262" cy="489" r="8" fill="#4f3d8b" opacity="0.68" />
<line x1="125" y1="329" x2="173" y2="382" stroke="#c39bd3" stroke-width="1.73" opacity="0.2" />
<line x1="222" y1="184" x2="205" y2="205" stroke="#c39bd3" stroke-width="2.67" opacity="0.2" />
<line x1="586" y1="194" x2="599" y2="137" stroke="#c39bd3" stroke-width="2.19" opacity="0.2" />
<line x1="155" y1="342" x2="153" y2="294" stroke="#c39bd3" stroke-width="2.93" opacity="0.2" />
<line x1="695" y1="399" x2="752" y2="398" stroke="#c39bd3" stroke-width="2.18" opacity="0.2" />
<line x1="609" y1="131" x2="574" y2="74" stroke="#c39bd3" stroke-width="2.41" opacity="0.2" />
<line x1="540" y1="536" x2="514" y2="578" stroke="#c39bd3" stroke-width="1.07" opacity="0.2" />
<line x1="536" y1="247" x2="510" y2="208" stroke="#c39bd3" stroke-width="1.09" opacity="0.2" />
<line x1="739" y1="417" x2="714" y2="470" stroke="#c39bd3" stroke-width="2.12" opacity="0.2" />
<line x1="451" y1="572" x2="472" y2="599" stroke="#c39bd3" stroke-width="1.84" opacity="0.2" />
<line x1="213" y1="0" x2="232" y2="22" stroke="#c39bd3" stroke-width="1.27" opacity="0.2" />
<line x1="729" y1="76" x2="746" y2="55" stroke="#c39bd3" stroke-width="2.58" opacity="0.2" />
<line x1="601" y1="315" x2="644" y2="364" stroke="#c39bd3" stroke-width="2.96" opacity="0.2" />
<line x1="695" y1="165" x2="731" y2="222" stroke="#c39bd3" stroke-width="2.66" opacity="0.2" />
<line x1="139" y1="252" x2="111" y2="267" stroke="#c39bd3" stroke-width="1.44" opacity="0.2" />
<line x1="141" y1="220" x2="183" y2="188" stroke="#c39bd3" stroke-width="2.76" opacity="0.2" />
<line x1="43" y1="249" x2="87" y2="263" stroke="#c39bd3" stroke-width="3.37" opacity="0.2" />
<line x1="273" y1="381" x2="267" y2="398" stroke="#c39bd3" stroke-width="2.79" opacity="0.2" />
<line x1="143" y1="258" x2="200" y2="304" stroke="#c39bd3" stroke-width="1.55" opacity="0.2" />
<line x1="105" y1="365" x2="97" y2="307" stroke="#c39bd3" stroke-width="1.71" opacity="0.2" />
<line x1="97" y1="320" x2="115" y2="265" stroke="#c39bd3" stroke-width="3.24" opacity="0.2" />
<line x1="754" y1="400" x2="743" y2="446" stroke="#c39bd3" stroke-width="2.66" opacity="0.2" />
<line x1="615" y1="308" x2="632" y2="304" stroke="#c39bd3" stroke-width="1.17" opacity="0.2" />
<line x1="285" y1="5" x2="227" y2="38" stroke="#c39bd3" stroke-width="3.45" opacity="0.2" />
<line x1="197" y1="465" x2="138" y2="482" stroke="#c39bd3" stroke-width="1.76" opacity="0.2" />
<line x1="794" y1="44" x2="821" y2="51" stroke="#c39bd3" stroke-width="1.00" opacity="0.2" />
<line x1="390" y1="424" x2="421" y2="436" stroke="#c39bd3" stroke-width="1.64" opacity="0.2" />
<line x1="776" y1="86" x2="739" y2="95" stroke="#c39bd3" stroke-width="1.58" opacity="0.2" />
<line x1="609" y1="195" x2="630" y2="200" stroke="#c39bd3" stroke-width="1.61" opacity="0.2" />
<line x1="690" y1="322" x2="646" y2="353" stroke="#c39bd3" stroke-width="1.55" opacity="0.2" />
</svg>