<?xml version="1.0" encoding="UTF-8"?>
<svg xmlns="http://www.w3.org/2000/svg" width="900" height="600" viewBox="0 0 900 600">
<rect width="100%" height="100%" fill="#f5ebe0" />
<circle cx="739" cy="382" r="10" fill="#f1d4c2" opacity="0.37" />
<circle cx="169" cy="579" r="24" fill="#f1d4c2" opacity="0.59" />
<circle cx="336" cy="166" r="17" fill="#f1d4c2" opacity="0.37" />
<circle cx="5" cy="126" r="16" fill="#f1d4c2" opacity="0.55" />
<circle cx="348" cy="43" r="21" fill="#f1d4c2" opacity="0.52" />
<circle cx="316" cy="464" r="11" fill="#f1d4c2" opacity="0.41" />
<circle cx="183" cy="20" r="18" fill="#f1d4c2" opacity="0.44" />
<circle cx="82" cy="509" r="28" fill="#f1d4c2" opacity="0.51" />
<circle cx="876" cy="88" r="24" fill="#f1d4c2" opacity="0.44" />
<circle cx="383" cy="197" r="16" fill="#f1d4c2" opacity="0.58" />
<circle cx="400" cy="137" r="27" fill="#f1d4c2" opacity="0.57" />
<circle cx="120" cy="65" r="10" fill="#f1d4c2" opacity="0.40" />
<circle cx="706" cy="279" r="13" fill="#f1d4c2" opacity="0.37" />
<circle cx="662" cy="66" r="24" fill="#f1d4c2" opacity="0.38" />
<circle cx="865" cy="271" r="9" fill="#f1d4c2" opacity="0.60" />
<circle cx="393" cy="137" r="24" fill="#f1d4c2" opacity="0.43" />
<circle cx="29" cy="246" r="16" fill="#f1d4c2" opacity="0.38" />
<circle cx="899" cy="395" r="25" fill="#f1d4c2" opacity="0.42" />
<circle cx="441" cy="76" r="17" fill="#f1d4c2" opacity="0.53" />
<circle cx="796" cy="126" r="27" fill="#f1d4c2" opacity="0.58" />
<circle cx="204" cy="63" r="15" fill="#f1d4c2" opacity="0.42" />
<circle cx="742" cy="581" r="10" fill="#f1d4c2" opacity="0.46" />
<circle cx="430" cy="458" r="14" fill="#f1d4c2" opacity="0.58" />
<circle cx="794" cy="535" r="23" fill="#f1d4c2" opacity="0.57" />
<circle cx="818" cy="414" r="21" fill="#f1d4c2" opacity="0.47" />
<circle cx="69" cy="351" r="22" fill="#f1d4c2" opacity="0.59" />
<circle cx="501" cy="40" r="15" fill="#f1d4c2" opacity="0.38" />
<circle cx="293" cy="569" r="26" fill="#f1d4c2" opacity="0.49" />
<circle cx="12" cy="168" r="24" fill="#f1d4c2" opacity="0.50" />
<circle cx="757" cy="61" r="19" fill="#f1d4c2" opacity="0.49" />
<circle cx="168" cy="259" r="22" fill="#f1d4c2" opacity="0.40" />
<circle cx="41" cy="518" r="11" fill="#f1d4c2" opacity="0.39" />
<circle cx="831" cy="574" r="18" fill="#f1d4c2" opacity="0.44" />
<circle cx="6" cy="334" r="25" fill="#f1d4c2" opacity="0.46" />
<circle cx="91" cy="503" r="10" fill="#f1d4c2" opacity="0.58" />
<circle cx="799" cy="358" r="9" fill="#f1d4c2" opacity="0.40" />
<circle cx="120" cy="7" r="27" fill="#f1d4c2" opacity="0.48" />
<circle cx="557" cy="380" r="29" fill="#f1d4c2" opacity="0.51" />
<circle cx="91" cy="163" r="21" fill="#f1d4c2" opacity="0.53" />
<circle cx="108" cy="284" r="28" fill="#f1d4c2" opacity="0.53" />
<circle cx="742" cy="383" r="24" fill="#f1d4c2" opacity="0.59" />
<circle cx="196" cy="0" r="28" fill="#f1d4c2" opacity="0.59" />
<circle cx="826" cy="98" r="18" fill="#f1d4c2" opacity="0.43" />
<circle cx="350" cy="142" r="9" fill="#f1d4c2" opacity="0.43" />
<circle cx="600" cy="540" r="27" fill="#f1d4c2" opacity="0.40" />
<circle cx="645" cy="199" r="20" fill="#f1d4c2" opacity="0.46" />
<circle cx="247" cy="394" r="14" fill="#f1d4c2" opacity="0.50" />
<circle cx="288" cy="468" r="19" fill="#f1d4c2" opacity="0.44" />
<circle cx="869" cy="428" r="15" fill="#f1d4c2" opacity="0.42" />
<circle cx="712" cy="440" r="26" fill="#f1d4c2" opacity="0.43" />
<circle cx="464" cy="527" r="17" fill="#f1d4c2" opacity="0.40" />
<circle cx="532" cy="538" r="20" fill="#f1d4c2" opacity="0.57" />
<circle cx="411" cy="77" r="20" fill="#f1d4c2" opacity="0.37" />
<circle cx="865" cy="563" r="21" fill="#f1d4c2" opacity="0.52" />
<circle cx="228" cy="126" r="17" fill="#f1d4c2" opacity="0.45" />
<circle cx="494" cy="317" r="25" fill="#f1d4c2" opacity="0.37" />
<circle cx="333" cy="456" r="28" fill="#f1d4c2" opacity="0.47" />
<circle cx="498" cy="237" r="23" fill="#f1d4c2" opacity="0.38" />
<circle cx="500" cy="14" r="23" fill="#f1d4c2" opacity="0.41" />
<circle cx="16" cy="57" r="24" fill="#f1d4c2" opacity="0.42" />
<circle cx="13" cy="421" r="18" fill="#f1d4c2" opacity="0.52" />
<circle cx="438" cy="293" r="23" fill="#f1d4c2" opacity="0.40" />
<circle cx="487" cy="47" r="25" fill="#f1d4c2" opacity="0.43" />
<circle cx="737" cy="316" r="25" fill="#f1d4c2" opacity="0.50" />
<circle cx="836" cy="100" r="21" fill="#f1d4c2" opacity="0.47" />
<circle cx="226" cy="398" r="16" fill="#f1d4c2" opacity="0.36" />
<circle cx="785" cy="386" r="16" fill="#f1d4c2" opacity="0.59" />
<circle cx="208" cy="189" r="18" fill="#f1d4c2" opacity="0.56" />
<circle cx="774" cy="239" r="29" fill="#f1d4c2" opacity="0.55" />
<circle cx="886" cy="540" r="18" fill="#f1d4c2" opacity="0.49" />
<circle cx="402" cy="576" r="15" fill="#f1d4c2" opacity="0.56" />
<circle cx="523" cy="57" r="24" fill="#f1d4c2" opacity="0.48" />
<circle cx="409" cy="23" r="16" fill="#f1d4c2" opacity="0.38" />
<circle cx="417" cy="145" r="29" fill="#f1d4c2" opacity="0.54" />
<circle cx="139" cy="157" r="21" fill="#f1d4c2" opacity="0.46" />
<circle cx="75" cy="599" r="27" fill="#f1d4c2" opacity="0.37" />
<circle cx="232" cy="117" r="19" fill="#f1d4c2" opacity="0.57" />
<circle cx="161" cy="107" r="23" fill="#f1d4c2" opacity="0.38" />
<circle cx="851" cy="354" r="26" fill="#f1d4c2" opacity="0.39" />
<circle cx="817" cy="208" r="27" fill="#f1d4c2" opacity="0.48" />
<circle cx="36" cy="265" r="19" fill="#f1d4c2" opacity="0.36" />
<circle cx="549" cy="13" r="14" fill="#f1d4c2" opacity="0.46" />
<circle cx="238" cy="69" r="16" fill="#f1d4c2" opacity="0.46" />
<circle cx="708" cy="457" r="8" fill="#f1d4c2" opacity="0.57" />
<circle cx="470" cy="548" r="21" fill="#f1d4c2" opacity="0.37" />
<circle cx="460" cy="591" r="13" fill="#f1d4c2" opacity="0.35" />
<circle cx="455" cy="449" r="19" fill="#f1d4c2" opacity="0.46" />
<circle cx="311" cy="110" r="10" fill="#f1d4c2" opacity="0.56" />
<circle cx="309" cy="316" r="20" fill="#f1d4c2" opacity="0.43" />
<circle cx="818" cy="111" r="13" fill="#f1d4c2" opacity="0.40" />
<circle cx="791" cy="571" r="20" fill="#f1d4c2" opacity="0.40" />
<circle cx="146" cy="268" r="11" fill="#f1d4c2" opacity="0.55" />
<circle cx="251" cy="520" r="20" fill="#f1d4c2" opacity="0.59" />
<circle cx="490" cy="503" r="24" fill="#f1d4c2" opacity="0.48" />
<circle cx="674" cy="476" r="18" fill="#f1d4c2" opacity="0.52" />
<circle cx="379" cy="215" r="23" fill="#f1d4c2" opacity="0.41" />
<circle cx="32" cy="428" r="22" fill="#f1d4c2" opacity="0.56" />
<circle cx="644" cy="394" r="27" fill="#f1d4c2" opacity="0.41" />
<circle cx="528" cy="260" r="16" fill="#f1d4c2" opacity="0.45" />
<circle cx="491" cy="386" r="29" fill="#f1d4c2" opacity="0.42" />
<circle cx="87" cy="16" r="8" fill="#f1d4c2" opacity="0.56" />
<circle cx="409" cy="287" r="11" fill="#f1d4c2" opacity="0.60" />
<circle cx="478" cy="224" r="12" fill="#f1d4c2" opacity="0.54" />
<circle cx="320" cy="524" r="12" fill="#f1d4c2" opacity="0.55" />
<circle cx="255" cy="340" r="19" fill="#f1d4c2" opacity="0.48" />
<circle cx="178" cy="83" r="21" fill="#f1d4c2" opacity="0.44" />
<circle cx="9" cy="585" r="21" fill="#f1d4c2" opacity="0.38" />
<circle cx="477" cy="317" r="28" fill="#f1d4c2" opacity="0.44" />
<circle cx="236" cy="406" r="8" fill="#f1d4c2" opacity="0.54" />
<circle cx="591" cy="275" r="25" fill="#f1d4c2" opacity="0.47" />
<circle cx="253" cy="470" r="14" fill="#f1d4c2" opacity="0.54" />
<circle cx="368" cy="396" r="17" fill="#f1d4c2" opacity="0.59" />
<circle cx="767" cy="334" r="26" fill="#f1d4c2" opacity="0.59" />
<circle cx="48" cy="438" r="26" fill="#f1d4c2" opacity="0.37" />
<circle cx="632" cy="183" r="12" fill="#f1d4c2" opacity="0.57" />
<circle cx="4" cy="48" r="9" fill="#f1d4c2" opacity="0.60" />
<circle cx="302" cy="500" r="21" fill="#f1d4c2" opacity="0.43" />
<circle cx="369" cy="182" r="9" fill="#f1d4c2" opacity="0.45" />
<circle cx="447" cy="158" r="21" fill="#f1d4c2" opacity="0.54" />
<circle cx="881" cy="588" r="8" fill="#f1d4c2" opacity="0.56" />
<circle cx="328" cy="319" r="14" fill="#f1d4c2" opacity="0.50" />
<circle cx="645" cy="206" r="27" fill="#f1d4c2" opacity="0.57" />
<circle cx="866" cy="302" r="11" fill="#f1d4c2" opacity="0.40" />
<circle cx="416" cy="41" r="8" fill="#f1d4c2" opacity="0.50" />
<circle cx="217" cy="400" r="28" fill="#f1d4c2" opacity="0.44" />
<circle cx="793" cy="124" r="9" fill="#f1d4c2" opacity="0.49" />
<circle cx="722" cy="201" r="22" fill="#f1d4c2" opacity="0.55" />
<circle cx="452" cy="410" r="8" fill="#f1d4c2" opacity="0.43" />
<circle cx="795" cy="177" r="28" fill="#f1d4c2" opacity="0.54" />
<circle cx="697" cy="233" r="27" fill="#f1d4c2" opacity="0.53" />
<circle cx="151" cy="116" r="17" fill="#f1d4c2" opacity="0.36" />
<circle cx="15" cy="191" r="19" fill="#f1d4c2" opacity="0.48" />
<circle cx="760" cy="508" r="22" fill="#f1d4c2" opacity="0.56" />
<circle cx="536" cy="548" r="27" fill="#f1d4c2" opacity="0.37" />
<circle cx="314" cy="434" r="14" fill="#f1d4c2" opacity="0.38" />
<circle cx="224" cy="502" r="24" fill="#f1d4c2" opacity="0.57" />
<circle cx="638" cy="467" r="14" fill="#f1d4c2" opacity="0.38" />
<circle cx="168" cy="359" r="27" fill="#f1d4c2" opacity="0.58" />
<circle cx="417" cy="520" r="18" fill="#f1d4c2" opacity="0.43" />
<circle cx="554" cy="317" r="12" fill="#f1d4c2" opacity="0.52" />
<circle cx="322" cy="445" r="19" fill="#f1d4c2" opacity="0.45" />
<circle cx="485" cy="475" r="27" fill="#f1d4c2" opacity="0.47" />
<circle cx="505" cy="257" r="16" fill="#f1d4c2" opacity="0.49" />
<circle cx="808" cy="205" r="19" fill="#f1d4c2" opacity="0.45" />
<circle cx="611" cy="417" r="29" fill="#f1d4c2" opacity="0.44" />
<circle cx="491" cy="297" r="16" fill="#f1d4c2" opacity="0.52" />
<circle cx="495" cy="191" r="9" fill="#f1d4c2" opacity="0.39" />
<circle cx="718" cy="306" r="12" fill="#f1d4c2" opacity="0.55" />
<circle cx="798" cy="200" r="25" fill="#f1d4c2" opacity="0.59" />
<circle cx="419" cy="457" r="11" fill="#f1d4c2" opacity="0.43" />
<circle cx="60" cy="144" r="9" fill="#f1d4c2" opacity="0.35" />
<circle cx="468" cy="366" r="11" fill="#f1d4c2" opacity="0.50" />
<circle cx="852" cy="406" r="21" fill="#f1d4c2" opacity="0.52" />
<circle cx="37" cy="389" r="23" fill="#f1d4c2" opacity="0.38" />
<circle cx="697" cy="383" r="15" fill="#f1d4c2" opacity="0.41" />
<circle cx="320" cy="144" r="29" fill="#f1d4c2" opacity="0.52" />
<circle cx="547" cy="460" r="8" fill="#f1d4c2" opacity="0.58" />
<circle cx="443" cy="282" r="18" fill="#f1d4c2" opacity="0.43" />
<circle cx="680" cy="50" r="17" fill="#f1d4c2" opacity="0.46" />
<circle cx="696" cy="70" r="24" fill="#f1d4c2" opacity="0.55" />
<circle cx="195" cy="44" r="26" fill="#f1d4c2" opacity="0.46" />
<circle cx="896" cy="105" r="7" fill="#5f4b8b" opacity="0.80" />
<circle cx="241" cy="500" r="6" fill="#5f4b8b" opacity="0.76" />
<circle cx="319" cy="559" r="10" fill="#5f4b8b" opacity="0.75" />
<circle cx="849" cy="156" r="4" fill="#5f4b8b" opacity="0.74" />
<circle cx="216" cy="384" r="9" fill="#5f4b8b" opacity="0.78" />
<circle cx="120" cy="403" r="4" fill="#5f4b8b" opacity="0.71" />
<circle cx="308" cy="511" r="4" fill="#5f4b8b" opacity="0.57" />
<circle cx="171" cy="543" r="6" fill="#5f4b8b" opacity="0.66" />
<circle cx="103" cy="287" r="6" fill="#5f4b8b" opacity="0.89" />
<circle cx="572" cy="355" r="5" fill="#5f4b8b" opacity="0.63" />
<circle cx="885" cy="196" r="3" fill="#5f4b8b" opacity="0.59" />
<circle cx="65" cy="511" r="8" fill="#5f4b8b" opacity="0.79" />
<circle cx="365" cy="185" r="9" fill="#5f4b8b" opacity="0.79" />
<circle cx="603" cy="282" r="6" fill="#5f4b8b" opacity="0.88" />
<circle cx="46" cy="339" r="5" fill="#5f4b8b" opacity="0.83" />
<circle cx="80" cy="278" r="10" fill="#5f4b8b" opacity="0.60" />
<circle cx="197" cy="458" r="7" fill="#5f4b8b" opacity="0.80" />
<circle cx="552" cy="244" r="3" fill="#5f4b8b" opacity="0.72" />
<circle cx="20" cy="536" r="6" fill="#5f4b8b" opacity="0.60" />
<circle cx="479" cy="128" r="4" fill="#5f4b8b" opacity="0.76" />
<circle cx="40" cy="207" r="4" fill="#5f4b8b" opacity="0.66" />
<circle cx="485" cy="249" r="9" fill="#5f4b8b" opacity="0.71" />
<circle cx="46" cy="401" r="3" fill="#5f4b8b" opacity="0.59" />
<circle cx="531" cy="5" r="5" fill="#5f4b8b" opacity="0.62" />
<circle cx="291" cy="336" r="9" fill="#5f4b8b" opacity="0.58" />
<circle cx="231" cy="108" r="5" fill="#5f4b8b" opacity="0.71" />
<circle cx="405" cy="292" r="7" fill="#5f4b8b" opacity="0.59" />
<circle cx="540" cy="36" r="3" fill="#5f4b8b" opacity="0.63" />
<circle cx="490" cy="265" r="3" fill="#5f4b8b" opacity="0.75" />
<circle cx="362" cy="471" r="9" fill="#5f4b8b" opacity="0.87" />
<circle cx="283" cy="469" r="8" fill="#5f4b8b" opacity="0.66" />
<circle cx="224" cy="239" r="8" fill="#5f4b8b" opacity="0.86" />
<circle cx="267" cy="338" r="3" fill="#5f4b8b" opacity="0.65" />
<circle cx="102" cy="528" r="3" fill="#5f4b8b" opacity="0.86" />
<circle cx="628" cy="266" r="4" fill="#5f4b8b" opacity="0.75" />
<circle cx="602" cy="196" r="6" fill="#5f4b8b" opacity="0.58" />
<circle cx="453" cy="470" r="11" fill="#5f4b8b" opacity="0.61" />
<circle cx="59" cy="436" r="6" fill="#5f4b8b" opacity="0.80" />
<circle cx="455" cy="242" r="10" fill="#5f4b8b" opacity="0.75" />
<circle cx="580" cy="326" r="8" fill="#5f4b8b" opacity="0.69" />
<circle cx="803" cy="178" r="8" fill="#5f4b8b" opacity="0.73" />
<circle cx="827" cy="401" r="8" fill="#5f4b8b" opacity="0.85" />
<circle cx="515" cy="554" r="10" fill="#5f4b8b" opacity="0.71" />
<circle cx="786" cy="439" r="9" fill="#5f4b8b" opacity="0.72" />
<circle cx="710" cy="576" r="9" fill="#5f4b8b" opacity="0.78" />
<circle cx="294" cy="157" r="3" fill="#5f4b8b" opacity="0.55" />
<circle cx="50" cy="302" r="5" fill="#5f4b8b" opacity="0.70" />
<circle cx="317" cy="288" r="3" fill="#5f4b8b" opacity="0.68" />
<circle cx="143" cy="578" r="4" fill="#5f4b8b" opacity="0.71" />
<circle cx="838" cy="328" r="5" fill="#5f4b8b" opacity="0.84" />
<circle cx="395" cy="96" r="6" fill="#5f4b8b" opacity="0.78" />
<circle cx="839" cy="80" r="8" fill="#5f4b8b" opacity="0.84" />
<circle cx="439" cy="87" r="7" fill="#5f4b8b" opacity="0.61" />
<circle cx="39" cy="126" r="4" fill="#5f4b8b" opacity="0.73" />
<circle cx="511" cy="492" r="9" fill="#5f4b8b" opacity="0.80" />
<circle cx="277" cy="64" r="8" fill="#5f4b8b" opacity="0.71" />
<circle cx="390" cy="590" r="6" fill="#5f4b8b" opacity="0.89" />
<circle cx="812" cy="21" r="9" fill="#5f4b8b" opacity="0.75" />
<circle cx="58" cy="62" r="9" fill="#5f4b8b" opacity="0.85" />
<circle cx="125" cy="64" r="8" fill="#5f4b8b" opacity="0.80" />
<circle cx="859" cy="518" r="8" fill="#5f4b8b" opacity="0.69" />
<circle cx="439" cy="207" r="5" fill="#5f4b8b" opacity="0.90" />
<circle cx="834" cy="10" r="11" fill="#5f4b8b" opacity="0.61" />
<circle cx="702" cy="62" r="8" fill="#5f4b8b" opacity="0.80" />
<circle cx="541" cy="430" r="9" fill="#5f4b8b" opacity="0.69" />
<circle cx="237" cy="72" r="4" fill="#5f4b8b" opacity="0.56" />
<circle cx="286" cy="102" r="4" fill="#5f4b8b" opacity="0.87" />
<circle cx="372" cy="400" r="7" fill="#5f4b8b" opacity="0.75" />
<circle cx="854" cy="595" r="10" fill="#5f4b8b" opacity="0.56" />
<circle cx="757" cy="480" r="3" fill="#5f4b8b" opacity="0.65" />
<circle cx="147" cy="186" r="6" fill="#5f4b8b" opacity="0.65" />
<circle cx="48" cy="321" r="3" fill="#5f4b8b" opacity="0.86" />
<circle cx="657" cy="521" r="4" fill="#5f4b8b" opacity="0.78" />
<circle cx="478" cy="53" r="3" fill="#5f4b8b" opacity="0.88" />
<circle cx="468" cy="381" r="6" fill="#5f4b8b" opacity="0.70" />
<circle cx="750" cy="180" r="6" fill="#5f4b8b" opacity="0.86" />
<circle cx="417" cy="243" r="7" fill="#5f4b8b" opacity="0.69" />
<circle cx="727" cy="409" r="10" fill="#5f4b8b" opacity="0.60" />
<circle cx="543" cy="205" r="9" fill="#5f4b8b" opacity="0.63" />
<circle cx="727" cy="398" r="6" fill="#5f4b8b" opacity="0.60" />
<circle cx="611" cy="599" r="5" fill="#5f4b8b" opacity="0.73" />
<circle cx="808" cy="320" r="6" fill="#5f4b8b" opacity="0.87" />
<circle cx="42" cy="432" r="10" fill="#5f4b8b" opacity="0.59" />
<circle cx="884" cy="244" r="10" fill="#5f4b8b" opacity="0.87" />
<circle cx="43" cy="412" r="3" fill="#5f4b8b" opacity="0.73" />
<circle cx="339" cy="240" r="11" fill="#5f4b8b" opacity="0.60" />
<circle cx="786" cy="155" r="8" fill="#5f4b8b" opacity="0.76" />
<circle cx="722" cy="373" r="7" fill="#5f4b8b" opacity="0.80" />
<circle cx="247" cy="283" r="9" fill="#5f4b8b" opacity="0.84" />
<circle cx="15" cy="152" r="3" fill="#5f4b8b" opacity="0.63" />
<circle cx="213" cy="543" r="9" fill="#5f4b8b" opacity="0.82" />
<circle cx="754" cy="414" r="5" fill="#5f4b8b" opacity="0.57" />
<circle cx="246" cy="39" r="3" fill="#5f4b8b" opacity="0.89" />
<circle cx="245" cy="335" r="9" fill="#5f4b8b" opacity="0.58" />
<circle cx="774" cy="170" r="3" fill="#5f4b8b" opacity="0.63" />
<circle cx="876" cy="109" r="4" fill="#5f4b8b" opacity="0.74" />
<circle cx="481" cy="30" r="7" fill="#5f4b8b" opacity="0.60" />
<circle cx="336" cy="159" r="10" fill="#5f4b8b" opacity="0.72" />
<circle cx="743" cy="209" r="3" fill="#5f4b8b" opacity="0.77" />
<circle cx="86" cy="578" r="5" fill="#5f4b8b" opacity="0.55" />
<circle cx="823" cy="473" r="5" fill="#5f4b8b" opacity="0.77" />
<circle cx="216" cy="339" r="9" fill="#5f4b8b" opacity="0.75" />
<circle cx="9" cy="222" r="8" fill="#5f4b8b" opacity="0.81" />
<circle cx="332" cy="277" r="4" fill="#5f4b8b" opacity="0.84" />
<circle cx="304" cy="119" r="10" fill="#5f4b8b" opacity="0.72" />
<circle cx="356" cy="121" r="6" fill="#5f4b8b" opacity="0.88" />
<circle cx="613" cy="436" r="9" fill="#5f4b8b" opacity="0.88" />
<line x1="672" y1="383" x2="714" y2="390" stroke="#c17c74" stroke-width="1.45" opacity="0.2" />
<line x1="795" y1="432" x2="835" y2="485" stroke="#c17c74" stroke-width="2.96" opacity="0.2" />
<line x1="619" y1="553" x2="671" y2="580" stroke="#c17c74" stroke-width="2.24" opacity="0.2" />
<line x1="536" y1="528" x2="517" y2="573" stroke="#c17c74" stroke-width="1.88" opacity="0.2" />
<line x1="29" y1="177" x2="18" y2="138" stroke="#c17c74" stroke-width="2.59" opacity="0.2" />
<line x1="67" y1="216" x2="110" y2="158" stroke="#c17c74" stroke-width="1.68" opacity="0.2" />
<line x1="551" y1="90" x2="558" y2="64" stroke="#c17c74" stroke-width="3.14" opacity="0.2" />
<line x1="353" y1="82" x2="334" y2="68" stroke="#c17c74" stroke-width="2.32" opacity="0.2" />
<line x1="196" y1="24" x2="145" y2="68" stroke="#c17c74" stroke-width="1.39" opacity="0.2" />
<line x1="330" y1="185" x2="376" y2="174" stroke="#c17c74" stroke-width="1.28" opacity="0.2" />
<line x1="370" y1="423" x2="365" y2="364" stroke="#c17c74" stroke-width="2.41" opacity="0.2" />
<line x1="246" y1="439" x2="187" y2="441" stroke="#c17c74" stroke-width="2.90" opacity="0.2" />
<line x1="630" y1="32" x2="584" y2="34" stroke="#c17c74" stroke-width="3.25" opacity="0.2" />
<line x1="763" y1="576" x2="722" y2="530" stroke="#c17c74" stroke-width="3.06" opacity="0.2" />
<line x1="151" y1="31" x2="100" y2="52" stroke="#c17c74" stroke-width="2.83" opacity="0.2" />
<line x1="436" y1="244" x2="432" y2="264" stroke="#c17c74" stroke-width="2.54" opacity="0.2" />
<line x1="390" y1="121" x2="337" y2="117" stroke="#c17c74" stroke-width="1.80" opacity="0.2" />
<line x1="885" y1="506" x2="915" y2="499" stroke="#c17c74" stroke-width="3.10" opacity="0.2" />
<line x1="261" y1="322" x2="315" y2="313" stroke="#c17c74" stroke-width="2.54" opacity="0.2" />
<line x1="649" y1="353" x2="640" y2="356" stroke="#c17c74" stroke-width="2.44" opacity="0.2" />
<line x1="46" y1="190" x2="-1" y2="221" stroke="#c17c74" stroke-width="1.14" opacity="0.2" />
<line x1="20" y1="2" x2="11" y2="15" stroke="#c17c74" stroke-width="2.78" opacity="0.2" />
<line x1="860" y1="191" x2="887" y2="203" stroke="#c17c74" stroke-width="3.40" opacity="0.2" />
<line x1="226" y1="593" x2="201" y2="639" stroke="#c17c74" stroke-width="2.72" opacity="0.2" />
<line x1="733" y1="78" x2="710" y2="90" stroke="#c17c74" stroke-width="1.83" opacity="0.2" />
<line x1="124" y1="220" x2="90" y2="242" stroke="#c17c74" stroke-width="1.22" opacity="0.2" />
<line x1="878" y1="2" x2="901" y2="46" stroke="#c17c74" stroke-width="3.08" opacity="0.2" />
<line x1="238" y1="279" x2="218" y2="271" stroke="#c17c74" stroke-width="2.28" opacity="0.2" />
<line x1="202" y1="416" x2="206" y2="371" stroke="#c17c74" stroke-width="2.18" opacity="0.2" />
<line x1="674" y1="292" x2="715" y2="303" stroke="#c17c74" stroke-width="2.36" opacity="0.2" />
</svg>