<?xml version="1.0" encoding="UTF-8"?>
<svg xmlns="http://www.w3.org/2000/svg" width="900" height="600" viewBox="0 0 900 600">
<rect width="100%" height="100%" fill="#f5ebe0" />
<circle cx="603" cy="154" r="29" fill="#f1d4c2" opacity="0.51" />
<circle cx="465" cy="41" r="19" fill="#f1d4c2" opacity="0.50" />
<circle cx="505" cy="523" r="19" fill="#f1d4c2" opacity="0.42" />
<circle cx="203" cy="276" r="26" fill="#f1d4c2" opacity="0.47" />
<circle cx="506" cy="78" r="8" fill="#f1d4c2" opacity="0.41" />
<circle cx="66" cy="394" r="27" fill="#f1d4c2" opacity="0.39" />
<circle cx="528" cy="577" r="21" fill="#f1d4c2" opacity="0.52" />
<circle cx="849" cy="262" r="26" fill="#f1d4c2" opacity="0.58" />
<circle cx="65" cy="182" r="12" fill="#f1d4c2" opacity="0.35" />
<circle cx="201" cy="532" r="25" fill="#f1d4c2" opacity="0.37" />
<circle cx="644" cy="548" r="10" fill="#f1d4c2" opacity="0.55" />
<circle cx="55" cy="496" r="29" fill="#f1d4c2" opacity="0.38" />
<circle cx="556" cy="255" r="19" fill="#f1d4c2" opacity="0.38" />
<circle cx="391" cy="547" r="27" fill="#f1d4c2" opacity="0.52" />
<circle cx="653" cy="279" r="13" fill="#f1d4c2" opacity="0.39" />
<circle cx="0" cy="143" r="26" fill="#f1d4c2" opacity="0.60" />
<circle cx="523" cy="135" r="24" fill="#f1d4c2" opacity="0.55" />
<circle cx="759" cy="260" r="14" fill="#f1d4c2" opacity="0.47" />
<circle cx="245" cy="517" r="12" fill="#f1d4c2" opacity="0.37" />
<circle cx="38" cy="277" r="29" fill="#f1d4c2" opacity="0.39" />
<circle cx="846" cy="169" r="16" fill="#f1d4c2" opacity="0.55" />
<circle cx="159" cy="286" r="19" fill="#f1d4c2" opacity="0.36" />
<circle cx="176" cy="314" r="8" fill="#f1d4c2" opacity="0.53" />
<circle cx="366" cy="213" r="17" fill="#f1d4c2" opacity="0.54" />
<circle cx="266" cy="467" r="26" fill="#f1d4c2" opacity="0.57" />
<circle cx="430" cy="501" r="23" fill="#f1d4c2" opacity="0.42" />
<circle cx="691" cy="81" r="24" fill="#f1d4c2" opacity="0.37" />
<circle cx="407" cy="508" r="9" fill="#f1d4c2" opacity="0.37" />
<circle cx="493" cy="595" r="21" fill="#f1d4c2" opacity="0.53" />
<circle cx="587" cy="599" r="12" fill="#f1d4c2" opacity="0.35" />
<circle cx="472" cy="271" r="19" fill="#f1d4c2" opacity="0.45" />
<circle cx="407" cy="224" r="26" fill="#f1d4c2" opacity="0.48" />
<circle cx="81" cy="583" r="8" fill="#f1d4c2" opacity="0.44" />
<circle cx="734" cy="437" r="16" fill="#f1d4c2" opacity="0.59" />
<circle cx="17" cy="310" r="9" fill="#f1d4c2" opacity="0.59" />
<circle cx="689" cy="571" r="26" fill="#f1d4c2" opacity="0.54" />
<circle cx="661" cy="219" r="27" fill="#f1d4c2" opacity="0.47" />
<circle cx="200" cy="225" r="20" fill="#f1d4c2" opacity="0.51" />
<circle cx="215" cy="451" r="12" fill="#f1d4c2" opacity="0.57" />
<circle cx="539" cy="125" r="25" fill="#f1d4c2" opacity="0.49" />
<circle cx="868" cy="126" r="26" fill="#f1d4c2" opacity="0.37" />
<circle cx="600" cy="138" r="19" fill="#f1d4c2" opacity="0.41" />
<circle cx="570" cy="365" r="29" fill="#f1d4c2" opacity="0.60" />
<circle cx="612" cy="461" r="26" fill="#f1d4c2" opacity="0.45" />
<circle cx="716" cy="46" r="9" fill="#f1d4c2" opacity="0.38" />
<circle cx="359" cy="230" r="9" fill="#f1d4c2" opacity="0.56" />
<circle cx="359" cy="485" r="19" fill="#f1d4c2" opacity="0.58" />
<circle cx="862" cy="302" r="18" fill="#f1d4c2" opacity="0.59" />
<circle cx="761" cy="49" r="26" fill="#f1d4c2" opacity="0.51" />
<circle cx="37" cy="141" r="27" fill="#f1d4c2" opacity="0.41" />
<circle cx="202" cy="585" r="20" fill="#f1d4c2" opacity="0.57" />
<circle cx="316" cy="300" r="8" fill="#f1d4c2" opacity="0.35" />
<circle cx="832" cy="187" r="27" fill="#f1d4c2" opacity="0.44" />
<circle cx="27" cy="343" r="17" fill="#f1d4c2" opacity="0.47" />
<circle cx="741" cy="185" r="17" fill="#f1d4c2" opacity="0.50" />
<circle cx="514" cy="118" r="13" fill="#f1d4c2" opacity="0.56" />
<circle cx="258" cy="279" r="20" fill="#f1d4c2" opacity="0.46" />
<circle cx="824" cy="408" r="9" fill="#f1d4c2" opacity="0.54" />
<circle cx="225" cy="303" r="25" fill="#f1d4c2" opacity="0.54" />
<circle cx="158" cy="49" r="17" fill="#f1d4c2" opacity="0.47" />
<circle cx="316" cy="155" r="27" fill="#f1d4c2" opacity="0.55" />
<circle cx="576" cy="219" r="8" fill="#f1d4c2" opacity="0.53" />
<circle cx="623" cy="184" r="24" fill="#f1d4c2" opacity="0.40" />
<circle cx="761" cy="175" r="23" fill="#f1d4c2" opacity="0.56" />
<circle cx="457" cy="98" r="24" fill="#f1d4c2" opacity="0.56" />
<circle cx="741" cy="127" r="19" fill="#f1d4c2" opacity="0.49" />
<circle cx="177" cy="397" r="23" fill="#f1d4c2" opacity="0.43" />
<circle cx="756" cy="409" r="25" fill="#f1d4c2" opacity="0.60" />
<circle cx="369" cy="70" r="23" fill="#f1d4c2" opacity="0.58" />
<circle cx="563" cy="257" r="22" fill="#f1d4c2" opacity="0.44" />
<circle cx="844" cy="322" r="13" fill="#f1d4c2" opacity="0.38" />
<circle cx="203" cy="474" r="18" fill="#f1d4c2" opacity="0.36" />
<circle cx="493" cy="119" r="21" fill="#f1d4c2" opacity="0.41" />
<circle cx="146" cy="76" r="8" fill="#f1d4c2" opacity="0.47" />
<circle cx="488" cy="147" r="23" fill="#f1d4c2" opacity="0.51" />
<circle cx="501" cy="310" r="17" fill="#f1d4c2" opacity="0.36" />
<circle cx="532" cy="475" r="8" fill="#f1d4c2" opacity="0.58" />
<circle cx="299" cy="416" r="12" fill="#f1d4c2" opacity="0.52" />
<circle cx="538" cy="331" r="23" fill="#f1d4c2" opacity="0.38" />
<circle cx="193" cy="165" r="25" fill="#f1d4c2" opacity="0.40" />
<circle cx="891" cy="7" r="13" fill="#f1d4c2" opacity="0.47" />
<circle cx="335" cy="392" r="12" fill="#f1d4c2" opacity="0.43" />
<circle cx="609" cy="285" r="27" fill="#f1d4c2" opacity="0.54" />
<circle cx="150" cy="114" r="27" fill="#f1d4c2" opacity="0.36" />
<circle cx="133" cy="404" r="28" fill="#f1d4c2" opacity="0.45" />
<circle cx="39" cy="358" r="9" fill="#f1d4c2" opacity="0.47" />
<circle cx="505" cy="68" r="22" fill="#f1d4c2" opacity="0.49" />
<circle cx="696" cy="295" r="16" fill="#f1d4c2" opacity="0.45" />
<circle cx="799" cy="476" r="21" fill="#f1d4c2" opacity="0.58" />
<circle cx="378" cy="493" r="25" fill="#f1d4c2" opacity="0.37" />
<circle cx="469" cy="397" r="26" fill="#f1d4c2" opacity="0.59" />
<circle cx="613" cy="527" r="8" fill="#f1d4c2" opacity="0.58" />
<circle cx="715" cy="192" r="18" fill="#f1d4c2" opacity="0.37" />
<circle cx="28" cy="159" r="18" fill="#f1d4c2" opacity="0.35" />
<circle cx="644" cy="182" r="9" fill="#f1d4c2" opacity="0.48" />
<circle cx="843" cy="565" r="24" fill="#f1d4c2" opacity="0.43" />
<circle cx="868" cy="227" r="8" fill="#f1d4c2" opacity="0.38" />
<circle cx="21" cy="35" r="20" fill="#f1d4c2" opacity="0.47" />
<circle cx="609" cy="120" r="14" fill="#f1d4c2" opacity="0.44" />
<circle cx="193" cy="297" r="29" fill="#f1d4c2" opacity="0.53" />
<circle cx="233" cy="293" r="29" fill="#f1d4c2" opacity="0.49" />
<circle cx="198" cy="16" r="9" fill="#f1d4c2" opacity="0.58" />
<circle cx="872" cy="206" r="18" fill="#f1d4c2" opacity="0.36" />
<circle cx="628" cy="272" r="14" fill="#f1d4c2" opacity="0.56" />
<circle cx="572" cy="585" r="15" fill="#f1d4c2" opacity="0.60" />
<circle cx="837" cy="439" r="28" fill="#f1d4c2" opacity="0.40" />
<circle cx="503" cy="117" r="11" fill="#f1d4c2" opacity="0.45" />
<circle cx="398" cy="296" r="10" fill="#f1d4c2" opacity="0.48" />
<circle cx="471" cy="420" r="21" fill="#f1d4c2" opacity="0.36" />
<circle cx="648" cy="95" r="12" fill="#f1d4c2" opacity="0.55" />
<circle cx="145" cy="16" r="10" fill="#f1d4c2" opacity="0.44" />
<circle cx="749" cy="295" r="14" fill="#f1d4c2" opacity="0.38" />
<circle cx="33" cy="135" r="8" fill="#f1d4c2" opacity="0.51" />
<circle cx="763" cy="526" r="21" fill="#f1d4c2" opacity="0.37" />
<circle cx="799" cy="360" r="8" fill="#f1d4c2" opacity="0.42" />
<circle cx="496" cy="290" r="15" fill="#f1d4c2" opacity="0.57" />
<circle cx="366" cy="112" r="22" fill="#f1d4c2" opacity="0.37" />
<circle cx="569" cy="389" r="16" fill="#f1d4c2" opacity="0.50" />
<circle cx="192" cy="106" r="23" fill="#f1d4c2" opacity="0.49" />
<circle cx="422" cy="598" r="11" fill="#f1d4c2" opacity="0.52" />
<circle cx="647" cy="557" r="26" fill="#f1d4c2" opacity="0.52" />
<circle cx="270" cy="248" r="13" fill="#f1d4c2" opacity="0.39" />
<circle cx="20" cy="477" r="25" fill="#f1d4c2" opacity="0.59" />
<circle cx="464" cy="288" r="17" fill="#f1d4c2" opacity="0.58" />
<circle cx="304" cy="412" r="14" fill="#f1d4c2" opacity="0.43" />
<circle cx="164" cy="196" r="20" fill="#f1d4c2" opacity="0.38" />
<circle cx="496" cy="458" r="24" fill="#f1d4c2" opacity="0.55" />
<circle cx="632" cy="433" r="29" fill="#f1d4c2" opacity="0.53" />
<circle cx="690" cy="147" r="25" fill="#f1d4c2" opacity="0.41" />
<circle cx="658" cy="519" r="14" fill="#f1d4c2" opacity="0.43" />
<circle cx="434" cy="17" r="18" fill="#f1d4c2" opacity="0.60" />
<circle cx="325" cy="38" r="23" fill="#f1d4c2" opacity="0.41" />
<circle cx="583" cy="253" r="8" fill="#f1d4c2" opacity="0.48" />
<circle cx="376" cy="489" r="8" fill="#f1d4c2" opacity="0.36" />
<circle cx="503" cy="385" r="9" fill="#f1d4c2" opacity="0.57" />
<circle cx="548" cy="32" r="17" fill="#f1d4c2" opacity="0.39" />
<circle cx="364" cy="344" r="28" fill="#f1d4c2" opacity="0.45" />
<circle cx="87" cy="407" r="15" fill="#f1d4c2" opacity="0.48" />
<circle cx="888" cy="499" r="10" fill="#f1d4c2" opacity="0.40" />
<circle cx="384" cy="66" r="8" fill="#f1d4c2" opacity="0.57" />
<circle cx="523" cy="365" r="4" fill="#5f4b8b" opacity="0.68" />
<circle cx="590" cy="220" r="11" fill="#5f4b8b" opacity="0.88" />
<circle cx="853" cy="246" r="3" fill="#5f4b8b" opacity="0.59" />
<circle cx="214" cy="314" r="11" fill="#5f4b8b" opacity="0.73" />
<circle cx="689" cy="380" r="6" fill="#5f4b8b" opacity="0.88" />
<circle cx="278" cy="518" r="3" fill="#5f4b8b" opacity="0.60" />
<circle cx="398" cy="127" r="3" fill="#5f4b8b" opacity="0.59" />
<circle cx="597" cy="325" r="4" fill="#5f4b8b" opacity="0.85" />
<circle cx="657" cy="352" r="8" fill="#5f4b8b" opacity="0.89" />
<circle cx="5" cy="294" r="9" fill="#5f4b8b" opacity="0.84" />
<circle cx="624" cy="111" r="3" fill="#5f4b8b" opacity="0.60" />
<circle cx="228" cy="118" r="3" fill="#5f4b8b" opacity="0.79" />
<circle cx="269" cy="337" r="7" fill="#5f4b8b" opacity="0.73" />
<circle cx="839" cy="212" r="9" fill="#5f4b8b" opacity="0.88" />
<circle cx="197" cy="262" r="11" fill="#5f4b8b" opacity="0.70" />
<circle cx="306" cy="248" r="8" fill="#5f4b8b" opacity="0.70" />
<circle cx="402" cy="41" r="7" fill="#5f4b8b" opacity="0.74" />
<circle cx="181" cy="206" r="9" fill="#5f4b8b" opacity="0.65" />
<circle cx="106" cy="211" r="5" fill="#5f4b8b" opacity="0.84" />
<circle cx="109" cy="88" r="6" fill="#5f4b8b" opacity="0.78" />
<circle cx="105" cy="91" r="6" fill="#5f4b8b" opacity="0.83" />
<circle cx="177" cy="146" r="7" fill="#5f4b8b" opacity="0.86" />
<circle cx="360" cy="211" r="6" fill="#5f4b8b" opacity="0.59" />
<circle cx="538" cy="542" r="3" fill="#5f4b8b" opacity="0.88" />
<circle cx="18" cy="14" r="3" fill="#5f4b8b" opacity="0.72" />
<circle cx="356" cy="565" r="6" fill="#5f4b8b" opacity="0.85" />
<circle cx="393" cy="13" r="11" fill="#5f4b8b" opacity="0.79" />
<circle cx="244" cy="100" r="7" fill="#5f4b8b" opacity="0.90" />
<circle cx="147" cy="454" r="3" fill="#5f4b8b" opacity="0.69" />
<circle cx="735" cy="140" r="3" fill="#5f4b8b" opacity="0.69" />
<circle cx="568" cy="389" r="4" fill="#5f4b8b" opacity="0.79" />
<circle cx="485" cy="56" r="6" fill="#5f4b8b" opacity="0.64" />
<circle cx="46" cy="281" r="8" fill="#5f4b8b" opacity="0.56" />
<circle cx="672" cy="540" r="7" fill="#5f4b8b" opacity="0.76" />
<circle cx="100" cy="304" r="5" fill="#5f4b8b" opacity="0.57" />
<circle cx="392" cy="570" r="10" fill="#5f4b8b" opacity="0.64" />
<circle cx="542" cy="25" r="3" fill="#5f4b8b" opacity="0.63" />
<circle cx="144" cy="222" r="9" fill="#5f4b8b" opacity="0.55" />
<circle cx="554" cy="143" r="9" fill="#5f4b8b" opacity="0.56" />
<circle cx="350" cy="14" r="6" fill="#5f4b8b" opacity="0.65" />
<circle cx="541" cy="89" r="11" fill="#5f4b8b" opacity="0.57" />
<circle cx="577" cy="317" r="10" fill="#5f4b8b" opacity="0.58" />
<circle cx="226" cy="95" r="3" fill="#5f4b8b" opacity="0.59" />
<circle cx="806" cy="193" r="6" fill="#5f4b8b" opacity="0.67" />
<circle cx="836" cy="22" r="6" fill="#5f4b8b" opacity="0.69" />
<circle cx="685" cy="135" r="9" fill="#5f4b8b" opacity="0.80" />
<circle cx="172" cy="355" r="10" fill="#5f4b8b" opacity="0.80" />
<circle cx="389" cy="187" r="3" fill="#5f4b8b" opacity="0.65" />
<circle cx="595" cy="583" r="8" fill="#5f4b8b" opacity="0.75" />
<circle cx="68" cy="83" r="9" fill="#5f4b8b" opacity="0.80" />
<circle cx="296" cy="61" r="8" fill="#5f4b8b" opacity="0.73" />
<circle cx="847" cy="163" r="11" fill="#5f4b8b" opacity="0.62" />
<circle cx="788" cy="400" r="11" fill="#5f4b8b" opacity="0.77" />
<circle cx="648" cy="122" r="5" fill="#5f4b8b" opacity="0.85" />
<circle cx="75" cy="302" r="5" fill="#5f4b8b" opacity="0.58" />
<circle cx="191" cy="9" r="10" fill="#5f4b8b" opacity="0.68" />
<circle cx="804" cy="536" r="10" fill="#5f4b8b" opacity="0.89" />
<circle cx="656" cy="272" r="4" fill="#5f4b8b" opacity="0.72" />
<circle cx="11" cy="356" r="3" fill="#5f4b8b" opacity="0.81" />
<circle cx="118" cy="335" r="9" fill="#5f4b8b" opacity="0.73" />
<circle cx="259" cy="456" r="7" fill="#5f4b8b" opacity="0.90" />
<circle cx="479" cy="235" r="10" fill="#5f4b8b" opacity="0.68" />
<circle cx="373" cy="546" r="5" fill="#5f4b8b" opacity="0.55" />
<circle cx="682" cy="296" r="7" fill="#5f4b8b" opacity="0.82" />
<circle cx="3" cy="232" r="3" fill="#5f4b8b" opacity="0.74" />
<circle cx="899" cy="289" r="4" fill="#5f4b8b" opacity="0.90" />
<circle cx="368" cy="295" r="4" fill="#5f4b8b" opacity="0.77" />
<circle cx="196" cy="363" r="5" fill="#5f4b8b" opacity="0.89" />
<circle cx="72" cy="189" r="4" fill="#5f4b8b" opacity="0.61" />
<circle cx="796" cy="75" r="9" fill="#5f4b8b" opacity="0.64" />
<circle cx="198" cy="35" r="7" fill="#5f4b8b" opacity="0.80" />
<circle cx="852" cy="143" r="9" fill="#5f4b8b" opacity="0.70" />
<circle cx="428" cy="445" r="3" fill="#5f4b8b" opacity="0.79" />
<circle cx="63" cy="428" r="6" fill="#5f4b8b" opacity="0.84" />
<circle cx="450" cy="558" r="5" fill="#5f4b8b" opacity="0.62" />
<circle cx="700" cy="558" r="3" fill="#5f4b8b" opacity="0.69" />
<circle cx="277" cy="252" r="3" fill="#5f4b8b" opacity="0.82" />
<circle cx="555" cy="534" r="3" fill="#5f4b8b" opacity="0.81" />
<circle cx="585" cy="284" r="7" fill="#5f4b8b" opacity="0.64" />
<line x1="86" y1="89" x2="128" y2="99" stroke="#c17c74" stroke-width="2.04" opacity="0.2" />
<line x1="889" y1="39" x2="895" y2="92" stroke="#c17c74" stroke-width="2.79" opacity="0.2" />
<line x1="411" y1="443" x2="390" y2="440" stroke="#c17c74" stroke-width="2.86" opacity="0.2" />
<line x1="636" y1="270" x2="680" y2="251" stroke="#c17c74" stroke-width="1.90" opacity="0.2" />
<line x1="90" y1="183" x2="35" y2="133" stroke="#c17c74" stroke-width="1.62" opacity="0.2" />
<line x1="553" y1="104" x2="533" y2="89" stroke="#c17c74" stroke-width="1.73" opacity="0.2" />
<line x1="780" y1="294" x2="821" y2="276" stroke="#c17c74" stroke-width="3.12" opacity="0.2" />
<line x1="245" y1="327" x2="204" y2="349" stroke="#c17c74" stroke-width="3.01" opacity="0.2" />
<line x1="307" y1="550" x2="307" y2="579" stroke="#c17c74" stroke-width="1.63" opacity="0.2" />
<line x1="583" y1="34" x2="566" y2="63" stroke="#c17c74" stroke-width="1.41" opacity="0.2" />
<line x1="858" y1="259" x2="872" y2="235" stroke="#c17c74" stroke-width="1.34" opacity="0.2" />
<line x1="725" y1="257" x2="771" y2="197" stroke="#c17c74" stroke-width="2.38" opacity="0.2" />
<line x1="778" y1="512" x2="719" y2="496" stroke="#c17c74" stroke-width="1.74" opacity="0.2" />
<line x1="605" y1="540" x2="556" y2="540" stroke="#c17c74" stroke-width="1.81" opacity="0.2" />
<line x1="16" y1="396" x2="20" y2="449" stroke="#c17c74" stroke-width="1.87" opacity="0.2" />
<line x1="452" y1="325" x2="462" y2="286" stroke="#c17c74" stroke-width="2.54" opacity="0.2" />
<line x1="515" y1="172" x2="490" y2="164" stroke="#c17c74" stroke-width="2.03" opacity="0.2" />
<line x1="530" y1="471" x2="530" y2="521" stroke="#c17c74" stroke-width="2.01" opacity="0.2" />
<line x1="885" y1="104" x2="840" y2="136" stroke="#c17c74" stroke-width="2.62" opacity="0.2" />
<line x1="359" y1="237" x2="400" y2="268" stroke="#c17c74" stroke-width="2.50" opacity="0.2" />
<line x1="514" y1="7" x2="554" y2="61" stroke="#c17c74" stroke-width="3.32" opacity="0.2" />
<line x1="189" y1="565" x2="170" y2="556" stroke="#c17c74" stroke-width="2.11" opacity="0.2" />
<line x1="302" y1="312" x2="308" y2="339" stroke="#c17c74" stroke-width="1.36" opacity="0.2" />
<line x1="387" y1="542" x2="433" y2="600" stroke="#c17c74" stroke-width="1.38" opacity="0.2" />
<line x1="144" y1="496" x2="128" y2="485" stroke="#c17c74" stroke-width="1.42" opacity="0.2" />
<line x1="536" y1="31" x2="539" y2="71" stroke="#c17c74" stroke-width="1.59" opacity="0.2" />
<line x1="379" y1="253" x2="431" y2="261" stroke="#c17c74" stroke-width="2.53" opacity="0.2" />
<line x1="583" y1="14" x2="539" y2="7" stroke="#c17c74" stroke-width="2.41" opacity="0.2" />
<line x1="356" y1="25" x2="413" y2="30" stroke="#c17c74" stroke-width="1.81" opacity="0.2" />
<line x1="490" y1="48" x2="462" y2="46" stroke="#c17c74" stroke-width="2.83" opacity="0.2" />
</svg>