<?xml version="1.0" encoding="UTF-8"?>
<svg xmlns="http://www.w3.org/2000/svg" width="900" height="600" viewBox="0 0 900 600">
<rect width="100%" height="100%" fill="#f7f0e8" />
<circle cx="59" cy="106" r="20" fill="#f0d2c0" opacity="0.56" />
<circle cx="126" cy="171" r="9" fill="#f0d2c0" opacity="0.36" />
<circle cx="891" cy="454" r="21" fill="#f0d2c0" opacity="0.37" />
<circle cx="857" cy="408" r="23" fill="#f0d2c0" opacity="0.55" />
<circle cx="3" cy="3" r="12" fill="#f0d2c0" opacity="0.35" />
<circle cx="686" cy="506" r="14" fill="#f0d2c0" opacity="0.53" />
<circle cx="100" cy="228" r="9" fill="#f0d2c0" opacity="0.51" />
<circle cx="163" cy="52" r="23" fill="#f0d2c0" opacity="0.49" />
<circle cx="214" cy="491" r="10" fill="#f0d2c0" opacity="0.50" />
<circle cx="392" cy="578" r="11" fill="#f0d2c0" opacity="0.59" />
<circle cx="649" cy="285" r="13" fill="#f0d2c0" opacity="0.55" />
<circle cx="451" cy="135" r="26" fill="#f0d2c0" opacity="0.54" />
<circle cx="16" cy="592" r="8" fill="#f0d2c0" opacity="0.55" />
<circle cx="338" cy="566" r="13" fill="#f0d2c0" opacity="0.41" />
<circle cx="47" cy="235" r="11" fill="#f0d2c0" opacity="0.47" />
<circle cx="828" cy="546" r="24" fill="#f0d2c0" opacity="0.56" />
<circle cx="690" cy="191" r="17" fill="#f0d2c0" opacity="0.36" />
<circle cx="448" cy="164" r="18" fill="#f0d2c0" opacity="0.44" />
<circle cx="865" cy="397" r="19" fill="#f0d2c0" opacity="0.52" />
<circle cx="111" cy="264" r="9" fill="#f0d2c0" opacity="0.55" />
<circle cx="190" cy="250" r="18" fill="#f0d2c0" opacity="0.51" />
<circle cx="79" cy="145" r="10" fill="#f0d2c0" opacity="0.49" />
<circle cx="220" cy="274" r="28" fill="#f0d2c0" opacity="0.45" />
<circle cx="262" cy="27" r="14" fill="#f0d2c0" opacity="0.36" />
<circle cx="576" cy="165" r="9" fill="#f0d2c0" opacity="0.60" />
<circle cx="710" cy="244" r="19" fill="#f0d2c0" opacity="0.45" />
<circle cx="679" cy="20" r="26" fill="#f0d2c0" opacity="0.51" />
<circle cx="333" cy="120" r="14" fill="#f0d2c0" opacity="0.52" />
<circle cx="349" cy="263" r="20" fill="#f0d2c0" opacity="0.45" />
<circle cx="114" cy="583" r="17" fill="#f0d2c0" opacity="0.42" />
<circle cx="166" cy="10" r="22" fill="#f0d2c0" opacity="0.47" />
<circle cx="97" cy="374" r="29" fill="#f0d2c0" opacity="0.56" />
<circle cx="33" cy="183" r="15" fill="#f0d2c0" opacity="0.52" />
<circle cx="559" cy="102" r="14" fill="#f0d2c0" opacity="0.42" />
<circle cx="463" cy="595" r="19" fill="#f0d2c0" opacity="0.59" />
<circle cx="299" cy="269" r="9" fill="#f0d2c0" opacity="0.55" />
<circle cx="892" cy="268" r="21" fill="#f0d2c0" opacity="0.36" />
<circle cx="139" cy="403" r="26" fill="#f0d2c0" opacity="0.46" />
<circle cx="704" cy="385" r="19" fill="#f0d2c0" opacity="0.36" />
<circle cx="449" cy="402" r="22" fill="#f0d2c0" opacity="0.42" />
<circle cx="391" cy="261" r="23" fill="#f0d2c0" opacity="0.36" />
<circle cx="712" cy="514" r="29" fill="#f0d2c0" opacity="0.49" />
<circle cx="708" cy="166" r="16" fill="#f0d2c0" opacity="0.39" />
<circle cx="286" cy="522" r="26" fill="#f0d2c0" opacity="0.40" />
<circle cx="795" cy="267" r="19" fill="#f0d2c0" opacity="0.54" />
<circle cx="817" cy="240" r="27" fill="#f0d2c0" opacity="0.41" />
<circle cx="535" cy="448" r="8" fill="#f0d2c0" opacity="0.54" />
<circle cx="764" cy="164" r="28" fill="#f0d2c0" opacity="0.48" />
<circle cx="188" cy="150" r="16" fill="#f0d2c0" opacity="0.52" />
<circle cx="316" cy="545" r="11" fill="#f0d2c0" opacity="0.50" />
<circle cx="475" cy="554" r="20" fill="#f0d2c0" opacity="0.58" />
<circle cx="48" cy="229" r="18" fill="#f0d2c0" opacity="0.47" />
<circle cx="792" cy="151" r="10" fill="#f0d2c0" opacity="0.43" />
<circle cx="83" cy="134" r="26" fill="#f0d2c0" opacity="0.59" />
<circle cx="461" cy="115" r="20" fill="#f0d2c0" opacity="0.57" />
<circle cx="77" cy="278" r="10" fill="#f0d2c0" opacity="0.50" />
<circle cx="632" cy="47" r="23" fill="#f0d2c0" opacity="0.50" />
<circle cx="619" cy="303" r="11" fill="#f0d2c0" opacity="0.60" />
<circle cx="95" cy="21" r="18" fill="#f0d2c0" opacity="0.54" />
<circle cx="632" cy="348" r="26" fill="#f0d2c0" opacity="0.56" />
<circle cx="493" cy="537" r="10" fill="#f0d2c0" opacity="0.47" />
<circle cx="439" cy="201" r="9" fill="#f0d2c0" opacity="0.49" />
<circle cx="486" cy="47" r="8" fill="#f0d2c0" opacity="0.50" />
<circle cx="450" cy="65" r="10" fill="#f0d2c0" opacity="0.58" />
<circle cx="652" cy="198" r="27" fill="#f0d2c0" opacity="0.51" />
<circle cx="141" cy="349" r="22" fill="#f0d2c0" opacity="0.45" />
<circle cx="592" cy="258" r="15" fill="#f0d2c0" opacity="0.50" />
<circle cx="251" cy="221" r="9" fill="#f0d2c0" opacity="0.50" />
<circle cx="151" cy="69" r="11" fill="#f0d2c0" opacity="0.35" />
<circle cx="505" cy="370" r="14" fill="#f0d2c0" opacity="0.49" />
<circle cx="229" cy="586" r="10" fill="#f0d2c0" opacity="0.35" />
<circle cx="400" cy="418" r="11" fill="#f0d2c0" opacity="0.43" />
<circle cx="564" cy="529" r="16" fill="#f0d2c0" opacity="0.57" />
<circle cx="207" cy="84" r="25" fill="#f0d2c0" opacity="0.38" />
<circle cx="412" cy="280" r="28" fill="#f0d2c0" opacity="0.52" />
<circle cx="372" cy="219" r="26" fill="#f0d2c0" opacity="0.47" />
<circle cx="28" cy="526" r="25" fill="#f0d2c0" opacity="0.54" />
<circle cx="375" cy="391" r="11" fill="#f0d2c0" opacity="0.48" />
<circle cx="554" cy="533" r="22" fill="#f0d2c0" opacity="0.60" />
<circle cx="380" cy="292" r="9" fill="#f0d2c0" opacity="0.59" />
<circle cx="271" cy="76" r="16" fill="#f0d2c0" opacity="0.47" />
<circle cx="270" cy="260" r="25" fill="#f0d2c0" opacity="0.35" />
<circle cx="5" cy="447" r="29" fill="#f0d2c0" opacity="0.59" />
<circle cx="279" cy="224" r="24" fill="#f0d2c0" opacity="0.55" />
<circle cx="137" cy="395" r="29" fill="#f0d2c0" opacity="0.45" />
<circle cx="897" cy="154" r="19" fill="#f0d2c0" opacity="0.36" />
<circle cx="40" cy="484" r="12" fill="#f0d2c0" opacity="0.59" />
<circle cx="746" cy="313" r="23" fill="#f0d2c0" opacity="0.41" />
<circle cx="321" cy="226" r="28" fill="#f0d2c0" opacity="0.59" />
<circle cx="330" cy="398" r="17" fill="#f0d2c0" opacity="0.39" />
<circle cx="544" cy="185" r="8" fill="#f0d2c0" opacity="0.42" />
<circle cx="806" cy="286" r="28" fill="#f0d2c0" opacity="0.59" />
<circle cx="527" cy="247" r="24" fill="#f0d2c0" opacity="0.59" />
<circle cx="345" cy="79" r="9" fill="#f0d2c0" opacity="0.37" />
<circle cx="150" cy="25" r="18" fill="#f0d2c0" opacity="0.60" />
<circle cx="128" cy="363" r="19" fill="#f0d2c0" opacity="0.41" />
<circle cx="485" cy="380" r="18" fill="#f0d2c0" opacity="0.58" />
<circle cx="840" cy="546" r="17" fill="#f0d2c0" opacity="0.41" />
<circle cx="1" cy="549" r="15" fill="#f0d2c0" opacity="0.56" />
<circle cx="141" cy="256" r="21" fill="#f0d2c0" opacity="0.51" />
<circle cx="393" cy="190" r="19" fill="#f0d2c0" opacity="0.49" />
<circle cx="575" cy="64" r="17" fill="#f0d2c0" opacity="0.52" />
<circle cx="469" cy="162" r="22" fill="#f0d2c0" opacity="0.59" />
<circle cx="121" cy="490" r="10" fill="#f0d2c0" opacity="0.51" />
<circle cx="503" cy="162" r="18" fill="#f0d2c0" opacity="0.36" />
<circle cx="666" cy="371" r="11" fill="#f0d2c0" opacity="0.40" />
<circle cx="651" cy="85" r="28" fill="#f0d2c0" opacity="0.49" />
<circle cx="764" cy="119" r="27" fill="#f0d2c0" opacity="0.44" />
<circle cx="648" cy="405" r="11" fill="#f0d2c0" opacity="0.53" />
<circle cx="251" cy="581" r="12" fill="#f0d2c0" opacity="0.54" />
<circle cx="541" cy="148" r="13" fill="#f0d2c0" opacity="0.51" />
<circle cx="392" cy="283" r="9" fill="#f0d2c0" opacity="0.44" />
<circle cx="220" cy="259" r="13" fill="#f0d2c0" opacity="0.35" />
<circle cx="626" cy="535" r="26" fill="#f0d2c0" opacity="0.55" />
<circle cx="406" cy="529" r="16" fill="#f0d2c0" opacity="0.59" />
<circle cx="684" cy="191" r="16" fill="#f0d2c0" opacity="0.48" />
<circle cx="65" cy="101" r="19" fill="#f0d2c0" opacity="0.37" />
<circle cx="266" cy="453" r="9" fill="#f0d2c0" opacity="0.40" />
<circle cx="808" cy="498" r="19" fill="#f0d2c0" opacity="0.37" />
<circle cx="544" cy="86" r="27" fill="#f0d2c0" opacity="0.57" />
<circle cx="301" cy="271" r="25" fill="#f0d2c0" opacity="0.56" />
<circle cx="704" cy="56" r="19" fill="#f0d2c0" opacity="0.38" />
<circle cx="416" cy="453" r="18" fill="#f0d2c0" opacity="0.48" />
<circle cx="635" cy="19" r="25" fill="#f0d2c0" opacity="0.44" />
<circle cx="611" cy="8" r="14" fill="#f0d2c0" opacity="0.60" />
<circle cx="591" cy="584" r="16" fill="#f0d2c0" opacity="0.45" />
<circle cx="52" cy="105" r="21" fill="#f0d2c0" opacity="0.39" />
<circle cx="340" cy="441" r="19" fill="#f0d2c0" opacity="0.53" />
<circle cx="872" cy="166" r="14" fill="#f0d2c0" opacity="0.36" />
<circle cx="250" cy="201" r="17" fill="#f0d2c0" opacity="0.40" />
<circle cx="356" cy="77" r="29" fill="#f0d2c0" opacity="0.36" />
<circle cx="494" cy="594" r="9" fill="#f0d2c0" opacity="0.55" />
<circle cx="575" cy="405" r="13" fill="#f0d2c0" opacity="0.57" />
<circle cx="568" cy="395" r="26" fill="#f0d2c0" opacity="0.59" />
<circle cx="741" cy="338" r="24" fill="#f0d2c0" opacity="0.35" />
<circle cx="366" cy="281" r="15" fill="#f0d2c0" opacity="0.49" />
<circle cx="896" cy="121" r="16" fill="#f0d2c0" opacity="0.44" />
<circle cx="315" cy="539" r="18" fill="#f0d2c0" opacity="0.60" />
<circle cx="772" cy="303" r="29" fill="#f0d2c0" opacity="0.56" />
<circle cx="192" cy="173" r="10" fill="#f0d2c0" opacity="0.42" />
<circle cx="797" cy="271" r="17" fill="#f0d2c0" opacity="0.40" />
<circle cx="663" cy="159" r="12" fill="#f0d2c0" opacity="0.50" />
<circle cx="286" cy="430" r="10" fill="#f0d2c0" opacity="0.39" />
<circle cx="735" cy="529" r="13" fill="#f0d2c0" opacity="0.50" />
<circle cx="169" cy="415" r="24" fill="#f0d2c0" opacity="0.52" />
<circle cx="109" cy="185" r="17" fill="#f0d2c0" opacity="0.49" />
<circle cx="679" cy="223" r="27" fill="#f0d2c0" opacity="0.49" />
<circle cx="660" cy="97" r="28" fill="#f0d2c0" opacity="0.43" />
<circle cx="55" cy="300" r="9" fill="#f0d2c0" opacity="0.51" />
<circle cx="597" cy="78" r="10" fill="#f0d2c0" opacity="0.42" />
<circle cx="822" cy="283" r="8" fill="#f0d2c0" opacity="0.47" />
<circle cx="532" cy="233" r="29" fill="#f0d2c0" opacity="0.47" />
<circle cx="222" cy="583" r="10" fill="#f0d2c0" opacity="0.45" />
<circle cx="297" cy="162" r="19" fill="#f0d2c0" opacity="0.57" />
<circle cx="305" cy="101" r="18" fill="#f0d2c0" opacity="0.41" />
<circle cx="820" cy="124" r="18" fill="#f0d2c0" opacity="0.51" />
<circle cx="769" cy="105" r="12" fill="#f0d2c0" opacity="0.50" />
<circle cx="234" cy="560" r="8" fill="#f0d2c0" opacity="0.58" />
<circle cx="692" cy="70" r="20" fill="#f0d2c0" opacity="0.49" />
<circle cx="416" cy="581" r="24" fill="#f0d2c0" opacity="0.39" />
<circle cx="674" cy="85" r="11" fill="#f0d2c0" opacity="0.51" />
<circle cx="408" cy="361" r="5" fill="#6f4c8b" opacity="0.82" />
<circle cx="402" cy="407" r="6" fill="#6f4c8b" opacity="0.64" />
<circle cx="220" cy="501" r="5" fill="#6f4c8b" opacity="0.74" />
<circle cx="343" cy="242" r="9" fill="#6f4c8b" opacity="0.86" />
<circle cx="453" cy="565" r="9" fill="#6f4c8b" opacity="0.71" />
<circle cx="416" cy="195" r="4" fill="#6f4c8b" opacity="0.66" />
<circle cx="379" cy="378" r="9" fill="#6f4c8b" opacity="0.71" />
<circle cx="20" cy="527" r="9" fill="#6f4c8b" opacity="0.74" />
<circle cx="361" cy="240" r="10" fill="#6f4c8b" opacity="0.57" />
<circle cx="636" cy="96" r="9" fill="#6f4c8b" opacity="0.69" />
<circle cx="58" cy="436" r="5" fill="#6f4c8b" opacity="0.76" />
<circle cx="523" cy="414" r="8" fill="#6f4c8b" opacity="0.59" />
<circle cx="119" cy="466" r="11" fill="#6f4c8b" opacity="0.56" />
<circle cx="515" cy="553" r="9" fill="#6f4c8b" opacity="0.65" />
<circle cx="500" cy="596" r="8" fill="#6f4c8b" opacity="0.68" />
<circle cx="844" cy="577" r="4" fill="#6f4c8b" opacity="0.59" />
<circle cx="150" cy="145" r="4" fill="#6f4c8b" opacity="0.79" />
<circle cx="331" cy="180" r="8" fill="#6f4c8b" opacity="0.87" />
<circle cx="382" cy="169" r="7" fill="#6f4c8b" opacity="0.68" />
<circle cx="17" cy="436" r="7" fill="#6f4c8b" opacity="0.87" />
<circle cx="573" cy="515" r="9" fill="#6f4c8b" opacity="0.76" />
<circle cx="4" cy="83" r="4" fill="#6f4c8b" opacity="0.62" />
<circle cx="313" cy="83" r="4" fill="#6f4c8b" opacity="0.86" />
<circle cx="159" cy="246" r="7" fill="#6f4c8b" opacity="0.65" />
<circle cx="578" cy="444" r="5" fill="#6f4c8b" opacity="0.85" />
<circle cx="102" cy="169" r="3" fill="#6f4c8b" opacity="0.83" />
<circle cx="401" cy="330" r="5" fill="#6f4c8b" opacity="0.63" />
<circle cx="289" cy="65" r="7" fill="#6f4c8b" opacity="0.59" />
<circle cx="115" cy="444" r="8" fill="#6f4c8b" opacity="0.72" />
<circle cx="573" cy="411" r="5" fill="#6f4c8b" opacity="0.75" />
<circle cx="16" cy="14" r="5" fill="#6f4c8b" opacity="0.89" />
<circle cx="174" cy="495" r="4" fill="#6f4c8b" opacity="0.79" />
<circle cx="164" cy="353" r="4" fill="#6f4c8b" opacity="0.83" />
<circle cx="672" cy="46" r="11" fill="#6f4c8b" opacity="0.81" />
<circle cx="576" cy="176" r="8" fill="#6f4c8b" opacity="0.62" />
<circle cx="706" cy="542" r="11" fill="#6f4c8b" opacity="0.70" />
<circle cx="176" cy="434" r="4" fill="#6f4c8b" opacity="0.65" />
<circle cx="131" cy="496" r="8" fill="#6f4c8b" opacity="0.74" />
<circle cx="839" cy="223" r="3" fill="#6f4c8b" opacity="0.57" />
<circle cx="705" cy="159" r="9" fill="#6f4c8b" opacity="0.83" />
<circle cx="453" cy="291" r="3" fill="#6f4c8b" opacity="0.76" />
<circle cx="449" cy="53" r="11" fill="#6f4c8b" opacity="0.89" />
<circle cx="211" cy="441" r="4" fill="#6f4c8b" opacity="0.81" />
<circle cx="894" cy="395" r="3" fill="#6f4c8b" opacity="0.77" />
<circle cx="386" cy="522" r="8" fill="#6f4c8b" opacity="0.63" />
<circle cx="207" cy="352" r="7" fill="#6f4c8b" opacity="0.62" />
<circle cx="159" cy="441" r="8" fill="#6f4c8b" opacity="0.74" />
<circle cx="426" cy="596" r="11" fill="#6f4c8b" opacity="0.55" />
<circle cx="698" cy="165" r="3" fill="#6f4c8b" opacity="0.68" />
<circle cx="709" cy="41" r="7" fill="#6f4c8b" opacity="0.76" />
<circle cx="43" cy="110" r="10" fill="#6f4c8b" opacity="0.89" />
<circle cx="21" cy="462" r="9" fill="#6f4c8b" opacity="0.56" />
<circle cx="53" cy="43" r="3" fill="#6f4c8b" opacity="0.79" />
<circle cx="533" cy="426" r="6" fill="#6f4c8b" opacity="0.75" />
<circle cx="241" cy="405" r="8" fill="#6f4c8b" opacity="0.77" />
<circle cx="301" cy="419" r="5" fill="#6f4c8b" opacity="0.73" />
<circle cx="540" cy="471" r="5" fill="#6f4c8b" opacity="0.82" />
<circle cx="506" cy="276" r="5" fill="#6f4c8b" opacity="0.89" />
<circle cx="568" cy="441" r="6" fill="#6f4c8b" opacity="0.64" />
<circle cx="639" cy="575" r="11" fill="#6f4c8b" opacity="0.80" />
<circle cx="230" cy="277" r="9" fill="#6f4c8b" opacity="0.75" />
<circle cx="625" cy="582" r="5" fill="#6f4c8b" opacity="0.73" />
<circle cx="259" cy="222" r="5" fill="#6f4c8b" opacity="0.68" />
<circle cx="362" cy="447" r="4" fill="#6f4c8b" opacity="0.68" />
<circle cx="817" cy="343" r="7" fill="#6f4c8b" opacity="0.81" />
<circle cx="368" cy="484" r="3" fill="#6f4c8b" opacity="0.70" />
<circle cx="281" cy="149" r="10" fill="#6f4c8b" opacity="0.69" />
<circle cx="62" cy="242" r="4" fill="#6f4c8b" opacity="0.81" />
<circle cx="742" cy="214" r="10" fill="#6f4c8b" opacity="0.75" />
<circle cx="417" cy="387" r="5" fill="#6f4c8b" opacity="0.76" />
<circle cx="137" cy="309" r="10" fill="#6f4c8b" opacity="0.55" />
<circle cx="574" cy="128" r="8" fill="#6f4c8b" opacity="0.61" />
<circle cx="800" cy="382" r="9" fill="#6f4c8b" opacity="0.65" />
<circle cx="433" cy="9" r="10" fill="#6f4c8b" opacity="0.68" />
<circle cx="619" cy="127" r="8" fill="#6f4c8b" opacity="0.60" />
<circle cx="587" cy="565" r="6" fill="#6f4c8b" opacity="0.65" />
<circle cx="85" cy="565" r="11" fill="#6f4c8b" opacity="0.71" />
<circle cx="362" cy="379" r="6" fill="#6f4c8b" opacity="0.74" />
<circle cx="770" cy="287" r="8" fill="#6f4c8b" opacity="0.60" />
<circle cx="129" cy="498" r="9" fill="#6f4c8b" opacity="0.72" />
<circle cx="628" cy="588" r="5" fill="#6f4c8b" opacity="0.67" />
<circle cx="838" cy="6" r="4" fill="#6f4c8b" opacity="0.61" />
<circle cx="410" cy="530" r="3" fill="#6f4c8b" opacity="0.71" />
<circle cx="227" cy="458" r="7" fill="#6f4c8b" opacity="0.68" />
<circle cx="346" cy="218" r="4" fill="#6f4c8b" opacity="0.57" />
<circle cx="413" cy="74" r="11" fill="#6f4c8b" opacity="0.56" />
<circle cx="412" cy="253" r="8" fill="#6f4c8b" opacity="0.64" />
<circle cx="248" cy="52" r="9" fill="#6f4c8b" opacity="0.83" />
<circle cx="550" cy="138" r="10" fill="#6f4c8b" opacity="0.63" />
<circle cx="801" cy="4" r="4" fill="#6f4c8b" opacity="0.56" />
<circle cx="67" cy="42" r="4" fill="#6f4c8b" opacity="0.60" />
<circle cx="899" cy="11" r="10" fill="#6f4c8b" opacity="0.62" />
<circle cx="546" cy="570" r="3" fill="#6f4c8b" opacity="0.65" />
<circle cx="579" cy="62" r="4" fill="#6f4c8b" opacity="0.57" />
<circle cx="458" cy="257" r="9" fill="#6f4c8b" opacity="0.75" />
<circle cx="358" cy="73" r="6" fill="#6f4c8b" opacity="0.64" />
<circle cx="82" cy="524" r="7" fill="#6f4c8b" opacity="0.64" />
<circle cx="343" cy="403" r="10" fill="#6f4c8b" opacity="0.83" />
<circle cx="304" cy="468" r="4" fill="#6f4c8b" opacity="0.62" />
<circle cx="366" cy="456" r="10" fill="#6f4c8b" opacity="0.81" />
<circle cx="871" cy="326" r="6" fill="#6f4c8b" opacity="0.60" />
<line x1="101" y1="362" x2="146" y2="344" stroke="#c889a0" stroke-width="1.01" opacity="0.2" />
<line x1="529" y1="361" x2="561" y2="388" stroke="#c889a0" stroke-width="3.22" opacity="0.2" />
<line x1="889" y1="427" x2="890" y2="450" stroke="#c889a0" stroke-width="1.46" opacity="0.2" />
<line x1="884" y1="521" x2="834" y2="517" stroke="#c889a0" stroke-width="1.67" opacity="0.2" />
<line x1="364" y1="204" x2="350" y2="157" stroke="#c889a0" stroke-width="2.26" opacity="0.2" />
<line x1="463" y1="74" x2="513" y2="131" stroke="#c889a0" stroke-width="1.09" opacity="0.2" />
<line x1="628" y1="438" x2="658" y2="428" stroke="#c889a0" stroke-width="3.27" opacity="0.2" />
<line x1="182" y1="163" x2="140" y2="120" stroke="#c889a0" stroke-width="2.10" opacity="0.2" />
<line x1="529" y1="107" x2="547" y2="128" stroke="#c889a0" stroke-width="2.57" opacity="0.2" />
<line x1="368" y1="501" x2="408" y2="464" stroke="#c889a0" stroke-width="1.94" opacity="0.2" />
<line x1="474" y1="44" x2="434" y2="102" stroke="#c889a0" stroke-width="1.87" opacity="0.2" />
<line x1="883" y1="16" x2="848" y2="59" stroke="#c889a0" stroke-width="2.61" opacity="0.2" />
<line x1="14" y1="108" x2="69" y2="138" stroke="#c889a0" stroke-width="1.01" opacity="0.2" />
<line x1="546" y1="26" x2="598" y2="-28" stroke="#c889a0" stroke-width="1.25" opacity="0.2" />
<line x1="744" y1="55" x2="702" y2="102" stroke="#c889a0" stroke-width="1.32" opacity="0.2" />
<line x1="293" y1="150" x2="242" y2="186" stroke="#c889a0" stroke-width="2.64" opacity="0.2" />
<line x1="140" y1="395" x2="153" y2="402" stroke="#c889a0" stroke-width="2.47" opacity="0.2" />
<line x1="236" y1="255" x2="236" y2="213" stroke="#c889a0" stroke-width="2.84" opacity="0.2" />
<line x1="59" y1="302" x2="92" y2="295" stroke="#c889a0" stroke-width="3.38" opacity="0.2" />
<line x1="649" y1="37" x2="680" y2="90" stroke="#c889a0" stroke-width="1.23" opacity="0.2" />
<line x1="610" y1="382" x2="645" y2="380" stroke="#c889a0" stroke-width="1.23" opacity="0.2" />
<line x1="234" y1="422" x2="188" y2="390" stroke="#c889a0" stroke-width="2.03" opacity="0.2" />
<line x1="60" y1="543" x2="114" y2="485" stroke="#c889a0" stroke-width="2.62" opacity="0.2" />
<line x1="91" y1="363" x2="40" y2="343" stroke="#c889a0" stroke-width="3.01" opacity="0.2" />
<line x1="866" y1="412" x2="851" y2="447" stroke="#c889a0" stroke-width="3.00" opacity="0.2" />
<line x1="634" y1="156" x2="628" y2="149" stroke="#c889a0" stroke-width="3.24" opacity="0.2" />
<line x1="567" y1="178" x2="548" y2="188" stroke="#c889a0" stroke-width="2.88" opacity="0.2" />
<line x1="512" y1="393" x2="469" y2="452" stroke="#c889a0" stroke-width="1.04" opacity="0.2" />
<line x1="711" y1="369" x2="748" y2="409" stroke="#c889a0" stroke-width="2.66" opacity="0.2" />
<line x1="10" y1="304" x2="29" y2="278" stroke="#c889a0" stroke-width="1.19" opacity="0.2" />
</svg>