<?xml version="1.0" encoding="UTF-8"?>
<svg xmlns="http://www.w3.org/2000/svg" width="900" height="600" viewBox="0 0 900 600">
<rect width="100%" height="100%" fill="#f8e6e6" />
<circle cx="616" cy="524" r="10" fill="#f2c9d1" opacity="0.51" />
<circle cx="880" cy="345" r="29" fill="#f2c9d1" opacity="0.53" />
<circle cx="745" cy="70" r="27" fill="#f2c9d1" opacity="0.57" />
<circle cx="566" cy="101" r="17" fill="#f2c9d1" opacity="0.45" />
<circle cx="832" cy="502" r="17" fill="#f2c9d1" opacity="0.52" />
<circle cx="310" cy="374" r="29" fill="#f2c9d1" opacity="0.57" />
<circle cx="742" cy="370" r="23" fill="#f2c9d1" opacity="0.48" />
<circle cx="246" cy="226" r="24" fill="#f2c9d1" opacity="0.35" />
<circle cx="539" cy="428" r="25" fill="#f2c9d1" opacity="0.46" />
<circle cx="35" cy="143" r="29" fill="#f2c9d1" opacity="0.52" />
<circle cx="871" cy="152" r="25" fill="#f2c9d1" opacity="0.35" />
<circle cx="119" cy="543" r="9" fill="#f2c9d1" opacity="0.55" />
<circle cx="165" cy="219" r="24" fill="#f2c9d1" opacity="0.57" />
<circle cx="433" cy="58" r="12" fill="#f2c9d1" opacity="0.47" />
<circle cx="191" cy="150" r="23" fill="#f2c9d1" opacity="0.39" />
<circle cx="252" cy="383" r="21" fill="#f2c9d1" opacity="0.51" />
<circle cx="241" cy="129" r="20" fill="#f2c9d1" opacity="0.41" />
<circle cx="737" cy="298" r="18" fill="#f2c9d1" opacity="0.38" />
<circle cx="363" cy="476" r="11" fill="#f2c9d1" opacity="0.50" />
<circle cx="63" cy="26" r="16" fill="#f2c9d1" opacity="0.46" />
<circle cx="880" cy="300" r="29" fill="#f2c9d1" opacity="0.42" />
<circle cx="281" cy="508" r="21" fill="#f2c9d1" opacity="0.48" />
<circle cx="340" cy="233" r="29" fill="#f2c9d1" opacity="0.52" />
<circle cx="740" cy="542" r="23" fill="#f2c9d1" opacity="0.40" />
<circle cx="86" cy="298" r="13" fill="#f2c9d1" opacity="0.55" />
<circle cx="59" cy="127" r="28" fill="#f2c9d1" opacity="0.50" />
<circle cx="400" cy="181" r="24" fill="#f2c9d1" opacity="0.37" />
<circle cx="202" cy="503" r="27" fill="#f2c9d1" opacity="0.49" />
<circle cx="479" cy="48" r="12" fill="#f2c9d1" opacity="0.39" />
<circle cx="4" cy="457" r="9" fill="#f2c9d1" opacity="0.52" />
<circle cx="274" cy="178" r="26" fill="#f2c9d1" opacity="0.36" />
<circle cx="654" cy="185" r="14" fill="#f2c9d1" opacity="0.35" />
<circle cx="473" cy="197" r="8" fill="#f2c9d1" opacity="0.50" />
<circle cx="215" cy="572" r="19" fill="#f2c9d1" opacity="0.51" />
<circle cx="733" cy="144" r="8" fill="#f2c9d1" opacity="0.54" />
<circle cx="388" cy="133" r="10" fill="#f2c9d1" opacity="0.45" />
<circle cx="760" cy="87" r="20" fill="#f2c9d1" opacity="0.37" />
<circle cx="617" cy="12" r="27" fill="#f2c9d1" opacity="0.52" />
<circle cx="272" cy="326" r="26" fill="#f2c9d1" opacity="0.56" />
<circle cx="657" cy="432" r="24" fill="#f2c9d1" opacity="0.57" />
<circle cx="624" cy="189" r="18" fill="#f2c9d1" opacity="0.46" />
<circle cx="318" cy="310" r="16" fill="#f2c9d1" opacity="0.51" />
<circle cx="761" cy="33" r="27" fill="#f2c9d1" opacity="0.47" />
<circle cx="87" cy="87" r="27" fill="#f2c9d1" opacity="0.47" />
<circle cx="51" cy="210" r="29" fill="#f2c9d1" opacity="0.49" />
<circle cx="289" cy="596" r="15" fill="#f2c9d1" opacity="0.50" />
<circle cx="168" cy="109" r="28" fill="#f2c9d1" opacity="0.43" />
<circle cx="393" cy="334" r="20" fill="#f2c9d1" opacity="0.52" />
<circle cx="540" cy="297" r="9" fill="#f2c9d1" opacity="0.41" />
<circle cx="535" cy="120" r="24" fill="#f2c9d1" opacity="0.48" />
<circle cx="782" cy="411" r="15" fill="#f2c9d1" opacity="0.39" />
<circle cx="112" cy="315" r="11" fill="#f2c9d1" opacity="0.35" />
<circle cx="209" cy="449" r="23" fill="#f2c9d1" opacity="0.54" />
<circle cx="539" cy="124" r="10" fill="#f2c9d1" opacity="0.52" />
<circle cx="418" cy="517" r="29" fill="#f2c9d1" opacity="0.57" />
<circle cx="266" cy="526" r="12" fill="#f2c9d1" opacity="0.40" />
<circle cx="658" cy="187" r="11" fill="#f2c9d1" opacity="0.50" />
<circle cx="396" cy="52" r="28" fill="#f2c9d1" opacity="0.44" />
<circle cx="695" cy="148" r="20" fill="#f2c9d1" opacity="0.50" />
<circle cx="539" cy="305" r="21" fill="#f2c9d1" opacity="0.52" />
<circle cx="645" cy="306" r="20" fill="#f2c9d1" opacity="0.45" />
<circle cx="302" cy="525" r="25" fill="#f2c9d1" opacity="0.57" />
<circle cx="872" cy="140" r="21" fill="#f2c9d1" opacity="0.44" />
<circle cx="80" cy="56" r="28" fill="#f2c9d1" opacity="0.50" />
<circle cx="605" cy="220" r="15" fill="#f2c9d1" opacity="0.37" />
<circle cx="351" cy="68" r="12" fill="#f2c9d1" opacity="0.35" />
<circle cx="324" cy="255" r="19" fill="#f2c9d1" opacity="0.43" />
<circle cx="185" cy="435" r="25" fill="#f2c9d1" opacity="0.39" />
<circle cx="617" cy="264" r="16" fill="#f2c9d1" opacity="0.48" />
<circle cx="0" cy="449" r="9" fill="#f2c9d1" opacity="0.52" />
<circle cx="93" cy="42" r="25" fill="#f2c9d1" opacity="0.37" />
<circle cx="403" cy="287" r="11" fill="#f2c9d1" opacity="0.48" />
<circle cx="365" cy="276" r="29" fill="#f2c9d1" opacity="0.60" />
<circle cx="877" cy="341" r="11" fill="#f2c9d1" opacity="0.55" />
<circle cx="262" cy="292" r="19" fill="#f2c9d1" opacity="0.57" />
<circle cx="607" cy="164" r="22" fill="#f2c9d1" opacity="0.40" />
<circle cx="93" cy="510" r="29" fill="#f2c9d1" opacity="0.36" />
<circle cx="314" cy="344" r="16" fill="#f2c9d1" opacity="0.36" />
<circle cx="123" cy="11" r="15" fill="#f2c9d1" opacity="0.54" />
<circle cx="459" cy="402" r="15" fill="#f2c9d1" opacity="0.45" />
<circle cx="778" cy="456" r="18" fill="#f2c9d1" opacity="0.37" />
<circle cx="891" cy="503" r="17" fill="#f2c9d1" opacity="0.45" />
<circle cx="465" cy="197" r="22" fill="#f2c9d1" opacity="0.60" />
<circle cx="405" cy="33" r="21" fill="#f2c9d1" opacity="0.51" />
<circle cx="180" cy="536" r="9" fill="#f2c9d1" opacity="0.40" />
<circle cx="556" cy="475" r="21" fill="#f2c9d1" opacity="0.37" />
<circle cx="698" cy="150" r="18" fill="#f2c9d1" opacity="0.59" />
<circle cx="332" cy="372" r="29" fill="#f2c9d1" opacity="0.56" />
<circle cx="283" cy="599" r="21" fill="#f2c9d1" opacity="0.57" />
<circle cx="293" cy="460" r="15" fill="#f2c9d1" opacity="0.55" />
<circle cx="327" cy="30" r="24" fill="#f2c9d1" opacity="0.39" />
<circle cx="852" cy="116" r="9" fill="#f2c9d1" opacity="0.53" />
<circle cx="290" cy="534" r="15" fill="#f2c9d1" opacity="0.54" />
<circle cx="58" cy="276" r="19" fill="#f2c9d1" opacity="0.57" />
<circle cx="38" cy="240" r="21" fill="#f2c9d1" opacity="0.38" />
<circle cx="729" cy="538" r="12" fill="#f2c9d1" opacity="0.39" />
<circle cx="608" cy="548" r="28" fill="#f2c9d1" opacity="0.54" />
<circle cx="235" cy="59" r="18" fill="#f2c9d1" opacity="0.38" />
<circle cx="545" cy="105" r="11" fill="#f2c9d1" opacity="0.50" />
<circle cx="13" cy="140" r="13" fill="#f2c9d1" opacity="0.56" />
<circle cx="671" cy="222" r="16" fill="#f2c9d1" opacity="0.47" />
<circle cx="310" cy="44" r="25" fill="#f2c9d1" opacity="0.58" />
<circle cx="493" cy="375" r="20" fill="#f2c9d1" opacity="0.38" />
<circle cx="249" cy="450" r="14" fill="#f2c9d1" opacity="0.55" />
<circle cx="672" cy="78" r="28" fill="#f2c9d1" opacity="0.43" />
<circle cx="779" cy="257" r="19" fill="#f2c9d1" opacity="0.57" />
<circle cx="197" cy="484" r="10" fill="#f2c9d1" opacity="0.57" />
<circle cx="838" cy="162" r="23" fill="#f2c9d1" opacity="0.59" />
<circle cx="21" cy="50" r="12" fill="#f2c9d1" opacity="0.48" />
<circle cx="747" cy="541" r="9" fill="#f2c9d1" opacity="0.44" />
<circle cx="398" cy="259" r="9" fill="#f2c9d1" opacity="0.35" />
<circle cx="12" cy="436" r="26" fill="#f2c9d1" opacity="0.55" />
<circle cx="844" cy="322" r="19" fill="#f2c9d1" opacity="0.39" />
<circle cx="43" cy="188" r="20" fill="#f2c9d1" opacity="0.39" />
<circle cx="886" cy="311" r="26" fill="#f2c9d1" opacity="0.59" />
<circle cx="861" cy="76" r="15" fill="#f2c9d1" opacity="0.54" />
<circle cx="897" cy="171" r="21" fill="#f2c9d1" opacity="0.58" />
<circle cx="151" cy="396" r="13" fill="#f2c9d1" opacity="0.42" />
<circle cx="461" cy="119" r="15" fill="#f2c9d1" opacity="0.39" />
<circle cx="276" cy="232" r="12" fill="#f2c9d1" opacity="0.46" />
<circle cx="797" cy="188" r="14" fill="#f2c9d1" opacity="0.40" />
<circle cx="102" cy="566" r="13" fill="#f2c9d1" opacity="0.54" />
<circle cx="455" cy="284" r="18" fill="#f2c9d1" opacity="0.38" />
<circle cx="185" cy="71" r="17" fill="#f2c9d1" opacity="0.49" />
<circle cx="522" cy="298" r="16" fill="#f2c9d1" opacity="0.45" />
<circle cx="762" cy="378" r="19" fill="#f2c9d1" opacity="0.37" />
<circle cx="646" cy="484" r="27" fill="#f2c9d1" opacity="0.51" />
<circle cx="387" cy="326" r="23" fill="#f2c9d1" opacity="0.48" />
<circle cx="455" cy="30" r="19" fill="#f2c9d1" opacity="0.36" />
<circle cx="503" cy="473" r="18" fill="#f2c9d1" opacity="0.55" />
<circle cx="296" cy="232" r="27" fill="#f2c9d1" opacity="0.59" />
<circle cx="466" cy="58" r="29" fill="#f2c9d1" opacity="0.41" />
<circle cx="460" cy="91" r="22" fill="#f2c9d1" opacity="0.54" />
<circle cx="336" cy="539" r="14" fill="#f2c9d1" opacity="0.37" />
<circle cx="485" cy="530" r="24" fill="#f2c9d1" opacity="0.36" />
<circle cx="444" cy="389" r="16" fill="#f2c9d1" opacity="0.45" />
<circle cx="892" cy="298" r="16" fill="#f2c9d1" opacity="0.46" />
<circle cx="195" cy="60" r="29" fill="#f2c9d1" opacity="0.39" />
<circle cx="431" cy="543" r="8" fill="#f2c9d1" opacity="0.59" />
<circle cx="530" cy="279" r="16" fill="#f2c9d1" opacity="0.49" />
<circle cx="361" cy="165" r="22" fill="#f2c9d1" opacity="0.47" />
<circle cx="719" cy="554" r="11" fill="#f2c9d1" opacity="0.48" />
<circle cx="286" cy="369" r="29" fill="#f2c9d1" opacity="0.52" />
<circle cx="46" cy="305" r="23" fill="#f2c9d1" opacity="0.37" />
<circle cx="449" cy="356" r="13" fill="#f2c9d1" opacity="0.50" />
<circle cx="843" cy="574" r="19" fill="#f2c9d1" opacity="0.57" />
<circle cx="660" cy="101" r="20" fill="#f2c9d1" opacity="0.55" />
<circle cx="434" cy="342" r="11" fill="#f2c9d1" opacity="0.36" />
<circle cx="232" cy="321" r="22" fill="#f2c9d1" opacity="0.44" />
<circle cx="596" cy="382" r="21" fill="#f2c9d1" opacity="0.47" />
<circle cx="658" cy="54" r="24" fill="#f2c9d1" opacity="0.59" />
<circle cx="547" cy="416" r="21" fill="#f2c9d1" opacity="0.37" />
<circle cx="489" cy="461" r="13" fill="#f2c9d1" opacity="0.37" />
<circle cx="199" cy="23" r="27" fill="#f2c9d1" opacity="0.50" />
<circle cx="618" cy="270" r="24" fill="#f2c9d1" opacity="0.37" />
<circle cx="156" cy="200" r="22" fill="#f2c9d1" opacity="0.42" />
<circle cx="727" cy="150" r="12" fill="#f2c9d1" opacity="0.40" />
<circle cx="418" cy="520" r="22" fill="#f2c9d1" opacity="0.47" />
<circle cx="843" cy="530" r="9" fill="#f2c9d1" opacity="0.54" />
<circle cx="289" cy="308" r="9" fill="#f2c9d1" opacity="0.40" />
<circle cx="357" cy="302" r="3" fill="#6b4fa1" opacity="0.85" />
<circle cx="522" cy="424" r="7" fill="#6b4fa1" opacity="0.66" />
<circle cx="869" cy="288" r="11" fill="#6b4fa1" opacity="0.69" />
<circle cx="563" cy="95" r="5" fill="#6b4fa1" opacity="0.56" />
<circle cx="322" cy="482" r="7" fill="#6b4fa1" opacity="0.67" />
<circle cx="734" cy="251" r="10" fill="#6b4fa1" opacity="0.60" />
<circle cx="280" cy="173" r="7" fill="#6b4fa1" opacity="0.63" />
<circle cx="133" cy="504" r="10" fill="#6b4fa1" opacity="0.86" />
<circle cx="362" cy="356" r="5" fill="#6b4fa1" opacity="0.79" />
<circle cx="228" cy="102" r="8" fill="#6b4fa1" opacity="0.75" />
<circle cx="177" cy="559" r="11" fill="#6b4fa1" opacity="0.69" />
<circle cx="538" cy="92" r="6" fill="#6b4fa1" opacity="0.56" />
<circle cx="357" cy="437" r="7" fill="#6b4fa1" opacity="0.81" />
<circle cx="730" cy="364" r="6" fill="#6b4fa1" opacity="0.78" />
<circle cx="33" cy="81" r="6" fill="#6b4fa1" opacity="0.56" />
<circle cx="212" cy="164" r="5" fill="#6b4fa1" opacity="0.79" />
<circle cx="693" cy="466" r="3" fill="#6b4fa1" opacity="0.80" />
<circle cx="553" cy="36" r="6" fill="#6b4fa1" opacity="0.56" />
<circle cx="28" cy="244" r="3" fill="#6b4fa1" opacity="0.61" />
<circle cx="129" cy="370" r="8" fill="#6b4fa1" opacity="0.62" />
<circle cx="356" cy="308" r="6" fill="#6b4fa1" opacity="0.83" />
<circle cx="360" cy="290" r="4" fill="#6b4fa1" opacity="0.75" />
<circle cx="157" cy="334" r="10" fill="#6b4fa1" opacity="0.65" />
<circle cx="102" cy="521" r="6" fill="#6b4fa1" opacity="0.87" />
<circle cx="200" cy="500" r="10" fill="#6b4fa1" opacity="0.85" />
<circle cx="370" cy="245" r="11" fill="#6b4fa1" opacity="0.83" />
<circle cx="159" cy="444" r="8" fill="#6b4fa1" opacity="0.67" />
<circle cx="740" cy="31" r="11" fill="#6b4fa1" opacity="0.84" />
<circle cx="495" cy="464" r="11" fill="#6b4fa1" opacity="0.58" />
<circle cx="281" cy="220" r="8" fill="#6b4fa1" opacity="0.57" />
<circle cx="98" cy="489" r="9" fill="#6b4fa1" opacity="0.82" />
<circle cx="753" cy="424" r="6" fill="#6b4fa1" opacity="0.71" />
<circle cx="730" cy="341" r="5" fill="#6b4fa1" opacity="0.66" />
<circle cx="258" cy="129" r="4" fill="#6b4fa1" opacity="0.77" />
<circle cx="43" cy="216" r="4" fill="#6b4fa1" opacity="0.74" />
<circle cx="203" cy="8" r="5" fill="#6b4fa1" opacity="0.83" />
<circle cx="385" cy="441" r="4" fill="#6b4fa1" opacity="0.61" />
<circle cx="181" cy="591" r="5" fill="#6b4fa1" opacity="0.73" />
<circle cx="390" cy="394" r="5" fill="#6b4fa1" opacity="0.75" />
<circle cx="350" cy="135" r="10" fill="#6b4fa1" opacity="0.81" />
<circle cx="563" cy="93" r="3" fill="#6b4fa1" opacity="0.69" />
<circle cx="808" cy="39" r="6" fill="#6b4fa1" opacity="0.66" />
<circle cx="237" cy="252" r="9" fill="#6b4fa1" opacity="0.70" />
<circle cx="605" cy="461" r="9" fill="#6b4fa1" opacity="0.75" />
<circle cx="899" cy="423" r="5" fill="#6b4fa1" opacity="0.80" />
<circle cx="382" cy="367" r="11" fill="#6b4fa1" opacity="0.59" />
<circle cx="593" cy="529" r="6" fill="#6b4fa1" opacity="0.79" />
<circle cx="102" cy="89" r="10" fill="#6b4fa1" opacity="0.86" />
<circle cx="177" cy="589" r="6" fill="#6b4fa1" opacity="0.77" />
<circle cx="415" cy="120" r="4" fill="#6b4fa1" opacity="0.77" />
<circle cx="196" cy="320" r="5" fill="#6b4fa1" opacity="0.58" />
<circle cx="648" cy="203" r="4" fill="#6b4fa1" opacity="0.56" />
<circle cx="613" cy="520" r="10" fill="#6b4fa1" opacity="0.73" />
<circle cx="307" cy="300" r="6" fill="#6b4fa1" opacity="0.61" />
<circle cx="798" cy="24" r="5" fill="#6b4fa1" opacity="0.57" />
<circle cx="136" cy="196" r="11" fill="#6b4fa1" opacity="0.73" />
<circle cx="682" cy="509" r="7" fill="#6b4fa1" opacity="0.86" />
<circle cx="418" cy="377" r="11" fill="#6b4fa1" opacity="0.66" />
<circle cx="7" cy="485" r="8" fill="#6b4fa1" opacity="0.81" />
<circle cx="63" cy="157" r="5" fill="#6b4fa1" opacity="0.60" />
<circle cx="374" cy="73" r="7" fill="#6b4fa1" opacity="0.60" />
<circle cx="101" cy="498" r="6" fill="#6b4fa1" opacity="0.84" />
<circle cx="43" cy="415" r="3" fill="#6b4fa1" opacity="0.87" />
<circle cx="713" cy="441" r="4" fill="#6b4fa1" opacity="0.66" />
<circle cx="120" cy="228" r="5" fill="#6b4fa1" opacity="0.71" />
<circle cx="56" cy="283" r="8" fill="#6b4fa1" opacity="0.75" />
<circle cx="197" cy="417" r="8" fill="#6b4fa1" opacity="0.64" />
<circle cx="852" cy="152" r="4" fill="#6b4fa1" opacity="0.73" />
<circle cx="352" cy="501" r="10" fill="#6b4fa1" opacity="0.70" />
<circle cx="369" cy="73" r="3" fill="#6b4fa1" opacity="0.84" />
<circle cx="648" cy="4" r="9" fill="#6b4fa1" opacity="0.65" />
<circle cx="75" cy="258" r="6" fill="#6b4fa1" opacity="0.86" />
<circle cx="630" cy="256" r="8" fill="#6b4fa1" opacity="0.82" />
<circle cx="474" cy="10" r="6" fill="#6b4fa1" opacity="0.85" />
<circle cx="396" cy="71" r="7" fill="#6b4fa1" opacity="0.84" />
<circle cx="383" cy="337" r="8" fill="#6b4fa1" opacity="0.84" />
<circle cx="634" cy="430" r="9" fill="#6b4fa1" opacity="0.70" />
<circle cx="734" cy="243" r="4" fill="#6b4fa1" opacity="0.83" />
<circle cx="763" cy="102" r="5" fill="#6b4fa1" opacity="0.71" />
<circle cx="429" cy="524" r="10" fill="#6b4fa1" opacity="0.81" />
<circle cx="402" cy="472" r="9" fill="#6b4fa1" opacity="0.63" />
<circle cx="852" cy="492" r="9" fill="#6b4fa1" opacity="0.70" />
<circle cx="825" cy="517" r="7" fill="#6b4fa1" opacity="0.61" />
<circle cx="554" cy="171" r="9" fill="#6b4fa1" opacity="0.89" />
<circle cx="20" cy="275" r="11" fill="#6b4fa1" opacity="0.86" />
<circle cx="722" cy="523" r="9" fill="#6b4fa1" opacity="0.69" />
<circle cx="190" cy="314" r="5" fill="#6b4fa1" opacity="0.72" />
<circle cx="82" cy="301" r="8" fill="#6b4fa1" opacity="0.78" />
<circle cx="127" cy="341" r="5" fill="#6b4fa1" opacity="0.59" />
<circle cx="211" cy="438" r="3" fill="#6b4fa1" opacity="0.68" />
<line x1="808" y1="547" x2="851" y2="569" stroke="#bb7ca4" stroke-width="2.59" opacity="0.2" />
<line x1="461" y1="492" x2="500" y2="536" stroke="#bb7ca4" stroke-width="1.59" opacity="0.2" />
<line x1="893" y1="459" x2="947" y2="515" stroke="#bb7ca4" stroke-width="1.07" opacity="0.2" />
<line x1="245" y1="24" x2="273" y2="54" stroke="#bb7ca4" stroke-width="1.17" opacity="0.2" />
<line x1="155" y1="330" x2="174" y2="342" stroke="#bb7ca4" stroke-width="1.06" opacity="0.2" />
<line x1="505" y1="418" x2="559" y2="378" stroke="#bb7ca4" stroke-width="2.28" opacity="0.2" />
<line x1="296" y1="538" x2="315" y2="511" stroke="#bb7ca4" stroke-width="1.36" opacity="0.2" />
<line x1="450" y1="369" x2="415" y2="335" stroke="#bb7ca4" stroke-width="1.17" opacity="0.2" />
<line x1="320" y1="437" x2="301" y2="399" stroke="#bb7ca4" stroke-width="2.83" opacity="0.2" />
<line x1="14" y1="137" x2="-13" y2="90" stroke="#bb7ca4" stroke-width="2.56" opacity="0.2" />
<line x1="10" y1="382" x2="-17" y2="371" stroke="#bb7ca4" stroke-width="1.56" opacity="0.2" />
<line x1="105" y1="5" x2="95" y2="-10" stroke="#bb7ca4" stroke-width="3.08" opacity="0.2" />
<line x1="785" y1="551" x2="788" y2="506" stroke="#bb7ca4" stroke-width="2.18" opacity="0.2" />
<line x1="380" y1="323" x2="334" y2="373" stroke="#bb7ca4" stroke-width="1.26" opacity="0.2" />
<line x1="495" y1="156" x2="461" y2="97" stroke="#bb7ca4" stroke-width="3.37" opacity="0.2" />
<line x1="688" y1="486" x2="662" y2="431" stroke="#bb7ca4" stroke-width="1.98" opacity="0.2" />
<line x1="267" y1="537" x2="259" y2="568" stroke="#bb7ca4" stroke-width="2.41" opacity="0.2" />
<line x1="377" y1="11" x2="385" y2="-28" stroke="#bb7ca4" stroke-width="3.09" opacity="0.2" />
<line x1="816" y1="111" x2="762" y2="94" stroke="#bb7ca4" stroke-width="2.62" opacity="0.2" />
<line x1="593" y1="267" x2="619" y2="280" stroke="#bb7ca4" stroke-width="2.93" opacity="0.2" />
<line x1="62" y1="34" x2="34" y2="72" stroke="#bb7ca4" stroke-width="3.09" opacity="0.2" />
<line x1="860" y1="43" x2="857" y2="65" stroke="#bb7ca4" stroke-width="1.41" opacity="0.2" />
<line x1="772" y1="288" x2="829" y2="232" stroke="#bb7ca4" stroke-width="1.73" opacity="0.2" />
<line x1="712" y1="149" x2="707" y2="96" stroke="#bb7ca4" stroke-width="1.06" opacity="0.2" />
<line x1="840" y1="324" x2="895" y2="374" stroke="#bb7ca4" stroke-width="2.13" opacity="0.2" />
<line x1="625" y1="180" x2="655" y2="160" stroke="#bb7ca4" stroke-width="2.45" opacity="0.2" />
<line x1="74" y1="347" x2="19" y2="379" stroke="#bb7ca4" stroke-width="1.47" opacity="0.2" />
<line x1="886" y1="61" x2="920" y2="109" stroke="#bb7ca4" stroke-width="1.15" opacity="0.2" />
<line x1="649" y1="196" x2="649" y2="217" stroke="#bb7ca4" stroke-width="3.47" opacity="0.2" />
<line x1="874" y1="538" x2="859" y2="585" stroke="#bb7ca4" stroke-width="1.87" opacity="0.2" />
</svg>