<?xml version="1.0" encoding="UTF-8"?>
<svg xmlns="http://www.w3.org/2000/svg" width="900" height="600" viewBox="0 0 900 600">
<rect width="100%" height="100%" fill="#f7f0e8" />
<circle cx="384" cy="429" r="19" fill="#f0d2c0" opacity="0.57" />
<circle cx="507" cy="449" r="12" fill="#f0d2c0" opacity="0.48" />
<circle cx="850" cy="235" r="16" fill="#f0d2c0" opacity="0.43" />
<circle cx="251" cy="594" r="19" fill="#f0d2c0" opacity="0.47" />
<circle cx="851" cy="118" r="17" fill="#f0d2c0" opacity="0.58" />
<circle cx="596" cy="353" r="23" fill="#f0d2c0" opacity="0.52" />
<circle cx="611" cy="370" r="8" fill="#f0d2c0" opacity="0.44" />
<circle cx="768" cy="120" r="10" fill="#f0d2c0" opacity="0.59" />
<circle cx="727" cy="379" r="26" fill="#f0d2c0" opacity="0.54" />
<circle cx="193" cy="152" r="8" fill="#f0d2c0" opacity="0.36" />
<circle cx="395" cy="400" r="25" fill="#f0d2c0" opacity="0.57" />
<circle cx="623" cy="427" r="13" fill="#f0d2c0" opacity="0.49" />
<circle cx="345" cy="541" r="24" fill="#f0d2c0" opacity="0.45" />
<circle cx="714" cy="47" r="16" fill="#f0d2c0" opacity="0.49" />
<circle cx="571" cy="316" r="10" fill="#f0d2c0" opacity="0.51" />
<circle cx="465" cy="335" r="25" fill="#f0d2c0" opacity="0.47" />
<circle cx="763" cy="189" r="23" fill="#f0d2c0" opacity="0.57" />
<circle cx="310" cy="490" r="20" fill="#f0d2c0" opacity="0.44" />
<circle cx="722" cy="196" r="10" fill="#f0d2c0" opacity="0.38" />
<circle cx="724" cy="140" r="26" fill="#f0d2c0" opacity="0.42" />
<circle cx="860" cy="582" r="13" fill="#f0d2c0" opacity="0.46" />
<circle cx="822" cy="121" r="19" fill="#f0d2c0" opacity="0.58" />
<circle cx="386" cy="497" r="16" fill="#f0d2c0" opacity="0.41" />
<circle cx="898" cy="121" r="26" fill="#f0d2c0" opacity="0.50" />
<circle cx="508" cy="116" r="15" fill="#f0d2c0" opacity="0.44" />
<circle cx="689" cy="8" r="27" fill="#f0d2c0" opacity="0.56" />
<circle cx="514" cy="101" r="14" fill="#f0d2c0" opacity="0.49" />
<circle cx="367" cy="357" r="22" fill="#f0d2c0" opacity="0.59" />
<circle cx="155" cy="500" r="25" fill="#f0d2c0" opacity="0.58" />
<circle cx="330" cy="78" r="14" fill="#f0d2c0" opacity="0.42" />
<circle cx="475" cy="520" r="20" fill="#f0d2c0" opacity="0.38" />
<circle cx="351" cy="368" r="8" fill="#f0d2c0" opacity="0.56" />
<circle cx="880" cy="374" r="11" fill="#f0d2c0" opacity="0.36" />
<circle cx="181" cy="70" r="27" fill="#f0d2c0" opacity="0.37" />
<circle cx="545" cy="217" r="22" fill="#f0d2c0" opacity="0.58" />
<circle cx="289" cy="60" r="26" fill="#f0d2c0" opacity="0.39" />
<circle cx="789" cy="558" r="10" fill="#f0d2c0" opacity="0.59" />
<circle cx="618" cy="202" r="23" fill="#f0d2c0" opacity="0.56" />
<circle cx="502" cy="228" r="15" fill="#f0d2c0" opacity="0.48" />
<circle cx="199" cy="7" r="8" fill="#f0d2c0" opacity="0.36" />
<circle cx="318" cy="248" r="27" fill="#f0d2c0" opacity="0.60" />
<circle cx="83" cy="223" r="18" fill="#f0d2c0" opacity="0.52" />
<circle cx="688" cy="297" r="9" fill="#f0d2c0" opacity="0.39" />
<circle cx="676" cy="81" r="9" fill="#f0d2c0" opacity="0.49" />
<circle cx="521" cy="319" r="17" fill="#f0d2c0" opacity="0.49" />
<circle cx="187" cy="189" r="23" fill="#f0d2c0" opacity="0.37" />
<circle cx="71" cy="430" r="24" fill="#f0d2c0" opacity="0.55" />
<circle cx="386" cy="5" r="9" fill="#f0d2c0" opacity="0.55" />
<circle cx="541" cy="326" r="25" fill="#f0d2c0" opacity="0.42" />
<circle cx="432" cy="36" r="20" fill="#f0d2c0" opacity="0.59" />
<circle cx="191" cy="558" r="17" fill="#f0d2c0" opacity="0.39" />
<circle cx="800" cy="9" r="10" fill="#f0d2c0" opacity="0.46" />
<circle cx="451" cy="113" r="15" fill="#f0d2c0" opacity="0.37" />
<circle cx="809" cy="172" r="12" fill="#f0d2c0" opacity="0.40" />
<circle cx="508" cy="197" r="15" fill="#f0d2c0" opacity="0.38" />
<circle cx="31" cy="157" r="29" fill="#f0d2c0" opacity="0.43" />
<circle cx="859" cy="88" r="24" fill="#f0d2c0" opacity="0.44" />
<circle cx="703" cy="342" r="21" fill="#f0d2c0" opacity="0.57" />
<circle cx="630" cy="297" r="8" fill="#f0d2c0" opacity="0.40" />
<circle cx="442" cy="357" r="15" fill="#f0d2c0" opacity="0.58" />
<circle cx="737" cy="39" r="13" fill="#f0d2c0" opacity="0.35" />
<circle cx="575" cy="312" r="22" fill="#f0d2c0" opacity="0.44" />
<circle cx="624" cy="185" r="19" fill="#f0d2c0" opacity="0.58" />
<circle cx="148" cy="425" r="16" fill="#f0d2c0" opacity="0.48" />
<circle cx="642" cy="0" r="18" fill="#f0d2c0" opacity="0.52" />
<circle cx="826" cy="176" r="14" fill="#f0d2c0" opacity="0.40" />
<circle cx="369" cy="525" r="25" fill="#f0d2c0" opacity="0.53" />
<circle cx="713" cy="377" r="12" fill="#f0d2c0" opacity="0.41" />
<circle cx="92" cy="241" r="18" fill="#f0d2c0" opacity="0.52" />
<circle cx="43" cy="426" r="26" fill="#f0d2c0" opacity="0.44" />
<circle cx="117" cy="312" r="18" fill="#f0d2c0" opacity="0.59" />
<circle cx="326" cy="113" r="10" fill="#f0d2c0" opacity="0.40" />
<circle cx="339" cy="213" r="21" fill="#f0d2c0" opacity="0.48" />
<circle cx="357" cy="137" r="13" fill="#f0d2c0" opacity="0.38" />
<circle cx="214" cy="24" r="17" fill="#f0d2c0" opacity="0.44" />
<circle cx="203" cy="90" r="19" fill="#f0d2c0" opacity="0.51" />
<circle cx="737" cy="66" r="24" fill="#f0d2c0" opacity="0.36" />
<circle cx="85" cy="132" r="24" fill="#f0d2c0" opacity="0.42" />
<circle cx="835" cy="153" r="26" fill="#f0d2c0" opacity="0.42" />
<circle cx="630" cy="82" r="21" fill="#f0d2c0" opacity="0.54" />
<circle cx="656" cy="196" r="16" fill="#f0d2c0" opacity="0.60" />
<circle cx="614" cy="145" r="23" fill="#f0d2c0" opacity="0.54" />
<circle cx="842" cy="508" r="14" fill="#f0d2c0" opacity="0.41" />
<circle cx="578" cy="346" r="12" fill="#f0d2c0" opacity="0.38" />
<circle cx="466" cy="556" r="21" fill="#f0d2c0" opacity="0.37" />
<circle cx="502" cy="195" r="25" fill="#f0d2c0" opacity="0.46" />
<circle cx="19" cy="32" r="29" fill="#f0d2c0" opacity="0.35" />
<circle cx="262" cy="92" r="25" fill="#f0d2c0" opacity="0.36" />
<circle cx="787" cy="567" r="14" fill="#f0d2c0" opacity="0.42" />
<circle cx="865" cy="207" r="21" fill="#f0d2c0" opacity="0.37" />
<circle cx="716" cy="183" r="16" fill="#f0d2c0" opacity="0.57" />
<circle cx="853" cy="509" r="13" fill="#f0d2c0" opacity="0.54" />
<circle cx="440" cy="465" r="14" fill="#f0d2c0" opacity="0.38" />
<circle cx="173" cy="583" r="12" fill="#f0d2c0" opacity="0.46" />
<circle cx="268" cy="33" r="9" fill="#f0d2c0" opacity="0.40" />
<circle cx="194" cy="417" r="28" fill="#f0d2c0" opacity="0.43" />
<circle cx="414" cy="275" r="11" fill="#f0d2c0" opacity="0.36" />
<circle cx="726" cy="483" r="29" fill="#f0d2c0" opacity="0.47" />
<circle cx="235" cy="431" r="15" fill="#f0d2c0" opacity="0.58" />
<circle cx="544" cy="427" r="16" fill="#f0d2c0" opacity="0.43" />
<circle cx="826" cy="119" r="19" fill="#f0d2c0" opacity="0.56" />
<circle cx="32" cy="239" r="25" fill="#f0d2c0" opacity="0.41" />
<circle cx="880" cy="269" r="8" fill="#f0d2c0" opacity="0.56" />
<circle cx="826" cy="305" r="16" fill="#f0d2c0" opacity="0.35" />
<circle cx="323" cy="164" r="16" fill="#f0d2c0" opacity="0.47" />
<circle cx="348" cy="151" r="15" fill="#f0d2c0" opacity="0.44" />
<circle cx="760" cy="18" r="27" fill="#f0d2c0" opacity="0.59" />
<circle cx="111" cy="495" r="11" fill="#f0d2c0" opacity="0.48" />
<circle cx="59" cy="421" r="18" fill="#f0d2c0" opacity="0.37" />
<circle cx="88" cy="389" r="24" fill="#f0d2c0" opacity="0.49" />
<circle cx="757" cy="338" r="10" fill="#f0d2c0" opacity="0.47" />
<circle cx="725" cy="408" r="22" fill="#f0d2c0" opacity="0.53" />
<circle cx="580" cy="210" r="20" fill="#f0d2c0" opacity="0.50" />
<circle cx="185" cy="429" r="20" fill="#f0d2c0" opacity="0.43" />
<circle cx="125" cy="14" r="26" fill="#f0d2c0" opacity="0.40" />
<circle cx="716" cy="146" r="9" fill="#f0d2c0" opacity="0.44" />
<circle cx="604" cy="511" r="25" fill="#f0d2c0" opacity="0.42" />
<circle cx="671" cy="117" r="16" fill="#f0d2c0" opacity="0.54" />
<circle cx="732" cy="365" r="25" fill="#f0d2c0" opacity="0.41" />
<circle cx="760" cy="500" r="13" fill="#f0d2c0" opacity="0.52" />
<circle cx="674" cy="5" r="14" fill="#f0d2c0" opacity="0.46" />
<circle cx="211" cy="398" r="21" fill="#f0d2c0" opacity="0.58" />
<circle cx="470" cy="327" r="17" fill="#f0d2c0" opacity="0.51" />
<circle cx="245" cy="310" r="22" fill="#f0d2c0" opacity="0.38" />
<circle cx="811" cy="203" r="28" fill="#f0d2c0" opacity="0.52" />
<circle cx="366" cy="336" r="12" fill="#f0d2c0" opacity="0.42" />
<circle cx="266" cy="554" r="25" fill="#f0d2c0" opacity="0.47" />
<circle cx="744" cy="402" r="17" fill="#f0d2c0" opacity="0.44" />
<circle cx="613" cy="157" r="16" fill="#f0d2c0" opacity="0.59" />
<circle cx="205" cy="551" r="23" fill="#f0d2c0" opacity="0.56" />
<circle cx="229" cy="57" r="28" fill="#f0d2c0" opacity="0.59" />
<circle cx="746" cy="236" r="10" fill="#f0d2c0" opacity="0.60" />
<circle cx="768" cy="356" r="16" fill="#f0d2c0" opacity="0.46" />
<circle cx="345" cy="42" r="9" fill="#f0d2c0" opacity="0.39" />
<circle cx="76" cy="481" r="20" fill="#f0d2c0" opacity="0.60" />
<circle cx="406" cy="254" r="26" fill="#f0d2c0" opacity="0.47" />
<circle cx="106" cy="90" r="25" fill="#f0d2c0" opacity="0.39" />
<circle cx="840" cy="227" r="24" fill="#f0d2c0" opacity="0.46" />
<circle cx="533" cy="117" r="22" fill="#f0d2c0" opacity="0.52" />
<circle cx="746" cy="210" r="10" fill="#f0d2c0" opacity="0.43" />
<circle cx="48" cy="538" r="5" fill="#6f4c8b" opacity="0.75" />
<circle cx="412" cy="536" r="8" fill="#6f4c8b" opacity="0.83" />
<circle cx="172" cy="73" r="5" fill="#6f4c8b" opacity="0.72" />
<circle cx="287" cy="590" r="4" fill="#6f4c8b" opacity="0.66" />
<circle cx="232" cy="382" r="8" fill="#6f4c8b" opacity="0.76" />
<circle cx="660" cy="30" r="11" fill="#6f4c8b" opacity="0.65" />
<circle cx="215" cy="95" r="4" fill="#6f4c8b" opacity="0.81" />
<circle cx="655" cy="533" r="7" fill="#6f4c8b" opacity="0.68" />
<circle cx="500" cy="253" r="6" fill="#6f4c8b" opacity="0.65" />
<circle cx="727" cy="74" r="9" fill="#6f4c8b" opacity="0.86" />
<circle cx="762" cy="572" r="4" fill="#6f4c8b" opacity="0.78" />
<circle cx="164" cy="250" r="5" fill="#6f4c8b" opacity="0.82" />
<circle cx="899" cy="161" r="11" fill="#6f4c8b" opacity="0.82" />
<circle cx="579" cy="439" r="11" fill="#6f4c8b" opacity="0.61" />
<circle cx="590" cy="544" r="10" fill="#6f4c8b" opacity="0.69" />
<circle cx="706" cy="269" r="3" fill="#6f4c8b" opacity="0.71" />
<circle cx="180" cy="396" r="5" fill="#6f4c8b" opacity="0.85" />
<circle cx="390" cy="528" r="3" fill="#6f4c8b" opacity="0.80" />
<circle cx="95" cy="191" r="3" fill="#6f4c8b" opacity="0.80" />
<circle cx="390" cy="177" r="6" fill="#6f4c8b" opacity="0.65" />
<circle cx="527" cy="50" r="3" fill="#6f4c8b" opacity="0.76" />
<circle cx="664" cy="489" r="8" fill="#6f4c8b" opacity="0.84" />
<circle cx="200" cy="304" r="6" fill="#6f4c8b" opacity="0.71" />
<circle cx="637" cy="0" r="8" fill="#6f4c8b" opacity="0.89" />
<circle cx="524" cy="528" r="8" fill="#6f4c8b" opacity="0.60" />
<circle cx="119" cy="384" r="6" fill="#6f4c8b" opacity="0.57" />
<circle cx="97" cy="220" r="3" fill="#6f4c8b" opacity="0.84" />
<circle cx="173" cy="233" r="10" fill="#6f4c8b" opacity="0.75" />
<circle cx="297" cy="470" r="9" fill="#6f4c8b" opacity="0.61" />
<circle cx="478" cy="187" r="9" fill="#6f4c8b" opacity="0.66" />
<circle cx="505" cy="47" r="9" fill="#6f4c8b" opacity="0.73" />
<circle cx="413" cy="417" r="4" fill="#6f4c8b" opacity="0.82" />
<circle cx="488" cy="378" r="8" fill="#6f4c8b" opacity="0.76" />
<circle cx="18" cy="259" r="5" fill="#6f4c8b" opacity="0.64" />
<circle cx="188" cy="33" r="10" fill="#6f4c8b" opacity="0.80" />
<circle cx="838" cy="313" r="6" fill="#6f4c8b" opacity="0.79" />
<circle cx="678" cy="326" r="9" fill="#6f4c8b" opacity="0.64" />
<circle cx="191" cy="535" r="3" fill="#6f4c8b" opacity="0.56" />
<circle cx="774" cy="207" r="4" fill="#6f4c8b" opacity="0.76" />
<circle cx="887" cy="381" r="5" fill="#6f4c8b" opacity="0.57" />
<circle cx="103" cy="381" r="8" fill="#6f4c8b" opacity="0.82" />
<circle cx="44" cy="9" r="6" fill="#6f4c8b" opacity="0.82" />
<circle cx="707" cy="261" r="8" fill="#6f4c8b" opacity="0.69" />
<circle cx="539" cy="511" r="5" fill="#6f4c8b" opacity="0.75" />
<circle cx="308" cy="380" r="4" fill="#6f4c8b" opacity="0.66" />
<circle cx="399" cy="28" r="5" fill="#6f4c8b" opacity="0.89" />
<circle cx="301" cy="295" r="3" fill="#6f4c8b" opacity="0.67" />
<circle cx="394" cy="148" r="5" fill="#6f4c8b" opacity="0.60" />
<circle cx="846" cy="554" r="4" fill="#6f4c8b" opacity="0.79" />
<circle cx="443" cy="505" r="4" fill="#6f4c8b" opacity="0.84" />
<circle cx="86" cy="121" r="3" fill="#6f4c8b" opacity="0.85" />
<circle cx="214" cy="17" r="5" fill="#6f4c8b" opacity="0.73" />
<circle cx="838" cy="144" r="7" fill="#6f4c8b" opacity="0.84" />
<circle cx="751" cy="107" r="4" fill="#6f4c8b" opacity="0.67" />
<circle cx="406" cy="185" r="7" fill="#6f4c8b" opacity="0.64" />
<circle cx="243" cy="99" r="6" fill="#6f4c8b" opacity="0.82" />
<circle cx="699" cy="191" r="4" fill="#6f4c8b" opacity="0.77" />
<circle cx="33" cy="308" r="11" fill="#6f4c8b" opacity="0.68" />
<circle cx="839" cy="297" r="10" fill="#6f4c8b" opacity="0.87" />
<circle cx="633" cy="354" r="8" fill="#6f4c8b" opacity="0.56" />
<circle cx="134" cy="22" r="6" fill="#6f4c8b" opacity="0.75" />
<circle cx="830" cy="122" r="5" fill="#6f4c8b" opacity="0.65" />
<circle cx="751" cy="294" r="3" fill="#6f4c8b" opacity="0.86" />
<circle cx="87" cy="410" r="4" fill="#6f4c8b" opacity="0.72" />
<circle cx="795" cy="276" r="10" fill="#6f4c8b" opacity="0.69" />
<circle cx="322" cy="343" r="6" fill="#6f4c8b" opacity="0.70" />
<circle cx="455" cy="100" r="9" fill="#6f4c8b" opacity="0.71" />
<circle cx="87" cy="225" r="11" fill="#6f4c8b" opacity="0.86" />
<circle cx="863" cy="481" r="5" fill="#6f4c8b" opacity="0.74" />
<circle cx="241" cy="488" r="10" fill="#6f4c8b" opacity="0.67" />
<circle cx="327" cy="322" r="5" fill="#6f4c8b" opacity="0.89" />
<circle cx="304" cy="128" r="5" fill="#6f4c8b" opacity="0.59" />
<circle cx="346" cy="63" r="10" fill="#6f4c8b" opacity="0.72" />
<circle cx="449" cy="472" r="10" fill="#6f4c8b" opacity="0.66" />
<circle cx="856" cy="258" r="3" fill="#6f4c8b" opacity="0.60" />
<circle cx="70" cy="46" r="4" fill="#6f4c8b" opacity="0.72" />
<circle cx="252" cy="497" r="5" fill="#6f4c8b" opacity="0.81" />
<circle cx="405" cy="53" r="5" fill="#6f4c8b" opacity="0.88" />
<circle cx="891" cy="29" r="11" fill="#6f4c8b" opacity="0.84" />
<circle cx="476" cy="310" r="5" fill="#6f4c8b" opacity="0.61" />
<circle cx="759" cy="82" r="9" fill="#6f4c8b" opacity="0.74" />
<circle cx="576" cy="72" r="5" fill="#6f4c8b" opacity="0.75" />
<circle cx="106" cy="514" r="9" fill="#6f4c8b" opacity="0.62" />
<circle cx="80" cy="309" r="11" fill="#6f4c8b" opacity="0.61" />
<circle cx="429" cy="398" r="6" fill="#6f4c8b" opacity="0.70" />
<line x1="846" y1="455" x2="841" y2="395" stroke="#c889a0" stroke-width="1.59" opacity="0.2" />
<line x1="544" y1="7" x2="495" y2="49" stroke="#c889a0" stroke-width="1.68" opacity="0.2" />
<line x1="208" y1="473" x2="254" y2="464" stroke="#c889a0" stroke-width="3.45" opacity="0.2" />
<line x1="572" y1="279" x2="578" y2="285" stroke="#c889a0" stroke-width="1.51" opacity="0.2" />
<line x1="564" y1="482" x2="601" y2="425" stroke="#c889a0" stroke-width="2.89" opacity="0.2" />
<line x1="862" y1="308" x2="888" y2="252" stroke="#c889a0" stroke-width="2.56" opacity="0.2" />
<line x1="584" y1="315" x2="556" y2="269" stroke="#c889a0" stroke-width="2.17" opacity="0.2" />
<line x1="834" y1="549" x2="885" y2="514" stroke="#c889a0" stroke-width="3.35" opacity="0.2" />
<line x1="113" y1="57" x2="141" y2="43" stroke="#c889a0" stroke-width="2.71" opacity="0.2" />
<line x1="613" y1="571" x2="582" y2="619" stroke="#c889a0" stroke-width="2.03" opacity="0.2" />
<line x1="877" y1="268" x2="930" y2="284" stroke="#c889a0" stroke-width="2.57" opacity="0.2" />
<line x1="190" y1="192" x2="148" y2="182" stroke="#c889a0" stroke-width="2.36" opacity="0.2" />
<line x1="69" y1="253" x2="53" y2="212" stroke="#c889a0" stroke-width="3.25" opacity="0.2" />
<line x1="379" y1="543" x2="363" y2="494" stroke="#c889a0" stroke-width="1.74" opacity="0.2" />
<line x1="833" y1="71" x2="891" y2="92" stroke="#c889a0" stroke-width="2.50" opacity="0.2" />
<line x1="235" y1="181" x2="253" y2="143" stroke="#c889a0" stroke-width="2.22" opacity="0.2" />
<line x1="532" y1="320" x2="569" y2="354" stroke="#c889a0" stroke-width="1.87" opacity="0.2" />
<line x1="648" y1="172" x2="664" y2="228" stroke="#c889a0" stroke-width="2.41" opacity="0.2" />
<line x1="97" y1="458" x2="88" y2="449" stroke="#c889a0" stroke-width="3.01" opacity="0.2" />
<line x1="74" y1="493" x2="22" y2="470" stroke="#c889a0" stroke-width="1.02" opacity="0.2" />
<line x1="265" y1="505" x2="317" y2="531" stroke="#c889a0" stroke-width="1.01" opacity="0.2" />
<line x1="65" y1="14" x2="10" y2="47" stroke="#c889a0" stroke-width="1.61" opacity="0.2" />
<line x1="4" y1="311" x2="27" y2="281" stroke="#c889a0" stroke-width="2.10" opacity="0.2" />
<line x1="215" y1="14" x2="214" y2="20" stroke="#c889a0" stroke-width="2.45" opacity="0.2" />
<line x1="606" y1="239" x2="600" y2="290" stroke="#c889a0" stroke-width="1.16" opacity="0.2" />
<line x1="712" y1="226" x2="725" y2="275" stroke="#c889a0" stroke-width="1.76" opacity="0.2" />
<line x1="831" y1="42" x2="823" y2="66" stroke="#c889a0" stroke-width="1.75" opacity="0.2" />
<line x1="91" y1="286" x2="33" y2="254" stroke="#c889a0" stroke-width="1.55" opacity="0.2" />
<line x1="294" y1="17" x2="268" y2="-23" stroke="#c889a0" stroke-width="1.55" opacity="0.2" />
<line x1="575" y1="183" x2="578" y2="153" stroke="#c889a0" stroke-width="2.00" opacity="0.2" />
</svg>