<?xml version="1.0" encoding="UTF-8"?>
<svg xmlns="http://www.w3.org/2000/svg" width="900" height="600" viewBox="0 0 900 600">
<rect width="100%" height="100%" fill="#f7f0e8" />
<circle cx="775" cy="484" r="19" fill="#f0d2c0" opacity="0.39" />
<circle cx="772" cy="130" r="29" fill="#f0d2c0" opacity="0.49" />
<circle cx="91" cy="6" r="11" fill="#f0d2c0" opacity="0.55" />
<circle cx="526" cy="248" r="29" fill="#f0d2c0" opacity="0.60" />
<circle cx="283" cy="534" r="29" fill="#f0d2c0" opacity="0.37" />
<circle cx="370" cy="548" r="27" fill="#f0d2c0" opacity="0.56" />
<circle cx="844" cy="565" r="23" fill="#f0d2c0" opacity="0.49" />
<circle cx="12" cy="482" r="24" fill="#f0d2c0" opacity="0.53" />
<circle cx="581" cy="171" r="12" fill="#f0d2c0" opacity="0.35" />
<circle cx="100" cy="242" r="20" fill="#f0d2c0" opacity="0.57" />
<circle cx="770" cy="194" r="13" fill="#f0d2c0" opacity="0.60" />
<circle cx="866" cy="437" r="14" fill="#f0d2c0" opacity="0.41" />
<circle cx="891" cy="494" r="16" fill="#f0d2c0" opacity="0.45" />
<circle cx="266" cy="596" r="20" fill="#f0d2c0" opacity="0.40" />
<circle cx="853" cy="254" r="24" fill="#f0d2c0" opacity="0.59" />
<circle cx="724" cy="493" r="9" fill="#f0d2c0" opacity="0.47" />
<circle cx="754" cy="278" r="26" fill="#f0d2c0" opacity="0.51" />
<circle cx="400" cy="1" r="12" fill="#f0d2c0" opacity="0.48" />
<circle cx="217" cy="111" r="22" fill="#f0d2c0" opacity="0.38" />
<circle cx="583" cy="271" r="23" fill="#f0d2c0" opacity="0.40" />
<circle cx="143" cy="581" r="18" fill="#f0d2c0" opacity="0.55" />
<circle cx="333" cy="382" r="18" fill="#f0d2c0" opacity="0.46" />
<circle cx="73" cy="288" r="11" fill="#f0d2c0" opacity="0.55" />
<circle cx="381" cy="96" r="22" fill="#f0d2c0" opacity="0.54" />
<circle cx="125" cy="113" r="14" fill="#f0d2c0" opacity="0.50" />
<circle cx="538" cy="391" r="25" fill="#f0d2c0" opacity="0.56" />
<circle cx="476" cy="452" r="24" fill="#f0d2c0" opacity="0.57" />
<circle cx="432" cy="155" r="21" fill="#f0d2c0" opacity="0.52" />
<circle cx="875" cy="507" r="9" fill="#f0d2c0" opacity="0.36" />
<circle cx="50" cy="197" r="25" fill="#f0d2c0" opacity="0.49" />
<circle cx="479" cy="307" r="17" fill="#f0d2c0" opacity="0.58" />
<circle cx="475" cy="11" r="11" fill="#f0d2c0" opacity="0.43" />
<circle cx="42" cy="246" r="24" fill="#f0d2c0" opacity="0.37" />
<circle cx="111" cy="17" r="28" fill="#f0d2c0" opacity="0.44" />
<circle cx="14" cy="185" r="16" fill="#f0d2c0" opacity="0.59" />
<circle cx="634" cy="343" r="26" fill="#f0d2c0" opacity="0.55" />
<circle cx="126" cy="391" r="24" fill="#f0d2c0" opacity="0.35" />
<circle cx="317" cy="342" r="12" fill="#f0d2c0" opacity="0.41" />
<circle cx="606" cy="497" r="18" fill="#f0d2c0" opacity="0.36" />
<circle cx="836" cy="355" r="18" fill="#f0d2c0" opacity="0.38" />
<circle cx="321" cy="164" r="24" fill="#f0d2c0" opacity="0.39" />
<circle cx="451" cy="95" r="8" fill="#f0d2c0" opacity="0.55" />
<circle cx="777" cy="541" r="9" fill="#f0d2c0" opacity="0.50" />
<circle cx="535" cy="431" r="13" fill="#f0d2c0" opacity="0.44" />
<circle cx="297" cy="551" r="23" fill="#f0d2c0" opacity="0.45" />
<circle cx="191" cy="278" r="19" fill="#f0d2c0" opacity="0.58" />
<circle cx="43" cy="476" r="21" fill="#f0d2c0" opacity="0.38" />
<circle cx="687" cy="267" r="25" fill="#f0d2c0" opacity="0.38" />
<circle cx="193" cy="277" r="21" fill="#f0d2c0" opacity="0.43" />
<circle cx="464" cy="476" r="9" fill="#f0d2c0" opacity="0.56" />
<circle cx="596" cy="14" r="14" fill="#f0d2c0" opacity="0.44" />
<circle cx="781" cy="329" r="24" fill="#f0d2c0" opacity="0.52" />
<circle cx="383" cy="326" r="18" fill="#f0d2c0" opacity="0.56" />
<circle cx="328" cy="476" r="26" fill="#f0d2c0" opacity="0.36" />
<circle cx="403" cy="421" r="24" fill="#f0d2c0" opacity="0.46" />
<circle cx="314" cy="33" r="13" fill="#f0d2c0" opacity="0.44" />
<circle cx="801" cy="340" r="8" fill="#f0d2c0" opacity="0.45" />
<circle cx="47" cy="65" r="15" fill="#f0d2c0" opacity="0.45" />
<circle cx="564" cy="598" r="27" fill="#f0d2c0" opacity="0.52" />
<circle cx="834" cy="431" r="22" fill="#f0d2c0" opacity="0.36" />
<circle cx="293" cy="137" r="29" fill="#f0d2c0" opacity="0.47" />
<circle cx="612" cy="577" r="23" fill="#f0d2c0" opacity="0.42" />
<circle cx="18" cy="217" r="19" fill="#f0d2c0" opacity="0.45" />
<circle cx="516" cy="59" r="16" fill="#f0d2c0" opacity="0.39" />
<circle cx="386" cy="417" r="10" fill="#f0d2c0" opacity="0.54" />
<circle cx="425" cy="511" r="16" fill="#f0d2c0" opacity="0.53" />
<circle cx="231" cy="368" r="20" fill="#f0d2c0" opacity="0.35" />
<circle cx="896" cy="440" r="26" fill="#f0d2c0" opacity="0.44" />
<circle cx="205" cy="219" r="16" fill="#f0d2c0" opacity="0.40" />
<circle cx="189" cy="76" r="10" fill="#f0d2c0" opacity="0.37" />
<circle cx="270" cy="459" r="10" fill="#f0d2c0" opacity="0.53" />
<circle cx="750" cy="268" r="28" fill="#f0d2c0" opacity="0.56" />
<circle cx="887" cy="333" r="23" fill="#f0d2c0" opacity="0.57" />
<circle cx="734" cy="147" r="13" fill="#f0d2c0" opacity="0.37" />
<circle cx="308" cy="392" r="17" fill="#f0d2c0" opacity="0.57" />
<circle cx="194" cy="22" r="28" fill="#f0d2c0" opacity="0.36" />
<circle cx="437" cy="61" r="9" fill="#f0d2c0" opacity="0.57" />
<circle cx="442" cy="191" r="21" fill="#f0d2c0" opacity="0.58" />
<circle cx="545" cy="163" r="12" fill="#f0d2c0" opacity="0.51" />
<circle cx="431" cy="535" r="10" fill="#f0d2c0" opacity="0.35" />
<circle cx="218" cy="509" r="10" fill="#f0d2c0" opacity="0.36" />
<circle cx="21" cy="581" r="25" fill="#f0d2c0" opacity="0.42" />
<circle cx="588" cy="156" r="17" fill="#f0d2c0" opacity="0.47" />
<circle cx="167" cy="237" r="19" fill="#f0d2c0" opacity="0.41" />
<circle cx="265" cy="482" r="12" fill="#f0d2c0" opacity="0.49" />
<circle cx="570" cy="511" r="14" fill="#f0d2c0" opacity="0.40" />
<circle cx="414" cy="7" r="9" fill="#f0d2c0" opacity="0.53" />
<circle cx="562" cy="42" r="13" fill="#f0d2c0" opacity="0.39" />
<circle cx="303" cy="140" r="19" fill="#f0d2c0" opacity="0.45" />
<circle cx="279" cy="62" r="9" fill="#f0d2c0" opacity="0.51" />
<circle cx="318" cy="5" r="27" fill="#f0d2c0" opacity="0.48" />
<circle cx="384" cy="46" r="17" fill="#f0d2c0" opacity="0.51" />
<circle cx="863" cy="53" r="10" fill="#f0d2c0" opacity="0.59" />
<circle cx="508" cy="383" r="24" fill="#f0d2c0" opacity="0.42" />
<circle cx="849" cy="519" r="13" fill="#f0d2c0" opacity="0.51" />
<circle cx="240" cy="297" r="26" fill="#f0d2c0" opacity="0.45" />
<circle cx="584" cy="271" r="15" fill="#f0d2c0" opacity="0.53" />
<circle cx="531" cy="331" r="17" fill="#f0d2c0" opacity="0.49" />
<circle cx="36" cy="83" r="12" fill="#f0d2c0" opacity="0.51" />
<circle cx="297" cy="441" r="24" fill="#f0d2c0" opacity="0.59" />
<circle cx="167" cy="313" r="19" fill="#f0d2c0" opacity="0.40" />
<circle cx="897" cy="96" r="15" fill="#f0d2c0" opacity="0.56" />
<circle cx="146" cy="345" r="22" fill="#f0d2c0" opacity="0.52" />
<circle cx="51" cy="414" r="11" fill="#f0d2c0" opacity="0.58" />
<circle cx="413" cy="359" r="9" fill="#f0d2c0" opacity="0.54" />
<circle cx="892" cy="63" r="16" fill="#f0d2c0" opacity="0.38" />
<circle cx="626" cy="80" r="21" fill="#f0d2c0" opacity="0.57" />
<circle cx="483" cy="267" r="28" fill="#f0d2c0" opacity="0.46" />
<circle cx="198" cy="76" r="14" fill="#f0d2c0" opacity="0.42" />
<circle cx="781" cy="74" r="16" fill="#f0d2c0" opacity="0.59" />
<circle cx="33" cy="409" r="9" fill="#f0d2c0" opacity="0.42" />
<circle cx="413" cy="147" r="18" fill="#f0d2c0" opacity="0.46" />
<circle cx="818" cy="52" r="29" fill="#f0d2c0" opacity="0.39" />
<circle cx="493" cy="543" r="18" fill="#f0d2c0" opacity="0.41" />
<circle cx="593" cy="211" r="8" fill="#f0d2c0" opacity="0.49" />
<circle cx="432" cy="25" r="17" fill="#f0d2c0" opacity="0.46" />
<circle cx="793" cy="440" r="14" fill="#f0d2c0" opacity="0.56" />
<circle cx="163" cy="8" r="19" fill="#f0d2c0" opacity="0.41" />
<circle cx="132" cy="208" r="28" fill="#f0d2c0" opacity="0.38" />
<circle cx="82" cy="268" r="28" fill="#f0d2c0" opacity="0.49" />
<circle cx="253" cy="236" r="16" fill="#f0d2c0" opacity="0.52" />
<circle cx="393" cy="262" r="22" fill="#f0d2c0" opacity="0.41" />
<circle cx="737" cy="210" r="23" fill="#f0d2c0" opacity="0.50" />
<circle cx="526" cy="93" r="9" fill="#f0d2c0" opacity="0.45" />
<circle cx="65" cy="317" r="20" fill="#f0d2c0" opacity="0.60" />
<circle cx="819" cy="572" r="23" fill="#f0d2c0" opacity="0.51" />
<circle cx="40" cy="171" r="24" fill="#f0d2c0" opacity="0.49" />
<circle cx="716" cy="96" r="15" fill="#f0d2c0" opacity="0.57" />
<circle cx="873" cy="425" r="14" fill="#f0d2c0" opacity="0.41" />
<circle cx="493" cy="324" r="14" fill="#f0d2c0" opacity="0.55" />
<circle cx="506" cy="120" r="18" fill="#f0d2c0" opacity="0.47" />
<circle cx="552" cy="199" r="20" fill="#f0d2c0" opacity="0.50" />
<circle cx="514" cy="509" r="29" fill="#f0d2c0" opacity="0.41" />
<circle cx="727" cy="22" r="28" fill="#f0d2c0" opacity="0.37" />
<circle cx="631" cy="200" r="11" fill="#f0d2c0" opacity="0.37" />
<circle cx="591" cy="150" r="24" fill="#f0d2c0" opacity="0.56" />
<circle cx="212" cy="18" r="23" fill="#f0d2c0" opacity="0.43" />
<circle cx="804" cy="376" r="12" fill="#f0d2c0" opacity="0.51" />
<circle cx="399" cy="40" r="25" fill="#f0d2c0" opacity="0.51" />
<circle cx="408" cy="168" r="9" fill="#f0d2c0" opacity="0.55" />
<circle cx="34" cy="393" r="12" fill="#f0d2c0" opacity="0.44" />
<circle cx="651" cy="532" r="17" fill="#f0d2c0" opacity="0.60" />
<circle cx="59" cy="584" r="29" fill="#f0d2c0" opacity="0.58" />
<circle cx="798" cy="279" r="17" fill="#f0d2c0" opacity="0.58" />
<circle cx="693" cy="530" r="27" fill="#f0d2c0" opacity="0.53" />
<circle cx="325" cy="318" r="28" fill="#f0d2c0" opacity="0.46" />
<circle cx="844" cy="476" r="15" fill="#f0d2c0" opacity="0.43" />
<circle cx="206" cy="267" r="19" fill="#f0d2c0" opacity="0.42" />
<circle cx="698" cy="393" r="10" fill="#f0d2c0" opacity="0.50" />
<circle cx="400" cy="544" r="27" fill="#f0d2c0" opacity="0.52" />
<circle cx="402" cy="425" r="12" fill="#f0d2c0" opacity="0.51" />
<circle cx="454" cy="213" r="15" fill="#f0d2c0" opacity="0.53" />
<circle cx="36" cy="546" r="20" fill="#f0d2c0" opacity="0.38" />
<circle cx="798" cy="165" r="16" fill="#f0d2c0" opacity="0.52" />
<circle cx="82" cy="585" r="27" fill="#f0d2c0" opacity="0.39" />
<circle cx="607" cy="63" r="25" fill="#f0d2c0" opacity="0.36" />
<circle cx="372" cy="35" r="6" fill="#6f4c8b" opacity="0.59" />
<circle cx="24" cy="65" r="7" fill="#6f4c8b" opacity="0.71" />
<circle cx="252" cy="485" r="4" fill="#6f4c8b" opacity="0.83" />
<circle cx="220" cy="1" r="9" fill="#6f4c8b" opacity="0.67" />
<circle cx="841" cy="300" r="9" fill="#6f4c8b" opacity="0.58" />
<circle cx="272" cy="182" r="9" fill="#6f4c8b" opacity="0.58" />
<circle cx="0" cy="167" r="7" fill="#6f4c8b" opacity="0.79" />
<circle cx="557" cy="477" r="5" fill="#6f4c8b" opacity="0.86" />
<circle cx="694" cy="585" r="10" fill="#6f4c8b" opacity="0.90" />
<circle cx="631" cy="176" r="5" fill="#6f4c8b" opacity="0.77" />
<circle cx="773" cy="144" r="11" fill="#6f4c8b" opacity="0.79" />
<circle cx="691" cy="308" r="5" fill="#6f4c8b" opacity="0.89" />
<circle cx="491" cy="479" r="6" fill="#6f4c8b" opacity="0.81" />
<circle cx="102" cy="411" r="4" fill="#6f4c8b" opacity="0.59" />
<circle cx="838" cy="549" r="4" fill="#6f4c8b" opacity="0.81" />
<circle cx="865" cy="599" r="10" fill="#6f4c8b" opacity="0.58" />
<circle cx="456" cy="12" r="11" fill="#6f4c8b" opacity="0.56" />
<circle cx="221" cy="530" r="9" fill="#6f4c8b" opacity="0.84" />
<circle cx="798" cy="577" r="3" fill="#6f4c8b" opacity="0.68" />
<circle cx="465" cy="299" r="11" fill="#6f4c8b" opacity="0.68" />
<circle cx="685" cy="18" r="3" fill="#6f4c8b" opacity="0.73" />
<circle cx="790" cy="501" r="3" fill="#6f4c8b" opacity="0.57" />
<circle cx="46" cy="101" r="10" fill="#6f4c8b" opacity="0.59" />
<circle cx="620" cy="198" r="11" fill="#6f4c8b" opacity="0.89" />
<circle cx="691" cy="42" r="10" fill="#6f4c8b" opacity="0.79" />
<circle cx="198" cy="508" r="4" fill="#6f4c8b" opacity="0.79" />
<circle cx="792" cy="429" r="9" fill="#6f4c8b" opacity="0.86" />
<circle cx="263" cy="280" r="3" fill="#6f4c8b" opacity="0.89" />
<circle cx="154" cy="180" r="4" fill="#6f4c8b" opacity="0.64" />
<circle cx="465" cy="213" r="3" fill="#6f4c8b" opacity="0.72" />
<circle cx="702" cy="195" r="10" fill="#6f4c8b" opacity="0.67" />
<circle cx="671" cy="85" r="3" fill="#6f4c8b" opacity="0.85" />
<circle cx="467" cy="530" r="4" fill="#6f4c8b" opacity="0.84" />
<circle cx="63" cy="497" r="9" fill="#6f4c8b" opacity="0.80" />
<circle cx="696" cy="375" r="10" fill="#6f4c8b" opacity="0.76" />
<circle cx="595" cy="226" r="10" fill="#6f4c8b" opacity="0.87" />
<circle cx="286" cy="210" r="11" fill="#6f4c8b" opacity="0.70" />
<circle cx="725" cy="563" r="3" fill="#6f4c8b" opacity="0.68" />
<circle cx="568" cy="571" r="8" fill="#6f4c8b" opacity="0.65" />
<circle cx="205" cy="312" r="9" fill="#6f4c8b" opacity="0.56" />
<circle cx="792" cy="184" r="6" fill="#6f4c8b" opacity="0.72" />
<circle cx="875" cy="339" r="4" fill="#6f4c8b" opacity="0.73" />
<circle cx="539" cy="71" r="9" fill="#6f4c8b" opacity="0.68" />
<circle cx="632" cy="546" r="5" fill="#6f4c8b" opacity="0.58" />
<circle cx="854" cy="360" r="4" fill="#6f4c8b" opacity="0.64" />
<circle cx="85" cy="132" r="5" fill="#6f4c8b" opacity="0.78" />
<circle cx="855" cy="368" r="8" fill="#6f4c8b" opacity="0.78" />
<circle cx="520" cy="27" r="11" fill="#6f4c8b" opacity="0.68" />
<circle cx="114" cy="94" r="10" fill="#6f4c8b" opacity="0.85" />
<circle cx="739" cy="339" r="5" fill="#6f4c8b" opacity="0.67" />
<circle cx="673" cy="543" r="9" fill="#6f4c8b" opacity="0.77" />
<circle cx="571" cy="301" r="4" fill="#6f4c8b" opacity="0.81" />
<circle cx="540" cy="527" r="3" fill="#6f4c8b" opacity="0.77" />
<circle cx="392" cy="133" r="4" fill="#6f4c8b" opacity="0.70" />
<circle cx="589" cy="362" r="7" fill="#6f4c8b" opacity="0.68" />
<circle cx="536" cy="564" r="7" fill="#6f4c8b" opacity="0.57" />
<circle cx="104" cy="512" r="7" fill="#6f4c8b" opacity="0.81" />
<circle cx="594" cy="588" r="3" fill="#6f4c8b" opacity="0.65" />
<circle cx="173" cy="254" r="4" fill="#6f4c8b" opacity="0.81" />
<circle cx="843" cy="527" r="11" fill="#6f4c8b" opacity="0.63" />
<circle cx="764" cy="546" r="8" fill="#6f4c8b" opacity="0.65" />
<circle cx="146" cy="6" r="9" fill="#6f4c8b" opacity="0.77" />
<circle cx="747" cy="176" r="6" fill="#6f4c8b" opacity="0.64" />
<circle cx="787" cy="387" r="9" fill="#6f4c8b" opacity="0.72" />
<circle cx="810" cy="125" r="9" fill="#6f4c8b" opacity="0.85" />
<circle cx="235" cy="245" r="3" fill="#6f4c8b" opacity="0.76" />
<circle cx="747" cy="140" r="9" fill="#6f4c8b" opacity="0.87" />
<circle cx="751" cy="403" r="6" fill="#6f4c8b" opacity="0.59" />
<circle cx="876" cy="283" r="7" fill="#6f4c8b" opacity="0.69" />
<circle cx="852" cy="41" r="6" fill="#6f4c8b" opacity="0.77" />
<circle cx="798" cy="80" r="9" fill="#6f4c8b" opacity="0.73" />
<circle cx="682" cy="345" r="7" fill="#6f4c8b" opacity="0.83" />
<circle cx="665" cy="452" r="5" fill="#6f4c8b" opacity="0.64" />
<circle cx="238" cy="109" r="7" fill="#6f4c8b" opacity="0.67" />
<circle cx="425" cy="319" r="4" fill="#6f4c8b" opacity="0.70" />
<circle cx="463" cy="226" r="11" fill="#6f4c8b" opacity="0.80" />
<circle cx="806" cy="382" r="8" fill="#6f4c8b" opacity="0.76" />
<circle cx="334" cy="403" r="8" fill="#6f4c8b" opacity="0.69" />
<circle cx="710" cy="233" r="4" fill="#6f4c8b" opacity="0.63" />
<circle cx="649" cy="397" r="5" fill="#6f4c8b" opacity="0.55" />
<circle cx="473" cy="503" r="6" fill="#6f4c8b" opacity="0.78" />
<circle cx="785" cy="308" r="3" fill="#6f4c8b" opacity="0.74" />
<circle cx="730" cy="106" r="11" fill="#6f4c8b" opacity="0.76" />
<circle cx="895" cy="191" r="6" fill="#6f4c8b" opacity="0.67" />
<circle cx="880" cy="585" r="9" fill="#6f4c8b" opacity="0.57" />
<circle cx="510" cy="24" r="9" fill="#6f4c8b" opacity="0.83" />
<circle cx="402" cy="391" r="9" fill="#6f4c8b" opacity="0.88" />
<line x1="63" y1="31" x2="99" y2="-15" stroke="#c889a0" stroke-width="2.29" opacity="0.2" />
<line x1="580" y1="597" x2="587" y2="601" stroke="#c889a0" stroke-width="3.21" opacity="0.2" />
<line x1="322" y1="189" x2="298" y2="214" stroke="#c889a0" stroke-width="1.03" opacity="0.2" />
<line x1="779" y1="212" x2="771" y2="168" stroke="#c889a0" stroke-width="1.15" opacity="0.2" />
<line x1="309" y1="209" x2="358" y2="221" stroke="#c889a0" stroke-width="3.09" opacity="0.2" />
<line x1="710" y1="48" x2="736" y2="57" stroke="#c889a0" stroke-width="2.06" opacity="0.2" />
<line x1="337" y1="64" x2="301" y2="37" stroke="#c889a0" stroke-width="1.03" opacity="0.2" />
<line x1="385" y1="239" x2="391" y2="203" stroke="#c889a0" stroke-width="2.65" opacity="0.2" />
<line x1="240" y1="220" x2="244" y2="201" stroke="#c889a0" stroke-width="1.92" opacity="0.2" />
<line x1="700" y1="278" x2="705" y2="260" stroke="#c889a0" stroke-width="1.11" opacity="0.2" />
<line x1="1" y1="235" x2="-32" y2="221" stroke="#c889a0" stroke-width="1.50" opacity="0.2" />
<line x1="731" y1="46" x2="723" y2="20" stroke="#c889a0" stroke-width="1.59" opacity="0.2" />
<line x1="173" y1="101" x2="181" y2="80" stroke="#c889a0" stroke-width="2.33" opacity="0.2" />
<line x1="528" y1="527" x2="578" y2="509" stroke="#c889a0" stroke-width="2.67" opacity="0.2" />
<line x1="822" y1="541" x2="880" y2="582" stroke="#c889a0" stroke-width="2.00" opacity="0.2" />
<line x1="106" y1="403" x2="104" y2="447" stroke="#c889a0" stroke-width="2.51" opacity="0.2" />
<line x1="800" y1="447" x2="799" y2="430" stroke="#c889a0" stroke-width="1.29" opacity="0.2" />
<line x1="521" y1="396" x2="527" y2="400" stroke="#c889a0" stroke-width="1.08" opacity="0.2" />
<line x1="534" y1="348" x2="523" y2="307" stroke="#c889a0" stroke-width="3.44" opacity="0.2" />
<line x1="269" y1="122" x2="328" y2="117" stroke="#c889a0" stroke-width="2.75" opacity="0.2" />
<line x1="569" y1="284" x2="587" y2="242" stroke="#c889a0" stroke-width="3.39" opacity="0.2" />
<line x1="108" y1="212" x2="61" y2="234" stroke="#c889a0" stroke-width="1.23" opacity="0.2" />
<line x1="591" y1="87" x2="536" y2="129" stroke="#c889a0" stroke-width="1.82" opacity="0.2" />
<line x1="158" y1="209" x2="217" y2="195" stroke="#c889a0" stroke-width="1.30" opacity="0.2" />
<line x1="426" y1="237" x2="423" y2="238" stroke="#c889a0" stroke-width="1.51" opacity="0.2" />
<line x1="76" y1="391" x2="72" y2="391" stroke="#c889a0" stroke-width="1.54" opacity="0.2" />
<line x1="2" y1="529" x2="-32" y2="516" stroke="#c889a0" stroke-width="1.51" opacity="0.2" />
<line x1="874" y1="150" x2="909" y2="90" stroke="#c889a0" stroke-width="2.32" opacity="0.2" />
<line x1="547" y1="177" x2="521" y2="154" stroke="#c889a0" stroke-width="2.66" opacity="0.2" />
<line x1="297" y1="266" x2="260" y2="303" stroke="#c889a0" stroke-width="3.40" opacity="0.2" />
</svg>