<?xml version="1.0" encoding="UTF-8"?>
<svg xmlns="http://www.w3.org/2000/svg" width="900" height="600" viewBox="0 0 900 600">
<rect width="100%" height="100%" fill="#f5ebe0" />
<circle cx="555" cy="159" r="9" fill="#f1d4c2" opacity="0.45" />
<circle cx="815" cy="538" r="22" fill="#f1d4c2" opacity="0.48" />
<circle cx="436" cy="317" r="8" fill="#f1d4c2" opacity="0.56" />
<circle cx="574" cy="566" r="22" fill="#f1d4c2" opacity="0.35" />
<circle cx="628" cy="574" r="16" fill="#f1d4c2" opacity="0.54" />
<circle cx="0" cy="506" r="24" fill="#f1d4c2" opacity="0.44" />
<circle cx="27" cy="357" r="11" fill="#f1d4c2" opacity="0.42" />
<circle cx="831" cy="339" r="8" fill="#f1d4c2" opacity="0.54" />
<circle cx="344" cy="368" r="26" fill="#f1d4c2" opacity="0.54" />
<circle cx="92" cy="462" r="26" fill="#f1d4c2" opacity="0.57" />
<circle cx="520" cy="46" r="27" fill="#f1d4c2" opacity="0.37" />
<circle cx="534" cy="368" r="20" fill="#f1d4c2" opacity="0.52" />
<circle cx="681" cy="181" r="21" fill="#f1d4c2" opacity="0.52" />
<circle cx="589" cy="95" r="9" fill="#f1d4c2" opacity="0.37" />
<circle cx="772" cy="290" r="22" fill="#f1d4c2" opacity="0.46" />
<circle cx="289" cy="85" r="9" fill="#f1d4c2" opacity="0.59" />
<circle cx="94" cy="333" r="25" fill="#f1d4c2" opacity="0.53" />
<circle cx="851" cy="231" r="19" fill="#f1d4c2" opacity="0.46" />
<circle cx="694" cy="390" r="20" fill="#f1d4c2" opacity="0.39" />
<circle cx="368" cy="133" r="20" fill="#f1d4c2" opacity="0.43" />
<circle cx="158" cy="394" r="15" fill="#f1d4c2" opacity="0.45" />
<circle cx="96" cy="218" r="18" fill="#f1d4c2" opacity="0.43" />
<circle cx="283" cy="471" r="19" fill="#f1d4c2" opacity="0.43" />
<circle cx="13" cy="4" r="9" fill="#f1d4c2" opacity="0.50" />
<circle cx="367" cy="362" r="25" fill="#f1d4c2" opacity="0.37" />
<circle cx="797" cy="498" r="29" fill="#f1d4c2" opacity="0.45" />
<circle cx="298" cy="472" r="13" fill="#f1d4c2" opacity="0.45" />
<circle cx="392" cy="4" r="11" fill="#f1d4c2" opacity="0.49" />
<circle cx="538" cy="412" r="12" fill="#f1d4c2" opacity="0.41" />
<circle cx="693" cy="276" r="27" fill="#f1d4c2" opacity="0.56" />
<circle cx="482" cy="556" r="17" fill="#f1d4c2" opacity="0.51" />
<circle cx="420" cy="155" r="15" fill="#f1d4c2" opacity="0.51" />
<circle cx="841" cy="37" r="27" fill="#f1d4c2" opacity="0.54" />
<circle cx="458" cy="250" r="17" fill="#f1d4c2" opacity="0.48" />
<circle cx="542" cy="93" r="29" fill="#f1d4c2" opacity="0.58" />
<circle cx="235" cy="432" r="26" fill="#f1d4c2" opacity="0.40" />
<circle cx="254" cy="130" r="8" fill="#f1d4c2" opacity="0.47" />
<circle cx="735" cy="318" r="15" fill="#f1d4c2" opacity="0.46" />
<circle cx="894" cy="275" r="21" fill="#f1d4c2" opacity="0.53" />
<circle cx="495" cy="237" r="23" fill="#f1d4c2" opacity="0.50" />
<circle cx="671" cy="286" r="25" fill="#f1d4c2" opacity="0.36" />
<circle cx="835" cy="180" r="29" fill="#f1d4c2" opacity="0.40" />
<circle cx="895" cy="473" r="11" fill="#f1d4c2" opacity="0.54" />
<circle cx="599" cy="50" r="18" fill="#f1d4c2" opacity="0.47" />
<circle cx="101" cy="224" r="9" fill="#f1d4c2" opacity="0.56" />
<circle cx="19" cy="237" r="12" fill="#f1d4c2" opacity="0.39" />
<circle cx="655" cy="421" r="26" fill="#f1d4c2" opacity="0.60" />
<circle cx="211" cy="571" r="16" fill="#f1d4c2" opacity="0.58" />
<circle cx="873" cy="555" r="20" fill="#f1d4c2" opacity="0.59" />
<circle cx="859" cy="371" r="24" fill="#f1d4c2" opacity="0.49" />
<circle cx="584" cy="587" r="11" fill="#f1d4c2" opacity="0.52" />
<circle cx="364" cy="38" r="26" fill="#f1d4c2" opacity="0.38" />
<circle cx="2" cy="252" r="28" fill="#f1d4c2" opacity="0.49" />
<circle cx="211" cy="305" r="22" fill="#f1d4c2" opacity="0.54" />
<circle cx="170" cy="433" r="21" fill="#f1d4c2" opacity="0.59" />
<circle cx="731" cy="72" r="29" fill="#f1d4c2" opacity="0.56" />
<circle cx="502" cy="149" r="13" fill="#f1d4c2" opacity="0.43" />
<circle cx="827" cy="599" r="27" fill="#f1d4c2" opacity="0.49" />
<circle cx="69" cy="592" r="10" fill="#f1d4c2" opacity="0.38" />
<circle cx="218" cy="139" r="19" fill="#f1d4c2" opacity="0.47" />
<circle cx="714" cy="21" r="15" fill="#f1d4c2" opacity="0.53" />
<circle cx="611" cy="69" r="15" fill="#f1d4c2" opacity="0.57" />
<circle cx="18" cy="217" r="14" fill="#f1d4c2" opacity="0.38" />
<circle cx="804" cy="310" r="9" fill="#f1d4c2" opacity="0.56" />
<circle cx="570" cy="319" r="26" fill="#f1d4c2" opacity="0.50" />
<circle cx="510" cy="560" r="10" fill="#f1d4c2" opacity="0.44" />
<circle cx="423" cy="496" r="21" fill="#f1d4c2" opacity="0.45" />
<circle cx="853" cy="409" r="12" fill="#f1d4c2" opacity="0.50" />
<circle cx="828" cy="389" r="11" fill="#f1d4c2" opacity="0.60" />
<circle cx="569" cy="245" r="15" fill="#f1d4c2" opacity="0.37" />
<circle cx="443" cy="449" r="15" fill="#f1d4c2" opacity="0.48" />
<circle cx="873" cy="507" r="19" fill="#f1d4c2" opacity="0.35" />
<circle cx="732" cy="428" r="23" fill="#f1d4c2" opacity="0.38" />
<circle cx="45" cy="208" r="18" fill="#f1d4c2" opacity="0.52" />
<circle cx="35" cy="268" r="10" fill="#f1d4c2" opacity="0.51" />
<circle cx="797" cy="402" r="8" fill="#f1d4c2" opacity="0.51" />
<circle cx="641" cy="252" r="24" fill="#f1d4c2" opacity="0.35" />
<circle cx="228" cy="507" r="11" fill="#f1d4c2" opacity="0.48" />
<circle cx="842" cy="585" r="15" fill="#f1d4c2" opacity="0.55" />
<circle cx="867" cy="451" r="28" fill="#f1d4c2" opacity="0.49" />
<circle cx="883" cy="99" r="13" fill="#f1d4c2" opacity="0.50" />
<circle cx="301" cy="334" r="14" fill="#f1d4c2" opacity="0.53" />
<circle cx="821" cy="378" r="26" fill="#f1d4c2" opacity="0.58" />
<circle cx="595" cy="470" r="25" fill="#f1d4c2" opacity="0.43" />
<circle cx="598" cy="35" r="27" fill="#f1d4c2" opacity="0.41" />
<circle cx="132" cy="349" r="8" fill="#f1d4c2" opacity="0.38" />
<circle cx="828" cy="571" r="16" fill="#f1d4c2" opacity="0.39" />
<circle cx="128" cy="439" r="22" fill="#f1d4c2" opacity="0.54" />
<circle cx="291" cy="231" r="12" fill="#f1d4c2" opacity="0.54" />
<circle cx="766" cy="376" r="27" fill="#f1d4c2" opacity="0.52" />
<circle cx="565" cy="391" r="17" fill="#f1d4c2" opacity="0.46" />
<circle cx="624" cy="28" r="22" fill="#f1d4c2" opacity="0.47" />
<circle cx="588" cy="326" r="28" fill="#f1d4c2" opacity="0.59" />
<circle cx="653" cy="207" r="17" fill="#f1d4c2" opacity="0.52" />
<circle cx="473" cy="370" r="13" fill="#f1d4c2" opacity="0.43" />
<circle cx="492" cy="149" r="8" fill="#f1d4c2" opacity="0.45" />
<circle cx="130" cy="319" r="18" fill="#f1d4c2" opacity="0.51" />
<circle cx="336" cy="179" r="27" fill="#f1d4c2" opacity="0.49" />
<circle cx="562" cy="394" r="14" fill="#f1d4c2" opacity="0.40" />
<circle cx="648" cy="571" r="10" fill="#f1d4c2" opacity="0.49" />
<circle cx="760" cy="138" r="9" fill="#f1d4c2" opacity="0.47" />
<circle cx="731" cy="320" r="8" fill="#f1d4c2" opacity="0.39" />
<circle cx="154" cy="407" r="11" fill="#f1d4c2" opacity="0.46" />
<circle cx="249" cy="447" r="13" fill="#f1d4c2" opacity="0.37" />
<circle cx="164" cy="538" r="11" fill="#f1d4c2" opacity="0.41" />
<circle cx="404" cy="375" r="26" fill="#f1d4c2" opacity="0.42" />
<circle cx="884" cy="580" r="14" fill="#f1d4c2" opacity="0.46" />
<circle cx="196" cy="466" r="29" fill="#f1d4c2" opacity="0.46" />
<circle cx="686" cy="77" r="11" fill="#f1d4c2" opacity="0.43" />
<circle cx="221" cy="368" r="28" fill="#f1d4c2" opacity="0.53" />
<circle cx="645" cy="131" r="10" fill="#f1d4c2" opacity="0.45" />
<circle cx="389" cy="260" r="26" fill="#f1d4c2" opacity="0.37" />
<circle cx="465" cy="127" r="19" fill="#f1d4c2" opacity="0.37" />
<circle cx="814" cy="445" r="18" fill="#f1d4c2" opacity="0.47" />
<circle cx="819" cy="466" r="25" fill="#f1d4c2" opacity="0.46" />
<circle cx="652" cy="481" r="10" fill="#f1d4c2" opacity="0.57" />
<circle cx="130" cy="239" r="16" fill="#f1d4c2" opacity="0.37" />
<circle cx="265" cy="336" r="20" fill="#f1d4c2" opacity="0.45" />
<circle cx="671" cy="467" r="8" fill="#f1d4c2" opacity="0.55" />
<circle cx="419" cy="170" r="8" fill="#f1d4c2" opacity="0.48" />
<circle cx="279" cy="284" r="26" fill="#f1d4c2" opacity="0.47" />
<circle cx="333" cy="412" r="8" fill="#f1d4c2" opacity="0.60" />
<circle cx="287" cy="59" r="16" fill="#f1d4c2" opacity="0.42" />
<circle cx="307" cy="115" r="14" fill="#f1d4c2" opacity="0.51" />
<circle cx="571" cy="108" r="11" fill="#f1d4c2" opacity="0.44" />
<circle cx="122" cy="112" r="16" fill="#f1d4c2" opacity="0.55" />
<circle cx="710" cy="267" r="25" fill="#f1d4c2" opacity="0.40" />
<circle cx="828" cy="65" r="26" fill="#f1d4c2" opacity="0.47" />
<circle cx="795" cy="435" r="27" fill="#f1d4c2" opacity="0.59" />
<circle cx="40" cy="356" r="23" fill="#f1d4c2" opacity="0.43" />
<circle cx="301" cy="159" r="27" fill="#f1d4c2" opacity="0.46" />
<circle cx="73" cy="396" r="8" fill="#f1d4c2" opacity="0.43" />
<circle cx="699" cy="12" r="15" fill="#f1d4c2" opacity="0.39" />
<circle cx="696" cy="175" r="29" fill="#f1d4c2" opacity="0.40" />
<circle cx="204" cy="296" r="22" fill="#f1d4c2" opacity="0.39" />
<circle cx="448" cy="371" r="11" fill="#f1d4c2" opacity="0.40" />
<circle cx="854" cy="364" r="20" fill="#f1d4c2" opacity="0.37" />
<circle cx="656" cy="196" r="21" fill="#f1d4c2" opacity="0.50" />
<circle cx="44" cy="257" r="15" fill="#f1d4c2" opacity="0.37" />
<circle cx="769" cy="313" r="11" fill="#f1d4c2" opacity="0.40" />
<circle cx="459" cy="567" r="14" fill="#f1d4c2" opacity="0.49" />
<circle cx="473" cy="249" r="10" fill="#f1d4c2" opacity="0.57" />
<circle cx="278" cy="411" r="12" fill="#f1d4c2" opacity="0.42" />
<circle cx="870" cy="555" r="22" fill="#f1d4c2" opacity="0.53" />
<circle cx="235" cy="532" r="10" fill="#f1d4c2" opacity="0.45" />
<circle cx="708" cy="430" r="27" fill="#f1d4c2" opacity="0.50" />
<circle cx="660" cy="444" r="19" fill="#f1d4c2" opacity="0.58" />
<circle cx="264" cy="475" r="25" fill="#f1d4c2" opacity="0.54" />
<circle cx="541" cy="294" r="26" fill="#f1d4c2" opacity="0.58" />
<circle cx="222" cy="323" r="28" fill="#f1d4c2" opacity="0.53" />
<circle cx="540" cy="285" r="14" fill="#f1d4c2" opacity="0.39" />
<circle cx="390" cy="345" r="20" fill="#f1d4c2" opacity="0.55" />
<circle cx="665" cy="370" r="9" fill="#f1d4c2" opacity="0.44" />
<circle cx="539" cy="392" r="20" fill="#f1d4c2" opacity="0.57" />
<circle cx="475" cy="266" r="23" fill="#f1d4c2" opacity="0.39" />
<circle cx="107" cy="84" r="14" fill="#f1d4c2" opacity="0.37" />
<circle cx="150" cy="390" r="4" fill="#5f4b8b" opacity="0.71" />
<circle cx="233" cy="387" r="11" fill="#5f4b8b" opacity="0.85" />
<circle cx="240" cy="465" r="3" fill="#5f4b8b" opacity="0.79" />
<circle cx="501" cy="90" r="9" fill="#5f4b8b" opacity="0.89" />
<circle cx="362" cy="259" r="6" fill="#5f4b8b" opacity="0.87" />
<circle cx="759" cy="525" r="11" fill="#5f4b8b" opacity="0.56" />
<circle cx="739" cy="260" r="7" fill="#5f4b8b" opacity="0.56" />
<circle cx="656" cy="535" r="10" fill="#5f4b8b" opacity="0.87" />
<circle cx="300" cy="500" r="5" fill="#5f4b8b" opacity="0.78" />
<circle cx="395" cy="595" r="5" fill="#5f4b8b" opacity="0.83" />
<circle cx="477" cy="351" r="3" fill="#5f4b8b" opacity="0.84" />
<circle cx="620" cy="441" r="8" fill="#5f4b8b" opacity="0.75" />
<circle cx="642" cy="495" r="3" fill="#5f4b8b" opacity="0.73" />
<circle cx="745" cy="458" r="9" fill="#5f4b8b" opacity="0.57" />
<circle cx="775" cy="207" r="8" fill="#5f4b8b" opacity="0.76" />
<circle cx="793" cy="360" r="7" fill="#5f4b8b" opacity="0.76" />
<circle cx="898" cy="109" r="11" fill="#5f4b8b" opacity="0.76" />
<circle cx="466" cy="249" r="6" fill="#5f4b8b" opacity="0.72" />
<circle cx="886" cy="306" r="8" fill="#5f4b8b" opacity="0.57" />
<circle cx="10" cy="42" r="7" fill="#5f4b8b" opacity="0.84" />
<circle cx="822" cy="319" r="9" fill="#5f4b8b" opacity="0.74" />
<circle cx="837" cy="215" r="5" fill="#5f4b8b" opacity="0.59" />
<circle cx="266" cy="166" r="5" fill="#5f4b8b" opacity="0.78" />
<circle cx="257" cy="564" r="10" fill="#5f4b8b" opacity="0.81" />
<circle cx="253" cy="334" r="7" fill="#5f4b8b" opacity="0.69" />
<circle cx="564" cy="200" r="8" fill="#5f4b8b" opacity="0.69" />
<circle cx="373" cy="595" r="5" fill="#5f4b8b" opacity="0.60" />
<circle cx="896" cy="598" r="3" fill="#5f4b8b" opacity="0.62" />
<circle cx="526" cy="539" r="11" fill="#5f4b8b" opacity="0.62" />
<circle cx="179" cy="106" r="8" fill="#5f4b8b" opacity="0.80" />
<circle cx="832" cy="134" r="3" fill="#5f4b8b" opacity="0.55" />
<circle cx="675" cy="47" r="5" fill="#5f4b8b" opacity="0.80" />
<circle cx="718" cy="502" r="9" fill="#5f4b8b" opacity="0.88" />
<circle cx="438" cy="319" r="4" fill="#5f4b8b" opacity="0.84" />
<circle cx="485" cy="435" r="5" fill="#5f4b8b" opacity="0.88" />
<circle cx="862" cy="81" r="4" fill="#5f4b8b" opacity="0.63" />
<circle cx="336" cy="554" r="6" fill="#5f4b8b" opacity="0.78" />
<circle cx="828" cy="548" r="10" fill="#5f4b8b" opacity="0.86" />
<circle cx="899" cy="454" r="10" fill="#5f4b8b" opacity="0.71" />
<circle cx="256" cy="402" r="4" fill="#5f4b8b" opacity="0.69" />
<circle cx="687" cy="439" r="9" fill="#5f4b8b" opacity="0.60" />
<circle cx="252" cy="375" r="11" fill="#5f4b8b" opacity="0.69" />
<circle cx="466" cy="12" r="7" fill="#5f4b8b" opacity="0.74" />
<circle cx="247" cy="564" r="3" fill="#5f4b8b" opacity="0.76" />
<circle cx="729" cy="526" r="3" fill="#5f4b8b" opacity="0.84" />
<circle cx="435" cy="19" r="9" fill="#5f4b8b" opacity="0.76" />
<circle cx="333" cy="116" r="6" fill="#5f4b8b" opacity="0.74" />
<circle cx="824" cy="141" r="8" fill="#5f4b8b" opacity="0.58" />
<circle cx="6" cy="138" r="8" fill="#5f4b8b" opacity="0.80" />
<circle cx="162" cy="393" r="6" fill="#5f4b8b" opacity="0.82" />
<circle cx="760" cy="348" r="5" fill="#5f4b8b" opacity="0.71" />
<circle cx="461" cy="162" r="9" fill="#5f4b8b" opacity="0.78" />
<circle cx="430" cy="219" r="4" fill="#5f4b8b" opacity="0.55" />
<circle cx="736" cy="545" r="6" fill="#5f4b8b" opacity="0.73" />
<circle cx="718" cy="49" r="4" fill="#5f4b8b" opacity="0.76" />
<circle cx="888" cy="550" r="4" fill="#5f4b8b" opacity="0.81" />
<circle cx="22" cy="130" r="6" fill="#5f4b8b" opacity="0.74" />
<circle cx="80" cy="32" r="7" fill="#5f4b8b" opacity="0.82" />
<circle cx="579" cy="554" r="11" fill="#5f4b8b" opacity="0.79" />
<circle cx="213" cy="14" r="3" fill="#5f4b8b" opacity="0.66" />
<circle cx="740" cy="191" r="10" fill="#5f4b8b" opacity="0.64" />
<circle cx="896" cy="125" r="10" fill="#5f4b8b" opacity="0.83" />
<circle cx="152" cy="522" r="10" fill="#5f4b8b" opacity="0.85" />
<circle cx="276" cy="8" r="3" fill="#5f4b8b" opacity="0.58" />
<circle cx="297" cy="214" r="6" fill="#5f4b8b" opacity="0.85" />
<circle cx="863" cy="487" r="10" fill="#5f4b8b" opacity="0.70" />
<circle cx="561" cy="364" r="9" fill="#5f4b8b" opacity="0.69" />
<circle cx="426" cy="191" r="11" fill="#5f4b8b" opacity="0.87" />
<circle cx="316" cy="497" r="10" fill="#5f4b8b" opacity="0.81" />
<circle cx="576" cy="128" r="8" fill="#5f4b8b" opacity="0.65" />
<circle cx="667" cy="269" r="10" fill="#5f4b8b" opacity="0.59" />
<circle cx="687" cy="298" r="11" fill="#5f4b8b" opacity="0.66" />
<circle cx="75" cy="10" r="8" fill="#5f4b8b" opacity="0.58" />
<circle cx="350" cy="490" r="7" fill="#5f4b8b" opacity="0.83" />
<circle cx="764" cy="413" r="11" fill="#5f4b8b" opacity="0.58" />
<circle cx="473" cy="103" r="7" fill="#5f4b8b" opacity="0.55" />
<circle cx="280" cy="575" r="3" fill="#5f4b8b" opacity="0.66" />
<circle cx="192" cy="543" r="3" fill="#5f4b8b" opacity="0.82" />
<circle cx="755" cy="277" r="6" fill="#5f4b8b" opacity="0.83" />
<circle cx="498" cy="51" r="3" fill="#5f4b8b" opacity="0.66" />
<circle cx="636" cy="117" r="5" fill="#5f4b8b" opacity="0.63" />
<circle cx="217" cy="586" r="8" fill="#5f4b8b" opacity="0.72" />
<circle cx="196" cy="136" r="6" fill="#5f4b8b" opacity="0.62" />
<circle cx="668" cy="109" r="8" fill="#5f4b8b" opacity="0.70" />
<circle cx="579" cy="485" r="5" fill="#5f4b8b" opacity="0.80" />
<circle cx="494" cy="36" r="8" fill="#5f4b8b" opacity="0.90" />
<circle cx="373" cy="104" r="11" fill="#5f4b8b" opacity="0.78" />
<circle cx="594" cy="533" r="8" fill="#5f4b8b" opacity="0.82" />
<circle cx="221" cy="173" r="6" fill="#5f4b8b" opacity="0.58" />
<circle cx="182" cy="125" r="5" fill="#5f4b8b" opacity="0.82" />
<circle cx="200" cy="592" r="11" fill="#5f4b8b" opacity="0.89" />
<circle cx="692" cy="162" r="3" fill="#5f4b8b" opacity="0.69" />
<line x1="783" y1="530" x2="810" y2="533" stroke="#c17c74" stroke-width="2.25" opacity="0.2" />
<line x1="29" y1="12" x2="6" y2="36" stroke="#c17c74" stroke-width="2.67" opacity="0.2" />
<line x1="235" y1="181" x2="219" y2="134" stroke="#c17c74" stroke-width="2.53" opacity="0.2" />
<line x1="46" y1="142" x2="13" y2="153" stroke="#c17c74" stroke-width="2.33" opacity="0.2" />
<line x1="841" y1="289" x2="845" y2="231" stroke="#c17c74" stroke-width="3.49" opacity="0.2" />
<line x1="209" y1="23" x2="218" y2="47" stroke="#c17c74" stroke-width="3.25" opacity="0.2" />
<line x1="335" y1="32" x2="371" y2="25" stroke="#c17c74" stroke-width="3.36" opacity="0.2" />
<line x1="83" y1="312" x2="96" y2="297" stroke="#c17c74" stroke-width="1.33" opacity="0.2" />
<line x1="166" y1="458" x2="178" y2="400" stroke="#c17c74" stroke-width="1.05" opacity="0.2" />
<line x1="141" y1="465" x2="123" y2="409" stroke="#c17c74" stroke-width="3.18" opacity="0.2" />
<line x1="356" y1="104" x2="408" y2="54" stroke="#c17c74" stroke-width="1.89" opacity="0.2" />
<line x1="535" y1="479" x2="528" y2="506" stroke="#c17c74" stroke-width="3.06" opacity="0.2" />
<line x1="806" y1="317" x2="811" y2="295" stroke="#c17c74" stroke-width="2.90" opacity="0.2" />
<line x1="137" y1="478" x2="159" y2="461" stroke="#c17c74" stroke-width="2.34" opacity="0.2" />
<line x1="224" y1="51" x2="276" y2="24" stroke="#c17c74" stroke-width="3.20" opacity="0.2" />
<line x1="871" y1="289" x2="856" y2="330" stroke="#c17c74" stroke-width="2.33" opacity="0.2" />
<line x1="788" y1="358" x2="773" y2="394" stroke="#c17c74" stroke-width="1.40" opacity="0.2" />
<line x1="872" y1="225" x2="838" y2="270" stroke="#c17c74" stroke-width="2.14" opacity="0.2" />
<line x1="393" y1="519" x2="418" y2="511" stroke="#c17c74" stroke-width="2.69" opacity="0.2" />
<line x1="300" y1="384" x2="259" y2="397" stroke="#c17c74" stroke-width="2.98" opacity="0.2" />
<line x1="791" y1="169" x2="737" y2="211" stroke="#c17c74" stroke-width="2.60" opacity="0.2" />
<line x1="706" y1="291" x2="677" y2="272" stroke="#c17c74" stroke-width="2.24" opacity="0.2" />
<line x1="240" y1="31" x2="270" y2="27" stroke="#c17c74" stroke-width="1.51" opacity="0.2" />
<line x1="649" y1="223" x2="704" y2="214" stroke="#c17c74" stroke-width="1.75" opacity="0.2" />
<line x1="739" y1="437" x2="717" y2="405" stroke="#c17c74" stroke-width="2.93" opacity="0.2" />
<line x1="536" y1="556" x2="594" y2="504" stroke="#c17c74" stroke-width="1.44" opacity="0.2" />
<line x1="214" y1="113" x2="223" y2="96" stroke="#c17c74" stroke-width="3.39" opacity="0.2" />
<line x1="472" y1="260" x2="462" y2="206" stroke="#c17c74" stroke-width="1.69" opacity="0.2" />
<line x1="803" y1="233" x2="751" y2="287" stroke="#c17c74" stroke-width="3.47" opacity="0.2" />
<line x1="445" y1="98" x2="447" y2="38" stroke="#c17c74" stroke-width="1.77" opacity="0.2" />
</svg>