<?xml version="1.0" encoding="UTF-8"?>
<svg xmlns="http://www.w3.org/2000/svg" width="900" height="600" viewBox="0 0 900 600">
<rect width="100%" height="100%" fill="#f5ebe0" />
<circle cx="823" cy="129" r="8" fill="#f1d4c2" opacity="0.50" />
<circle cx="248" cy="387" r="27" fill="#f1d4c2" opacity="0.36" />
<circle cx="839" cy="231" r="17" fill="#f1d4c2" opacity="0.38" />
<circle cx="75" cy="529" r="8" fill="#f1d4c2" opacity="0.50" />
<circle cx="280" cy="78" r="21" fill="#f1d4c2" opacity="0.49" />
<circle cx="835" cy="499" r="13" fill="#f1d4c2" opacity="0.51" />
<circle cx="225" cy="78" r="25" fill="#f1d4c2" opacity="0.37" />
<circle cx="265" cy="498" r="11" fill="#f1d4c2" opacity="0.47" />
<circle cx="851" cy="212" r="12" fill="#f1d4c2" opacity="0.45" />
<circle cx="232" cy="372" r="21" fill="#f1d4c2" opacity="0.43" />
<circle cx="1" cy="47" r="15" fill="#f1d4c2" opacity="0.38" />
<circle cx="111" cy="286" r="25" fill="#f1d4c2" opacity="0.57" />
<circle cx="267" cy="261" r="20" fill="#f1d4c2" opacity="0.59" />
<circle cx="76" cy="277" r="27" fill="#f1d4c2" opacity="0.49" />
<circle cx="343" cy="141" r="14" fill="#f1d4c2" opacity="0.36" />
<circle cx="386" cy="63" r="10" fill="#f1d4c2" opacity="0.56" />
<circle cx="264" cy="402" r="26" fill="#f1d4c2" opacity="0.35" />
<circle cx="868" cy="219" r="14" fill="#f1d4c2" opacity="0.41" />
<circle cx="313" cy="145" r="24" fill="#f1d4c2" opacity="0.39" />
<circle cx="336" cy="307" r="14" fill="#f1d4c2" opacity="0.48" />
<circle cx="218" cy="35" r="9" fill="#f1d4c2" opacity="0.47" />
<circle cx="307" cy="546" r="8" fill="#f1d4c2" opacity="0.36" />
<circle cx="822" cy="562" r="13" fill="#f1d4c2" opacity="0.53" />
<circle cx="763" cy="577" r="26" fill="#f1d4c2" opacity="0.57" />
<circle cx="496" cy="455" r="17" fill="#f1d4c2" opacity="0.56" />
<circle cx="679" cy="507" r="22" fill="#f1d4c2" opacity="0.48" />
<circle cx="556" cy="0" r="10" fill="#f1d4c2" opacity="0.50" />
<circle cx="576" cy="12" r="9" fill="#f1d4c2" opacity="0.59" />
<circle cx="170" cy="216" r="29" fill="#f1d4c2" opacity="0.50" />
<circle cx="184" cy="236" r="26" fill="#f1d4c2" opacity="0.51" />
<circle cx="216" cy="93" r="13" fill="#f1d4c2" opacity="0.53" />
<circle cx="698" cy="563" r="28" fill="#f1d4c2" opacity="0.59" />
<circle cx="74" cy="63" r="13" fill="#f1d4c2" opacity="0.47" />
<circle cx="452" cy="402" r="18" fill="#f1d4c2" opacity="0.44" />
<circle cx="433" cy="244" r="12" fill="#f1d4c2" opacity="0.59" />
<circle cx="731" cy="148" r="25" fill="#f1d4c2" opacity="0.39" />
<circle cx="556" cy="158" r="15" fill="#f1d4c2" opacity="0.52" />
<circle cx="430" cy="114" r="17" fill="#f1d4c2" opacity="0.48" />
<circle cx="813" cy="395" r="28" fill="#f1d4c2" opacity="0.59" />
<circle cx="585" cy="118" r="12" fill="#f1d4c2" opacity="0.38" />
<circle cx="618" cy="413" r="16" fill="#f1d4c2" opacity="0.50" />
<circle cx="344" cy="502" r="15" fill="#f1d4c2" opacity="0.42" />
<circle cx="667" cy="588" r="29" fill="#f1d4c2" opacity="0.46" />
<circle cx="559" cy="118" r="27" fill="#f1d4c2" opacity="0.60" />
<circle cx="235" cy="454" r="16" fill="#f1d4c2" opacity="0.51" />
<circle cx="615" cy="276" r="16" fill="#f1d4c2" opacity="0.40" />
<circle cx="386" cy="186" r="14" fill="#f1d4c2" opacity="0.60" />
<circle cx="328" cy="222" r="13" fill="#f1d4c2" opacity="0.48" />
<circle cx="863" cy="307" r="25" fill="#f1d4c2" opacity="0.45" />
<circle cx="135" cy="460" r="10" fill="#f1d4c2" opacity="0.56" />
<circle cx="546" cy="110" r="16" fill="#f1d4c2" opacity="0.47" />
<circle cx="728" cy="203" r="25" fill="#f1d4c2" opacity="0.54" />
<circle cx="167" cy="213" r="25" fill="#f1d4c2" opacity="0.55" />
<circle cx="674" cy="131" r="19" fill="#f1d4c2" opacity="0.55" />
<circle cx="309" cy="337" r="23" fill="#f1d4c2" opacity="0.37" />
<circle cx="439" cy="77" r="24" fill="#f1d4c2" opacity="0.40" />
<circle cx="760" cy="70" r="10" fill="#f1d4c2" opacity="0.60" />
<circle cx="227" cy="392" r="10" fill="#f1d4c2" opacity="0.58" />
<circle cx="359" cy="467" r="8" fill="#f1d4c2" opacity="0.35" />
<circle cx="57" cy="396" r="20" fill="#f1d4c2" opacity="0.50" />
<circle cx="362" cy="526" r="14" fill="#f1d4c2" opacity="0.53" />
<circle cx="431" cy="553" r="26" fill="#f1d4c2" opacity="0.57" />
<circle cx="291" cy="452" r="24" fill="#f1d4c2" opacity="0.50" />
<circle cx="882" cy="539" r="14" fill="#f1d4c2" opacity="0.51" />
<circle cx="583" cy="218" r="16" fill="#f1d4c2" opacity="0.55" />
<circle cx="775" cy="185" r="29" fill="#f1d4c2" opacity="0.57" />
<circle cx="50" cy="319" r="28" fill="#f1d4c2" opacity="0.46" />
<circle cx="414" cy="558" r="10" fill="#f1d4c2" opacity="0.45" />
<circle cx="431" cy="154" r="20" fill="#f1d4c2" opacity="0.59" />
<circle cx="513" cy="381" r="23" fill="#f1d4c2" opacity="0.40" />
<circle cx="827" cy="303" r="21" fill="#f1d4c2" opacity="0.47" />
<circle cx="355" cy="344" r="10" fill="#f1d4c2" opacity="0.42" />
<circle cx="831" cy="531" r="9" fill="#f1d4c2" opacity="0.53" />
<circle cx="305" cy="463" r="16" fill="#f1d4c2" opacity="0.51" />
<circle cx="489" cy="538" r="10" fill="#f1d4c2" opacity="0.49" />
<circle cx="837" cy="319" r="15" fill="#f1d4c2" opacity="0.52" />
<circle cx="598" cy="124" r="16" fill="#f1d4c2" opacity="0.48" />
<circle cx="5" cy="227" r="9" fill="#f1d4c2" opacity="0.35" />
<circle cx="598" cy="30" r="18" fill="#f1d4c2" opacity="0.43" />
<circle cx="675" cy="227" r="24" fill="#f1d4c2" opacity="0.52" />
<circle cx="303" cy="43" r="21" fill="#f1d4c2" opacity="0.59" />
<circle cx="94" cy="295" r="22" fill="#f1d4c2" opacity="0.47" />
<circle cx="415" cy="63" r="24" fill="#f1d4c2" opacity="0.49" />
<circle cx="150" cy="520" r="16" fill="#f1d4c2" opacity="0.44" />
<circle cx="424" cy="459" r="16" fill="#f1d4c2" opacity="0.43" />
<circle cx="862" cy="540" r="13" fill="#f1d4c2" opacity="0.41" />
<circle cx="136" cy="510" r="23" fill="#f1d4c2" opacity="0.60" />
<circle cx="806" cy="562" r="19" fill="#f1d4c2" opacity="0.59" />
<circle cx="547" cy="379" r="29" fill="#f1d4c2" opacity="0.49" />
<circle cx="496" cy="200" r="26" fill="#f1d4c2" opacity="0.55" />
<circle cx="105" cy="366" r="29" fill="#f1d4c2" opacity="0.50" />
<circle cx="18" cy="187" r="15" fill="#f1d4c2" opacity="0.60" />
<circle cx="525" cy="376" r="12" fill="#f1d4c2" opacity="0.59" />
<circle cx="442" cy="298" r="25" fill="#f1d4c2" opacity="0.50" />
<circle cx="16" cy="303" r="14" fill="#f1d4c2" opacity="0.50" />
<circle cx="518" cy="100" r="21" fill="#f1d4c2" opacity="0.42" />
<circle cx="44" cy="457" r="8" fill="#f1d4c2" opacity="0.49" />
<circle cx="285" cy="400" r="28" fill="#f1d4c2" opacity="0.58" />
<circle cx="245" cy="439" r="20" fill="#f1d4c2" opacity="0.60" />
<circle cx="174" cy="461" r="12" fill="#f1d4c2" opacity="0.45" />
<circle cx="824" cy="161" r="9" fill="#f1d4c2" opacity="0.38" />
<circle cx="564" cy="468" r="20" fill="#f1d4c2" opacity="0.59" />
<circle cx="353" cy="249" r="12" fill="#f1d4c2" opacity="0.46" />
<circle cx="420" cy="186" r="28" fill="#f1d4c2" opacity="0.49" />
<circle cx="523" cy="460" r="25" fill="#f1d4c2" opacity="0.36" />
<circle cx="33" cy="271" r="24" fill="#f1d4c2" opacity="0.44" />
<circle cx="819" cy="379" r="22" fill="#f1d4c2" opacity="0.51" />
<circle cx="6" cy="386" r="20" fill="#f1d4c2" opacity="0.41" />
<circle cx="705" cy="98" r="27" fill="#f1d4c2" opacity="0.49" />
<circle cx="343" cy="355" r="11" fill="#f1d4c2" opacity="0.39" />
<circle cx="794" cy="425" r="15" fill="#f1d4c2" opacity="0.45" />
<circle cx="741" cy="102" r="17" fill="#f1d4c2" opacity="0.41" />
<circle cx="619" cy="277" r="20" fill="#f1d4c2" opacity="0.52" />
<circle cx="593" cy="262" r="16" fill="#f1d4c2" opacity="0.58" />
<circle cx="202" cy="527" r="12" fill="#f1d4c2" opacity="0.35" />
<circle cx="807" cy="238" r="9" fill="#f1d4c2" opacity="0.45" />
<circle cx="231" cy="509" r="25" fill="#f1d4c2" opacity="0.58" />
<circle cx="862" cy="170" r="26" fill="#f1d4c2" opacity="0.53" />
<circle cx="763" cy="561" r="9" fill="#f1d4c2" opacity="0.51" />
<circle cx="199" cy="551" r="15" fill="#f1d4c2" opacity="0.59" />
<circle cx="752" cy="550" r="9" fill="#f1d4c2" opacity="0.49" />
<circle cx="151" cy="266" r="25" fill="#f1d4c2" opacity="0.53" />
<circle cx="10" cy="245" r="10" fill="#f1d4c2" opacity="0.58" />
<circle cx="35" cy="385" r="22" fill="#f1d4c2" opacity="0.50" />
<circle cx="41" cy="303" r="16" fill="#f1d4c2" opacity="0.37" />
<circle cx="514" cy="496" r="8" fill="#f1d4c2" opacity="0.39" />
<circle cx="10" cy="309" r="20" fill="#f1d4c2" opacity="0.46" />
<circle cx="827" cy="316" r="14" fill="#f1d4c2" opacity="0.50" />
<circle cx="634" cy="506" r="29" fill="#f1d4c2" opacity="0.41" />
<circle cx="818" cy="217" r="21" fill="#f1d4c2" opacity="0.43" />
<circle cx="562" cy="514" r="23" fill="#f1d4c2" opacity="0.40" />
<circle cx="12" cy="279" r="29" fill="#f1d4c2" opacity="0.49" />
<circle cx="865" cy="306" r="13" fill="#f1d4c2" opacity="0.37" />
<circle cx="237" cy="162" r="9" fill="#f1d4c2" opacity="0.58" />
<circle cx="849" cy="321" r="22" fill="#f1d4c2" opacity="0.48" />
<circle cx="425" cy="115" r="26" fill="#f1d4c2" opacity="0.45" />
<circle cx="330" cy="215" r="11" fill="#f1d4c2" opacity="0.54" />
<circle cx="875" cy="212" r="12" fill="#f1d4c2" opacity="0.51" />
<circle cx="380" cy="582" r="21" fill="#f1d4c2" opacity="0.47" />
<circle cx="244" cy="547" r="24" fill="#f1d4c2" opacity="0.51" />
<circle cx="582" cy="506" r="9" fill="#f1d4c2" opacity="0.43" />
<circle cx="613" cy="440" r="17" fill="#f1d4c2" opacity="0.42" />
<circle cx="872" cy="505" r="15" fill="#f1d4c2" opacity="0.58" />
<circle cx="190" cy="400" r="21" fill="#f1d4c2" opacity="0.36" />
<circle cx="424" cy="561" r="13" fill="#f1d4c2" opacity="0.53" />
<circle cx="267" cy="408" r="21" fill="#f1d4c2" opacity="0.46" />
<circle cx="537" cy="151" r="13" fill="#f1d4c2" opacity="0.53" />
<circle cx="722" cy="520" r="24" fill="#f1d4c2" opacity="0.46" />
<circle cx="543" cy="118" r="24" fill="#f1d4c2" opacity="0.42" />
<circle cx="668" cy="563" r="25" fill="#f1d4c2" opacity="0.54" />
<circle cx="300" cy="151" r="22" fill="#f1d4c2" opacity="0.45" />
<circle cx="101" cy="6" r="20" fill="#f1d4c2" opacity="0.55" />
<circle cx="771" cy="427" r="9" fill="#f1d4c2" opacity="0.45" />
<circle cx="523" cy="441" r="9" fill="#f1d4c2" opacity="0.43" />
<circle cx="247" cy="390" r="8" fill="#f1d4c2" opacity="0.49" />
<circle cx="626" cy="357" r="22" fill="#f1d4c2" opacity="0.54" />
<circle cx="620" cy="380" r="8" fill="#f1d4c2" opacity="0.52" />
<circle cx="225" cy="438" r="8" fill="#f1d4c2" opacity="0.55" />
<circle cx="894" cy="406" r="10" fill="#f1d4c2" opacity="0.37" />
<circle cx="184" cy="255" r="18" fill="#f1d4c2" opacity="0.59" />
<circle cx="516" cy="393" r="18" fill="#f1d4c2" opacity="0.51" />
<circle cx="119" cy="191" r="28" fill="#f1d4c2" opacity="0.50" />
<circle cx="66" cy="72" r="8" fill="#5f4b8b" opacity="0.76" />
<circle cx="102" cy="553" r="4" fill="#5f4b8b" opacity="0.75" />
<circle cx="757" cy="459" r="8" fill="#5f4b8b" opacity="0.77" />
<circle cx="262" cy="9" r="5" fill="#5f4b8b" opacity="0.82" />
<circle cx="565" cy="510" r="4" fill="#5f4b8b" opacity="0.62" />
<circle cx="524" cy="573" r="5" fill="#5f4b8b" opacity="0.74" />
<circle cx="631" cy="281" r="4" fill="#5f4b8b" opacity="0.61" />
<circle cx="845" cy="28" r="3" fill="#5f4b8b" opacity="0.66" />
<circle cx="240" cy="482" r="4" fill="#5f4b8b" opacity="0.87" />
<circle cx="205" cy="153" r="10" fill="#5f4b8b" opacity="0.68" />
<circle cx="630" cy="440" r="7" fill="#5f4b8b" opacity="0.77" />
<circle cx="666" cy="599" r="3" fill="#5f4b8b" opacity="0.82" />
<circle cx="470" cy="313" r="7" fill="#5f4b8b" opacity="0.85" />
<circle cx="697" cy="77" r="10" fill="#5f4b8b" opacity="0.87" />
<circle cx="309" cy="174" r="11" fill="#5f4b8b" opacity="0.89" />
<circle cx="90" cy="160" r="4" fill="#5f4b8b" opacity="0.68" />
<circle cx="232" cy="592" r="6" fill="#5f4b8b" opacity="0.58" />
<circle cx="827" cy="524" r="3" fill="#5f4b8b" opacity="0.71" />
<circle cx="622" cy="426" r="3" fill="#5f4b8b" opacity="0.74" />
<circle cx="41" cy="395" r="8" fill="#5f4b8b" opacity="0.60" />
<circle cx="703" cy="455" r="9" fill="#5f4b8b" opacity="0.56" />
<circle cx="383" cy="565" r="3" fill="#5f4b8b" opacity="0.84" />
<circle cx="0" cy="199" r="10" fill="#5f4b8b" opacity="0.84" />
<circle cx="893" cy="1" r="7" fill="#5f4b8b" opacity="0.58" />
<circle cx="175" cy="149" r="4" fill="#5f4b8b" opacity="0.64" />
<circle cx="855" cy="299" r="10" fill="#5f4b8b" opacity="0.70" />
<circle cx="137" cy="583" r="6" fill="#5f4b8b" opacity="0.59" />
<circle cx="492" cy="227" r="6" fill="#5f4b8b" opacity="0.55" />
<circle cx="235" cy="116" r="6" fill="#5f4b8b" opacity="0.64" />
<circle cx="552" cy="521" r="6" fill="#5f4b8b" opacity="0.65" />
<circle cx="536" cy="150" r="3" fill="#5f4b8b" opacity="0.68" />
<circle cx="487" cy="119" r="8" fill="#5f4b8b" opacity="0.83" />
<circle cx="895" cy="467" r="4" fill="#5f4b8b" opacity="0.57" />
<circle cx="672" cy="19" r="9" fill="#5f4b8b" opacity="0.79" />
<circle cx="512" cy="347" r="11" fill="#5f4b8b" opacity="0.88" />
<circle cx="689" cy="328" r="7" fill="#5f4b8b" opacity="0.81" />
<circle cx="844" cy="409" r="11" fill="#5f4b8b" opacity="0.60" />
<circle cx="543" cy="497" r="5" fill="#5f4b8b" opacity="0.56" />
<circle cx="694" cy="468" r="4" fill="#5f4b8b" opacity="0.65" />
<circle cx="384" cy="330" r="4" fill="#5f4b8b" opacity="0.66" />
<circle cx="17" cy="399" r="4" fill="#5f4b8b" opacity="0.72" />
<circle cx="648" cy="239" r="10" fill="#5f4b8b" opacity="0.74" />
<circle cx="376" cy="218" r="8" fill="#5f4b8b" opacity="0.63" />
<circle cx="577" cy="436" r="8" fill="#5f4b8b" opacity="0.86" />
<circle cx="151" cy="29" r="11" fill="#5f4b8b" opacity="0.79" />
<circle cx="33" cy="451" r="10" fill="#5f4b8b" opacity="0.60" />
<circle cx="765" cy="29" r="5" fill="#5f4b8b" opacity="0.62" />
<circle cx="223" cy="515" r="5" fill="#5f4b8b" opacity="0.89" />
<circle cx="126" cy="598" r="5" fill="#5f4b8b" opacity="0.66" />
<circle cx="321" cy="171" r="10" fill="#5f4b8b" opacity="0.80" />
<circle cx="572" cy="491" r="3" fill="#5f4b8b" opacity="0.87" />
<circle cx="185" cy="234" r="5" fill="#5f4b8b" opacity="0.70" />
<circle cx="803" cy="109" r="3" fill="#5f4b8b" opacity="0.62" />
<circle cx="515" cy="512" r="7" fill="#5f4b8b" opacity="0.88" />
<circle cx="766" cy="425" r="6" fill="#5f4b8b" opacity="0.88" />
<circle cx="65" cy="534" r="4" fill="#5f4b8b" opacity="0.81" />
<circle cx="187" cy="320" r="9" fill="#5f4b8b" opacity="0.62" />
<circle cx="123" cy="5" r="5" fill="#5f4b8b" opacity="0.86" />
<circle cx="315" cy="19" r="7" fill="#5f4b8b" opacity="0.69" />
<circle cx="830" cy="76" r="6" fill="#5f4b8b" opacity="0.69" />
<circle cx="613" cy="92" r="6" fill="#5f4b8b" opacity="0.75" />
<circle cx="488" cy="421" r="8" fill="#5f4b8b" opacity="0.71" />
<circle cx="420" cy="166" r="7" fill="#5f4b8b" opacity="0.80" />
<circle cx="216" cy="80" r="8" fill="#5f4b8b" opacity="0.64" />
<circle cx="722" cy="477" r="7" fill="#5f4b8b" opacity="0.60" />
<circle cx="375" cy="301" r="6" fill="#5f4b8b" opacity="0.80" />
<circle cx="461" cy="49" r="5" fill="#5f4b8b" opacity="0.57" />
<circle cx="719" cy="448" r="9" fill="#5f4b8b" opacity="0.58" />
<circle cx="590" cy="368" r="7" fill="#5f4b8b" opacity="0.82" />
<circle cx="648" cy="60" r="7" fill="#5f4b8b" opacity="0.73" />
<circle cx="144" cy="62" r="9" fill="#5f4b8b" opacity="0.81" />
<circle cx="55" cy="429" r="4" fill="#5f4b8b" opacity="0.67" />
<circle cx="867" cy="413" r="8" fill="#5f4b8b" opacity="0.78" />
<circle cx="178" cy="380" r="4" fill="#5f4b8b" opacity="0.61" />
<circle cx="732" cy="342" r="4" fill="#5f4b8b" opacity="0.70" />
<circle cx="376" cy="585" r="11" fill="#5f4b8b" opacity="0.79" />
<circle cx="384" cy="587" r="6" fill="#5f4b8b" opacity="0.90" />
<circle cx="331" cy="363" r="6" fill="#5f4b8b" opacity="0.75" />
<circle cx="754" cy="8" r="3" fill="#5f4b8b" opacity="0.62" />
<circle cx="874" cy="184" r="4" fill="#5f4b8b" opacity="0.61" />
<circle cx="267" cy="211" r="11" fill="#5f4b8b" opacity="0.66" />
<circle cx="627" cy="87" r="7" fill="#5f4b8b" opacity="0.85" />
<circle cx="265" cy="510" r="8" fill="#5f4b8b" opacity="0.88" />
<circle cx="523" cy="290" r="8" fill="#5f4b8b" opacity="0.89" />
<circle cx="689" cy="436" r="3" fill="#5f4b8b" opacity="0.75" />
<circle cx="653" cy="430" r="7" fill="#5f4b8b" opacity="0.62" />
<circle cx="550" cy="276" r="9" fill="#5f4b8b" opacity="0.83" />
<circle cx="229" cy="525" r="11" fill="#5f4b8b" opacity="0.75" />
<circle cx="835" cy="436" r="10" fill="#5f4b8b" opacity="0.87" />
<circle cx="674" cy="573" r="10" fill="#5f4b8b" opacity="0.83" />
<circle cx="165" cy="451" r="9" fill="#5f4b8b" opacity="0.82" />
<circle cx="387" cy="266" r="3" fill="#5f4b8b" opacity="0.60" />
<circle cx="504" cy="211" r="3" fill="#5f4b8b" opacity="0.74" />
<circle cx="623" cy="147" r="11" fill="#5f4b8b" opacity="0.73" />
<circle cx="183" cy="336" r="7" fill="#5f4b8b" opacity="0.73" />
<circle cx="826" cy="408" r="11" fill="#5f4b8b" opacity="0.59" />
<circle cx="270" cy="95" r="5" fill="#5f4b8b" opacity="0.68" />
<circle cx="73" cy="224" r="5" fill="#5f4b8b" opacity="0.79" />
<circle cx="897" cy="507" r="10" fill="#5f4b8b" opacity="0.60" />
<circle cx="416" cy="469" r="10" fill="#5f4b8b" opacity="0.62" />
<circle cx="40" cy="51" r="10" fill="#5f4b8b" opacity="0.62" />
<circle cx="849" cy="485" r="9" fill="#5f4b8b" opacity="0.71" />
<line x1="261" y1="454" x2="255" y2="473" stroke="#c17c74" stroke-width="3.31" opacity="0.2" />
<line x1="808" y1="150" x2="816" y2="135" stroke="#c17c74" stroke-width="1.44" opacity="0.2" />
<line x1="260" y1="539" x2="305" y2="480" stroke="#c17c74" stroke-width="1.92" opacity="0.2" />
<line x1="35" y1="310" x2="21" y2="280" stroke="#c17c74" stroke-width="2.74" opacity="0.2" />
<line x1="377" y1="40" x2="358" y2="18" stroke="#c17c74" stroke-width="1.66" opacity="0.2" />
<line x1="671" y1="138" x2="634" y2="160" stroke="#c17c74" stroke-width="3.23" opacity="0.2" />
<line x1="134" y1="380" x2="92" y2="429" stroke="#c17c74" stroke-width="3.17" opacity="0.2" />
<line x1="792" y1="43" x2="759" y2="-13" stroke="#c17c74" stroke-width="2.74" opacity="0.2" />
<line x1="322" y1="273" x2="298" y2="228" stroke="#c17c74" stroke-width="1.51" opacity="0.2" />
<line x1="753" y1="395" x2="704" y2="424" stroke="#c17c74" stroke-width="1.22" opacity="0.2" />
<line x1="32" y1="129" x2="-13" y2="122" stroke="#c17c74" stroke-width="2.35" opacity="0.2" />
<line x1="330" y1="304" x2="317" y2="331" stroke="#c17c74" stroke-width="1.24" opacity="0.2" />
<line x1="752" y1="279" x2="720" y2="223" stroke="#c17c74" stroke-width="2.79" opacity="0.2" />
<line x1="225" y1="217" x2="225" y2="235" stroke="#c17c74" stroke-width="1.34" opacity="0.2" />
<line x1="329" y1="421" x2="317" y2="438" stroke="#c17c74" stroke-width="1.73" opacity="0.2" />
<line x1="6" y1="522" x2="-1" y2="472" stroke="#c17c74" stroke-width="3.13" opacity="0.2" />
<line x1="634" y1="123" x2="603" y2="158" stroke="#c17c74" stroke-width="3.35" opacity="0.2" />
<line x1="132" y1="203" x2="141" y2="182" stroke="#c17c74" stroke-width="2.77" opacity="0.2" />
<line x1="324" y1="306" x2="345" y2="258" stroke="#c17c74" stroke-width="2.31" opacity="0.2" />
<line x1="488" y1="325" x2="547" y2="338" stroke="#c17c74" stroke-width="2.50" opacity="0.2" />
<line x1="664" y1="456" x2="701" y2="412" stroke="#c17c74" stroke-width="1.82" opacity="0.2" />
<line x1="377" y1="496" x2="332" y2="460" stroke="#c17c74" stroke-width="2.95" opacity="0.2" />
<line x1="278" y1="35" x2="277" y2="80" stroke="#c17c74" stroke-width="2.38" opacity="0.2" />
<line x1="540" y1="488" x2="563" y2="491" stroke="#c17c74" stroke-width="2.67" opacity="0.2" />
<line x1="847" y1="140" x2="884" y2="88" stroke="#c17c74" stroke-width="1.15" opacity="0.2" />
<line x1="291" y1="476" x2="347" y2="443" stroke="#c17c74" stroke-width="1.48" opacity="0.2" />
<line x1="623" y1="500" x2="595" y2="550" stroke="#c17c74" stroke-width="2.77" opacity="0.2" />
<line x1="538" y1="189" x2="515" y2="143" stroke="#c17c74" stroke-width="1.24" opacity="0.2" />
<line x1="469" y1="324" x2="465" y2="324" stroke="#c17c74" stroke-width="2.99" opacity="0.2" />
<line x1="883" y1="415" x2="864" y2="365" stroke="#c17c74" stroke-width="1.33" opacity="0.2" />
</svg>