<?xml version="1.0" encoding="UTF-8"?>
<svg xmlns="http://www.w3.org/2000/svg" width="900" height="600" viewBox="0 0 900 600">
<rect width="100%" height="100%" fill="#f5ebe0" />
<circle cx="387" cy="150" r="27" fill="#f1d4c2" opacity="0.50" />
<circle cx="143" cy="181" r="12" fill="#f1d4c2" opacity="0.53" />
<circle cx="386" cy="432" r="19" fill="#f1d4c2" opacity="0.40" />
<circle cx="469" cy="551" r="28" fill="#f1d4c2" opacity="0.57" />
<circle cx="434" cy="509" r="15" fill="#f1d4c2" opacity="0.56" />
<circle cx="870" cy="254" r="21" fill="#f1d4c2" opacity="0.51" />
<circle cx="875" cy="444" r="16" fill="#f1d4c2" opacity="0.50" />
<circle cx="813" cy="139" r="14" fill="#f1d4c2" opacity="0.49" />
<circle cx="100" cy="191" r="20" fill="#f1d4c2" opacity="0.48" />
<circle cx="838" cy="7" r="28" fill="#f1d4c2" opacity="0.49" />
<circle cx="860" cy="86" r="25" fill="#f1d4c2" opacity="0.55" />
<circle cx="398" cy="145" r="25" fill="#f1d4c2" opacity="0.54" />
<circle cx="72" cy="35" r="15" fill="#f1d4c2" opacity="0.45" />
<circle cx="727" cy="396" r="28" fill="#f1d4c2" opacity="0.55" />
<circle cx="497" cy="393" r="11" fill="#f1d4c2" opacity="0.50" />
<circle cx="775" cy="115" r="29" fill="#f1d4c2" opacity="0.37" />
<circle cx="86" cy="551" r="25" fill="#f1d4c2" opacity="0.37" />
<circle cx="505" cy="473" r="22" fill="#f1d4c2" opacity="0.39" />
<circle cx="740" cy="85" r="28" fill="#f1d4c2" opacity="0.38" />
<circle cx="205" cy="68" r="19" fill="#f1d4c2" opacity="0.46" />
<circle cx="596" cy="99" r="16" fill="#f1d4c2" opacity="0.47" />
<circle cx="764" cy="304" r="24" fill="#f1d4c2" opacity="0.49" />
<circle cx="773" cy="308" r="13" fill="#f1d4c2" opacity="0.36" />
<circle cx="102" cy="513" r="19" fill="#f1d4c2" opacity="0.47" />
<circle cx="61" cy="126" r="27" fill="#f1d4c2" opacity="0.45" />
<circle cx="110" cy="326" r="11" fill="#f1d4c2" opacity="0.51" />
<circle cx="522" cy="327" r="18" fill="#f1d4c2" opacity="0.39" />
<circle cx="781" cy="198" r="9" fill="#f1d4c2" opacity="0.48" />
<circle cx="813" cy="163" r="10" fill="#f1d4c2" opacity="0.49" />
<circle cx="310" cy="285" r="14" fill="#f1d4c2" opacity="0.48" />
<circle cx="587" cy="15" r="18" fill="#f1d4c2" opacity="0.37" />
<circle cx="485" cy="23" r="25" fill="#f1d4c2" opacity="0.35" />
<circle cx="186" cy="280" r="23" fill="#f1d4c2" opacity="0.42" />
<circle cx="378" cy="276" r="21" fill="#f1d4c2" opacity="0.39" />
<circle cx="196" cy="468" r="27" fill="#f1d4c2" opacity="0.39" />
<circle cx="885" cy="10" r="27" fill="#f1d4c2" opacity="0.53" />
<circle cx="732" cy="274" r="22" fill="#f1d4c2" opacity="0.49" />
<circle cx="743" cy="229" r="15" fill="#f1d4c2" opacity="0.43" />
<circle cx="647" cy="390" r="18" fill="#f1d4c2" opacity="0.46" />
<circle cx="590" cy="589" r="10" fill="#f1d4c2" opacity="0.58" />
<circle cx="119" cy="494" r="29" fill="#f1d4c2" opacity="0.53" />
<circle cx="205" cy="208" r="20" fill="#f1d4c2" opacity="0.47" />
<circle cx="578" cy="544" r="28" fill="#f1d4c2" opacity="0.51" />
<circle cx="699" cy="553" r="28" fill="#f1d4c2" opacity="0.51" />
<circle cx="373" cy="349" r="25" fill="#f1d4c2" opacity="0.51" />
<circle cx="600" cy="355" r="20" fill="#f1d4c2" opacity="0.37" />
<circle cx="127" cy="432" r="18" fill="#f1d4c2" opacity="0.37" />
<circle cx="678" cy="450" r="24" fill="#f1d4c2" opacity="0.55" />
<circle cx="431" cy="520" r="13" fill="#f1d4c2" opacity="0.53" />
<circle cx="643" cy="51" r="15" fill="#f1d4c2" opacity="0.53" />
<circle cx="362" cy="107" r="14" fill="#f1d4c2" opacity="0.38" />
<circle cx="322" cy="65" r="29" fill="#f1d4c2" opacity="0.47" />
<circle cx="770" cy="87" r="19" fill="#f1d4c2" opacity="0.53" />
<circle cx="837" cy="514" r="13" fill="#f1d4c2" opacity="0.42" />
<circle cx="770" cy="502" r="13" fill="#f1d4c2" opacity="0.42" />
<circle cx="248" cy="321" r="28" fill="#f1d4c2" opacity="0.37" />
<circle cx="362" cy="359" r="23" fill="#f1d4c2" opacity="0.47" />
<circle cx="856" cy="250" r="29" fill="#f1d4c2" opacity="0.51" />
<circle cx="226" cy="562" r="19" fill="#f1d4c2" opacity="0.44" />
<circle cx="306" cy="391" r="9" fill="#f1d4c2" opacity="0.41" />
<circle cx="464" cy="377" r="9" fill="#f1d4c2" opacity="0.53" />
<circle cx="828" cy="95" r="17" fill="#f1d4c2" opacity="0.50" />
<circle cx="587" cy="208" r="9" fill="#f1d4c2" opacity="0.53" />
<circle cx="573" cy="483" r="27" fill="#f1d4c2" opacity="0.44" />
<circle cx="819" cy="254" r="8" fill="#f1d4c2" opacity="0.49" />
<circle cx="764" cy="245" r="28" fill="#f1d4c2" opacity="0.56" />
<circle cx="306" cy="314" r="17" fill="#f1d4c2" opacity="0.48" />
<circle cx="360" cy="564" r="8" fill="#f1d4c2" opacity="0.47" />
<circle cx="596" cy="228" r="14" fill="#f1d4c2" opacity="0.50" />
<circle cx="607" cy="216" r="29" fill="#f1d4c2" opacity="0.40" />
<circle cx="894" cy="84" r="8" fill="#f1d4c2" opacity="0.50" />
<circle cx="568" cy="221" r="27" fill="#f1d4c2" opacity="0.39" />
<circle cx="101" cy="72" r="26" fill="#f1d4c2" opacity="0.46" />
<circle cx="131" cy="427" r="14" fill="#f1d4c2" opacity="0.36" />
<circle cx="874" cy="65" r="28" fill="#f1d4c2" opacity="0.46" />
<circle cx="37" cy="513" r="11" fill="#f1d4c2" opacity="0.42" />
<circle cx="554" cy="476" r="28" fill="#f1d4c2" opacity="0.59" />
<circle cx="420" cy="438" r="8" fill="#f1d4c2" opacity="0.49" />
<circle cx="4" cy="9" r="22" fill="#f1d4c2" opacity="0.38" />
<circle cx="118" cy="266" r="8" fill="#f1d4c2" opacity="0.51" />
<circle cx="243" cy="33" r="18" fill="#f1d4c2" opacity="0.37" />
<circle cx="885" cy="554" r="15" fill="#f1d4c2" opacity="0.46" />
<circle cx="451" cy="592" r="28" fill="#f1d4c2" opacity="0.51" />
<circle cx="838" cy="191" r="13" fill="#f1d4c2" opacity="0.49" />
<circle cx="385" cy="203" r="12" fill="#f1d4c2" opacity="0.41" />
<circle cx="512" cy="558" r="11" fill="#f1d4c2" opacity="0.51" />
<circle cx="3" cy="458" r="16" fill="#f1d4c2" opacity="0.57" />
<circle cx="765" cy="439" r="23" fill="#f1d4c2" opacity="0.45" />
<circle cx="796" cy="542" r="22" fill="#f1d4c2" opacity="0.49" />
<circle cx="480" cy="359" r="27" fill="#f1d4c2" opacity="0.53" />
<circle cx="545" cy="563" r="20" fill="#f1d4c2" opacity="0.52" />
<circle cx="546" cy="90" r="12" fill="#f1d4c2" opacity="0.58" />
<circle cx="149" cy="412" r="22" fill="#f1d4c2" opacity="0.36" />
<circle cx="449" cy="469" r="17" fill="#f1d4c2" opacity="0.40" />
<circle cx="502" cy="136" r="27" fill="#f1d4c2" opacity="0.43" />
<circle cx="373" cy="479" r="23" fill="#f1d4c2" opacity="0.49" />
<circle cx="187" cy="255" r="9" fill="#f1d4c2" opacity="0.58" />
<circle cx="417" cy="360" r="14" fill="#f1d4c2" opacity="0.58" />
<circle cx="200" cy="342" r="17" fill="#f1d4c2" opacity="0.50" />
<circle cx="34" cy="475" r="16" fill="#f1d4c2" opacity="0.35" />
<circle cx="808" cy="427" r="26" fill="#f1d4c2" opacity="0.51" />
<circle cx="199" cy="216" r="26" fill="#f1d4c2" opacity="0.44" />
<circle cx="834" cy="519" r="22" fill="#f1d4c2" opacity="0.50" />
<circle cx="379" cy="336" r="20" fill="#f1d4c2" opacity="0.36" />
<circle cx="850" cy="164" r="29" fill="#f1d4c2" opacity="0.59" />
<circle cx="665" cy="227" r="25" fill="#f1d4c2" opacity="0.39" />
<circle cx="340" cy="582" r="11" fill="#f1d4c2" opacity="0.52" />
<circle cx="847" cy="383" r="26" fill="#f1d4c2" opacity="0.55" />
<circle cx="117" cy="13" r="19" fill="#f1d4c2" opacity="0.47" />
<circle cx="759" cy="57" r="8" fill="#f1d4c2" opacity="0.36" />
<circle cx="444" cy="276" r="10" fill="#f1d4c2" opacity="0.48" />
<circle cx="560" cy="288" r="22" fill="#f1d4c2" opacity="0.56" />
<circle cx="409" cy="461" r="18" fill="#f1d4c2" opacity="0.36" />
<circle cx="294" cy="347" r="27" fill="#f1d4c2" opacity="0.52" />
<circle cx="384" cy="351" r="9" fill="#f1d4c2" opacity="0.49" />
<circle cx="660" cy="199" r="24" fill="#f1d4c2" opacity="0.55" />
<circle cx="720" cy="381" r="28" fill="#f1d4c2" opacity="0.59" />
<circle cx="510" cy="284" r="11" fill="#f1d4c2" opacity="0.36" />
<circle cx="712" cy="314" r="15" fill="#f1d4c2" opacity="0.50" />
<circle cx="2" cy="72" r="9" fill="#f1d4c2" opacity="0.58" />
<circle cx="582" cy="132" r="28" fill="#f1d4c2" opacity="0.60" />
<circle cx="464" cy="8" r="14" fill="#f1d4c2" opacity="0.55" />
<circle cx="285" cy="392" r="21" fill="#f1d4c2" opacity="0.38" />
<circle cx="522" cy="585" r="9" fill="#f1d4c2" opacity="0.50" />
<circle cx="796" cy="307" r="20" fill="#f1d4c2" opacity="0.57" />
<circle cx="554" cy="199" r="25" fill="#f1d4c2" opacity="0.44" />
<circle cx="625" cy="374" r="18" fill="#f1d4c2" opacity="0.44" />
<circle cx="112" cy="514" r="19" fill="#f1d4c2" opacity="0.52" />
<circle cx="783" cy="50" r="11" fill="#f1d4c2" opacity="0.41" />
<circle cx="9" cy="3" r="18" fill="#f1d4c2" opacity="0.52" />
<circle cx="724" cy="98" r="27" fill="#f1d4c2" opacity="0.38" />
<circle cx="299" cy="116" r="27" fill="#f1d4c2" opacity="0.37" />
<circle cx="573" cy="126" r="17" fill="#f1d4c2" opacity="0.48" />
<circle cx="643" cy="106" r="28" fill="#f1d4c2" opacity="0.48" />
<circle cx="164" cy="339" r="8" fill="#f1d4c2" opacity="0.50" />
<circle cx="98" cy="242" r="9" fill="#f1d4c2" opacity="0.39" />
<circle cx="347" cy="108" r="26" fill="#f1d4c2" opacity="0.58" />
<circle cx="388" cy="536" r="26" fill="#f1d4c2" opacity="0.51" />
<circle cx="409" cy="251" r="10" fill="#f1d4c2" opacity="0.52" />
<circle cx="864" cy="428" r="21" fill="#f1d4c2" opacity="0.36" />
<circle cx="196" cy="538" r="20" fill="#f1d4c2" opacity="0.49" />
<circle cx="276" cy="29" r="29" fill="#f1d4c2" opacity="0.35" />
<circle cx="86" cy="336" r="24" fill="#f1d4c2" opacity="0.57" />
<circle cx="187" cy="120" r="20" fill="#f1d4c2" opacity="0.43" />
<circle cx="587" cy="302" r="25" fill="#f1d4c2" opacity="0.55" />
<circle cx="639" cy="201" r="28" fill="#f1d4c2" opacity="0.44" />
<circle cx="771" cy="566" r="26" fill="#f1d4c2" opacity="0.36" />
<circle cx="843" cy="149" r="9" fill="#f1d4c2" opacity="0.38" />
<circle cx="63" cy="472" r="13" fill="#f1d4c2" opacity="0.55" />
<circle cx="310" cy="495" r="18" fill="#f1d4c2" opacity="0.36" />
<circle cx="430" cy="353" r="3" fill="#5f4b8b" opacity="0.82" />
<circle cx="69" cy="523" r="10" fill="#5f4b8b" opacity="0.56" />
<circle cx="36" cy="176" r="11" fill="#5f4b8b" opacity="0.83" />
<circle cx="810" cy="92" r="9" fill="#5f4b8b" opacity="0.66" />
<circle cx="718" cy="440" r="10" fill="#5f4b8b" opacity="0.58" />
<circle cx="695" cy="175" r="7" fill="#5f4b8b" opacity="0.62" />
<circle cx="338" cy="578" r="3" fill="#5f4b8b" opacity="0.65" />
<circle cx="26" cy="588" r="10" fill="#5f4b8b" opacity="0.64" />
<circle cx="428" cy="38" r="11" fill="#5f4b8b" opacity="0.84" />
<circle cx="749" cy="379" r="4" fill="#5f4b8b" opacity="0.89" />
<circle cx="112" cy="59" r="9" fill="#5f4b8b" opacity="0.64" />
<circle cx="87" cy="234" r="6" fill="#5f4b8b" opacity="0.81" />
<circle cx="307" cy="283" r="4" fill="#5f4b8b" opacity="0.67" />
<circle cx="885" cy="181" r="8" fill="#5f4b8b" opacity="0.76" />
<circle cx="358" cy="574" r="11" fill="#5f4b8b" opacity="0.84" />
<circle cx="147" cy="329" r="6" fill="#5f4b8b" opacity="0.79" />
<circle cx="485" cy="595" r="9" fill="#5f4b8b" opacity="0.79" />
<circle cx="334" cy="119" r="9" fill="#5f4b8b" opacity="0.69" />
<circle cx="315" cy="544" r="10" fill="#5f4b8b" opacity="0.67" />
<circle cx="700" cy="124" r="9" fill="#5f4b8b" opacity="0.88" />
<circle cx="541" cy="211" r="6" fill="#5f4b8b" opacity="0.69" />
<circle cx="335" cy="526" r="8" fill="#5f4b8b" opacity="0.67" />
<circle cx="195" cy="73" r="10" fill="#5f4b8b" opacity="0.60" />
<circle cx="830" cy="132" r="6" fill="#5f4b8b" opacity="0.79" />
<circle cx="300" cy="105" r="5" fill="#5f4b8b" opacity="0.73" />
<circle cx="729" cy="122" r="8" fill="#5f4b8b" opacity="0.69" />
<circle cx="695" cy="221" r="9" fill="#5f4b8b" opacity="0.66" />
<circle cx="575" cy="57" r="6" fill="#5f4b8b" opacity="0.86" />
<circle cx="48" cy="544" r="9" fill="#5f4b8b" opacity="0.56" />
<circle cx="825" cy="333" r="3" fill="#5f4b8b" opacity="0.65" />
<circle cx="691" cy="535" r="4" fill="#5f4b8b" opacity="0.90" />
<circle cx="876" cy="290" r="4" fill="#5f4b8b" opacity="0.74" />
<circle cx="61" cy="434" r="7" fill="#5f4b8b" opacity="0.58" />
<circle cx="367" cy="138" r="3" fill="#5f4b8b" opacity="0.63" />
<circle cx="684" cy="550" r="11" fill="#5f4b8b" opacity="0.58" />
<circle cx="568" cy="127" r="4" fill="#5f4b8b" opacity="0.76" />
<circle cx="46" cy="340" r="3" fill="#5f4b8b" opacity="0.84" />
<circle cx="458" cy="8" r="6" fill="#5f4b8b" opacity="0.78" />
<circle cx="429" cy="544" r="9" fill="#5f4b8b" opacity="0.60" />
<circle cx="743" cy="537" r="8" fill="#5f4b8b" opacity="0.55" />
<circle cx="423" cy="238" r="4" fill="#5f4b8b" opacity="0.66" />
<circle cx="363" cy="143" r="5" fill="#5f4b8b" opacity="0.81" />
<circle cx="46" cy="547" r="7" fill="#5f4b8b" opacity="0.79" />
<circle cx="305" cy="218" r="4" fill="#5f4b8b" opacity="0.85" />
<circle cx="347" cy="264" r="11" fill="#5f4b8b" opacity="0.56" />
<circle cx="145" cy="496" r="11" fill="#5f4b8b" opacity="0.67" />
<circle cx="709" cy="244" r="11" fill="#5f4b8b" opacity="0.73" />
<circle cx="604" cy="557" r="9" fill="#5f4b8b" opacity="0.80" />
<circle cx="455" cy="201" r="7" fill="#5f4b8b" opacity="0.70" />
<circle cx="725" cy="80" r="10" fill="#5f4b8b" opacity="0.58" />
<circle cx="719" cy="242" r="9" fill="#5f4b8b" opacity="0.85" />
<circle cx="140" cy="4" r="9" fill="#5f4b8b" opacity="0.68" />
<circle cx="434" cy="573" r="9" fill="#5f4b8b" opacity="0.64" />
<circle cx="253" cy="188" r="7" fill="#5f4b8b" opacity="0.65" />
<circle cx="704" cy="231" r="3" fill="#5f4b8b" opacity="0.86" />
<circle cx="426" cy="33" r="11" fill="#5f4b8b" opacity="0.63" />
<circle cx="783" cy="37" r="5" fill="#5f4b8b" opacity="0.68" />
<circle cx="112" cy="27" r="4" fill="#5f4b8b" opacity="0.59" />
<circle cx="387" cy="193" r="3" fill="#5f4b8b" opacity="0.73" />
<circle cx="677" cy="184" r="10" fill="#5f4b8b" opacity="0.73" />
<circle cx="567" cy="26" r="8" fill="#5f4b8b" opacity="0.62" />
<circle cx="101" cy="272" r="8" fill="#5f4b8b" opacity="0.73" />
<circle cx="408" cy="257" r="8" fill="#5f4b8b" opacity="0.90" />
<circle cx="70" cy="327" r="10" fill="#5f4b8b" opacity="0.75" />
<circle cx="163" cy="86" r="10" fill="#5f4b8b" opacity="0.64" />
<circle cx="683" cy="455" r="3" fill="#5f4b8b" opacity="0.87" />
<circle cx="806" cy="311" r="11" fill="#5f4b8b" opacity="0.78" />
<circle cx="843" cy="298" r="4" fill="#5f4b8b" opacity="0.59" />
<circle cx="407" cy="219" r="3" fill="#5f4b8b" opacity="0.85" />
<circle cx="249" cy="217" r="4" fill="#5f4b8b" opacity="0.82" />
<circle cx="545" cy="576" r="6" fill="#5f4b8b" opacity="0.77" />
<circle cx="586" cy="64" r="9" fill="#5f4b8b" opacity="0.72" />
<circle cx="792" cy="419" r="3" fill="#5f4b8b" opacity="0.74" />
<circle cx="185" cy="202" r="11" fill="#5f4b8b" opacity="0.82" />
<circle cx="878" cy="326" r="6" fill="#5f4b8b" opacity="0.85" />
<circle cx="470" cy="30" r="9" fill="#5f4b8b" opacity="0.72" />
<circle cx="426" cy="462" r="4" fill="#5f4b8b" opacity="0.74" />
<circle cx="493" cy="156" r="8" fill="#5f4b8b" opacity="0.75" />
<circle cx="850" cy="343" r="5" fill="#5f4b8b" opacity="0.76" />
<circle cx="442" cy="492" r="6" fill="#5f4b8b" opacity="0.63" />
<circle cx="682" cy="161" r="3" fill="#5f4b8b" opacity="0.66" />
<circle cx="175" cy="447" r="10" fill="#5f4b8b" opacity="0.57" />
<circle cx="79" cy="50" r="8" fill="#5f4b8b" opacity="0.79" />
<circle cx="748" cy="516" r="11" fill="#5f4b8b" opacity="0.79" />
<circle cx="663" cy="390" r="4" fill="#5f4b8b" opacity="0.70" />
<circle cx="551" cy="462" r="6" fill="#5f4b8b" opacity="0.60" />
<circle cx="298" cy="50" r="7" fill="#5f4b8b" opacity="0.65" />
<circle cx="460" cy="478" r="10" fill="#5f4b8b" opacity="0.81" />
<circle cx="716" cy="145" r="8" fill="#5f4b8b" opacity="0.85" />
<circle cx="374" cy="464" r="5" fill="#5f4b8b" opacity="0.90" />
<circle cx="208" cy="205" r="3" fill="#5f4b8b" opacity="0.74" />
<circle cx="459" cy="598" r="8" fill="#5f4b8b" opacity="0.86" />
<circle cx="531" cy="488" r="9" fill="#5f4b8b" opacity="0.89" />
<circle cx="374" cy="588" r="3" fill="#5f4b8b" opacity="0.73" />
<circle cx="286" cy="43" r="8" fill="#5f4b8b" opacity="0.88" />
<line x1="238" y1="207" x2="287" y2="240" stroke="#c17c74" stroke-width="2.65" opacity="0.2" />
<line x1="625" y1="255" x2="683" y2="278" stroke="#c17c74" stroke-width="1.85" opacity="0.2" />
<line x1="861" y1="204" x2="894" y2="144" stroke="#c17c74" stroke-width="3.00" opacity="0.2" />
<line x1="619" y1="338" x2="601" y2="358" stroke="#c17c74" stroke-width="2.86" opacity="0.2" />
<line x1="508" y1="101" x2="531" y2="44" stroke="#c17c74" stroke-width="1.52" opacity="0.2" />
<line x1="173" y1="108" x2="216" y2="163" stroke="#c17c74" stroke-width="1.10" opacity="0.2" />
<line x1="144" y1="146" x2="138" y2="118" stroke="#c17c74" stroke-width="2.33" opacity="0.2" />
<line x1="776" y1="529" x2="751" y2="583" stroke="#c17c74" stroke-width="3.31" opacity="0.2" />
<line x1="463" y1="420" x2="448" y2="437" stroke="#c17c74" stroke-width="2.61" opacity="0.2" />
<line x1="350" y1="57" x2="318" y2="72" stroke="#c17c74" stroke-width="3.02" opacity="0.2" />
<line x1="490" y1="268" x2="494" y2="304" stroke="#c17c74" stroke-width="1.50" opacity="0.2" />
<line x1="608" y1="260" x2="588" y2="215" stroke="#c17c74" stroke-width="2.17" opacity="0.2" />
<line x1="178" y1="315" x2="136" y2="332" stroke="#c17c74" stroke-width="2.21" opacity="0.2" />
<line x1="533" y1="558" x2="571" y2="592" stroke="#c17c74" stroke-width="1.72" opacity="0.2" />
<line x1="10" y1="598" x2="69" y2="584" stroke="#c17c74" stroke-width="2.15" opacity="0.2" />
<line x1="521" y1="461" x2="520" y2="516" stroke="#c17c74" stroke-width="3.04" opacity="0.2" />
<line x1="234" y1="383" x2="281" y2="337" stroke="#c17c74" stroke-width="1.50" opacity="0.2" />
<line x1="182" y1="261" x2="228" y2="263" stroke="#c17c74" stroke-width="3.43" opacity="0.2" />
<line x1="361" y1="58" x2="378" y2="58" stroke="#c17c74" stroke-width="3.28" opacity="0.2" />
<line x1="606" y1="260" x2="656" y2="221" stroke="#c17c74" stroke-width="2.56" opacity="0.2" />
<line x1="846" y1="208" x2="888" y2="171" stroke="#c17c74" stroke-width="1.04" opacity="0.2" />
<line x1="124" y1="88" x2="67" y2="98" stroke="#c17c74" stroke-width="2.73" opacity="0.2" />
<line x1="605" y1="235" x2="591" y2="270" stroke="#c17c74" stroke-width="1.78" opacity="0.2" />
<line x1="345" y1="232" x2="375" y2="280" stroke="#c17c74" stroke-width="2.97" opacity="0.2" />
<line x1="763" y1="179" x2="795" y2="201" stroke="#c17c74" stroke-width="3.27" opacity="0.2" />
<line x1="197" y1="313" x2="234" y2="319" stroke="#c17c74" stroke-width="3.28" opacity="0.2" />
<line x1="76" y1="307" x2="78" y2="268" stroke="#c17c74" stroke-width="2.94" opacity="0.2" />
<line x1="53" y1="454" x2="94" y2="419" stroke="#c17c74" stroke-width="2.96" opacity="0.2" />
<line x1="259" y1="33" x2="295" y2="25" stroke="#c17c74" stroke-width="2.47" opacity="0.2" />
<line x1="605" y1="479" x2="627" y2="456" stroke="#c17c74" stroke-width="2.54" opacity="0.2" />
</svg>