<?xml version="1.0" encoding="UTF-8"?>
<svg xmlns="http://www.w3.org/2000/svg" width="900" height="600" viewBox="0 0 900 600">
<rect width="100%" height="100%" fill="#f5ebe0" />
<circle cx="467" cy="149" r="19" fill="#f1d4c2" opacity="0.43" />
<circle cx="485" cy="353" r="29" fill="#f1d4c2" opacity="0.46" />
<circle cx="388" cy="211" r="11" fill="#f1d4c2" opacity="0.44" />
<circle cx="818" cy="575" r="15" fill="#f1d4c2" opacity="0.41" />
<circle cx="739" cy="336" r="17" fill="#f1d4c2" opacity="0.58" />
<circle cx="769" cy="541" r="25" fill="#f1d4c2" opacity="0.38" />
<circle cx="475" cy="59" r="14" fill="#f1d4c2" opacity="0.40" />
<circle cx="810" cy="301" r="24" fill="#f1d4c2" opacity="0.59" />
<circle cx="776" cy="378" r="20" fill="#f1d4c2" opacity="0.51" />
<circle cx="438" cy="50" r="17" fill="#f1d4c2" opacity="0.53" />
<circle cx="73" cy="6" r="27" fill="#f1d4c2" opacity="0.50" />
<circle cx="734" cy="289" r="21" fill="#f1d4c2" opacity="0.40" />
<circle cx="641" cy="207" r="11" fill="#f1d4c2" opacity="0.48" />
<circle cx="527" cy="511" r="20" fill="#f1d4c2" opacity="0.54" />
<circle cx="839" cy="574" r="12" fill="#f1d4c2" opacity="0.52" />
<circle cx="138" cy="447" r="10" fill="#f1d4c2" opacity="0.53" />
<circle cx="677" cy="560" r="17" fill="#f1d4c2" opacity="0.42" />
<circle cx="723" cy="93" r="13" fill="#f1d4c2" opacity="0.45" />
<circle cx="41" cy="10" r="14" fill="#f1d4c2" opacity="0.48" />
<circle cx="373" cy="482" r="21" fill="#f1d4c2" opacity="0.51" />
<circle cx="743" cy="199" r="24" fill="#f1d4c2" opacity="0.58" />
<circle cx="521" cy="595" r="21" fill="#f1d4c2" opacity="0.50" />
<circle cx="548" cy="436" r="18" fill="#f1d4c2" opacity="0.53" />
<circle cx="888" cy="591" r="14" fill="#f1d4c2" opacity="0.51" />
<circle cx="489" cy="41" r="8" fill="#f1d4c2" opacity="0.45" />
<circle cx="755" cy="128" r="8" fill="#f1d4c2" opacity="0.36" />
<circle cx="115" cy="164" r="8" fill="#f1d4c2" opacity="0.45" />
<circle cx="634" cy="3" r="26" fill="#f1d4c2" opacity="0.51" />
<circle cx="322" cy="538" r="20" fill="#f1d4c2" opacity="0.41" />
<circle cx="742" cy="593" r="22" fill="#f1d4c2" opacity="0.40" />
<circle cx="17" cy="384" r="20" fill="#f1d4c2" opacity="0.52" />
<circle cx="346" cy="376" r="13" fill="#f1d4c2" opacity="0.56" />
<circle cx="830" cy="433" r="27" fill="#f1d4c2" opacity="0.53" />
<circle cx="67" cy="296" r="24" fill="#f1d4c2" opacity="0.38" />
<circle cx="120" cy="377" r="8" fill="#f1d4c2" opacity="0.58" />
<circle cx="149" cy="575" r="26" fill="#f1d4c2" opacity="0.51" />
<circle cx="308" cy="265" r="19" fill="#f1d4c2" opacity="0.47" />
<circle cx="368" cy="214" r="27" fill="#f1d4c2" opacity="0.52" />
<circle cx="669" cy="558" r="8" fill="#f1d4c2" opacity="0.45" />
<circle cx="111" cy="287" r="23" fill="#f1d4c2" opacity="0.58" />
<circle cx="31" cy="346" r="20" fill="#f1d4c2" opacity="0.52" />
<circle cx="341" cy="76" r="9" fill="#f1d4c2" opacity="0.55" />
<circle cx="202" cy="283" r="25" fill="#f1d4c2" opacity="0.53" />
<circle cx="664" cy="17" r="28" fill="#f1d4c2" opacity="0.53" />
<circle cx="601" cy="12" r="18" fill="#f1d4c2" opacity="0.41" />
<circle cx="260" cy="52" r="8" fill="#f1d4c2" opacity="0.53" />
<circle cx="364" cy="379" r="22" fill="#f1d4c2" opacity="0.51" />
<circle cx="892" cy="480" r="15" fill="#f1d4c2" opacity="0.42" />
<circle cx="95" cy="266" r="14" fill="#f1d4c2" opacity="0.57" />
<circle cx="745" cy="230" r="29" fill="#f1d4c2" opacity="0.42" />
<circle cx="12" cy="462" r="15" fill="#f1d4c2" opacity="0.54" />
<circle cx="169" cy="161" r="10" fill="#f1d4c2" opacity="0.50" />
<circle cx="795" cy="598" r="26" fill="#f1d4c2" opacity="0.45" />
<circle cx="341" cy="504" r="21" fill="#f1d4c2" opacity="0.43" />
<circle cx="254" cy="392" r="17" fill="#f1d4c2" opacity="0.59" />
<circle cx="767" cy="325" r="22" fill="#f1d4c2" opacity="0.49" />
<circle cx="37" cy="40" r="9" fill="#f1d4c2" opacity="0.49" />
<circle cx="803" cy="351" r="16" fill="#f1d4c2" opacity="0.40" />
<circle cx="590" cy="245" r="19" fill="#f1d4c2" opacity="0.40" />
<circle cx="423" cy="315" r="8" fill="#f1d4c2" opacity="0.49" />
<circle cx="53" cy="170" r="9" fill="#f1d4c2" opacity="0.35" />
<circle cx="37" cy="234" r="21" fill="#f1d4c2" opacity="0.44" />
<circle cx="448" cy="135" r="21" fill="#f1d4c2" opacity="0.36" />
<circle cx="42" cy="99" r="26" fill="#f1d4c2" opacity="0.52" />
<circle cx="634" cy="536" r="11" fill="#f1d4c2" opacity="0.51" />
<circle cx="644" cy="480" r="14" fill="#f1d4c2" opacity="0.50" />
<circle cx="889" cy="84" r="29" fill="#f1d4c2" opacity="0.49" />
<circle cx="7" cy="151" r="11" fill="#f1d4c2" opacity="0.48" />
<circle cx="508" cy="286" r="18" fill="#f1d4c2" opacity="0.37" />
<circle cx="780" cy="543" r="29" fill="#f1d4c2" opacity="0.39" />
<circle cx="696" cy="32" r="17" fill="#f1d4c2" opacity="0.58" />
<circle cx="131" cy="143" r="12" fill="#f1d4c2" opacity="0.37" />
<circle cx="287" cy="319" r="25" fill="#f1d4c2" opacity="0.45" />
<circle cx="832" cy="410" r="13" fill="#f1d4c2" opacity="0.42" />
<circle cx="593" cy="526" r="8" fill="#f1d4c2" opacity="0.44" />
<circle cx="603" cy="21" r="24" fill="#f1d4c2" opacity="0.35" />
<circle cx="169" cy="365" r="24" fill="#f1d4c2" opacity="0.41" />
<circle cx="659" cy="115" r="18" fill="#f1d4c2" opacity="0.51" />
<circle cx="10" cy="145" r="17" fill="#f1d4c2" opacity="0.48" />
<circle cx="113" cy="415" r="8" fill="#f1d4c2" opacity="0.47" />
<circle cx="16" cy="560" r="8" fill="#f1d4c2" opacity="0.53" />
<circle cx="26" cy="139" r="9" fill="#f1d4c2" opacity="0.51" />
<circle cx="33" cy="277" r="8" fill="#f1d4c2" opacity="0.47" />
<circle cx="306" cy="38" r="16" fill="#f1d4c2" opacity="0.58" />
<circle cx="684" cy="234" r="18" fill="#f1d4c2" opacity="0.50" />
<circle cx="221" cy="496" r="10" fill="#f1d4c2" opacity="0.40" />
<circle cx="525" cy="114" r="12" fill="#f1d4c2" opacity="0.55" />
<circle cx="465" cy="17" r="15" fill="#f1d4c2" opacity="0.40" />
<circle cx="551" cy="358" r="9" fill="#f1d4c2" opacity="0.44" />
<circle cx="161" cy="180" r="20" fill="#f1d4c2" opacity="0.37" />
<circle cx="759" cy="419" r="24" fill="#f1d4c2" opacity="0.53" />
<circle cx="348" cy="386" r="21" fill="#f1d4c2" opacity="0.57" />
<circle cx="884" cy="126" r="26" fill="#f1d4c2" opacity="0.45" />
<circle cx="560" cy="115" r="21" fill="#f1d4c2" opacity="0.60" />
<circle cx="598" cy="333" r="24" fill="#f1d4c2" opacity="0.49" />
<circle cx="451" cy="532" r="13" fill="#f1d4c2" opacity="0.40" />
<circle cx="537" cy="370" r="24" fill="#f1d4c2" opacity="0.52" />
<circle cx="530" cy="369" r="20" fill="#f1d4c2" opacity="0.35" />
<circle cx="756" cy="263" r="18" fill="#f1d4c2" opacity="0.39" />
<circle cx="571" cy="40" r="26" fill="#f1d4c2" opacity="0.57" />
<circle cx="347" cy="426" r="29" fill="#f1d4c2" opacity="0.49" />
<circle cx="773" cy="380" r="13" fill="#f1d4c2" opacity="0.36" />
<circle cx="232" cy="391" r="25" fill="#f1d4c2" opacity="0.51" />
<circle cx="318" cy="446" r="29" fill="#f1d4c2" opacity="0.40" />
<circle cx="693" cy="294" r="21" fill="#f1d4c2" opacity="0.57" />
<circle cx="743" cy="200" r="28" fill="#f1d4c2" opacity="0.46" />
<circle cx="803" cy="527" r="13" fill="#f1d4c2" opacity="0.35" />
<circle cx="318" cy="360" r="17" fill="#f1d4c2" opacity="0.51" />
<circle cx="640" cy="264" r="15" fill="#f1d4c2" opacity="0.52" />
<circle cx="164" cy="160" r="23" fill="#f1d4c2" opacity="0.49" />
<circle cx="245" cy="1" r="22" fill="#f1d4c2" opacity="0.58" />
<circle cx="381" cy="257" r="26" fill="#f1d4c2" opacity="0.46" />
<circle cx="221" cy="130" r="26" fill="#f1d4c2" opacity="0.52" />
<circle cx="773" cy="293" r="10" fill="#f1d4c2" opacity="0.50" />
<circle cx="55" cy="597" r="9" fill="#f1d4c2" opacity="0.51" />
<circle cx="331" cy="270" r="29" fill="#f1d4c2" opacity="0.60" />
<circle cx="34" cy="575" r="25" fill="#f1d4c2" opacity="0.41" />
<circle cx="648" cy="482" r="12" fill="#f1d4c2" opacity="0.59" />
<circle cx="157" cy="54" r="8" fill="#f1d4c2" opacity="0.52" />
<circle cx="772" cy="569" r="26" fill="#f1d4c2" opacity="0.55" />
<circle cx="301" cy="43" r="24" fill="#f1d4c2" opacity="0.37" />
<circle cx="854" cy="397" r="21" fill="#f1d4c2" opacity="0.52" />
<circle cx="655" cy="425" r="19" fill="#f1d4c2" opacity="0.40" />
<circle cx="66" cy="119" r="10" fill="#f1d4c2" opacity="0.56" />
<circle cx="269" cy="413" r="21" fill="#f1d4c2" opacity="0.48" />
<circle cx="818" cy="520" r="22" fill="#f1d4c2" opacity="0.55" />
<circle cx="334" cy="463" r="15" fill="#f1d4c2" opacity="0.56" />
<circle cx="514" cy="590" r="12" fill="#f1d4c2" opacity="0.43" />
<circle cx="755" cy="382" r="24" fill="#f1d4c2" opacity="0.54" />
<circle cx="784" cy="392" r="17" fill="#f1d4c2" opacity="0.51" />
<circle cx="8" cy="460" r="17" fill="#f1d4c2" opacity="0.45" />
<circle cx="220" cy="112" r="29" fill="#f1d4c2" opacity="0.54" />
<circle cx="698" cy="28" r="25" fill="#f1d4c2" opacity="0.41" />
<circle cx="415" cy="528" r="10" fill="#f1d4c2" opacity="0.35" />
<circle cx="321" cy="460" r="19" fill="#f1d4c2" opacity="0.41" />
<circle cx="348" cy="463" r="27" fill="#f1d4c2" opacity="0.52" />
<circle cx="40" cy="480" r="15" fill="#f1d4c2" opacity="0.48" />
<circle cx="43" cy="254" r="10" fill="#f1d4c2" opacity="0.59" />
<circle cx="665" cy="469" r="16" fill="#f1d4c2" opacity="0.53" />
<circle cx="233" cy="384" r="8" fill="#f1d4c2" opacity="0.56" />
<circle cx="144" cy="508" r="10" fill="#5f4b8b" opacity="0.75" />
<circle cx="482" cy="575" r="10" fill="#5f4b8b" opacity="0.58" />
<circle cx="427" cy="24" r="11" fill="#5f4b8b" opacity="0.79" />
<circle cx="432" cy="280" r="8" fill="#5f4b8b" opacity="0.80" />
<circle cx="880" cy="215" r="5" fill="#5f4b8b" opacity="0.56" />
<circle cx="672" cy="437" r="7" fill="#5f4b8b" opacity="0.63" />
<circle cx="725" cy="55" r="6" fill="#5f4b8b" opacity="0.64" />
<circle cx="691" cy="147" r="4" fill="#5f4b8b" opacity="0.87" />
<circle cx="382" cy="135" r="11" fill="#5f4b8b" opacity="0.78" />
<circle cx="701" cy="487" r="11" fill="#5f4b8b" opacity="0.90" />
<circle cx="154" cy="163" r="8" fill="#5f4b8b" opacity="0.89" />
<circle cx="437" cy="458" r="10" fill="#5f4b8b" opacity="0.75" />
<circle cx="256" cy="144" r="10" fill="#5f4b8b" opacity="0.61" />
<circle cx="138" cy="416" r="6" fill="#5f4b8b" opacity="0.56" />
<circle cx="802" cy="340" r="4" fill="#5f4b8b" opacity="0.63" />
<circle cx="304" cy="112" r="8" fill="#5f4b8b" opacity="0.66" />
<circle cx="64" cy="207" r="6" fill="#5f4b8b" opacity="0.70" />
<circle cx="268" cy="48" r="8" fill="#5f4b8b" opacity="0.57" />
<circle cx="672" cy="512" r="7" fill="#5f4b8b" opacity="0.80" />
<circle cx="12" cy="467" r="6" fill="#5f4b8b" opacity="0.73" />
<circle cx="181" cy="33" r="7" fill="#5f4b8b" opacity="0.89" />
<circle cx="16" cy="302" r="10" fill="#5f4b8b" opacity="0.64" />
<circle cx="697" cy="275" r="10" fill="#5f4b8b" opacity="0.74" />
<circle cx="670" cy="206" r="9" fill="#5f4b8b" opacity="0.71" />
<circle cx="262" cy="75" r="4" fill="#5f4b8b" opacity="0.83" />
<circle cx="633" cy="417" r="4" fill="#5f4b8b" opacity="0.77" />
<circle cx="150" cy="7" r="5" fill="#5f4b8b" opacity="0.79" />
<circle cx="103" cy="345" r="4" fill="#5f4b8b" opacity="0.69" />
<circle cx="564" cy="326" r="10" fill="#5f4b8b" opacity="0.78" />
<circle cx="297" cy="164" r="6" fill="#5f4b8b" opacity="0.76" />
<circle cx="42" cy="47" r="9" fill="#5f4b8b" opacity="0.82" />
<circle cx="346" cy="510" r="9" fill="#5f4b8b" opacity="0.81" />
<circle cx="454" cy="345" r="10" fill="#5f4b8b" opacity="0.78" />
<circle cx="865" cy="220" r="3" fill="#5f4b8b" opacity="0.89" />
<circle cx="94" cy="364" r="4" fill="#5f4b8b" opacity="0.77" />
<circle cx="49" cy="215" r="6" fill="#5f4b8b" opacity="0.69" />
<circle cx="354" cy="27" r="6" fill="#5f4b8b" opacity="0.66" />
<circle cx="684" cy="5" r="3" fill="#5f4b8b" opacity="0.82" />
<circle cx="694" cy="562" r="6" fill="#5f4b8b" opacity="0.80" />
<circle cx="169" cy="101" r="6" fill="#5f4b8b" opacity="0.65" />
<circle cx="183" cy="61" r="5" fill="#5f4b8b" opacity="0.81" />
<circle cx="70" cy="233" r="8" fill="#5f4b8b" opacity="0.71" />
<circle cx="620" cy="5" r="6" fill="#5f4b8b" opacity="0.85" />
<circle cx="22" cy="191" r="6" fill="#5f4b8b" opacity="0.79" />
<circle cx="796" cy="187" r="7" fill="#5f4b8b" opacity="0.89" />
<circle cx="90" cy="83" r="6" fill="#5f4b8b" opacity="0.87" />
<circle cx="410" cy="348" r="10" fill="#5f4b8b" opacity="0.78" />
<circle cx="374" cy="538" r="6" fill="#5f4b8b" opacity="0.66" />
<circle cx="516" cy="262" r="6" fill="#5f4b8b" opacity="0.60" />
<circle cx="534" cy="562" r="6" fill="#5f4b8b" opacity="0.64" />
<circle cx="741" cy="6" r="9" fill="#5f4b8b" opacity="0.67" />
<circle cx="331" cy="467" r="9" fill="#5f4b8b" opacity="0.63" />
<circle cx="566" cy="157" r="6" fill="#5f4b8b" opacity="0.55" />
<circle cx="435" cy="360" r="9" fill="#5f4b8b" opacity="0.83" />
<circle cx="30" cy="598" r="3" fill="#5f4b8b" opacity="0.58" />
<circle cx="617" cy="509" r="9" fill="#5f4b8b" opacity="0.73" />
<circle cx="38" cy="180" r="10" fill="#5f4b8b" opacity="0.66" />
<circle cx="417" cy="219" r="9" fill="#5f4b8b" opacity="0.82" />
<circle cx="692" cy="52" r="11" fill="#5f4b8b" opacity="0.82" />
<circle cx="663" cy="593" r="5" fill="#5f4b8b" opacity="0.58" />
<circle cx="367" cy="0" r="4" fill="#5f4b8b" opacity="0.84" />
<circle cx="150" cy="7" r="6" fill="#5f4b8b" opacity="0.67" />
<circle cx="22" cy="308" r="7" fill="#5f4b8b" opacity="0.83" />
<circle cx="188" cy="269" r="6" fill="#5f4b8b" opacity="0.76" />
<circle cx="430" cy="366" r="11" fill="#5f4b8b" opacity="0.63" />
<circle cx="450" cy="97" r="9" fill="#5f4b8b" opacity="0.67" />
<circle cx="186" cy="14" r="10" fill="#5f4b8b" opacity="0.69" />
<circle cx="620" cy="408" r="3" fill="#5f4b8b" opacity="0.82" />
<circle cx="113" cy="450" r="9" fill="#5f4b8b" opacity="0.77" />
<circle cx="534" cy="143" r="10" fill="#5f4b8b" opacity="0.61" />
<circle cx="744" cy="153" r="4" fill="#5f4b8b" opacity="0.82" />
<circle cx="536" cy="362" r="5" fill="#5f4b8b" opacity="0.86" />
<circle cx="657" cy="132" r="10" fill="#5f4b8b" opacity="0.70" />
<circle cx="125" cy="256" r="6" fill="#5f4b8b" opacity="0.84" />
<circle cx="483" cy="323" r="10" fill="#5f4b8b" opacity="0.64" />
<circle cx="11" cy="72" r="10" fill="#5f4b8b" opacity="0.84" />
<circle cx="808" cy="489" r="11" fill="#5f4b8b" opacity="0.72" />
<circle cx="765" cy="24" r="4" fill="#5f4b8b" opacity="0.69" />
<circle cx="561" cy="556" r="4" fill="#5f4b8b" opacity="0.57" />
<circle cx="148" cy="116" r="10" fill="#5f4b8b" opacity="0.79" />
<circle cx="30" cy="36" r="3" fill="#5f4b8b" opacity="0.68" />
<circle cx="105" cy="374" r="9" fill="#5f4b8b" opacity="0.71" />
<circle cx="538" cy="578" r="3" fill="#5f4b8b" opacity="0.79" />
<circle cx="126" cy="131" r="3" fill="#5f4b8b" opacity="0.82" />
<circle cx="896" cy="54" r="9" fill="#5f4b8b" opacity="0.74" />
<circle cx="416" cy="218" r="9" fill="#5f4b8b" opacity="0.71" />
<circle cx="463" cy="416" r="9" fill="#5f4b8b" opacity="0.81" />
<circle cx="644" cy="300" r="8" fill="#5f4b8b" opacity="0.70" />
<circle cx="749" cy="414" r="7" fill="#5f4b8b" opacity="0.70" />
<circle cx="751" cy="230" r="5" fill="#5f4b8b" opacity="0.86" />
<circle cx="371" cy="350" r="9" fill="#5f4b8b" opacity="0.63" />
<circle cx="709" cy="52" r="7" fill="#5f4b8b" opacity="0.85" />
<circle cx="613" cy="240" r="11" fill="#5f4b8b" opacity="0.64" />
<circle cx="165" cy="413" r="6" fill="#5f4b8b" opacity="0.77" />
<circle cx="101" cy="465" r="10" fill="#5f4b8b" opacity="0.63" />
<circle cx="753" cy="452" r="6" fill="#5f4b8b" opacity="0.73" />
<circle cx="763" cy="537" r="4" fill="#5f4b8b" opacity="0.86" />
<circle cx="530" cy="38" r="10" fill="#5f4b8b" opacity="0.65" />
<circle cx="544" cy="33" r="4" fill="#5f4b8b" opacity="0.89" />
<circle cx="411" cy="476" r="9" fill="#5f4b8b" opacity="0.89" />
<circle cx="718" cy="541" r="4" fill="#5f4b8b" opacity="0.60" />
<circle cx="698" cy="222" r="4" fill="#5f4b8b" opacity="0.59" />
<circle cx="500" cy="32" r="6" fill="#5f4b8b" opacity="0.71" />
<line x1="321" y1="418" x2="369" y2="432" stroke="#c17c74" stroke-width="1.52" opacity="0.2" />
<line x1="651" y1="520" x2="654" y2="507" stroke="#c17c74" stroke-width="2.49" opacity="0.2" />
<line x1="437" y1="4" x2="384" y2="-11" stroke="#c17c74" stroke-width="2.44" opacity="0.2" />
<line x1="57" y1="267" x2="87" y2="271" stroke="#c17c74" stroke-width="3.24" opacity="0.2" />
<line x1="554" y1="344" x2="527" y2="329" stroke="#c17c74" stroke-width="3.04" opacity="0.2" />
<line x1="57" y1="87" x2="49" y2="145" stroke="#c17c74" stroke-width="1.84" opacity="0.2" />
<line x1="68" y1="478" x2="56" y2="458" stroke="#c17c74" stroke-width="1.82" opacity="0.2" />
<line x1="115" y1="312" x2="149" y2="311" stroke="#c17c74" stroke-width="2.97" opacity="0.2" />
<line x1="810" y1="590" x2="838" y2="546" stroke="#c17c74" stroke-width="2.12" opacity="0.2" />
<line x1="284" y1="468" x2="227" y2="519" stroke="#c17c74" stroke-width="2.15" opacity="0.2" />
<line x1="754" y1="390" x2="762" y2="393" stroke="#c17c74" stroke-width="1.47" opacity="0.2" />
<line x1="216" y1="163" x2="192" y2="216" stroke="#c17c74" stroke-width="1.03" opacity="0.2" />
<line x1="167" y1="18" x2="181" y2="31" stroke="#c17c74" stroke-width="2.11" opacity="0.2" />
<line x1="543" y1="542" x2="541" y2="552" stroke="#c17c74" stroke-width="3.36" opacity="0.2" />
<line x1="149" y1="255" x2="160" y2="264" stroke="#c17c74" stroke-width="2.80" opacity="0.2" />
<line x1="456" y1="15" x2="403" y2="32" stroke="#c17c74" stroke-width="1.90" opacity="0.2" />
<line x1="897" y1="183" x2="919" y2="212" stroke="#c17c74" stroke-width="2.13" opacity="0.2" />
<line x1="676" y1="465" x2="726" y2="481" stroke="#c17c74" stroke-width="2.69" opacity="0.2" />
<line x1="445" y1="315" x2="430" y2="286" stroke="#c17c74" stroke-width="1.05" opacity="0.2" />
<line x1="468" y1="159" x2="410" y2="174" stroke="#c17c74" stroke-width="2.38" opacity="0.2" />
<line x1="251" y1="214" x2="218" y2="244" stroke="#c17c74" stroke-width="2.61" opacity="0.2" />
<line x1="849" y1="29" x2="904" y2="-18" stroke="#c17c74" stroke-width="1.84" opacity="0.2" />
<line x1="506" y1="315" x2="451" y2="345" stroke="#c17c74" stroke-width="3.19" opacity="0.2" />
<line x1="232" y1="176" x2="217" y2="126" stroke="#c17c74" stroke-width="1.55" opacity="0.2" />
<line x1="784" y1="422" x2="796" y2="411" stroke="#c17c74" stroke-width="2.02" opacity="0.2" />
<line x1="548" y1="48" x2="598" y2="13" stroke="#c17c74" stroke-width="2.74" opacity="0.2" />
<line x1="305" y1="510" x2="350" y2="550" stroke="#c17c74" stroke-width="2.09" opacity="0.2" />
<line x1="99" y1="270" x2="61" y2="233" stroke="#c17c74" stroke-width="3.15" opacity="0.2" />
<line x1="689" y1="566" x2="682" y2="518" stroke="#c17c74" stroke-width="3.32" opacity="0.2" />
<line x1="540" y1="451" x2="531" y2="393" stroke="#c17c74" stroke-width="3.28" opacity="0.2" />
</svg>