<?xml version="1.0" encoding="UTF-8"?>
<svg xmlns="http://www.w3.org/2000/svg" width="900" height="600" viewBox="0 0 900 600">
<rect width="100%" height="100%" fill="#f7f0e8" />
<circle cx="167" cy="425" r="16" fill="#f0d2c0" opacity="0.56" />
<circle cx="185" cy="588" r="27" fill="#f0d2c0" opacity="0.51" />
<circle cx="731" cy="144" r="15" fill="#f0d2c0" opacity="0.41" />
<circle cx="517" cy="269" r="20" fill="#f0d2c0" opacity="0.57" />
<circle cx="779" cy="549" r="24" fill="#f0d2c0" opacity="0.48" />
<circle cx="500" cy="212" r="18" fill="#f0d2c0" opacity="0.39" />
<circle cx="58" cy="237" r="25" fill="#f0d2c0" opacity="0.42" />
<circle cx="732" cy="596" r="20" fill="#f0d2c0" opacity="0.50" />
<circle cx="763" cy="388" r="12" fill="#f0d2c0" opacity="0.41" />
<circle cx="830" cy="226" r="12" fill="#f0d2c0" opacity="0.48" />
<circle cx="610" cy="538" r="18" fill="#f0d2c0" opacity="0.57" />
<circle cx="66" cy="75" r="9" fill="#f0d2c0" opacity="0.40" />
<circle cx="761" cy="321" r="21" fill="#f0d2c0" opacity="0.52" />
<circle cx="151" cy="496" r="16" fill="#f0d2c0" opacity="0.52" />
<circle cx="415" cy="430" r="9" fill="#f0d2c0" opacity="0.37" />
<circle cx="339" cy="306" r="29" fill="#f0d2c0" opacity="0.49" />
<circle cx="326" cy="6" r="24" fill="#f0d2c0" opacity="0.39" />
<circle cx="56" cy="103" r="28" fill="#f0d2c0" opacity="0.37" />
<circle cx="317" cy="363" r="27" fill="#f0d2c0" opacity="0.39" />
<circle cx="890" cy="531" r="15" fill="#f0d2c0" opacity="0.49" />
<circle cx="610" cy="512" r="13" fill="#f0d2c0" opacity="0.38" />
<circle cx="527" cy="139" r="24" fill="#f0d2c0" opacity="0.46" />
<circle cx="83" cy="492" r="21" fill="#f0d2c0" opacity="0.49" />
<circle cx="634" cy="421" r="28" fill="#f0d2c0" opacity="0.43" />
<circle cx="303" cy="375" r="17" fill="#f0d2c0" opacity="0.57" />
<circle cx="369" cy="433" r="15" fill="#f0d2c0" opacity="0.41" />
<circle cx="344" cy="347" r="8" fill="#f0d2c0" opacity="0.52" />
<circle cx="741" cy="47" r="21" fill="#f0d2c0" opacity="0.45" />
<circle cx="476" cy="68" r="13" fill="#f0d2c0" opacity="0.54" />
<circle cx="53" cy="363" r="16" fill="#f0d2c0" opacity="0.55" />
<circle cx="590" cy="263" r="19" fill="#f0d2c0" opacity="0.54" />
<circle cx="429" cy="167" r="29" fill="#f0d2c0" opacity="0.43" />
<circle cx="84" cy="71" r="26" fill="#f0d2c0" opacity="0.59" />
<circle cx="726" cy="509" r="10" fill="#f0d2c0" opacity="0.43" />
<circle cx="724" cy="375" r="18" fill="#f0d2c0" opacity="0.38" />
<circle cx="485" cy="98" r="26" fill="#f0d2c0" opacity="0.39" />
<circle cx="860" cy="13" r="27" fill="#f0d2c0" opacity="0.37" />
<circle cx="261" cy="206" r="18" fill="#f0d2c0" opacity="0.48" />
<circle cx="34" cy="167" r="21" fill="#f0d2c0" opacity="0.37" />
<circle cx="249" cy="471" r="15" fill="#f0d2c0" opacity="0.45" />
<circle cx="469" cy="16" r="8" fill="#f0d2c0" opacity="0.51" />
<circle cx="588" cy="293" r="19" fill="#f0d2c0" opacity="0.58" />
<circle cx="696" cy="475" r="8" fill="#f0d2c0" opacity="0.55" />
<circle cx="763" cy="172" r="11" fill="#f0d2c0" opacity="0.54" />
<circle cx="178" cy="22" r="11" fill="#f0d2c0" opacity="0.37" />
<circle cx="428" cy="314" r="12" fill="#f0d2c0" opacity="0.43" />
<circle cx="739" cy="377" r="23" fill="#f0d2c0" opacity="0.58" />
<circle cx="202" cy="154" r="15" fill="#f0d2c0" opacity="0.50" />
<circle cx="212" cy="197" r="12" fill="#f0d2c0" opacity="0.44" />
<circle cx="139" cy="546" r="8" fill="#f0d2c0" opacity="0.46" />
<circle cx="351" cy="80" r="11" fill="#f0d2c0" opacity="0.45" />
<circle cx="806" cy="373" r="9" fill="#f0d2c0" opacity="0.57" />
<circle cx="389" cy="13" r="29" fill="#f0d2c0" opacity="0.46" />
<circle cx="720" cy="344" r="9" fill="#f0d2c0" opacity="0.60" />
<circle cx="538" cy="514" r="11" fill="#f0d2c0" opacity="0.55" />
<circle cx="665" cy="360" r="21" fill="#f0d2c0" opacity="0.49" />
<circle cx="63" cy="168" r="27" fill="#f0d2c0" opacity="0.45" />
<circle cx="735" cy="184" r="19" fill="#f0d2c0" opacity="0.54" />
<circle cx="631" cy="556" r="24" fill="#f0d2c0" opacity="0.55" />
<circle cx="590" cy="99" r="28" fill="#f0d2c0" opacity="0.52" />
<circle cx="885" cy="261" r="17" fill="#f0d2c0" opacity="0.59" />
<circle cx="827" cy="188" r="9" fill="#f0d2c0" opacity="0.40" />
<circle cx="588" cy="209" r="26" fill="#f0d2c0" opacity="0.46" />
<circle cx="860" cy="134" r="20" fill="#f0d2c0" opacity="0.36" />
<circle cx="104" cy="156" r="24" fill="#f0d2c0" opacity="0.45" />
<circle cx="849" cy="294" r="23" fill="#f0d2c0" opacity="0.47" />
<circle cx="498" cy="443" r="18" fill="#f0d2c0" opacity="0.58" />
<circle cx="317" cy="533" r="17" fill="#f0d2c0" opacity="0.53" />
<circle cx="319" cy="398" r="9" fill="#f0d2c0" opacity="0.44" />
<circle cx="87" cy="385" r="11" fill="#f0d2c0" opacity="0.41" />
<circle cx="166" cy="74" r="13" fill="#f0d2c0" opacity="0.45" />
<circle cx="691" cy="460" r="19" fill="#f0d2c0" opacity="0.43" />
<circle cx="846" cy="166" r="26" fill="#f0d2c0" opacity="0.52" />
<circle cx="342" cy="488" r="19" fill="#f0d2c0" opacity="0.52" />
<circle cx="601" cy="542" r="21" fill="#f0d2c0" opacity="0.40" />
<circle cx="640" cy="293" r="13" fill="#f0d2c0" opacity="0.57" />
<circle cx="758" cy="67" r="21" fill="#f0d2c0" opacity="0.37" />
<circle cx="207" cy="154" r="20" fill="#f0d2c0" opacity="0.38" />
<circle cx="300" cy="431" r="25" fill="#f0d2c0" opacity="0.42" />
<circle cx="555" cy="182" r="26" fill="#f0d2c0" opacity="0.40" />
<circle cx="8" cy="222" r="21" fill="#f0d2c0" opacity="0.50" />
<circle cx="265" cy="307" r="26" fill="#f0d2c0" opacity="0.57" />
<circle cx="684" cy="215" r="15" fill="#f0d2c0" opacity="0.38" />
<circle cx="367" cy="423" r="19" fill="#f0d2c0" opacity="0.51" />
<circle cx="718" cy="355" r="26" fill="#f0d2c0" opacity="0.58" />
<circle cx="74" cy="395" r="27" fill="#f0d2c0" opacity="0.50" />
<circle cx="417" cy="422" r="23" fill="#f0d2c0" opacity="0.44" />
<circle cx="330" cy="236" r="9" fill="#f0d2c0" opacity="0.60" />
<circle cx="784" cy="32" r="14" fill="#f0d2c0" opacity="0.57" />
<circle cx="68" cy="73" r="23" fill="#f0d2c0" opacity="0.54" />
<circle cx="792" cy="349" r="10" fill="#f0d2c0" opacity="0.50" />
<circle cx="786" cy="72" r="17" fill="#f0d2c0" opacity="0.54" />
<circle cx="773" cy="85" r="18" fill="#f0d2c0" opacity="0.36" />
<circle cx="594" cy="294" r="10" fill="#f0d2c0" opacity="0.51" />
<circle cx="126" cy="587" r="27" fill="#f0d2c0" opacity="0.35" />
<circle cx="625" cy="331" r="27" fill="#f0d2c0" opacity="0.50" />
<circle cx="633" cy="303" r="12" fill="#f0d2c0" opacity="0.56" />
<circle cx="221" cy="208" r="24" fill="#f0d2c0" opacity="0.58" />
<circle cx="726" cy="54" r="18" fill="#f0d2c0" opacity="0.39" />
<circle cx="385" cy="4" r="25" fill="#f0d2c0" opacity="0.51" />
<circle cx="502" cy="253" r="16" fill="#f0d2c0" opacity="0.58" />
<circle cx="33" cy="439" r="19" fill="#f0d2c0" opacity="0.51" />
<circle cx="843" cy="582" r="12" fill="#f0d2c0" opacity="0.44" />
<circle cx="578" cy="369" r="22" fill="#f0d2c0" opacity="0.40" />
<circle cx="601" cy="343" r="8" fill="#f0d2c0" opacity="0.46" />
<circle cx="176" cy="539" r="12" fill="#f0d2c0" opacity="0.43" />
<circle cx="597" cy="483" r="27" fill="#f0d2c0" opacity="0.42" />
<circle cx="560" cy="582" r="27" fill="#f0d2c0" opacity="0.55" />
<circle cx="605" cy="14" r="15" fill="#f0d2c0" opacity="0.48" />
<circle cx="199" cy="351" r="21" fill="#f0d2c0" opacity="0.54" />
<circle cx="156" cy="598" r="11" fill="#f0d2c0" opacity="0.51" />
<circle cx="536" cy="401" r="8" fill="#f0d2c0" opacity="0.46" />
<circle cx="56" cy="536" r="8" fill="#f0d2c0" opacity="0.59" />
<circle cx="615" cy="250" r="26" fill="#f0d2c0" opacity="0.59" />
<circle cx="610" cy="6" r="27" fill="#f0d2c0" opacity="0.46" />
<circle cx="880" cy="55" r="17" fill="#f0d2c0" opacity="0.41" />
<circle cx="57" cy="180" r="9" fill="#f0d2c0" opacity="0.39" />
<circle cx="612" cy="12" r="11" fill="#f0d2c0" opacity="0.40" />
<circle cx="351" cy="573" r="17" fill="#f0d2c0" opacity="0.42" />
<circle cx="340" cy="574" r="12" fill="#f0d2c0" opacity="0.57" />
<circle cx="609" cy="180" r="17" fill="#f0d2c0" opacity="0.54" />
<circle cx="405" cy="158" r="22" fill="#f0d2c0" opacity="0.49" />
<circle cx="735" cy="241" r="14" fill="#f0d2c0" opacity="0.55" />
<circle cx="303" cy="7" r="14" fill="#f0d2c0" opacity="0.56" />
<circle cx="402" cy="99" r="12" fill="#f0d2c0" opacity="0.41" />
<circle cx="756" cy="339" r="17" fill="#f0d2c0" opacity="0.48" />
<circle cx="394" cy="470" r="19" fill="#f0d2c0" opacity="0.36" />
<circle cx="224" cy="483" r="29" fill="#f0d2c0" opacity="0.43" />
<circle cx="706" cy="61" r="24" fill="#f0d2c0" opacity="0.59" />
<circle cx="456" cy="35" r="28" fill="#f0d2c0" opacity="0.40" />
<circle cx="519" cy="137" r="15" fill="#f0d2c0" opacity="0.38" />
<circle cx="719" cy="313" r="14" fill="#f0d2c0" opacity="0.55" />
<circle cx="757" cy="229" r="25" fill="#f0d2c0" opacity="0.46" />
<circle cx="611" cy="259" r="29" fill="#f0d2c0" opacity="0.51" />
<circle cx="638" cy="435" r="19" fill="#f0d2c0" opacity="0.53" />
<circle cx="855" cy="463" r="18" fill="#f0d2c0" opacity="0.47" />
<circle cx="89" cy="454" r="23" fill="#f0d2c0" opacity="0.52" />
<circle cx="241" cy="356" r="12" fill="#f0d2c0" opacity="0.49" />
<circle cx="54" cy="468" r="22" fill="#f0d2c0" opacity="0.38" />
<circle cx="326" cy="572" r="23" fill="#f0d2c0" opacity="0.46" />
<circle cx="622" cy="112" r="23" fill="#f0d2c0" opacity="0.54" />
<circle cx="98" cy="346" r="22" fill="#f0d2c0" opacity="0.57" />
<circle cx="305" cy="163" r="8" fill="#f0d2c0" opacity="0.42" />
<circle cx="260" cy="396" r="25" fill="#f0d2c0" opacity="0.37" />
<circle cx="129" cy="304" r="9" fill="#f0d2c0" opacity="0.46" />
<circle cx="121" cy="313" r="28" fill="#f0d2c0" opacity="0.47" />
<circle cx="587" cy="533" r="8" fill="#f0d2c0" opacity="0.51" />
<circle cx="0" cy="357" r="15" fill="#f0d2c0" opacity="0.51" />
<circle cx="807" cy="373" r="29" fill="#f0d2c0" opacity="0.39" />
<circle cx="132" cy="274" r="19" fill="#f0d2c0" opacity="0.37" />
<circle cx="568" cy="213" r="4" fill="#6f4c8b" opacity="0.65" />
<circle cx="5" cy="55" r="3" fill="#6f4c8b" opacity="0.59" />
<circle cx="666" cy="0" r="6" fill="#6f4c8b" opacity="0.57" />
<circle cx="551" cy="319" r="10" fill="#6f4c8b" opacity="0.74" />
<circle cx="211" cy="122" r="9" fill="#6f4c8b" opacity="0.57" />
<circle cx="196" cy="195" r="11" fill="#6f4c8b" opacity="0.63" />
<circle cx="116" cy="333" r="10" fill="#6f4c8b" opacity="0.76" />
<circle cx="235" cy="310" r="5" fill="#6f4c8b" opacity="0.78" />
<circle cx="417" cy="18" r="10" fill="#6f4c8b" opacity="0.79" />
<circle cx="130" cy="468" r="4" fill="#6f4c8b" opacity="0.76" />
<circle cx="533" cy="18" r="7" fill="#6f4c8b" opacity="0.58" />
<circle cx="575" cy="578" r="8" fill="#6f4c8b" opacity="0.79" />
<circle cx="146" cy="377" r="4" fill="#6f4c8b" opacity="0.79" />
<circle cx="84" cy="239" r="3" fill="#6f4c8b" opacity="0.77" />
<circle cx="863" cy="488" r="7" fill="#6f4c8b" opacity="0.72" />
<circle cx="810" cy="148" r="6" fill="#6f4c8b" opacity="0.86" />
<circle cx="189" cy="202" r="10" fill="#6f4c8b" opacity="0.83" />
<circle cx="263" cy="252" r="4" fill="#6f4c8b" opacity="0.89" />
<circle cx="465" cy="560" r="7" fill="#6f4c8b" opacity="0.59" />
<circle cx="442" cy="171" r="5" fill="#6f4c8b" opacity="0.85" />
<circle cx="477" cy="469" r="10" fill="#6f4c8b" opacity="0.63" />
<circle cx="262" cy="287" r="5" fill="#6f4c8b" opacity="0.86" />
<circle cx="636" cy="170" r="10" fill="#6f4c8b" opacity="0.80" />
<circle cx="176" cy="450" r="4" fill="#6f4c8b" opacity="0.67" />
<circle cx="388" cy="434" r="11" fill="#6f4c8b" opacity="0.61" />
<circle cx="275" cy="465" r="4" fill="#6f4c8b" opacity="0.84" />
<circle cx="831" cy="522" r="7" fill="#6f4c8b" opacity="0.67" />
<circle cx="622" cy="371" r="9" fill="#6f4c8b" opacity="0.87" />
<circle cx="269" cy="8" r="3" fill="#6f4c8b" opacity="0.75" />
<circle cx="462" cy="100" r="11" fill="#6f4c8b" opacity="0.57" />
<circle cx="252" cy="227" r="10" fill="#6f4c8b" opacity="0.79" />
<circle cx="343" cy="582" r="9" fill="#6f4c8b" opacity="0.64" />
<circle cx="542" cy="0" r="4" fill="#6f4c8b" opacity="0.68" />
<circle cx="100" cy="457" r="11" fill="#6f4c8b" opacity="0.71" />
<circle cx="156" cy="309" r="9" fill="#6f4c8b" opacity="0.55" />
<circle cx="281" cy="20" r="9" fill="#6f4c8b" opacity="0.84" />
<circle cx="176" cy="279" r="5" fill="#6f4c8b" opacity="0.72" />
<circle cx="462" cy="570" r="8" fill="#6f4c8b" opacity="0.73" />
<circle cx="680" cy="515" r="5" fill="#6f4c8b" opacity="0.64" />
<circle cx="218" cy="358" r="11" fill="#6f4c8b" opacity="0.59" />
<circle cx="213" cy="298" r="8" fill="#6f4c8b" opacity="0.78" />
<circle cx="630" cy="597" r="8" fill="#6f4c8b" opacity="0.58" />
<circle cx="96" cy="291" r="11" fill="#6f4c8b" opacity="0.86" />
<circle cx="408" cy="203" r="3" fill="#6f4c8b" opacity="0.67" />
<circle cx="678" cy="147" r="3" fill="#6f4c8b" opacity="0.61" />
<circle cx="197" cy="586" r="6" fill="#6f4c8b" opacity="0.80" />
<circle cx="604" cy="498" r="5" fill="#6f4c8b" opacity="0.61" />
<circle cx="881" cy="593" r="7" fill="#6f4c8b" opacity="0.77" />
<circle cx="382" cy="142" r="5" fill="#6f4c8b" opacity="0.76" />
<circle cx="340" cy="99" r="8" fill="#6f4c8b" opacity="0.76" />
<circle cx="594" cy="408" r="8" fill="#6f4c8b" opacity="0.70" />
<circle cx="490" cy="491" r="5" fill="#6f4c8b" opacity="0.66" />
<circle cx="812" cy="321" r="7" fill="#6f4c8b" opacity="0.60" />
<circle cx="557" cy="302" r="5" fill="#6f4c8b" opacity="0.55" />
<circle cx="595" cy="275" r="9" fill="#6f4c8b" opacity="0.82" />
<circle cx="750" cy="87" r="4" fill="#6f4c8b" opacity="0.78" />
<circle cx="870" cy="442" r="10" fill="#6f4c8b" opacity="0.62" />
<circle cx="3" cy="489" r="10" fill="#6f4c8b" opacity="0.56" />
<circle cx="278" cy="485" r="4" fill="#6f4c8b" opacity="0.86" />
<circle cx="122" cy="597" r="11" fill="#6f4c8b" opacity="0.76" />
<circle cx="696" cy="312" r="6" fill="#6f4c8b" opacity="0.71" />
<circle cx="453" cy="258" r="5" fill="#6f4c8b" opacity="0.62" />
<circle cx="325" cy="474" r="7" fill="#6f4c8b" opacity="0.83" />
<circle cx="456" cy="371" r="5" fill="#6f4c8b" opacity="0.57" />
<circle cx="568" cy="385" r="8" fill="#6f4c8b" opacity="0.62" />
<circle cx="53" cy="543" r="4" fill="#6f4c8b" opacity="0.90" />
<circle cx="781" cy="556" r="4" fill="#6f4c8b" opacity="0.76" />
<circle cx="693" cy="417" r="5" fill="#6f4c8b" opacity="0.66" />
<circle cx="712" cy="565" r="7" fill="#6f4c8b" opacity="0.71" />
<circle cx="639" cy="438" r="8" fill="#6f4c8b" opacity="0.68" />
<circle cx="31" cy="66" r="3" fill="#6f4c8b" opacity="0.76" />
<circle cx="314" cy="306" r="7" fill="#6f4c8b" opacity="0.66" />
<circle cx="606" cy="43" r="3" fill="#6f4c8b" opacity="0.56" />
<circle cx="760" cy="590" r="7" fill="#6f4c8b" opacity="0.75" />
<circle cx="318" cy="540" r="9" fill="#6f4c8b" opacity="0.61" />
<circle cx="194" cy="117" r="11" fill="#6f4c8b" opacity="0.60" />
<circle cx="295" cy="51" r="5" fill="#6f4c8b" opacity="0.60" />
<circle cx="498" cy="108" r="11" fill="#6f4c8b" opacity="0.58" />
<circle cx="260" cy="502" r="8" fill="#6f4c8b" opacity="0.70" />
<circle cx="554" cy="273" r="6" fill="#6f4c8b" opacity="0.79" />
<circle cx="121" cy="255" r="10" fill="#6f4c8b" opacity="0.89" />
<circle cx="186" cy="324" r="6" fill="#6f4c8b" opacity="0.67" />
<circle cx="453" cy="242" r="3" fill="#6f4c8b" opacity="0.69" />
<circle cx="605" cy="55" r="6" fill="#6f4c8b" opacity="0.57" />
<circle cx="708" cy="434" r="6" fill="#6f4c8b" opacity="0.55" />
<circle cx="400" cy="115" r="5" fill="#6f4c8b" opacity="0.70" />
<circle cx="461" cy="265" r="6" fill="#6f4c8b" opacity="0.86" />
<circle cx="793" cy="156" r="7" fill="#6f4c8b" opacity="0.79" />
<circle cx="182" cy="175" r="3" fill="#6f4c8b" opacity="0.71" />
<circle cx="147" cy="383" r="6" fill="#6f4c8b" opacity="0.58" />
<circle cx="806" cy="105" r="8" fill="#6f4c8b" opacity="0.62" />
<circle cx="442" cy="10" r="8" fill="#6f4c8b" opacity="0.58" />
<circle cx="502" cy="202" r="11" fill="#6f4c8b" opacity="0.79" />
<circle cx="5" cy="490" r="11" fill="#6f4c8b" opacity="0.61" />
<circle cx="44" cy="429" r="3" fill="#6f4c8b" opacity="0.72" />
<circle cx="836" cy="401" r="10" fill="#6f4c8b" opacity="0.63" />
<circle cx="519" cy="583" r="6" fill="#6f4c8b" opacity="0.59" />
<circle cx="100" cy="105" r="11" fill="#6f4c8b" opacity="0.79" />
<circle cx="277" cy="322" r="8" fill="#6f4c8b" opacity="0.77" />
<circle cx="204" cy="359" r="8" fill="#6f4c8b" opacity="0.67" />
<circle cx="621" cy="249" r="8" fill="#6f4c8b" opacity="0.63" />
<line x1="333" y1="17" x2="366" y2="15" stroke="#c889a0" stroke-width="3.00" opacity="0.2" />
<line x1="641" y1="331" x2="594" y2="285" stroke="#c889a0" stroke-width="1.97" opacity="0.2" />
<line x1="479" y1="323" x2="480" y2="353" stroke="#c889a0" stroke-width="2.32" opacity="0.2" />
<line x1="859" y1="519" x2="865" y2="548" stroke="#c889a0" stroke-width="1.77" opacity="0.2" />
<line x1="197" y1="269" x2="237" y2="271" stroke="#c889a0" stroke-width="1.18" opacity="0.2" />
<line x1="887" y1="382" x2="868" y2="385" stroke="#c889a0" stroke-width="2.00" opacity="0.2" />
<line x1="211" y1="220" x2="261" y2="269" stroke="#c889a0" stroke-width="1.06" opacity="0.2" />
<line x1="811" y1="532" x2="838" y2="548" stroke="#c889a0" stroke-width="3.30" opacity="0.2" />
<line x1="386" y1="502" x2="432" y2="477" stroke="#c889a0" stroke-width="3.29" opacity="0.2" />
<line x1="223" y1="521" x2="188" y2="461" stroke="#c889a0" stroke-width="1.42" opacity="0.2" />
<line x1="460" y1="323" x2="449" y2="271" stroke="#c889a0" stroke-width="1.24" opacity="0.2" />
<line x1="849" y1="51" x2="805" y2="56" stroke="#c889a0" stroke-width="2.56" opacity="0.2" />
<line x1="653" y1="192" x2="633" y2="198" stroke="#c889a0" stroke-width="3.00" opacity="0.2" />
<line x1="323" y1="476" x2="374" y2="522" stroke="#c889a0" stroke-width="2.56" opacity="0.2" />
<line x1="575" y1="193" x2="591" y2="225" stroke="#c889a0" stroke-width="1.51" opacity="0.2" />
<line x1="656" y1="76" x2="680" y2="92" stroke="#c889a0" stroke-width="3.29" opacity="0.2" />
<line x1="614" y1="431" x2="613" y2="393" stroke="#c889a0" stroke-width="3.21" opacity="0.2" />
<line x1="774" y1="537" x2="721" y2="572" stroke="#c889a0" stroke-width="2.70" opacity="0.2" />
<line x1="802" y1="435" x2="841" y2="429" stroke="#c889a0" stroke-width="2.85" opacity="0.2" />
<line x1="522" y1="418" x2="531" y2="362" stroke="#c889a0" stroke-width="3.14" opacity="0.2" />
<line x1="395" y1="175" x2="397" y2="182" stroke="#c889a0" stroke-width="2.70" opacity="0.2" />
<line x1="68" y1="306" x2="42" y2="334" stroke="#c889a0" stroke-width="2.54" opacity="0.2" />
<line x1="726" y1="593" x2="769" y2="546" stroke="#c889a0" stroke-width="2.74" opacity="0.2" />
<line x1="518" y1="327" x2="490" y2="277" stroke="#c889a0" stroke-width="3.04" opacity="0.2" />
<line x1="717" y1="360" x2="724" y2="336" stroke="#c889a0" stroke-width="3.22" opacity="0.2" />
<line x1="875" y1="13" x2="878" y2="34" stroke="#c889a0" stroke-width="2.99" opacity="0.2" />
<line x1="733" y1="491" x2="699" y2="492" stroke="#c889a0" stroke-width="1.47" opacity="0.2" />
<line x1="502" y1="457" x2="458" y2="436" stroke="#c889a0" stroke-width="2.74" opacity="0.2" />
<line x1="118" y1="386" x2="69" y2="403" stroke="#c889a0" stroke-width="3.41" opacity="0.2" />
<line x1="420" y1="109" x2="423" y2="95" stroke="#c889a0" stroke-width="2.38" opacity="0.2" />
</svg>