<?xml version="1.0" encoding="UTF-8"?>
<svg xmlns="http://www.w3.org/2000/svg" width="900" height="600" viewBox="0 0 900 600">
<rect width="100%" height="100%" fill="#f1eaf7" />
<circle cx="124" cy="567" r="9" fill="#d8c1f0" opacity="0.38" />
<circle cx="338" cy="527" r="26" fill="#d8c1f0" opacity="0.39" />
<circle cx="242" cy="427" r="17" fill="#d8c1f0" opacity="0.39" />
<circle cx="527" cy="268" r="9" fill="#d8c1f0" opacity="0.57" />
<circle cx="668" cy="235" r="22" fill="#d8c1f0" opacity="0.50" />
<circle cx="393" cy="410" r="18" fill="#d8c1f0" opacity="0.41" />
<circle cx="217" cy="202" r="28" fill="#d8c1f0" opacity="0.36" />
<circle cx="893" cy="475" r="25" fill="#d8c1f0" opacity="0.45" />
<circle cx="202" cy="315" r="13" fill="#d8c1f0" opacity="0.48" />
<circle cx="82" cy="215" r="13" fill="#d8c1f0" opacity="0.47" />
<circle cx="294" cy="473" r="17" fill="#d8c1f0" opacity="0.55" />
<circle cx="401" cy="97" r="25" fill="#d8c1f0" opacity="0.42" />
<circle cx="790" cy="433" r="27" fill="#d8c1f0" opacity="0.51" />
<circle cx="622" cy="3" r="19" fill="#d8c1f0" opacity="0.35" />
<circle cx="83" cy="489" r="23" fill="#d8c1f0" opacity="0.44" />
<circle cx="462" cy="284" r="28" fill="#d8c1f0" opacity="0.47" />
<circle cx="228" cy="498" r="20" fill="#d8c1f0" opacity="0.47" />
<circle cx="112" cy="227" r="13" fill="#d8c1f0" opacity="0.38" />
<circle cx="439" cy="89" r="28" fill="#d8c1f0" opacity="0.46" />
<circle cx="325" cy="244" r="28" fill="#d8c1f0" opacity="0.43" />
<circle cx="534" cy="248" r="12" fill="#d8c1f0" opacity="0.49" />
<circle cx="723" cy="358" r="11" fill="#d8c1f0" opacity="0.49" />
<circle cx="668" cy="395" r="18" fill="#d8c1f0" opacity="0.59" />
<circle cx="466" cy="505" r="23" fill="#d8c1f0" opacity="0.54" />
<circle cx="899" cy="173" r="12" fill="#d8c1f0" opacity="0.40" />
<circle cx="104" cy="11" r="17" fill="#d8c1f0" opacity="0.41" />
<circle cx="736" cy="325" r="29" fill="#d8c1f0" opacity="0.56" />
<circle cx="502" cy="386" r="18" fill="#d8c1f0" opacity="0.48" />
<circle cx="452" cy="324" r="11" fill="#d8c1f0" opacity="0.60" />
<circle cx="633" cy="467" r="14" fill="#d8c1f0" opacity="0.50" />
<circle cx="125" cy="551" r="24" fill="#d8c1f0" opacity="0.41" />
<circle cx="3" cy="188" r="21" fill="#d8c1f0" opacity="0.60" />
<circle cx="370" cy="447" r="20" fill="#d8c1f0" opacity="0.50" />
<circle cx="623" cy="166" r="29" fill="#d8c1f0" opacity="0.47" />
<circle cx="391" cy="526" r="18" fill="#d8c1f0" opacity="0.53" />
<circle cx="239" cy="440" r="27" fill="#d8c1f0" opacity="0.40" />
<circle cx="176" cy="83" r="18" fill="#d8c1f0" opacity="0.48" />
<circle cx="846" cy="423" r="27" fill="#d8c1f0" opacity="0.58" />
<circle cx="237" cy="499" r="16" fill="#d8c1f0" opacity="0.40" />
<circle cx="319" cy="317" r="25" fill="#d8c1f0" opacity="0.49" />
<circle cx="263" cy="273" r="15" fill="#d8c1f0" opacity="0.37" />
<circle cx="848" cy="472" r="18" fill="#d8c1f0" opacity="0.58" />
<circle cx="255" cy="149" r="14" fill="#d8c1f0" opacity="0.35" />
<circle cx="466" cy="182" r="8" fill="#d8c1f0" opacity="0.36" />
<circle cx="757" cy="555" r="28" fill="#d8c1f0" opacity="0.35" />
<circle cx="632" cy="407" r="17" fill="#d8c1f0" opacity="0.38" />
<circle cx="897" cy="40" r="19" fill="#d8c1f0" opacity="0.41" />
<circle cx="521" cy="50" r="29" fill="#d8c1f0" opacity="0.45" />
<circle cx="446" cy="413" r="8" fill="#d8c1f0" opacity="0.46" />
<circle cx="64" cy="404" r="19" fill="#d8c1f0" opacity="0.39" />
<circle cx="318" cy="319" r="10" fill="#d8c1f0" opacity="0.35" />
<circle cx="233" cy="246" r="25" fill="#d8c1f0" opacity="0.38" />
<circle cx="212" cy="296" r="17" fill="#d8c1f0" opacity="0.56" />
<circle cx="797" cy="494" r="27" fill="#d8c1f0" opacity="0.36" />
<circle cx="211" cy="194" r="26" fill="#d8c1f0" opacity="0.59" />
<circle cx="56" cy="573" r="25" fill="#d8c1f0" opacity="0.39" />
<circle cx="63" cy="179" r="19" fill="#d8c1f0" opacity="0.50" />
<circle cx="581" cy="100" r="12" fill="#d8c1f0" opacity="0.49" />
<circle cx="290" cy="372" r="21" fill="#d8c1f0" opacity="0.36" />
<circle cx="330" cy="272" r="24" fill="#d8c1f0" opacity="0.45" />
<circle cx="206" cy="540" r="19" fill="#d8c1f0" opacity="0.59" />
<circle cx="800" cy="558" r="15" fill="#d8c1f0" opacity="0.51" />
<circle cx="834" cy="228" r="12" fill="#d8c1f0" opacity="0.55" />
<circle cx="573" cy="90" r="21" fill="#d8c1f0" opacity="0.44" />
<circle cx="588" cy="558" r="21" fill="#d8c1f0" opacity="0.37" />
<circle cx="854" cy="199" r="26" fill="#d8c1f0" opacity="0.40" />
<circle cx="621" cy="81" r="11" fill="#d8c1f0" opacity="0.42" />
<circle cx="841" cy="365" r="27" fill="#d8c1f0" opacity="0.37" />
<circle cx="74" cy="482" r="22" fill="#d8c1f0" opacity="0.49" />
<circle cx="275" cy="21" r="24" fill="#d8c1f0" opacity="0.42" />
<circle cx="560" cy="88" r="10" fill="#d8c1f0" opacity="0.59" />
<circle cx="134" cy="12" r="13" fill="#d8c1f0" opacity="0.42" />
<circle cx="89" cy="66" r="16" fill="#d8c1f0" opacity="0.48" />
<circle cx="602" cy="67" r="21" fill="#d8c1f0" opacity="0.58" />
<circle cx="443" cy="539" r="21" fill="#d8c1f0" opacity="0.49" />
<circle cx="837" cy="565" r="20" fill="#d8c1f0" opacity="0.53" />
<circle cx="234" cy="349" r="28" fill="#d8c1f0" opacity="0.47" />
<circle cx="598" cy="68" r="23" fill="#d8c1f0" opacity="0.39" />
<circle cx="478" cy="224" r="10" fill="#d8c1f0" opacity="0.42" />
<circle cx="192" cy="525" r="14" fill="#d8c1f0" opacity="0.58" />
<circle cx="523" cy="340" r="10" fill="#d8c1f0" opacity="0.43" />
<circle cx="647" cy="383" r="23" fill="#d8c1f0" opacity="0.35" />
<circle cx="493" cy="27" r="24" fill="#d8c1f0" opacity="0.47" />
<circle cx="432" cy="447" r="13" fill="#d8c1f0" opacity="0.55" />
<circle cx="727" cy="374" r="20" fill="#d8c1f0" opacity="0.45" />
<circle cx="780" cy="217" r="11" fill="#d8c1f0" opacity="0.41" />
<circle cx="283" cy="380" r="19" fill="#d8c1f0" opacity="0.55" />
<circle cx="51" cy="76" r="20" fill="#d8c1f0" opacity="0.55" />
<circle cx="512" cy="131" r="24" fill="#d8c1f0" opacity="0.42" />
<circle cx="123" cy="242" r="19" fill="#d8c1f0" opacity="0.53" />
<circle cx="542" cy="263" r="17" fill="#d8c1f0" opacity="0.50" />
<circle cx="394" cy="216" r="24" fill="#d8c1f0" opacity="0.52" />
<circle cx="648" cy="413" r="17" fill="#d8c1f0" opacity="0.40" />
<circle cx="273" cy="312" r="10" fill="#d8c1f0" opacity="0.56" />
<circle cx="486" cy="548" r="27" fill="#d8c1f0" opacity="0.53" />
<circle cx="152" cy="107" r="28" fill="#d8c1f0" opacity="0.38" />
<circle cx="660" cy="538" r="12" fill="#d8c1f0" opacity="0.47" />
<circle cx="825" cy="482" r="20" fill="#d8c1f0" opacity="0.58" />
<circle cx="400" cy="419" r="14" fill="#d8c1f0" opacity="0.57" />
<circle cx="443" cy="525" r="19" fill="#d8c1f0" opacity="0.37" />
<circle cx="625" cy="458" r="27" fill="#d8c1f0" opacity="0.47" />
<circle cx="508" cy="360" r="20" fill="#d8c1f0" opacity="0.42" />
<circle cx="256" cy="4" r="22" fill="#d8c1f0" opacity="0.55" />
<circle cx="446" cy="406" r="11" fill="#d8c1f0" opacity="0.43" />
<circle cx="861" cy="209" r="8" fill="#d8c1f0" opacity="0.40" />
<circle cx="855" cy="86" r="14" fill="#d8c1f0" opacity="0.39" />
<circle cx="348" cy="326" r="17" fill="#d8c1f0" opacity="0.44" />
<circle cx="391" cy="403" r="13" fill="#d8c1f0" opacity="0.40" />
<circle cx="12" cy="509" r="16" fill="#d8c1f0" opacity="0.48" />
<circle cx="660" cy="121" r="20" fill="#d8c1f0" opacity="0.39" />
<circle cx="102" cy="111" r="18" fill="#d8c1f0" opacity="0.43" />
<circle cx="2" cy="411" r="20" fill="#d8c1f0" opacity="0.57" />
<circle cx="845" cy="193" r="9" fill="#d8c1f0" opacity="0.56" />
<circle cx="190" cy="546" r="26" fill="#d8c1f0" opacity="0.58" />
<circle cx="535" cy="380" r="19" fill="#d8c1f0" opacity="0.51" />
<circle cx="508" cy="155" r="27" fill="#d8c1f0" opacity="0.40" />
<circle cx="867" cy="45" r="27" fill="#d8c1f0" opacity="0.36" />
<circle cx="533" cy="425" r="15" fill="#d8c1f0" opacity="0.35" />
<circle cx="711" cy="275" r="25" fill="#d8c1f0" opacity="0.54" />
<circle cx="504" cy="114" r="11" fill="#d8c1f0" opacity="0.45" />
<circle cx="796" cy="560" r="13" fill="#d8c1f0" opacity="0.45" />
<circle cx="252" cy="308" r="15" fill="#d8c1f0" opacity="0.43" />
<circle cx="694" cy="256" r="19" fill="#d8c1f0" opacity="0.55" />
<circle cx="516" cy="172" r="24" fill="#d8c1f0" opacity="0.36" />
<circle cx="181" cy="103" r="22" fill="#d8c1f0" opacity="0.58" />
<circle cx="89" cy="314" r="24" fill="#d8c1f0" opacity="0.48" />
<circle cx="28" cy="243" r="21" fill="#d8c1f0" opacity="0.43" />
<circle cx="561" cy="475" r="16" fill="#d8c1f0" opacity="0.38" />
<circle cx="338" cy="246" r="28" fill="#d8c1f0" opacity="0.54" />
<circle cx="138" cy="64" r="18" fill="#d8c1f0" opacity="0.41" />
<circle cx="848" cy="15" r="15" fill="#d8c1f0" opacity="0.42" />
<circle cx="192" cy="176" r="27" fill="#d8c1f0" opacity="0.41" />
<circle cx="583" cy="314" r="11" fill="#d8c1f0" opacity="0.38" />
<circle cx="184" cy="73" r="21" fill="#d8c1f0" opacity="0.38" />
<circle cx="65" cy="52" r="19" fill="#d8c1f0" opacity="0.42" />
<circle cx="426" cy="572" r="28" fill="#d8c1f0" opacity="0.49" />
<circle cx="36" cy="57" r="14" fill="#d8c1f0" opacity="0.50" />
<circle cx="823" cy="374" r="21" fill="#d8c1f0" opacity="0.39" />
<circle cx="324" cy="109" r="18" fill="#d8c1f0" opacity="0.56" />
<circle cx="571" cy="490" r="14" fill="#d8c1f0" opacity="0.38" />
<circle cx="608" cy="403" r="3" fill="#4f3d8b" opacity="0.84" />
<circle cx="538" cy="370" r="9" fill="#4f3d8b" opacity="0.89" />
<circle cx="427" cy="563" r="10" fill="#4f3d8b" opacity="0.61" />
<circle cx="643" cy="56" r="3" fill="#4f3d8b" opacity="0.61" />
<circle cx="260" cy="155" r="10" fill="#4f3d8b" opacity="0.88" />
<circle cx="506" cy="226" r="8" fill="#4f3d8b" opacity="0.74" />
<circle cx="706" cy="533" r="4" fill="#4f3d8b" opacity="0.73" />
<circle cx="465" cy="392" r="6" fill="#4f3d8b" opacity="0.78" />
<circle cx="559" cy="156" r="7" fill="#4f3d8b" opacity="0.69" />
<circle cx="700" cy="191" r="6" fill="#4f3d8b" opacity="0.63" />
<circle cx="890" cy="533" r="5" fill="#4f3d8b" opacity="0.70" />
<circle cx="451" cy="41" r="6" fill="#4f3d8b" opacity="0.60" />
<circle cx="523" cy="22" r="11" fill="#4f3d8b" opacity="0.85" />
<circle cx="41" cy="277" r="9" fill="#4f3d8b" opacity="0.80" />
<circle cx="215" cy="509" r="7" fill="#4f3d8b" opacity="0.58" />
<circle cx="539" cy="188" r="10" fill="#4f3d8b" opacity="0.88" />
<circle cx="22" cy="252" r="6" fill="#4f3d8b" opacity="0.56" />
<circle cx="452" cy="8" r="4" fill="#4f3d8b" opacity="0.77" />
<circle cx="823" cy="372" r="11" fill="#4f3d8b" opacity="0.87" />
<circle cx="785" cy="194" r="9" fill="#4f3d8b" opacity="0.75" />
<circle cx="765" cy="250" r="6" fill="#4f3d8b" opacity="0.62" />
<circle cx="130" cy="366" r="11" fill="#4f3d8b" opacity="0.84" />
<circle cx="264" cy="157" r="6" fill="#4f3d8b" opacity="0.79" />
<circle cx="113" cy="400" r="9" fill="#4f3d8b" opacity="0.89" />
<circle cx="240" cy="315" r="11" fill="#4f3d8b" opacity="0.64" />
<circle cx="14" cy="104" r="5" fill="#4f3d8b" opacity="0.67" />
<circle cx="14" cy="585" r="8" fill="#4f3d8b" opacity="0.76" />
<circle cx="758" cy="471" r="5" fill="#4f3d8b" opacity="0.84" />
<circle cx="5" cy="154" r="6" fill="#4f3d8b" opacity="0.84" />
<circle cx="164" cy="25" r="4" fill="#4f3d8b" opacity="0.59" />
<circle cx="483" cy="511" r="3" fill="#4f3d8b" opacity="0.82" />
<circle cx="826" cy="166" r="10" fill="#4f3d8b" opacity="0.61" />
<circle cx="288" cy="367" r="9" fill="#4f3d8b" opacity="0.65" />
<circle cx="576" cy="118" r="7" fill="#4f3d8b" opacity="0.76" />
<circle cx="512" cy="491" r="10" fill="#4f3d8b" opacity="0.68" />
<circle cx="660" cy="383" r="3" fill="#4f3d8b" opacity="0.81" />
<circle cx="202" cy="517" r="5" fill="#4f3d8b" opacity="0.87" />
<circle cx="187" cy="496" r="4" fill="#4f3d8b" opacity="0.59" />
<circle cx="391" cy="26" r="9" fill="#4f3d8b" opacity="0.89" />
<circle cx="815" cy="301" r="7" fill="#4f3d8b" opacity="0.60" />
<circle cx="523" cy="533" r="4" fill="#4f3d8b" opacity="0.77" />
<circle cx="757" cy="8" r="3" fill="#4f3d8b" opacity="0.70" />
<circle cx="772" cy="257" r="3" fill="#4f3d8b" opacity="0.89" />
<circle cx="711" cy="29" r="9" fill="#4f3d8b" opacity="0.80" />
<circle cx="837" cy="441" r="10" fill="#4f3d8b" opacity="0.73" />
<circle cx="781" cy="484" r="3" fill="#4f3d8b" opacity="0.85" />
<circle cx="466" cy="24" r="6" fill="#4f3d8b" opacity="0.63" />
<circle cx="714" cy="239" r="3" fill="#4f3d8b" opacity="0.87" />
<circle cx="721" cy="62" r="10" fill="#4f3d8b" opacity="0.59" />
<circle cx="699" cy="338" r="5" fill="#4f3d8b" opacity="0.84" />
<circle cx="266" cy="84" r="4" fill="#4f3d8b" opacity="0.75" />
<circle cx="168" cy="278" r="9" fill="#4f3d8b" opacity="0.80" />
<circle cx="222" cy="3" r="7" fill="#4f3d8b" opacity="0.77" />
<circle cx="529" cy="136" r="9" fill="#4f3d8b" opacity="0.77" />
<circle cx="301" cy="169" r="5" fill="#4f3d8b" opacity="0.86" />
<circle cx="245" cy="340" r="5" fill="#4f3d8b" opacity="0.59" />
<circle cx="617" cy="80" r="4" fill="#4f3d8b" opacity="0.58" />
<circle cx="422" cy="376" r="10" fill="#4f3d8b" opacity="0.56" />
<circle cx="51" cy="550" r="9" fill="#4f3d8b" opacity="0.84" />
<circle cx="173" cy="504" r="4" fill="#4f3d8b" opacity="0.81" />
<circle cx="226" cy="534" r="7" fill="#4f3d8b" opacity="0.70" />
<circle cx="506" cy="356" r="9" fill="#4f3d8b" opacity="0.57" />
<circle cx="709" cy="507" r="5" fill="#4f3d8b" opacity="0.64" />
<circle cx="583" cy="289" r="11" fill="#4f3d8b" opacity="0.70" />
<circle cx="434" cy="394" r="4" fill="#4f3d8b" opacity="0.67" />
<circle cx="446" cy="542" r="4" fill="#4f3d8b" opacity="0.63" />
<circle cx="571" cy="191" r="9" fill="#4f3d8b" opacity="0.86" />
<circle cx="563" cy="56" r="4" fill="#4f3d8b" opacity="0.58" />
<circle cx="764" cy="442" r="4" fill="#4f3d8b" opacity="0.63" />
<circle cx="251" cy="98" r="11" fill="#4f3d8b" opacity="0.70" />
<circle cx="231" cy="432" r="11" fill="#4f3d8b" opacity="0.65" />
<circle cx="241" cy="455" r="9" fill="#4f3d8b" opacity="0.87" />
<circle cx="349" cy="189" r="3" fill="#4f3d8b" opacity="0.87" />
<circle cx="378" cy="514" r="9" fill="#4f3d8b" opacity="0.66" />
<circle cx="748" cy="521" r="8" fill="#4f3d8b" opacity="0.80" />
<circle cx="806" cy="464" r="4" fill="#4f3d8b" opacity="0.80" />
<circle cx="289" cy="579" r="3" fill="#4f3d8b" opacity="0.85" />
<circle cx="643" cy="530" r="11" fill="#4f3d8b" opacity="0.88" />
<circle cx="63" cy="165" r="7" fill="#4f3d8b" opacity="0.84" />
<circle cx="542" cy="431" r="9" fill="#4f3d8b" opacity="0.74" />
<circle cx="666" cy="134" r="8" fill="#4f3d8b" opacity="0.82" />
<circle cx="875" cy="596" r="6" fill="#4f3d8b" opacity="0.80" />
<circle cx="855" cy="410" r="10" fill="#4f3d8b" opacity="0.59" />
<circle cx="580" cy="350" r="11" fill="#4f3d8b" opacity="0.80" />
<circle cx="654" cy="435" r="10" fill="#4f3d8b" opacity="0.77" />
<circle cx="555" cy="157" r="10" fill="#4f3d8b" opacity="0.64" />
<circle cx="292" cy="349" r="5" fill="#4f3d8b" opacity="0.76" />
<circle cx="316" cy="302" r="11" fill="#4f3d8b" opacity="0.74" />
<circle cx="140" cy="73" r="3" fill="#4f3d8b" opacity="0.59" />
<circle cx="378" cy="90" r="8" fill="#4f3d8b" opacity="0.61" />
<circle cx="602" cy="567" r="4" fill="#4f3d8b" opacity="0.86" />
<circle cx="647" cy="1" r="11" fill="#4f3d8b" opacity="0.81" />
<line x1="669" y1="368" x2="715" y2="412" stroke="#c39bd3" stroke-width="3.05" opacity="0.2" />
<line x1="62" y1="597" x2="27" y2="545" stroke="#c39bd3" stroke-width="3.20" opacity="0.2" />
<line x1="385" y1="418" x2="393" y2="370" stroke="#c39bd3" stroke-width="2.11" opacity="0.2" />
<line x1="175" y1="539" x2="195" y2="524" stroke="#c39bd3" stroke-width="1.07" opacity="0.2" />
<line x1="279" y1="316" x2="229" y2="329" stroke="#c39bd3" stroke-width="1.12" opacity="0.2" />
<line x1="534" y1="57" x2="578" y2="6" stroke="#c39bd3" stroke-width="1.48" opacity="0.2" />
<line x1="831" y1="337" x2="783" y2="380" stroke="#c39bd3" stroke-width="1.37" opacity="0.2" />
<line x1="804" y1="15" x2="769" y2="20" stroke="#c39bd3" stroke-width="1.56" opacity="0.2" />
<line x1="487" y1="542" x2="512" y2="536" stroke="#c39bd3" stroke-width="2.29" opacity="0.2" />
<line x1="89" y1="362" x2="44" y2="419" stroke="#c39bd3" stroke-width="2.04" opacity="0.2" />
<line x1="287" y1="30" x2="324" y2="-18" stroke="#c39bd3" stroke-width="1.16" opacity="0.2" />
<line x1="298" y1="488" x2="331" y2="535" stroke="#c39bd3" stroke-width="2.29" opacity="0.2" />
<line x1="70" y1="502" x2="70" y2="476" stroke="#c39bd3" stroke-width="2.21" opacity="0.2" />
<line x1="50" y1="535" x2="72" y2="527" stroke="#c39bd3" stroke-width="2.41" opacity="0.2" />
<line x1="336" y1="349" x2="395" y2="317" stroke="#c39bd3" stroke-width="3.05" opacity="0.2" />
<line x1="419" y1="580" x2="452" y2="522" stroke="#c39bd3" stroke-width="3.04" opacity="0.2" />
<line x1="351" y1="5" x2="363" y2="-13" stroke="#c39bd3" stroke-width="1.62" opacity="0.2" />
<line x1="1" y1="418" x2="-46" y2="459" stroke="#c39bd3" stroke-width="3.38" opacity="0.2" />
<line x1="367" y1="31" x2="377" y2="40" stroke="#c39bd3" stroke-width="3.09" opacity="0.2" />
<line x1="613" y1="116" x2="668" y2="115" stroke="#c39bd3" stroke-width="3.32" opacity="0.2" />
<line x1="317" y1="563" x2="354" y2="581" stroke="#c39bd3" stroke-width="2.16" opacity="0.2" />
<line x1="573" y1="561" x2="551" y2="587" stroke="#c39bd3" stroke-width="1.09" opacity="0.2" />
<line x1="8" y1="219" x2="12" y2="268" stroke="#c39bd3" stroke-width="2.79" opacity="0.2" />
<line x1="792" y1="218" x2="737" y2="228" stroke="#c39bd3" stroke-width="2.58" opacity="0.2" />
<line x1="19" y1="50" x2="51" y2="67" stroke="#c39bd3" stroke-width="1.67" opacity="0.2" />
<line x1="117" y1="184" x2="67" y2="211" stroke="#c39bd3" stroke-width="1.72" opacity="0.2" />
<line x1="149" y1="26" x2="208" y2="73" stroke="#c39bd3" stroke-width="3.11" opacity="0.2" />
<line x1="602" y1="589" x2="614" y2="539" stroke="#c39bd3" stroke-width="1.93" opacity="0.2" />
<line x1="705" y1="469" x2="740" y2="492" stroke="#c39bd3" stroke-width="3.50" opacity="0.2" />
<line x1="766" y1="33" x2="778" y2="29" stroke="#c39bd3" stroke-width="1.49" opacity="0.2" />
</svg>