<?xml version="1.0" encoding="UTF-8"?>
<svg xmlns="http://www.w3.org/2000/svg" width="900" height="600" viewBox="0 0 900 600">
<rect width="100%" height="100%" fill="#f7f0e8" />
<circle cx="247" cy="425" r="8" fill="#f0d2c0" opacity="0.49" />
<circle cx="527" cy="160" r="22" fill="#f0d2c0" opacity="0.45" />
<circle cx="733" cy="523" r="8" fill="#f0d2c0" opacity="0.45" />
<circle cx="866" cy="293" r="8" fill="#f0d2c0" opacity="0.42" />
<circle cx="184" cy="376" r="26" fill="#f0d2c0" opacity="0.50" />
<circle cx="399" cy="500" r="22" fill="#f0d2c0" opacity="0.51" />
<circle cx="558" cy="452" r="24" fill="#f0d2c0" opacity="0.57" />
<circle cx="729" cy="158" r="8" fill="#f0d2c0" opacity="0.36" />
<circle cx="539" cy="575" r="12" fill="#f0d2c0" opacity="0.45" />
<circle cx="430" cy="269" r="22" fill="#f0d2c0" opacity="0.52" />
<circle cx="723" cy="458" r="19" fill="#f0d2c0" opacity="0.52" />
<circle cx="402" cy="219" r="27" fill="#f0d2c0" opacity="0.51" />
<circle cx="431" cy="493" r="16" fill="#f0d2c0" opacity="0.55" />
<circle cx="851" cy="11" r="9" fill="#f0d2c0" opacity="0.51" />
<circle cx="757" cy="10" r="10" fill="#f0d2c0" opacity="0.40" />
<circle cx="603" cy="38" r="10" fill="#f0d2c0" opacity="0.40" />
<circle cx="17" cy="15" r="16" fill="#f0d2c0" opacity="0.44" />
<circle cx="274" cy="323" r="20" fill="#f0d2c0" opacity="0.43" />
<circle cx="517" cy="289" r="12" fill="#f0d2c0" opacity="0.49" />
<circle cx="158" cy="344" r="17" fill="#f0d2c0" opacity="0.55" />
<circle cx="758" cy="12" r="21" fill="#f0d2c0" opacity="0.49" />
<circle cx="283" cy="430" r="21" fill="#f0d2c0" opacity="0.47" />
<circle cx="758" cy="20" r="26" fill="#f0d2c0" opacity="0.41" />
<circle cx="520" cy="498" r="23" fill="#f0d2c0" opacity="0.47" />
<circle cx="732" cy="290" r="20" fill="#f0d2c0" opacity="0.57" />
<circle cx="114" cy="235" r="11" fill="#f0d2c0" opacity="0.50" />
<circle cx="837" cy="184" r="20" fill="#f0d2c0" opacity="0.57" />
<circle cx="593" cy="452" r="17" fill="#f0d2c0" opacity="0.48" />
<circle cx="884" cy="444" r="23" fill="#f0d2c0" opacity="0.46" />
<circle cx="486" cy="72" r="24" fill="#f0d2c0" opacity="0.47" />
<circle cx="19" cy="32" r="20" fill="#f0d2c0" opacity="0.45" />
<circle cx="290" cy="520" r="17" fill="#f0d2c0" opacity="0.39" />
<circle cx="729" cy="224" r="8" fill="#f0d2c0" opacity="0.45" />
<circle cx="415" cy="529" r="13" fill="#f0d2c0" opacity="0.41" />
<circle cx="649" cy="285" r="21" fill="#f0d2c0" opacity="0.57" />
<circle cx="650" cy="64" r="26" fill="#f0d2c0" opacity="0.36" />
<circle cx="436" cy="4" r="25" fill="#f0d2c0" opacity="0.59" />
<circle cx="786" cy="190" r="8" fill="#f0d2c0" opacity="0.57" />
<circle cx="56" cy="336" r="11" fill="#f0d2c0" opacity="0.36" />
<circle cx="671" cy="169" r="29" fill="#f0d2c0" opacity="0.45" />
<circle cx="381" cy="468" r="21" fill="#f0d2c0" opacity="0.49" />
<circle cx="725" cy="162" r="8" fill="#f0d2c0" opacity="0.40" />
<circle cx="320" cy="214" r="27" fill="#f0d2c0" opacity="0.57" />
<circle cx="728" cy="236" r="12" fill="#f0d2c0" opacity="0.57" />
<circle cx="406" cy="285" r="26" fill="#f0d2c0" opacity="0.52" />
<circle cx="88" cy="11" r="22" fill="#f0d2c0" opacity="0.59" />
<circle cx="76" cy="325" r="27" fill="#f0d2c0" opacity="0.48" />
<circle cx="416" cy="184" r="29" fill="#f0d2c0" opacity="0.37" />
<circle cx="775" cy="544" r="13" fill="#f0d2c0" opacity="0.47" />
<circle cx="241" cy="125" r="22" fill="#f0d2c0" opacity="0.60" />
<circle cx="0" cy="435" r="12" fill="#f0d2c0" opacity="0.36" />
<circle cx="652" cy="469" r="12" fill="#f0d2c0" opacity="0.35" />
<circle cx="414" cy="524" r="14" fill="#f0d2c0" opacity="0.38" />
<circle cx="223" cy="333" r="16" fill="#f0d2c0" opacity="0.36" />
<circle cx="21" cy="403" r="15" fill="#f0d2c0" opacity="0.47" />
<circle cx="284" cy="364" r="16" fill="#f0d2c0" opacity="0.36" />
<circle cx="638" cy="449" r="14" fill="#f0d2c0" opacity="0.47" />
<circle cx="683" cy="285" r="28" fill="#f0d2c0" opacity="0.44" />
<circle cx="95" cy="238" r="23" fill="#f0d2c0" opacity="0.52" />
<circle cx="707" cy="24" r="27" fill="#f0d2c0" opacity="0.60" />
<circle cx="474" cy="54" r="17" fill="#f0d2c0" opacity="0.41" />
<circle cx="36" cy="327" r="13" fill="#f0d2c0" opacity="0.59" />
<circle cx="449" cy="135" r="16" fill="#f0d2c0" opacity="0.54" />
<circle cx="329" cy="349" r="19" fill="#f0d2c0" opacity="0.44" />
<circle cx="819" cy="438" r="27" fill="#f0d2c0" opacity="0.47" />
<circle cx="729" cy="529" r="9" fill="#f0d2c0" opacity="0.41" />
<circle cx="182" cy="212" r="9" fill="#f0d2c0" opacity="0.58" />
<circle cx="864" cy="120" r="20" fill="#f0d2c0" opacity="0.55" />
<circle cx="231" cy="456" r="13" fill="#f0d2c0" opacity="0.57" />
<circle cx="260" cy="112" r="11" fill="#f0d2c0" opacity="0.39" />
<circle cx="869" cy="21" r="22" fill="#f0d2c0" opacity="0.53" />
<circle cx="254" cy="382" r="25" fill="#f0d2c0" opacity="0.41" />
<circle cx="133" cy="414" r="25" fill="#f0d2c0" opacity="0.52" />
<circle cx="142" cy="471" r="18" fill="#f0d2c0" opacity="0.57" />
<circle cx="320" cy="403" r="23" fill="#f0d2c0" opacity="0.38" />
<circle cx="306" cy="401" r="26" fill="#f0d2c0" opacity="0.50" />
<circle cx="373" cy="557" r="17" fill="#f0d2c0" opacity="0.44" />
<circle cx="445" cy="431" r="8" fill="#f0d2c0" opacity="0.41" />
<circle cx="307" cy="567" r="20" fill="#f0d2c0" opacity="0.52" />
<circle cx="550" cy="331" r="26" fill="#f0d2c0" opacity="0.36" />
<circle cx="682" cy="150" r="11" fill="#f0d2c0" opacity="0.41" />
<circle cx="306" cy="492" r="20" fill="#f0d2c0" opacity="0.37" />
<circle cx="266" cy="499" r="17" fill="#f0d2c0" opacity="0.58" />
<circle cx="734" cy="270" r="22" fill="#f0d2c0" opacity="0.35" />
<circle cx="117" cy="386" r="11" fill="#f0d2c0" opacity="0.42" />
<circle cx="684" cy="333" r="25" fill="#f0d2c0" opacity="0.38" />
<circle cx="40" cy="78" r="19" fill="#f0d2c0" opacity="0.42" />
<circle cx="30" cy="414" r="24" fill="#f0d2c0" opacity="0.55" />
<circle cx="539" cy="448" r="24" fill="#f0d2c0" opacity="0.52" />
<circle cx="648" cy="493" r="16" fill="#f0d2c0" opacity="0.37" />
<circle cx="106" cy="204" r="14" fill="#f0d2c0" opacity="0.51" />
<circle cx="588" cy="368" r="26" fill="#f0d2c0" opacity="0.53" />
<circle cx="609" cy="399" r="22" fill="#f0d2c0" opacity="0.45" />
<circle cx="704" cy="539" r="15" fill="#f0d2c0" opacity="0.46" />
<circle cx="222" cy="184" r="24" fill="#f0d2c0" opacity="0.41" />
<circle cx="702" cy="384" r="17" fill="#f0d2c0" opacity="0.40" />
<circle cx="83" cy="418" r="28" fill="#f0d2c0" opacity="0.49" />
<circle cx="335" cy="217" r="29" fill="#f0d2c0" opacity="0.35" />
<circle cx="383" cy="574" r="19" fill="#f0d2c0" opacity="0.52" />
<circle cx="22" cy="170" r="13" fill="#f0d2c0" opacity="0.48" />
<circle cx="40" cy="251" r="19" fill="#f0d2c0" opacity="0.56" />
<circle cx="608" cy="3" r="28" fill="#f0d2c0" opacity="0.43" />
<circle cx="240" cy="453" r="14" fill="#f0d2c0" opacity="0.46" />
<circle cx="516" cy="480" r="8" fill="#f0d2c0" opacity="0.44" />
<circle cx="444" cy="472" r="22" fill="#f0d2c0" opacity="0.44" />
<circle cx="255" cy="512" r="16" fill="#f0d2c0" opacity="0.50" />
<circle cx="160" cy="427" r="29" fill="#f0d2c0" opacity="0.50" />
<circle cx="31" cy="559" r="18" fill="#f0d2c0" opacity="0.50" />
<circle cx="228" cy="265" r="12" fill="#f0d2c0" opacity="0.53" />
<circle cx="503" cy="454" r="14" fill="#f0d2c0" opacity="0.42" />
<circle cx="856" cy="322" r="22" fill="#f0d2c0" opacity="0.36" />
<circle cx="358" cy="370" r="12" fill="#f0d2c0" opacity="0.36" />
<circle cx="768" cy="206" r="16" fill="#f0d2c0" opacity="0.51" />
<circle cx="195" cy="196" r="10" fill="#f0d2c0" opacity="0.56" />
<circle cx="281" cy="252" r="26" fill="#f0d2c0" opacity="0.49" />
<circle cx="551" cy="127" r="22" fill="#f0d2c0" opacity="0.46" />
<circle cx="272" cy="374" r="28" fill="#f0d2c0" opacity="0.46" />
<circle cx="751" cy="210" r="12" fill="#f0d2c0" opacity="0.38" />
<circle cx="697" cy="313" r="10" fill="#f0d2c0" opacity="0.44" />
<circle cx="210" cy="471" r="29" fill="#f0d2c0" opacity="0.55" />
<circle cx="327" cy="92" r="13" fill="#f0d2c0" opacity="0.56" />
<circle cx="795" cy="547" r="29" fill="#f0d2c0" opacity="0.46" />
<circle cx="205" cy="274" r="12" fill="#f0d2c0" opacity="0.57" />
<circle cx="747" cy="141" r="15" fill="#f0d2c0" opacity="0.37" />
<circle cx="775" cy="204" r="12" fill="#f0d2c0" opacity="0.57" />
<circle cx="120" cy="61" r="14" fill="#f0d2c0" opacity="0.59" />
<circle cx="104" cy="559" r="16" fill="#f0d2c0" opacity="0.48" />
<circle cx="626" cy="559" r="22" fill="#f0d2c0" opacity="0.59" />
<circle cx="678" cy="392" r="15" fill="#f0d2c0" opacity="0.47" />
<circle cx="331" cy="424" r="27" fill="#f0d2c0" opacity="0.39" />
<circle cx="702" cy="500" r="27" fill="#f0d2c0" opacity="0.44" />
<circle cx="641" cy="310" r="16" fill="#f0d2c0" opacity="0.48" />
<circle cx="883" cy="131" r="11" fill="#f0d2c0" opacity="0.39" />
<circle cx="384" cy="81" r="12" fill="#f0d2c0" opacity="0.38" />
<circle cx="795" cy="556" r="8" fill="#f0d2c0" opacity="0.44" />
<circle cx="205" cy="84" r="14" fill="#f0d2c0" opacity="0.36" />
<circle cx="682" cy="226" r="12" fill="#f0d2c0" opacity="0.42" />
<circle cx="796" cy="74" r="18" fill="#f0d2c0" opacity="0.58" />
<circle cx="310" cy="86" r="28" fill="#f0d2c0" opacity="0.39" />
<circle cx="594" cy="528" r="10" fill="#f0d2c0" opacity="0.41" />
<circle cx="569" cy="82" r="11" fill="#6f4c8b" opacity="0.82" />
<circle cx="304" cy="291" r="7" fill="#6f4c8b" opacity="0.88" />
<circle cx="646" cy="451" r="4" fill="#6f4c8b" opacity="0.57" />
<circle cx="505" cy="556" r="10" fill="#6f4c8b" opacity="0.73" />
<circle cx="423" cy="217" r="8" fill="#6f4c8b" opacity="0.80" />
<circle cx="154" cy="549" r="7" fill="#6f4c8b" opacity="0.68" />
<circle cx="541" cy="22" r="8" fill="#6f4c8b" opacity="0.86" />
<circle cx="749" cy="355" r="6" fill="#6f4c8b" opacity="0.70" />
<circle cx="225" cy="35" r="8" fill="#6f4c8b" opacity="0.90" />
<circle cx="523" cy="266" r="11" fill="#6f4c8b" opacity="0.56" />
<circle cx="292" cy="23" r="8" fill="#6f4c8b" opacity="0.72" />
<circle cx="373" cy="590" r="11" fill="#6f4c8b" opacity="0.78" />
<circle cx="886" cy="568" r="6" fill="#6f4c8b" opacity="0.70" />
<circle cx="779" cy="43" r="8" fill="#6f4c8b" opacity="0.64" />
<circle cx="294" cy="21" r="3" fill="#6f4c8b" opacity="0.62" />
<circle cx="704" cy="133" r="4" fill="#6f4c8b" opacity="0.67" />
<circle cx="742" cy="562" r="4" fill="#6f4c8b" opacity="0.82" />
<circle cx="476" cy="370" r="3" fill="#6f4c8b" opacity="0.71" />
<circle cx="660" cy="492" r="6" fill="#6f4c8b" opacity="0.76" />
<circle cx="293" cy="556" r="6" fill="#6f4c8b" opacity="0.60" />
<circle cx="603" cy="592" r="5" fill="#6f4c8b" opacity="0.83" />
<circle cx="503" cy="46" r="11" fill="#6f4c8b" opacity="0.62" />
<circle cx="536" cy="369" r="10" fill="#6f4c8b" opacity="0.86" />
<circle cx="769" cy="264" r="5" fill="#6f4c8b" opacity="0.72" />
<circle cx="767" cy="589" r="8" fill="#6f4c8b" opacity="0.72" />
<circle cx="397" cy="236" r="4" fill="#6f4c8b" opacity="0.84" />
<circle cx="754" cy="214" r="6" fill="#6f4c8b" opacity="0.84" />
<circle cx="32" cy="478" r="8" fill="#6f4c8b" opacity="0.89" />
<circle cx="714" cy="342" r="7" fill="#6f4c8b" opacity="0.70" />
<circle cx="39" cy="210" r="11" fill="#6f4c8b" opacity="0.73" />
<circle cx="879" cy="306" r="5" fill="#6f4c8b" opacity="0.77" />
<circle cx="273" cy="271" r="7" fill="#6f4c8b" opacity="0.64" />
<circle cx="896" cy="442" r="10" fill="#6f4c8b" opacity="0.64" />
<circle cx="211" cy="539" r="9" fill="#6f4c8b" opacity="0.77" />
<circle cx="182" cy="93" r="10" fill="#6f4c8b" opacity="0.66" />
<circle cx="494" cy="558" r="11" fill="#6f4c8b" opacity="0.84" />
<circle cx="490" cy="329" r="4" fill="#6f4c8b" opacity="0.67" />
<circle cx="730" cy="318" r="6" fill="#6f4c8b" opacity="0.83" />
<circle cx="14" cy="27" r="10" fill="#6f4c8b" opacity="0.65" />
<circle cx="706" cy="468" r="5" fill="#6f4c8b" opacity="0.57" />
<circle cx="645" cy="353" r="11" fill="#6f4c8b" opacity="0.70" />
<circle cx="437" cy="525" r="3" fill="#6f4c8b" opacity="0.61" />
<circle cx="200" cy="171" r="3" fill="#6f4c8b" opacity="0.60" />
<circle cx="655" cy="509" r="6" fill="#6f4c8b" opacity="0.88" />
<circle cx="268" cy="546" r="5" fill="#6f4c8b" opacity="0.86" />
<circle cx="703" cy="575" r="11" fill="#6f4c8b" opacity="0.60" />
<circle cx="539" cy="287" r="3" fill="#6f4c8b" opacity="0.66" />
<circle cx="379" cy="499" r="8" fill="#6f4c8b" opacity="0.61" />
<circle cx="767" cy="233" r="10" fill="#6f4c8b" opacity="0.65" />
<circle cx="9" cy="383" r="10" fill="#6f4c8b" opacity="0.68" />
<circle cx="531" cy="66" r="4" fill="#6f4c8b" opacity="0.80" />
<circle cx="599" cy="322" r="3" fill="#6f4c8b" opacity="0.75" />
<circle cx="616" cy="501" r="10" fill="#6f4c8b" opacity="0.62" />
<circle cx="538" cy="345" r="8" fill="#6f4c8b" opacity="0.65" />
<circle cx="361" cy="481" r="4" fill="#6f4c8b" opacity="0.64" />
<circle cx="669" cy="598" r="4" fill="#6f4c8b" opacity="0.86" />
<circle cx="833" cy="435" r="5" fill="#6f4c8b" opacity="0.89" />
<circle cx="695" cy="255" r="7" fill="#6f4c8b" opacity="0.79" />
<circle cx="619" cy="593" r="9" fill="#6f4c8b" opacity="0.88" />
<circle cx="278" cy="12" r="4" fill="#6f4c8b" opacity="0.76" />
<circle cx="243" cy="166" r="3" fill="#6f4c8b" opacity="0.69" />
<circle cx="500" cy="494" r="10" fill="#6f4c8b" opacity="0.65" />
<circle cx="400" cy="56" r="5" fill="#6f4c8b" opacity="0.79" />
<circle cx="493" cy="383" r="4" fill="#6f4c8b" opacity="0.66" />
<circle cx="322" cy="410" r="8" fill="#6f4c8b" opacity="0.59" />
<circle cx="773" cy="151" r="10" fill="#6f4c8b" opacity="0.82" />
<circle cx="272" cy="419" r="6" fill="#6f4c8b" opacity="0.62" />
<circle cx="511" cy="269" r="8" fill="#6f4c8b" opacity="0.78" />
<circle cx="3" cy="141" r="10" fill="#6f4c8b" opacity="0.90" />
<circle cx="878" cy="555" r="11" fill="#6f4c8b" opacity="0.64" />
<circle cx="873" cy="440" r="10" fill="#6f4c8b" opacity="0.55" />
<circle cx="888" cy="348" r="11" fill="#6f4c8b" opacity="0.75" />
<circle cx="575" cy="349" r="9" fill="#6f4c8b" opacity="0.63" />
<circle cx="511" cy="300" r="10" fill="#6f4c8b" opacity="0.66" />
<circle cx="889" cy="23" r="7" fill="#6f4c8b" opacity="0.62" />
<circle cx="281" cy="160" r="11" fill="#6f4c8b" opacity="0.87" />
<circle cx="784" cy="134" r="4" fill="#6f4c8b" opacity="0.70" />
<circle cx="615" cy="143" r="5" fill="#6f4c8b" opacity="0.76" />
<circle cx="867" cy="302" r="8" fill="#6f4c8b" opacity="0.78" />
<circle cx="538" cy="337" r="4" fill="#6f4c8b" opacity="0.65" />
<circle cx="416" cy="125" r="9" fill="#6f4c8b" opacity="0.68" />
<circle cx="733" cy="15" r="7" fill="#6f4c8b" opacity="0.65" />
<circle cx="352" cy="202" r="3" fill="#6f4c8b" opacity="0.61" />
<circle cx="701" cy="519" r="9" fill="#6f4c8b" opacity="0.75" />
<circle cx="336" cy="268" r="4" fill="#6f4c8b" opacity="0.86" />
<circle cx="140" cy="305" r="3" fill="#6f4c8b" opacity="0.59" />
<circle cx="332" cy="5" r="10" fill="#6f4c8b" opacity="0.67" />
<circle cx="649" cy="252" r="3" fill="#6f4c8b" opacity="0.88" />
<circle cx="159" cy="573" r="9" fill="#6f4c8b" opacity="0.64" />
<circle cx="863" cy="11" r="6" fill="#6f4c8b" opacity="0.67" />
<circle cx="710" cy="443" r="7" fill="#6f4c8b" opacity="0.86" />
<circle cx="720" cy="529" r="3" fill="#6f4c8b" opacity="0.60" />
<circle cx="87" cy="432" r="6" fill="#6f4c8b" opacity="0.89" />
<circle cx="22" cy="552" r="10" fill="#6f4c8b" opacity="0.56" />
<circle cx="146" cy="509" r="11" fill="#6f4c8b" opacity="0.83" />
<circle cx="601" cy="106" r="5" fill="#6f4c8b" opacity="0.83" />
<circle cx="26" cy="152" r="3" fill="#6f4c8b" opacity="0.71" />
<circle cx="862" cy="316" r="6" fill="#6f4c8b" opacity="0.63" />
<circle cx="9" cy="64" r="8" fill="#6f4c8b" opacity="0.75" />
<circle cx="185" cy="395" r="10" fill="#6f4c8b" opacity="0.57" />
<circle cx="417" cy="441" r="9" fill="#6f4c8b" opacity="0.83" />
<circle cx="682" cy="234" r="3" fill="#6f4c8b" opacity="0.66" />
<circle cx="471" cy="346" r="8" fill="#6f4c8b" opacity="0.61" />
<circle cx="853" cy="320" r="9" fill="#6f4c8b" opacity="0.65" />
<circle cx="845" cy="219" r="4" fill="#6f4c8b" opacity="0.57" />
<circle cx="54" cy="551" r="6" fill="#6f4c8b" opacity="0.71" />
<circle cx="882" cy="394" r="7" fill="#6f4c8b" opacity="0.61" />
<circle cx="775" cy="356" r="7" fill="#6f4c8b" opacity="0.63" />
<circle cx="128" cy="66" r="3" fill="#6f4c8b" opacity="0.66" />
<line x1="432" y1="184" x2="382" y2="128" stroke="#c889a0" stroke-width="1.29" opacity="0.2" />
<line x1="524" y1="577" x2="583" y2="585" stroke="#c889a0" stroke-width="1.43" opacity="0.2" />
<line x1="837" y1="451" x2="820" y2="446" stroke="#c889a0" stroke-width="3.22" opacity="0.2" />
<line x1="592" y1="340" x2="543" y2="368" stroke="#c889a0" stroke-width="3.04" opacity="0.2" />
<line x1="69" y1="462" x2="51" y2="409" stroke="#c889a0" stroke-width="1.70" opacity="0.2" />
<line x1="284" y1="125" x2="261" y2="82" stroke="#c889a0" stroke-width="2.46" opacity="0.2" />
<line x1="839" y1="312" x2="864" y2="309" stroke="#c889a0" stroke-width="1.09" opacity="0.2" />
<line x1="819" y1="107" x2="833" y2="125" stroke="#c889a0" stroke-width="1.77" opacity="0.2" />
<line x1="836" y1="103" x2="872" y2="153" stroke="#c889a0" stroke-width="1.69" opacity="0.2" />
<line x1="131" y1="388" x2="154" y2="393" stroke="#c889a0" stroke-width="3.05" opacity="0.2" />
<line x1="607" y1="590" x2="565" y2="532" stroke="#c889a0" stroke-width="2.25" opacity="0.2" />
<line x1="520" y1="2" x2="470" y2="30" stroke="#c889a0" stroke-width="2.76" opacity="0.2" />
<line x1="82" y1="194" x2="131" y2="140" stroke="#c889a0" stroke-width="2.15" opacity="0.2" />
<line x1="158" y1="90" x2="101" y2="138" stroke="#c889a0" stroke-width="1.95" opacity="0.2" />
<line x1="832" y1="113" x2="837" y2="102" stroke="#c889a0" stroke-width="1.05" opacity="0.2" />
<line x1="343" y1="313" x2="340" y2="368" stroke="#c889a0" stroke-width="2.00" opacity="0.2" />
<line x1="759" y1="475" x2="707" y2="423" stroke="#c889a0" stroke-width="1.76" opacity="0.2" />
<line x1="627" y1="205" x2="596" y2="229" stroke="#c889a0" stroke-width="1.84" opacity="0.2" />
<line x1="203" y1="248" x2="213" y2="254" stroke="#c889a0" stroke-width="1.77" opacity="0.2" />
<line x1="801" y1="165" x2="811" y2="127" stroke="#c889a0" stroke-width="2.89" opacity="0.2" />
<line x1="761" y1="185" x2="810" y2="210" stroke="#c889a0" stroke-width="1.16" opacity="0.2" />
<line x1="881" y1="362" x2="823" y2="351" stroke="#c889a0" stroke-width="3.29" opacity="0.2" />
<line x1="392" y1="516" x2="400" y2="498" stroke="#c889a0" stroke-width="2.55" opacity="0.2" />
<line x1="569" y1="587" x2="554" y2="584" stroke="#c889a0" stroke-width="1.09" opacity="0.2" />
<line x1="28" y1="520" x2="-4" y2="486" stroke="#c889a0" stroke-width="1.69" opacity="0.2" />
<line x1="111" y1="323" x2="122" y2="371" stroke="#c889a0" stroke-width="1.12" opacity="0.2" />
<line x1="821" y1="599" x2="768" y2="571" stroke="#c889a0" stroke-width="1.67" opacity="0.2" />
<line x1="86" y1="438" x2="144" y2="394" stroke="#c889a0" stroke-width="1.59" opacity="0.2" />
<line x1="396" y1="582" x2="431" y2="634" stroke="#c889a0" stroke-width="1.02" opacity="0.2" />
<line x1="172" y1="565" x2="223" y2="622" stroke="#c889a0" stroke-width="1.67" opacity="0.2" />
</svg>