<?xml version="1.0" encoding="UTF-8"?>
<svg xmlns="http://www.w3.org/2000/svg" width="900" height="600" viewBox="0 0 900 600">
<rect width="100%" height="100%" fill="#f8e6e6" />
<circle cx="344" cy="292" r="19" fill="#f2c9d1" opacity="0.58" />
<circle cx="296" cy="119" r="11" fill="#f2c9d1" opacity="0.40" />
<circle cx="797" cy="116" r="21" fill="#f2c9d1" opacity="0.38" />
<circle cx="479" cy="550" r="16" fill="#f2c9d1" opacity="0.56" />
<circle cx="323" cy="195" r="12" fill="#f2c9d1" opacity="0.58" />
<circle cx="763" cy="452" r="21" fill="#f2c9d1" opacity="0.53" />
<circle cx="135" cy="410" r="19" fill="#f2c9d1" opacity="0.44" />
<circle cx="73" cy="17" r="19" fill="#f2c9d1" opacity="0.44" />
<circle cx="439" cy="118" r="21" fill="#f2c9d1" opacity="0.54" />
<circle cx="90" cy="596" r="8" fill="#f2c9d1" opacity="0.47" />
<circle cx="544" cy="21" r="24" fill="#f2c9d1" opacity="0.54" />
<circle cx="733" cy="166" r="19" fill="#f2c9d1" opacity="0.56" />
<circle cx="100" cy="146" r="22" fill="#f2c9d1" opacity="0.44" />
<circle cx="299" cy="503" r="8" fill="#f2c9d1" opacity="0.38" />
<circle cx="165" cy="453" r="26" fill="#f2c9d1" opacity="0.56" />
<circle cx="897" cy="92" r="28" fill="#f2c9d1" opacity="0.60" />
<circle cx="889" cy="444" r="22" fill="#f2c9d1" opacity="0.45" />
<circle cx="562" cy="596" r="29" fill="#f2c9d1" opacity="0.40" />
<circle cx="862" cy="410" r="29" fill="#f2c9d1" opacity="0.45" />
<circle cx="539" cy="382" r="10" fill="#f2c9d1" opacity="0.39" />
<circle cx="520" cy="435" r="15" fill="#f2c9d1" opacity="0.59" />
<circle cx="60" cy="522" r="11" fill="#f2c9d1" opacity="0.52" />
<circle cx="458" cy="211" r="11" fill="#f2c9d1" opacity="0.46" />
<circle cx="834" cy="598" r="14" fill="#f2c9d1" opacity="0.58" />
<circle cx="657" cy="524" r="22" fill="#f2c9d1" opacity="0.53" />
<circle cx="745" cy="504" r="14" fill="#f2c9d1" opacity="0.51" />
<circle cx="14" cy="305" r="17" fill="#f2c9d1" opacity="0.44" />
<circle cx="542" cy="537" r="27" fill="#f2c9d1" opacity="0.51" />
<circle cx="790" cy="418" r="8" fill="#f2c9d1" opacity="0.54" />
<circle cx="890" cy="389" r="12" fill="#f2c9d1" opacity="0.43" />
<circle cx="122" cy="302" r="23" fill="#f2c9d1" opacity="0.48" />
<circle cx="59" cy="44" r="17" fill="#f2c9d1" opacity="0.52" />
<circle cx="472" cy="56" r="17" fill="#f2c9d1" opacity="0.58" />
<circle cx="276" cy="534" r="18" fill="#f2c9d1" opacity="0.43" />
<circle cx="763" cy="18" r="27" fill="#f2c9d1" opacity="0.54" />
<circle cx="638" cy="351" r="27" fill="#f2c9d1" opacity="0.55" />
<circle cx="48" cy="344" r="13" fill="#f2c9d1" opacity="0.35" />
<circle cx="428" cy="446" r="25" fill="#f2c9d1" opacity="0.53" />
<circle cx="850" cy="122" r="13" fill="#f2c9d1" opacity="0.48" />
<circle cx="660" cy="435" r="19" fill="#f2c9d1" opacity="0.37" />
<circle cx="813" cy="151" r="14" fill="#f2c9d1" opacity="0.39" />
<circle cx="464" cy="387" r="19" fill="#f2c9d1" opacity="0.47" />
<circle cx="137" cy="218" r="12" fill="#f2c9d1" opacity="0.56" />
<circle cx="402" cy="562" r="24" fill="#f2c9d1" opacity="0.57" />
<circle cx="52" cy="282" r="20" fill="#f2c9d1" opacity="0.49" />
<circle cx="804" cy="448" r="25" fill="#f2c9d1" opacity="0.57" />
<circle cx="285" cy="95" r="14" fill="#f2c9d1" opacity="0.44" />
<circle cx="97" cy="346" r="16" fill="#f2c9d1" opacity="0.50" />
<circle cx="666" cy="136" r="9" fill="#f2c9d1" opacity="0.55" />
<circle cx="568" cy="510" r="26" fill="#f2c9d1" opacity="0.47" />
<circle cx="330" cy="347" r="13" fill="#f2c9d1" opacity="0.53" />
<circle cx="649" cy="538" r="23" fill="#f2c9d1" opacity="0.53" />
<circle cx="593" cy="370" r="29" fill="#f2c9d1" opacity="0.38" />
<circle cx="14" cy="65" r="10" fill="#f2c9d1" opacity="0.44" />
<circle cx="444" cy="183" r="29" fill="#f2c9d1" opacity="0.46" />
<circle cx="539" cy="534" r="9" fill="#f2c9d1" opacity="0.52" />
<circle cx="362" cy="370" r="14" fill="#f2c9d1" opacity="0.52" />
<circle cx="701" cy="166" r="22" fill="#f2c9d1" opacity="0.46" />
<circle cx="785" cy="378" r="16" fill="#f2c9d1" opacity="0.50" />
<circle cx="46" cy="563" r="27" fill="#f2c9d1" opacity="0.59" />
<circle cx="685" cy="56" r="11" fill="#f2c9d1" opacity="0.54" />
<circle cx="801" cy="466" r="23" fill="#f2c9d1" opacity="0.36" />
<circle cx="834" cy="228" r="17" fill="#f2c9d1" opacity="0.36" />
<circle cx="285" cy="439" r="28" fill="#f2c9d1" opacity="0.52" />
<circle cx="403" cy="56" r="27" fill="#f2c9d1" opacity="0.42" />
<circle cx="769" cy="150" r="10" fill="#f2c9d1" opacity="0.49" />
<circle cx="428" cy="553" r="9" fill="#f2c9d1" opacity="0.57" />
<circle cx="884" cy="397" r="19" fill="#f2c9d1" opacity="0.55" />
<circle cx="351" cy="311" r="27" fill="#f2c9d1" opacity="0.55" />
<circle cx="794" cy="452" r="20" fill="#f2c9d1" opacity="0.42" />
<circle cx="387" cy="98" r="27" fill="#f2c9d1" opacity="0.39" />
<circle cx="11" cy="374" r="21" fill="#f2c9d1" opacity="0.37" />
<circle cx="243" cy="571" r="16" fill="#f2c9d1" opacity="0.42" />
<circle cx="392" cy="6" r="17" fill="#f2c9d1" opacity="0.42" />
<circle cx="717" cy="62" r="28" fill="#f2c9d1" opacity="0.55" />
<circle cx="235" cy="185" r="19" fill="#f2c9d1" opacity="0.38" />
<circle cx="30" cy="158" r="12" fill="#f2c9d1" opacity="0.44" />
<circle cx="811" cy="353" r="11" fill="#f2c9d1" opacity="0.50" />
<circle cx="182" cy="402" r="29" fill="#f2c9d1" opacity="0.38" />
<circle cx="655" cy="8" r="18" fill="#f2c9d1" opacity="0.44" />
<circle cx="758" cy="151" r="29" fill="#f2c9d1" opacity="0.54" />
<circle cx="368" cy="30" r="12" fill="#f2c9d1" opacity="0.50" />
<circle cx="260" cy="404" r="15" fill="#f2c9d1" opacity="0.36" />
<circle cx="3" cy="214" r="29" fill="#f2c9d1" opacity="0.53" />
<circle cx="394" cy="222" r="27" fill="#f2c9d1" opacity="0.53" />
<circle cx="318" cy="380" r="17" fill="#f2c9d1" opacity="0.42" />
<circle cx="768" cy="415" r="12" fill="#f2c9d1" opacity="0.43" />
<circle cx="486" cy="280" r="11" fill="#f2c9d1" opacity="0.40" />
<circle cx="524" cy="41" r="10" fill="#f2c9d1" opacity="0.59" />
<circle cx="536" cy="529" r="22" fill="#f2c9d1" opacity="0.53" />
<circle cx="295" cy="477" r="27" fill="#f2c9d1" opacity="0.52" />
<circle cx="154" cy="234" r="18" fill="#f2c9d1" opacity="0.55" />
<circle cx="23" cy="140" r="21" fill="#f2c9d1" opacity="0.39" />
<circle cx="128" cy="487" r="16" fill="#f2c9d1" opacity="0.45" />
<circle cx="861" cy="97" r="27" fill="#f2c9d1" opacity="0.35" />
<circle cx="801" cy="255" r="24" fill="#f2c9d1" opacity="0.37" />
<circle cx="214" cy="490" r="8" fill="#f2c9d1" opacity="0.50" />
<circle cx="120" cy="34" r="11" fill="#f2c9d1" opacity="0.58" />
<circle cx="774" cy="108" r="12" fill="#f2c9d1" opacity="0.43" />
<circle cx="92" cy="395" r="10" fill="#f2c9d1" opacity="0.47" />
<circle cx="32" cy="32" r="15" fill="#f2c9d1" opacity="0.40" />
<circle cx="674" cy="137" r="27" fill="#f2c9d1" opacity="0.59" />
<circle cx="247" cy="542" r="11" fill="#f2c9d1" opacity="0.36" />
<circle cx="247" cy="373" r="10" fill="#f2c9d1" opacity="0.39" />
<circle cx="210" cy="31" r="29" fill="#f2c9d1" opacity="0.53" />
<circle cx="444" cy="374" r="27" fill="#f2c9d1" opacity="0.35" />
<circle cx="91" cy="426" r="24" fill="#f2c9d1" opacity="0.54" />
<circle cx="678" cy="204" r="12" fill="#f2c9d1" opacity="0.41" />
<circle cx="424" cy="508" r="19" fill="#f2c9d1" opacity="0.47" />
<circle cx="320" cy="427" r="8" fill="#f2c9d1" opacity="0.45" />
<circle cx="390" cy="389" r="17" fill="#f2c9d1" opacity="0.40" />
<circle cx="26" cy="298" r="12" fill="#f2c9d1" opacity="0.42" />
<circle cx="298" cy="117" r="19" fill="#f2c9d1" opacity="0.57" />
<circle cx="769" cy="43" r="27" fill="#f2c9d1" opacity="0.52" />
<circle cx="309" cy="125" r="23" fill="#f2c9d1" opacity="0.54" />
<circle cx="288" cy="298" r="12" fill="#f2c9d1" opacity="0.54" />
<circle cx="629" cy="245" r="24" fill="#f2c9d1" opacity="0.56" />
<circle cx="430" cy="96" r="15" fill="#f2c9d1" opacity="0.56" />
<circle cx="172" cy="16" r="24" fill="#f2c9d1" opacity="0.37" />
<circle cx="166" cy="212" r="8" fill="#f2c9d1" opacity="0.46" />
<circle cx="769" cy="512" r="25" fill="#f2c9d1" opacity="0.51" />
<circle cx="311" cy="158" r="29" fill="#f2c9d1" opacity="0.49" />
<circle cx="244" cy="406" r="26" fill="#f2c9d1" opacity="0.38" />
<circle cx="735" cy="150" r="19" fill="#f2c9d1" opacity="0.56" />
<circle cx="574" cy="311" r="8" fill="#f2c9d1" opacity="0.48" />
<circle cx="787" cy="174" r="10" fill="#f2c9d1" opacity="0.44" />
<circle cx="258" cy="147" r="20" fill="#f2c9d1" opacity="0.52" />
<circle cx="449" cy="506" r="27" fill="#f2c9d1" opacity="0.48" />
<circle cx="415" cy="235" r="15" fill="#f2c9d1" opacity="0.36" />
<circle cx="591" cy="32" r="8" fill="#f2c9d1" opacity="0.53" />
<circle cx="153" cy="576" r="27" fill="#f2c9d1" opacity="0.43" />
<circle cx="671" cy="578" r="17" fill="#f2c9d1" opacity="0.47" />
<circle cx="398" cy="211" r="25" fill="#f2c9d1" opacity="0.39" />
<circle cx="215" cy="520" r="19" fill="#f2c9d1" opacity="0.60" />
<circle cx="492" cy="556" r="29" fill="#f2c9d1" opacity="0.39" />
<circle cx="568" cy="350" r="19" fill="#f2c9d1" opacity="0.41" />
<circle cx="293" cy="311" r="17" fill="#f2c9d1" opacity="0.56" />
<circle cx="70" cy="554" r="12" fill="#f2c9d1" opacity="0.40" />
<circle cx="679" cy="492" r="28" fill="#f2c9d1" opacity="0.45" />
<circle cx="209" cy="346" r="12" fill="#f2c9d1" opacity="0.52" />
<circle cx="183" cy="229" r="11" fill="#6b4fa1" opacity="0.77" />
<circle cx="716" cy="53" r="3" fill="#6b4fa1" opacity="0.59" />
<circle cx="207" cy="136" r="8" fill="#6b4fa1" opacity="0.83" />
<circle cx="570" cy="381" r="10" fill="#6b4fa1" opacity="0.68" />
<circle cx="718" cy="153" r="8" fill="#6b4fa1" opacity="0.65" />
<circle cx="124" cy="114" r="8" fill="#6b4fa1" opacity="0.70" />
<circle cx="889" cy="565" r="11" fill="#6b4fa1" opacity="0.86" />
<circle cx="408" cy="183" r="3" fill="#6b4fa1" opacity="0.60" />
<circle cx="716" cy="255" r="10" fill="#6b4fa1" opacity="0.58" />
<circle cx="878" cy="412" r="5" fill="#6b4fa1" opacity="0.61" />
<circle cx="752" cy="73" r="5" fill="#6b4fa1" opacity="0.87" />
<circle cx="515" cy="509" r="4" fill="#6b4fa1" opacity="0.57" />
<circle cx="793" cy="198" r="7" fill="#6b4fa1" opacity="0.76" />
<circle cx="300" cy="50" r="8" fill="#6b4fa1" opacity="0.72" />
<circle cx="722" cy="227" r="8" fill="#6b4fa1" opacity="0.59" />
<circle cx="139" cy="168" r="5" fill="#6b4fa1" opacity="0.87" />
<circle cx="244" cy="497" r="8" fill="#6b4fa1" opacity="0.80" />
<circle cx="243" cy="286" r="10" fill="#6b4fa1" opacity="0.62" />
<circle cx="835" cy="392" r="4" fill="#6b4fa1" opacity="0.56" />
<circle cx="505" cy="105" r="9" fill="#6b4fa1" opacity="0.88" />
<circle cx="344" cy="291" r="9" fill="#6b4fa1" opacity="0.68" />
<circle cx="543" cy="22" r="10" fill="#6b4fa1" opacity="0.86" />
<circle cx="425" cy="64" r="6" fill="#6b4fa1" opacity="0.67" />
<circle cx="14" cy="342" r="4" fill="#6b4fa1" opacity="0.88" />
<circle cx="634" cy="401" r="6" fill="#6b4fa1" opacity="0.75" />
<circle cx="251" cy="285" r="5" fill="#6b4fa1" opacity="0.60" />
<circle cx="310" cy="377" r="8" fill="#6b4fa1" opacity="0.71" />
<circle cx="829" cy="338" r="11" fill="#6b4fa1" opacity="0.63" />
<circle cx="755" cy="138" r="8" fill="#6b4fa1" opacity="0.57" />
<circle cx="422" cy="578" r="7" fill="#6b4fa1" opacity="0.62" />
<circle cx="546" cy="252" r="7" fill="#6b4fa1" opacity="0.88" />
<circle cx="899" cy="405" r="4" fill="#6b4fa1" opacity="0.78" />
<circle cx="746" cy="271" r="9" fill="#6b4fa1" opacity="0.80" />
<circle cx="330" cy="399" r="9" fill="#6b4fa1" opacity="0.88" />
<circle cx="425" cy="162" r="5" fill="#6b4fa1" opacity="0.80" />
<circle cx="215" cy="40" r="7" fill="#6b4fa1" opacity="0.65" />
<circle cx="66" cy="216" r="8" fill="#6b4fa1" opacity="0.86" />
<circle cx="141" cy="183" r="10" fill="#6b4fa1" opacity="0.58" />
<circle cx="170" cy="562" r="6" fill="#6b4fa1" opacity="0.70" />
<circle cx="278" cy="535" r="8" fill="#6b4fa1" opacity="0.68" />
<circle cx="61" cy="241" r="7" fill="#6b4fa1" opacity="0.87" />
<circle cx="390" cy="316" r="7" fill="#6b4fa1" opacity="0.80" />
<circle cx="291" cy="91" r="7" fill="#6b4fa1" opacity="0.79" />
<circle cx="78" cy="310" r="9" fill="#6b4fa1" opacity="0.72" />
<circle cx="465" cy="83" r="3" fill="#6b4fa1" opacity="0.76" />
<circle cx="168" cy="592" r="8" fill="#6b4fa1" opacity="0.77" />
<circle cx="337" cy="84" r="4" fill="#6b4fa1" opacity="0.75" />
<circle cx="709" cy="277" r="9" fill="#6b4fa1" opacity="0.57" />
<circle cx="470" cy="90" r="5" fill="#6b4fa1" opacity="0.90" />
<circle cx="324" cy="517" r="11" fill="#6b4fa1" opacity="0.81" />
<circle cx="477" cy="24" r="9" fill="#6b4fa1" opacity="0.63" />
<circle cx="801" cy="423" r="6" fill="#6b4fa1" opacity="0.68" />
<circle cx="172" cy="259" r="11" fill="#6b4fa1" opacity="0.70" />
<circle cx="426" cy="151" r="10" fill="#6b4fa1" opacity="0.59" />
<circle cx="870" cy="286" r="4" fill="#6b4fa1" opacity="0.81" />
<circle cx="193" cy="250" r="10" fill="#6b4fa1" opacity="0.81" />
<circle cx="721" cy="425" r="9" fill="#6b4fa1" opacity="0.70" />
<circle cx="145" cy="340" r="3" fill="#6b4fa1" opacity="0.60" />
<circle cx="123" cy="10" r="11" fill="#6b4fa1" opacity="0.78" />
<circle cx="558" cy="485" r="6" fill="#6b4fa1" opacity="0.63" />
<circle cx="351" cy="367" r="8" fill="#6b4fa1" opacity="0.85" />
<circle cx="155" cy="468" r="4" fill="#6b4fa1" opacity="0.59" />
<circle cx="331" cy="159" r="7" fill="#6b4fa1" opacity="0.68" />
<circle cx="279" cy="175" r="5" fill="#6b4fa1" opacity="0.80" />
<circle cx="543" cy="350" r="7" fill="#6b4fa1" opacity="0.71" />
<circle cx="123" cy="488" r="11" fill="#6b4fa1" opacity="0.83" />
<circle cx="485" cy="386" r="3" fill="#6b4fa1" opacity="0.57" />
<circle cx="672" cy="195" r="8" fill="#6b4fa1" opacity="0.62" />
<circle cx="874" cy="151" r="3" fill="#6b4fa1" opacity="0.85" />
<circle cx="806" cy="285" r="10" fill="#6b4fa1" opacity="0.68" />
<circle cx="102" cy="146" r="4" fill="#6b4fa1" opacity="0.56" />
<circle cx="789" cy="469" r="3" fill="#6b4fa1" opacity="0.64" />
<circle cx="431" cy="572" r="4" fill="#6b4fa1" opacity="0.59" />
<circle cx="892" cy="470" r="4" fill="#6b4fa1" opacity="0.84" />
<circle cx="343" cy="221" r="11" fill="#6b4fa1" opacity="0.83" />
<circle cx="536" cy="376" r="3" fill="#6b4fa1" opacity="0.77" />
<circle cx="314" cy="334" r="10" fill="#6b4fa1" opacity="0.86" />
<circle cx="793" cy="411" r="9" fill="#6b4fa1" opacity="0.81" />
<circle cx="657" cy="419" r="3" fill="#6b4fa1" opacity="0.63" />
<circle cx="153" cy="210" r="6" fill="#6b4fa1" opacity="0.88" />
<circle cx="279" cy="45" r="11" fill="#6b4fa1" opacity="0.82" />
<circle cx="247" cy="354" r="7" fill="#6b4fa1" opacity="0.86" />
<circle cx="141" cy="185" r="10" fill="#6b4fa1" opacity="0.77" />
<circle cx="5" cy="562" r="5" fill="#6b4fa1" opacity="0.87" />
<circle cx="314" cy="220" r="7" fill="#6b4fa1" opacity="0.65" />
<circle cx="831" cy="70" r="8" fill="#6b4fa1" opacity="0.76" />
<circle cx="423" cy="160" r="4" fill="#6b4fa1" opacity="0.90" />
<line x1="310" y1="349" x2="319" y2="292" stroke="#bb7ca4" stroke-width="3.03" opacity="0.2" />
<line x1="772" y1="485" x2="746" y2="460" stroke="#bb7ca4" stroke-width="2.29" opacity="0.2" />
<line x1="456" y1="424" x2="431" y2="458" stroke="#bb7ca4" stroke-width="1.98" opacity="0.2" />
<line x1="204" y1="424" x2="168" y2="413" stroke="#bb7ca4" stroke-width="2.16" opacity="0.2" />
<line x1="295" y1="175" x2="280" y2="133" stroke="#bb7ca4" stroke-width="3.45" opacity="0.2" />
<line x1="753" y1="318" x2="794" y2="260" stroke="#bb7ca4" stroke-width="3.01" opacity="0.2" />
<line x1="203" y1="78" x2="232" y2="99" stroke="#bb7ca4" stroke-width="2.51" opacity="0.2" />
<line x1="811" y1="431" x2="788" y2="424" stroke="#bb7ca4" stroke-width="2.10" opacity="0.2" />
<line x1="847" y1="38" x2="841" y2="58" stroke="#bb7ca4" stroke-width="2.61" opacity="0.2" />
<line x1="489" y1="390" x2="462" y2="369" stroke="#bb7ca4" stroke-width="1.81" opacity="0.2" />
<line x1="713" y1="274" x2="705" y2="217" stroke="#bb7ca4" stroke-width="2.41" opacity="0.2" />
<line x1="211" y1="26" x2="174" y2="40" stroke="#bb7ca4" stroke-width="1.07" opacity="0.2" />
<line x1="516" y1="228" x2="507" y2="256" stroke="#bb7ca4" stroke-width="3.32" opacity="0.2" />
<line x1="235" y1="461" x2="230" y2="430" stroke="#bb7ca4" stroke-width="2.94" opacity="0.2" />
<line x1="872" y1="309" x2="830" y2="342" stroke="#bb7ca4" stroke-width="1.49" opacity="0.2" />
<line x1="800" y1="537" x2="800" y2="589" stroke="#bb7ca4" stroke-width="1.99" opacity="0.2" />
<line x1="596" y1="0" x2="600" y2="54" stroke="#bb7ca4" stroke-width="3.39" opacity="0.2" />
<line x1="468" y1="44" x2="498" y2="77" stroke="#bb7ca4" stroke-width="1.80" opacity="0.2" />
<line x1="389" y1="591" x2="433" y2="650" stroke="#bb7ca4" stroke-width="3.33" opacity="0.2" />
<line x1="243" y1="483" x2="296" y2="473" stroke="#bb7ca4" stroke-width="1.48" opacity="0.2" />
<line x1="496" y1="202" x2="461" y2="199" stroke="#bb7ca4" stroke-width="2.45" opacity="0.2" />
<line x1="797" y1="418" x2="789" y2="383" stroke="#bb7ca4" stroke-width="2.24" opacity="0.2" />
<line x1="750" y1="12" x2="718" y2="39" stroke="#bb7ca4" stroke-width="2.16" opacity="0.2" />
<line x1="18" y1="371" x2="66" y2="401" stroke="#bb7ca4" stroke-width="2.62" opacity="0.2" />
<line x1="819" y1="458" x2="845" y2="489" stroke="#bb7ca4" stroke-width="2.18" opacity="0.2" />
<line x1="38" y1="541" x2="53" y2="508" stroke="#bb7ca4" stroke-width="2.17" opacity="0.2" />
<line x1="102" y1="558" x2="143" y2="582" stroke="#bb7ca4" stroke-width="1.58" opacity="0.2" />
<line x1="547" y1="249" x2="583" y2="265" stroke="#bb7ca4" stroke-width="1.39" opacity="0.2" />
<line x1="805" y1="73" x2="855" y2="64" stroke="#bb7ca4" stroke-width="1.66" opacity="0.2" />
<line x1="313" y1="153" x2="268" y2="103" stroke="#bb7ca4" stroke-width="2.78" opacity="0.2" />
</svg>