<?xml version="1.0" encoding="UTF-8"?>
<svg xmlns="http://www.w3.org/2000/svg" width="900" height="600" viewBox="0 0 900 600">
<rect width="100%" height="100%" fill="#f7f0e8" />
<circle cx="277" cy="509" r="19" fill="#f0d2c0" opacity="0.56" />
<circle cx="864" cy="539" r="26" fill="#f0d2c0" opacity="0.59" />
<circle cx="172" cy="223" r="18" fill="#f0d2c0" opacity="0.43" />
<circle cx="479" cy="249" r="23" fill="#f0d2c0" opacity="0.50" />
<circle cx="598" cy="483" r="16" fill="#f0d2c0" opacity="0.41" />
<circle cx="675" cy="441" r="15" fill="#f0d2c0" opacity="0.45" />
<circle cx="210" cy="517" r="13" fill="#f0d2c0" opacity="0.44" />
<circle cx="9" cy="78" r="18" fill="#f0d2c0" opacity="0.44" />
<circle cx="886" cy="319" r="8" fill="#f0d2c0" opacity="0.43" />
<circle cx="686" cy="63" r="14" fill="#f0d2c0" opacity="0.43" />
<circle cx="747" cy="30" r="24" fill="#f0d2c0" opacity="0.46" />
<circle cx="189" cy="113" r="11" fill="#f0d2c0" opacity="0.59" />
<circle cx="708" cy="108" r="10" fill="#f0d2c0" opacity="0.54" />
<circle cx="871" cy="398" r="10" fill="#f0d2c0" opacity="0.41" />
<circle cx="175" cy="324" r="19" fill="#f0d2c0" opacity="0.57" />
<circle cx="163" cy="289" r="13" fill="#f0d2c0" opacity="0.50" />
<circle cx="11" cy="315" r="17" fill="#f0d2c0" opacity="0.51" />
<circle cx="885" cy="531" r="23" fill="#f0d2c0" opacity="0.47" />
<circle cx="632" cy="177" r="12" fill="#f0d2c0" opacity="0.59" />
<circle cx="482" cy="123" r="22" fill="#f0d2c0" opacity="0.48" />
<circle cx="372" cy="119" r="8" fill="#f0d2c0" opacity="0.42" />
<circle cx="514" cy="346" r="13" fill="#f0d2c0" opacity="0.53" />
<circle cx="404" cy="39" r="10" fill="#f0d2c0" opacity="0.57" />
<circle cx="409" cy="45" r="19" fill="#f0d2c0" opacity="0.52" />
<circle cx="82" cy="556" r="27" fill="#f0d2c0" opacity="0.55" />
<circle cx="219" cy="179" r="22" fill="#f0d2c0" opacity="0.52" />
<circle cx="187" cy="507" r="18" fill="#f0d2c0" opacity="0.59" />
<circle cx="188" cy="0" r="12" fill="#f0d2c0" opacity="0.42" />
<circle cx="327" cy="193" r="29" fill="#f0d2c0" opacity="0.41" />
<circle cx="255" cy="314" r="15" fill="#f0d2c0" opacity="0.36" />
<circle cx="242" cy="559" r="14" fill="#f0d2c0" opacity="0.48" />
<circle cx="357" cy="595" r="9" fill="#f0d2c0" opacity="0.43" />
<circle cx="717" cy="200" r="12" fill="#f0d2c0" opacity="0.39" />
<circle cx="417" cy="402" r="11" fill="#f0d2c0" opacity="0.38" />
<circle cx="373" cy="82" r="25" fill="#f0d2c0" opacity="0.59" />
<circle cx="190" cy="456" r="21" fill="#f0d2c0" opacity="0.42" />
<circle cx="204" cy="134" r="12" fill="#f0d2c0" opacity="0.52" />
<circle cx="132" cy="553" r="11" fill="#f0d2c0" opacity="0.50" />
<circle cx="262" cy="167" r="27" fill="#f0d2c0" opacity="0.41" />
<circle cx="526" cy="359" r="10" fill="#f0d2c0" opacity="0.40" />
<circle cx="439" cy="446" r="28" fill="#f0d2c0" opacity="0.46" />
<circle cx="814" cy="164" r="25" fill="#f0d2c0" opacity="0.60" />
<circle cx="698" cy="328" r="25" fill="#f0d2c0" opacity="0.54" />
<circle cx="555" cy="91" r="24" fill="#f0d2c0" opacity="0.51" />
<circle cx="667" cy="569" r="27" fill="#f0d2c0" opacity="0.48" />
<circle cx="619" cy="459" r="8" fill="#f0d2c0" opacity="0.48" />
<circle cx="368" cy="568" r="20" fill="#f0d2c0" opacity="0.54" />
<circle cx="854" cy="38" r="12" fill="#f0d2c0" opacity="0.44" />
<circle cx="898" cy="399" r="12" fill="#f0d2c0" opacity="0.41" />
<circle cx="617" cy="537" r="19" fill="#f0d2c0" opacity="0.48" />
<circle cx="128" cy="152" r="8" fill="#f0d2c0" opacity="0.58" />
<circle cx="367" cy="340" r="8" fill="#f0d2c0" opacity="0.43" />
<circle cx="747" cy="453" r="18" fill="#f0d2c0" opacity="0.56" />
<circle cx="146" cy="315" r="8" fill="#f0d2c0" opacity="0.40" />
<circle cx="830" cy="510" r="18" fill="#f0d2c0" opacity="0.36" />
<circle cx="744" cy="408" r="18" fill="#f0d2c0" opacity="0.53" />
<circle cx="837" cy="236" r="15" fill="#f0d2c0" opacity="0.58" />
<circle cx="740" cy="258" r="12" fill="#f0d2c0" opacity="0.42" />
<circle cx="702" cy="406" r="29" fill="#f0d2c0" opacity="0.38" />
<circle cx="247" cy="118" r="25" fill="#f0d2c0" opacity="0.54" />
<circle cx="591" cy="10" r="26" fill="#f0d2c0" opacity="0.35" />
<circle cx="436" cy="436" r="17" fill="#f0d2c0" opacity="0.60" />
<circle cx="748" cy="4" r="18" fill="#f0d2c0" opacity="0.42" />
<circle cx="654" cy="138" r="25" fill="#f0d2c0" opacity="0.36" />
<circle cx="164" cy="562" r="15" fill="#f0d2c0" opacity="0.51" />
<circle cx="319" cy="279" r="21" fill="#f0d2c0" opacity="0.48" />
<circle cx="553" cy="131" r="21" fill="#f0d2c0" opacity="0.59" />
<circle cx="847" cy="211" r="25" fill="#f0d2c0" opacity="0.47" />
<circle cx="133" cy="457" r="25" fill="#f0d2c0" opacity="0.48" />
<circle cx="325" cy="287" r="10" fill="#f0d2c0" opacity="0.49" />
<circle cx="202" cy="417" r="18" fill="#f0d2c0" opacity="0.49" />
<circle cx="471" cy="205" r="15" fill="#f0d2c0" opacity="0.50" />
<circle cx="739" cy="325" r="15" fill="#f0d2c0" opacity="0.58" />
<circle cx="78" cy="44" r="20" fill="#f0d2c0" opacity="0.47" />
<circle cx="761" cy="440" r="12" fill="#f0d2c0" opacity="0.57" />
<circle cx="79" cy="115" r="9" fill="#f0d2c0" opacity="0.36" />
<circle cx="37" cy="583" r="15" fill="#f0d2c0" opacity="0.54" />
<circle cx="234" cy="109" r="25" fill="#f0d2c0" opacity="0.57" />
<circle cx="674" cy="187" r="13" fill="#f0d2c0" opacity="0.41" />
<circle cx="384" cy="597" r="8" fill="#f0d2c0" opacity="0.55" />
<circle cx="182" cy="545" r="28" fill="#f0d2c0" opacity="0.44" />
<circle cx="699" cy="299" r="10" fill="#f0d2c0" opacity="0.42" />
<circle cx="23" cy="40" r="9" fill="#f0d2c0" opacity="0.55" />
<circle cx="311" cy="10" r="8" fill="#f0d2c0" opacity="0.56" />
<circle cx="575" cy="165" r="26" fill="#f0d2c0" opacity="0.42" />
<circle cx="109" cy="480" r="18" fill="#f0d2c0" opacity="0.47" />
<circle cx="242" cy="415" r="17" fill="#f0d2c0" opacity="0.48" />
<circle cx="52" cy="551" r="8" fill="#f0d2c0" opacity="0.43" />
<circle cx="104" cy="572" r="27" fill="#f0d2c0" opacity="0.55" />
<circle cx="790" cy="244" r="20" fill="#f0d2c0" opacity="0.47" />
<circle cx="566" cy="11" r="18" fill="#f0d2c0" opacity="0.51" />
<circle cx="882" cy="188" r="27" fill="#f0d2c0" opacity="0.41" />
<circle cx="435" cy="217" r="22" fill="#f0d2c0" opacity="0.58" />
<circle cx="128" cy="442" r="10" fill="#f0d2c0" opacity="0.50" />
<circle cx="185" cy="400" r="10" fill="#f0d2c0" opacity="0.54" />
<circle cx="431" cy="329" r="18" fill="#f0d2c0" opacity="0.46" />
<circle cx="748" cy="424" r="28" fill="#f0d2c0" opacity="0.55" />
<circle cx="801" cy="257" r="28" fill="#f0d2c0" opacity="0.40" />
<circle cx="95" cy="261" r="28" fill="#f0d2c0" opacity="0.47" />
<circle cx="380" cy="443" r="24" fill="#f0d2c0" opacity="0.41" />
<circle cx="172" cy="297" r="8" fill="#f0d2c0" opacity="0.44" />
<circle cx="757" cy="430" r="14" fill="#f0d2c0" opacity="0.59" />
<circle cx="309" cy="435" r="26" fill="#f0d2c0" opacity="0.48" />
<circle cx="723" cy="171" r="8" fill="#f0d2c0" opacity="0.60" />
<circle cx="816" cy="414" r="23" fill="#f0d2c0" opacity="0.53" />
<circle cx="288" cy="237" r="27" fill="#f0d2c0" opacity="0.55" />
<circle cx="632" cy="550" r="8" fill="#f0d2c0" opacity="0.55" />
<circle cx="34" cy="219" r="17" fill="#f0d2c0" opacity="0.46" />
<circle cx="320" cy="506" r="13" fill="#f0d2c0" opacity="0.48" />
<circle cx="197" cy="397" r="10" fill="#f0d2c0" opacity="0.37" />
<circle cx="793" cy="225" r="14" fill="#f0d2c0" opacity="0.53" />
<circle cx="599" cy="24" r="12" fill="#f0d2c0" opacity="0.48" />
<circle cx="724" cy="500" r="15" fill="#f0d2c0" opacity="0.42" />
<circle cx="861" cy="416" r="13" fill="#f0d2c0" opacity="0.41" />
<circle cx="821" cy="321" r="13" fill="#f0d2c0" opacity="0.58" />
<circle cx="473" cy="147" r="12" fill="#f0d2c0" opacity="0.42" />
<circle cx="14" cy="545" r="11" fill="#f0d2c0" opacity="0.44" />
<circle cx="630" cy="389" r="9" fill="#f0d2c0" opacity="0.40" />
<circle cx="887" cy="347" r="23" fill="#f0d2c0" opacity="0.45" />
<circle cx="151" cy="163" r="12" fill="#f0d2c0" opacity="0.38" />
<circle cx="348" cy="121" r="25" fill="#f0d2c0" opacity="0.37" />
<circle cx="507" cy="551" r="26" fill="#f0d2c0" opacity="0.55" />
<circle cx="658" cy="24" r="9" fill="#f0d2c0" opacity="0.37" />
<circle cx="887" cy="260" r="13" fill="#f0d2c0" opacity="0.46" />
<circle cx="419" cy="33" r="23" fill="#f0d2c0" opacity="0.49" />
<circle cx="545" cy="175" r="29" fill="#f0d2c0" opacity="0.52" />
<circle cx="639" cy="421" r="11" fill="#f0d2c0" opacity="0.55" />
<circle cx="21" cy="306" r="15" fill="#f0d2c0" opacity="0.42" />
<circle cx="279" cy="224" r="9" fill="#f0d2c0" opacity="0.46" />
<circle cx="76" cy="504" r="13" fill="#f0d2c0" opacity="0.37" />
<circle cx="689" cy="376" r="15" fill="#f0d2c0" opacity="0.58" />
<circle cx="612" cy="533" r="12" fill="#f0d2c0" opacity="0.57" />
<circle cx="623" cy="365" r="22" fill="#f0d2c0" opacity="0.58" />
<circle cx="9" cy="385" r="26" fill="#f0d2c0" opacity="0.40" />
<circle cx="84" cy="13" r="8" fill="#f0d2c0" opacity="0.59" />
<circle cx="557" cy="531" r="24" fill="#f0d2c0" opacity="0.49" />
<circle cx="518" cy="566" r="12" fill="#f0d2c0" opacity="0.54" />
<circle cx="460" cy="444" r="27" fill="#f0d2c0" opacity="0.57" />
<circle cx="347" cy="418" r="28" fill="#f0d2c0" opacity="0.42" />
<circle cx="281" cy="247" r="16" fill="#f0d2c0" opacity="0.43" />
<circle cx="265" cy="348" r="8" fill="#f0d2c0" opacity="0.51" />
<circle cx="493" cy="532" r="10" fill="#f0d2c0" opacity="0.39" />
<circle cx="248" cy="322" r="26" fill="#f0d2c0" opacity="0.56" />
<circle cx="471" cy="500" r="10" fill="#f0d2c0" opacity="0.56" />
<circle cx="46" cy="175" r="9" fill="#f0d2c0" opacity="0.49" />
<circle cx="603" cy="514" r="23" fill="#f0d2c0" opacity="0.45" />
<circle cx="518" cy="103" r="19" fill="#f0d2c0" opacity="0.52" />
<circle cx="146" cy="543" r="19" fill="#f0d2c0" opacity="0.41" />
<circle cx="263" cy="112" r="12" fill="#f0d2c0" opacity="0.44" />
<circle cx="269" cy="31" r="11" fill="#f0d2c0" opacity="0.53" />
<circle cx="49" cy="350" r="17" fill="#f0d2c0" opacity="0.40" />
<circle cx="899" cy="361" r="19" fill="#f0d2c0" opacity="0.56" />
<circle cx="450" cy="181" r="26" fill="#f0d2c0" opacity="0.50" />
<circle cx="235" cy="129" r="25" fill="#f0d2c0" opacity="0.52" />
<circle cx="111" cy="478" r="22" fill="#f0d2c0" opacity="0.43" />
<circle cx="628" cy="162" r="9" fill="#f0d2c0" opacity="0.38" />
<circle cx="178" cy="213" r="27" fill="#f0d2c0" opacity="0.40" />
<circle cx="437" cy="403" r="15" fill="#f0d2c0" opacity="0.45" />
<circle cx="454" cy="409" r="21" fill="#f0d2c0" opacity="0.52" />
<circle cx="162" cy="106" r="22" fill="#f0d2c0" opacity="0.43" />
<circle cx="666" cy="339" r="10" fill="#f0d2c0" opacity="0.51" />
<circle cx="405" cy="144" r="16" fill="#f0d2c0" opacity="0.53" />
<circle cx="279" cy="551" r="13" fill="#f0d2c0" opacity="0.53" />
<circle cx="113" cy="325" r="21" fill="#f0d2c0" opacity="0.43" />
<circle cx="780" cy="439" r="17" fill="#f0d2c0" opacity="0.47" />
<circle cx="264" cy="502" r="29" fill="#f0d2c0" opacity="0.42" />
<circle cx="594" cy="138" r="5" fill="#6f4c8b" opacity="0.82" />
<circle cx="861" cy="45" r="7" fill="#6f4c8b" opacity="0.66" />
<circle cx="238" cy="527" r="7" fill="#6f4c8b" opacity="0.65" />
<circle cx="415" cy="162" r="8" fill="#6f4c8b" opacity="0.65" />
<circle cx="92" cy="432" r="4" fill="#6f4c8b" opacity="0.63" />
<circle cx="182" cy="391" r="4" fill="#6f4c8b" opacity="0.89" />
<circle cx="506" cy="513" r="11" fill="#6f4c8b" opacity="0.85" />
<circle cx="578" cy="453" r="5" fill="#6f4c8b" opacity="0.58" />
<circle cx="538" cy="510" r="7" fill="#6f4c8b" opacity="0.84" />
<circle cx="674" cy="36" r="9" fill="#6f4c8b" opacity="0.57" />
<circle cx="553" cy="359" r="7" fill="#6f4c8b" opacity="0.62" />
<circle cx="545" cy="311" r="9" fill="#6f4c8b" opacity="0.56" />
<circle cx="598" cy="597" r="9" fill="#6f4c8b" opacity="0.58" />
<circle cx="875" cy="323" r="10" fill="#6f4c8b" opacity="0.82" />
<circle cx="266" cy="103" r="9" fill="#6f4c8b" opacity="0.80" />
<circle cx="660" cy="190" r="5" fill="#6f4c8b" opacity="0.77" />
<circle cx="163" cy="120" r="7" fill="#6f4c8b" opacity="0.87" />
<circle cx="395" cy="144" r="7" fill="#6f4c8b" opacity="0.75" />
<circle cx="469" cy="389" r="6" fill="#6f4c8b" opacity="0.88" />
<circle cx="850" cy="431" r="9" fill="#6f4c8b" opacity="0.79" />
<circle cx="173" cy="111" r="7" fill="#6f4c8b" opacity="0.80" />
<circle cx="318" cy="393" r="7" fill="#6f4c8b" opacity="0.70" />
<circle cx="520" cy="141" r="6" fill="#6f4c8b" opacity="0.63" />
<circle cx="560" cy="239" r="11" fill="#6f4c8b" opacity="0.65" />
<circle cx="835" cy="476" r="4" fill="#6f4c8b" opacity="0.77" />
<circle cx="846" cy="567" r="10" fill="#6f4c8b" opacity="0.68" />
<circle cx="441" cy="409" r="3" fill="#6f4c8b" opacity="0.56" />
<circle cx="461" cy="241" r="8" fill="#6f4c8b" opacity="0.85" />
<circle cx="122" cy="76" r="5" fill="#6f4c8b" opacity="0.83" />
<circle cx="347" cy="48" r="3" fill="#6f4c8b" opacity="0.61" />
<circle cx="109" cy="587" r="10" fill="#6f4c8b" opacity="0.90" />
<circle cx="493" cy="100" r="4" fill="#6f4c8b" opacity="0.69" />
<circle cx="313" cy="200" r="5" fill="#6f4c8b" opacity="0.73" />
<circle cx="461" cy="316" r="3" fill="#6f4c8b" opacity="0.66" />
<circle cx="812" cy="474" r="9" fill="#6f4c8b" opacity="0.77" />
<circle cx="436" cy="452" r="5" fill="#6f4c8b" opacity="0.63" />
<circle cx="802" cy="566" r="9" fill="#6f4c8b" opacity="0.85" />
<circle cx="219" cy="253" r="6" fill="#6f4c8b" opacity="0.67" />
<circle cx="162" cy="132" r="10" fill="#6f4c8b" opacity="0.70" />
<circle cx="272" cy="502" r="9" fill="#6f4c8b" opacity="0.82" />
<circle cx="400" cy="494" r="10" fill="#6f4c8b" opacity="0.74" />
<circle cx="353" cy="314" r="11" fill="#6f4c8b" opacity="0.78" />
<circle cx="827" cy="40" r="11" fill="#6f4c8b" opacity="0.85" />
<circle cx="122" cy="442" r="11" fill="#6f4c8b" opacity="0.67" />
<circle cx="494" cy="299" r="3" fill="#6f4c8b" opacity="0.56" />
<circle cx="111" cy="473" r="3" fill="#6f4c8b" opacity="0.67" />
<circle cx="488" cy="410" r="9" fill="#6f4c8b" opacity="0.78" />
<circle cx="119" cy="207" r="8" fill="#6f4c8b" opacity="0.83" />
<circle cx="106" cy="271" r="6" fill="#6f4c8b" opacity="0.60" />
<circle cx="831" cy="286" r="6" fill="#6f4c8b" opacity="0.72" />
<circle cx="260" cy="585" r="9" fill="#6f4c8b" opacity="0.62" />
<circle cx="644" cy="423" r="11" fill="#6f4c8b" opacity="0.66" />
<circle cx="727" cy="307" r="11" fill="#6f4c8b" opacity="0.69" />
<circle cx="0" cy="60" r="6" fill="#6f4c8b" opacity="0.81" />
<circle cx="250" cy="191" r="3" fill="#6f4c8b" opacity="0.77" />
<circle cx="597" cy="160" r="5" fill="#6f4c8b" opacity="0.85" />
<circle cx="22" cy="558" r="9" fill="#6f4c8b" opacity="0.88" />
<circle cx="457" cy="311" r="11" fill="#6f4c8b" opacity="0.81" />
<circle cx="551" cy="580" r="5" fill="#6f4c8b" opacity="0.87" />
<circle cx="59" cy="147" r="7" fill="#6f4c8b" opacity="0.80" />
<circle cx="781" cy="402" r="7" fill="#6f4c8b" opacity="0.89" />
<circle cx="297" cy="383" r="3" fill="#6f4c8b" opacity="0.67" />
<circle cx="432" cy="389" r="4" fill="#6f4c8b" opacity="0.78" />
<circle cx="86" cy="338" r="7" fill="#6f4c8b" opacity="0.60" />
<circle cx="502" cy="426" r="7" fill="#6f4c8b" opacity="0.77" />
<circle cx="448" cy="465" r="8" fill="#6f4c8b" opacity="0.59" />
<circle cx="862" cy="187" r="5" fill="#6f4c8b" opacity="0.64" />
<circle cx="237" cy="597" r="8" fill="#6f4c8b" opacity="0.73" />
<circle cx="112" cy="238" r="9" fill="#6f4c8b" opacity="0.71" />
<circle cx="42" cy="368" r="10" fill="#6f4c8b" opacity="0.74" />
<circle cx="641" cy="587" r="5" fill="#6f4c8b" opacity="0.61" />
<circle cx="148" cy="313" r="6" fill="#6f4c8b" opacity="0.59" />
<circle cx="456" cy="551" r="3" fill="#6f4c8b" opacity="0.71" />
<circle cx="229" cy="41" r="5" fill="#6f4c8b" opacity="0.89" />
<circle cx="134" cy="508" r="7" fill="#6f4c8b" opacity="0.62" />
<circle cx="762" cy="577" r="9" fill="#6f4c8b" opacity="0.85" />
<circle cx="51" cy="106" r="5" fill="#6f4c8b" opacity="0.78" />
<circle cx="756" cy="485" r="10" fill="#6f4c8b" opacity="0.81" />
<circle cx="739" cy="123" r="8" fill="#6f4c8b" opacity="0.56" />
<circle cx="624" cy="171" r="3" fill="#6f4c8b" opacity="0.63" />
<circle cx="33" cy="95" r="5" fill="#6f4c8b" opacity="0.75" />
<circle cx="754" cy="299" r="9" fill="#6f4c8b" opacity="0.74" />
<circle cx="606" cy="469" r="7" fill="#6f4c8b" opacity="0.88" />
<circle cx="851" cy="32" r="4" fill="#6f4c8b" opacity="0.88" />
<circle cx="473" cy="512" r="7" fill="#6f4c8b" opacity="0.87" />
<circle cx="38" cy="17" r="8" fill="#6f4c8b" opacity="0.60" />
<circle cx="649" cy="209" r="10" fill="#6f4c8b" opacity="0.86" />
<circle cx="607" cy="383" r="11" fill="#6f4c8b" opacity="0.79" />
<circle cx="514" cy="365" r="4" fill="#6f4c8b" opacity="0.82" />
<circle cx="6" cy="180" r="10" fill="#6f4c8b" opacity="0.84" />
<circle cx="346" cy="360" r="11" fill="#6f4c8b" opacity="0.59" />
<circle cx="13" cy="527" r="10" fill="#6f4c8b" opacity="0.85" />
<circle cx="822" cy="434" r="5" fill="#6f4c8b" opacity="0.83" />
<circle cx="798" cy="591" r="3" fill="#6f4c8b" opacity="0.65" />
<circle cx="170" cy="185" r="9" fill="#6f4c8b" opacity="0.88" />
<circle cx="389" cy="227" r="10" fill="#6f4c8b" opacity="0.84" />
<circle cx="644" cy="248" r="6" fill="#6f4c8b" opacity="0.69" />
<circle cx="90" cy="410" r="9" fill="#6f4c8b" opacity="0.66" />
<line x1="799" y1="494" x2="841" y2="446" stroke="#c889a0" stroke-width="1.33" opacity="0.2" />
<line x1="329" y1="554" x2="282" y2="590" stroke="#c889a0" stroke-width="2.58" opacity="0.2" />
<line x1="864" y1="591" x2="840" y2="544" stroke="#c889a0" stroke-width="3.37" opacity="0.2" />
<line x1="764" y1="563" x2="793" y2="616" stroke="#c889a0" stroke-width="2.27" opacity="0.2" />
<line x1="514" y1="583" x2="531" y2="540" stroke="#c889a0" stroke-width="1.76" opacity="0.2" />
<line x1="432" y1="194" x2="466" y2="177" stroke="#c889a0" stroke-width="2.43" opacity="0.2" />
<line x1="80" y1="469" x2="118" y2="493" stroke="#c889a0" stroke-width="1.31" opacity="0.2" />
<line x1="38" y1="22" x2="19" y2="61" stroke="#c889a0" stroke-width="2.18" opacity="0.2" />
<line x1="737" y1="410" x2="717" y2="461" stroke="#c889a0" stroke-width="1.54" opacity="0.2" />
<line x1="199" y1="289" x2="195" y2="348" stroke="#c889a0" stroke-width="1.55" opacity="0.2" />
<line x1="817" y1="94" x2="810" y2="87" stroke="#c889a0" stroke-width="2.88" opacity="0.2" />
<line x1="458" y1="555" x2="470" y2="541" stroke="#c889a0" stroke-width="1.52" opacity="0.2" />
<line x1="251" y1="554" x2="267" y2="561" stroke="#c889a0" stroke-width="1.79" opacity="0.2" />
<line x1="676" y1="309" x2="680" y2="343" stroke="#c889a0" stroke-width="2.84" opacity="0.2" />
<line x1="204" y1="434" x2="193" y2="387" stroke="#c889a0" stroke-width="3.02" opacity="0.2" />
<line x1="832" y1="32" x2="865" y2="55" stroke="#c889a0" stroke-width="1.75" opacity="0.2" />
<line x1="657" y1="473" x2="672" y2="442" stroke="#c889a0" stroke-width="3.39" opacity="0.2" />
<line x1="704" y1="505" x2="740" y2="545" stroke="#c889a0" stroke-width="1.42" opacity="0.2" />
<line x1="833" y1="19" x2="789" y2="-6" stroke="#c889a0" stroke-width="2.02" opacity="0.2" />
<line x1="318" y1="464" x2="344" y2="472" stroke="#c889a0" stroke-width="2.32" opacity="0.2" />
<line x1="345" y1="418" x2="391" y2="462" stroke="#c889a0" stroke-width="2.00" opacity="0.2" />
<line x1="741" y1="26" x2="703" y2="74" stroke="#c889a0" stroke-width="1.28" opacity="0.2" />
<line x1="816" y1="26" x2="798" y2="16" stroke="#c889a0" stroke-width="1.12" opacity="0.2" />
<line x1="105" y1="151" x2="159" y2="166" stroke="#c889a0" stroke-width="1.44" opacity="0.2" />
<line x1="100" y1="139" x2="59" y2="124" stroke="#c889a0" stroke-width="3.30" opacity="0.2" />
<line x1="539" y1="511" x2="546" y2="539" stroke="#c889a0" stroke-width="3.13" opacity="0.2" />
<line x1="298" y1="100" x2="247" y2="132" stroke="#c889a0" stroke-width="1.24" opacity="0.2" />
<line x1="62" y1="481" x2="89" y2="505" stroke="#c889a0" stroke-width="2.30" opacity="0.2" />
<line x1="656" y1="113" x2="683" y2="74" stroke="#c889a0" stroke-width="2.94" opacity="0.2" />
<line x1="550" y1="333" x2="536" y2="367" stroke="#c889a0" stroke-width="2.81" opacity="0.2" />
</svg>