<?xml version="1.0" encoding="UTF-8"?>
<svg xmlns="http://www.w3.org/2000/svg" width="900" height="600" viewBox="0 0 900 600">
<rect width="100%" height="100%" fill="#f5ebe0" />
<circle cx="57" cy="184" r="9" fill="#f1d4c2" opacity="0.37" />
<circle cx="6" cy="346" r="19" fill="#f1d4c2" opacity="0.58" />
<circle cx="517" cy="535" r="14" fill="#f1d4c2" opacity="0.44" />
<circle cx="527" cy="567" r="16" fill="#f1d4c2" opacity="0.50" />
<circle cx="44" cy="523" r="25" fill="#f1d4c2" opacity="0.58" />
<circle cx="305" cy="400" r="11" fill="#f1d4c2" opacity="0.58" />
<circle cx="293" cy="310" r="22" fill="#f1d4c2" opacity="0.36" />
<circle cx="829" cy="535" r="24" fill="#f1d4c2" opacity="0.45" />
<circle cx="648" cy="516" r="22" fill="#f1d4c2" opacity="0.37" />
<circle cx="678" cy="282" r="19" fill="#f1d4c2" opacity="0.42" />
<circle cx="497" cy="482" r="17" fill="#f1d4c2" opacity="0.48" />
<circle cx="758" cy="44" r="17" fill="#f1d4c2" opacity="0.45" />
<circle cx="498" cy="395" r="15" fill="#f1d4c2" opacity="0.36" />
<circle cx="294" cy="498" r="21" fill="#f1d4c2" opacity="0.39" />
<circle cx="93" cy="360" r="17" fill="#f1d4c2" opacity="0.45" />
<circle cx="628" cy="480" r="12" fill="#f1d4c2" opacity="0.38" />
<circle cx="250" cy="369" r="16" fill="#f1d4c2" opacity="0.53" />
<circle cx="435" cy="161" r="8" fill="#f1d4c2" opacity="0.45" />
<circle cx="209" cy="456" r="10" fill="#f1d4c2" opacity="0.35" />
<circle cx="268" cy="585" r="18" fill="#f1d4c2" opacity="0.51" />
<circle cx="386" cy="532" r="27" fill="#f1d4c2" opacity="0.58" />
<circle cx="277" cy="182" r="13" fill="#f1d4c2" opacity="0.51" />
<circle cx="614" cy="223" r="18" fill="#f1d4c2" opacity="0.45" />
<circle cx="41" cy="553" r="28" fill="#f1d4c2" opacity="0.48" />
<circle cx="325" cy="205" r="17" fill="#f1d4c2" opacity="0.42" />
<circle cx="477" cy="286" r="25" fill="#f1d4c2" opacity="0.42" />
<circle cx="9" cy="527" r="8" fill="#f1d4c2" opacity="0.46" />
<circle cx="148" cy="449" r="24" fill="#f1d4c2" opacity="0.39" />
<circle cx="889" cy="98" r="10" fill="#f1d4c2" opacity="0.47" />
<circle cx="898" cy="392" r="17" fill="#f1d4c2" opacity="0.43" />
<circle cx="245" cy="207" r="14" fill="#f1d4c2" opacity="0.41" />
<circle cx="301" cy="139" r="13" fill="#f1d4c2" opacity="0.51" />
<circle cx="616" cy="592" r="15" fill="#f1d4c2" opacity="0.56" />
<circle cx="764" cy="35" r="22" fill="#f1d4c2" opacity="0.42" />
<circle cx="1" cy="589" r="15" fill="#f1d4c2" opacity="0.58" />
<circle cx="690" cy="545" r="20" fill="#f1d4c2" opacity="0.52" />
<circle cx="332" cy="473" r="17" fill="#f1d4c2" opacity="0.40" />
<circle cx="549" cy="530" r="14" fill="#f1d4c2" opacity="0.55" />
<circle cx="549" cy="544" r="8" fill="#f1d4c2" opacity="0.58" />
<circle cx="185" cy="241" r="16" fill="#f1d4c2" opacity="0.52" />
<circle cx="789" cy="568" r="28" fill="#f1d4c2" opacity="0.44" />
<circle cx="298" cy="249" r="24" fill="#f1d4c2" opacity="0.45" />
<circle cx="816" cy="259" r="27" fill="#f1d4c2" opacity="0.58" />
<circle cx="619" cy="310" r="29" fill="#f1d4c2" opacity="0.54" />
<circle cx="472" cy="242" r="13" fill="#f1d4c2" opacity="0.60" />
<circle cx="447" cy="418" r="23" fill="#f1d4c2" opacity="0.53" />
<circle cx="79" cy="513" r="25" fill="#f1d4c2" opacity="0.50" />
<circle cx="378" cy="342" r="26" fill="#f1d4c2" opacity="0.39" />
<circle cx="678" cy="76" r="11" fill="#f1d4c2" opacity="0.56" />
<circle cx="113" cy="432" r="12" fill="#f1d4c2" opacity="0.41" />
<circle cx="116" cy="125" r="27" fill="#f1d4c2" opacity="0.40" />
<circle cx="851" cy="49" r="10" fill="#f1d4c2" opacity="0.54" />
<circle cx="366" cy="379" r="27" fill="#f1d4c2" opacity="0.49" />
<circle cx="28" cy="144" r="25" fill="#f1d4c2" opacity="0.58" />
<circle cx="598" cy="522" r="15" fill="#f1d4c2" opacity="0.49" />
<circle cx="261" cy="447" r="11" fill="#f1d4c2" opacity="0.41" />
<circle cx="538" cy="45" r="19" fill="#f1d4c2" opacity="0.56" />
<circle cx="620" cy="192" r="24" fill="#f1d4c2" opacity="0.45" />
<circle cx="207" cy="400" r="12" fill="#f1d4c2" opacity="0.49" />
<circle cx="531" cy="427" r="23" fill="#f1d4c2" opacity="0.40" />
<circle cx="112" cy="494" r="12" fill="#f1d4c2" opacity="0.40" />
<circle cx="435" cy="528" r="9" fill="#f1d4c2" opacity="0.50" />
<circle cx="749" cy="4" r="13" fill="#f1d4c2" opacity="0.60" />
<circle cx="41" cy="388" r="18" fill="#f1d4c2" opacity="0.53" />
<circle cx="349" cy="464" r="8" fill="#f1d4c2" opacity="0.46" />
<circle cx="404" cy="328" r="16" fill="#f1d4c2" opacity="0.39" />
<circle cx="745" cy="259" r="22" fill="#f1d4c2" opacity="0.43" />
<circle cx="804" cy="179" r="12" fill="#f1d4c2" opacity="0.54" />
<circle cx="756" cy="28" r="21" fill="#f1d4c2" opacity="0.43" />
<circle cx="706" cy="456" r="14" fill="#f1d4c2" opacity="0.49" />
<circle cx="374" cy="407" r="24" fill="#f1d4c2" opacity="0.45" />
<circle cx="594" cy="444" r="28" fill="#f1d4c2" opacity="0.55" />
<circle cx="585" cy="419" r="15" fill="#f1d4c2" opacity="0.40" />
<circle cx="289" cy="105" r="25" fill="#f1d4c2" opacity="0.38" />
<circle cx="487" cy="317" r="27" fill="#f1d4c2" opacity="0.51" />
<circle cx="682" cy="495" r="11" fill="#f1d4c2" opacity="0.51" />
<circle cx="241" cy="174" r="9" fill="#f1d4c2" opacity="0.57" />
<circle cx="20" cy="424" r="15" fill="#f1d4c2" opacity="0.47" />
<circle cx="71" cy="9" r="16" fill="#f1d4c2" opacity="0.45" />
<circle cx="820" cy="513" r="26" fill="#f1d4c2" opacity="0.44" />
<circle cx="847" cy="135" r="8" fill="#f1d4c2" opacity="0.57" />
<circle cx="79" cy="52" r="22" fill="#f1d4c2" opacity="0.53" />
<circle cx="256" cy="262" r="18" fill="#f1d4c2" opacity="0.41" />
<circle cx="739" cy="243" r="14" fill="#f1d4c2" opacity="0.58" />
<circle cx="8" cy="318" r="19" fill="#f1d4c2" opacity="0.59" />
<circle cx="572" cy="318" r="11" fill="#f1d4c2" opacity="0.46" />
<circle cx="656" cy="379" r="24" fill="#f1d4c2" opacity="0.60" />
<circle cx="517" cy="348" r="16" fill="#f1d4c2" opacity="0.58" />
<circle cx="92" cy="63" r="19" fill="#f1d4c2" opacity="0.39" />
<circle cx="378" cy="558" r="16" fill="#f1d4c2" opacity="0.48" />
<circle cx="813" cy="397" r="8" fill="#f1d4c2" opacity="0.49" />
<circle cx="222" cy="170" r="10" fill="#f1d4c2" opacity="0.37" />
<circle cx="160" cy="490" r="18" fill="#f1d4c2" opacity="0.59" />
<circle cx="273" cy="266" r="25" fill="#f1d4c2" opacity="0.36" />
<circle cx="709" cy="251" r="10" fill="#f1d4c2" opacity="0.46" />
<circle cx="683" cy="181" r="22" fill="#f1d4c2" opacity="0.46" />
<circle cx="294" cy="472" r="10" fill="#f1d4c2" opacity="0.53" />
<circle cx="605" cy="105" r="15" fill="#f1d4c2" opacity="0.40" />
<circle cx="622" cy="572" r="8" fill="#f1d4c2" opacity="0.35" />
<circle cx="731" cy="572" r="10" fill="#f1d4c2" opacity="0.57" />
<circle cx="765" cy="123" r="20" fill="#f1d4c2" opacity="0.51" />
<circle cx="591" cy="53" r="29" fill="#f1d4c2" opacity="0.42" />
<circle cx="318" cy="497" r="16" fill="#f1d4c2" opacity="0.43" />
<circle cx="22" cy="204" r="10" fill="#f1d4c2" opacity="0.39" />
<circle cx="567" cy="592" r="24" fill="#f1d4c2" opacity="0.40" />
<circle cx="700" cy="549" r="15" fill="#f1d4c2" opacity="0.58" />
<circle cx="889" cy="450" r="23" fill="#f1d4c2" opacity="0.44" />
<circle cx="647" cy="417" r="19" fill="#f1d4c2" opacity="0.45" />
<circle cx="808" cy="507" r="10" fill="#f1d4c2" opacity="0.49" />
<circle cx="537" cy="91" r="23" fill="#f1d4c2" opacity="0.55" />
<circle cx="504" cy="547" r="15" fill="#f1d4c2" opacity="0.56" />
<circle cx="575" cy="137" r="20" fill="#f1d4c2" opacity="0.38" />
<circle cx="371" cy="575" r="27" fill="#f1d4c2" opacity="0.41" />
<circle cx="283" cy="318" r="12" fill="#f1d4c2" opacity="0.47" />
<circle cx="148" cy="576" r="9" fill="#f1d4c2" opacity="0.56" />
<circle cx="693" cy="3" r="27" fill="#f1d4c2" opacity="0.53" />
<circle cx="251" cy="344" r="13" fill="#f1d4c2" opacity="0.49" />
<circle cx="732" cy="117" r="9" fill="#f1d4c2" opacity="0.45" />
<circle cx="526" cy="6" r="25" fill="#f1d4c2" opacity="0.37" />
<circle cx="488" cy="65" r="14" fill="#f1d4c2" opacity="0.38" />
<circle cx="375" cy="170" r="14" fill="#f1d4c2" opacity="0.57" />
<circle cx="448" cy="101" r="12" fill="#f1d4c2" opacity="0.49" />
<circle cx="208" cy="474" r="24" fill="#f1d4c2" opacity="0.54" />
<circle cx="668" cy="282" r="19" fill="#f1d4c2" opacity="0.52" />
<circle cx="25" cy="425" r="14" fill="#f1d4c2" opacity="0.58" />
<circle cx="747" cy="316" r="21" fill="#f1d4c2" opacity="0.56" />
<circle cx="409" cy="517" r="12" fill="#f1d4c2" opacity="0.47" />
<circle cx="134" cy="276" r="25" fill="#f1d4c2" opacity="0.57" />
<circle cx="202" cy="234" r="22" fill="#f1d4c2" opacity="0.40" />
<circle cx="523" cy="536" r="23" fill="#f1d4c2" opacity="0.50" />
<circle cx="484" cy="415" r="25" fill="#f1d4c2" opacity="0.57" />
<circle cx="133" cy="130" r="22" fill="#f1d4c2" opacity="0.51" />
<circle cx="807" cy="468" r="8" fill="#f1d4c2" opacity="0.57" />
<circle cx="877" cy="538" r="27" fill="#f1d4c2" opacity="0.43" />
<circle cx="558" cy="109" r="20" fill="#f1d4c2" opacity="0.37" />
<circle cx="414" cy="152" r="11" fill="#f1d4c2" opacity="0.57" />
<circle cx="260" cy="312" r="9" fill="#f1d4c2" opacity="0.48" />
<circle cx="313" cy="264" r="13" fill="#f1d4c2" opacity="0.55" />
<circle cx="892" cy="35" r="18" fill="#f1d4c2" opacity="0.53" />
<circle cx="642" cy="391" r="17" fill="#f1d4c2" opacity="0.54" />
<circle cx="690" cy="521" r="11" fill="#f1d4c2" opacity="0.56" />
<circle cx="315" cy="248" r="25" fill="#f1d4c2" opacity="0.36" />
<circle cx="468" cy="149" r="10" fill="#f1d4c2" opacity="0.41" />
<circle cx="544" cy="176" r="15" fill="#f1d4c2" opacity="0.51" />
<circle cx="488" cy="177" r="15" fill="#f1d4c2" opacity="0.40" />
<circle cx="86" cy="26" r="22" fill="#f1d4c2" opacity="0.48" />
<circle cx="334" cy="70" r="23" fill="#f1d4c2" opacity="0.42" />
<circle cx="204" cy="151" r="26" fill="#f1d4c2" opacity="0.53" />
<circle cx="106" cy="12" r="28" fill="#f1d4c2" opacity="0.52" />
<circle cx="91" cy="410" r="12" fill="#f1d4c2" opacity="0.55" />
<circle cx="187" cy="211" r="19" fill="#f1d4c2" opacity="0.53" />
<circle cx="836" cy="494" r="24" fill="#f1d4c2" opacity="0.58" />
<circle cx="180" cy="4" r="14" fill="#f1d4c2" opacity="0.57" />
<circle cx="876" cy="356" r="8" fill="#f1d4c2" opacity="0.58" />
<circle cx="504" cy="160" r="19" fill="#f1d4c2" opacity="0.43" />
<circle cx="128" cy="183" r="20" fill="#f1d4c2" opacity="0.39" />
<circle cx="856" cy="568" r="23" fill="#f1d4c2" opacity="0.49" />
<circle cx="646" cy="125" r="24" fill="#f1d4c2" opacity="0.55" />
<circle cx="443" cy="389" r="18" fill="#f1d4c2" opacity="0.48" />
<circle cx="442" cy="195" r="22" fill="#f1d4c2" opacity="0.59" />
<circle cx="187" cy="298" r="25" fill="#f1d4c2" opacity="0.46" />
<circle cx="892" cy="488" r="19" fill="#f1d4c2" opacity="0.52" />
<circle cx="118" cy="44" r="14" fill="#f1d4c2" opacity="0.37" />
<circle cx="212" cy="383" r="10" fill="#f1d4c2" opacity="0.43" />
<circle cx="386" cy="353" r="29" fill="#f1d4c2" opacity="0.38" />
<circle cx="28" cy="321" r="8" fill="#f1d4c2" opacity="0.46" />
<circle cx="298" cy="345" r="6" fill="#5f4b8b" opacity="0.86" />
<circle cx="790" cy="178" r="11" fill="#5f4b8b" opacity="0.87" />
<circle cx="389" cy="543" r="4" fill="#5f4b8b" opacity="0.57" />
<circle cx="157" cy="209" r="4" fill="#5f4b8b" opacity="0.62" />
<circle cx="28" cy="90" r="9" fill="#5f4b8b" opacity="0.57" />
<circle cx="110" cy="152" r="10" fill="#5f4b8b" opacity="0.72" />
<circle cx="48" cy="10" r="11" fill="#5f4b8b" opacity="0.70" />
<circle cx="824" cy="172" r="11" fill="#5f4b8b" opacity="0.81" />
<circle cx="626" cy="240" r="3" fill="#5f4b8b" opacity="0.72" />
<circle cx="219" cy="379" r="5" fill="#5f4b8b" opacity="0.73" />
<circle cx="689" cy="60" r="5" fill="#5f4b8b" opacity="0.63" />
<circle cx="592" cy="25" r="3" fill="#5f4b8b" opacity="0.57" />
<circle cx="819" cy="61" r="4" fill="#5f4b8b" opacity="0.77" />
<circle cx="512" cy="89" r="10" fill="#5f4b8b" opacity="0.74" />
<circle cx="728" cy="395" r="6" fill="#5f4b8b" opacity="0.69" />
<circle cx="127" cy="482" r="10" fill="#5f4b8b" opacity="0.67" />
<circle cx="643" cy="286" r="4" fill="#5f4b8b" opacity="0.61" />
<circle cx="128" cy="462" r="6" fill="#5f4b8b" opacity="0.83" />
<circle cx="841" cy="148" r="4" fill="#5f4b8b" opacity="0.85" />
<circle cx="563" cy="324" r="5" fill="#5f4b8b" opacity="0.87" />
<circle cx="303" cy="51" r="9" fill="#5f4b8b" opacity="0.67" />
<circle cx="322" cy="355" r="10" fill="#5f4b8b" opacity="0.65" />
<circle cx="771" cy="112" r="11" fill="#5f4b8b" opacity="0.67" />
<circle cx="35" cy="61" r="6" fill="#5f4b8b" opacity="0.68" />
<circle cx="625" cy="536" r="8" fill="#5f4b8b" opacity="0.89" />
<circle cx="214" cy="422" r="4" fill="#5f4b8b" opacity="0.80" />
<circle cx="491" cy="153" r="7" fill="#5f4b8b" opacity="0.63" />
<circle cx="564" cy="225" r="6" fill="#5f4b8b" opacity="0.67" />
<circle cx="452" cy="559" r="7" fill="#5f4b8b" opacity="0.88" />
<circle cx="399" cy="138" r="7" fill="#5f4b8b" opacity="0.74" />
<circle cx="5" cy="242" r="5" fill="#5f4b8b" opacity="0.78" />
<circle cx="770" cy="136" r="11" fill="#5f4b8b" opacity="0.65" />
<circle cx="241" cy="141" r="3" fill="#5f4b8b" opacity="0.79" />
<circle cx="77" cy="334" r="10" fill="#5f4b8b" opacity="0.84" />
<circle cx="688" cy="41" r="8" fill="#5f4b8b" opacity="0.63" />
<circle cx="786" cy="339" r="10" fill="#5f4b8b" opacity="0.61" />
<circle cx="280" cy="313" r="7" fill="#5f4b8b" opacity="0.81" />
<circle cx="523" cy="367" r="4" fill="#5f4b8b" opacity="0.57" />
<circle cx="53" cy="175" r="7" fill="#5f4b8b" opacity="0.65" />
<circle cx="596" cy="556" r="10" fill="#5f4b8b" opacity="0.62" />
<circle cx="487" cy="299" r="6" fill="#5f4b8b" opacity="0.68" />
<circle cx="244" cy="176" r="7" fill="#5f4b8b" opacity="0.74" />
<circle cx="717" cy="332" r="3" fill="#5f4b8b" opacity="0.63" />
<circle cx="466" cy="255" r="3" fill="#5f4b8b" opacity="0.70" />
<circle cx="623" cy="585" r="10" fill="#5f4b8b" opacity="0.64" />
<circle cx="463" cy="459" r="9" fill="#5f4b8b" opacity="0.55" />
<circle cx="406" cy="28" r="8" fill="#5f4b8b" opacity="0.71" />
<circle cx="505" cy="251" r="4" fill="#5f4b8b" opacity="0.65" />
<circle cx="512" cy="571" r="4" fill="#5f4b8b" opacity="0.58" />
<circle cx="202" cy="373" r="7" fill="#5f4b8b" opacity="0.74" />
<circle cx="235" cy="230" r="11" fill="#5f4b8b" opacity="0.61" />
<circle cx="495" cy="542" r="3" fill="#5f4b8b" opacity="0.73" />
<circle cx="132" cy="52" r="6" fill="#5f4b8b" opacity="0.89" />
<circle cx="389" cy="281" r="9" fill="#5f4b8b" opacity="0.68" />
<circle cx="637" cy="280" r="9" fill="#5f4b8b" opacity="0.77" />
<circle cx="325" cy="402" r="4" fill="#5f4b8b" opacity="0.79" />
<circle cx="736" cy="182" r="9" fill="#5f4b8b" opacity="0.69" />
<circle cx="132" cy="99" r="8" fill="#5f4b8b" opacity="0.74" />
<circle cx="890" cy="195" r="9" fill="#5f4b8b" opacity="0.64" />
<circle cx="683" cy="234" r="10" fill="#5f4b8b" opacity="0.68" />
<circle cx="650" cy="591" r="8" fill="#5f4b8b" opacity="0.75" />
<circle cx="302" cy="336" r="7" fill="#5f4b8b" opacity="0.85" />
<circle cx="742" cy="547" r="7" fill="#5f4b8b" opacity="0.72" />
<circle cx="198" cy="119" r="7" fill="#5f4b8b" opacity="0.76" />
<circle cx="841" cy="520" r="4" fill="#5f4b8b" opacity="0.65" />
<circle cx="459" cy="342" r="4" fill="#5f4b8b" opacity="0.69" />
<circle cx="336" cy="379" r="10" fill="#5f4b8b" opacity="0.89" />
<circle cx="94" cy="136" r="3" fill="#5f4b8b" opacity="0.86" />
<circle cx="157" cy="282" r="11" fill="#5f4b8b" opacity="0.56" />
<circle cx="791" cy="22" r="8" fill="#5f4b8b" opacity="0.85" />
<circle cx="804" cy="202" r="4" fill="#5f4b8b" opacity="0.82" />
<circle cx="480" cy="590" r="11" fill="#5f4b8b" opacity="0.57" />
<circle cx="821" cy="582" r="7" fill="#5f4b8b" opacity="0.57" />
<circle cx="2" cy="559" r="6" fill="#5f4b8b" opacity="0.57" />
<circle cx="733" cy="408" r="3" fill="#5f4b8b" opacity="0.85" />
<circle cx="746" cy="589" r="8" fill="#5f4b8b" opacity="0.57" />
<circle cx="22" cy="420" r="8" fill="#5f4b8b" opacity="0.68" />
<circle cx="387" cy="387" r="8" fill="#5f4b8b" opacity="0.69" />
<circle cx="497" cy="509" r="11" fill="#5f4b8b" opacity="0.74" />
<circle cx="321" cy="365" r="11" fill="#5f4b8b" opacity="0.78" />
<circle cx="860" cy="261" r="5" fill="#5f4b8b" opacity="0.79" />
<circle cx="229" cy="200" r="9" fill="#5f4b8b" opacity="0.86" />
<circle cx="180" cy="191" r="5" fill="#5f4b8b" opacity="0.85" />
<circle cx="547" cy="178" r="3" fill="#5f4b8b" opacity="0.74" />
<circle cx="587" cy="60" r="6" fill="#5f4b8b" opacity="0.59" />
<circle cx="184" cy="518" r="5" fill="#5f4b8b" opacity="0.82" />
<circle cx="504" cy="12" r="5" fill="#5f4b8b" opacity="0.81" />
<circle cx="308" cy="452" r="11" fill="#5f4b8b" opacity="0.68" />
<circle cx="180" cy="38" r="10" fill="#5f4b8b" opacity="0.83" />
<circle cx="322" cy="93" r="4" fill="#5f4b8b" opacity="0.72" />
<circle cx="865" cy="396" r="8" fill="#5f4b8b" opacity="0.69" />
<circle cx="411" cy="33" r="11" fill="#5f4b8b" opacity="0.82" />
<circle cx="815" cy="190" r="5" fill="#5f4b8b" opacity="0.73" />
<circle cx="337" cy="333" r="11" fill="#5f4b8b" opacity="0.81" />
<circle cx="790" cy="307" r="4" fill="#5f4b8b" opacity="0.62" />
<circle cx="342" cy="373" r="10" fill="#5f4b8b" opacity="0.66" />
<circle cx="758" cy="225" r="4" fill="#5f4b8b" opacity="0.77" />
<circle cx="96" cy="280" r="9" fill="#5f4b8b" opacity="0.65" />
<circle cx="476" cy="238" r="11" fill="#5f4b8b" opacity="0.63" />
<circle cx="862" cy="520" r="8" fill="#5f4b8b" opacity="0.76" />
<circle cx="299" cy="449" r="10" fill="#5f4b8b" opacity="0.78" />
<circle cx="526" cy="298" r="6" fill="#5f4b8b" opacity="0.79" />
<circle cx="164" cy="523" r="9" fill="#5f4b8b" opacity="0.60" />
<line x1="695" y1="492" x2="714" y2="462" stroke="#c17c74" stroke-width="2.23" opacity="0.2" />
<line x1="757" y1="62" x2="757" y2="5" stroke="#c17c74" stroke-width="1.38" opacity="0.2" />
<line x1="396" y1="563" x2="349" y2="607" stroke="#c17c74" stroke-width="1.87" opacity="0.2" />
<line x1="643" y1="265" x2="611" y2="254" stroke="#c17c74" stroke-width="3.04" opacity="0.2" />
<line x1="230" y1="230" x2="190" y2="256" stroke="#c17c74" stroke-width="1.16" opacity="0.2" />
<line x1="453" y1="448" x2="470" y2="451" stroke="#c17c74" stroke-width="1.73" opacity="0.2" />
<line x1="816" y1="544" x2="823" y2="557" stroke="#c17c74" stroke-width="1.44" opacity="0.2" />
<line x1="254" y1="83" x2="198" y2="73" stroke="#c17c74" stroke-width="1.34" opacity="0.2" />
<line x1="347" y1="113" x2="301" y2="95" stroke="#c17c74" stroke-width="2.43" opacity="0.2" />
<line x1="868" y1="479" x2="917" y2="538" stroke="#c17c74" stroke-width="2.67" opacity="0.2" />
<line x1="892" y1="204" x2="950" y2="199" stroke="#c17c74" stroke-width="2.79" opacity="0.2" />
<line x1="110" y1="100" x2="117" y2="87" stroke="#c17c74" stroke-width="1.79" opacity="0.2" />
<line x1="430" y1="542" x2="432" y2="589" stroke="#c17c74" stroke-width="1.75" opacity="0.2" />
<line x1="148" y1="34" x2="103" y2="76" stroke="#c17c74" stroke-width="1.21" opacity="0.2" />
<line x1="639" y1="255" x2="682" y2="210" stroke="#c17c74" stroke-width="1.71" opacity="0.2" />
<line x1="434" y1="70" x2="453" y2="121" stroke="#c17c74" stroke-width="3.20" opacity="0.2" />
<line x1="417" y1="161" x2="436" y2="187" stroke="#c17c74" stroke-width="3.23" opacity="0.2" />
<line x1="577" y1="412" x2="591" y2="382" stroke="#c17c74" stroke-width="2.15" opacity="0.2" />
<line x1="169" y1="578" x2="226" y2="538" stroke="#c17c74" stroke-width="1.52" opacity="0.2" />
<line x1="804" y1="303" x2="811" y2="301" stroke="#c17c74" stroke-width="2.22" opacity="0.2" />
<line x1="648" y1="214" x2="652" y2="215" stroke="#c17c74" stroke-width="1.46" opacity="0.2" />
<line x1="653" y1="32" x2="630" y2="68" stroke="#c17c74" stroke-width="1.77" opacity="0.2" />
<line x1="265" y1="241" x2="238" y2="235" stroke="#c17c74" stroke-width="1.44" opacity="0.2" />
<line x1="831" y1="573" x2="872" y2="574" stroke="#c17c74" stroke-width="2.16" opacity="0.2" />
<line x1="697" y1="149" x2="703" y2="127" stroke="#c17c74" stroke-width="2.44" opacity="0.2" />
<line x1="755" y1="573" x2="813" y2="565" stroke="#c17c74" stroke-width="2.95" opacity="0.2" />
<line x1="351" y1="354" x2="405" y2="342" stroke="#c17c74" stroke-width="2.07" opacity="0.2" />
<line x1="96" y1="549" x2="143" y2="571" stroke="#c17c74" stroke-width="2.22" opacity="0.2" />
<line x1="565" y1="208" x2="598" y2="162" stroke="#c17c74" stroke-width="1.85" opacity="0.2" />
<line x1="12" y1="180" x2="46" y2="160" stroke="#c17c74" stroke-width="1.91" opacity="0.2" />
</svg>