<?xml version="1.0" encoding="UTF-8"?>
<svg xmlns="http://www.w3.org/2000/svg" width="900" height="600" viewBox="0 0 900 600">
<rect width="100%" height="100%" fill="#f7f0e8" />
<circle cx="143" cy="454" r="19" fill="#f0d2c0" opacity="0.45" />
<circle cx="206" cy="580" r="12" fill="#f0d2c0" opacity="0.38" />
<circle cx="494" cy="519" r="20" fill="#f0d2c0" opacity="0.37" />
<circle cx="27" cy="211" r="15" fill="#f0d2c0" opacity="0.49" />
<circle cx="835" cy="38" r="12" fill="#f0d2c0" opacity="0.56" />
<circle cx="305" cy="540" r="16" fill="#f0d2c0" opacity="0.38" />
<circle cx="142" cy="286" r="16" fill="#f0d2c0" opacity="0.44" />
<circle cx="346" cy="41" r="28" fill="#f0d2c0" opacity="0.46" />
<circle cx="189" cy="15" r="20" fill="#f0d2c0" opacity="0.51" />
<circle cx="240" cy="153" r="16" fill="#f0d2c0" opacity="0.43" />
<circle cx="250" cy="195" r="23" fill="#f0d2c0" opacity="0.37" />
<circle cx="442" cy="355" r="19" fill="#f0d2c0" opacity="0.46" />
<circle cx="478" cy="574" r="15" fill="#f0d2c0" opacity="0.52" />
<circle cx="653" cy="177" r="16" fill="#f0d2c0" opacity="0.51" />
<circle cx="425" cy="104" r="16" fill="#f0d2c0" opacity="0.48" />
<circle cx="821" cy="472" r="10" fill="#f0d2c0" opacity="0.44" />
<circle cx="24" cy="348" r="27" fill="#f0d2c0" opacity="0.58" />
<circle cx="417" cy="588" r="8" fill="#f0d2c0" opacity="0.44" />
<circle cx="737" cy="466" r="25" fill="#f0d2c0" opacity="0.38" />
<circle cx="551" cy="444" r="18" fill="#f0d2c0" opacity="0.45" />
<circle cx="203" cy="222" r="12" fill="#f0d2c0" opacity="0.57" />
<circle cx="545" cy="111" r="8" fill="#f0d2c0" opacity="0.39" />
<circle cx="612" cy="379" r="27" fill="#f0d2c0" opacity="0.40" />
<circle cx="231" cy="69" r="17" fill="#f0d2c0" opacity="0.36" />
<circle cx="253" cy="206" r="27" fill="#f0d2c0" opacity="0.44" />
<circle cx="421" cy="400" r="19" fill="#f0d2c0" opacity="0.58" />
<circle cx="734" cy="581" r="20" fill="#f0d2c0" opacity="0.37" />
<circle cx="617" cy="163" r="19" fill="#f0d2c0" opacity="0.37" />
<circle cx="508" cy="311" r="25" fill="#f0d2c0" opacity="0.45" />
<circle cx="441" cy="158" r="24" fill="#f0d2c0" opacity="0.44" />
<circle cx="213" cy="445" r="12" fill="#f0d2c0" opacity="0.35" />
<circle cx="754" cy="419" r="24" fill="#f0d2c0" opacity="0.51" />
<circle cx="176" cy="272" r="10" fill="#f0d2c0" opacity="0.55" />
<circle cx="104" cy="170" r="29" fill="#f0d2c0" opacity="0.41" />
<circle cx="805" cy="337" r="21" fill="#f0d2c0" opacity="0.60" />
<circle cx="231" cy="59" r="25" fill="#f0d2c0" opacity="0.54" />
<circle cx="429" cy="420" r="9" fill="#f0d2c0" opacity="0.40" />
<circle cx="12" cy="138" r="14" fill="#f0d2c0" opacity="0.43" />
<circle cx="526" cy="17" r="26" fill="#f0d2c0" opacity="0.43" />
<circle cx="25" cy="236" r="29" fill="#f0d2c0" opacity="0.51" />
<circle cx="268" cy="291" r="15" fill="#f0d2c0" opacity="0.52" />
<circle cx="860" cy="417" r="16" fill="#f0d2c0" opacity="0.57" />
<circle cx="548" cy="57" r="27" fill="#f0d2c0" opacity="0.42" />
<circle cx="495" cy="499" r="22" fill="#f0d2c0" opacity="0.56" />
<circle cx="430" cy="181" r="8" fill="#f0d2c0" opacity="0.40" />
<circle cx="787" cy="317" r="24" fill="#f0d2c0" opacity="0.35" />
<circle cx="674" cy="241" r="8" fill="#f0d2c0" opacity="0.38" />
<circle cx="804" cy="519" r="22" fill="#f0d2c0" opacity="0.52" />
<circle cx="183" cy="29" r="26" fill="#f0d2c0" opacity="0.55" />
<circle cx="639" cy="566" r="17" fill="#f0d2c0" opacity="0.38" />
<circle cx="557" cy="137" r="19" fill="#f0d2c0" opacity="0.40" />
<circle cx="244" cy="494" r="23" fill="#f0d2c0" opacity="0.44" />
<circle cx="547" cy="287" r="15" fill="#f0d2c0" opacity="0.37" />
<circle cx="792" cy="302" r="23" fill="#f0d2c0" opacity="0.37" />
<circle cx="542" cy="325" r="25" fill="#f0d2c0" opacity="0.49" />
<circle cx="22" cy="38" r="9" fill="#f0d2c0" opacity="0.53" />
<circle cx="159" cy="261" r="28" fill="#f0d2c0" opacity="0.37" />
<circle cx="347" cy="458" r="20" fill="#f0d2c0" opacity="0.55" />
<circle cx="853" cy="473" r="25" fill="#f0d2c0" opacity="0.49" />
<circle cx="673" cy="87" r="23" fill="#f0d2c0" opacity="0.39" />
<circle cx="841" cy="42" r="28" fill="#f0d2c0" opacity="0.48" />
<circle cx="432" cy="461" r="12" fill="#f0d2c0" opacity="0.41" />
<circle cx="290" cy="451" r="29" fill="#f0d2c0" opacity="0.57" />
<circle cx="594" cy="289" r="21" fill="#f0d2c0" opacity="0.59" />
<circle cx="398" cy="316" r="23" fill="#f0d2c0" opacity="0.59" />
<circle cx="690" cy="136" r="12" fill="#f0d2c0" opacity="0.42" />
<circle cx="758" cy="191" r="26" fill="#f0d2c0" opacity="0.36" />
<circle cx="457" cy="589" r="23" fill="#f0d2c0" opacity="0.39" />
<circle cx="708" cy="583" r="25" fill="#f0d2c0" opacity="0.40" />
<circle cx="133" cy="212" r="18" fill="#f0d2c0" opacity="0.39" />
<circle cx="654" cy="313" r="16" fill="#f0d2c0" opacity="0.52" />
<circle cx="232" cy="105" r="19" fill="#f0d2c0" opacity="0.38" />
<circle cx="86" cy="436" r="10" fill="#f0d2c0" opacity="0.46" />
<circle cx="94" cy="402" r="11" fill="#f0d2c0" opacity="0.35" />
<circle cx="763" cy="61" r="17" fill="#f0d2c0" opacity="0.55" />
<circle cx="234" cy="539" r="14" fill="#f0d2c0" opacity="0.38" />
<circle cx="394" cy="533" r="22" fill="#f0d2c0" opacity="0.45" />
<circle cx="218" cy="511" r="19" fill="#f0d2c0" opacity="0.45" />
<circle cx="301" cy="208" r="15" fill="#f0d2c0" opacity="0.39" />
<circle cx="239" cy="311" r="28" fill="#f0d2c0" opacity="0.38" />
<circle cx="537" cy="454" r="18" fill="#f0d2c0" opacity="0.45" />
<circle cx="714" cy="542" r="11" fill="#f0d2c0" opacity="0.36" />
<circle cx="183" cy="441" r="15" fill="#f0d2c0" opacity="0.38" />
<circle cx="621" cy="287" r="10" fill="#f0d2c0" opacity="0.43" />
<circle cx="91" cy="307" r="23" fill="#f0d2c0" opacity="0.52" />
<circle cx="400" cy="103" r="19" fill="#f0d2c0" opacity="0.42" />
<circle cx="621" cy="546" r="16" fill="#f0d2c0" opacity="0.48" />
<circle cx="340" cy="165" r="10" fill="#f0d2c0" opacity="0.44" />
<circle cx="559" cy="288" r="14" fill="#f0d2c0" opacity="0.41" />
<circle cx="8" cy="487" r="8" fill="#f0d2c0" opacity="0.55" />
<circle cx="758" cy="581" r="17" fill="#f0d2c0" opacity="0.53" />
<circle cx="678" cy="205" r="10" fill="#f0d2c0" opacity="0.39" />
<circle cx="800" cy="102" r="16" fill="#f0d2c0" opacity="0.58" />
<circle cx="298" cy="473" r="9" fill="#f0d2c0" opacity="0.39" />
<circle cx="392" cy="452" r="14" fill="#f0d2c0" opacity="0.57" />
<circle cx="267" cy="247" r="17" fill="#f0d2c0" opacity="0.42" />
<circle cx="498" cy="409" r="27" fill="#f0d2c0" opacity="0.52" />
<circle cx="480" cy="552" r="18" fill="#f0d2c0" opacity="0.58" />
<circle cx="619" cy="128" r="18" fill="#f0d2c0" opacity="0.46" />
<circle cx="723" cy="332" r="25" fill="#f0d2c0" opacity="0.54" />
<circle cx="231" cy="336" r="19" fill="#f0d2c0" opacity="0.56" />
<circle cx="730" cy="245" r="27" fill="#f0d2c0" opacity="0.51" />
<circle cx="344" cy="187" r="23" fill="#f0d2c0" opacity="0.52" />
<circle cx="221" cy="153" r="26" fill="#f0d2c0" opacity="0.45" />
<circle cx="772" cy="282" r="24" fill="#f0d2c0" opacity="0.49" />
<circle cx="522" cy="559" r="14" fill="#f0d2c0" opacity="0.40" />
<circle cx="561" cy="479" r="29" fill="#f0d2c0" opacity="0.36" />
<circle cx="292" cy="187" r="18" fill="#f0d2c0" opacity="0.42" />
<circle cx="217" cy="97" r="8" fill="#f0d2c0" opacity="0.48" />
<circle cx="3" cy="61" r="21" fill="#f0d2c0" opacity="0.46" />
<circle cx="182" cy="104" r="14" fill="#f0d2c0" opacity="0.42" />
<circle cx="765" cy="589" r="9" fill="#f0d2c0" opacity="0.51" />
<circle cx="73" cy="202" r="29" fill="#f0d2c0" opacity="0.53" />
<circle cx="272" cy="359" r="17" fill="#f0d2c0" opacity="0.51" />
<circle cx="876" cy="272" r="16" fill="#f0d2c0" opacity="0.38" />
<circle cx="586" cy="382" r="16" fill="#f0d2c0" opacity="0.59" />
<circle cx="893" cy="110" r="23" fill="#f0d2c0" opacity="0.53" />
<circle cx="760" cy="442" r="26" fill="#f0d2c0" opacity="0.49" />
<circle cx="224" cy="302" r="8" fill="#f0d2c0" opacity="0.59" />
<circle cx="761" cy="49" r="12" fill="#f0d2c0" opacity="0.60" />
<circle cx="726" cy="502" r="20" fill="#f0d2c0" opacity="0.55" />
<circle cx="210" cy="116" r="17" fill="#f0d2c0" opacity="0.59" />
<circle cx="460" cy="395" r="17" fill="#f0d2c0" opacity="0.41" />
<circle cx="254" cy="364" r="17" fill="#f0d2c0" opacity="0.44" />
<circle cx="435" cy="511" r="25" fill="#f0d2c0" opacity="0.52" />
<circle cx="312" cy="355" r="16" fill="#f0d2c0" opacity="0.35" />
<circle cx="240" cy="213" r="19" fill="#f0d2c0" opacity="0.54" />
<circle cx="715" cy="347" r="25" fill="#f0d2c0" opacity="0.59" />
<circle cx="712" cy="496" r="16" fill="#f0d2c0" opacity="0.48" />
<circle cx="371" cy="185" r="11" fill="#f0d2c0" opacity="0.55" />
<circle cx="768" cy="475" r="13" fill="#f0d2c0" opacity="0.41" />
<circle cx="492" cy="82" r="19" fill="#f0d2c0" opacity="0.55" />
<circle cx="680" cy="203" r="26" fill="#f0d2c0" opacity="0.38" />
<circle cx="269" cy="9" r="8" fill="#f0d2c0" opacity="0.55" />
<circle cx="375" cy="225" r="11" fill="#f0d2c0" opacity="0.45" />
<circle cx="568" cy="494" r="17" fill="#f0d2c0" opacity="0.36" />
<circle cx="587" cy="469" r="14" fill="#f0d2c0" opacity="0.35" />
<circle cx="122" cy="392" r="25" fill="#f0d2c0" opacity="0.53" />
<circle cx="735" cy="365" r="9" fill="#f0d2c0" opacity="0.36" />
<circle cx="782" cy="403" r="23" fill="#f0d2c0" opacity="0.41" />
<circle cx="157" cy="332" r="29" fill="#f0d2c0" opacity="0.38" />
<circle cx="791" cy="123" r="24" fill="#f0d2c0" opacity="0.45" />
<circle cx="652" cy="78" r="9" fill="#f0d2c0" opacity="0.48" />
<circle cx="117" cy="124" r="16" fill="#f0d2c0" opacity="0.41" />
<circle cx="882" cy="559" r="29" fill="#f0d2c0" opacity="0.37" />
<circle cx="785" cy="296" r="22" fill="#f0d2c0" opacity="0.42" />
<circle cx="721" cy="184" r="9" fill="#f0d2c0" opacity="0.38" />
<circle cx="665" cy="312" r="18" fill="#f0d2c0" opacity="0.58" />
<circle cx="700" cy="217" r="8" fill="#f0d2c0" opacity="0.58" />
<circle cx="846" cy="184" r="24" fill="#f0d2c0" opacity="0.53" />
<circle cx="162" cy="291" r="21" fill="#f0d2c0" opacity="0.57" />
<circle cx="165" cy="473" r="16" fill="#f0d2c0" opacity="0.53" />
<circle cx="142" cy="3" r="20" fill="#f0d2c0" opacity="0.39" />
<circle cx="783" cy="214" r="27" fill="#f0d2c0" opacity="0.37" />
<circle cx="754" cy="108" r="11" fill="#f0d2c0" opacity="0.50" />
<circle cx="226" cy="337" r="10" fill="#f0d2c0" opacity="0.53" />
<circle cx="842" cy="25" r="12" fill="#f0d2c0" opacity="0.44" />
<circle cx="16" cy="116" r="21" fill="#f0d2c0" opacity="0.45" />
<circle cx="5" cy="426" r="13" fill="#f0d2c0" opacity="0.40" />
<circle cx="804" cy="166" r="18" fill="#f0d2c0" opacity="0.43" />
<circle cx="95" cy="434" r="25" fill="#f0d2c0" opacity="0.56" />
<circle cx="532" cy="447" r="25" fill="#f0d2c0" opacity="0.52" />
<circle cx="226" cy="578" r="8" fill="#6f4c8b" opacity="0.64" />
<circle cx="3" cy="495" r="8" fill="#6f4c8b" opacity="0.74" />
<circle cx="252" cy="545" r="4" fill="#6f4c8b" opacity="0.88" />
<circle cx="499" cy="190" r="4" fill="#6f4c8b" opacity="0.76" />
<circle cx="861" cy="302" r="4" fill="#6f4c8b" opacity="0.57" />
<circle cx="595" cy="440" r="11" fill="#6f4c8b" opacity="0.89" />
<circle cx="480" cy="265" r="7" fill="#6f4c8b" opacity="0.70" />
<circle cx="203" cy="582" r="7" fill="#6f4c8b" opacity="0.69" />
<circle cx="303" cy="224" r="8" fill="#6f4c8b" opacity="0.58" />
<circle cx="278" cy="392" r="3" fill="#6f4c8b" opacity="0.85" />
<circle cx="189" cy="343" r="7" fill="#6f4c8b" opacity="0.57" />
<circle cx="420" cy="280" r="5" fill="#6f4c8b" opacity="0.58" />
<circle cx="383" cy="583" r="11" fill="#6f4c8b" opacity="0.62" />
<circle cx="252" cy="334" r="5" fill="#6f4c8b" opacity="0.72" />
<circle cx="173" cy="473" r="4" fill="#6f4c8b" opacity="0.88" />
<circle cx="43" cy="447" r="10" fill="#6f4c8b" opacity="0.66" />
<circle cx="11" cy="528" r="3" fill="#6f4c8b" opacity="0.74" />
<circle cx="289" cy="157" r="4" fill="#6f4c8b" opacity="0.79" />
<circle cx="161" cy="134" r="6" fill="#6f4c8b" opacity="0.84" />
<circle cx="574" cy="103" r="4" fill="#6f4c8b" opacity="0.70" />
<circle cx="222" cy="289" r="4" fill="#6f4c8b" opacity="0.81" />
<circle cx="650" cy="247" r="3" fill="#6f4c8b" opacity="0.76" />
<circle cx="528" cy="440" r="3" fill="#6f4c8b" opacity="0.87" />
<circle cx="279" cy="108" r="11" fill="#6f4c8b" opacity="0.85" />
<circle cx="46" cy="209" r="11" fill="#6f4c8b" opacity="0.76" />
<circle cx="851" cy="337" r="7" fill="#6f4c8b" opacity="0.75" />
<circle cx="786" cy="11" r="11" fill="#6f4c8b" opacity="0.89" />
<circle cx="117" cy="406" r="11" fill="#6f4c8b" opacity="0.86" />
<circle cx="445" cy="57" r="11" fill="#6f4c8b" opacity="0.87" />
<circle cx="284" cy="66" r="3" fill="#6f4c8b" opacity="0.89" />
<circle cx="486" cy="406" r="8" fill="#6f4c8b" opacity="0.61" />
<circle cx="384" cy="134" r="10" fill="#6f4c8b" opacity="0.66" />
<circle cx="564" cy="584" r="11" fill="#6f4c8b" opacity="0.87" />
<circle cx="620" cy="529" r="5" fill="#6f4c8b" opacity="0.66" />
<circle cx="616" cy="92" r="8" fill="#6f4c8b" opacity="0.65" />
<circle cx="411" cy="292" r="9" fill="#6f4c8b" opacity="0.85" />
<circle cx="16" cy="468" r="4" fill="#6f4c8b" opacity="0.89" />
<circle cx="28" cy="478" r="7" fill="#6f4c8b" opacity="0.73" />
<circle cx="818" cy="301" r="5" fill="#6f4c8b" opacity="0.79" />
<circle cx="33" cy="443" r="8" fill="#6f4c8b" opacity="0.68" />
<circle cx="539" cy="51" r="6" fill="#6f4c8b" opacity="0.76" />
<circle cx="344" cy="126" r="3" fill="#6f4c8b" opacity="0.84" />
<circle cx="485" cy="174" r="11" fill="#6f4c8b" opacity="0.68" />
<circle cx="254" cy="383" r="7" fill="#6f4c8b" opacity="0.71" />
<circle cx="64" cy="224" r="6" fill="#6f4c8b" opacity="0.86" />
<circle cx="143" cy="590" r="4" fill="#6f4c8b" opacity="0.63" />
<circle cx="874" cy="337" r="4" fill="#6f4c8b" opacity="0.84" />
<circle cx="779" cy="102" r="4" fill="#6f4c8b" opacity="0.86" />
<circle cx="897" cy="312" r="8" fill="#6f4c8b" opacity="0.58" />
<circle cx="869" cy="186" r="4" fill="#6f4c8b" opacity="0.57" />
<circle cx="655" cy="273" r="4" fill="#6f4c8b" opacity="0.59" />
<circle cx="699" cy="189" r="9" fill="#6f4c8b" opacity="0.88" />
<circle cx="398" cy="410" r="5" fill="#6f4c8b" opacity="0.64" />
<circle cx="245" cy="424" r="6" fill="#6f4c8b" opacity="0.85" />
<circle cx="791" cy="180" r="4" fill="#6f4c8b" opacity="0.90" />
<circle cx="215" cy="415" r="3" fill="#6f4c8b" opacity="0.75" />
<circle cx="782" cy="575" r="5" fill="#6f4c8b" opacity="0.76" />
<circle cx="633" cy="384" r="11" fill="#6f4c8b" opacity="0.65" />
<circle cx="829" cy="530" r="10" fill="#6f4c8b" opacity="0.69" />
<circle cx="201" cy="434" r="8" fill="#6f4c8b" opacity="0.75" />
<circle cx="799" cy="468" r="6" fill="#6f4c8b" opacity="0.59" />
<circle cx="813" cy="33" r="11" fill="#6f4c8b" opacity="0.78" />
<circle cx="81" cy="552" r="4" fill="#6f4c8b" opacity="0.68" />
<circle cx="492" cy="593" r="5" fill="#6f4c8b" opacity="0.76" />
<circle cx="853" cy="288" r="6" fill="#6f4c8b" opacity="0.74" />
<circle cx="370" cy="349" r="11" fill="#6f4c8b" opacity="0.62" />
<circle cx="151" cy="491" r="11" fill="#6f4c8b" opacity="0.63" />
<circle cx="607" cy="67" r="9" fill="#6f4c8b" opacity="0.77" />
<circle cx="251" cy="275" r="9" fill="#6f4c8b" opacity="0.59" />
<circle cx="638" cy="183" r="11" fill="#6f4c8b" opacity="0.63" />
<circle cx="670" cy="469" r="4" fill="#6f4c8b" opacity="0.56" />
<circle cx="197" cy="290" r="9" fill="#6f4c8b" opacity="0.89" />
<circle cx="822" cy="368" r="6" fill="#6f4c8b" opacity="0.58" />
<circle cx="329" cy="127" r="5" fill="#6f4c8b" opacity="0.86" />
<circle cx="569" cy="127" r="5" fill="#6f4c8b" opacity="0.85" />
<circle cx="44" cy="307" r="5" fill="#6f4c8b" opacity="0.81" />
<circle cx="19" cy="557" r="11" fill="#6f4c8b" opacity="0.69" />
<circle cx="558" cy="444" r="5" fill="#6f4c8b" opacity="0.71" />
<circle cx="155" cy="108" r="6" fill="#6f4c8b" opacity="0.74" />
<circle cx="890" cy="172" r="4" fill="#6f4c8b" opacity="0.89" />
<circle cx="296" cy="497" r="8" fill="#6f4c8b" opacity="0.76" />
<circle cx="96" cy="184" r="8" fill="#6f4c8b" opacity="0.62" />
<circle cx="508" cy="124" r="5" fill="#6f4c8b" opacity="0.70" />
<circle cx="825" cy="96" r="9" fill="#6f4c8b" opacity="0.74" />
<circle cx="763" cy="270" r="4" fill="#6f4c8b" opacity="0.71" />
<circle cx="278" cy="528" r="7" fill="#6f4c8b" opacity="0.86" />
<circle cx="76" cy="555" r="11" fill="#6f4c8b" opacity="0.86" />
<circle cx="532" cy="379" r="3" fill="#6f4c8b" opacity="0.89" />
<circle cx="722" cy="288" r="11" fill="#6f4c8b" opacity="0.80" />
<circle cx="528" cy="71" r="5" fill="#6f4c8b" opacity="0.61" />
<circle cx="310" cy="48" r="6" fill="#6f4c8b" opacity="0.86" />
<circle cx="687" cy="197" r="3" fill="#6f4c8b" opacity="0.71" />
<circle cx="838" cy="539" r="7" fill="#6f4c8b" opacity="0.72" />
<circle cx="307" cy="234" r="7" fill="#6f4c8b" opacity="0.85" />
<circle cx="564" cy="300" r="9" fill="#6f4c8b" opacity="0.63" />
<circle cx="428" cy="303" r="10" fill="#6f4c8b" opacity="0.63" />
<line x1="277" y1="338" x2="242" y2="360" stroke="#c889a0" stroke-width="2.48" opacity="0.2" />
<line x1="723" y1="211" x2="691" y2="188" stroke="#c889a0" stroke-width="2.61" opacity="0.2" />
<line x1="307" y1="529" x2="308" y2="533" stroke="#c889a0" stroke-width="3.30" opacity="0.2" />
<line x1="662" y1="550" x2="616" y2="608" stroke="#c889a0" stroke-width="3.47" opacity="0.2" />
<line x1="843" y1="15" x2="858" y2="14" stroke="#c889a0" stroke-width="2.62" opacity="0.2" />
<line x1="165" y1="187" x2="169" y2="139" stroke="#c889a0" stroke-width="1.99" opacity="0.2" />
<line x1="535" y1="40" x2="577" y2="-13" stroke="#c889a0" stroke-width="1.97" opacity="0.2" />
<line x1="207" y1="361" x2="222" y2="418" stroke="#c889a0" stroke-width="1.52" opacity="0.2" />
<line x1="246" y1="158" x2="249" y2="103" stroke="#c889a0" stroke-width="1.55" opacity="0.2" />
<line x1="197" y1="193" x2="162" y2="142" stroke="#c889a0" stroke-width="1.96" opacity="0.2" />
<line x1="406" y1="284" x2="348" y2="261" stroke="#c889a0" stroke-width="3.00" opacity="0.2" />
<line x1="429" y1="519" x2="457" y2="536" stroke="#c889a0" stroke-width="1.52" opacity="0.2" />
<line x1="600" y1="204" x2="595" y2="186" stroke="#c889a0" stroke-width="3.30" opacity="0.2" />
<line x1="679" y1="280" x2="659" y2="262" stroke="#c889a0" stroke-width="2.39" opacity="0.2" />
<line x1="354" y1="553" x2="319" y2="494" stroke="#c889a0" stroke-width="1.09" opacity="0.2" />
<line x1="419" y1="5" x2="392" y2="-42" stroke="#c889a0" stroke-width="2.48" opacity="0.2" />
<line x1="264" y1="577" x2="287" y2="536" stroke="#c889a0" stroke-width="2.83" opacity="0.2" />
<line x1="179" y1="452" x2="148" y2="447" stroke="#c889a0" stroke-width="1.09" opacity="0.2" />
<line x1="71" y1="72" x2="64" y2="37" stroke="#c889a0" stroke-width="2.51" opacity="0.2" />
<line x1="78" y1="496" x2="52" y2="482" stroke="#c889a0" stroke-width="3.02" opacity="0.2" />
<line x1="680" y1="394" x2="666" y2="434" stroke="#c889a0" stroke-width="3.39" opacity="0.2" />
<line x1="82" y1="212" x2="38" y2="223" stroke="#c889a0" stroke-width="2.91" opacity="0.2" />
<line x1="111" y1="149" x2="88" y2="184" stroke="#c889a0" stroke-width="2.44" opacity="0.2" />
<line x1="105" y1="571" x2="78" y2="588" stroke="#c889a0" stroke-width="2.03" opacity="0.2" />
<line x1="179" y1="31" x2="149" y2="0" stroke="#c889a0" stroke-width="2.64" opacity="0.2" />
<line x1="170" y1="23" x2="145" y2="63" stroke="#c889a0" stroke-width="2.51" opacity="0.2" />
<line x1="165" y1="416" x2="207" y2="407" stroke="#c889a0" stroke-width="1.07" opacity="0.2" />
<line x1="125" y1="522" x2="81" y2="509" stroke="#c889a0" stroke-width="3.06" opacity="0.2" />
<line x1="506" y1="51" x2="527" y2="33" stroke="#c889a0" stroke-width="1.83" opacity="0.2" />
<line x1="98" y1="265" x2="150" y2="300" stroke="#c889a0" stroke-width="1.49" opacity="0.2" />
</svg>