<?xml version="1.0" encoding="UTF-8"?>
<svg xmlns="http://www.w3.org/2000/svg" width="900" height="600" viewBox="0 0 900 600">
<rect width="100%" height="100%" fill="#f7f0e8" />
<circle cx="736" cy="599" r="19" fill="#f0d2c0" opacity="0.41" />
<circle cx="744" cy="296" r="18" fill="#f0d2c0" opacity="0.53" />
<circle cx="760" cy="227" r="26" fill="#f0d2c0" opacity="0.37" />
<circle cx="33" cy="515" r="22" fill="#f0d2c0" opacity="0.58" />
<circle cx="285" cy="361" r="8" fill="#f0d2c0" opacity="0.40" />
<circle cx="160" cy="84" r="9" fill="#f0d2c0" opacity="0.50" />
<circle cx="87" cy="134" r="27" fill="#f0d2c0" opacity="0.40" />
<circle cx="145" cy="295" r="27" fill="#f0d2c0" opacity="0.43" />
<circle cx="96" cy="343" r="18" fill="#f0d2c0" opacity="0.39" />
<circle cx="100" cy="478" r="29" fill="#f0d2c0" opacity="0.37" />
<circle cx="212" cy="430" r="17" fill="#f0d2c0" opacity="0.41" />
<circle cx="230" cy="449" r="13" fill="#f0d2c0" opacity="0.57" />
<circle cx="538" cy="567" r="18" fill="#f0d2c0" opacity="0.47" />
<circle cx="801" cy="130" r="17" fill="#f0d2c0" opacity="0.40" />
<circle cx="816" cy="351" r="10" fill="#f0d2c0" opacity="0.52" />
<circle cx="568" cy="409" r="10" fill="#f0d2c0" opacity="0.49" />
<circle cx="60" cy="317" r="24" fill="#f0d2c0" opacity="0.44" />
<circle cx="356" cy="453" r="9" fill="#f0d2c0" opacity="0.59" />
<circle cx="758" cy="151" r="14" fill="#f0d2c0" opacity="0.35" />
<circle cx="90" cy="422" r="21" fill="#f0d2c0" opacity="0.39" />
<circle cx="647" cy="30" r="23" fill="#f0d2c0" opacity="0.53" />
<circle cx="158" cy="12" r="20" fill="#f0d2c0" opacity="0.50" />
<circle cx="821" cy="318" r="18" fill="#f0d2c0" opacity="0.53" />
<circle cx="128" cy="562" r="26" fill="#f0d2c0" opacity="0.48" />
<circle cx="596" cy="478" r="10" fill="#f0d2c0" opacity="0.41" />
<circle cx="593" cy="140" r="26" fill="#f0d2c0" opacity="0.40" />
<circle cx="20" cy="303" r="11" fill="#f0d2c0" opacity="0.54" />
<circle cx="599" cy="481" r="26" fill="#f0d2c0" opacity="0.57" />
<circle cx="305" cy="530" r="29" fill="#f0d2c0" opacity="0.39" />
<circle cx="79" cy="88" r="16" fill="#f0d2c0" opacity="0.47" />
<circle cx="51" cy="589" r="11" fill="#f0d2c0" opacity="0.37" />
<circle cx="322" cy="594" r="19" fill="#f0d2c0" opacity="0.36" />
<circle cx="509" cy="302" r="22" fill="#f0d2c0" opacity="0.38" />
<circle cx="845" cy="12" r="29" fill="#f0d2c0" opacity="0.45" />
<circle cx="816" cy="369" r="21" fill="#f0d2c0" opacity="0.54" />
<circle cx="715" cy="516" r="13" fill="#f0d2c0" opacity="0.49" />
<circle cx="132" cy="151" r="13" fill="#f0d2c0" opacity="0.50" />
<circle cx="697" cy="346" r="21" fill="#f0d2c0" opacity="0.45" />
<circle cx="316" cy="585" r="20" fill="#f0d2c0" opacity="0.58" />
<circle cx="391" cy="142" r="25" fill="#f0d2c0" opacity="0.40" />
<circle cx="26" cy="429" r="22" fill="#f0d2c0" opacity="0.51" />
<circle cx="303" cy="538" r="20" fill="#f0d2c0" opacity="0.45" />
<circle cx="68" cy="98" r="10" fill="#f0d2c0" opacity="0.48" />
<circle cx="66" cy="76" r="29" fill="#f0d2c0" opacity="0.46" />
<circle cx="698" cy="468" r="23" fill="#f0d2c0" opacity="0.59" />
<circle cx="160" cy="157" r="16" fill="#f0d2c0" opacity="0.49" />
<circle cx="300" cy="100" r="23" fill="#f0d2c0" opacity="0.41" />
<circle cx="391" cy="320" r="27" fill="#f0d2c0" opacity="0.57" />
<circle cx="809" cy="50" r="20" fill="#f0d2c0" opacity="0.52" />
<circle cx="482" cy="211" r="9" fill="#f0d2c0" opacity="0.59" />
<circle cx="880" cy="93" r="23" fill="#f0d2c0" opacity="0.54" />
<circle cx="537" cy="140" r="10" fill="#f0d2c0" opacity="0.40" />
<circle cx="204" cy="480" r="23" fill="#f0d2c0" opacity="0.55" />
<circle cx="139" cy="269" r="20" fill="#f0d2c0" opacity="0.59" />
<circle cx="481" cy="276" r="21" fill="#f0d2c0" opacity="0.38" />
<circle cx="330" cy="324" r="22" fill="#f0d2c0" opacity="0.58" />
<circle cx="305" cy="113" r="13" fill="#f0d2c0" opacity="0.58" />
<circle cx="296" cy="114" r="21" fill="#f0d2c0" opacity="0.50" />
<circle cx="280" cy="566" r="19" fill="#f0d2c0" opacity="0.51" />
<circle cx="10" cy="407" r="12" fill="#f0d2c0" opacity="0.36" />
<circle cx="510" cy="372" r="26" fill="#f0d2c0" opacity="0.55" />
<circle cx="96" cy="287" r="14" fill="#f0d2c0" opacity="0.48" />
<circle cx="296" cy="213" r="15" fill="#f0d2c0" opacity="0.36" />
<circle cx="31" cy="25" r="19" fill="#f0d2c0" opacity="0.58" />
<circle cx="46" cy="598" r="19" fill="#f0d2c0" opacity="0.44" />
<circle cx="507" cy="315" r="13" fill="#f0d2c0" opacity="0.42" />
<circle cx="174" cy="286" r="28" fill="#f0d2c0" opacity="0.41" />
<circle cx="466" cy="335" r="16" fill="#f0d2c0" opacity="0.57" />
<circle cx="174" cy="358" r="28" fill="#f0d2c0" opacity="0.58" />
<circle cx="856" cy="429" r="17" fill="#f0d2c0" opacity="0.37" />
<circle cx="625" cy="379" r="9" fill="#f0d2c0" opacity="0.45" />
<circle cx="32" cy="344" r="28" fill="#f0d2c0" opacity="0.56" />
<circle cx="174" cy="208" r="25" fill="#f0d2c0" opacity="0.49" />
<circle cx="472" cy="353" r="20" fill="#f0d2c0" opacity="0.42" />
<circle cx="205" cy="299" r="17" fill="#f0d2c0" opacity="0.47" />
<circle cx="661" cy="305" r="19" fill="#f0d2c0" opacity="0.53" />
<circle cx="656" cy="225" r="19" fill="#f0d2c0" opacity="0.37" />
<circle cx="199" cy="547" r="25" fill="#f0d2c0" opacity="0.59" />
<circle cx="384" cy="496" r="21" fill="#f0d2c0" opacity="0.49" />
<circle cx="409" cy="371" r="12" fill="#f0d2c0" opacity="0.37" />
<circle cx="529" cy="80" r="26" fill="#f0d2c0" opacity="0.51" />
<circle cx="499" cy="124" r="27" fill="#f0d2c0" opacity="0.52" />
<circle cx="442" cy="512" r="11" fill="#f0d2c0" opacity="0.36" />
<circle cx="788" cy="597" r="9" fill="#f0d2c0" opacity="0.49" />
<circle cx="22" cy="342" r="17" fill="#f0d2c0" opacity="0.47" />
<circle cx="101" cy="364" r="10" fill="#f0d2c0" opacity="0.39" />
<circle cx="556" cy="25" r="14" fill="#f0d2c0" opacity="0.52" />
<circle cx="766" cy="543" r="9" fill="#f0d2c0" opacity="0.46" />
<circle cx="191" cy="203" r="14" fill="#f0d2c0" opacity="0.39" />
<circle cx="538" cy="38" r="29" fill="#f0d2c0" opacity="0.36" />
<circle cx="681" cy="122" r="19" fill="#f0d2c0" opacity="0.58" />
<circle cx="209" cy="528" r="23" fill="#f0d2c0" opacity="0.48" />
<circle cx="643" cy="42" r="17" fill="#f0d2c0" opacity="0.38" />
<circle cx="44" cy="412" r="23" fill="#f0d2c0" opacity="0.51" />
<circle cx="456" cy="373" r="21" fill="#f0d2c0" opacity="0.46" />
<circle cx="34" cy="561" r="15" fill="#f0d2c0" opacity="0.44" />
<circle cx="175" cy="230" r="23" fill="#f0d2c0" opacity="0.44" />
<circle cx="509" cy="309" r="14" fill="#f0d2c0" opacity="0.46" />
<circle cx="778" cy="430" r="11" fill="#f0d2c0" opacity="0.49" />
<circle cx="29" cy="36" r="17" fill="#f0d2c0" opacity="0.56" />
<circle cx="539" cy="103" r="15" fill="#f0d2c0" opacity="0.44" />
<circle cx="90" cy="386" r="15" fill="#f0d2c0" opacity="0.51" />
<circle cx="810" cy="148" r="19" fill="#f0d2c0" opacity="0.54" />
<circle cx="566" cy="581" r="22" fill="#f0d2c0" opacity="0.35" />
<circle cx="565" cy="370" r="18" fill="#f0d2c0" opacity="0.44" />
<circle cx="292" cy="140" r="11" fill="#f0d2c0" opacity="0.44" />
<circle cx="499" cy="531" r="15" fill="#f0d2c0" opacity="0.49" />
<circle cx="16" cy="3" r="21" fill="#f0d2c0" opacity="0.42" />
<circle cx="848" cy="117" r="16" fill="#f0d2c0" opacity="0.47" />
<circle cx="627" cy="160" r="28" fill="#f0d2c0" opacity="0.49" />
<circle cx="862" cy="576" r="23" fill="#f0d2c0" opacity="0.52" />
<circle cx="164" cy="450" r="20" fill="#f0d2c0" opacity="0.38" />
<circle cx="553" cy="422" r="23" fill="#f0d2c0" opacity="0.48" />
<circle cx="831" cy="585" r="28" fill="#f0d2c0" opacity="0.42" />
<circle cx="599" cy="59" r="15" fill="#f0d2c0" opacity="0.43" />
<circle cx="401" cy="524" r="18" fill="#f0d2c0" opacity="0.53" />
<circle cx="889" cy="415" r="10" fill="#f0d2c0" opacity="0.41" />
<circle cx="249" cy="568" r="21" fill="#f0d2c0" opacity="0.41" />
<circle cx="506" cy="256" r="28" fill="#f0d2c0" opacity="0.46" />
<circle cx="186" cy="120" r="19" fill="#f0d2c0" opacity="0.44" />
<circle cx="858" cy="416" r="11" fill="#f0d2c0" opacity="0.43" />
<circle cx="378" cy="107" r="14" fill="#f0d2c0" opacity="0.45" />
<circle cx="322" cy="132" r="29" fill="#f0d2c0" opacity="0.45" />
<circle cx="790" cy="416" r="27" fill="#f0d2c0" opacity="0.41" />
<circle cx="820" cy="522" r="16" fill="#f0d2c0" opacity="0.53" />
<circle cx="773" cy="170" r="20" fill="#f0d2c0" opacity="0.56" />
<circle cx="661" cy="423" r="22" fill="#f0d2c0" opacity="0.43" />
<circle cx="138" cy="46" r="22" fill="#f0d2c0" opacity="0.58" />
<circle cx="799" cy="285" r="25" fill="#f0d2c0" opacity="0.50" />
<circle cx="858" cy="30" r="29" fill="#f0d2c0" opacity="0.38" />
<circle cx="365" cy="177" r="28" fill="#f0d2c0" opacity="0.54" />
<circle cx="240" cy="164" r="21" fill="#f0d2c0" opacity="0.45" />
<circle cx="655" cy="182" r="26" fill="#f0d2c0" opacity="0.50" />
<circle cx="660" cy="203" r="11" fill="#6f4c8b" opacity="0.63" />
<circle cx="795" cy="570" r="8" fill="#6f4c8b" opacity="0.55" />
<circle cx="366" cy="288" r="11" fill="#6f4c8b" opacity="0.67" />
<circle cx="94" cy="185" r="5" fill="#6f4c8b" opacity="0.83" />
<circle cx="203" cy="120" r="10" fill="#6f4c8b" opacity="0.88" />
<circle cx="809" cy="115" r="10" fill="#6f4c8b" opacity="0.68" />
<circle cx="338" cy="445" r="8" fill="#6f4c8b" opacity="0.86" />
<circle cx="459" cy="351" r="3" fill="#6f4c8b" opacity="0.66" />
<circle cx="523" cy="48" r="9" fill="#6f4c8b" opacity="0.63" />
<circle cx="431" cy="548" r="3" fill="#6f4c8b" opacity="0.62" />
<circle cx="166" cy="304" r="8" fill="#6f4c8b" opacity="0.83" />
<circle cx="32" cy="124" r="3" fill="#6f4c8b" opacity="0.75" />
<circle cx="319" cy="416" r="9" fill="#6f4c8b" opacity="0.71" />
<circle cx="111" cy="284" r="6" fill="#6f4c8b" opacity="0.65" />
<circle cx="294" cy="430" r="9" fill="#6f4c8b" opacity="0.56" />
<circle cx="778" cy="303" r="6" fill="#6f4c8b" opacity="0.78" />
<circle cx="496" cy="419" r="7" fill="#6f4c8b" opacity="0.82" />
<circle cx="499" cy="135" r="4" fill="#6f4c8b" opacity="0.85" />
<circle cx="456" cy="495" r="3" fill="#6f4c8b" opacity="0.88" />
<circle cx="871" cy="261" r="6" fill="#6f4c8b" opacity="0.61" />
<circle cx="130" cy="165" r="7" fill="#6f4c8b" opacity="0.65" />
<circle cx="584" cy="234" r="4" fill="#6f4c8b" opacity="0.82" />
<circle cx="136" cy="49" r="9" fill="#6f4c8b" opacity="0.67" />
<circle cx="850" cy="484" r="9" fill="#6f4c8b" opacity="0.60" />
<circle cx="115" cy="476" r="8" fill="#6f4c8b" opacity="0.71" />
<circle cx="250" cy="311" r="5" fill="#6f4c8b" opacity="0.57" />
<circle cx="542" cy="567" r="11" fill="#6f4c8b" opacity="0.63" />
<circle cx="636" cy="177" r="6" fill="#6f4c8b" opacity="0.77" />
<circle cx="413" cy="206" r="8" fill="#6f4c8b" opacity="0.77" />
<circle cx="19" cy="132" r="4" fill="#6f4c8b" opacity="0.57" />
<circle cx="417" cy="568" r="5" fill="#6f4c8b" opacity="0.65" />
<circle cx="309" cy="372" r="8" fill="#6f4c8b" opacity="0.84" />
<circle cx="31" cy="307" r="11" fill="#6f4c8b" opacity="0.63" />
<circle cx="164" cy="142" r="8" fill="#6f4c8b" opacity="0.76" />
<circle cx="383" cy="93" r="6" fill="#6f4c8b" opacity="0.65" />
<circle cx="880" cy="78" r="8" fill="#6f4c8b" opacity="0.68" />
<circle cx="601" cy="344" r="10" fill="#6f4c8b" opacity="0.88" />
<circle cx="840" cy="77" r="5" fill="#6f4c8b" opacity="0.86" />
<circle cx="125" cy="207" r="4" fill="#6f4c8b" opacity="0.62" />
<circle cx="605" cy="486" r="3" fill="#6f4c8b" opacity="0.72" />
<circle cx="785" cy="54" r="3" fill="#6f4c8b" opacity="0.80" />
<circle cx="473" cy="319" r="5" fill="#6f4c8b" opacity="0.61" />
<circle cx="641" cy="293" r="3" fill="#6f4c8b" opacity="0.56" />
<circle cx="766" cy="401" r="11" fill="#6f4c8b" opacity="0.76" />
<circle cx="568" cy="18" r="5" fill="#6f4c8b" opacity="0.79" />
<circle cx="607" cy="346" r="7" fill="#6f4c8b" opacity="0.77" />
<circle cx="799" cy="317" r="4" fill="#6f4c8b" opacity="0.58" />
<circle cx="517" cy="192" r="7" fill="#6f4c8b" opacity="0.85" />
<circle cx="143" cy="354" r="7" fill="#6f4c8b" opacity="0.69" />
<circle cx="204" cy="37" r="6" fill="#6f4c8b" opacity="0.68" />
<circle cx="109" cy="38" r="10" fill="#6f4c8b" opacity="0.63" />
<circle cx="182" cy="85" r="4" fill="#6f4c8b" opacity="0.62" />
<circle cx="646" cy="239" r="10" fill="#6f4c8b" opacity="0.77" />
<circle cx="219" cy="359" r="4" fill="#6f4c8b" opacity="0.87" />
<circle cx="460" cy="135" r="6" fill="#6f4c8b" opacity="0.84" />
<circle cx="595" cy="350" r="8" fill="#6f4c8b" opacity="0.80" />
<circle cx="99" cy="235" r="4" fill="#6f4c8b" opacity="0.67" />
<circle cx="205" cy="47" r="9" fill="#6f4c8b" opacity="0.80" />
<circle cx="119" cy="267" r="4" fill="#6f4c8b" opacity="0.64" />
<circle cx="146" cy="187" r="8" fill="#6f4c8b" opacity="0.64" />
<circle cx="867" cy="216" r="11" fill="#6f4c8b" opacity="0.68" />
<circle cx="136" cy="237" r="8" fill="#6f4c8b" opacity="0.62" />
<circle cx="583" cy="527" r="8" fill="#6f4c8b" opacity="0.74" />
<circle cx="341" cy="291" r="8" fill="#6f4c8b" opacity="0.82" />
<circle cx="882" cy="192" r="9" fill="#6f4c8b" opacity="0.66" />
<circle cx="2" cy="306" r="10" fill="#6f4c8b" opacity="0.57" />
<circle cx="271" cy="218" r="9" fill="#6f4c8b" opacity="0.57" />
<circle cx="194" cy="43" r="11" fill="#6f4c8b" opacity="0.90" />
<circle cx="181" cy="495" r="10" fill="#6f4c8b" opacity="0.64" />
<circle cx="567" cy="238" r="4" fill="#6f4c8b" opacity="0.90" />
<circle cx="309" cy="480" r="7" fill="#6f4c8b" opacity="0.84" />
<circle cx="379" cy="219" r="9" fill="#6f4c8b" opacity="0.79" />
<circle cx="508" cy="368" r="9" fill="#6f4c8b" opacity="0.66" />
<circle cx="427" cy="477" r="5" fill="#6f4c8b" opacity="0.72" />
<circle cx="640" cy="207" r="10" fill="#6f4c8b" opacity="0.74" />
<circle cx="667" cy="358" r="10" fill="#6f4c8b" opacity="0.70" />
<line x1="46" y1="149" x2="79" y2="125" stroke="#c889a0" stroke-width="1.25" opacity="0.2" />
<line x1="718" y1="532" x2="670" y2="506" stroke="#c889a0" stroke-width="1.71" opacity="0.2" />
<line x1="578" y1="391" x2="591" y2="373" stroke="#c889a0" stroke-width="1.15" opacity="0.2" />
<line x1="30" y1="471" x2="36" y2="494" stroke="#c889a0" stroke-width="2.49" opacity="0.2" />
<line x1="384" y1="16" x2="350" y2="43" stroke="#c889a0" stroke-width="2.17" opacity="0.2" />
<line x1="553" y1="432" x2="521" y2="473" stroke="#c889a0" stroke-width="1.15" opacity="0.2" />
<line x1="781" y1="246" x2="795" y2="233" stroke="#c889a0" stroke-width="2.19" opacity="0.2" />
<line x1="559" y1="309" x2="567" y2="310" stroke="#c889a0" stroke-width="2.04" opacity="0.2" />
<line x1="629" y1="412" x2="600" y2="366" stroke="#c889a0" stroke-width="2.99" opacity="0.2" />
<line x1="790" y1="77" x2="815" y2="122" stroke="#c889a0" stroke-width="2.22" opacity="0.2" />
<line x1="779" y1="352" x2="823" y2="305" stroke="#c889a0" stroke-width="3.02" opacity="0.2" />
<line x1="281" y1="206" x2="251" y2="189" stroke="#c889a0" stroke-width="2.32" opacity="0.2" />
<line x1="292" y1="129" x2="310" y2="187" stroke="#c889a0" stroke-width="2.38" opacity="0.2" />
<line x1="565" y1="531" x2="583" y2="497" stroke="#c889a0" stroke-width="3.06" opacity="0.2" />
<line x1="720" y1="37" x2="740" y2="80" stroke="#c889a0" stroke-width="1.82" opacity="0.2" />
<line x1="105" y1="81" x2="97" y2="49" stroke="#c889a0" stroke-width="1.94" opacity="0.2" />
<line x1="668" y1="261" x2="725" y2="313" stroke="#c889a0" stroke-width="1.00" opacity="0.2" />
<line x1="832" y1="61" x2="844" y2="14" stroke="#c889a0" stroke-width="3.22" opacity="0.2" />
<line x1="736" y1="503" x2="730" y2="468" stroke="#c889a0" stroke-width="2.61" opacity="0.2" />
<line x1="630" y1="552" x2="639" y2="561" stroke="#c889a0" stroke-width="2.85" opacity="0.2" />
<line x1="826" y1="276" x2="795" y2="239" stroke="#c889a0" stroke-width="1.52" opacity="0.2" />
<line x1="36" y1="438" x2="-20" y2="390" stroke="#c889a0" stroke-width="1.59" opacity="0.2" />
<line x1="71" y1="393" x2="130" y2="439" stroke="#c889a0" stroke-width="3.14" opacity="0.2" />
<line x1="30" y1="449" x2="-11" y2="389" stroke="#c889a0" stroke-width="2.57" opacity="0.2" />
<line x1="869" y1="402" x2="819" y2="408" stroke="#c889a0" stroke-width="2.72" opacity="0.2" />
<line x1="535" y1="23" x2="549" y2="-27" stroke="#c889a0" stroke-width="1.56" opacity="0.2" />
<line x1="458" y1="63" x2="431" y2="11" stroke="#c889a0" stroke-width="1.20" opacity="0.2" />
<line x1="606" y1="219" x2="604" y2="242" stroke="#c889a0" stroke-width="1.99" opacity="0.2" />
<line x1="503" y1="260" x2="558" y2="230" stroke="#c889a0" stroke-width="3.44" opacity="0.2" />
<line x1="725" y1="329" x2="698" y2="323" stroke="#c889a0" stroke-width="1.71" opacity="0.2" />
</svg>