<?xml version="1.0" encoding="UTF-8"?>
<svg xmlns="http://www.w3.org/2000/svg" width="900" height="600" viewBox="0 0 900 600">
<rect width="100%" height="100%" fill="#f5ebe0" />
<circle cx="482" cy="316" r="28" fill="#f1d4c2" opacity="0.54" />
<circle cx="839" cy="423" r="20" fill="#f1d4c2" opacity="0.54" />
<circle cx="566" cy="356" r="8" fill="#f1d4c2" opacity="0.60" />
<circle cx="226" cy="215" r="15" fill="#f1d4c2" opacity="0.43" />
<circle cx="856" cy="436" r="14" fill="#f1d4c2" opacity="0.57" />
<circle cx="592" cy="37" r="18" fill="#f1d4c2" opacity="0.45" />
<circle cx="769" cy="22" r="24" fill="#f1d4c2" opacity="0.43" />
<circle cx="740" cy="285" r="25" fill="#f1d4c2" opacity="0.46" />
<circle cx="628" cy="61" r="23" fill="#f1d4c2" opacity="0.44" />
<circle cx="699" cy="59" r="20" fill="#f1d4c2" opacity="0.54" />
<circle cx="514" cy="133" r="20" fill="#f1d4c2" opacity="0.54" />
<circle cx="875" cy="529" r="11" fill="#f1d4c2" opacity="0.36" />
<circle cx="779" cy="254" r="17" fill="#f1d4c2" opacity="0.57" />
<circle cx="333" cy="244" r="29" fill="#f1d4c2" opacity="0.36" />
<circle cx="800" cy="145" r="18" fill="#f1d4c2" opacity="0.58" />
<circle cx="187" cy="167" r="24" fill="#f1d4c2" opacity="0.36" />
<circle cx="725" cy="383" r="28" fill="#f1d4c2" opacity="0.43" />
<circle cx="828" cy="37" r="15" fill="#f1d4c2" opacity="0.44" />
<circle cx="29" cy="584" r="19" fill="#f1d4c2" opacity="0.52" />
<circle cx="512" cy="185" r="11" fill="#f1d4c2" opacity="0.54" />
<circle cx="153" cy="245" r="23" fill="#f1d4c2" opacity="0.52" />
<circle cx="148" cy="556" r="8" fill="#f1d4c2" opacity="0.57" />
<circle cx="50" cy="599" r="15" fill="#f1d4c2" opacity="0.57" />
<circle cx="646" cy="113" r="14" fill="#f1d4c2" opacity="0.47" />
<circle cx="216" cy="423" r="28" fill="#f1d4c2" opacity="0.45" />
<circle cx="488" cy="37" r="13" fill="#f1d4c2" opacity="0.45" />
<circle cx="0" cy="237" r="15" fill="#f1d4c2" opacity="0.48" />
<circle cx="415" cy="321" r="28" fill="#f1d4c2" opacity="0.38" />
<circle cx="344" cy="444" r="13" fill="#f1d4c2" opacity="0.51" />
<circle cx="378" cy="240" r="10" fill="#f1d4c2" opacity="0.43" />
<circle cx="266" cy="184" r="11" fill="#f1d4c2" opacity="0.49" />
<circle cx="667" cy="284" r="9" fill="#f1d4c2" opacity="0.41" />
<circle cx="355" cy="334" r="16" fill="#f1d4c2" opacity="0.58" />
<circle cx="717" cy="69" r="19" fill="#f1d4c2" opacity="0.48" />
<circle cx="699" cy="232" r="25" fill="#f1d4c2" opacity="0.42" />
<circle cx="359" cy="529" r="13" fill="#f1d4c2" opacity="0.59" />
<circle cx="518" cy="555" r="9" fill="#f1d4c2" opacity="0.41" />
<circle cx="887" cy="93" r="24" fill="#f1d4c2" opacity="0.57" />
<circle cx="558" cy="10" r="28" fill="#f1d4c2" opacity="0.38" />
<circle cx="115" cy="333" r="14" fill="#f1d4c2" opacity="0.51" />
<circle cx="686" cy="224" r="12" fill="#f1d4c2" opacity="0.45" />
<circle cx="869" cy="598" r="22" fill="#f1d4c2" opacity="0.35" />
<circle cx="324" cy="103" r="9" fill="#f1d4c2" opacity="0.56" />
<circle cx="875" cy="487" r="9" fill="#f1d4c2" opacity="0.55" />
<circle cx="473" cy="419" r="22" fill="#f1d4c2" opacity="0.39" />
<circle cx="24" cy="116" r="16" fill="#f1d4c2" opacity="0.43" />
<circle cx="756" cy="281" r="20" fill="#f1d4c2" opacity="0.53" />
<circle cx="878" cy="57" r="24" fill="#f1d4c2" opacity="0.37" />
<circle cx="569" cy="176" r="23" fill="#f1d4c2" opacity="0.53" />
<circle cx="438" cy="13" r="29" fill="#f1d4c2" opacity="0.60" />
<circle cx="273" cy="573" r="8" fill="#f1d4c2" opacity="0.49" />
<circle cx="203" cy="408" r="22" fill="#f1d4c2" opacity="0.48" />
<circle cx="790" cy="262" r="13" fill="#f1d4c2" opacity="0.36" />
<circle cx="241" cy="282" r="18" fill="#f1d4c2" opacity="0.59" />
<circle cx="877" cy="471" r="25" fill="#f1d4c2" opacity="0.58" />
<circle cx="183" cy="369" r="15" fill="#f1d4c2" opacity="0.51" />
<circle cx="767" cy="176" r="22" fill="#f1d4c2" opacity="0.59" />
<circle cx="874" cy="552" r="22" fill="#f1d4c2" opacity="0.41" />
<circle cx="92" cy="51" r="25" fill="#f1d4c2" opacity="0.47" />
<circle cx="585" cy="165" r="28" fill="#f1d4c2" opacity="0.45" />
<circle cx="47" cy="588" r="11" fill="#f1d4c2" opacity="0.42" />
<circle cx="873" cy="384" r="22" fill="#f1d4c2" opacity="0.52" />
<circle cx="3" cy="218" r="12" fill="#f1d4c2" opacity="0.44" />
<circle cx="565" cy="552" r="14" fill="#f1d4c2" opacity="0.35" />
<circle cx="73" cy="354" r="11" fill="#f1d4c2" opacity="0.45" />
<circle cx="184" cy="585" r="15" fill="#f1d4c2" opacity="0.39" />
<circle cx="817" cy="532" r="25" fill="#f1d4c2" opacity="0.49" />
<circle cx="18" cy="594" r="29" fill="#f1d4c2" opacity="0.55" />
<circle cx="880" cy="319" r="22" fill="#f1d4c2" opacity="0.51" />
<circle cx="410" cy="126" r="17" fill="#f1d4c2" opacity="0.38" />
<circle cx="293" cy="125" r="19" fill="#f1d4c2" opacity="0.42" />
<circle cx="390" cy="160" r="24" fill="#f1d4c2" opacity="0.47" />
<circle cx="647" cy="131" r="9" fill="#f1d4c2" opacity="0.54" />
<circle cx="734" cy="216" r="13" fill="#f1d4c2" opacity="0.38" />
<circle cx="572" cy="152" r="13" fill="#f1d4c2" opacity="0.48" />
<circle cx="371" cy="156" r="22" fill="#f1d4c2" opacity="0.56" />
<circle cx="424" cy="57" r="9" fill="#f1d4c2" opacity="0.53" />
<circle cx="411" cy="309" r="27" fill="#f1d4c2" opacity="0.54" />
<circle cx="90" cy="441" r="14" fill="#f1d4c2" opacity="0.45" />
<circle cx="850" cy="449" r="20" fill="#f1d4c2" opacity="0.55" />
<circle cx="792" cy="140" r="22" fill="#f1d4c2" opacity="0.39" />
<circle cx="207" cy="169" r="15" fill="#f1d4c2" opacity="0.41" />
<circle cx="481" cy="65" r="12" fill="#f1d4c2" opacity="0.41" />
<circle cx="432" cy="16" r="28" fill="#f1d4c2" opacity="0.53" />
<circle cx="848" cy="49" r="22" fill="#f1d4c2" opacity="0.58" />
<circle cx="172" cy="119" r="17" fill="#f1d4c2" opacity="0.60" />
<circle cx="20" cy="325" r="26" fill="#f1d4c2" opacity="0.57" />
<circle cx="273" cy="126" r="12" fill="#f1d4c2" opacity="0.46" />
<circle cx="430" cy="96" r="13" fill="#f1d4c2" opacity="0.49" />
<circle cx="398" cy="339" r="11" fill="#f1d4c2" opacity="0.45" />
<circle cx="473" cy="575" r="8" fill="#f1d4c2" opacity="0.37" />
<circle cx="236" cy="207" r="15" fill="#f1d4c2" opacity="0.36" />
<circle cx="439" cy="554" r="14" fill="#f1d4c2" opacity="0.38" />
<circle cx="344" cy="369" r="9" fill="#f1d4c2" opacity="0.58" />
<circle cx="565" cy="349" r="24" fill="#f1d4c2" opacity="0.57" />
<circle cx="212" cy="443" r="28" fill="#f1d4c2" opacity="0.43" />
<circle cx="492" cy="50" r="23" fill="#f1d4c2" opacity="0.43" />
<circle cx="168" cy="191" r="29" fill="#f1d4c2" opacity="0.45" />
<circle cx="687" cy="302" r="25" fill="#f1d4c2" opacity="0.43" />
<circle cx="560" cy="523" r="9" fill="#f1d4c2" opacity="0.53" />
<circle cx="81" cy="434" r="29" fill="#f1d4c2" opacity="0.57" />
<circle cx="296" cy="154" r="23" fill="#f1d4c2" opacity="0.40" />
<circle cx="612" cy="108" r="16" fill="#f1d4c2" opacity="0.36" />
<circle cx="23" cy="278" r="8" fill="#f1d4c2" opacity="0.48" />
<circle cx="818" cy="565" r="8" fill="#f1d4c2" opacity="0.52" />
<circle cx="815" cy="398" r="13" fill="#f1d4c2" opacity="0.55" />
<circle cx="680" cy="555" r="17" fill="#f1d4c2" opacity="0.46" />
<circle cx="843" cy="229" r="10" fill="#f1d4c2" opacity="0.57" />
<circle cx="723" cy="198" r="19" fill="#f1d4c2" opacity="0.40" />
<circle cx="685" cy="585" r="17" fill="#f1d4c2" opacity="0.55" />
<circle cx="780" cy="63" r="27" fill="#f1d4c2" opacity="0.41" />
<circle cx="136" cy="60" r="15" fill="#f1d4c2" opacity="0.40" />
<circle cx="711" cy="245" r="9" fill="#f1d4c2" opacity="0.40" />
<circle cx="886" cy="334" r="27" fill="#f1d4c2" opacity="0.53" />
<circle cx="728" cy="243" r="11" fill="#f1d4c2" opacity="0.36" />
<circle cx="468" cy="343" r="16" fill="#f1d4c2" opacity="0.44" />
<circle cx="36" cy="129" r="16" fill="#f1d4c2" opacity="0.58" />
<circle cx="103" cy="241" r="25" fill="#f1d4c2" opacity="0.59" />
<circle cx="635" cy="252" r="18" fill="#f1d4c2" opacity="0.43" />
<circle cx="214" cy="165" r="25" fill="#f1d4c2" opacity="0.49" />
<circle cx="858" cy="506" r="20" fill="#f1d4c2" opacity="0.57" />
<circle cx="246" cy="182" r="17" fill="#f1d4c2" opacity="0.41" />
<circle cx="836" cy="421" r="22" fill="#f1d4c2" opacity="0.50" />
<circle cx="179" cy="139" r="26" fill="#f1d4c2" opacity="0.52" />
<circle cx="719" cy="483" r="16" fill="#f1d4c2" opacity="0.52" />
<circle cx="435" cy="308" r="29" fill="#f1d4c2" opacity="0.51" />
<circle cx="828" cy="343" r="9" fill="#f1d4c2" opacity="0.58" />
<circle cx="645" cy="93" r="16" fill="#f1d4c2" opacity="0.59" />
<circle cx="348" cy="126" r="27" fill="#f1d4c2" opacity="0.45" />
<circle cx="847" cy="213" r="12" fill="#f1d4c2" opacity="0.53" />
<circle cx="127" cy="23" r="18" fill="#f1d4c2" opacity="0.51" />
<circle cx="208" cy="505" r="10" fill="#f1d4c2" opacity="0.53" />
<circle cx="863" cy="577" r="29" fill="#f1d4c2" opacity="0.60" />
<circle cx="792" cy="577" r="23" fill="#f1d4c2" opacity="0.40" />
<circle cx="16" cy="367" r="10" fill="#5f4b8b" opacity="0.60" />
<circle cx="152" cy="448" r="8" fill="#5f4b8b" opacity="0.65" />
<circle cx="497" cy="267" r="3" fill="#5f4b8b" opacity="0.80" />
<circle cx="725" cy="425" r="5" fill="#5f4b8b" opacity="0.89" />
<circle cx="384" cy="494" r="6" fill="#5f4b8b" opacity="0.86" />
<circle cx="280" cy="561" r="11" fill="#5f4b8b" opacity="0.72" />
<circle cx="386" cy="283" r="6" fill="#5f4b8b" opacity="0.71" />
<circle cx="476" cy="513" r="8" fill="#5f4b8b" opacity="0.82" />
<circle cx="203" cy="519" r="5" fill="#5f4b8b" opacity="0.80" />
<circle cx="439" cy="38" r="4" fill="#5f4b8b" opacity="0.71" />
<circle cx="402" cy="509" r="8" fill="#5f4b8b" opacity="0.62" />
<circle cx="168" cy="205" r="7" fill="#5f4b8b" opacity="0.88" />
<circle cx="333" cy="312" r="4" fill="#5f4b8b" opacity="0.84" />
<circle cx="1" cy="240" r="9" fill="#5f4b8b" opacity="0.73" />
<circle cx="480" cy="368" r="6" fill="#5f4b8b" opacity="0.87" />
<circle cx="844" cy="42" r="6" fill="#5f4b8b" opacity="0.83" />
<circle cx="521" cy="436" r="5" fill="#5f4b8b" opacity="0.67" />
<circle cx="527" cy="40" r="6" fill="#5f4b8b" opacity="0.74" />
<circle cx="87" cy="560" r="6" fill="#5f4b8b" opacity="0.73" />
<circle cx="31" cy="294" r="6" fill="#5f4b8b" opacity="0.80" />
<circle cx="750" cy="416" r="7" fill="#5f4b8b" opacity="0.71" />
<circle cx="445" cy="6" r="10" fill="#5f4b8b" opacity="0.56" />
<circle cx="843" cy="569" r="7" fill="#5f4b8b" opacity="0.62" />
<circle cx="666" cy="189" r="4" fill="#5f4b8b" opacity="0.88" />
<circle cx="156" cy="246" r="4" fill="#5f4b8b" opacity="0.71" />
<circle cx="489" cy="277" r="11" fill="#5f4b8b" opacity="0.85" />
<circle cx="733" cy="160" r="6" fill="#5f4b8b" opacity="0.69" />
<circle cx="773" cy="516" r="9" fill="#5f4b8b" opacity="0.57" />
<circle cx="464" cy="270" r="7" fill="#5f4b8b" opacity="0.67" />
<circle cx="428" cy="334" r="3" fill="#5f4b8b" opacity="0.57" />
<circle cx="607" cy="331" r="9" fill="#5f4b8b" opacity="0.67" />
<circle cx="439" cy="593" r="6" fill="#5f4b8b" opacity="0.76" />
<circle cx="653" cy="401" r="6" fill="#5f4b8b" opacity="0.71" />
<circle cx="152" cy="541" r="8" fill="#5f4b8b" opacity="0.59" />
<circle cx="404" cy="89" r="5" fill="#5f4b8b" opacity="0.76" />
<circle cx="896" cy="67" r="10" fill="#5f4b8b" opacity="0.83" />
<circle cx="323" cy="475" r="5" fill="#5f4b8b" opacity="0.86" />
<circle cx="59" cy="444" r="11" fill="#5f4b8b" opacity="0.61" />
<circle cx="517" cy="557" r="7" fill="#5f4b8b" opacity="0.58" />
<circle cx="192" cy="36" r="9" fill="#5f4b8b" opacity="0.57" />
<circle cx="335" cy="415" r="10" fill="#5f4b8b" opacity="0.85" />
<circle cx="746" cy="449" r="6" fill="#5f4b8b" opacity="0.82" />
<circle cx="182" cy="348" r="10" fill="#5f4b8b" opacity="0.65" />
<circle cx="673" cy="514" r="6" fill="#5f4b8b" opacity="0.84" />
<circle cx="346" cy="475" r="5" fill="#5f4b8b" opacity="0.88" />
<circle cx="189" cy="388" r="6" fill="#5f4b8b" opacity="0.65" />
<circle cx="283" cy="26" r="6" fill="#5f4b8b" opacity="0.78" />
<circle cx="9" cy="320" r="11" fill="#5f4b8b" opacity="0.61" />
<circle cx="775" cy="364" r="3" fill="#5f4b8b" opacity="0.75" />
<circle cx="250" cy="172" r="6" fill="#5f4b8b" opacity="0.60" />
<circle cx="567" cy="594" r="9" fill="#5f4b8b" opacity="0.63" />
<circle cx="64" cy="110" r="9" fill="#5f4b8b" opacity="0.81" />
<circle cx="333" cy="131" r="11" fill="#5f4b8b" opacity="0.66" />
<circle cx="163" cy="355" r="5" fill="#5f4b8b" opacity="0.77" />
<circle cx="894" cy="274" r="4" fill="#5f4b8b" opacity="0.82" />
<circle cx="39" cy="432" r="8" fill="#5f4b8b" opacity="0.86" />
<circle cx="747" cy="104" r="11" fill="#5f4b8b" opacity="0.73" />
<circle cx="565" cy="467" r="6" fill="#5f4b8b" opacity="0.57" />
<circle cx="724" cy="259" r="6" fill="#5f4b8b" opacity="0.73" />
<circle cx="659" cy="256" r="7" fill="#5f4b8b" opacity="0.81" />
<circle cx="490" cy="54" r="7" fill="#5f4b8b" opacity="0.71" />
<circle cx="697" cy="513" r="5" fill="#5f4b8b" opacity="0.56" />
<circle cx="860" cy="408" r="4" fill="#5f4b8b" opacity="0.84" />
<circle cx="732" cy="247" r="5" fill="#5f4b8b" opacity="0.70" />
<circle cx="127" cy="591" r="6" fill="#5f4b8b" opacity="0.82" />
<circle cx="193" cy="487" r="3" fill="#5f4b8b" opacity="0.79" />
<circle cx="407" cy="452" r="11" fill="#5f4b8b" opacity="0.64" />
<circle cx="500" cy="29" r="4" fill="#5f4b8b" opacity="0.70" />
<circle cx="882" cy="381" r="10" fill="#5f4b8b" opacity="0.78" />
<circle cx="805" cy="160" r="5" fill="#5f4b8b" opacity="0.67" />
<circle cx="801" cy="506" r="4" fill="#5f4b8b" opacity="0.82" />
<circle cx="518" cy="508" r="7" fill="#5f4b8b" opacity="0.77" />
<circle cx="218" cy="299" r="8" fill="#5f4b8b" opacity="0.78" />
<circle cx="413" cy="278" r="8" fill="#5f4b8b" opacity="0.77" />
<circle cx="149" cy="10" r="6" fill="#5f4b8b" opacity="0.63" />
<circle cx="674" cy="289" r="6" fill="#5f4b8b" opacity="0.58" />
<circle cx="891" cy="340" r="11" fill="#5f4b8b" opacity="0.57" />
<circle cx="253" cy="179" r="6" fill="#5f4b8b" opacity="0.73" />
<circle cx="185" cy="471" r="9" fill="#5f4b8b" opacity="0.58" />
<circle cx="787" cy="290" r="9" fill="#5f4b8b" opacity="0.68" />
<circle cx="309" cy="57" r="8" fill="#5f4b8b" opacity="0.74" />
<circle cx="178" cy="490" r="3" fill="#5f4b8b" opacity="0.71" />
<line x1="599" y1="54" x2="557" y2="90" stroke="#c17c74" stroke-width="1.89" opacity="0.2" />
<line x1="278" y1="168" x2="261" y2="167" stroke="#c17c74" stroke-width="2.42" opacity="0.2" />
<line x1="235" y1="8" x2="236" y2="43" stroke="#c17c74" stroke-width="1.88" opacity="0.2" />
<line x1="114" y1="362" x2="115" y2="354" stroke="#c17c74" stroke-width="1.21" opacity="0.2" />
<line x1="239" y1="290" x2="221" y2="282" stroke="#c17c74" stroke-width="1.16" opacity="0.2" />
<line x1="220" y1="219" x2="221" y2="234" stroke="#c17c74" stroke-width="1.46" opacity="0.2" />
<line x1="848" y1="121" x2="811" y2="143" stroke="#c17c74" stroke-width="2.17" opacity="0.2" />
<line x1="317" y1="368" x2="335" y2="308" stroke="#c17c74" stroke-width="1.46" opacity="0.2" />
<line x1="613" y1="27" x2="626" y2="20" stroke="#c17c74" stroke-width="2.17" opacity="0.2" />
<line x1="311" y1="99" x2="307" y2="60" stroke="#c17c74" stroke-width="3.12" opacity="0.2" />
<line x1="26" y1="561" x2="59" y2="582" stroke="#c17c74" stroke-width="1.30" opacity="0.2" />
<line x1="397" y1="500" x2="365" y2="464" stroke="#c17c74" stroke-width="2.53" opacity="0.2" />
<line x1="436" y1="328" x2="379" y2="311" stroke="#c17c74" stroke-width="3.16" opacity="0.2" />
<line x1="558" y1="469" x2="614" y2="481" stroke="#c17c74" stroke-width="1.86" opacity="0.2" />
<line x1="357" y1="264" x2="391" y2="220" stroke="#c17c74" stroke-width="1.18" opacity="0.2" />
<line x1="688" y1="347" x2="732" y2="323" stroke="#c17c74" stroke-width="3.23" opacity="0.2" />
<line x1="791" y1="443" x2="746" y2="458" stroke="#c17c74" stroke-width="2.30" opacity="0.2" />
<line x1="439" y1="364" x2="414" y2="305" stroke="#c17c74" stroke-width="2.26" opacity="0.2" />
<line x1="160" y1="135" x2="168" y2="123" stroke="#c17c74" stroke-width="3.08" opacity="0.2" />
<line x1="97" y1="139" x2="112" y2="107" stroke="#c17c74" stroke-width="1.97" opacity="0.2" />
<line x1="569" y1="32" x2="608" y2="62" stroke="#c17c74" stroke-width="2.18" opacity="0.2" />
<line x1="783" y1="578" x2="804" y2="611" stroke="#c17c74" stroke-width="3.02" opacity="0.2" />
<line x1="210" y1="554" x2="198" y2="570" stroke="#c17c74" stroke-width="1.36" opacity="0.2" />
<line x1="501" y1="27" x2="486" y2="49" stroke="#c17c74" stroke-width="1.34" opacity="0.2" />
<line x1="410" y1="456" x2="385" y2="510" stroke="#c17c74" stroke-width="1.21" opacity="0.2" />
<line x1="392" y1="363" x2="408" y2="359" stroke="#c17c74" stroke-width="2.58" opacity="0.2" />
<line x1="237" y1="198" x2="286" y2="239" stroke="#c17c74" stroke-width="1.30" opacity="0.2" />
<line x1="876" y1="331" x2="853" y2="284" stroke="#c17c74" stroke-width="3.26" opacity="0.2" />
<line x1="874" y1="491" x2="923" y2="435" stroke="#c17c74" stroke-width="3.20" opacity="0.2" />
<line x1="852" y1="400" x2="825" y2="438" stroke="#c17c74" stroke-width="1.53" opacity="0.2" />
</svg>