<?xml version="1.0" encoding="UTF-8"?>
<svg xmlns="http://www.w3.org/2000/svg" width="900" height="600" viewBox="0 0 900 600">
<rect width="100%" height="100%" fill="#f5ebe0" />
<circle cx="516" cy="274" r="9" fill="#f1d4c2" opacity="0.46" />
<circle cx="786" cy="103" r="11" fill="#f1d4c2" opacity="0.51" />
<circle cx="205" cy="538" r="22" fill="#f1d4c2" opacity="0.38" />
<circle cx="81" cy="233" r="15" fill="#f1d4c2" opacity="0.58" />
<circle cx="630" cy="401" r="17" fill="#f1d4c2" opacity="0.58" />
<circle cx="690" cy="43" r="28" fill="#f1d4c2" opacity="0.39" />
<circle cx="170" cy="527" r="14" fill="#f1d4c2" opacity="0.57" />
<circle cx="64" cy="152" r="11" fill="#f1d4c2" opacity="0.45" />
<circle cx="758" cy="540" r="10" fill="#f1d4c2" opacity="0.58" />
<circle cx="92" cy="97" r="12" fill="#f1d4c2" opacity="0.36" />
<circle cx="863" cy="282" r="10" fill="#f1d4c2" opacity="0.43" />
<circle cx="799" cy="380" r="19" fill="#f1d4c2" opacity="0.43" />
<circle cx="328" cy="254" r="23" fill="#f1d4c2" opacity="0.54" />
<circle cx="225" cy="230" r="28" fill="#f1d4c2" opacity="0.38" />
<circle cx="734" cy="388" r="8" fill="#f1d4c2" opacity="0.39" />
<circle cx="132" cy="0" r="9" fill="#f1d4c2" opacity="0.36" />
<circle cx="299" cy="372" r="23" fill="#f1d4c2" opacity="0.46" />
<circle cx="806" cy="83" r="15" fill="#f1d4c2" opacity="0.57" />
<circle cx="335" cy="430" r="13" fill="#f1d4c2" opacity="0.36" />
<circle cx="775" cy="284" r="17" fill="#f1d4c2" opacity="0.42" />
<circle cx="661" cy="443" r="20" fill="#f1d4c2" opacity="0.44" />
<circle cx="820" cy="447" r="20" fill="#f1d4c2" opacity="0.48" />
<circle cx="131" cy="502" r="26" fill="#f1d4c2" opacity="0.41" />
<circle cx="660" cy="469" r="13" fill="#f1d4c2" opacity="0.44" />
<circle cx="838" cy="127" r="22" fill="#f1d4c2" opacity="0.53" />
<circle cx="852" cy="247" r="29" fill="#f1d4c2" opacity="0.54" />
<circle cx="742" cy="323" r="23" fill="#f1d4c2" opacity="0.41" />
<circle cx="559" cy="330" r="17" fill="#f1d4c2" opacity="0.54" />
<circle cx="867" cy="436" r="11" fill="#f1d4c2" opacity="0.44" />
<circle cx="722" cy="166" r="18" fill="#f1d4c2" opacity="0.54" />
<circle cx="54" cy="238" r="11" fill="#f1d4c2" opacity="0.55" />
<circle cx="266" cy="138" r="23" fill="#f1d4c2" opacity="0.44" />
<circle cx="408" cy="94" r="25" fill="#f1d4c2" opacity="0.55" />
<circle cx="292" cy="244" r="18" fill="#f1d4c2" opacity="0.48" />
<circle cx="444" cy="277" r="12" fill="#f1d4c2" opacity="0.53" />
<circle cx="315" cy="5" r="12" fill="#f1d4c2" opacity="0.59" />
<circle cx="260" cy="490" r="19" fill="#f1d4c2" opacity="0.37" />
<circle cx="215" cy="323" r="24" fill="#f1d4c2" opacity="0.50" />
<circle cx="604" cy="363" r="23" fill="#f1d4c2" opacity="0.49" />
<circle cx="50" cy="24" r="8" fill="#f1d4c2" opacity="0.52" />
<circle cx="377" cy="551" r="23" fill="#f1d4c2" opacity="0.49" />
<circle cx="687" cy="23" r="19" fill="#f1d4c2" opacity="0.55" />
<circle cx="186" cy="29" r="12" fill="#f1d4c2" opacity="0.52" />
<circle cx="130" cy="295" r="13" fill="#f1d4c2" opacity="0.49" />
<circle cx="503" cy="141" r="9" fill="#f1d4c2" opacity="0.45" />
<circle cx="888" cy="116" r="9" fill="#f1d4c2" opacity="0.54" />
<circle cx="11" cy="46" r="28" fill="#f1d4c2" opacity="0.38" />
<circle cx="816" cy="24" r="18" fill="#f1d4c2" opacity="0.52" />
<circle cx="589" cy="327" r="19" fill="#f1d4c2" opacity="0.43" />
<circle cx="877" cy="106" r="24" fill="#f1d4c2" opacity="0.52" />
<circle cx="868" cy="66" r="20" fill="#f1d4c2" opacity="0.36" />
<circle cx="120" cy="448" r="13" fill="#f1d4c2" opacity="0.51" />
<circle cx="723" cy="406" r="11" fill="#f1d4c2" opacity="0.48" />
<circle cx="22" cy="98" r="16" fill="#f1d4c2" opacity="0.51" />
<circle cx="249" cy="288" r="19" fill="#f1d4c2" opacity="0.51" />
<circle cx="747" cy="364" r="15" fill="#f1d4c2" opacity="0.45" />
<circle cx="6" cy="522" r="18" fill="#f1d4c2" opacity="0.56" />
<circle cx="176" cy="48" r="11" fill="#f1d4c2" opacity="0.53" />
<circle cx="685" cy="559" r="24" fill="#f1d4c2" opacity="0.38" />
<circle cx="294" cy="116" r="9" fill="#f1d4c2" opacity="0.47" />
<circle cx="30" cy="256" r="12" fill="#f1d4c2" opacity="0.35" />
<circle cx="95" cy="379" r="28" fill="#f1d4c2" opacity="0.39" />
<circle cx="297" cy="213" r="10" fill="#f1d4c2" opacity="0.55" />
<circle cx="318" cy="275" r="12" fill="#f1d4c2" opacity="0.50" />
<circle cx="231" cy="500" r="13" fill="#f1d4c2" opacity="0.40" />
<circle cx="592" cy="364" r="8" fill="#f1d4c2" opacity="0.57" />
<circle cx="367" cy="414" r="8" fill="#f1d4c2" opacity="0.51" />
<circle cx="423" cy="303" r="25" fill="#f1d4c2" opacity="0.39" />
<circle cx="797" cy="529" r="23" fill="#f1d4c2" opacity="0.53" />
<circle cx="336" cy="598" r="21" fill="#f1d4c2" opacity="0.38" />
<circle cx="797" cy="369" r="15" fill="#f1d4c2" opacity="0.40" />
<circle cx="155" cy="583" r="19" fill="#f1d4c2" opacity="0.36" />
<circle cx="20" cy="303" r="25" fill="#f1d4c2" opacity="0.55" />
<circle cx="682" cy="414" r="25" fill="#f1d4c2" opacity="0.58" />
<circle cx="831" cy="176" r="11" fill="#f1d4c2" opacity="0.40" />
<circle cx="363" cy="85" r="20" fill="#f1d4c2" opacity="0.43" />
<circle cx="861" cy="417" r="12" fill="#f1d4c2" opacity="0.40" />
<circle cx="885" cy="262" r="15" fill="#f1d4c2" opacity="0.49" />
<circle cx="680" cy="317" r="24" fill="#f1d4c2" opacity="0.53" />
<circle cx="846" cy="287" r="8" fill="#f1d4c2" opacity="0.51" />
<circle cx="294" cy="269" r="29" fill="#f1d4c2" opacity="0.39" />
<circle cx="778" cy="477" r="16" fill="#f1d4c2" opacity="0.38" />
<circle cx="675" cy="134" r="20" fill="#f1d4c2" opacity="0.47" />
<circle cx="317" cy="229" r="15" fill="#f1d4c2" opacity="0.51" />
<circle cx="355" cy="494" r="10" fill="#f1d4c2" opacity="0.38" />
<circle cx="564" cy="201" r="26" fill="#f1d4c2" opacity="0.38" />
<circle cx="70" cy="589" r="21" fill="#f1d4c2" opacity="0.38" />
<circle cx="331" cy="340" r="18" fill="#f1d4c2" opacity="0.36" />
<circle cx="179" cy="293" r="29" fill="#f1d4c2" opacity="0.48" />
<circle cx="125" cy="352" r="25" fill="#f1d4c2" opacity="0.36" />
<circle cx="28" cy="508" r="9" fill="#f1d4c2" opacity="0.56" />
<circle cx="449" cy="510" r="29" fill="#f1d4c2" opacity="0.45" />
<circle cx="368" cy="316" r="13" fill="#f1d4c2" opacity="0.39" />
<circle cx="188" cy="237" r="17" fill="#f1d4c2" opacity="0.37" />
<circle cx="80" cy="224" r="20" fill="#f1d4c2" opacity="0.38" />
<circle cx="285" cy="413" r="19" fill="#f1d4c2" opacity="0.44" />
<circle cx="621" cy="278" r="27" fill="#f1d4c2" opacity="0.41" />
<circle cx="314" cy="157" r="24" fill="#f1d4c2" opacity="0.46" />
<circle cx="405" cy="141" r="12" fill="#f1d4c2" opacity="0.38" />
<circle cx="380" cy="166" r="26" fill="#f1d4c2" opacity="0.47" />
<circle cx="232" cy="528" r="27" fill="#f1d4c2" opacity="0.51" />
<circle cx="824" cy="9" r="8" fill="#f1d4c2" opacity="0.59" />
<circle cx="818" cy="210" r="9" fill="#f1d4c2" opacity="0.48" />
<circle cx="765" cy="15" r="24" fill="#f1d4c2" opacity="0.39" />
<circle cx="316" cy="548" r="19" fill="#f1d4c2" opacity="0.56" />
<circle cx="704" cy="452" r="21" fill="#f1d4c2" opacity="0.48" />
<circle cx="756" cy="431" r="8" fill="#f1d4c2" opacity="0.38" />
<circle cx="629" cy="202" r="22" fill="#f1d4c2" opacity="0.42" />
<circle cx="437" cy="118" r="13" fill="#f1d4c2" opacity="0.48" />
<circle cx="67" cy="454" r="19" fill="#f1d4c2" opacity="0.43" />
<circle cx="573" cy="298" r="24" fill="#f1d4c2" opacity="0.55" />
<circle cx="140" cy="563" r="28" fill="#f1d4c2" opacity="0.53" />
<circle cx="199" cy="498" r="14" fill="#f1d4c2" opacity="0.46" />
<circle cx="252" cy="488" r="27" fill="#f1d4c2" opacity="0.49" />
<circle cx="826" cy="313" r="11" fill="#f1d4c2" opacity="0.40" />
<circle cx="621" cy="381" r="11" fill="#f1d4c2" opacity="0.39" />
<circle cx="226" cy="214" r="12" fill="#f1d4c2" opacity="0.46" />
<circle cx="351" cy="297" r="22" fill="#f1d4c2" opacity="0.45" />
<circle cx="146" cy="515" r="8" fill="#f1d4c2" opacity="0.38" />
<circle cx="524" cy="21" r="22" fill="#f1d4c2" opacity="0.44" />
<circle cx="885" cy="464" r="22" fill="#f1d4c2" opacity="0.37" />
<circle cx="319" cy="257" r="22" fill="#f1d4c2" opacity="0.39" />
<circle cx="772" cy="582" r="22" fill="#f1d4c2" opacity="0.37" />
<circle cx="571" cy="438" r="10" fill="#f1d4c2" opacity="0.46" />
<circle cx="426" cy="313" r="29" fill="#f1d4c2" opacity="0.37" />
<circle cx="76" cy="310" r="13" fill="#f1d4c2" opacity="0.35" />
<circle cx="430" cy="519" r="23" fill="#f1d4c2" opacity="0.59" />
<circle cx="250" cy="15" r="10" fill="#f1d4c2" opacity="0.49" />
<circle cx="721" cy="296" r="16" fill="#f1d4c2" opacity="0.43" />
<circle cx="405" cy="62" r="17" fill="#f1d4c2" opacity="0.51" />
<circle cx="159" cy="217" r="15" fill="#f1d4c2" opacity="0.54" />
<circle cx="661" cy="361" r="9" fill="#f1d4c2" opacity="0.39" />
<circle cx="840" cy="285" r="13" fill="#f1d4c2" opacity="0.49" />
<circle cx="628" cy="356" r="3" fill="#5f4b8b" opacity="0.67" />
<circle cx="369" cy="66" r="3" fill="#5f4b8b" opacity="0.59" />
<circle cx="224" cy="509" r="6" fill="#5f4b8b" opacity="0.79" />
<circle cx="736" cy="531" r="4" fill="#5f4b8b" opacity="0.75" />
<circle cx="56" cy="540" r="5" fill="#5f4b8b" opacity="0.86" />
<circle cx="454" cy="333" r="5" fill="#5f4b8b" opacity="0.84" />
<circle cx="700" cy="590" r="8" fill="#5f4b8b" opacity="0.65" />
<circle cx="884" cy="525" r="4" fill="#5f4b8b" opacity="0.74" />
<circle cx="345" cy="364" r="6" fill="#5f4b8b" opacity="0.58" />
<circle cx="650" cy="375" r="6" fill="#5f4b8b" opacity="0.75" />
<circle cx="239" cy="580" r="10" fill="#5f4b8b" opacity="0.76" />
<circle cx="474" cy="126" r="6" fill="#5f4b8b" opacity="0.64" />
<circle cx="702" cy="528" r="9" fill="#5f4b8b" opacity="0.76" />
<circle cx="827" cy="251" r="8" fill="#5f4b8b" opacity="0.86" />
<circle cx="352" cy="38" r="3" fill="#5f4b8b" opacity="0.74" />
<circle cx="621" cy="203" r="3" fill="#5f4b8b" opacity="0.89" />
<circle cx="318" cy="198" r="8" fill="#5f4b8b" opacity="0.83" />
<circle cx="637" cy="595" r="5" fill="#5f4b8b" opacity="0.68" />
<circle cx="392" cy="28" r="4" fill="#5f4b8b" opacity="0.56" />
<circle cx="600" cy="85" r="11" fill="#5f4b8b" opacity="0.70" />
<circle cx="770" cy="392" r="9" fill="#5f4b8b" opacity="0.73" />
<circle cx="77" cy="516" r="3" fill="#5f4b8b" opacity="0.81" />
<circle cx="536" cy="69" r="4" fill="#5f4b8b" opacity="0.68" />
<circle cx="628" cy="239" r="8" fill="#5f4b8b" opacity="0.71" />
<circle cx="324" cy="198" r="3" fill="#5f4b8b" opacity="0.85" />
<circle cx="238" cy="291" r="3" fill="#5f4b8b" opacity="0.88" />
<circle cx="823" cy="56" r="11" fill="#5f4b8b" opacity="0.86" />
<circle cx="157" cy="136" r="4" fill="#5f4b8b" opacity="0.71" />
<circle cx="1" cy="550" r="9" fill="#5f4b8b" opacity="0.75" />
<circle cx="758" cy="225" r="4" fill="#5f4b8b" opacity="0.69" />
<circle cx="516" cy="26" r="10" fill="#5f4b8b" opacity="0.66" />
<circle cx="814" cy="286" r="3" fill="#5f4b8b" opacity="0.73" />
<circle cx="695" cy="126" r="11" fill="#5f4b8b" opacity="0.69" />
<circle cx="768" cy="349" r="8" fill="#5f4b8b" opacity="0.81" />
<circle cx="312" cy="226" r="9" fill="#5f4b8b" opacity="0.86" />
<circle cx="130" cy="94" r="5" fill="#5f4b8b" opacity="0.59" />
<circle cx="343" cy="391" r="6" fill="#5f4b8b" opacity="0.86" />
<circle cx="776" cy="335" r="10" fill="#5f4b8b" opacity="0.81" />
<circle cx="52" cy="568" r="10" fill="#5f4b8b" opacity="0.80" />
<circle cx="147" cy="582" r="3" fill="#5f4b8b" opacity="0.57" />
<circle cx="131" cy="373" r="10" fill="#5f4b8b" opacity="0.68" />
<circle cx="560" cy="48" r="10" fill="#5f4b8b" opacity="0.84" />
<circle cx="186" cy="36" r="8" fill="#5f4b8b" opacity="0.71" />
<circle cx="2" cy="102" r="8" fill="#5f4b8b" opacity="0.77" />
<circle cx="614" cy="332" r="7" fill="#5f4b8b" opacity="0.80" />
<circle cx="828" cy="411" r="11" fill="#5f4b8b" opacity="0.61" />
<circle cx="437" cy="84" r="3" fill="#5f4b8b" opacity="0.85" />
<circle cx="79" cy="484" r="3" fill="#5f4b8b" opacity="0.75" />
<circle cx="510" cy="46" r="11" fill="#5f4b8b" opacity="0.59" />
<circle cx="685" cy="203" r="3" fill="#5f4b8b" opacity="0.78" />
<circle cx="742" cy="356" r="9" fill="#5f4b8b" opacity="0.71" />
<circle cx="554" cy="443" r="11" fill="#5f4b8b" opacity="0.59" />
<circle cx="359" cy="132" r="6" fill="#5f4b8b" opacity="0.85" />
<circle cx="348" cy="298" r="6" fill="#5f4b8b" opacity="0.75" />
<circle cx="464" cy="96" r="9" fill="#5f4b8b" opacity="0.79" />
<circle cx="846" cy="321" r="4" fill="#5f4b8b" opacity="0.84" />
<circle cx="473" cy="57" r="8" fill="#5f4b8b" opacity="0.71" />
<circle cx="895" cy="107" r="4" fill="#5f4b8b" opacity="0.57" />
<circle cx="386" cy="122" r="7" fill="#5f4b8b" opacity="0.75" />
<circle cx="196" cy="531" r="4" fill="#5f4b8b" opacity="0.71" />
<circle cx="71" cy="200" r="10" fill="#5f4b8b" opacity="0.85" />
<circle cx="466" cy="119" r="10" fill="#5f4b8b" opacity="0.68" />
<circle cx="635" cy="17" r="4" fill="#5f4b8b" opacity="0.88" />
<circle cx="237" cy="546" r="3" fill="#5f4b8b" opacity="0.70" />
<circle cx="260" cy="228" r="7" fill="#5f4b8b" opacity="0.62" />
<circle cx="830" cy="246" r="8" fill="#5f4b8b" opacity="0.63" />
<circle cx="787" cy="237" r="7" fill="#5f4b8b" opacity="0.75" />
<circle cx="70" cy="209" r="10" fill="#5f4b8b" opacity="0.75" />
<circle cx="531" cy="382" r="6" fill="#5f4b8b" opacity="0.62" />
<circle cx="45" cy="586" r="11" fill="#5f4b8b" opacity="0.85" />
<circle cx="614" cy="594" r="5" fill="#5f4b8b" opacity="0.74" />
<circle cx="270" cy="263" r="6" fill="#5f4b8b" opacity="0.75" />
<circle cx="831" cy="422" r="11" fill="#5f4b8b" opacity="0.81" />
<circle cx="514" cy="282" r="10" fill="#5f4b8b" opacity="0.65" />
<circle cx="531" cy="68" r="7" fill="#5f4b8b" opacity="0.70" />
<circle cx="558" cy="50" r="11" fill="#5f4b8b" opacity="0.84" />
<circle cx="390" cy="562" r="11" fill="#5f4b8b" opacity="0.68" />
<circle cx="219" cy="165" r="8" fill="#5f4b8b" opacity="0.67" />
<circle cx="611" cy="156" r="5" fill="#5f4b8b" opacity="0.67" />
<circle cx="471" cy="431" r="11" fill="#5f4b8b" opacity="0.84" />
<circle cx="193" cy="377" r="4" fill="#5f4b8b" opacity="0.58" />
<line x1="789" y1="316" x2="843" y2="335" stroke="#c17c74" stroke-width="2.93" opacity="0.2" />
<line x1="685" y1="498" x2="663" y2="535" stroke="#c17c74" stroke-width="2.17" opacity="0.2" />
<line x1="95" y1="223" x2="89" y2="234" stroke="#c17c74" stroke-width="2.51" opacity="0.2" />
<line x1="736" y1="513" x2="693" y2="567" stroke="#c17c74" stroke-width="1.00" opacity="0.2" />
<line x1="118" y1="33" x2="135" y2="59" stroke="#c17c74" stroke-width="1.56" opacity="0.2" />
<line x1="24" y1="479" x2="48" y2="488" stroke="#c17c74" stroke-width="3.22" opacity="0.2" />
<line x1="643" y1="243" x2="662" y2="241" stroke="#c17c74" stroke-width="3.04" opacity="0.2" />
<line x1="712" y1="589" x2="759" y2="530" stroke="#c17c74" stroke-width="1.81" opacity="0.2" />
<line x1="632" y1="343" x2="577" y2="321" stroke="#c17c74" stroke-width="1.62" opacity="0.2" />
<line x1="696" y1="106" x2="674" y2="55" stroke="#c17c74" stroke-width="1.35" opacity="0.2" />
<line x1="850" y1="399" x2="871" y2="432" stroke="#c17c74" stroke-width="2.78" opacity="0.2" />
<line x1="570" y1="288" x2="594" y2="291" stroke="#c17c74" stroke-width="1.53" opacity="0.2" />
<line x1="780" y1="41" x2="723" y2="28" stroke="#c17c74" stroke-width="1.95" opacity="0.2" />
<line x1="72" y1="514" x2="44" y2="469" stroke="#c17c74" stroke-width="2.71" opacity="0.2" />
<line x1="341" y1="76" x2="385" y2="79" stroke="#c17c74" stroke-width="1.40" opacity="0.2" />
<line x1="378" y1="457" x2="415" y2="402" stroke="#c17c74" stroke-width="1.28" opacity="0.2" />
<line x1="871" y1="320" x2="864" y2="351" stroke="#c17c74" stroke-width="1.10" opacity="0.2" />
<line x1="416" y1="342" x2="395" y2="316" stroke="#c17c74" stroke-width="2.48" opacity="0.2" />
<line x1="11" y1="146" x2="-5" y2="128" stroke="#c17c74" stroke-width="2.21" opacity="0.2" />
<line x1="880" y1="92" x2="845" y2="85" stroke="#c17c74" stroke-width="1.56" opacity="0.2" />
<line x1="642" y1="320" x2="608" y2="339" stroke="#c17c74" stroke-width="1.88" opacity="0.2" />
<line x1="385" y1="371" x2="358" y2="319" stroke="#c17c74" stroke-width="1.61" opacity="0.2" />
<line x1="387" y1="180" x2="356" y2="191" stroke="#c17c74" stroke-width="1.90" opacity="0.2" />
<line x1="354" y1="573" x2="332" y2="576" stroke="#c17c74" stroke-width="1.14" opacity="0.2" />
<line x1="260" y1="46" x2="237" y2="80" stroke="#c17c74" stroke-width="2.60" opacity="0.2" />
<line x1="116" y1="251" x2="143" y2="235" stroke="#c17c74" stroke-width="2.40" opacity="0.2" />
<line x1="642" y1="448" x2="584" y2="388" stroke="#c17c74" stroke-width="2.30" opacity="0.2" />
<line x1="282" y1="222" x2="253" y2="185" stroke="#c17c74" stroke-width="1.88" opacity="0.2" />
<line x1="541" y1="159" x2="527" y2="158" stroke="#c17c74" stroke-width="2.01" opacity="0.2" />
<line x1="712" y1="368" x2="660" y2="355" stroke="#c17c74" stroke-width="3.19" opacity="0.2" />
</svg>