<?xml version="1.0" encoding="UTF-8"?>
<svg xmlns="http://www.w3.org/2000/svg" width="900" height="600" viewBox="0 0 900 600">
<rect width="100%" height="100%" fill="#f7f0e8" />
<circle cx="262" cy="591" r="18" fill="#f0d2c0" opacity="0.60" />
<circle cx="881" cy="230" r="13" fill="#f0d2c0" opacity="0.53" />
<circle cx="11" cy="68" r="26" fill="#f0d2c0" opacity="0.36" />
<circle cx="274" cy="532" r="8" fill="#f0d2c0" opacity="0.44" />
<circle cx="301" cy="477" r="24" fill="#f0d2c0" opacity="0.49" />
<circle cx="222" cy="595" r="15" fill="#f0d2c0" opacity="0.59" />
<circle cx="852" cy="415" r="11" fill="#f0d2c0" opacity="0.36" />
<circle cx="659" cy="142" r="9" fill="#f0d2c0" opacity="0.47" />
<circle cx="390" cy="258" r="15" fill="#f0d2c0" opacity="0.37" />
<circle cx="691" cy="278" r="26" fill="#f0d2c0" opacity="0.54" />
<circle cx="265" cy="585" r="12" fill="#f0d2c0" opacity="0.56" />
<circle cx="543" cy="460" r="17" fill="#f0d2c0" opacity="0.47" />
<circle cx="569" cy="541" r="22" fill="#f0d2c0" opacity="0.39" />
<circle cx="657" cy="343" r="18" fill="#f0d2c0" opacity="0.58" />
<circle cx="718" cy="181" r="16" fill="#f0d2c0" opacity="0.46" />
<circle cx="652" cy="358" r="24" fill="#f0d2c0" opacity="0.48" />
<circle cx="65" cy="437" r="27" fill="#f0d2c0" opacity="0.44" />
<circle cx="378" cy="268" r="21" fill="#f0d2c0" opacity="0.42" />
<circle cx="506" cy="263" r="18" fill="#f0d2c0" opacity="0.53" />
<circle cx="298" cy="47" r="29" fill="#f0d2c0" opacity="0.57" />
<circle cx="167" cy="59" r="20" fill="#f0d2c0" opacity="0.43" />
<circle cx="810" cy="391" r="8" fill="#f0d2c0" opacity="0.54" />
<circle cx="260" cy="183" r="23" fill="#f0d2c0" opacity="0.45" />
<circle cx="278" cy="20" r="23" fill="#f0d2c0" opacity="0.43" />
<circle cx="459" cy="72" r="18" fill="#f0d2c0" opacity="0.57" />
<circle cx="746" cy="144" r="16" fill="#f0d2c0" opacity="0.59" />
<circle cx="723" cy="257" r="26" fill="#f0d2c0" opacity="0.35" />
<circle cx="375" cy="170" r="19" fill="#f0d2c0" opacity="0.36" />
<circle cx="6" cy="349" r="17" fill="#f0d2c0" opacity="0.56" />
<circle cx="122" cy="319" r="12" fill="#f0d2c0" opacity="0.50" />
<circle cx="269" cy="433" r="11" fill="#f0d2c0" opacity="0.42" />
<circle cx="611" cy="428" r="13" fill="#f0d2c0" opacity="0.49" />
<circle cx="254" cy="125" r="19" fill="#f0d2c0" opacity="0.50" />
<circle cx="165" cy="302" r="8" fill="#f0d2c0" opacity="0.51" />
<circle cx="327" cy="139" r="16" fill="#f0d2c0" opacity="0.41" />
<circle cx="859" cy="18" r="13" fill="#f0d2c0" opacity="0.44" />
<circle cx="646" cy="294" r="15" fill="#f0d2c0" opacity="0.53" />
<circle cx="405" cy="70" r="27" fill="#f0d2c0" opacity="0.37" />
<circle cx="845" cy="388" r="8" fill="#f0d2c0" opacity="0.55" />
<circle cx="675" cy="215" r="20" fill="#f0d2c0" opacity="0.38" />
<circle cx="136" cy="346" r="12" fill="#f0d2c0" opacity="0.43" />
<circle cx="353" cy="84" r="20" fill="#f0d2c0" opacity="0.45" />
<circle cx="442" cy="35" r="11" fill="#f0d2c0" opacity="0.35" />
<circle cx="39" cy="106" r="15" fill="#f0d2c0" opacity="0.59" />
<circle cx="278" cy="92" r="8" fill="#f0d2c0" opacity="0.51" />
<circle cx="752" cy="75" r="8" fill="#f0d2c0" opacity="0.48" />
<circle cx="468" cy="226" r="25" fill="#f0d2c0" opacity="0.49" />
<circle cx="402" cy="360" r="15" fill="#f0d2c0" opacity="0.58" />
<circle cx="349" cy="454" r="22" fill="#f0d2c0" opacity="0.44" />
<circle cx="833" cy="508" r="22" fill="#f0d2c0" opacity="0.52" />
<circle cx="261" cy="546" r="27" fill="#f0d2c0" opacity="0.56" />
<circle cx="687" cy="116" r="24" fill="#f0d2c0" opacity="0.59" />
<circle cx="409" cy="188" r="22" fill="#f0d2c0" opacity="0.54" />
<circle cx="124" cy="112" r="13" fill="#f0d2c0" opacity="0.52" />
<circle cx="644" cy="483" r="22" fill="#f0d2c0" opacity="0.46" />
<circle cx="600" cy="408" r="8" fill="#f0d2c0" opacity="0.38" />
<circle cx="468" cy="586" r="27" fill="#f0d2c0" opacity="0.57" />
<circle cx="753" cy="486" r="12" fill="#f0d2c0" opacity="0.45" />
<circle cx="497" cy="44" r="29" fill="#f0d2c0" opacity="0.58" />
<circle cx="870" cy="474" r="26" fill="#f0d2c0" opacity="0.56" />
<circle cx="468" cy="472" r="19" fill="#f0d2c0" opacity="0.47" />
<circle cx="872" cy="476" r="14" fill="#f0d2c0" opacity="0.42" />
<circle cx="4" cy="218" r="29" fill="#f0d2c0" opacity="0.37" />
<circle cx="852" cy="203" r="29" fill="#f0d2c0" opacity="0.52" />
<circle cx="258" cy="256" r="26" fill="#f0d2c0" opacity="0.41" />
<circle cx="269" cy="34" r="10" fill="#f0d2c0" opacity="0.54" />
<circle cx="109" cy="60" r="27" fill="#f0d2c0" opacity="0.58" />
<circle cx="875" cy="562" r="15" fill="#f0d2c0" opacity="0.37" />
<circle cx="603" cy="490" r="17" fill="#f0d2c0" opacity="0.46" />
<circle cx="791" cy="295" r="22" fill="#f0d2c0" opacity="0.38" />
<circle cx="466" cy="115" r="25" fill="#f0d2c0" opacity="0.38" />
<circle cx="512" cy="399" r="15" fill="#f0d2c0" opacity="0.51" />
<circle cx="493" cy="225" r="9" fill="#f0d2c0" opacity="0.35" />
<circle cx="44" cy="277" r="18" fill="#f0d2c0" opacity="0.54" />
<circle cx="298" cy="29" r="29" fill="#f0d2c0" opacity="0.42" />
<circle cx="73" cy="536" r="23" fill="#f0d2c0" opacity="0.46" />
<circle cx="629" cy="248" r="24" fill="#f0d2c0" opacity="0.56" />
<circle cx="198" cy="24" r="18" fill="#f0d2c0" opacity="0.44" />
<circle cx="387" cy="263" r="17" fill="#f0d2c0" opacity="0.49" />
<circle cx="387" cy="365" r="16" fill="#f0d2c0" opacity="0.44" />
<circle cx="557" cy="329" r="25" fill="#f0d2c0" opacity="0.52" />
<circle cx="487" cy="522" r="26" fill="#f0d2c0" opacity="0.52" />
<circle cx="714" cy="287" r="21" fill="#f0d2c0" opacity="0.52" />
<circle cx="860" cy="248" r="12" fill="#f0d2c0" opacity="0.55" />
<circle cx="280" cy="201" r="14" fill="#f0d2c0" opacity="0.50" />
<circle cx="635" cy="557" r="10" fill="#f0d2c0" opacity="0.58" />
<circle cx="435" cy="289" r="11" fill="#f0d2c0" opacity="0.44" />
<circle cx="739" cy="522" r="21" fill="#f0d2c0" opacity="0.36" />
<circle cx="418" cy="186" r="28" fill="#f0d2c0" opacity="0.58" />
<circle cx="885" cy="53" r="29" fill="#f0d2c0" opacity="0.45" />
<circle cx="720" cy="361" r="20" fill="#f0d2c0" opacity="0.60" />
<circle cx="476" cy="189" r="20" fill="#f0d2c0" opacity="0.57" />
<circle cx="164" cy="227" r="10" fill="#f0d2c0" opacity="0.39" />
<circle cx="489" cy="193" r="25" fill="#f0d2c0" opacity="0.43" />
<circle cx="190" cy="200" r="24" fill="#f0d2c0" opacity="0.49" />
<circle cx="463" cy="295" r="10" fill="#f0d2c0" opacity="0.43" />
<circle cx="38" cy="98" r="26" fill="#f0d2c0" opacity="0.41" />
<circle cx="872" cy="39" r="16" fill="#f0d2c0" opacity="0.45" />
<circle cx="313" cy="13" r="27" fill="#f0d2c0" opacity="0.57" />
<circle cx="11" cy="53" r="18" fill="#f0d2c0" opacity="0.44" />
<circle cx="674" cy="259" r="19" fill="#f0d2c0" opacity="0.39" />
<circle cx="130" cy="377" r="16" fill="#f0d2c0" opacity="0.48" />
<circle cx="621" cy="170" r="27" fill="#f0d2c0" opacity="0.56" />
<circle cx="222" cy="311" r="10" fill="#f0d2c0" opacity="0.52" />
<circle cx="570" cy="143" r="9" fill="#f0d2c0" opacity="0.39" />
<circle cx="326" cy="110" r="23" fill="#f0d2c0" opacity="0.58" />
<circle cx="37" cy="456" r="10" fill="#f0d2c0" opacity="0.35" />
<circle cx="556" cy="428" r="11" fill="#f0d2c0" opacity="0.56" />
<circle cx="311" cy="199" r="16" fill="#f0d2c0" opacity="0.41" />
<circle cx="125" cy="279" r="29" fill="#f0d2c0" opacity="0.48" />
<circle cx="491" cy="385" r="27" fill="#f0d2c0" opacity="0.44" />
<circle cx="112" cy="173" r="23" fill="#f0d2c0" opacity="0.56" />
<circle cx="358" cy="320" r="22" fill="#f0d2c0" opacity="0.39" />
<circle cx="307" cy="237" r="27" fill="#f0d2c0" opacity="0.60" />
<circle cx="54" cy="498" r="29" fill="#f0d2c0" opacity="0.59" />
<circle cx="688" cy="199" r="9" fill="#f0d2c0" opacity="0.55" />
<circle cx="273" cy="528" r="18" fill="#f0d2c0" opacity="0.38" />
<circle cx="205" cy="569" r="25" fill="#f0d2c0" opacity="0.39" />
<circle cx="275" cy="512" r="20" fill="#f0d2c0" opacity="0.60" />
<circle cx="552" cy="67" r="27" fill="#f0d2c0" opacity="0.48" />
<circle cx="885" cy="554" r="8" fill="#f0d2c0" opacity="0.51" />
<circle cx="186" cy="332" r="25" fill="#f0d2c0" opacity="0.36" />
<circle cx="386" cy="270" r="15" fill="#f0d2c0" opacity="0.42" />
<circle cx="860" cy="161" r="9" fill="#f0d2c0" opacity="0.57" />
<circle cx="325" cy="274" r="8" fill="#f0d2c0" opacity="0.36" />
<circle cx="637" cy="448" r="21" fill="#f0d2c0" opacity="0.55" />
<circle cx="598" cy="439" r="10" fill="#f0d2c0" opacity="0.50" />
<circle cx="757" cy="63" r="27" fill="#f0d2c0" opacity="0.49" />
<circle cx="271" cy="137" r="18" fill="#f0d2c0" opacity="0.38" />
<circle cx="394" cy="246" r="22" fill="#f0d2c0" opacity="0.41" />
<circle cx="822" cy="62" r="28" fill="#f0d2c0" opacity="0.50" />
<circle cx="629" cy="102" r="20" fill="#f0d2c0" opacity="0.46" />
<circle cx="148" cy="79" r="15" fill="#f0d2c0" opacity="0.58" />
<circle cx="760" cy="130" r="24" fill="#f0d2c0" opacity="0.43" />
<circle cx="490" cy="463" r="5" fill="#6f4c8b" opacity="0.63" />
<circle cx="9" cy="70" r="3" fill="#6f4c8b" opacity="0.77" />
<circle cx="239" cy="13" r="11" fill="#6f4c8b" opacity="0.72" />
<circle cx="578" cy="245" r="8" fill="#6f4c8b" opacity="0.86" />
<circle cx="29" cy="111" r="11" fill="#6f4c8b" opacity="0.67" />
<circle cx="641" cy="105" r="3" fill="#6f4c8b" opacity="0.87" />
<circle cx="811" cy="457" r="7" fill="#6f4c8b" opacity="0.79" />
<circle cx="298" cy="229" r="5" fill="#6f4c8b" opacity="0.77" />
<circle cx="423" cy="346" r="7" fill="#6f4c8b" opacity="0.58" />
<circle cx="511" cy="314" r="6" fill="#6f4c8b" opacity="0.64" />
<circle cx="844" cy="511" r="10" fill="#6f4c8b" opacity="0.85" />
<circle cx="550" cy="317" r="7" fill="#6f4c8b" opacity="0.57" />
<circle cx="149" cy="279" r="6" fill="#6f4c8b" opacity="0.70" />
<circle cx="58" cy="449" r="11" fill="#6f4c8b" opacity="0.56" />
<circle cx="323" cy="268" r="3" fill="#6f4c8b" opacity="0.64" />
<circle cx="665" cy="421" r="7" fill="#6f4c8b" opacity="0.84" />
<circle cx="659" cy="297" r="6" fill="#6f4c8b" opacity="0.85" />
<circle cx="463" cy="172" r="8" fill="#6f4c8b" opacity="0.77" />
<circle cx="716" cy="384" r="11" fill="#6f4c8b" opacity="0.83" />
<circle cx="672" cy="521" r="8" fill="#6f4c8b" opacity="0.88" />
<circle cx="243" cy="97" r="6" fill="#6f4c8b" opacity="0.70" />
<circle cx="845" cy="27" r="6" fill="#6f4c8b" opacity="0.57" />
<circle cx="621" cy="324" r="5" fill="#6f4c8b" opacity="0.73" />
<circle cx="875" cy="511" r="8" fill="#6f4c8b" opacity="0.67" />
<circle cx="144" cy="226" r="3" fill="#6f4c8b" opacity="0.67" />
<circle cx="769" cy="366" r="11" fill="#6f4c8b" opacity="0.73" />
<circle cx="254" cy="119" r="3" fill="#6f4c8b" opacity="0.63" />
<circle cx="360" cy="260" r="11" fill="#6f4c8b" opacity="0.55" />
<circle cx="303" cy="363" r="7" fill="#6f4c8b" opacity="0.79" />
<circle cx="527" cy="392" r="8" fill="#6f4c8b" opacity="0.58" />
<circle cx="212" cy="245" r="5" fill="#6f4c8b" opacity="0.56" />
<circle cx="203" cy="412" r="6" fill="#6f4c8b" opacity="0.82" />
<circle cx="357" cy="9" r="6" fill="#6f4c8b" opacity="0.76" />
<circle cx="81" cy="74" r="3" fill="#6f4c8b" opacity="0.80" />
<circle cx="555" cy="105" r="11" fill="#6f4c8b" opacity="0.68" />
<circle cx="638" cy="114" r="7" fill="#6f4c8b" opacity="0.81" />
<circle cx="259" cy="133" r="9" fill="#6f4c8b" opacity="0.80" />
<circle cx="887" cy="205" r="8" fill="#6f4c8b" opacity="0.79" />
<circle cx="58" cy="54" r="7" fill="#6f4c8b" opacity="0.79" />
<circle cx="437" cy="355" r="6" fill="#6f4c8b" opacity="0.80" />
<circle cx="423" cy="144" r="6" fill="#6f4c8b" opacity="0.74" />
<circle cx="291" cy="192" r="3" fill="#6f4c8b" opacity="0.63" />
<circle cx="318" cy="50" r="8" fill="#6f4c8b" opacity="0.66" />
<circle cx="719" cy="228" r="9" fill="#6f4c8b" opacity="0.86" />
<circle cx="567" cy="540" r="9" fill="#6f4c8b" opacity="0.72" />
<circle cx="726" cy="154" r="6" fill="#6f4c8b" opacity="0.57" />
<circle cx="745" cy="318" r="3" fill="#6f4c8b" opacity="0.67" />
<circle cx="376" cy="12" r="6" fill="#6f4c8b" opacity="0.86" />
<circle cx="356" cy="530" r="8" fill="#6f4c8b" opacity="0.85" />
<circle cx="883" cy="490" r="5" fill="#6f4c8b" opacity="0.68" />
<circle cx="39" cy="352" r="7" fill="#6f4c8b" opacity="0.60" />
<circle cx="677" cy="3" r="5" fill="#6f4c8b" opacity="0.89" />
<circle cx="462" cy="71" r="4" fill="#6f4c8b" opacity="0.89" />
<circle cx="167" cy="316" r="8" fill="#6f4c8b" opacity="0.72" />
<circle cx="246" cy="245" r="9" fill="#6f4c8b" opacity="0.86" />
<circle cx="413" cy="254" r="3" fill="#6f4c8b" opacity="0.90" />
<circle cx="536" cy="164" r="6" fill="#6f4c8b" opacity="0.86" />
<circle cx="832" cy="322" r="9" fill="#6f4c8b" opacity="0.69" />
<circle cx="774" cy="3" r="10" fill="#6f4c8b" opacity="0.80" />
<circle cx="762" cy="240" r="6" fill="#6f4c8b" opacity="0.63" />
<circle cx="821" cy="537" r="8" fill="#6f4c8b" opacity="0.76" />
<circle cx="749" cy="2" r="10" fill="#6f4c8b" opacity="0.69" />
<circle cx="755" cy="63" r="8" fill="#6f4c8b" opacity="0.72" />
<circle cx="110" cy="283" r="3" fill="#6f4c8b" opacity="0.66" />
<circle cx="55" cy="532" r="4" fill="#6f4c8b" opacity="0.88" />
<circle cx="708" cy="505" r="10" fill="#6f4c8b" opacity="0.62" />
<circle cx="283" cy="18" r="9" fill="#6f4c8b" opacity="0.85" />
<circle cx="850" cy="516" r="9" fill="#6f4c8b" opacity="0.68" />
<circle cx="360" cy="129" r="8" fill="#6f4c8b" opacity="0.74" />
<circle cx="209" cy="274" r="11" fill="#6f4c8b" opacity="0.57" />
<circle cx="693" cy="549" r="11" fill="#6f4c8b" opacity="0.78" />
<circle cx="841" cy="562" r="8" fill="#6f4c8b" opacity="0.56" />
<circle cx="305" cy="103" r="4" fill="#6f4c8b" opacity="0.71" />
<circle cx="304" cy="140" r="5" fill="#6f4c8b" opacity="0.74" />
<circle cx="39" cy="302" r="7" fill="#6f4c8b" opacity="0.76" />
<circle cx="118" cy="102" r="7" fill="#6f4c8b" opacity="0.60" />
<circle cx="120" cy="26" r="9" fill="#6f4c8b" opacity="0.65" />
<circle cx="605" cy="165" r="11" fill="#6f4c8b" opacity="0.61" />
<circle cx="103" cy="89" r="8" fill="#6f4c8b" opacity="0.86" />
<circle cx="273" cy="334" r="4" fill="#6f4c8b" opacity="0.84" />
<circle cx="715" cy="357" r="6" fill="#6f4c8b" opacity="0.72" />
<circle cx="448" cy="578" r="3" fill="#6f4c8b" opacity="0.73" />
<circle cx="575" cy="299" r="6" fill="#6f4c8b" opacity="0.82" />
<circle cx="171" cy="304" r="6" fill="#6f4c8b" opacity="0.74" />
<circle cx="753" cy="85" r="9" fill="#6f4c8b" opacity="0.76" />
<circle cx="853" cy="100" r="9" fill="#6f4c8b" opacity="0.80" />
<circle cx="29" cy="396" r="3" fill="#6f4c8b" opacity="0.58" />
<line x1="868" y1="531" x2="832" y2="501" stroke="#c889a0" stroke-width="3.14" opacity="0.2" />
<line x1="557" y1="225" x2="615" y2="197" stroke="#c889a0" stroke-width="3.08" opacity="0.2" />
<line x1="529" y1="0" x2="537" y2="-55" stroke="#c889a0" stroke-width="3.15" opacity="0.2" />
<line x1="618" y1="184" x2="653" y2="159" stroke="#c889a0" stroke-width="3.13" opacity="0.2" />
<line x1="482" y1="216" x2="513" y2="161" stroke="#c889a0" stroke-width="2.18" opacity="0.2" />
<line x1="240" y1="328" x2="298" y2="330" stroke="#c889a0" stroke-width="1.28" opacity="0.2" />
<line x1="287" y1="462" x2="335" y2="439" stroke="#c889a0" stroke-width="1.42" opacity="0.2" />
<line x1="809" y1="126" x2="796" y2="180" stroke="#c889a0" stroke-width="1.70" opacity="0.2" />
<line x1="446" y1="205" x2="457" y2="223" stroke="#c889a0" stroke-width="1.69" opacity="0.2" />
<line x1="846" y1="178" x2="868" y2="171" stroke="#c889a0" stroke-width="2.44" opacity="0.2" />
<line x1="776" y1="489" x2="816" y2="453" stroke="#c889a0" stroke-width="1.68" opacity="0.2" />
<line x1="298" y1="246" x2="272" y2="203" stroke="#c889a0" stroke-width="1.46" opacity="0.2" />
<line x1="54" y1="58" x2="1" y2="24" stroke="#c889a0" stroke-width="3.23" opacity="0.2" />
<line x1="856" y1="141" x2="825" y2="130" stroke="#c889a0" stroke-width="2.38" opacity="0.2" />
<line x1="560" y1="493" x2="538" y2="465" stroke="#c889a0" stroke-width="3.41" opacity="0.2" />
<line x1="191" y1="538" x2="186" y2="575" stroke="#c889a0" stroke-width="1.12" opacity="0.2" />
<line x1="552" y1="43" x2="581" y2="96" stroke="#c889a0" stroke-width="2.10" opacity="0.2" />
<line x1="354" y1="146" x2="341" y2="130" stroke="#c889a0" stroke-width="2.61" opacity="0.2" />
<line x1="61" y1="349" x2="16" y2="323" stroke="#c889a0" stroke-width="2.24" opacity="0.2" />
<line x1="83" y1="425" x2="106" y2="431" stroke="#c889a0" stroke-width="2.45" opacity="0.2" />
<line x1="337" y1="22" x2="306" y2="-30" stroke="#c889a0" stroke-width="2.25" opacity="0.2" />
<line x1="244" y1="341" x2="300" y2="400" stroke="#c889a0" stroke-width="1.42" opacity="0.2" />
<line x1="74" y1="156" x2="83" y2="106" stroke="#c889a0" stroke-width="1.15" opacity="0.2" />
<line x1="513" y1="406" x2="520" y2="465" stroke="#c889a0" stroke-width="1.25" opacity="0.2" />
<line x1="120" y1="392" x2="121" y2="410" stroke="#c889a0" stroke-width="2.80" opacity="0.2" />
<line x1="556" y1="35" x2="514" y2="33" stroke="#c889a0" stroke-width="1.81" opacity="0.2" />
<line x1="651" y1="331" x2="605" y2="381" stroke="#c889a0" stroke-width="1.84" opacity="0.2" />
<line x1="824" y1="113" x2="857" y2="58" stroke="#c889a0" stroke-width="1.90" opacity="0.2" />
<line x1="194" y1="456" x2="170" y2="421" stroke="#c889a0" stroke-width="1.26" opacity="0.2" />
<line x1="94" y1="393" x2="117" y2="422" stroke="#c889a0" stroke-width="2.20" opacity="0.2" />
</svg>