<?xml version="1.0" encoding="UTF-8"?>
<svg xmlns="http://www.w3.org/2000/svg" width="900" height="600" viewBox="0 0 900 600">
<rect width="100%" height="100%" fill="#f5ebe0" />
<circle cx="816" cy="463" r="27" fill="#f1d4c2" opacity="0.43" />
<circle cx="605" cy="87" r="12" fill="#f1d4c2" opacity="0.51" />
<circle cx="671" cy="448" r="14" fill="#f1d4c2" opacity="0.38" />
<circle cx="856" cy="530" r="19" fill="#f1d4c2" opacity="0.56" />
<circle cx="817" cy="366" r="26" fill="#f1d4c2" opacity="0.51" />
<circle cx="171" cy="385" r="16" fill="#f1d4c2" opacity="0.54" />
<circle cx="701" cy="508" r="28" fill="#f1d4c2" opacity="0.53" />
<circle cx="316" cy="513" r="12" fill="#f1d4c2" opacity="0.56" />
<circle cx="379" cy="138" r="26" fill="#f1d4c2" opacity="0.58" />
<circle cx="605" cy="44" r="14" fill="#f1d4c2" opacity="0.59" />
<circle cx="646" cy="286" r="23" fill="#f1d4c2" opacity="0.55" />
<circle cx="176" cy="95" r="21" fill="#f1d4c2" opacity="0.36" />
<circle cx="229" cy="131" r="20" fill="#f1d4c2" opacity="0.35" />
<circle cx="716" cy="363" r="29" fill="#f1d4c2" opacity="0.60" />
<circle cx="430" cy="112" r="28" fill="#f1d4c2" opacity="0.52" />
<circle cx="201" cy="487" r="14" fill="#f1d4c2" opacity="0.50" />
<circle cx="314" cy="67" r="14" fill="#f1d4c2" opacity="0.49" />
<circle cx="307" cy="246" r="11" fill="#f1d4c2" opacity="0.47" />
<circle cx="37" cy="568" r="13" fill="#f1d4c2" opacity="0.44" />
<circle cx="260" cy="53" r="24" fill="#f1d4c2" opacity="0.59" />
<circle cx="37" cy="437" r="27" fill="#f1d4c2" opacity="0.46" />
<circle cx="373" cy="20" r="10" fill="#f1d4c2" opacity="0.50" />
<circle cx="34" cy="526" r="23" fill="#f1d4c2" opacity="0.52" />
<circle cx="715" cy="97" r="29" fill="#f1d4c2" opacity="0.52" />
<circle cx="359" cy="384" r="13" fill="#f1d4c2" opacity="0.42" />
<circle cx="370" cy="286" r="18" fill="#f1d4c2" opacity="0.44" />
<circle cx="685" cy="198" r="20" fill="#f1d4c2" opacity="0.40" />
<circle cx="724" cy="113" r="12" fill="#f1d4c2" opacity="0.59" />
<circle cx="755" cy="236" r="11" fill="#f1d4c2" opacity="0.52" />
<circle cx="383" cy="223" r="24" fill="#f1d4c2" opacity="0.36" />
<circle cx="412" cy="388" r="27" fill="#f1d4c2" opacity="0.48" />
<circle cx="566" cy="492" r="18" fill="#f1d4c2" opacity="0.57" />
<circle cx="601" cy="5" r="29" fill="#f1d4c2" opacity="0.38" />
<circle cx="156" cy="594" r="17" fill="#f1d4c2" opacity="0.44" />
<circle cx="804" cy="463" r="21" fill="#f1d4c2" opacity="0.47" />
<circle cx="220" cy="11" r="9" fill="#f1d4c2" opacity="0.46" />
<circle cx="671" cy="303" r="8" fill="#f1d4c2" opacity="0.48" />
<circle cx="896" cy="288" r="10" fill="#f1d4c2" opacity="0.50" />
<circle cx="881" cy="527" r="10" fill="#f1d4c2" opacity="0.50" />
<circle cx="418" cy="467" r="19" fill="#f1d4c2" opacity="0.43" />
<circle cx="356" cy="194" r="24" fill="#f1d4c2" opacity="0.54" />
<circle cx="130" cy="378" r="15" fill="#f1d4c2" opacity="0.37" />
<circle cx="274" cy="79" r="15" fill="#f1d4c2" opacity="0.39" />
<circle cx="343" cy="279" r="23" fill="#f1d4c2" opacity="0.44" />
<circle cx="420" cy="83" r="20" fill="#f1d4c2" opacity="0.45" />
<circle cx="578" cy="544" r="11" fill="#f1d4c2" opacity="0.45" />
<circle cx="254" cy="84" r="24" fill="#f1d4c2" opacity="0.52" />
<circle cx="656" cy="29" r="24" fill="#f1d4c2" opacity="0.41" />
<circle cx="328" cy="538" r="25" fill="#f1d4c2" opacity="0.41" />
<circle cx="765" cy="341" r="21" fill="#f1d4c2" opacity="0.44" />
<circle cx="3" cy="229" r="27" fill="#f1d4c2" opacity="0.37" />
<circle cx="17" cy="90" r="27" fill="#f1d4c2" opacity="0.48" />
<circle cx="655" cy="551" r="17" fill="#f1d4c2" opacity="0.48" />
<circle cx="412" cy="476" r="28" fill="#f1d4c2" opacity="0.58" />
<circle cx="126" cy="319" r="29" fill="#f1d4c2" opacity="0.42" />
<circle cx="42" cy="384" r="19" fill="#f1d4c2" opacity="0.56" />
<circle cx="466" cy="415" r="23" fill="#f1d4c2" opacity="0.54" />
<circle cx="795" cy="268" r="28" fill="#f1d4c2" opacity="0.55" />
<circle cx="495" cy="514" r="22" fill="#f1d4c2" opacity="0.42" />
<circle cx="232" cy="433" r="28" fill="#f1d4c2" opacity="0.59" />
<circle cx="476" cy="220" r="13" fill="#f1d4c2" opacity="0.47" />
<circle cx="328" cy="80" r="10" fill="#f1d4c2" opacity="0.37" />
<circle cx="84" cy="56" r="20" fill="#f1d4c2" opacity="0.41" />
<circle cx="595" cy="541" r="22" fill="#f1d4c2" opacity="0.51" />
<circle cx="674" cy="576" r="12" fill="#f1d4c2" opacity="0.35" />
<circle cx="569" cy="411" r="8" fill="#f1d4c2" opacity="0.49" />
<circle cx="768" cy="91" r="22" fill="#f1d4c2" opacity="0.53" />
<circle cx="336" cy="293" r="17" fill="#f1d4c2" opacity="0.46" />
<circle cx="638" cy="66" r="28" fill="#f1d4c2" opacity="0.50" />
<circle cx="759" cy="78" r="21" fill="#f1d4c2" opacity="0.43" />
<circle cx="256" cy="199" r="12" fill="#f1d4c2" opacity="0.52" />
<circle cx="100" cy="539" r="29" fill="#f1d4c2" opacity="0.58" />
<circle cx="619" cy="414" r="27" fill="#f1d4c2" opacity="0.56" />
<circle cx="447" cy="361" r="13" fill="#f1d4c2" opacity="0.45" />
<circle cx="10" cy="297" r="27" fill="#f1d4c2" opacity="0.48" />
<circle cx="894" cy="95" r="19" fill="#f1d4c2" opacity="0.50" />
<circle cx="770" cy="542" r="11" fill="#f1d4c2" opacity="0.44" />
<circle cx="275" cy="510" r="11" fill="#f1d4c2" opacity="0.38" />
<circle cx="12" cy="312" r="12" fill="#f1d4c2" opacity="0.49" />
<circle cx="873" cy="386" r="10" fill="#f1d4c2" opacity="0.36" />
<circle cx="798" cy="332" r="21" fill="#f1d4c2" opacity="0.47" />
<circle cx="452" cy="125" r="24" fill="#f1d4c2" opacity="0.53" />
<circle cx="310" cy="475" r="21" fill="#f1d4c2" opacity="0.59" />
<circle cx="331" cy="149" r="27" fill="#f1d4c2" opacity="0.36" />
<circle cx="382" cy="358" r="14" fill="#f1d4c2" opacity="0.39" />
<circle cx="662" cy="397" r="16" fill="#f1d4c2" opacity="0.41" />
<circle cx="898" cy="172" r="28" fill="#f1d4c2" opacity="0.36" />
<circle cx="78" cy="348" r="19" fill="#f1d4c2" opacity="0.37" />
<circle cx="495" cy="264" r="27" fill="#f1d4c2" opacity="0.58" />
<circle cx="462" cy="519" r="18" fill="#f1d4c2" opacity="0.49" />
<circle cx="121" cy="374" r="9" fill="#f1d4c2" opacity="0.56" />
<circle cx="672" cy="463" r="10" fill="#f1d4c2" opacity="0.54" />
<circle cx="878" cy="117" r="12" fill="#f1d4c2" opacity="0.35" />
<circle cx="642" cy="565" r="29" fill="#f1d4c2" opacity="0.49" />
<circle cx="675" cy="421" r="12" fill="#f1d4c2" opacity="0.50" />
<circle cx="629" cy="42" r="21" fill="#f1d4c2" opacity="0.48" />
<circle cx="33" cy="340" r="19" fill="#f1d4c2" opacity="0.48" />
<circle cx="49" cy="132" r="24" fill="#f1d4c2" opacity="0.56" />
<circle cx="761" cy="60" r="18" fill="#f1d4c2" opacity="0.42" />
<circle cx="521" cy="100" r="12" fill="#f1d4c2" opacity="0.46" />
<circle cx="780" cy="572" r="15" fill="#f1d4c2" opacity="0.38" />
<circle cx="890" cy="67" r="17" fill="#f1d4c2" opacity="0.40" />
<circle cx="758" cy="64" r="15" fill="#f1d4c2" opacity="0.43" />
<circle cx="160" cy="326" r="21" fill="#f1d4c2" opacity="0.42" />
<circle cx="754" cy="311" r="21" fill="#f1d4c2" opacity="0.37" />
<circle cx="452" cy="456" r="28" fill="#f1d4c2" opacity="0.56" />
<circle cx="233" cy="115" r="8" fill="#f1d4c2" opacity="0.57" />
<circle cx="133" cy="136" r="16" fill="#f1d4c2" opacity="0.41" />
<circle cx="14" cy="486" r="16" fill="#f1d4c2" opacity="0.51" />
<circle cx="605" cy="560" r="23" fill="#f1d4c2" opacity="0.38" />
<circle cx="358" cy="204" r="26" fill="#f1d4c2" opacity="0.58" />
<circle cx="436" cy="177" r="23" fill="#f1d4c2" opacity="0.36" />
<circle cx="208" cy="20" r="18" fill="#f1d4c2" opacity="0.41" />
<circle cx="783" cy="336" r="12" fill="#f1d4c2" opacity="0.52" />
<circle cx="590" cy="34" r="14" fill="#f1d4c2" opacity="0.51" />
<circle cx="506" cy="116" r="29" fill="#f1d4c2" opacity="0.59" />
<circle cx="477" cy="165" r="19" fill="#f1d4c2" opacity="0.45" />
<circle cx="121" cy="564" r="27" fill="#f1d4c2" opacity="0.50" />
<circle cx="291" cy="493" r="17" fill="#f1d4c2" opacity="0.43" />
<circle cx="680" cy="185" r="28" fill="#f1d4c2" opacity="0.49" />
<circle cx="446" cy="432" r="10" fill="#f1d4c2" opacity="0.59" />
<circle cx="69" cy="258" r="27" fill="#f1d4c2" opacity="0.59" />
<circle cx="864" cy="75" r="11" fill="#5f4b8b" opacity="0.67" />
<circle cx="681" cy="72" r="8" fill="#5f4b8b" opacity="0.85" />
<circle cx="615" cy="514" r="3" fill="#5f4b8b" opacity="0.72" />
<circle cx="346" cy="243" r="7" fill="#5f4b8b" opacity="0.62" />
<circle cx="227" cy="241" r="6" fill="#5f4b8b" opacity="0.75" />
<circle cx="76" cy="9" r="7" fill="#5f4b8b" opacity="0.58" />
<circle cx="749" cy="413" r="4" fill="#5f4b8b" opacity="0.81" />
<circle cx="685" cy="532" r="11" fill="#5f4b8b" opacity="0.69" />
<circle cx="815" cy="308" r="5" fill="#5f4b8b" opacity="0.71" />
<circle cx="471" cy="161" r="10" fill="#5f4b8b" opacity="0.55" />
<circle cx="129" cy="412" r="10" fill="#5f4b8b" opacity="0.87" />
<circle cx="805" cy="553" r="7" fill="#5f4b8b" opacity="0.76" />
<circle cx="559" cy="554" r="4" fill="#5f4b8b" opacity="0.85" />
<circle cx="839" cy="8" r="11" fill="#5f4b8b" opacity="0.79" />
<circle cx="618" cy="280" r="8" fill="#5f4b8b" opacity="0.76" />
<circle cx="291" cy="343" r="11" fill="#5f4b8b" opacity="0.83" />
<circle cx="754" cy="100" r="4" fill="#5f4b8b" opacity="0.61" />
<circle cx="276" cy="5" r="8" fill="#5f4b8b" opacity="0.61" />
<circle cx="793" cy="49" r="10" fill="#5f4b8b" opacity="0.74" />
<circle cx="433" cy="117" r="5" fill="#5f4b8b" opacity="0.83" />
<circle cx="588" cy="503" r="5" fill="#5f4b8b" opacity="0.75" />
<circle cx="380" cy="203" r="5" fill="#5f4b8b" opacity="0.65" />
<circle cx="897" cy="20" r="6" fill="#5f4b8b" opacity="0.84" />
<circle cx="146" cy="200" r="6" fill="#5f4b8b" opacity="0.78" />
<circle cx="29" cy="436" r="8" fill="#5f4b8b" opacity="0.63" />
<circle cx="631" cy="201" r="11" fill="#5f4b8b" opacity="0.64" />
<circle cx="657" cy="534" r="11" fill="#5f4b8b" opacity="0.58" />
<circle cx="408" cy="452" r="11" fill="#5f4b8b" opacity="0.59" />
<circle cx="67" cy="556" r="5" fill="#5f4b8b" opacity="0.69" />
<circle cx="478" cy="311" r="10" fill="#5f4b8b" opacity="0.90" />
<circle cx="767" cy="313" r="8" fill="#5f4b8b" opacity="0.73" />
<circle cx="703" cy="580" r="9" fill="#5f4b8b" opacity="0.72" />
<circle cx="591" cy="180" r="9" fill="#5f4b8b" opacity="0.82" />
<circle cx="769" cy="298" r="4" fill="#5f4b8b" opacity="0.65" />
<circle cx="447" cy="489" r="9" fill="#5f4b8b" opacity="0.76" />
<circle cx="851" cy="550" r="4" fill="#5f4b8b" opacity="0.70" />
<circle cx="284" cy="399" r="6" fill="#5f4b8b" opacity="0.63" />
<circle cx="169" cy="206" r="8" fill="#5f4b8b" opacity="0.89" />
<circle cx="887" cy="597" r="10" fill="#5f4b8b" opacity="0.83" />
<circle cx="480" cy="98" r="10" fill="#5f4b8b" opacity="0.75" />
<circle cx="292" cy="568" r="6" fill="#5f4b8b" opacity="0.67" />
<circle cx="204" cy="104" r="3" fill="#5f4b8b" opacity="0.89" />
<circle cx="604" cy="338" r="8" fill="#5f4b8b" opacity="0.72" />
<circle cx="881" cy="426" r="11" fill="#5f4b8b" opacity="0.72" />
<circle cx="773" cy="327" r="5" fill="#5f4b8b" opacity="0.55" />
<circle cx="486" cy="335" r="7" fill="#5f4b8b" opacity="0.68" />
<circle cx="426" cy="563" r="5" fill="#5f4b8b" opacity="0.71" />
<circle cx="762" cy="324" r="3" fill="#5f4b8b" opacity="0.73" />
<circle cx="146" cy="145" r="9" fill="#5f4b8b" opacity="0.89" />
<circle cx="390" cy="162" r="4" fill="#5f4b8b" opacity="0.64" />
<circle cx="104" cy="334" r="7" fill="#5f4b8b" opacity="0.83" />
<circle cx="8" cy="42" r="9" fill="#5f4b8b" opacity="0.77" />
<circle cx="881" cy="111" r="4" fill="#5f4b8b" opacity="0.69" />
<circle cx="493" cy="137" r="7" fill="#5f4b8b" opacity="0.63" />
<circle cx="858" cy="559" r="10" fill="#5f4b8b" opacity="0.69" />
<circle cx="266" cy="143" r="7" fill="#5f4b8b" opacity="0.89" />
<circle cx="770" cy="587" r="4" fill="#5f4b8b" opacity="0.68" />
<circle cx="496" cy="76" r="3" fill="#5f4b8b" opacity="0.67" />
<circle cx="98" cy="558" r="8" fill="#5f4b8b" opacity="0.76" />
<circle cx="611" cy="269" r="11" fill="#5f4b8b" opacity="0.79" />
<circle cx="380" cy="200" r="9" fill="#5f4b8b" opacity="0.88" />
<circle cx="5" cy="194" r="11" fill="#5f4b8b" opacity="0.67" />
<circle cx="436" cy="257" r="6" fill="#5f4b8b" opacity="0.69" />
<circle cx="179" cy="584" r="3" fill="#5f4b8b" opacity="0.58" />
<circle cx="250" cy="296" r="5" fill="#5f4b8b" opacity="0.67" />
<circle cx="796" cy="250" r="8" fill="#5f4b8b" opacity="0.87" />
<circle cx="251" cy="77" r="11" fill="#5f4b8b" opacity="0.58" />
<circle cx="743" cy="65" r="5" fill="#5f4b8b" opacity="0.76" />
<circle cx="625" cy="36" r="4" fill="#5f4b8b" opacity="0.77" />
<circle cx="575" cy="202" r="7" fill="#5f4b8b" opacity="0.68" />
<circle cx="896" cy="285" r="8" fill="#5f4b8b" opacity="0.61" />
<line x1="256" y1="495" x2="209" y2="533" stroke="#c17c74" stroke-width="3.50" opacity="0.2" />
<line x1="44" y1="306" x2="59" y2="307" stroke="#c17c74" stroke-width="2.93" opacity="0.2" />
<line x1="547" y1="27" x2="603" y2="73" stroke="#c17c74" stroke-width="2.55" opacity="0.2" />
<line x1="378" y1="238" x2="393" y2="181" stroke="#c17c74" stroke-width="2.76" opacity="0.2" />
<line x1="859" y1="366" x2="823" y2="317" stroke="#c17c74" stroke-width="1.67" opacity="0.2" />
<line x1="492" y1="269" x2="463" y2="230" stroke="#c17c74" stroke-width="1.72" opacity="0.2" />
<line x1="112" y1="557" x2="100" y2="613" stroke="#c17c74" stroke-width="3.10" opacity="0.2" />
<line x1="131" y1="85" x2="174" y2="75" stroke="#c17c74" stroke-width="3.40" opacity="0.2" />
<line x1="279" y1="101" x2="253" y2="120" stroke="#c17c74" stroke-width="2.03" opacity="0.2" />
<line x1="604" y1="308" x2="574" y2="323" stroke="#c17c74" stroke-width="3.16" opacity="0.2" />
<line x1="573" y1="116" x2="527" y2="104" stroke="#c17c74" stroke-width="2.27" opacity="0.2" />
<line x1="61" y1="397" x2="33" y2="418" stroke="#c17c74" stroke-width="2.42" opacity="0.2" />
<line x1="189" y1="581" x2="202" y2="526" stroke="#c17c74" stroke-width="2.53" opacity="0.2" />
<line x1="450" y1="517" x2="494" y2="571" stroke="#c17c74" stroke-width="1.17" opacity="0.2" />
<line x1="259" y1="387" x2="232" y2="424" stroke="#c17c74" stroke-width="1.18" opacity="0.2" />
<line x1="629" y1="311" x2="667" y2="277" stroke="#c17c74" stroke-width="1.24" opacity="0.2" />
<line x1="194" y1="294" x2="178" y2="317" stroke="#c17c74" stroke-width="1.76" opacity="0.2" />
<line x1="48" y1="70" x2="18" y2="17" stroke="#c17c74" stroke-width="2.37" opacity="0.2" />
<line x1="116" y1="440" x2="130" y2="492" stroke="#c17c74" stroke-width="1.26" opacity="0.2" />
<line x1="226" y1="523" x2="197" y2="485" stroke="#c17c74" stroke-width="2.15" opacity="0.2" />
<line x1="472" y1="495" x2="506" y2="505" stroke="#c17c74" stroke-width="2.30" opacity="0.2" />
<line x1="790" y1="91" x2="769" y2="112" stroke="#c17c74" stroke-width="1.70" opacity="0.2" />
<line x1="794" y1="96" x2="797" y2="80" stroke="#c17c74" stroke-width="2.15" opacity="0.2" />
<line x1="303" y1="331" x2="339" y2="316" stroke="#c17c74" stroke-width="2.47" opacity="0.2" />
<line x1="145" y1="397" x2="147" y2="411" stroke="#c17c74" stroke-width="1.05" opacity="0.2" />
<line x1="380" y1="170" x2="377" y2="136" stroke="#c17c74" stroke-width="1.82" opacity="0.2" />
<line x1="201" y1="328" x2="239" y2="274" stroke="#c17c74" stroke-width="2.66" opacity="0.2" />
<line x1="519" y1="117" x2="524" y2="80" stroke="#c17c74" stroke-width="2.19" opacity="0.2" />
<line x1="746" y1="492" x2="697" y2="505" stroke="#c17c74" stroke-width="1.73" opacity="0.2" />
<line x1="174" y1="558" x2="175" y2="594" stroke="#c17c74" stroke-width="1.07" opacity="0.2" />
</svg>