<?xml version="1.0" encoding="UTF-8"?>
<svg xmlns="http://www.w3.org/2000/svg" width="900" height="600" viewBox="0 0 900 600">
<rect width="100%" height="100%" fill="#f7f0e8" />
<circle cx="596" cy="138" r="16" fill="#f0d2c0" opacity="0.49" />
<circle cx="647" cy="495" r="27" fill="#f0d2c0" opacity="0.50" />
<circle cx="116" cy="160" r="10" fill="#f0d2c0" opacity="0.39" />
<circle cx="4" cy="248" r="12" fill="#f0d2c0" opacity="0.56" />
<circle cx="263" cy="406" r="13" fill="#f0d2c0" opacity="0.43" />
<circle cx="701" cy="343" r="13" fill="#f0d2c0" opacity="0.42" />
<circle cx="784" cy="300" r="15" fill="#f0d2c0" opacity="0.45" />
<circle cx="236" cy="371" r="18" fill="#f0d2c0" opacity="0.58" />
<circle cx="142" cy="335" r="17" fill="#f0d2c0" opacity="0.52" />
<circle cx="597" cy="263" r="20" fill="#f0d2c0" opacity="0.58" />
<circle cx="396" cy="138" r="15" fill="#f0d2c0" opacity="0.57" />
<circle cx="744" cy="26" r="27" fill="#f0d2c0" opacity="0.47" />
<circle cx="19" cy="418" r="25" fill="#f0d2c0" opacity="0.42" />
<circle cx="139" cy="463" r="18" fill="#f0d2c0" opacity="0.57" />
<circle cx="349" cy="148" r="26" fill="#f0d2c0" opacity="0.40" />
<circle cx="665" cy="78" r="13" fill="#f0d2c0" opacity="0.38" />
<circle cx="554" cy="122" r="12" fill="#f0d2c0" opacity="0.51" />
<circle cx="757" cy="476" r="18" fill="#f0d2c0" opacity="0.44" />
<circle cx="514" cy="247" r="11" fill="#f0d2c0" opacity="0.45" />
<circle cx="45" cy="515" r="20" fill="#f0d2c0" opacity="0.37" />
<circle cx="52" cy="251" r="24" fill="#f0d2c0" opacity="0.36" />
<circle cx="135" cy="456" r="10" fill="#f0d2c0" opacity="0.47" />
<circle cx="244" cy="110" r="9" fill="#f0d2c0" opacity="0.40" />
<circle cx="347" cy="4" r="16" fill="#f0d2c0" opacity="0.48" />
<circle cx="601" cy="34" r="24" fill="#f0d2c0" opacity="0.54" />
<circle cx="629" cy="393" r="21" fill="#f0d2c0" opacity="0.59" />
<circle cx="507" cy="217" r="10" fill="#f0d2c0" opacity="0.52" />
<circle cx="684" cy="562" r="24" fill="#f0d2c0" opacity="0.56" />
<circle cx="418" cy="141" r="15" fill="#f0d2c0" opacity="0.57" />
<circle cx="127" cy="302" r="26" fill="#f0d2c0" opacity="0.43" />
<circle cx="415" cy="37" r="27" fill="#f0d2c0" opacity="0.41" />
<circle cx="510" cy="36" r="22" fill="#f0d2c0" opacity="0.40" />
<circle cx="499" cy="396" r="11" fill="#f0d2c0" opacity="0.55" />
<circle cx="503" cy="227" r="28" fill="#f0d2c0" opacity="0.48" />
<circle cx="433" cy="371" r="12" fill="#f0d2c0" opacity="0.45" />
<circle cx="720" cy="100" r="9" fill="#f0d2c0" opacity="0.56" />
<circle cx="798" cy="41" r="13" fill="#f0d2c0" opacity="0.36" />
<circle cx="413" cy="265" r="12" fill="#f0d2c0" opacity="0.55" />
<circle cx="268" cy="304" r="13" fill="#f0d2c0" opacity="0.42" />
<circle cx="77" cy="348" r="25" fill="#f0d2c0" opacity="0.55" />
<circle cx="706" cy="316" r="25" fill="#f0d2c0" opacity="0.52" />
<circle cx="514" cy="463" r="14" fill="#f0d2c0" opacity="0.47" />
<circle cx="392" cy="11" r="17" fill="#f0d2c0" opacity="0.43" />
<circle cx="407" cy="498" r="28" fill="#f0d2c0" opacity="0.48" />
<circle cx="225" cy="356" r="28" fill="#f0d2c0" opacity="0.56" />
<circle cx="406" cy="503" r="26" fill="#f0d2c0" opacity="0.51" />
<circle cx="866" cy="30" r="8" fill="#f0d2c0" opacity="0.48" />
<circle cx="180" cy="332" r="15" fill="#f0d2c0" opacity="0.36" />
<circle cx="108" cy="215" r="23" fill="#f0d2c0" opacity="0.56" />
<circle cx="261" cy="236" r="14" fill="#f0d2c0" opacity="0.36" />
<circle cx="892" cy="202" r="24" fill="#f0d2c0" opacity="0.44" />
<circle cx="501" cy="399" r="29" fill="#f0d2c0" opacity="0.58" />
<circle cx="274" cy="477" r="27" fill="#f0d2c0" opacity="0.42" />
<circle cx="294" cy="305" r="23" fill="#f0d2c0" opacity="0.51" />
<circle cx="794" cy="330" r="27" fill="#f0d2c0" opacity="0.56" />
<circle cx="459" cy="423" r="13" fill="#f0d2c0" opacity="0.44" />
<circle cx="167" cy="224" r="28" fill="#f0d2c0" opacity="0.52" />
<circle cx="674" cy="202" r="18" fill="#f0d2c0" opacity="0.59" />
<circle cx="0" cy="508" r="27" fill="#f0d2c0" opacity="0.53" />
<circle cx="516" cy="142" r="25" fill="#f0d2c0" opacity="0.45" />
<circle cx="897" cy="104" r="21" fill="#f0d2c0" opacity="0.53" />
<circle cx="327" cy="172" r="24" fill="#f0d2c0" opacity="0.52" />
<circle cx="85" cy="57" r="15" fill="#f0d2c0" opacity="0.59" />
<circle cx="882" cy="191" r="15" fill="#f0d2c0" opacity="0.43" />
<circle cx="858" cy="478" r="28" fill="#f0d2c0" opacity="0.56" />
<circle cx="654" cy="460" r="25" fill="#f0d2c0" opacity="0.40" />
<circle cx="60" cy="219" r="24" fill="#f0d2c0" opacity="0.38" />
<circle cx="293" cy="262" r="25" fill="#f0d2c0" opacity="0.52" />
<circle cx="361" cy="237" r="23" fill="#f0d2c0" opacity="0.45" />
<circle cx="239" cy="248" r="25" fill="#f0d2c0" opacity="0.43" />
<circle cx="428" cy="189" r="17" fill="#f0d2c0" opacity="0.47" />
<circle cx="223" cy="178" r="20" fill="#f0d2c0" opacity="0.38" />
<circle cx="464" cy="509" r="27" fill="#f0d2c0" opacity="0.37" />
<circle cx="658" cy="422" r="18" fill="#f0d2c0" opacity="0.36" />
<circle cx="636" cy="174" r="21" fill="#f0d2c0" opacity="0.41" />
<circle cx="596" cy="475" r="20" fill="#f0d2c0" opacity="0.40" />
<circle cx="74" cy="133" r="26" fill="#f0d2c0" opacity="0.47" />
<circle cx="61" cy="226" r="23" fill="#f0d2c0" opacity="0.52" />
<circle cx="308" cy="134" r="15" fill="#f0d2c0" opacity="0.53" />
<circle cx="410" cy="302" r="28" fill="#f0d2c0" opacity="0.50" />
<circle cx="563" cy="522" r="24" fill="#f0d2c0" opacity="0.36" />
<circle cx="732" cy="478" r="14" fill="#f0d2c0" opacity="0.39" />
<circle cx="543" cy="97" r="8" fill="#f0d2c0" opacity="0.46" />
<circle cx="759" cy="382" r="11" fill="#f0d2c0" opacity="0.38" />
<circle cx="715" cy="511" r="28" fill="#f0d2c0" opacity="0.56" />
<circle cx="225" cy="234" r="10" fill="#f0d2c0" opacity="0.40" />
<circle cx="413" cy="136" r="13" fill="#f0d2c0" opacity="0.47" />
<circle cx="544" cy="145" r="28" fill="#f0d2c0" opacity="0.52" />
<circle cx="483" cy="355" r="20" fill="#f0d2c0" opacity="0.42" />
<circle cx="50" cy="233" r="14" fill="#f0d2c0" opacity="0.50" />
<circle cx="368" cy="160" r="21" fill="#f0d2c0" opacity="0.54" />
<circle cx="12" cy="445" r="16" fill="#f0d2c0" opacity="0.50" />
<circle cx="603" cy="390" r="8" fill="#f0d2c0" opacity="0.36" />
<circle cx="787" cy="389" r="22" fill="#f0d2c0" opacity="0.60" />
<circle cx="299" cy="272" r="12" fill="#f0d2c0" opacity="0.42" />
<circle cx="880" cy="494" r="25" fill="#f0d2c0" opacity="0.48" />
<circle cx="479" cy="388" r="23" fill="#f0d2c0" opacity="0.45" />
<circle cx="754" cy="580" r="12" fill="#f0d2c0" opacity="0.56" />
<circle cx="387" cy="371" r="20" fill="#f0d2c0" opacity="0.56" />
<circle cx="872" cy="230" r="21" fill="#f0d2c0" opacity="0.37" />
<circle cx="473" cy="398" r="27" fill="#f0d2c0" opacity="0.45" />
<circle cx="724" cy="290" r="10" fill="#f0d2c0" opacity="0.48" />
<circle cx="766" cy="126" r="26" fill="#f0d2c0" opacity="0.37" />
<circle cx="358" cy="359" r="22" fill="#f0d2c0" opacity="0.46" />
<circle cx="506" cy="490" r="22" fill="#f0d2c0" opacity="0.49" />
<circle cx="864" cy="168" r="15" fill="#f0d2c0" opacity="0.35" />
<circle cx="490" cy="15" r="24" fill="#f0d2c0" opacity="0.46" />
<circle cx="746" cy="335" r="17" fill="#f0d2c0" opacity="0.40" />
<circle cx="502" cy="487" r="13" fill="#f0d2c0" opacity="0.52" />
<circle cx="44" cy="254" r="14" fill="#f0d2c0" opacity="0.56" />
<circle cx="69" cy="526" r="27" fill="#f0d2c0" opacity="0.36" />
<circle cx="412" cy="290" r="9" fill="#f0d2c0" opacity="0.52" />
<circle cx="755" cy="95" r="8" fill="#f0d2c0" opacity="0.40" />
<circle cx="204" cy="239" r="11" fill="#f0d2c0" opacity="0.58" />
<circle cx="816" cy="289" r="10" fill="#f0d2c0" opacity="0.48" />
<circle cx="726" cy="573" r="23" fill="#f0d2c0" opacity="0.45" />
<circle cx="714" cy="564" r="22" fill="#f0d2c0" opacity="0.50" />
<circle cx="223" cy="292" r="27" fill="#f0d2c0" opacity="0.55" />
<circle cx="831" cy="152" r="19" fill="#f0d2c0" opacity="0.35" />
<circle cx="118" cy="87" r="9" fill="#f0d2c0" opacity="0.48" />
<circle cx="473" cy="480" r="21" fill="#f0d2c0" opacity="0.53" />
<circle cx="10" cy="408" r="13" fill="#f0d2c0" opacity="0.53" />
<circle cx="414" cy="525" r="8" fill="#6f4c8b" opacity="0.56" />
<circle cx="462" cy="94" r="11" fill="#6f4c8b" opacity="0.58" />
<circle cx="221" cy="306" r="9" fill="#6f4c8b" opacity="0.85" />
<circle cx="548" cy="384" r="4" fill="#6f4c8b" opacity="0.68" />
<circle cx="897" cy="337" r="6" fill="#6f4c8b" opacity="0.63" />
<circle cx="188" cy="579" r="3" fill="#6f4c8b" opacity="0.80" />
<circle cx="671" cy="423" r="9" fill="#6f4c8b" opacity="0.71" />
<circle cx="232" cy="564" r="6" fill="#6f4c8b" opacity="0.87" />
<circle cx="610" cy="347" r="9" fill="#6f4c8b" opacity="0.70" />
<circle cx="892" cy="358" r="5" fill="#6f4c8b" opacity="0.81" />
<circle cx="313" cy="514" r="4" fill="#6f4c8b" opacity="0.85" />
<circle cx="773" cy="106" r="8" fill="#6f4c8b" opacity="0.80" />
<circle cx="132" cy="50" r="8" fill="#6f4c8b" opacity="0.89" />
<circle cx="697" cy="229" r="5" fill="#6f4c8b" opacity="0.90" />
<circle cx="360" cy="26" r="7" fill="#6f4c8b" opacity="0.68" />
<circle cx="144" cy="163" r="6" fill="#6f4c8b" opacity="0.81" />
<circle cx="399" cy="317" r="9" fill="#6f4c8b" opacity="0.76" />
<circle cx="638" cy="149" r="9" fill="#6f4c8b" opacity="0.76" />
<circle cx="319" cy="223" r="11" fill="#6f4c8b" opacity="0.81" />
<circle cx="255" cy="433" r="11" fill="#6f4c8b" opacity="0.78" />
<circle cx="807" cy="330" r="7" fill="#6f4c8b" opacity="0.88" />
<circle cx="453" cy="479" r="7" fill="#6f4c8b" opacity="0.58" />
<circle cx="439" cy="22" r="8" fill="#6f4c8b" opacity="0.72" />
<circle cx="528" cy="312" r="6" fill="#6f4c8b" opacity="0.82" />
<circle cx="745" cy="403" r="10" fill="#6f4c8b" opacity="0.84" />
<circle cx="689" cy="410" r="5" fill="#6f4c8b" opacity="0.82" />
<circle cx="500" cy="434" r="9" fill="#6f4c8b" opacity="0.69" />
<circle cx="230" cy="231" r="11" fill="#6f4c8b" opacity="0.60" />
<circle cx="205" cy="416" r="5" fill="#6f4c8b" opacity="0.87" />
<circle cx="414" cy="443" r="3" fill="#6f4c8b" opacity="0.58" />
<circle cx="497" cy="137" r="4" fill="#6f4c8b" opacity="0.82" />
<circle cx="443" cy="207" r="11" fill="#6f4c8b" opacity="0.80" />
<circle cx="83" cy="461" r="7" fill="#6f4c8b" opacity="0.81" />
<circle cx="269" cy="319" r="8" fill="#6f4c8b" opacity="0.66" />
<circle cx="225" cy="244" r="7" fill="#6f4c8b" opacity="0.87" />
<circle cx="160" cy="272" r="8" fill="#6f4c8b" opacity="0.84" />
<circle cx="272" cy="379" r="4" fill="#6f4c8b" opacity="0.59" />
<circle cx="449" cy="295" r="8" fill="#6f4c8b" opacity="0.77" />
<circle cx="408" cy="557" r="7" fill="#6f4c8b" opacity="0.77" />
<circle cx="67" cy="442" r="11" fill="#6f4c8b" opacity="0.73" />
<circle cx="131" cy="61" r="6" fill="#6f4c8b" opacity="0.79" />
<circle cx="303" cy="162" r="7" fill="#6f4c8b" opacity="0.89" />
<circle cx="209" cy="252" r="4" fill="#6f4c8b" opacity="0.60" />
<circle cx="644" cy="246" r="3" fill="#6f4c8b" opacity="0.79" />
<circle cx="477" cy="535" r="6" fill="#6f4c8b" opacity="0.60" />
<circle cx="415" cy="468" r="10" fill="#6f4c8b" opacity="0.88" />
<circle cx="577" cy="579" r="11" fill="#6f4c8b" opacity="0.62" />
<circle cx="505" cy="370" r="8" fill="#6f4c8b" opacity="0.71" />
<circle cx="83" cy="404" r="4" fill="#6f4c8b" opacity="0.83" />
<circle cx="317" cy="523" r="10" fill="#6f4c8b" opacity="0.82" />
<circle cx="546" cy="431" r="7" fill="#6f4c8b" opacity="0.68" />
<circle cx="253" cy="361" r="7" fill="#6f4c8b" opacity="0.66" />
<circle cx="69" cy="440" r="10" fill="#6f4c8b" opacity="0.58" />
<circle cx="38" cy="480" r="3" fill="#6f4c8b" opacity="0.78" />
<circle cx="94" cy="260" r="7" fill="#6f4c8b" opacity="0.71" />
<circle cx="312" cy="456" r="10" fill="#6f4c8b" opacity="0.55" />
<circle cx="91" cy="51" r="8" fill="#6f4c8b" opacity="0.88" />
<circle cx="134" cy="442" r="3" fill="#6f4c8b" opacity="0.59" />
<circle cx="560" cy="250" r="5" fill="#6f4c8b" opacity="0.65" />
<circle cx="78" cy="561" r="7" fill="#6f4c8b" opacity="0.69" />
<circle cx="860" cy="366" r="6" fill="#6f4c8b" opacity="0.63" />
<circle cx="638" cy="512" r="10" fill="#6f4c8b" opacity="0.75" />
<circle cx="808" cy="15" r="4" fill="#6f4c8b" opacity="0.67" />
<circle cx="793" cy="477" r="8" fill="#6f4c8b" opacity="0.66" />
<circle cx="379" cy="236" r="7" fill="#6f4c8b" opacity="0.90" />
<circle cx="800" cy="211" r="11" fill="#6f4c8b" opacity="0.82" />
<circle cx="502" cy="49" r="7" fill="#6f4c8b" opacity="0.63" />
<circle cx="218" cy="486" r="9" fill="#6f4c8b" opacity="0.80" />
<circle cx="415" cy="96" r="8" fill="#6f4c8b" opacity="0.89" />
<circle cx="842" cy="56" r="10" fill="#6f4c8b" opacity="0.79" />
<circle cx="46" cy="29" r="3" fill="#6f4c8b" opacity="0.68" />
<circle cx="359" cy="479" r="11" fill="#6f4c8b" opacity="0.66" />
<circle cx="330" cy="512" r="9" fill="#6f4c8b" opacity="0.83" />
<circle cx="513" cy="553" r="3" fill="#6f4c8b" opacity="0.70" />
<circle cx="767" cy="186" r="3" fill="#6f4c8b" opacity="0.58" />
<circle cx="634" cy="415" r="10" fill="#6f4c8b" opacity="0.76" />
<line x1="786" y1="307" x2="842" y2="278" stroke="#c889a0" stroke-width="3.10" opacity="0.2" />
<line x1="520" y1="151" x2="554" y2="95" stroke="#c889a0" stroke-width="2.41" opacity="0.2" />
<line x1="894" y1="309" x2="929" y2="342" stroke="#c889a0" stroke-width="1.92" opacity="0.2" />
<line x1="77" y1="337" x2="69" y2="297" stroke="#c889a0" stroke-width="3.10" opacity="0.2" />
<line x1="584" y1="214" x2="528" y2="199" stroke="#c889a0" stroke-width="1.72" opacity="0.2" />
<line x1="669" y1="134" x2="625" y2="193" stroke="#c889a0" stroke-width="3.39" opacity="0.2" />
<line x1="718" y1="366" x2="683" y2="315" stroke="#c889a0" stroke-width="1.18" opacity="0.2" />
<line x1="793" y1="324" x2="737" y2="302" stroke="#c889a0" stroke-width="2.16" opacity="0.2" />
<line x1="79" y1="273" x2="105" y2="263" stroke="#c889a0" stroke-width="3.49" opacity="0.2" />
<line x1="169" y1="590" x2="222" y2="541" stroke="#c889a0" stroke-width="2.36" opacity="0.2" />
<line x1="897" y1="530" x2="917" y2="564" stroke="#c889a0" stroke-width="2.75" opacity="0.2" />
<line x1="342" y1="256" x2="304" y2="206" stroke="#c889a0" stroke-width="3.23" opacity="0.2" />
<line x1="580" y1="338" x2="624" y2="299" stroke="#c889a0" stroke-width="2.89" opacity="0.2" />
<line x1="498" y1="514" x2="460" y2="497" stroke="#c889a0" stroke-width="2.73" opacity="0.2" />
<line x1="215" y1="488" x2="226" y2="469" stroke="#c889a0" stroke-width="1.85" opacity="0.2" />
<line x1="193" y1="423" x2="188" y2="401" stroke="#c889a0" stroke-width="2.64" opacity="0.2" />
<line x1="777" y1="240" x2="743" y2="200" stroke="#c889a0" stroke-width="3.38" opacity="0.2" />
<line x1="221" y1="320" x2="272" y2="272" stroke="#c889a0" stroke-width="2.07" opacity="0.2" />
<line x1="498" y1="93" x2="464" y2="126" stroke="#c889a0" stroke-width="1.78" opacity="0.2" />
<line x1="140" y1="207" x2="101" y2="193" stroke="#c889a0" stroke-width="1.17" opacity="0.2" />
<line x1="720" y1="185" x2="679" y2="175" stroke="#c889a0" stroke-width="1.99" opacity="0.2" />
<line x1="702" y1="403" x2="740" y2="453" stroke="#c889a0" stroke-width="2.18" opacity="0.2" />
<line x1="463" y1="128" x2="484" y2="112" stroke="#c889a0" stroke-width="3.02" opacity="0.2" />
<line x1="161" y1="120" x2="156" y2="129" stroke="#c889a0" stroke-width="3.48" opacity="0.2" />
<line x1="156" y1="50" x2="142" y2="43" stroke="#c889a0" stroke-width="2.04" opacity="0.2" />
<line x1="746" y1="587" x2="802" y2="548" stroke="#c889a0" stroke-width="1.46" opacity="0.2" />
<line x1="29" y1="538" x2="59" y2="496" stroke="#c889a0" stroke-width="1.36" opacity="0.2" />
<line x1="194" y1="144" x2="193" y2="96" stroke="#c889a0" stroke-width="2.42" opacity="0.2" />
<line x1="419" y1="232" x2="462" y2="280" stroke="#c889a0" stroke-width="1.26" opacity="0.2" />
<line x1="770" y1="124" x2="747" y2="148" stroke="#c889a0" stroke-width="2.42" opacity="0.2" />
</svg>