<?xml version="1.0" encoding="UTF-8"?>
<svg xmlns="http://www.w3.org/2000/svg" width="900" height="600" viewBox="0 0 900 600">
<rect width="100%" height="100%" fill="#f8e6e6" />
<circle cx="248" cy="258" r="29" fill="#f2c9d1" opacity="0.40" />
<circle cx="523" cy="502" r="29" fill="#f2c9d1" opacity="0.48" />
<circle cx="886" cy="22" r="13" fill="#f2c9d1" opacity="0.46" />
<circle cx="677" cy="140" r="11" fill="#f2c9d1" opacity="0.55" />
<circle cx="164" cy="133" r="19" fill="#f2c9d1" opacity="0.45" />
<circle cx="89" cy="351" r="19" fill="#f2c9d1" opacity="0.41" />
<circle cx="529" cy="329" r="26" fill="#f2c9d1" opacity="0.56" />
<circle cx="212" cy="3" r="21" fill="#f2c9d1" opacity="0.51" />
<circle cx="8" cy="276" r="23" fill="#f2c9d1" opacity="0.38" />
<circle cx="561" cy="88" r="26" fill="#f2c9d1" opacity="0.42" />
<circle cx="20" cy="272" r="29" fill="#f2c9d1" opacity="0.58" />
<circle cx="244" cy="37" r="10" fill="#f2c9d1" opacity="0.54" />
<circle cx="185" cy="10" r="29" fill="#f2c9d1" opacity="0.42" />
<circle cx="815" cy="267" r="11" fill="#f2c9d1" opacity="0.42" />
<circle cx="880" cy="434" r="12" fill="#f2c9d1" opacity="0.54" />
<circle cx="193" cy="412" r="26" fill="#f2c9d1" opacity="0.55" />
<circle cx="211" cy="188" r="8" fill="#f2c9d1" opacity="0.52" />
<circle cx="471" cy="435" r="28" fill="#f2c9d1" opacity="0.49" />
<circle cx="245" cy="510" r="15" fill="#f2c9d1" opacity="0.38" />
<circle cx="383" cy="565" r="27" fill="#f2c9d1" opacity="0.46" />
<circle cx="145" cy="142" r="19" fill="#f2c9d1" opacity="0.60" />
<circle cx="521" cy="322" r="29" fill="#f2c9d1" opacity="0.58" />
<circle cx="344" cy="37" r="22" fill="#f2c9d1" opacity="0.47" />
<circle cx="297" cy="323" r="26" fill="#f2c9d1" opacity="0.56" />
<circle cx="650" cy="192" r="19" fill="#f2c9d1" opacity="0.38" />
<circle cx="92" cy="519" r="12" fill="#f2c9d1" opacity="0.58" />
<circle cx="603" cy="522" r="26" fill="#f2c9d1" opacity="0.52" />
<circle cx="421" cy="441" r="9" fill="#f2c9d1" opacity="0.36" />
<circle cx="362" cy="109" r="13" fill="#f2c9d1" opacity="0.50" />
<circle cx="443" cy="281" r="14" fill="#f2c9d1" opacity="0.39" />
<circle cx="70" cy="191" r="12" fill="#f2c9d1" opacity="0.46" />
<circle cx="425" cy="412" r="12" fill="#f2c9d1" opacity="0.48" />
<circle cx="388" cy="267" r="20" fill="#f2c9d1" opacity="0.48" />
<circle cx="130" cy="103" r="11" fill="#f2c9d1" opacity="0.46" />
<circle cx="314" cy="253" r="25" fill="#f2c9d1" opacity="0.37" />
<circle cx="76" cy="464" r="24" fill="#f2c9d1" opacity="0.39" />
<circle cx="68" cy="176" r="13" fill="#f2c9d1" opacity="0.42" />
<circle cx="95" cy="257" r="20" fill="#f2c9d1" opacity="0.42" />
<circle cx="287" cy="87" r="24" fill="#f2c9d1" opacity="0.38" />
<circle cx="424" cy="140" r="15" fill="#f2c9d1" opacity="0.52" />
<circle cx="621" cy="452" r="24" fill="#f2c9d1" opacity="0.37" />
<circle cx="425" cy="126" r="15" fill="#f2c9d1" opacity="0.49" />
<circle cx="245" cy="440" r="14" fill="#f2c9d1" opacity="0.39" />
<circle cx="328" cy="207" r="19" fill="#f2c9d1" opacity="0.40" />
<circle cx="21" cy="159" r="13" fill="#f2c9d1" opacity="0.56" />
<circle cx="300" cy="173" r="18" fill="#f2c9d1" opacity="0.44" />
<circle cx="568" cy="22" r="16" fill="#f2c9d1" opacity="0.54" />
<circle cx="519" cy="596" r="28" fill="#f2c9d1" opacity="0.58" />
<circle cx="616" cy="31" r="28" fill="#f2c9d1" opacity="0.40" />
<circle cx="628" cy="44" r="11" fill="#f2c9d1" opacity="0.60" />
<circle cx="408" cy="401" r="17" fill="#f2c9d1" opacity="0.37" />
<circle cx="764" cy="33" r="21" fill="#f2c9d1" opacity="0.51" />
<circle cx="223" cy="367" r="11" fill="#f2c9d1" opacity="0.46" />
<circle cx="847" cy="327" r="17" fill="#f2c9d1" opacity="0.36" />
<circle cx="676" cy="179" r="14" fill="#f2c9d1" opacity="0.57" />
<circle cx="819" cy="516" r="23" fill="#f2c9d1" opacity="0.35" />
<circle cx="666" cy="445" r="25" fill="#f2c9d1" opacity="0.48" />
<circle cx="299" cy="177" r="15" fill="#f2c9d1" opacity="0.57" />
<circle cx="296" cy="342" r="27" fill="#f2c9d1" opacity="0.47" />
<circle cx="525" cy="223" r="23" fill="#f2c9d1" opacity="0.40" />
<circle cx="127" cy="31" r="18" fill="#f2c9d1" opacity="0.53" />
<circle cx="46" cy="321" r="18" fill="#f2c9d1" opacity="0.42" />
<circle cx="80" cy="591" r="23" fill="#f2c9d1" opacity="0.59" />
<circle cx="696" cy="515" r="22" fill="#f2c9d1" opacity="0.43" />
<circle cx="241" cy="327" r="28" fill="#f2c9d1" opacity="0.39" />
<circle cx="133" cy="323" r="12" fill="#f2c9d1" opacity="0.36" />
<circle cx="697" cy="448" r="18" fill="#f2c9d1" opacity="0.50" />
<circle cx="262" cy="532" r="21" fill="#f2c9d1" opacity="0.46" />
<circle cx="132" cy="340" r="15" fill="#f2c9d1" opacity="0.56" />
<circle cx="169" cy="555" r="29" fill="#f2c9d1" opacity="0.39" />
<circle cx="447" cy="163" r="22" fill="#f2c9d1" opacity="0.50" />
<circle cx="165" cy="31" r="19" fill="#f2c9d1" opacity="0.47" />
<circle cx="649" cy="45" r="14" fill="#f2c9d1" opacity="0.40" />
<circle cx="19" cy="531" r="15" fill="#f2c9d1" opacity="0.39" />
<circle cx="214" cy="306" r="27" fill="#f2c9d1" opacity="0.55" />
<circle cx="840" cy="440" r="23" fill="#f2c9d1" opacity="0.58" />
<circle cx="13" cy="117" r="12" fill="#f2c9d1" opacity="0.36" />
<circle cx="12" cy="25" r="9" fill="#f2c9d1" opacity="0.45" />
<circle cx="520" cy="453" r="19" fill="#f2c9d1" opacity="0.37" />
<circle cx="266" cy="112" r="8" fill="#f2c9d1" opacity="0.42" />
<circle cx="843" cy="481" r="26" fill="#f2c9d1" opacity="0.41" />
<circle cx="771" cy="84" r="26" fill="#f2c9d1" opacity="0.50" />
<circle cx="643" cy="249" r="25" fill="#f2c9d1" opacity="0.55" />
<circle cx="160" cy="327" r="27" fill="#f2c9d1" opacity="0.51" />
<circle cx="219" cy="57" r="11" fill="#f2c9d1" opacity="0.54" />
<circle cx="54" cy="327" r="26" fill="#f2c9d1" opacity="0.40" />
<circle cx="713" cy="446" r="8" fill="#f2c9d1" opacity="0.47" />
<circle cx="308" cy="434" r="13" fill="#f2c9d1" opacity="0.48" />
<circle cx="430" cy="527" r="22" fill="#f2c9d1" opacity="0.45" />
<circle cx="58" cy="177" r="15" fill="#f2c9d1" opacity="0.51" />
<circle cx="468" cy="131" r="22" fill="#f2c9d1" opacity="0.56" />
<circle cx="261" cy="131" r="9" fill="#f2c9d1" opacity="0.52" />
<circle cx="790" cy="389" r="26" fill="#f2c9d1" opacity="0.50" />
<circle cx="425" cy="288" r="25" fill="#f2c9d1" opacity="0.41" />
<circle cx="211" cy="52" r="16" fill="#f2c9d1" opacity="0.55" />
<circle cx="512" cy="206" r="14" fill="#f2c9d1" opacity="0.46" />
<circle cx="129" cy="568" r="24" fill="#f2c9d1" opacity="0.59" />
<circle cx="209" cy="325" r="19" fill="#f2c9d1" opacity="0.39" />
<circle cx="559" cy="369" r="20" fill="#f2c9d1" opacity="0.38" />
<circle cx="211" cy="221" r="26" fill="#f2c9d1" opacity="0.54" />
<circle cx="368" cy="563" r="12" fill="#f2c9d1" opacity="0.58" />
<circle cx="272" cy="534" r="10" fill="#f2c9d1" opacity="0.39" />
<circle cx="753" cy="237" r="17" fill="#f2c9d1" opacity="0.52" />
<circle cx="788" cy="556" r="14" fill="#f2c9d1" opacity="0.57" />
<circle cx="191" cy="33" r="23" fill="#f2c9d1" opacity="0.44" />
<circle cx="871" cy="30" r="28" fill="#f2c9d1" opacity="0.60" />
<circle cx="482" cy="323" r="8" fill="#f2c9d1" opacity="0.52" />
<circle cx="662" cy="341" r="12" fill="#f2c9d1" opacity="0.40" />
<circle cx="308" cy="403" r="12" fill="#f2c9d1" opacity="0.41" />
<circle cx="104" cy="31" r="20" fill="#f2c9d1" opacity="0.40" />
<circle cx="574" cy="212" r="14" fill="#f2c9d1" opacity="0.48" />
<circle cx="309" cy="572" r="15" fill="#f2c9d1" opacity="0.38" />
<circle cx="433" cy="326" r="12" fill="#f2c9d1" opacity="0.43" />
<circle cx="95" cy="462" r="28" fill="#f2c9d1" opacity="0.44" />
<circle cx="207" cy="205" r="28" fill="#f2c9d1" opacity="0.54" />
<circle cx="829" cy="559" r="14" fill="#f2c9d1" opacity="0.56" />
<circle cx="733" cy="349" r="22" fill="#f2c9d1" opacity="0.55" />
<circle cx="868" cy="564" r="20" fill="#f2c9d1" opacity="0.48" />
<circle cx="504" cy="427" r="17" fill="#f2c9d1" opacity="0.53" />
<circle cx="69" cy="87" r="11" fill="#f2c9d1" opacity="0.57" />
<circle cx="175" cy="524" r="29" fill="#f2c9d1" opacity="0.42" />
<circle cx="169" cy="568" r="13" fill="#f2c9d1" opacity="0.35" />
<circle cx="182" cy="455" r="17" fill="#f2c9d1" opacity="0.43" />
<circle cx="509" cy="584" r="21" fill="#f2c9d1" opacity="0.40" />
<circle cx="745" cy="128" r="29" fill="#f2c9d1" opacity="0.54" />
<circle cx="560" cy="32" r="25" fill="#f2c9d1" opacity="0.41" />
<circle cx="411" cy="576" r="19" fill="#f2c9d1" opacity="0.54" />
<circle cx="315" cy="137" r="11" fill="#f2c9d1" opacity="0.59" />
<circle cx="421" cy="157" r="8" fill="#f2c9d1" opacity="0.45" />
<circle cx="196" cy="54" r="24" fill="#f2c9d1" opacity="0.54" />
<circle cx="897" cy="447" r="15" fill="#f2c9d1" opacity="0.43" />
<circle cx="897" cy="534" r="20" fill="#f2c9d1" opacity="0.56" />
<circle cx="147" cy="430" r="9" fill="#f2c9d1" opacity="0.41" />
<circle cx="397" cy="443" r="20" fill="#f2c9d1" opacity="0.59" />
<circle cx="654" cy="291" r="15" fill="#f2c9d1" opacity="0.43" />
<circle cx="48" cy="190" r="26" fill="#f2c9d1" opacity="0.48" />
<circle cx="839" cy="97" r="28" fill="#f2c9d1" opacity="0.56" />
<circle cx="583" cy="43" r="24" fill="#f2c9d1" opacity="0.56" />
<circle cx="812" cy="34" r="21" fill="#f2c9d1" opacity="0.46" />
<circle cx="689" cy="17" r="20" fill="#f2c9d1" opacity="0.48" />
<circle cx="846" cy="19" r="15" fill="#f2c9d1" opacity="0.48" />
<circle cx="65" cy="114" r="23" fill="#f2c9d1" opacity="0.54" />
<circle cx="374" cy="19" r="16" fill="#f2c9d1" opacity="0.49" />
<circle cx="166" cy="242" r="14" fill="#f2c9d1" opacity="0.51" />
<circle cx="385" cy="36" r="5" fill="#6b4fa1" opacity="0.71" />
<circle cx="331" cy="137" r="9" fill="#6b4fa1" opacity="0.77" />
<circle cx="282" cy="201" r="11" fill="#6b4fa1" opacity="0.90" />
<circle cx="22" cy="275" r="4" fill="#6b4fa1" opacity="0.74" />
<circle cx="766" cy="419" r="3" fill="#6b4fa1" opacity="0.74" />
<circle cx="853" cy="300" r="5" fill="#6b4fa1" opacity="0.79" />
<circle cx="245" cy="453" r="10" fill="#6b4fa1" opacity="0.73" />
<circle cx="549" cy="113" r="4" fill="#6b4fa1" opacity="0.86" />
<circle cx="124" cy="531" r="5" fill="#6b4fa1" opacity="0.62" />
<circle cx="559" cy="180" r="7" fill="#6b4fa1" opacity="0.77" />
<circle cx="225" cy="159" r="10" fill="#6b4fa1" opacity="0.82" />
<circle cx="54" cy="274" r="9" fill="#6b4fa1" opacity="0.82" />
<circle cx="262" cy="391" r="9" fill="#6b4fa1" opacity="0.87" />
<circle cx="246" cy="324" r="3" fill="#6b4fa1" opacity="0.79" />
<circle cx="658" cy="481" r="8" fill="#6b4fa1" opacity="0.73" />
<circle cx="366" cy="517" r="11" fill="#6b4fa1" opacity="0.75" />
<circle cx="861" cy="150" r="10" fill="#6b4fa1" opacity="0.58" />
<circle cx="234" cy="57" r="6" fill="#6b4fa1" opacity="0.75" />
<circle cx="335" cy="497" r="5" fill="#6b4fa1" opacity="0.55" />
<circle cx="882" cy="283" r="9" fill="#6b4fa1" opacity="0.86" />
<circle cx="795" cy="93" r="4" fill="#6b4fa1" opacity="0.83" />
<circle cx="197" cy="598" r="8" fill="#6b4fa1" opacity="0.60" />
<circle cx="158" cy="120" r="3" fill="#6b4fa1" opacity="0.59" />
<circle cx="64" cy="463" r="5" fill="#6b4fa1" opacity="0.85" />
<circle cx="743" cy="500" r="6" fill="#6b4fa1" opacity="0.74" />
<circle cx="303" cy="323" r="5" fill="#6b4fa1" opacity="0.87" />
<circle cx="417" cy="510" r="10" fill="#6b4fa1" opacity="0.76" />
<circle cx="139" cy="497" r="3" fill="#6b4fa1" opacity="0.76" />
<circle cx="574" cy="309" r="11" fill="#6b4fa1" opacity="0.85" />
<circle cx="621" cy="287" r="10" fill="#6b4fa1" opacity="0.85" />
<circle cx="453" cy="21" r="6" fill="#6b4fa1" opacity="0.83" />
<circle cx="496" cy="346" r="8" fill="#6b4fa1" opacity="0.89" />
<circle cx="494" cy="447" r="11" fill="#6b4fa1" opacity="0.84" />
<circle cx="35" cy="233" r="6" fill="#6b4fa1" opacity="0.81" />
<circle cx="886" cy="233" r="11" fill="#6b4fa1" opacity="0.70" />
<circle cx="629" cy="194" r="9" fill="#6b4fa1" opacity="0.73" />
<circle cx="309" cy="36" r="11" fill="#6b4fa1" opacity="0.55" />
<circle cx="720" cy="51" r="4" fill="#6b4fa1" opacity="0.86" />
<circle cx="611" cy="171" r="11" fill="#6b4fa1" opacity="0.64" />
<circle cx="896" cy="348" r="10" fill="#6b4fa1" opacity="0.78" />
<circle cx="220" cy="182" r="5" fill="#6b4fa1" opacity="0.74" />
<circle cx="808" cy="166" r="3" fill="#6b4fa1" opacity="0.57" />
<circle cx="380" cy="257" r="9" fill="#6b4fa1" opacity="0.70" />
<circle cx="679" cy="565" r="5" fill="#6b4fa1" opacity="0.65" />
<circle cx="660" cy="486" r="7" fill="#6b4fa1" opacity="0.57" />
<circle cx="305" cy="86" r="11" fill="#6b4fa1" opacity="0.87" />
<circle cx="68" cy="262" r="3" fill="#6b4fa1" opacity="0.70" />
<circle cx="131" cy="547" r="11" fill="#6b4fa1" opacity="0.82" />
<circle cx="504" cy="496" r="10" fill="#6b4fa1" opacity="0.55" />
<circle cx="725" cy="107" r="3" fill="#6b4fa1" opacity="0.57" />
<circle cx="535" cy="580" r="3" fill="#6b4fa1" opacity="0.73" />
<circle cx="112" cy="306" r="5" fill="#6b4fa1" opacity="0.73" />
<circle cx="755" cy="215" r="9" fill="#6b4fa1" opacity="0.71" />
<circle cx="365" cy="142" r="4" fill="#6b4fa1" opacity="0.77" />
<circle cx="841" cy="73" r="6" fill="#6b4fa1" opacity="0.80" />
<circle cx="84" cy="200" r="9" fill="#6b4fa1" opacity="0.75" />
<circle cx="776" cy="477" r="5" fill="#6b4fa1" opacity="0.64" />
<circle cx="676" cy="83" r="9" fill="#6b4fa1" opacity="0.68" />
<circle cx="664" cy="166" r="9" fill="#6b4fa1" opacity="0.86" />
<circle cx="222" cy="126" r="8" fill="#6b4fa1" opacity="0.55" />
<circle cx="890" cy="365" r="5" fill="#6b4fa1" opacity="0.78" />
<circle cx="755" cy="90" r="10" fill="#6b4fa1" opacity="0.67" />
<circle cx="296" cy="16" r="8" fill="#6b4fa1" opacity="0.89" />
<circle cx="798" cy="455" r="4" fill="#6b4fa1" opacity="0.89" />
<circle cx="12" cy="525" r="8" fill="#6b4fa1" opacity="0.74" />
<circle cx="553" cy="139" r="10" fill="#6b4fa1" opacity="0.72" />
<circle cx="364" cy="403" r="6" fill="#6b4fa1" opacity="0.57" />
<circle cx="146" cy="590" r="3" fill="#6b4fa1" opacity="0.80" />
<circle cx="501" cy="261" r="5" fill="#6b4fa1" opacity="0.57" />
<circle cx="14" cy="253" r="3" fill="#6b4fa1" opacity="0.62" />
<circle cx="366" cy="98" r="7" fill="#6b4fa1" opacity="0.63" />
<circle cx="597" cy="108" r="4" fill="#6b4fa1" opacity="0.67" />
<circle cx="297" cy="392" r="10" fill="#6b4fa1" opacity="0.79" />
<circle cx="613" cy="130" r="6" fill="#6b4fa1" opacity="0.88" />
<circle cx="380" cy="189" r="11" fill="#6b4fa1" opacity="0.61" />
<circle cx="146" cy="569" r="5" fill="#6b4fa1" opacity="0.66" />
<circle cx="819" cy="438" r="4" fill="#6b4fa1" opacity="0.83" />
<circle cx="791" cy="282" r="10" fill="#6b4fa1" opacity="0.87" />
<circle cx="487" cy="273" r="7" fill="#6b4fa1" opacity="0.70" />
<circle cx="180" cy="21" r="7" fill="#6b4fa1" opacity="0.89" />
<line x1="857" y1="474" x2="851" y2="520" stroke="#bb7ca4" stroke-width="2.49" opacity="0.2" />
<line x1="766" y1="359" x2="711" y2="391" stroke="#bb7ca4" stroke-width="2.12" opacity="0.2" />
<line x1="891" y1="157" x2="836" y2="190" stroke="#bb7ca4" stroke-width="1.88" opacity="0.2" />
<line x1="386" y1="533" x2="359" y2="555" stroke="#bb7ca4" stroke-width="2.91" opacity="0.2" />
<line x1="683" y1="494" x2="684" y2="489" stroke="#bb7ca4" stroke-width="1.55" opacity="0.2" />
<line x1="827" y1="133" x2="840" y2="180" stroke="#bb7ca4" stroke-width="2.39" opacity="0.2" />
<line x1="620" y1="406" x2="580" y2="374" stroke="#bb7ca4" stroke-width="3.03" opacity="0.2" />
<line x1="339" y1="486" x2="313" y2="445" stroke="#bb7ca4" stroke-width="1.50" opacity="0.2" />
<line x1="32" y1="548" x2="-21" y2="589" stroke="#bb7ca4" stroke-width="3.46" opacity="0.2" />
<line x1="377" y1="299" x2="408" y2="294" stroke="#bb7ca4" stroke-width="1.08" opacity="0.2" />
<line x1="501" y1="271" x2="468" y2="295" stroke="#bb7ca4" stroke-width="3.03" opacity="0.2" />
<line x1="379" y1="266" x2="437" y2="239" stroke="#bb7ca4" stroke-width="3.38" opacity="0.2" />
<line x1="35" y1="388" x2="16" y2="407" stroke="#bb7ca4" stroke-width="2.11" opacity="0.2" />
<line x1="660" y1="494" x2="619" y2="454" stroke="#bb7ca4" stroke-width="3.29" opacity="0.2" />
<line x1="408" y1="423" x2="354" y2="381" stroke="#bb7ca4" stroke-width="3.20" opacity="0.2" />
<line x1="31" y1="361" x2="-2" y2="315" stroke="#bb7ca4" stroke-width="1.71" opacity="0.2" />
<line x1="466" y1="66" x2="469" y2="53" stroke="#bb7ca4" stroke-width="3.17" opacity="0.2" />
<line x1="33" y1="38" x2="8" y2="-4" stroke="#bb7ca4" stroke-width="3.29" opacity="0.2" />
<line x1="382" y1="255" x2="376" y2="217" stroke="#bb7ca4" stroke-width="1.17" opacity="0.2" />
<line x1="815" y1="394" x2="833" y2="383" stroke="#bb7ca4" stroke-width="1.52" opacity="0.2" />
<line x1="78" y1="371" x2="121" y2="331" stroke="#bb7ca4" stroke-width="2.69" opacity="0.2" />
<line x1="43" y1="560" x2="25" y2="610" stroke="#bb7ca4" stroke-width="2.73" opacity="0.2" />
<line x1="448" y1="330" x2="441" y2="328" stroke="#bb7ca4" stroke-width="2.40" opacity="0.2" />
<line x1="855" y1="248" x2="825" y2="212" stroke="#bb7ca4" stroke-width="1.08" opacity="0.2" />
<line x1="842" y1="278" x2="900" y2="291" stroke="#bb7ca4" stroke-width="2.07" opacity="0.2" />
<line x1="189" y1="590" x2="173" y2="640" stroke="#bb7ca4" stroke-width="3.12" opacity="0.2" />
<line x1="699" y1="24" x2="724" y2="-33" stroke="#bb7ca4" stroke-width="1.06" opacity="0.2" />
<line x1="756" y1="255" x2="784" y2="271" stroke="#bb7ca4" stroke-width="2.91" opacity="0.2" />
<line x1="652" y1="273" x2="675" y2="323" stroke="#bb7ca4" stroke-width="1.38" opacity="0.2" />
<line x1="463" y1="475" x2="409" y2="463" stroke="#bb7ca4" stroke-width="2.69" opacity="0.2" />
</svg>