<?xml version="1.0" encoding="UTF-8"?>
<svg xmlns="http://www.w3.org/2000/svg" width="900" height="600" viewBox="0 0 900 600">
<rect width="100%" height="100%" fill="#f1eaf7" />
<circle cx="468" cy="583" r="17" fill="#d8c1f0" opacity="0.59" />
<circle cx="480" cy="95" r="14" fill="#d8c1f0" opacity="0.50" />
<circle cx="541" cy="310" r="16" fill="#d8c1f0" opacity="0.45" />
<circle cx="629" cy="422" r="18" fill="#d8c1f0" opacity="0.55" />
<circle cx="719" cy="93" r="9" fill="#d8c1f0" opacity="0.53" />
<circle cx="459" cy="393" r="22" fill="#d8c1f0" opacity="0.53" />
<circle cx="446" cy="537" r="17" fill="#d8c1f0" opacity="0.39" />
<circle cx="292" cy="146" r="15" fill="#d8c1f0" opacity="0.50" />
<circle cx="245" cy="79" r="9" fill="#d8c1f0" opacity="0.44" />
<circle cx="569" cy="469" r="21" fill="#d8c1f0" opacity="0.43" />
<circle cx="270" cy="420" r="14" fill="#d8c1f0" opacity="0.56" />
<circle cx="576" cy="106" r="26" fill="#d8c1f0" opacity="0.43" />
<circle cx="395" cy="324" r="24" fill="#d8c1f0" opacity="0.35" />
<circle cx="492" cy="167" r="22" fill="#d8c1f0" opacity="0.45" />
<circle cx="62" cy="397" r="14" fill="#d8c1f0" opacity="0.41" />
<circle cx="629" cy="220" r="26" fill="#d8c1f0" opacity="0.42" />
<circle cx="871" cy="134" r="9" fill="#d8c1f0" opacity="0.50" />
<circle cx="20" cy="205" r="22" fill="#d8c1f0" opacity="0.51" />
<circle cx="668" cy="231" r="16" fill="#d8c1f0" opacity="0.37" />
<circle cx="597" cy="103" r="9" fill="#d8c1f0" opacity="0.43" />
<circle cx="131" cy="329" r="22" fill="#d8c1f0" opacity="0.44" />
<circle cx="758" cy="487" r="29" fill="#d8c1f0" opacity="0.36" />
<circle cx="134" cy="453" r="14" fill="#d8c1f0" opacity="0.59" />
<circle cx="665" cy="415" r="17" fill="#d8c1f0" opacity="0.35" />
<circle cx="408" cy="543" r="29" fill="#d8c1f0" opacity="0.51" />
<circle cx="734" cy="412" r="8" fill="#d8c1f0" opacity="0.44" />
<circle cx="781" cy="502" r="14" fill="#d8c1f0" opacity="0.40" />
<circle cx="461" cy="592" r="19" fill="#d8c1f0" opacity="0.39" />
<circle cx="699" cy="203" r="10" fill="#d8c1f0" opacity="0.45" />
<circle cx="699" cy="203" r="12" fill="#d8c1f0" opacity="0.57" />
<circle cx="68" cy="543" r="11" fill="#d8c1f0" opacity="0.53" />
<circle cx="481" cy="268" r="8" fill="#d8c1f0" opacity="0.40" />
<circle cx="489" cy="476" r="16" fill="#d8c1f0" opacity="0.56" />
<circle cx="683" cy="470" r="22" fill="#d8c1f0" opacity="0.43" />
<circle cx="685" cy="346" r="12" fill="#d8c1f0" opacity="0.38" />
<circle cx="475" cy="376" r="25" fill="#d8c1f0" opacity="0.54" />
<circle cx="840" cy="437" r="29" fill="#d8c1f0" opacity="0.55" />
<circle cx="577" cy="280" r="17" fill="#d8c1f0" opacity="0.37" />
<circle cx="0" cy="310" r="22" fill="#d8c1f0" opacity="0.47" />
<circle cx="764" cy="258" r="9" fill="#d8c1f0" opacity="0.41" />
<circle cx="270" cy="330" r="23" fill="#d8c1f0" opacity="0.40" />
<circle cx="41" cy="41" r="16" fill="#d8c1f0" opacity="0.39" />
<circle cx="127" cy="509" r="12" fill="#d8c1f0" opacity="0.35" />
<circle cx="264" cy="588" r="13" fill="#d8c1f0" opacity="0.36" />
<circle cx="217" cy="486" r="27" fill="#d8c1f0" opacity="0.45" />
<circle cx="472" cy="214" r="25" fill="#d8c1f0" opacity="0.39" />
<circle cx="856" cy="76" r="10" fill="#d8c1f0" opacity="0.57" />
<circle cx="95" cy="293" r="14" fill="#d8c1f0" opacity="0.38" />
<circle cx="835" cy="353" r="29" fill="#d8c1f0" opacity="0.49" />
<circle cx="232" cy="149" r="18" fill="#d8c1f0" opacity="0.42" />
<circle cx="420" cy="429" r="20" fill="#d8c1f0" opacity="0.55" />
<circle cx="281" cy="324" r="19" fill="#d8c1f0" opacity="0.41" />
<circle cx="604" cy="441" r="23" fill="#d8c1f0" opacity="0.53" />
<circle cx="65" cy="498" r="22" fill="#d8c1f0" opacity="0.44" />
<circle cx="9" cy="168" r="17" fill="#d8c1f0" opacity="0.44" />
<circle cx="402" cy="477" r="8" fill="#d8c1f0" opacity="0.48" />
<circle cx="65" cy="36" r="20" fill="#d8c1f0" opacity="0.50" />
<circle cx="420" cy="243" r="25" fill="#d8c1f0" opacity="0.54" />
<circle cx="791" cy="348" r="22" fill="#d8c1f0" opacity="0.36" />
<circle cx="240" cy="514" r="26" fill="#d8c1f0" opacity="0.54" />
<circle cx="606" cy="147" r="10" fill="#d8c1f0" opacity="0.48" />
<circle cx="47" cy="229" r="26" fill="#d8c1f0" opacity="0.51" />
<circle cx="80" cy="591" r="28" fill="#d8c1f0" opacity="0.40" />
<circle cx="408" cy="264" r="29" fill="#d8c1f0" opacity="0.51" />
<circle cx="56" cy="425" r="12" fill="#d8c1f0" opacity="0.43" />
<circle cx="48" cy="274" r="17" fill="#d8c1f0" opacity="0.45" />
<circle cx="504" cy="320" r="16" fill="#d8c1f0" opacity="0.41" />
<circle cx="305" cy="563" r="12" fill="#d8c1f0" opacity="0.39" />
<circle cx="409" cy="170" r="19" fill="#d8c1f0" opacity="0.36" />
<circle cx="689" cy="386" r="24" fill="#d8c1f0" opacity="0.39" />
<circle cx="274" cy="173" r="16" fill="#d8c1f0" opacity="0.55" />
<circle cx="42" cy="392" r="28" fill="#d8c1f0" opacity="0.43" />
<circle cx="804" cy="550" r="14" fill="#d8c1f0" opacity="0.59" />
<circle cx="709" cy="470" r="10" fill="#d8c1f0" opacity="0.48" />
<circle cx="488" cy="429" r="11" fill="#d8c1f0" opacity="0.36" />
<circle cx="237" cy="60" r="22" fill="#d8c1f0" opacity="0.44" />
<circle cx="709" cy="525" r="19" fill="#d8c1f0" opacity="0.59" />
<circle cx="226" cy="310" r="19" fill="#d8c1f0" opacity="0.56" />
<circle cx="223" cy="31" r="15" fill="#d8c1f0" opacity="0.58" />
<circle cx="729" cy="196" r="13" fill="#d8c1f0" opacity="0.53" />
<circle cx="177" cy="291" r="23" fill="#d8c1f0" opacity="0.52" />
<circle cx="491" cy="331" r="14" fill="#d8c1f0" opacity="0.39" />
<circle cx="410" cy="27" r="16" fill="#d8c1f0" opacity="0.44" />
<circle cx="631" cy="94" r="21" fill="#d8c1f0" opacity="0.49" />
<circle cx="786" cy="505" r="18" fill="#d8c1f0" opacity="0.37" />
<circle cx="492" cy="490" r="10" fill="#d8c1f0" opacity="0.41" />
<circle cx="299" cy="482" r="23" fill="#d8c1f0" opacity="0.35" />
<circle cx="743" cy="38" r="26" fill="#d8c1f0" opacity="0.57" />
<circle cx="442" cy="437" r="29" fill="#d8c1f0" opacity="0.36" />
<circle cx="471" cy="463" r="19" fill="#d8c1f0" opacity="0.51" />
<circle cx="221" cy="345" r="10" fill="#d8c1f0" opacity="0.58" />
<circle cx="21" cy="149" r="26" fill="#d8c1f0" opacity="0.56" />
<circle cx="165" cy="115" r="8" fill="#d8c1f0" opacity="0.49" />
<circle cx="281" cy="464" r="9" fill="#d8c1f0" opacity="0.55" />
<circle cx="587" cy="201" r="16" fill="#d8c1f0" opacity="0.38" />
<circle cx="260" cy="354" r="10" fill="#d8c1f0" opacity="0.46" />
<circle cx="583" cy="520" r="20" fill="#d8c1f0" opacity="0.37" />
<circle cx="405" cy="477" r="10" fill="#d8c1f0" opacity="0.38" />
<circle cx="33" cy="58" r="19" fill="#d8c1f0" opacity="0.50" />
<circle cx="761" cy="91" r="17" fill="#d8c1f0" opacity="0.38" />
<circle cx="675" cy="138" r="23" fill="#d8c1f0" opacity="0.51" />
<circle cx="438" cy="311" r="17" fill="#d8c1f0" opacity="0.57" />
<circle cx="745" cy="175" r="27" fill="#d8c1f0" opacity="0.57" />
<circle cx="590" cy="522" r="12" fill="#d8c1f0" opacity="0.53" />
<circle cx="440" cy="454" r="22" fill="#d8c1f0" opacity="0.57" />
<circle cx="460" cy="318" r="19" fill="#d8c1f0" opacity="0.56" />
<circle cx="225" cy="422" r="15" fill="#d8c1f0" opacity="0.38" />
<circle cx="48" cy="143" r="10" fill="#d8c1f0" opacity="0.40" />
<circle cx="720" cy="402" r="15" fill="#d8c1f0" opacity="0.40" />
<circle cx="665" cy="337" r="8" fill="#d8c1f0" opacity="0.46" />
<circle cx="863" cy="490" r="13" fill="#d8c1f0" opacity="0.45" />
<circle cx="333" cy="459" r="29" fill="#d8c1f0" opacity="0.47" />
<circle cx="786" cy="251" r="22" fill="#d8c1f0" opacity="0.44" />
<circle cx="674" cy="559" r="28" fill="#d8c1f0" opacity="0.37" />
<circle cx="880" cy="551" r="10" fill="#d8c1f0" opacity="0.56" />
<circle cx="609" cy="102" r="21" fill="#d8c1f0" opacity="0.44" />
<circle cx="495" cy="550" r="20" fill="#d8c1f0" opacity="0.50" />
<circle cx="765" cy="236" r="20" fill="#d8c1f0" opacity="0.44" />
<circle cx="864" cy="168" r="15" fill="#d8c1f0" opacity="0.36" />
<circle cx="632" cy="185" r="8" fill="#d8c1f0" opacity="0.58" />
<circle cx="148" cy="476" r="18" fill="#d8c1f0" opacity="0.48" />
<circle cx="229" cy="418" r="27" fill="#d8c1f0" opacity="0.41" />
<circle cx="632" cy="5" r="24" fill="#d8c1f0" opacity="0.51" />
<circle cx="728" cy="562" r="16" fill="#d8c1f0" opacity="0.60" />
<circle cx="239" cy="336" r="15" fill="#d8c1f0" opacity="0.45" />
<circle cx="358" cy="492" r="11" fill="#d8c1f0" opacity="0.37" />
<circle cx="641" cy="480" r="18" fill="#d8c1f0" opacity="0.37" />
<circle cx="202" cy="168" r="22" fill="#d8c1f0" opacity="0.44" />
<circle cx="498" cy="146" r="17" fill="#d8c1f0" opacity="0.52" />
<circle cx="649" cy="22" r="14" fill="#d8c1f0" opacity="0.41" />
<circle cx="202" cy="407" r="27" fill="#d8c1f0" opacity="0.44" />
<circle cx="476" cy="337" r="11" fill="#d8c1f0" opacity="0.37" />
<circle cx="862" cy="327" r="23" fill="#d8c1f0" opacity="0.42" />
<circle cx="429" cy="290" r="18" fill="#d8c1f0" opacity="0.56" />
<circle cx="181" cy="195" r="26" fill="#d8c1f0" opacity="0.41" />
<circle cx="190" cy="569" r="17" fill="#d8c1f0" opacity="0.40" />
<circle cx="196" cy="351" r="9" fill="#d8c1f0" opacity="0.37" />
<circle cx="730" cy="223" r="15" fill="#d8c1f0" opacity="0.58" />
<circle cx="266" cy="416" r="9" fill="#d8c1f0" opacity="0.59" />
<circle cx="327" cy="472" r="18" fill="#d8c1f0" opacity="0.37" />
<circle cx="420" cy="446" r="13" fill="#d8c1f0" opacity="0.42" />
<circle cx="244" cy="398" r="8" fill="#d8c1f0" opacity="0.58" />
<circle cx="155" cy="192" r="10" fill="#d8c1f0" opacity="0.39" />
<circle cx="93" cy="566" r="9" fill="#d8c1f0" opacity="0.56" />
<circle cx="843" cy="34" r="3" fill="#4f3d8b" opacity="0.83" />
<circle cx="848" cy="24" r="10" fill="#4f3d8b" opacity="0.72" />
<circle cx="466" cy="234" r="9" fill="#4f3d8b" opacity="0.68" />
<circle cx="864" cy="67" r="10" fill="#4f3d8b" opacity="0.56" />
<circle cx="23" cy="518" r="5" fill="#4f3d8b" opacity="0.63" />
<circle cx="131" cy="521" r="5" fill="#4f3d8b" opacity="0.78" />
<circle cx="107" cy="593" r="9" fill="#4f3d8b" opacity="0.55" />
<circle cx="613" cy="581" r="11" fill="#4f3d8b" opacity="0.83" />
<circle cx="394" cy="107" r="10" fill="#4f3d8b" opacity="0.87" />
<circle cx="819" cy="553" r="5" fill="#4f3d8b" opacity="0.69" />
<circle cx="733" cy="477" r="11" fill="#4f3d8b" opacity="0.83" />
<circle cx="554" cy="253" r="4" fill="#4f3d8b" opacity="0.81" />
<circle cx="485" cy="36" r="10" fill="#4f3d8b" opacity="0.76" />
<circle cx="37" cy="2" r="8" fill="#4f3d8b" opacity="0.64" />
<circle cx="670" cy="501" r="9" fill="#4f3d8b" opacity="0.77" />
<circle cx="85" cy="428" r="11" fill="#4f3d8b" opacity="0.88" />
<circle cx="440" cy="191" r="4" fill="#4f3d8b" opacity="0.64" />
<circle cx="647" cy="314" r="4" fill="#4f3d8b" opacity="0.76" />
<circle cx="496" cy="404" r="4" fill="#4f3d8b" opacity="0.78" />
<circle cx="783" cy="225" r="4" fill="#4f3d8b" opacity="0.85" />
<circle cx="289" cy="179" r="9" fill="#4f3d8b" opacity="0.59" />
<circle cx="434" cy="179" r="8" fill="#4f3d8b" opacity="0.88" />
<circle cx="455" cy="513" r="11" fill="#4f3d8b" opacity="0.89" />
<circle cx="135" cy="330" r="10" fill="#4f3d8b" opacity="0.64" />
<circle cx="593" cy="485" r="8" fill="#4f3d8b" opacity="0.82" />
<circle cx="561" cy="277" r="9" fill="#4f3d8b" opacity="0.90" />
<circle cx="481" cy="252" r="5" fill="#4f3d8b" opacity="0.82" />
<circle cx="211" cy="136" r="5" fill="#4f3d8b" opacity="0.57" />
<circle cx="132" cy="212" r="11" fill="#4f3d8b" opacity="0.65" />
<circle cx="375" cy="568" r="4" fill="#4f3d8b" opacity="0.61" />
<circle cx="365" cy="291" r="9" fill="#4f3d8b" opacity="0.60" />
<circle cx="50" cy="3" r="3" fill="#4f3d8b" opacity="0.73" />
<circle cx="358" cy="145" r="4" fill="#4f3d8b" opacity="0.83" />
<circle cx="888" cy="520" r="3" fill="#4f3d8b" opacity="0.80" />
<circle cx="666" cy="169" r="7" fill="#4f3d8b" opacity="0.86" />
<circle cx="92" cy="427" r="9" fill="#4f3d8b" opacity="0.81" />
<circle cx="748" cy="344" r="5" fill="#4f3d8b" opacity="0.66" />
<circle cx="353" cy="359" r="9" fill="#4f3d8b" opacity="0.62" />
<circle cx="130" cy="5" r="6" fill="#4f3d8b" opacity="0.89" />
<circle cx="263" cy="30" r="10" fill="#4f3d8b" opacity="0.69" />
<circle cx="748" cy="423" r="7" fill="#4f3d8b" opacity="0.77" />
<circle cx="194" cy="273" r="8" fill="#4f3d8b" opacity="0.84" />
<circle cx="251" cy="317" r="7" fill="#4f3d8b" opacity="0.82" />
<circle cx="675" cy="4" r="3" fill="#4f3d8b" opacity="0.70" />
<circle cx="409" cy="515" r="11" fill="#4f3d8b" opacity="0.88" />
<circle cx="830" cy="265" r="7" fill="#4f3d8b" opacity="0.83" />
<circle cx="278" cy="202" r="8" fill="#4f3d8b" opacity="0.58" />
<circle cx="763" cy="92" r="8" fill="#4f3d8b" opacity="0.70" />
<circle cx="454" cy="152" r="5" fill="#4f3d8b" opacity="0.83" />
<circle cx="622" cy="122" r="4" fill="#4f3d8b" opacity="0.75" />
<circle cx="204" cy="97" r="10" fill="#4f3d8b" opacity="0.67" />
<circle cx="60" cy="216" r="10" fill="#4f3d8b" opacity="0.59" />
<circle cx="859" cy="560" r="5" fill="#4f3d8b" opacity="0.83" />
<circle cx="87" cy="106" r="6" fill="#4f3d8b" opacity="0.81" />
<circle cx="13" cy="132" r="9" fill="#4f3d8b" opacity="0.74" />
<circle cx="469" cy="181" r="11" fill="#4f3d8b" opacity="0.57" />
<circle cx="0" cy="311" r="6" fill="#4f3d8b" opacity="0.78" />
<circle cx="325" cy="196" r="4" fill="#4f3d8b" opacity="0.70" />
<circle cx="286" cy="418" r="3" fill="#4f3d8b" opacity="0.90" />
<circle cx="818" cy="12" r="10" fill="#4f3d8b" opacity="0.65" />
<circle cx="99" cy="321" r="7" fill="#4f3d8b" opacity="0.83" />
<circle cx="431" cy="36" r="9" fill="#4f3d8b" opacity="0.87" />
<circle cx="209" cy="211" r="3" fill="#4f3d8b" opacity="0.60" />
<circle cx="8" cy="593" r="8" fill="#4f3d8b" opacity="0.58" />
<circle cx="122" cy="233" r="7" fill="#4f3d8b" opacity="0.61" />
<circle cx="209" cy="327" r="9" fill="#4f3d8b" opacity="0.69" />
<circle cx="235" cy="117" r="9" fill="#4f3d8b" opacity="0.84" />
<circle cx="695" cy="4" r="6" fill="#4f3d8b" opacity="0.56" />
<circle cx="583" cy="44" r="6" fill="#4f3d8b" opacity="0.65" />
<circle cx="528" cy="209" r="7" fill="#4f3d8b" opacity="0.80" />
<circle cx="861" cy="398" r="10" fill="#4f3d8b" opacity="0.66" />
<circle cx="326" cy="21" r="3" fill="#4f3d8b" opacity="0.64" />
<circle cx="322" cy="147" r="8" fill="#4f3d8b" opacity="0.80" />
<circle cx="763" cy="12" r="5" fill="#4f3d8b" opacity="0.81" />
<circle cx="75" cy="443" r="7" fill="#4f3d8b" opacity="0.75" />
<line x1="656" y1="348" x2="705" y2="374" stroke="#c39bd3" stroke-width="2.20" opacity="0.2" />
<line x1="523" y1="315" x2="560" y2="276" stroke="#c39bd3" stroke-width="1.17" opacity="0.2" />
<line x1="865" y1="63" x2="894" y2="12" stroke="#c39bd3" stroke-width="2.15" opacity="0.2" />
<line x1="854" y1="337" x2="840" y2="378" stroke="#c39bd3" stroke-width="1.40" opacity="0.2" />
<line x1="517" y1="260" x2="465" y2="265" stroke="#c39bd3" stroke-width="3.26" opacity="0.2" />
<line x1="636" y1="184" x2="621" y2="234" stroke="#c39bd3" stroke-width="1.33" opacity="0.2" />
<line x1="762" y1="395" x2="706" y2="438" stroke="#c39bd3" stroke-width="3.42" opacity="0.2" />
<line x1="821" y1="327" x2="763" y2="314" stroke="#c39bd3" stroke-width="3.33" opacity="0.2" />
<line x1="571" y1="113" x2="566" y2="53" stroke="#c39bd3" stroke-width="3.11" opacity="0.2" />
<line x1="686" y1="280" x2="740" y2="325" stroke="#c39bd3" stroke-width="2.90" opacity="0.2" />
<line x1="115" y1="233" x2="146" y2="283" stroke="#c39bd3" stroke-width="1.74" opacity="0.2" />
<line x1="592" y1="581" x2="538" y2="604" stroke="#c39bd3" stroke-width="3.07" opacity="0.2" />
<line x1="887" y1="503" x2="930" y2="476" stroke="#c39bd3" stroke-width="1.38" opacity="0.2" />
<line x1="897" y1="395" x2="893" y2="369" stroke="#c39bd3" stroke-width="2.68" opacity="0.2" />
<line x1="560" y1="517" x2="603" y2="486" stroke="#c39bd3" stroke-width="1.46" opacity="0.2" />
<line x1="429" y1="23" x2="481" y2="63" stroke="#c39bd3" stroke-width="1.89" opacity="0.2" />
<line x1="261" y1="470" x2="226" y2="476" stroke="#c39bd3" stroke-width="2.94" opacity="0.2" />
<line x1="810" y1="146" x2="810" y2="109" stroke="#c39bd3" stroke-width="3.24" opacity="0.2" />
<line x1="479" y1="306" x2="429" y2="321" stroke="#c39bd3" stroke-width="2.50" opacity="0.2" />
<line x1="283" y1="7" x2="269" y2="-19" stroke="#c39bd3" stroke-width="2.56" opacity="0.2" />
<line x1="709" y1="280" x2="670" y2="323" stroke="#c39bd3" stroke-width="1.51" opacity="0.2" />
<line x1="642" y1="116" x2="684" y2="84" stroke="#c39bd3" stroke-width="2.60" opacity="0.2" />
<line x1="425" y1="184" x2="369" y2="166" stroke="#c39bd3" stroke-width="1.27" opacity="0.2" />
<line x1="515" y1="78" x2="469" y2="89" stroke="#c39bd3" stroke-width="1.70" opacity="0.2" />
<line x1="381" y1="225" x2="431" y2="233" stroke="#c39bd3" stroke-width="2.38" opacity="0.2" />
<line x1="720" y1="28" x2="678" y2="58" stroke="#c39bd3" stroke-width="3.14" opacity="0.2" />
<line x1="806" y1="556" x2="818" y2="593" stroke="#c39bd3" stroke-width="1.42" opacity="0.2" />
<line x1="71" y1="448" x2="27" y2="412" stroke="#c39bd3" stroke-width="1.89" opacity="0.2" />
<line x1="277" y1="6" x2="266" y2="15" stroke="#c39bd3" stroke-width="1.20" opacity="0.2" />
<line x1="320" y1="367" x2="345" y2="347" stroke="#c39bd3" stroke-width="2.97" opacity="0.2" />
</svg>