<?xml version="1.0" encoding="UTF-8"?>
<svg xmlns="http://www.w3.org/2000/svg" width="900" height="600" viewBox="0 0 900 600">
<rect width="100%" height="100%" fill="#f8e6e6" />
<circle cx="567" cy="160" r="27" fill="#f2c9d1" opacity="0.36" />
<circle cx="420" cy="58" r="28" fill="#f2c9d1" opacity="0.53" />
<circle cx="680" cy="344" r="22" fill="#f2c9d1" opacity="0.56" />
<circle cx="379" cy="404" r="10" fill="#f2c9d1" opacity="0.39" />
<circle cx="871" cy="442" r="21" fill="#f2c9d1" opacity="0.54" />
<circle cx="62" cy="348" r="23" fill="#f2c9d1" opacity="0.41" />
<circle cx="48" cy="212" r="28" fill="#f2c9d1" opacity="0.55" />
<circle cx="580" cy="449" r="19" fill="#f2c9d1" opacity="0.36" />
<circle cx="232" cy="431" r="14" fill="#f2c9d1" opacity="0.43" />
<circle cx="332" cy="33" r="15" fill="#f2c9d1" opacity="0.49" />
<circle cx="504" cy="13" r="13" fill="#f2c9d1" opacity="0.56" />
<circle cx="493" cy="263" r="24" fill="#f2c9d1" opacity="0.43" />
<circle cx="159" cy="12" r="17" fill="#f2c9d1" opacity="0.58" />
<circle cx="597" cy="178" r="25" fill="#f2c9d1" opacity="0.50" />
<circle cx="497" cy="592" r="18" fill="#f2c9d1" opacity="0.48" />
<circle cx="132" cy="479" r="8" fill="#f2c9d1" opacity="0.43" />
<circle cx="47" cy="577" r="10" fill="#f2c9d1" opacity="0.40" />
<circle cx="708" cy="464" r="17" fill="#f2c9d1" opacity="0.53" />
<circle cx="620" cy="497" r="22" fill="#f2c9d1" opacity="0.51" />
<circle cx="553" cy="184" r="14" fill="#f2c9d1" opacity="0.51" />
<circle cx="871" cy="168" r="13" fill="#f2c9d1" opacity="0.52" />
<circle cx="803" cy="491" r="22" fill="#f2c9d1" opacity="0.58" />
<circle cx="60" cy="252" r="21" fill="#f2c9d1" opacity="0.45" />
<circle cx="120" cy="338" r="21" fill="#f2c9d1" opacity="0.56" />
<circle cx="291" cy="97" r="29" fill="#f2c9d1" opacity="0.46" />
<circle cx="377" cy="505" r="27" fill="#f2c9d1" opacity="0.40" />
<circle cx="142" cy="233" r="16" fill="#f2c9d1" opacity="0.59" />
<circle cx="452" cy="285" r="9" fill="#f2c9d1" opacity="0.38" />
<circle cx="36" cy="394" r="17" fill="#f2c9d1" opacity="0.37" />
<circle cx="495" cy="296" r="8" fill="#f2c9d1" opacity="0.58" />
<circle cx="418" cy="146" r="8" fill="#f2c9d1" opacity="0.43" />
<circle cx="54" cy="399" r="20" fill="#f2c9d1" opacity="0.36" />
<circle cx="536" cy="287" r="9" fill="#f2c9d1" opacity="0.38" />
<circle cx="110" cy="123" r="29" fill="#f2c9d1" opacity="0.56" />
<circle cx="717" cy="570" r="8" fill="#f2c9d1" opacity="0.44" />
<circle cx="773" cy="43" r="13" fill="#f2c9d1" opacity="0.58" />
<circle cx="503" cy="487" r="23" fill="#f2c9d1" opacity="0.43" />
<circle cx="497" cy="251" r="26" fill="#f2c9d1" opacity="0.55" />
<circle cx="613" cy="21" r="24" fill="#f2c9d1" opacity="0.44" />
<circle cx="609" cy="393" r="29" fill="#f2c9d1" opacity="0.52" />
<circle cx="458" cy="229" r="15" fill="#f2c9d1" opacity="0.55" />
<circle cx="750" cy="45" r="9" fill="#f2c9d1" opacity="0.49" />
<circle cx="797" cy="598" r="26" fill="#f2c9d1" opacity="0.45" />
<circle cx="731" cy="216" r="24" fill="#f2c9d1" opacity="0.48" />
<circle cx="639" cy="53" r="8" fill="#f2c9d1" opacity="0.39" />
<circle cx="778" cy="256" r="21" fill="#f2c9d1" opacity="0.46" />
<circle cx="548" cy="295" r="29" fill="#f2c9d1" opacity="0.45" />
<circle cx="780" cy="450" r="19" fill="#f2c9d1" opacity="0.39" />
<circle cx="426" cy="306" r="26" fill="#f2c9d1" opacity="0.59" />
<circle cx="347" cy="293" r="14" fill="#f2c9d1" opacity="0.41" />
<circle cx="100" cy="446" r="9" fill="#f2c9d1" opacity="0.41" />
<circle cx="393" cy="19" r="21" fill="#f2c9d1" opacity="0.52" />
<circle cx="514" cy="226" r="19" fill="#f2c9d1" opacity="0.35" />
<circle cx="679" cy="496" r="12" fill="#f2c9d1" opacity="0.59" />
<circle cx="798" cy="82" r="9" fill="#f2c9d1" opacity="0.45" />
<circle cx="488" cy="121" r="23" fill="#f2c9d1" opacity="0.53" />
<circle cx="293" cy="570" r="13" fill="#f2c9d1" opacity="0.52" />
<circle cx="40" cy="445" r="19" fill="#f2c9d1" opacity="0.36" />
<circle cx="428" cy="153" r="18" fill="#f2c9d1" opacity="0.53" />
<circle cx="422" cy="114" r="14" fill="#f2c9d1" opacity="0.40" />
<circle cx="872" cy="16" r="16" fill="#f2c9d1" opacity="0.47" />
<circle cx="827" cy="102" r="12" fill="#f2c9d1" opacity="0.46" />
<circle cx="784" cy="168" r="12" fill="#f2c9d1" opacity="0.42" />
<circle cx="477" cy="196" r="8" fill="#f2c9d1" opacity="0.51" />
<circle cx="775" cy="212" r="8" fill="#f2c9d1" opacity="0.54" />
<circle cx="706" cy="114" r="25" fill="#f2c9d1" opacity="0.37" />
<circle cx="492" cy="595" r="13" fill="#f2c9d1" opacity="0.36" />
<circle cx="128" cy="405" r="8" fill="#f2c9d1" opacity="0.50" />
<circle cx="721" cy="351" r="11" fill="#f2c9d1" opacity="0.40" />
<circle cx="92" cy="435" r="25" fill="#f2c9d1" opacity="0.59" />
<circle cx="297" cy="67" r="29" fill="#f2c9d1" opacity="0.36" />
<circle cx="264" cy="385" r="18" fill="#f2c9d1" opacity="0.45" />
<circle cx="454" cy="386" r="17" fill="#f2c9d1" opacity="0.52" />
<circle cx="673" cy="473" r="14" fill="#f2c9d1" opacity="0.37" />
<circle cx="860" cy="344" r="17" fill="#f2c9d1" opacity="0.41" />
<circle cx="192" cy="333" r="16" fill="#f2c9d1" opacity="0.55" />
<circle cx="45" cy="223" r="17" fill="#f2c9d1" opacity="0.37" />
<circle cx="274" cy="104" r="15" fill="#f2c9d1" opacity="0.60" />
<circle cx="780" cy="370" r="18" fill="#f2c9d1" opacity="0.44" />
<circle cx="633" cy="210" r="8" fill="#f2c9d1" opacity="0.56" />
<circle cx="872" cy="458" r="17" fill="#f2c9d1" opacity="0.54" />
<circle cx="730" cy="298" r="18" fill="#f2c9d1" opacity="0.40" />
<circle cx="783" cy="598" r="22" fill="#f2c9d1" opacity="0.59" />
<circle cx="341" cy="179" r="23" fill="#f2c9d1" opacity="0.46" />
<circle cx="504" cy="224" r="20" fill="#f2c9d1" opacity="0.49" />
<circle cx="53" cy="58" r="12" fill="#f2c9d1" opacity="0.48" />
<circle cx="121" cy="594" r="19" fill="#f2c9d1" opacity="0.38" />
<circle cx="373" cy="136" r="17" fill="#f2c9d1" opacity="0.49" />
<circle cx="876" cy="191" r="20" fill="#f2c9d1" opacity="0.51" />
<circle cx="505" cy="344" r="23" fill="#f2c9d1" opacity="0.52" />
<circle cx="583" cy="452" r="22" fill="#f2c9d1" opacity="0.47" />
<circle cx="206" cy="4" r="14" fill="#f2c9d1" opacity="0.41" />
<circle cx="801" cy="169" r="14" fill="#f2c9d1" opacity="0.50" />
<circle cx="519" cy="75" r="22" fill="#f2c9d1" opacity="0.48" />
<circle cx="467" cy="413" r="17" fill="#f2c9d1" opacity="0.46" />
<circle cx="849" cy="405" r="9" fill="#f2c9d1" opacity="0.50" />
<circle cx="656" cy="370" r="23" fill="#f2c9d1" opacity="0.48" />
<circle cx="706" cy="35" r="13" fill="#f2c9d1" opacity="0.48" />
<circle cx="146" cy="301" r="12" fill="#f2c9d1" opacity="0.43" />
<circle cx="358" cy="120" r="9" fill="#f2c9d1" opacity="0.56" />
<circle cx="293" cy="346" r="29" fill="#f2c9d1" opacity="0.56" />
<circle cx="731" cy="46" r="20" fill="#f2c9d1" opacity="0.54" />
<circle cx="72" cy="321" r="8" fill="#f2c9d1" opacity="0.54" />
<circle cx="351" cy="69" r="9" fill="#f2c9d1" opacity="0.58" />
<circle cx="162" cy="541" r="20" fill="#f2c9d1" opacity="0.49" />
<circle cx="232" cy="470" r="19" fill="#f2c9d1" opacity="0.43" />
<circle cx="212" cy="40" r="23" fill="#f2c9d1" opacity="0.46" />
<circle cx="70" cy="72" r="18" fill="#f2c9d1" opacity="0.43" />
<circle cx="492" cy="301" r="29" fill="#f2c9d1" opacity="0.41" />
<circle cx="778" cy="58" r="12" fill="#f2c9d1" opacity="0.42" />
<circle cx="400" cy="73" r="16" fill="#f2c9d1" opacity="0.47" />
<circle cx="9" cy="350" r="14" fill="#f2c9d1" opacity="0.59" />
<circle cx="601" cy="267" r="12" fill="#f2c9d1" opacity="0.46" />
<circle cx="679" cy="193" r="8" fill="#f2c9d1" opacity="0.39" />
<circle cx="333" cy="496" r="25" fill="#f2c9d1" opacity="0.49" />
<circle cx="452" cy="566" r="19" fill="#f2c9d1" opacity="0.42" />
<circle cx="157" cy="462" r="23" fill="#f2c9d1" opacity="0.52" />
<circle cx="868" cy="419" r="16" fill="#f2c9d1" opacity="0.47" />
<circle cx="861" cy="364" r="18" fill="#f2c9d1" opacity="0.42" />
<circle cx="845" cy="86" r="18" fill="#f2c9d1" opacity="0.46" />
<circle cx="856" cy="206" r="28" fill="#f2c9d1" opacity="0.43" />
<circle cx="171" cy="453" r="13" fill="#f2c9d1" opacity="0.38" />
<circle cx="790" cy="0" r="13" fill="#f2c9d1" opacity="0.51" />
<circle cx="771" cy="481" r="27" fill="#f2c9d1" opacity="0.51" />
<circle cx="231" cy="323" r="29" fill="#f2c9d1" opacity="0.57" />
<circle cx="882" cy="158" r="15" fill="#f2c9d1" opacity="0.53" />
<circle cx="377" cy="425" r="12" fill="#f2c9d1" opacity="0.38" />
<circle cx="661" cy="100" r="18" fill="#f2c9d1" opacity="0.45" />
<circle cx="574" cy="444" r="10" fill="#f2c9d1" opacity="0.44" />
<circle cx="426" cy="50" r="23" fill="#f2c9d1" opacity="0.44" />
<circle cx="162" cy="411" r="20" fill="#f2c9d1" opacity="0.41" />
<circle cx="717" cy="192" r="16" fill="#f2c9d1" opacity="0.54" />
<circle cx="328" cy="221" r="8" fill="#f2c9d1" opacity="0.57" />
<circle cx="602" cy="75" r="25" fill="#f2c9d1" opacity="0.38" />
<circle cx="896" cy="274" r="11" fill="#f2c9d1" opacity="0.48" />
<circle cx="178" cy="23" r="13" fill="#f2c9d1" opacity="0.39" />
<circle cx="773" cy="119" r="22" fill="#f2c9d1" opacity="0.41" />
<circle cx="607" cy="60" r="13" fill="#f2c9d1" opacity="0.60" />
<circle cx="626" cy="268" r="20" fill="#f2c9d1" opacity="0.39" />
<circle cx="821" cy="584" r="29" fill="#f2c9d1" opacity="0.48" />
<circle cx="443" cy="317" r="14" fill="#f2c9d1" opacity="0.58" />
<circle cx="527" cy="312" r="20" fill="#f2c9d1" opacity="0.38" />
<circle cx="555" cy="464" r="24" fill="#f2c9d1" opacity="0.48" />
<circle cx="711" cy="423" r="8" fill="#f2c9d1" opacity="0.37" />
<circle cx="268" cy="565" r="22" fill="#f2c9d1" opacity="0.50" />
<circle cx="144" cy="466" r="13" fill="#f2c9d1" opacity="0.41" />
<circle cx="538" cy="555" r="12" fill="#f2c9d1" opacity="0.48" />
<circle cx="414" cy="273" r="3" fill="#6b4fa1" opacity="0.78" />
<circle cx="820" cy="296" r="3" fill="#6b4fa1" opacity="0.62" />
<circle cx="714" cy="119" r="5" fill="#6b4fa1" opacity="0.80" />
<circle cx="88" cy="83" r="4" fill="#6b4fa1" opacity="0.59" />
<circle cx="494" cy="553" r="11" fill="#6b4fa1" opacity="0.68" />
<circle cx="543" cy="85" r="6" fill="#6b4fa1" opacity="0.66" />
<circle cx="442" cy="389" r="10" fill="#6b4fa1" opacity="0.56" />
<circle cx="876" cy="94" r="3" fill="#6b4fa1" opacity="0.67" />
<circle cx="119" cy="291" r="7" fill="#6b4fa1" opacity="0.69" />
<circle cx="528" cy="482" r="10" fill="#6b4fa1" opacity="0.70" />
<circle cx="778" cy="256" r="4" fill="#6b4fa1" opacity="0.74" />
<circle cx="559" cy="504" r="4" fill="#6b4fa1" opacity="0.75" />
<circle cx="668" cy="29" r="5" fill="#6b4fa1" opacity="0.66" />
<circle cx="835" cy="159" r="4" fill="#6b4fa1" opacity="0.71" />
<circle cx="694" cy="47" r="10" fill="#6b4fa1" opacity="0.89" />
<circle cx="608" cy="496" r="10" fill="#6b4fa1" opacity="0.86" />
<circle cx="482" cy="527" r="11" fill="#6b4fa1" opacity="0.61" />
<circle cx="857" cy="550" r="4" fill="#6b4fa1" opacity="0.90" />
<circle cx="181" cy="576" r="5" fill="#6b4fa1" opacity="0.56" />
<circle cx="429" cy="12" r="3" fill="#6b4fa1" opacity="0.83" />
<circle cx="516" cy="482" r="5" fill="#6b4fa1" opacity="0.77" />
<circle cx="571" cy="596" r="9" fill="#6b4fa1" opacity="0.62" />
<circle cx="388" cy="558" r="3" fill="#6b4fa1" opacity="0.74" />
<circle cx="457" cy="92" r="11" fill="#6b4fa1" opacity="0.64" />
<circle cx="231" cy="173" r="8" fill="#6b4fa1" opacity="0.76" />
<circle cx="199" cy="224" r="3" fill="#6b4fa1" opacity="0.90" />
<circle cx="400" cy="120" r="4" fill="#6b4fa1" opacity="0.77" />
<circle cx="556" cy="310" r="5" fill="#6b4fa1" opacity="0.87" />
<circle cx="643" cy="557" r="11" fill="#6b4fa1" opacity="0.66" />
<circle cx="594" cy="574" r="6" fill="#6b4fa1" opacity="0.86" />
<circle cx="319" cy="500" r="5" fill="#6b4fa1" opacity="0.63" />
<circle cx="146" cy="74" r="10" fill="#6b4fa1" opacity="0.59" />
<circle cx="267" cy="156" r="3" fill="#6b4fa1" opacity="0.62" />
<circle cx="111" cy="195" r="10" fill="#6b4fa1" opacity="0.63" />
<circle cx="744" cy="40" r="4" fill="#6b4fa1" opacity="0.79" />
<circle cx="401" cy="303" r="10" fill="#6b4fa1" opacity="0.66" />
<circle cx="115" cy="419" r="9" fill="#6b4fa1" opacity="0.85" />
<circle cx="751" cy="547" r="4" fill="#6b4fa1" opacity="0.74" />
<circle cx="561" cy="154" r="5" fill="#6b4fa1" opacity="0.78" />
<circle cx="557" cy="21" r="3" fill="#6b4fa1" opacity="0.74" />
<circle cx="626" cy="208" r="6" fill="#6b4fa1" opacity="0.63" />
<circle cx="594" cy="538" r="3" fill="#6b4fa1" opacity="0.82" />
<circle cx="841" cy="197" r="7" fill="#6b4fa1" opacity="0.67" />
<circle cx="12" cy="102" r="11" fill="#6b4fa1" opacity="0.87" />
<circle cx="354" cy="30" r="6" fill="#6b4fa1" opacity="0.57" />
<circle cx="834" cy="66" r="8" fill="#6b4fa1" opacity="0.83" />
<circle cx="396" cy="65" r="9" fill="#6b4fa1" opacity="0.75" />
<circle cx="839" cy="11" r="6" fill="#6b4fa1" opacity="0.62" />
<circle cx="488" cy="32" r="7" fill="#6b4fa1" opacity="0.62" />
<circle cx="696" cy="393" r="3" fill="#6b4fa1" opacity="0.80" />
<circle cx="779" cy="579" r="6" fill="#6b4fa1" opacity="0.66" />
<circle cx="785" cy="103" r="7" fill="#6b4fa1" opacity="0.88" />
<circle cx="189" cy="232" r="11" fill="#6b4fa1" opacity="0.71" />
<circle cx="672" cy="507" r="8" fill="#6b4fa1" opacity="0.74" />
<circle cx="4" cy="92" r="6" fill="#6b4fa1" opacity="0.76" />
<circle cx="482" cy="475" r="7" fill="#6b4fa1" opacity="0.68" />
<circle cx="777" cy="388" r="5" fill="#6b4fa1" opacity="0.86" />
<circle cx="141" cy="275" r="6" fill="#6b4fa1" opacity="0.57" />
<circle cx="59" cy="544" r="8" fill="#6b4fa1" opacity="0.75" />
<circle cx="400" cy="267" r="7" fill="#6b4fa1" opacity="0.74" />
<circle cx="744" cy="433" r="4" fill="#6b4fa1" opacity="0.73" />
<circle cx="827" cy="257" r="5" fill="#6b4fa1" opacity="0.88" />
<circle cx="451" cy="253" r="6" fill="#6b4fa1" opacity="0.79" />
<circle cx="264" cy="95" r="4" fill="#6b4fa1" opacity="0.73" />
<circle cx="791" cy="326" r="3" fill="#6b4fa1" opacity="0.81" />
<circle cx="658" cy="294" r="10" fill="#6b4fa1" opacity="0.60" />
<circle cx="749" cy="385" r="4" fill="#6b4fa1" opacity="0.78" />
<circle cx="788" cy="309" r="9" fill="#6b4fa1" opacity="0.85" />
<circle cx="739" cy="114" r="3" fill="#6b4fa1" opacity="0.63" />
<circle cx="480" cy="589" r="6" fill="#6b4fa1" opacity="0.77" />
<circle cx="426" cy="512" r="4" fill="#6b4fa1" opacity="0.84" />
<circle cx="307" cy="242" r="11" fill="#6b4fa1" opacity="0.76" />
<line x1="286" y1="155" x2="304" y2="166" stroke="#bb7ca4" stroke-width="1.89" opacity="0.2" />
<line x1="468" y1="296" x2="421" y2="276" stroke="#bb7ca4" stroke-width="2.88" opacity="0.2" />
<line x1="779" y1="112" x2="799" y2="162" stroke="#bb7ca4" stroke-width="1.55" opacity="0.2" />
<line x1="304" y1="349" x2="338" y2="358" stroke="#bb7ca4" stroke-width="1.87" opacity="0.2" />
<line x1="790" y1="429" x2="781" y2="396" stroke="#bb7ca4" stroke-width="3.34" opacity="0.2" />
<line x1="361" y1="525" x2="340" y2="570" stroke="#bb7ca4" stroke-width="2.41" opacity="0.2" />
<line x1="457" y1="198" x2="405" y2="235" stroke="#bb7ca4" stroke-width="2.66" opacity="0.2" />
<line x1="37" y1="58" x2="-3" y2="95" stroke="#bb7ca4" stroke-width="2.76" opacity="0.2" />
<line x1="263" y1="166" x2="306" y2="119" stroke="#bb7ca4" stroke-width="2.79" opacity="0.2" />
<line x1="630" y1="511" x2="669" y2="492" stroke="#bb7ca4" stroke-width="2.28" opacity="0.2" />
<line x1="890" y1="321" x2="886" y2="290" stroke="#bb7ca4" stroke-width="2.36" opacity="0.2" />
<line x1="848" y1="47" x2="905" y2="44" stroke="#bb7ca4" stroke-width="2.94" opacity="0.2" />
<line x1="85" y1="68" x2="76" y2="86" stroke="#bb7ca4" stroke-width="3.37" opacity="0.2" />
<line x1="831" y1="419" x2="791" y2="412" stroke="#bb7ca4" stroke-width="1.38" opacity="0.2" />
<line x1="491" y1="585" x2="529" y2="553" stroke="#bb7ca4" stroke-width="2.07" opacity="0.2" />
<line x1="495" y1="382" x2="515" y2="434" stroke="#bb7ca4" stroke-width="3.10" opacity="0.2" />
<line x1="234" y1="587" x2="181" y2="637" stroke="#bb7ca4" stroke-width="1.49" opacity="0.2" />
<line x1="269" y1="505" x2="283" y2="555" stroke="#bb7ca4" stroke-width="2.30" opacity="0.2" />
<line x1="804" y1="27" x2="789" y2="-6" stroke="#bb7ca4" stroke-width="2.45" opacity="0.2" />
<line x1="829" y1="376" x2="874" y2="392" stroke="#bb7ca4" stroke-width="3.46" opacity="0.2" />
<line x1="581" y1="1" x2="594" y2="28" stroke="#bb7ca4" stroke-width="2.82" opacity="0.2" />
<line x1="796" y1="125" x2="833" y2="89" stroke="#bb7ca4" stroke-width="2.16" opacity="0.2" />
<line x1="783" y1="508" x2="788" y2="476" stroke="#bb7ca4" stroke-width="2.78" opacity="0.2" />
<line x1="7" y1="386" x2="32" y2="352" stroke="#bb7ca4" stroke-width="2.39" opacity="0.2" />
<line x1="627" y1="69" x2="682" y2="124" stroke="#bb7ca4" stroke-width="2.31" opacity="0.2" />
<line x1="188" y1="503" x2="147" y2="508" stroke="#bb7ca4" stroke-width="1.92" opacity="0.2" />
<line x1="478" y1="351" x2="450" y2="398" stroke="#bb7ca4" stroke-width="1.02" opacity="0.2" />
<line x1="776" y1="492" x2="786" y2="479" stroke="#bb7ca4" stroke-width="2.33" opacity="0.2" />
<line x1="394" y1="389" x2="391" y2="339" stroke="#bb7ca4" stroke-width="1.52" opacity="0.2" />
<line x1="534" y1="419" x2="478" y2="377" stroke="#bb7ca4" stroke-width="1.41" opacity="0.2" />
</svg>