<?xml version="1.0" encoding="UTF-8"?>
<svg xmlns="http://www.w3.org/2000/svg" width="900" height="600" viewBox="0 0 900 600">
<rect width="100%" height="100%" fill="#f1eaf7" />
<circle cx="787" cy="484" r="15" fill="#d8c1f0" opacity="0.55" />
<circle cx="378" cy="251" r="13" fill="#d8c1f0" opacity="0.55" />
<circle cx="335" cy="32" r="26" fill="#d8c1f0" opacity="0.55" />
<circle cx="331" cy="86" r="17" fill="#d8c1f0" opacity="0.38" />
<circle cx="526" cy="402" r="12" fill="#d8c1f0" opacity="0.37" />
<circle cx="432" cy="390" r="26" fill="#d8c1f0" opacity="0.53" />
<circle cx="865" cy="419" r="19" fill="#d8c1f0" opacity="0.37" />
<circle cx="660" cy="592" r="13" fill="#d8c1f0" opacity="0.59" />
<circle cx="470" cy="234" r="22" fill="#d8c1f0" opacity="0.49" />
<circle cx="340" cy="413" r="9" fill="#d8c1f0" opacity="0.50" />
<circle cx="753" cy="161" r="21" fill="#d8c1f0" opacity="0.54" />
<circle cx="825" cy="332" r="18" fill="#d8c1f0" opacity="0.57" />
<circle cx="369" cy="325" r="12" fill="#d8c1f0" opacity="0.52" />
<circle cx="274" cy="78" r="15" fill="#d8c1f0" opacity="0.52" />
<circle cx="579" cy="555" r="21" fill="#d8c1f0" opacity="0.36" />
<circle cx="567" cy="287" r="8" fill="#d8c1f0" opacity="0.56" />
<circle cx="708" cy="523" r="11" fill="#d8c1f0" opacity="0.38" />
<circle cx="257" cy="233" r="11" fill="#d8c1f0" opacity="0.55" />
<circle cx="143" cy="218" r="23" fill="#d8c1f0" opacity="0.49" />
<circle cx="768" cy="321" r="17" fill="#d8c1f0" opacity="0.47" />
<circle cx="856" cy="355" r="15" fill="#d8c1f0" opacity="0.36" />
<circle cx="141" cy="55" r="22" fill="#d8c1f0" opacity="0.36" />
<circle cx="750" cy="68" r="13" fill="#d8c1f0" opacity="0.57" />
<circle cx="488" cy="431" r="12" fill="#d8c1f0" opacity="0.35" />
<circle cx="49" cy="448" r="17" fill="#d8c1f0" opacity="0.59" />
<circle cx="118" cy="398" r="23" fill="#d8c1f0" opacity="0.51" />
<circle cx="320" cy="213" r="26" fill="#d8c1f0" opacity="0.47" />
<circle cx="492" cy="436" r="18" fill="#d8c1f0" opacity="0.41" />
<circle cx="373" cy="489" r="13" fill="#d8c1f0" opacity="0.57" />
<circle cx="751" cy="218" r="28" fill="#d8c1f0" opacity="0.51" />
<circle cx="415" cy="498" r="8" fill="#d8c1f0" opacity="0.50" />
<circle cx="110" cy="255" r="16" fill="#d8c1f0" opacity="0.53" />
<circle cx="637" cy="496" r="28" fill="#d8c1f0" opacity="0.45" />
<circle cx="663" cy="491" r="18" fill="#d8c1f0" opacity="0.53" />
<circle cx="189" cy="63" r="17" fill="#d8c1f0" opacity="0.45" />
<circle cx="272" cy="554" r="13" fill="#d8c1f0" opacity="0.48" />
<circle cx="376" cy="148" r="18" fill="#d8c1f0" opacity="0.56" />
<circle cx="79" cy="275" r="23" fill="#d8c1f0" opacity="0.50" />
<circle cx="326" cy="243" r="21" fill="#d8c1f0" opacity="0.53" />
<circle cx="50" cy="512" r="23" fill="#d8c1f0" opacity="0.40" />
<circle cx="107" cy="107" r="15" fill="#d8c1f0" opacity="0.58" />
<circle cx="367" cy="560" r="10" fill="#d8c1f0" opacity="0.39" />
<circle cx="679" cy="66" r="24" fill="#d8c1f0" opacity="0.41" />
<circle cx="667" cy="597" r="19" fill="#d8c1f0" opacity="0.44" />
<circle cx="834" cy="380" r="23" fill="#d8c1f0" opacity="0.52" />
<circle cx="50" cy="297" r="29" fill="#d8c1f0" opacity="0.40" />
<circle cx="836" cy="350" r="24" fill="#d8c1f0" opacity="0.48" />
<circle cx="356" cy="146" r="28" fill="#d8c1f0" opacity="0.44" />
<circle cx="646" cy="29" r="27" fill="#d8c1f0" opacity="0.43" />
<circle cx="852" cy="398" r="21" fill="#d8c1f0" opacity="0.48" />
<circle cx="111" cy="473" r="12" fill="#d8c1f0" opacity="0.59" />
<circle cx="809" cy="310" r="18" fill="#d8c1f0" opacity="0.42" />
<circle cx="895" cy="300" r="9" fill="#d8c1f0" opacity="0.42" />
<circle cx="796" cy="67" r="16" fill="#d8c1f0" opacity="0.42" />
<circle cx="130" cy="70" r="11" fill="#d8c1f0" opacity="0.57" />
<circle cx="71" cy="82" r="29" fill="#d8c1f0" opacity="0.40" />
<circle cx="592" cy="161" r="9" fill="#d8c1f0" opacity="0.55" />
<circle cx="161" cy="511" r="29" fill="#d8c1f0" opacity="0.58" />
<circle cx="23" cy="160" r="13" fill="#d8c1f0" opacity="0.42" />
<circle cx="138" cy="406" r="17" fill="#d8c1f0" opacity="0.54" />
<circle cx="452" cy="132" r="8" fill="#d8c1f0" opacity="0.41" />
<circle cx="828" cy="10" r="20" fill="#d8c1f0" opacity="0.55" />
<circle cx="784" cy="167" r="17" fill="#d8c1f0" opacity="0.49" />
<circle cx="190" cy="545" r="15" fill="#d8c1f0" opacity="0.59" />
<circle cx="590" cy="311" r="15" fill="#d8c1f0" opacity="0.58" />
<circle cx="621" cy="65" r="8" fill="#d8c1f0" opacity="0.47" />
<circle cx="299" cy="467" r="11" fill="#d8c1f0" opacity="0.52" />
<circle cx="171" cy="436" r="22" fill="#d8c1f0" opacity="0.43" />
<circle cx="98" cy="181" r="16" fill="#d8c1f0" opacity="0.45" />
<circle cx="612" cy="266" r="21" fill="#d8c1f0" opacity="0.59" />
<circle cx="125" cy="77" r="23" fill="#d8c1f0" opacity="0.40" />
<circle cx="141" cy="146" r="26" fill="#d8c1f0" opacity="0.40" />
<circle cx="608" cy="292" r="17" fill="#d8c1f0" opacity="0.45" />
<circle cx="463" cy="412" r="9" fill="#d8c1f0" opacity="0.46" />
<circle cx="234" cy="467" r="24" fill="#d8c1f0" opacity="0.48" />
<circle cx="490" cy="553" r="15" fill="#d8c1f0" opacity="0.40" />
<circle cx="741" cy="32" r="23" fill="#d8c1f0" opacity="0.59" />
<circle cx="488" cy="388" r="24" fill="#d8c1f0" opacity="0.45" />
<circle cx="483" cy="548" r="15" fill="#d8c1f0" opacity="0.40" />
<circle cx="196" cy="294" r="12" fill="#d8c1f0" opacity="0.43" />
<circle cx="207" cy="269" r="14" fill="#d8c1f0" opacity="0.41" />
<circle cx="450" cy="545" r="28" fill="#d8c1f0" opacity="0.55" />
<circle cx="550" cy="376" r="13" fill="#d8c1f0" opacity="0.48" />
<circle cx="813" cy="546" r="17" fill="#d8c1f0" opacity="0.44" />
<circle cx="171" cy="72" r="27" fill="#d8c1f0" opacity="0.57" />
<circle cx="490" cy="220" r="18" fill="#d8c1f0" opacity="0.50" />
<circle cx="606" cy="30" r="12" fill="#d8c1f0" opacity="0.51" />
<circle cx="807" cy="339" r="9" fill="#d8c1f0" opacity="0.59" />
<circle cx="888" cy="101" r="28" fill="#d8c1f0" opacity="0.43" />
<circle cx="18" cy="30" r="27" fill="#d8c1f0" opacity="0.52" />
<circle cx="336" cy="66" r="10" fill="#d8c1f0" opacity="0.49" />
<circle cx="866" cy="22" r="8" fill="#d8c1f0" opacity="0.45" />
<circle cx="176" cy="495" r="18" fill="#d8c1f0" opacity="0.49" />
<circle cx="375" cy="251" r="29" fill="#d8c1f0" opacity="0.37" />
<circle cx="843" cy="562" r="17" fill="#d8c1f0" opacity="0.54" />
<circle cx="597" cy="553" r="27" fill="#d8c1f0" opacity="0.50" />
<circle cx="210" cy="322" r="19" fill="#d8c1f0" opacity="0.51" />
<circle cx="1" cy="187" r="25" fill="#d8c1f0" opacity="0.48" />
<circle cx="520" cy="590" r="11" fill="#d8c1f0" opacity="0.55" />
<circle cx="7" cy="591" r="22" fill="#d8c1f0" opacity="0.40" />
<circle cx="600" cy="520" r="17" fill="#d8c1f0" opacity="0.49" />
<circle cx="897" cy="423" r="27" fill="#d8c1f0" opacity="0.46" />
<circle cx="64" cy="259" r="19" fill="#d8c1f0" opacity="0.59" />
<circle cx="153" cy="36" r="8" fill="#d8c1f0" opacity="0.54" />
<circle cx="410" cy="363" r="18" fill="#d8c1f0" opacity="0.37" />
<circle cx="720" cy="158" r="10" fill="#d8c1f0" opacity="0.39" />
<circle cx="855" cy="139" r="29" fill="#d8c1f0" opacity="0.56" />
<circle cx="357" cy="474" r="16" fill="#d8c1f0" opacity="0.43" />
<circle cx="4" cy="300" r="10" fill="#d8c1f0" opacity="0.40" />
<circle cx="439" cy="365" r="21" fill="#d8c1f0" opacity="0.48" />
<circle cx="688" cy="351" r="15" fill="#d8c1f0" opacity="0.44" />
<circle cx="33" cy="237" r="28" fill="#d8c1f0" opacity="0.44" />
<circle cx="54" cy="191" r="22" fill="#d8c1f0" opacity="0.48" />
<circle cx="358" cy="290" r="9" fill="#d8c1f0" opacity="0.57" />
<circle cx="107" cy="241" r="29" fill="#d8c1f0" opacity="0.51" />
<circle cx="232" cy="109" r="25" fill="#d8c1f0" opacity="0.55" />
<circle cx="820" cy="63" r="20" fill="#d8c1f0" opacity="0.46" />
<circle cx="766" cy="91" r="16" fill="#d8c1f0" opacity="0.42" />
<circle cx="322" cy="105" r="16" fill="#d8c1f0" opacity="0.50" />
<circle cx="507" cy="184" r="16" fill="#d8c1f0" opacity="0.47" />
<circle cx="829" cy="157" r="18" fill="#d8c1f0" opacity="0.49" />
<circle cx="230" cy="302" r="27" fill="#d8c1f0" opacity="0.44" />
<circle cx="340" cy="150" r="20" fill="#d8c1f0" opacity="0.59" />
<circle cx="90" cy="459" r="22" fill="#d8c1f0" opacity="0.46" />
<circle cx="624" cy="531" r="15" fill="#d8c1f0" opacity="0.47" />
<circle cx="680" cy="18" r="23" fill="#d8c1f0" opacity="0.48" />
<circle cx="607" cy="330" r="11" fill="#d8c1f0" opacity="0.47" />
<circle cx="549" cy="131" r="8" fill="#d8c1f0" opacity="0.54" />
<circle cx="651" cy="433" r="19" fill="#d8c1f0" opacity="0.51" />
<circle cx="879" cy="17" r="14" fill="#d8c1f0" opacity="0.56" />
<circle cx="368" cy="372" r="10" fill="#d8c1f0" opacity="0.41" />
<circle cx="296" cy="594" r="29" fill="#d8c1f0" opacity="0.36" />
<circle cx="144" cy="118" r="22" fill="#d8c1f0" opacity="0.59" />
<circle cx="633" cy="522" r="24" fill="#d8c1f0" opacity="0.35" />
<circle cx="422" cy="178" r="21" fill="#d8c1f0" opacity="0.46" />
<circle cx="320" cy="402" r="25" fill="#d8c1f0" opacity="0.56" />
<circle cx="130" cy="373" r="25" fill="#d8c1f0" opacity="0.47" />
<circle cx="754" cy="240" r="27" fill="#d8c1f0" opacity="0.36" />
<circle cx="81" cy="51" r="8" fill="#d8c1f0" opacity="0.52" />
<circle cx="460" cy="439" r="27" fill="#d8c1f0" opacity="0.37" />
<circle cx="18" cy="143" r="12" fill="#d8c1f0" opacity="0.53" />
<circle cx="706" cy="595" r="27" fill="#d8c1f0" opacity="0.41" />
<circle cx="336" cy="37" r="18" fill="#d8c1f0" opacity="0.38" />
<circle cx="638" cy="147" r="25" fill="#d8c1f0" opacity="0.42" />
<circle cx="726" cy="563" r="16" fill="#d8c1f0" opacity="0.59" />
<circle cx="662" cy="354" r="14" fill="#d8c1f0" opacity="0.38" />
<circle cx="722" cy="588" r="9" fill="#d8c1f0" opacity="0.58" />
<circle cx="357" cy="65" r="10" fill="#4f3d8b" opacity="0.61" />
<circle cx="77" cy="396" r="5" fill="#4f3d8b" opacity="0.85" />
<circle cx="892" cy="340" r="4" fill="#4f3d8b" opacity="0.79" />
<circle cx="850" cy="223" r="4" fill="#4f3d8b" opacity="0.76" />
<circle cx="558" cy="421" r="10" fill="#4f3d8b" opacity="0.65" />
<circle cx="813" cy="261" r="10" fill="#4f3d8b" opacity="0.57" />
<circle cx="702" cy="162" r="9" fill="#4f3d8b" opacity="0.83" />
<circle cx="484" cy="412" r="5" fill="#4f3d8b" opacity="0.68" />
<circle cx="619" cy="270" r="11" fill="#4f3d8b" opacity="0.68" />
<circle cx="750" cy="127" r="3" fill="#4f3d8b" opacity="0.59" />
<circle cx="569" cy="535" r="9" fill="#4f3d8b" opacity="0.60" />
<circle cx="570" cy="524" r="6" fill="#4f3d8b" opacity="0.80" />
<circle cx="388" cy="540" r="5" fill="#4f3d8b" opacity="0.78" />
<circle cx="413" cy="200" r="7" fill="#4f3d8b" opacity="0.77" />
<circle cx="207" cy="303" r="9" fill="#4f3d8b" opacity="0.56" />
<circle cx="769" cy="403" r="9" fill="#4f3d8b" opacity="0.74" />
<circle cx="383" cy="469" r="7" fill="#4f3d8b" opacity="0.60" />
<circle cx="351" cy="36" r="8" fill="#4f3d8b" opacity="0.66" />
<circle cx="417" cy="157" r="5" fill="#4f3d8b" opacity="0.84" />
<circle cx="725" cy="405" r="3" fill="#4f3d8b" opacity="0.78" />
<circle cx="587" cy="349" r="11" fill="#4f3d8b" opacity="0.57" />
<circle cx="421" cy="580" r="3" fill="#4f3d8b" opacity="0.70" />
<circle cx="645" cy="512" r="6" fill="#4f3d8b" opacity="0.77" />
<circle cx="520" cy="434" r="7" fill="#4f3d8b" opacity="0.70" />
<circle cx="304" cy="412" r="11" fill="#4f3d8b" opacity="0.57" />
<circle cx="657" cy="127" r="3" fill="#4f3d8b" opacity="0.70" />
<circle cx="154" cy="401" r="6" fill="#4f3d8b" opacity="0.89" />
<circle cx="468" cy="581" r="9" fill="#4f3d8b" opacity="0.63" />
<circle cx="197" cy="214" r="6" fill="#4f3d8b" opacity="0.85" />
<circle cx="458" cy="273" r="8" fill="#4f3d8b" opacity="0.85" />
<circle cx="272" cy="187" r="3" fill="#4f3d8b" opacity="0.62" />
<circle cx="825" cy="9" r="7" fill="#4f3d8b" opacity="0.75" />
<circle cx="630" cy="389" r="4" fill="#4f3d8b" opacity="0.70" />
<circle cx="549" cy="503" r="4" fill="#4f3d8b" opacity="0.73" />
<circle cx="378" cy="348" r="9" fill="#4f3d8b" opacity="0.90" />
<circle cx="820" cy="137" r="5" fill="#4f3d8b" opacity="0.57" />
<circle cx="382" cy="101" r="10" fill="#4f3d8b" opacity="0.77" />
<circle cx="379" cy="188" r="6" fill="#4f3d8b" opacity="0.77" />
<circle cx="848" cy="261" r="9" fill="#4f3d8b" opacity="0.70" />
<circle cx="427" cy="81" r="10" fill="#4f3d8b" opacity="0.87" />
<circle cx="622" cy="247" r="4" fill="#4f3d8b" opacity="0.68" />
<circle cx="343" cy="566" r="7" fill="#4f3d8b" opacity="0.78" />
<circle cx="466" cy="375" r="3" fill="#4f3d8b" opacity="0.63" />
<circle cx="222" cy="42" r="7" fill="#4f3d8b" opacity="0.75" />
<circle cx="87" cy="175" r="11" fill="#4f3d8b" opacity="0.80" />
<circle cx="784" cy="322" r="3" fill="#4f3d8b" opacity="0.76" />
<circle cx="293" cy="81" r="11" fill="#4f3d8b" opacity="0.58" />
<circle cx="509" cy="128" r="5" fill="#4f3d8b" opacity="0.57" />
<circle cx="436" cy="543" r="3" fill="#4f3d8b" opacity="0.84" />
<circle cx="800" cy="138" r="8" fill="#4f3d8b" opacity="0.57" />
<circle cx="502" cy="543" r="7" fill="#4f3d8b" opacity="0.69" />
<circle cx="858" cy="162" r="9" fill="#4f3d8b" opacity="0.82" />
<circle cx="574" cy="214" r="4" fill="#4f3d8b" opacity="0.88" />
<circle cx="796" cy="341" r="9" fill="#4f3d8b" opacity="0.89" />
<circle cx="554" cy="205" r="10" fill="#4f3d8b" opacity="0.78" />
<circle cx="104" cy="127" r="9" fill="#4f3d8b" opacity="0.72" />
<circle cx="473" cy="274" r="7" fill="#4f3d8b" opacity="0.61" />
<circle cx="250" cy="231" r="9" fill="#4f3d8b" opacity="0.61" />
<circle cx="636" cy="490" r="6" fill="#4f3d8b" opacity="0.61" />
<circle cx="313" cy="462" r="10" fill="#4f3d8b" opacity="0.81" />
<circle cx="854" cy="571" r="7" fill="#4f3d8b" opacity="0.77" />
<circle cx="36" cy="565" r="4" fill="#4f3d8b" opacity="0.75" />
<circle cx="106" cy="440" r="5" fill="#4f3d8b" opacity="0.77" />
<circle cx="135" cy="408" r="7" fill="#4f3d8b" opacity="0.65" />
<circle cx="439" cy="341" r="6" fill="#4f3d8b" opacity="0.57" />
<circle cx="740" cy="76" r="3" fill="#4f3d8b" opacity="0.68" />
<circle cx="363" cy="341" r="9" fill="#4f3d8b" opacity="0.61" />
<circle cx="382" cy="9" r="3" fill="#4f3d8b" opacity="0.87" />
<circle cx="469" cy="27" r="11" fill="#4f3d8b" opacity="0.60" />
<circle cx="504" cy="344" r="4" fill="#4f3d8b" opacity="0.78" />
<circle cx="576" cy="393" r="3" fill="#4f3d8b" opacity="0.77" />
<circle cx="2" cy="496" r="7" fill="#4f3d8b" opacity="0.56" />
<circle cx="796" cy="534" r="5" fill="#4f3d8b" opacity="0.90" />
<circle cx="835" cy="222" r="10" fill="#4f3d8b" opacity="0.59" />
<circle cx="578" cy="210" r="3" fill="#4f3d8b" opacity="0.68" />
<circle cx="786" cy="329" r="4" fill="#4f3d8b" opacity="0.85" />
<circle cx="849" cy="82" r="11" fill="#4f3d8b" opacity="0.74" />
<circle cx="450" cy="214" r="3" fill="#4f3d8b" opacity="0.86" />
<circle cx="219" cy="154" r="8" fill="#4f3d8b" opacity="0.78" />
<circle cx="24" cy="149" r="6" fill="#4f3d8b" opacity="0.80" />
<circle cx="61" cy="532" r="5" fill="#4f3d8b" opacity="0.73" />
<circle cx="677" cy="544" r="7" fill="#4f3d8b" opacity="0.86" />
<circle cx="151" cy="385" r="10" fill="#4f3d8b" opacity="0.78" />
<circle cx="305" cy="327" r="3" fill="#4f3d8b" opacity="0.61" />
<circle cx="304" cy="430" r="6" fill="#4f3d8b" opacity="0.64" />
<circle cx="50" cy="555" r="3" fill="#4f3d8b" opacity="0.63" />
<circle cx="212" cy="447" r="3" fill="#4f3d8b" opacity="0.69" />
<circle cx="40" cy="24" r="5" fill="#4f3d8b" opacity="0.58" />
<circle cx="106" cy="300" r="10" fill="#4f3d8b" opacity="0.86" />
<circle cx="238" cy="476" r="8" fill="#4f3d8b" opacity="0.69" />
<circle cx="406" cy="464" r="10" fill="#4f3d8b" opacity="0.76" />
<circle cx="209" cy="370" r="7" fill="#4f3d8b" opacity="0.63" />
<circle cx="460" cy="69" r="11" fill="#4f3d8b" opacity="0.83" />
<circle cx="476" cy="279" r="5" fill="#4f3d8b" opacity="0.89" />
<circle cx="847" cy="301" r="11" fill="#4f3d8b" opacity="0.85" />
<circle cx="369" cy="424" r="5" fill="#4f3d8b" opacity="0.62" />
<circle cx="33" cy="25" r="10" fill="#4f3d8b" opacity="0.66" />
<circle cx="824" cy="215" r="5" fill="#4f3d8b" opacity="0.62" />
<circle cx="58" cy="336" r="6" fill="#4f3d8b" opacity="0.68" />
<circle cx="254" cy="112" r="11" fill="#4f3d8b" opacity="0.81" />
<circle cx="113" cy="240" r="9" fill="#4f3d8b" opacity="0.79" />
<circle cx="105" cy="106" r="6" fill="#4f3d8b" opacity="0.77" />
<circle cx="30" cy="523" r="3" fill="#4f3d8b" opacity="0.68" />
<circle cx="358" cy="577" r="11" fill="#4f3d8b" opacity="0.89" />
<circle cx="343" cy="318" r="11" fill="#4f3d8b" opacity="0.89" />
<circle cx="390" cy="135" r="8" fill="#4f3d8b" opacity="0.90" />
<circle cx="138" cy="281" r="6" fill="#4f3d8b" opacity="0.85" />
<line x1="729" y1="116" x2="777" y2="63" stroke="#c39bd3" stroke-width="3.15" opacity="0.2" />
<line x1="665" y1="197" x2="650" y2="206" stroke="#c39bd3" stroke-width="1.26" opacity="0.2" />
<line x1="500" y1="553" x2="533" y2="503" stroke="#c39bd3" stroke-width="2.31" opacity="0.2" />
<line x1="25" y1="306" x2="34" y2="347" stroke="#c39bd3" stroke-width="1.22" opacity="0.2" />
<line x1="339" y1="534" x2="339" y2="529" stroke="#c39bd3" stroke-width="2.07" opacity="0.2" />
<line x1="834" y1="18" x2="883" y2="74" stroke="#c39bd3" stroke-width="3.19" opacity="0.2" />
<line x1="80" y1="578" x2="23" y2="624" stroke="#c39bd3" stroke-width="2.97" opacity="0.2" />
<line x1="458" y1="541" x2="405" y2="533" stroke="#c39bd3" stroke-width="1.75" opacity="0.2" />
<line x1="811" y1="165" x2="825" y2="186" stroke="#c39bd3" stroke-width="3.41" opacity="0.2" />
<line x1="110" y1="153" x2="78" y2="141" stroke="#c39bd3" stroke-width="1.06" opacity="0.2" />
<line x1="611" y1="386" x2="584" y2="335" stroke="#c39bd3" stroke-width="2.00" opacity="0.2" />
<line x1="15" y1="597" x2="67" y2="599" stroke="#c39bd3" stroke-width="3.43" opacity="0.2" />
<line x1="322" y1="195" x2="362" y2="169" stroke="#c39bd3" stroke-width="2.27" opacity="0.2" />
<line x1="58" y1="151" x2="60" y2="120" stroke="#c39bd3" stroke-width="3.03" opacity="0.2" />
<line x1="549" y1="338" x2="584" y2="364" stroke="#c39bd3" stroke-width="3.37" opacity="0.2" />
<line x1="831" y1="16" x2="867" y2="59" stroke="#c39bd3" stroke-width="1.11" opacity="0.2" />
<line x1="238" y1="350" x2="198" y2="409" stroke="#c39bd3" stroke-width="1.34" opacity="0.2" />
<line x1="538" y1="113" x2="506" y2="113" stroke="#c39bd3" stroke-width="2.63" opacity="0.2" />
<line x1="775" y1="558" x2="834" y2="523" stroke="#c39bd3" stroke-width="1.41" opacity="0.2" />
<line x1="447" y1="414" x2="466" y2="403" stroke="#c39bd3" stroke-width="3.20" opacity="0.2" />
<line x1="696" y1="513" x2="683" y2="570" stroke="#c39bd3" stroke-width="1.05" opacity="0.2" />
<line x1="484" y1="259" x2="480" y2="240" stroke="#c39bd3" stroke-width="1.74" opacity="0.2" />
<line x1="614" y1="583" x2="646" y2="528" stroke="#c39bd3" stroke-width="3.39" opacity="0.2" />
<line x1="295" y1="510" x2="288" y2="467" stroke="#c39bd3" stroke-width="3.37" opacity="0.2" />
<line x1="573" y1="305" x2="616" y2="288" stroke="#c39bd3" stroke-width="1.27" opacity="0.2" />
<line x1="506" y1="277" x2="554" y2="335" stroke="#c39bd3" stroke-width="2.00" opacity="0.2" />
<line x1="378" y1="280" x2="332" y2="306" stroke="#c39bd3" stroke-width="3.08" opacity="0.2" />
<line x1="193" y1="50" x2="250" y2="22" stroke="#c39bd3" stroke-width="1.11" opacity="0.2" />
<line x1="886" y1="325" x2="844" y2="343" stroke="#c39bd3" stroke-width="1.49" opacity="0.2" />
<line x1="247" y1="80" x2="211" y2="88" stroke="#c39bd3" stroke-width="1.59" opacity="0.2" />
</svg>