<?xml version="1.0" encoding="UTF-8"?>
<svg xmlns="http://www.w3.org/2000/svg" width="900" height="600" viewBox="0 0 900 600">
<rect width="100%" height="100%" fill="#f5ebe0" />
<circle cx="204" cy="490" r="23" fill="#f1d4c2" opacity="0.49" />
<circle cx="87" cy="349" r="10" fill="#f1d4c2" opacity="0.56" />
<circle cx="574" cy="409" r="20" fill="#f1d4c2" opacity="0.44" />
<circle cx="718" cy="28" r="19" fill="#f1d4c2" opacity="0.52" />
<circle cx="400" cy="64" r="16" fill="#f1d4c2" opacity="0.39" />
<circle cx="779" cy="493" r="13" fill="#f1d4c2" opacity="0.55" />
<circle cx="512" cy="428" r="15" fill="#f1d4c2" opacity="0.37" />
<circle cx="515" cy="557" r="9" fill="#f1d4c2" opacity="0.39" />
<circle cx="308" cy="31" r="14" fill="#f1d4c2" opacity="0.43" />
<circle cx="613" cy="326" r="15" fill="#f1d4c2" opacity="0.49" />
<circle cx="249" cy="524" r="21" fill="#f1d4c2" opacity="0.55" />
<circle cx="155" cy="44" r="8" fill="#f1d4c2" opacity="0.40" />
<circle cx="846" cy="119" r="12" fill="#f1d4c2" opacity="0.39" />
<circle cx="77" cy="166" r="20" fill="#f1d4c2" opacity="0.52" />
<circle cx="62" cy="400" r="14" fill="#f1d4c2" opacity="0.58" />
<circle cx="519" cy="393" r="16" fill="#f1d4c2" opacity="0.56" />
<circle cx="700" cy="220" r="15" fill="#f1d4c2" opacity="0.54" />
<circle cx="785" cy="211" r="28" fill="#f1d4c2" opacity="0.56" />
<circle cx="306" cy="14" r="23" fill="#f1d4c2" opacity="0.46" />
<circle cx="461" cy="107" r="17" fill="#f1d4c2" opacity="0.36" />
<circle cx="672" cy="242" r="10" fill="#f1d4c2" opacity="0.51" />
<circle cx="654" cy="327" r="19" fill="#f1d4c2" opacity="0.59" />
<circle cx="795" cy="420" r="12" fill="#f1d4c2" opacity="0.42" />
<circle cx="221" cy="23" r="15" fill="#f1d4c2" opacity="0.41" />
<circle cx="460" cy="495" r="12" fill="#f1d4c2" opacity="0.50" />
<circle cx="491" cy="139" r="24" fill="#f1d4c2" opacity="0.51" />
<circle cx="430" cy="56" r="23" fill="#f1d4c2" opacity="0.52" />
<circle cx="132" cy="202" r="8" fill="#f1d4c2" opacity="0.49" />
<circle cx="683" cy="193" r="26" fill="#f1d4c2" opacity="0.50" />
<circle cx="370" cy="383" r="12" fill="#f1d4c2" opacity="0.59" />
<circle cx="565" cy="508" r="17" fill="#f1d4c2" opacity="0.35" />
<circle cx="448" cy="149" r="15" fill="#f1d4c2" opacity="0.37" />
<circle cx="379" cy="175" r="28" fill="#f1d4c2" opacity="0.42" />
<circle cx="201" cy="152" r="10" fill="#f1d4c2" opacity="0.55" />
<circle cx="569" cy="565" r="12" fill="#f1d4c2" opacity="0.53" />
<circle cx="85" cy="208" r="29" fill="#f1d4c2" opacity="0.56" />
<circle cx="201" cy="591" r="8" fill="#f1d4c2" opacity="0.35" />
<circle cx="642" cy="32" r="18" fill="#f1d4c2" opacity="0.59" />
<circle cx="733" cy="496" r="10" fill="#f1d4c2" opacity="0.47" />
<circle cx="724" cy="387" r="16" fill="#f1d4c2" opacity="0.56" />
<circle cx="859" cy="212" r="23" fill="#f1d4c2" opacity="0.46" />
<circle cx="329" cy="304" r="9" fill="#f1d4c2" opacity="0.38" />
<circle cx="175" cy="564" r="22" fill="#f1d4c2" opacity="0.55" />
<circle cx="522" cy="273" r="25" fill="#f1d4c2" opacity="0.58" />
<circle cx="823" cy="346" r="18" fill="#f1d4c2" opacity="0.53" />
<circle cx="90" cy="313" r="22" fill="#f1d4c2" opacity="0.57" />
<circle cx="786" cy="345" r="21" fill="#f1d4c2" opacity="0.43" />
<circle cx="840" cy="52" r="15" fill="#f1d4c2" opacity="0.56" />
<circle cx="122" cy="273" r="28" fill="#f1d4c2" opacity="0.46" />
<circle cx="888" cy="543" r="22" fill="#f1d4c2" opacity="0.52" />
<circle cx="533" cy="456" r="17" fill="#f1d4c2" opacity="0.59" />
<circle cx="356" cy="297" r="23" fill="#f1d4c2" opacity="0.55" />
<circle cx="189" cy="17" r="23" fill="#f1d4c2" opacity="0.42" />
<circle cx="304" cy="130" r="8" fill="#f1d4c2" opacity="0.35" />
<circle cx="127" cy="126" r="25" fill="#f1d4c2" opacity="0.48" />
<circle cx="665" cy="499" r="21" fill="#f1d4c2" opacity="0.58" />
<circle cx="83" cy="239" r="28" fill="#f1d4c2" opacity="0.39" />
<circle cx="89" cy="472" r="10" fill="#f1d4c2" opacity="0.38" />
<circle cx="597" cy="261" r="28" fill="#f1d4c2" opacity="0.46" />
<circle cx="645" cy="363" r="23" fill="#f1d4c2" opacity="0.44" />
<circle cx="52" cy="84" r="9" fill="#f1d4c2" opacity="0.59" />
<circle cx="470" cy="557" r="10" fill="#f1d4c2" opacity="0.54" />
<circle cx="430" cy="232" r="10" fill="#f1d4c2" opacity="0.45" />
<circle cx="660" cy="146" r="22" fill="#f1d4c2" opacity="0.40" />
<circle cx="211" cy="399" r="17" fill="#f1d4c2" opacity="0.52" />
<circle cx="499" cy="396" r="20" fill="#f1d4c2" opacity="0.43" />
<circle cx="290" cy="418" r="25" fill="#f1d4c2" opacity="0.58" />
<circle cx="132" cy="556" r="17" fill="#f1d4c2" opacity="0.40" />
<circle cx="144" cy="314" r="29" fill="#f1d4c2" opacity="0.55" />
<circle cx="243" cy="59" r="14" fill="#f1d4c2" opacity="0.57" />
<circle cx="698" cy="295" r="14" fill="#f1d4c2" opacity="0.51" />
<circle cx="586" cy="427" r="10" fill="#f1d4c2" opacity="0.39" />
<circle cx="841" cy="404" r="8" fill="#f1d4c2" opacity="0.49" />
<circle cx="858" cy="311" r="27" fill="#f1d4c2" opacity="0.41" />
<circle cx="105" cy="469" r="29" fill="#f1d4c2" opacity="0.53" />
<circle cx="474" cy="302" r="14" fill="#f1d4c2" opacity="0.59" />
<circle cx="54" cy="191" r="16" fill="#f1d4c2" opacity="0.39" />
<circle cx="855" cy="283" r="26" fill="#f1d4c2" opacity="0.49" />
<circle cx="133" cy="424" r="9" fill="#f1d4c2" opacity="0.45" />
<circle cx="655" cy="464" r="16" fill="#f1d4c2" opacity="0.54" />
<circle cx="373" cy="137" r="10" fill="#f1d4c2" opacity="0.38" />
<circle cx="811" cy="118" r="19" fill="#f1d4c2" opacity="0.38" />
<circle cx="136" cy="27" r="28" fill="#f1d4c2" opacity="0.42" />
<circle cx="111" cy="354" r="21" fill="#f1d4c2" opacity="0.52" />
<circle cx="628" cy="400" r="16" fill="#f1d4c2" opacity="0.57" />
<circle cx="606" cy="554" r="13" fill="#f1d4c2" opacity="0.55" />
<circle cx="213" cy="45" r="29" fill="#f1d4c2" opacity="0.53" />
<circle cx="97" cy="84" r="19" fill="#f1d4c2" opacity="0.45" />
<circle cx="706" cy="279" r="28" fill="#f1d4c2" opacity="0.57" />
<circle cx="691" cy="133" r="18" fill="#f1d4c2" opacity="0.56" />
<circle cx="395" cy="525" r="11" fill="#f1d4c2" opacity="0.45" />
<circle cx="854" cy="339" r="27" fill="#f1d4c2" opacity="0.38" />
<circle cx="581" cy="246" r="15" fill="#f1d4c2" opacity="0.37" />
<circle cx="870" cy="150" r="23" fill="#f1d4c2" opacity="0.60" />
<circle cx="605" cy="599" r="19" fill="#f1d4c2" opacity="0.55" />
<circle cx="367" cy="86" r="9" fill="#f1d4c2" opacity="0.38" />
<circle cx="199" cy="366" r="21" fill="#f1d4c2" opacity="0.45" />
<circle cx="608" cy="123" r="18" fill="#f1d4c2" opacity="0.54" />
<circle cx="126" cy="486" r="9" fill="#f1d4c2" opacity="0.54" />
<circle cx="168" cy="341" r="10" fill="#f1d4c2" opacity="0.49" />
<circle cx="605" cy="535" r="12" fill="#f1d4c2" opacity="0.45" />
<circle cx="575" cy="188" r="24" fill="#f1d4c2" opacity="0.43" />
<circle cx="393" cy="188" r="29" fill="#f1d4c2" opacity="0.51" />
<circle cx="173" cy="328" r="10" fill="#f1d4c2" opacity="0.57" />
<circle cx="560" cy="208" r="24" fill="#f1d4c2" opacity="0.44" />
<circle cx="296" cy="51" r="28" fill="#f1d4c2" opacity="0.36" />
<circle cx="368" cy="489" r="27" fill="#f1d4c2" opacity="0.45" />
<circle cx="150" cy="525" r="15" fill="#f1d4c2" opacity="0.59" />
<circle cx="667" cy="205" r="26" fill="#f1d4c2" opacity="0.44" />
<circle cx="74" cy="79" r="12" fill="#f1d4c2" opacity="0.51" />
<circle cx="363" cy="195" r="25" fill="#f1d4c2" opacity="0.47" />
<circle cx="212" cy="73" r="26" fill="#f1d4c2" opacity="0.44" />
<circle cx="762" cy="538" r="8" fill="#f1d4c2" opacity="0.39" />
<circle cx="49" cy="8" r="23" fill="#f1d4c2" opacity="0.52" />
<circle cx="524" cy="191" r="23" fill="#f1d4c2" opacity="0.57" />
<circle cx="282" cy="422" r="19" fill="#f1d4c2" opacity="0.49" />
<circle cx="278" cy="214" r="25" fill="#f1d4c2" opacity="0.48" />
<circle cx="619" cy="477" r="27" fill="#f1d4c2" opacity="0.56" />
<circle cx="212" cy="17" r="28" fill="#f1d4c2" opacity="0.57" />
<circle cx="199" cy="288" r="10" fill="#f1d4c2" opacity="0.54" />
<circle cx="706" cy="285" r="10" fill="#f1d4c2" opacity="0.58" />
<circle cx="220" cy="529" r="11" fill="#f1d4c2" opacity="0.47" />
<circle cx="589" cy="488" r="12" fill="#f1d4c2" opacity="0.50" />
<circle cx="228" cy="140" r="19" fill="#f1d4c2" opacity="0.36" />
<circle cx="365" cy="429" r="9" fill="#f1d4c2" opacity="0.38" />
<circle cx="87" cy="105" r="23" fill="#f1d4c2" opacity="0.42" />
<circle cx="249" cy="547" r="19" fill="#f1d4c2" opacity="0.55" />
<circle cx="518" cy="103" r="11" fill="#f1d4c2" opacity="0.39" />
<circle cx="242" cy="340" r="17" fill="#f1d4c2" opacity="0.43" />
<circle cx="726" cy="274" r="18" fill="#f1d4c2" opacity="0.56" />
<circle cx="708" cy="50" r="21" fill="#f1d4c2" opacity="0.40" />
<circle cx="778" cy="533" r="20" fill="#f1d4c2" opacity="0.41" />
<circle cx="394" cy="503" r="9" fill="#f1d4c2" opacity="0.36" />
<circle cx="190" cy="427" r="14" fill="#f1d4c2" opacity="0.59" />
<circle cx="468" cy="570" r="13" fill="#f1d4c2" opacity="0.36" />
<circle cx="861" cy="587" r="28" fill="#f1d4c2" opacity="0.56" />
<circle cx="29" cy="50" r="13" fill="#f1d4c2" opacity="0.55" />
<circle cx="281" cy="234" r="21" fill="#f1d4c2" opacity="0.43" />
<circle cx="221" cy="53" r="13" fill="#f1d4c2" opacity="0.41" />
<circle cx="686" cy="269" r="14" fill="#f1d4c2" opacity="0.53" />
<circle cx="256" cy="392" r="13" fill="#f1d4c2" opacity="0.50" />
<circle cx="243" cy="125" r="28" fill="#f1d4c2" opacity="0.59" />
<circle cx="31" cy="208" r="18" fill="#f1d4c2" opacity="0.54" />
<circle cx="783" cy="524" r="13" fill="#f1d4c2" opacity="0.47" />
<circle cx="754" cy="64" r="27" fill="#f1d4c2" opacity="0.39" />
<circle cx="20" cy="171" r="17" fill="#f1d4c2" opacity="0.50" />
<circle cx="431" cy="480" r="8" fill="#f1d4c2" opacity="0.36" />
<circle cx="863" cy="334" r="14" fill="#f1d4c2" opacity="0.46" />
<circle cx="379" cy="89" r="29" fill="#f1d4c2" opacity="0.43" />
<circle cx="760" cy="544" r="14" fill="#f1d4c2" opacity="0.36" />
<circle cx="43" cy="145" r="15" fill="#f1d4c2" opacity="0.36" />
<circle cx="22" cy="436" r="8" fill="#f1d4c2" opacity="0.45" />
<circle cx="855" cy="528" r="24" fill="#f1d4c2" opacity="0.46" />
<circle cx="255" cy="259" r="23" fill="#f1d4c2" opacity="0.40" />
<circle cx="15" cy="231" r="8" fill="#f1d4c2" opacity="0.56" />
<circle cx="766" cy="380" r="21" fill="#f1d4c2" opacity="0.47" />
<circle cx="95" cy="422" r="18" fill="#f1d4c2" opacity="0.48" />
<circle cx="313" cy="93" r="11" fill="#f1d4c2" opacity="0.41" />
<circle cx="323" cy="132" r="21" fill="#f1d4c2" opacity="0.40" />
<circle cx="807" cy="258" r="14" fill="#f1d4c2" opacity="0.58" />
<circle cx="484" cy="286" r="12" fill="#f1d4c2" opacity="0.54" />
<circle cx="689" cy="109" r="14" fill="#f1d4c2" opacity="0.60" />
<circle cx="131" cy="344" r="22" fill="#f1d4c2" opacity="0.42" />
<circle cx="115" cy="507" r="18" fill="#f1d4c2" opacity="0.42" />
<circle cx="117" cy="594" r="13" fill="#f1d4c2" opacity="0.36" />
<circle cx="167" cy="593" r="10" fill="#f1d4c2" opacity="0.38" />
<circle cx="823" cy="436" r="28" fill="#f1d4c2" opacity="0.40" />
<circle cx="370" cy="414" r="18" fill="#f1d4c2" opacity="0.44" />
<circle cx="746" cy="65" r="23" fill="#f1d4c2" opacity="0.50" />
<circle cx="737" cy="482" r="25" fill="#f1d4c2" opacity="0.59" />
<circle cx="750" cy="74" r="18" fill="#f1d4c2" opacity="0.59" />
<circle cx="492" cy="24" r="25" fill="#f1d4c2" opacity="0.53" />
<circle cx="486" cy="67" r="26" fill="#f1d4c2" opacity="0.44" />
<circle cx="113" cy="167" r="13" fill="#f1d4c2" opacity="0.42" />
<circle cx="520" cy="557" r="7" fill="#5f4b8b" opacity="0.87" />
<circle cx="320" cy="325" r="8" fill="#5f4b8b" opacity="0.59" />
<circle cx="174" cy="52" r="8" fill="#5f4b8b" opacity="0.73" />
<circle cx="258" cy="127" r="6" fill="#5f4b8b" opacity="0.72" />
<circle cx="783" cy="442" r="8" fill="#5f4b8b" opacity="0.82" />
<circle cx="764" cy="514" r="11" fill="#5f4b8b" opacity="0.84" />
<circle cx="624" cy="278" r="8" fill="#5f4b8b" opacity="0.64" />
<circle cx="747" cy="143" r="8" fill="#5f4b8b" opacity="0.55" />
<circle cx="559" cy="558" r="3" fill="#5f4b8b" opacity="0.85" />
<circle cx="438" cy="331" r="10" fill="#5f4b8b" opacity="0.72" />
<circle cx="507" cy="361" r="3" fill="#5f4b8b" opacity="0.57" />
<circle cx="31" cy="194" r="11" fill="#5f4b8b" opacity="0.81" />
<circle cx="783" cy="396" r="6" fill="#5f4b8b" opacity="0.66" />
<circle cx="809" cy="74" r="9" fill="#5f4b8b" opacity="0.61" />
<circle cx="105" cy="470" r="5" fill="#5f4b8b" opacity="0.57" />
<circle cx="143" cy="330" r="3" fill="#5f4b8b" opacity="0.63" />
<circle cx="545" cy="558" r="5" fill="#5f4b8b" opacity="0.62" />
<circle cx="846" cy="265" r="4" fill="#5f4b8b" opacity="0.83" />
<circle cx="649" cy="38" r="5" fill="#5f4b8b" opacity="0.71" />
<circle cx="20" cy="39" r="4" fill="#5f4b8b" opacity="0.71" />
<circle cx="631" cy="323" r="5" fill="#5f4b8b" opacity="0.65" />
<circle cx="544" cy="156" r="7" fill="#5f4b8b" opacity="0.67" />
<circle cx="477" cy="278" r="5" fill="#5f4b8b" opacity="0.78" />
<circle cx="605" cy="10" r="3" fill="#5f4b8b" opacity="0.65" />
<circle cx="863" cy="427" r="9" fill="#5f4b8b" opacity="0.61" />
<circle cx="621" cy="155" r="6" fill="#5f4b8b" opacity="0.58" />
<circle cx="434" cy="44" r="4" fill="#5f4b8b" opacity="0.82" />
<circle cx="610" cy="454" r="10" fill="#5f4b8b" opacity="0.81" />
<circle cx="383" cy="233" r="4" fill="#5f4b8b" opacity="0.87" />
<circle cx="85" cy="323" r="4" fill="#5f4b8b" opacity="0.68" />
<circle cx="513" cy="490" r="5" fill="#5f4b8b" opacity="0.69" />
<circle cx="830" cy="312" r="5" fill="#5f4b8b" opacity="0.62" />
<circle cx="723" cy="48" r="3" fill="#5f4b8b" opacity="0.78" />
<circle cx="443" cy="97" r="6" fill="#5f4b8b" opacity="0.64" />
<circle cx="256" cy="289" r="10" fill="#5f4b8b" opacity="0.64" />
<circle cx="387" cy="512" r="3" fill="#5f4b8b" opacity="0.73" />
<circle cx="842" cy="316" r="7" fill="#5f4b8b" opacity="0.66" />
<circle cx="764" cy="157" r="7" fill="#5f4b8b" opacity="0.83" />
<circle cx="379" cy="163" r="8" fill="#5f4b8b" opacity="0.63" />
<circle cx="141" cy="188" r="4" fill="#5f4b8b" opacity="0.83" />
<circle cx="121" cy="338" r="5" fill="#5f4b8b" opacity="0.88" />
<circle cx="656" cy="371" r="7" fill="#5f4b8b" opacity="0.70" />
<circle cx="607" cy="432" r="4" fill="#5f4b8b" opacity="0.85" />
<circle cx="779" cy="91" r="10" fill="#5f4b8b" opacity="0.87" />
<circle cx="637" cy="215" r="3" fill="#5f4b8b" opacity="0.83" />
<circle cx="117" cy="135" r="5" fill="#5f4b8b" opacity="0.72" />
<circle cx="319" cy="404" r="9" fill="#5f4b8b" opacity="0.90" />
<circle cx="525" cy="16" r="5" fill="#5f4b8b" opacity="0.68" />
<circle cx="406" cy="181" r="7" fill="#5f4b8b" opacity="0.83" />
<circle cx="271" cy="5" r="6" fill="#5f4b8b" opacity="0.65" />
<circle cx="196" cy="453" r="9" fill="#5f4b8b" opacity="0.66" />
<circle cx="207" cy="570" r="3" fill="#5f4b8b" opacity="0.84" />
<circle cx="770" cy="183" r="9" fill="#5f4b8b" opacity="0.66" />
<circle cx="865" cy="316" r="3" fill="#5f4b8b" opacity="0.69" />
<circle cx="230" cy="292" r="3" fill="#5f4b8b" opacity="0.84" />
<circle cx="553" cy="44" r="6" fill="#5f4b8b" opacity="0.64" />
<circle cx="162" cy="162" r="11" fill="#5f4b8b" opacity="0.81" />
<circle cx="70" cy="594" r="10" fill="#5f4b8b" opacity="0.82" />
<circle cx="448" cy="599" r="9" fill="#5f4b8b" opacity="0.71" />
<circle cx="304" cy="185" r="9" fill="#5f4b8b" opacity="0.67" />
<circle cx="236" cy="497" r="5" fill="#5f4b8b" opacity="0.75" />
<circle cx="196" cy="241" r="9" fill="#5f4b8b" opacity="0.57" />
<circle cx="514" cy="164" r="3" fill="#5f4b8b" opacity="0.56" />
<circle cx="395" cy="446" r="11" fill="#5f4b8b" opacity="0.79" />
<circle cx="368" cy="491" r="4" fill="#5f4b8b" opacity="0.60" />
<circle cx="69" cy="162" r="5" fill="#5f4b8b" opacity="0.56" />
<circle cx="449" cy="505" r="5" fill="#5f4b8b" opacity="0.77" />
<circle cx="510" cy="563" r="7" fill="#5f4b8b" opacity="0.56" />
<circle cx="430" cy="527" r="5" fill="#5f4b8b" opacity="0.74" />
<circle cx="672" cy="543" r="5" fill="#5f4b8b" opacity="0.62" />
<circle cx="744" cy="571" r="11" fill="#5f4b8b" opacity="0.56" />
<circle cx="810" cy="372" r="9" fill="#5f4b8b" opacity="0.75" />
<circle cx="451" cy="364" r="7" fill="#5f4b8b" opacity="0.69" />
<circle cx="515" cy="542" r="11" fill="#5f4b8b" opacity="0.75" />
<circle cx="699" cy="421" r="11" fill="#5f4b8b" opacity="0.56" />
<circle cx="162" cy="127" r="7" fill="#5f4b8b" opacity="0.80" />
<circle cx="619" cy="107" r="4" fill="#5f4b8b" opacity="0.87" />
<circle cx="403" cy="292" r="8" fill="#5f4b8b" opacity="0.71" />
<circle cx="517" cy="116" r="3" fill="#5f4b8b" opacity="0.85" />
<circle cx="514" cy="373" r="11" fill="#5f4b8b" opacity="0.65" />
<circle cx="785" cy="186" r="4" fill="#5f4b8b" opacity="0.74" />
<circle cx="141" cy="415" r="10" fill="#5f4b8b" opacity="0.76" />
<circle cx="861" cy="231" r="11" fill="#5f4b8b" opacity="0.67" />
<circle cx="550" cy="306" r="11" fill="#5f4b8b" opacity="0.74" />
<circle cx="261" cy="586" r="8" fill="#5f4b8b" opacity="0.80" />
<circle cx="396" cy="522" r="8" fill="#5f4b8b" opacity="0.77" />
<circle cx="713" cy="214" r="5" fill="#5f4b8b" opacity="0.76" />
<circle cx="224" cy="420" r="11" fill="#5f4b8b" opacity="0.70" />
<circle cx="66" cy="563" r="9" fill="#5f4b8b" opacity="0.73" />
<circle cx="215" cy="77" r="5" fill="#5f4b8b" opacity="0.60" />
<circle cx="536" cy="561" r="7" fill="#5f4b8b" opacity="0.56" />
<circle cx="104" cy="300" r="3" fill="#5f4b8b" opacity="0.85" />
<circle cx="876" cy="110" r="5" fill="#5f4b8b" opacity="0.63" />
<circle cx="490" cy="277" r="8" fill="#5f4b8b" opacity="0.88" />
<line x1="442" y1="377" x2="477" y2="394" stroke="#c17c74" stroke-width="2.29" opacity="0.2" />
<line x1="427" y1="3" x2="408" y2="24" stroke="#c17c74" stroke-width="2.22" opacity="0.2" />
<line x1="738" y1="222" x2="721" y2="243" stroke="#c17c74" stroke-width="3.39" opacity="0.2" />
<line x1="490" y1="51" x2="457" y2="68" stroke="#c17c74" stroke-width="1.36" opacity="0.2" />
<line x1="1" y1="531" x2="-9" y2="480" stroke="#c17c74" stroke-width="2.86" opacity="0.2" />
<line x1="428" y1="417" x2="454" y2="423" stroke="#c17c74" stroke-width="2.76" opacity="0.2" />
<line x1="172" y1="381" x2="231" y2="375" stroke="#c17c74" stroke-width="3.30" opacity="0.2" />
<line x1="184" y1="173" x2="128" y2="162" stroke="#c17c74" stroke-width="2.72" opacity="0.2" />
<line x1="579" y1="415" x2="583" y2="386" stroke="#c17c74" stroke-width="1.51" opacity="0.2" />
<line x1="84" y1="272" x2="47" y2="249" stroke="#c17c74" stroke-width="2.81" opacity="0.2" />
<line x1="817" y1="36" x2="828" y2="38" stroke="#c17c74" stroke-width="3.14" opacity="0.2" />
<line x1="89" y1="419" x2="42" y2="474" stroke="#c17c74" stroke-width="1.75" opacity="0.2" />
<line x1="524" y1="300" x2="572" y2="359" stroke="#c17c74" stroke-width="3.32" opacity="0.2" />
<line x1="436" y1="85" x2="411" y2="127" stroke="#c17c74" stroke-width="1.39" opacity="0.2" />
<line x1="824" y1="185" x2="827" y2="163" stroke="#c17c74" stroke-width="3.09" opacity="0.2" />
<line x1="366" y1="583" x2="374" y2="524" stroke="#c17c74" stroke-width="1.74" opacity="0.2" />
<line x1="734" y1="202" x2="677" y2="191" stroke="#c17c74" stroke-width="2.48" opacity="0.2" />
<line x1="446" y1="492" x2="477" y2="488" stroke="#c17c74" stroke-width="2.87" opacity="0.2" />
<line x1="363" y1="570" x2="335" y2="562" stroke="#c17c74" stroke-width="3.10" opacity="0.2" />
<line x1="421" y1="229" x2="434" y2="204" stroke="#c17c74" stroke-width="1.57" opacity="0.2" />
<line x1="531" y1="390" x2="530" y2="356" stroke="#c17c74" stroke-width="2.93" opacity="0.2" />
<line x1="201" y1="469" x2="177" y2="435" stroke="#c17c74" stroke-width="1.92" opacity="0.2" />
<line x1="488" y1="542" x2="502" y2="575" stroke="#c17c74" stroke-width="1.10" opacity="0.2" />
<line x1="357" y1="445" x2="345" y2="433" stroke="#c17c74" stroke-width="2.61" opacity="0.2" />
<line x1="873" y1="199" x2="914" y2="221" stroke="#c17c74" stroke-width="2.55" opacity="0.2" />
<line x1="723" y1="496" x2="740" y2="539" stroke="#c17c74" stroke-width="2.91" opacity="0.2" />
<line x1="9" y1="527" x2="-16" y2="498" stroke="#c17c74" stroke-width="2.53" opacity="0.2" />
<line x1="121" y1="111" x2="159" y2="67" stroke="#c17c74" stroke-width="3.00" opacity="0.2" />
<line x1="456" y1="455" x2="432" y2="500" stroke="#c17c74" stroke-width="2.85" opacity="0.2" />
<line x1="844" y1="540" x2="880" y2="531" stroke="#c17c74" stroke-width="1.98" opacity="0.2" />
</svg>