<?xml version="1.0" encoding="UTF-8"?>
<svg xmlns="http://www.w3.org/2000/svg" width="900" height="600" viewBox="0 0 900 600">
<rect width="100%" height="100%" fill="#f7f0e8" />
<circle cx="884" cy="165" r="13" fill="#f0d2c0" opacity="0.54" />
<circle cx="130" cy="157" r="25" fill="#f0d2c0" opacity="0.54" />
<circle cx="19" cy="120" r="16" fill="#f0d2c0" opacity="0.44" />
<circle cx="766" cy="346" r="12" fill="#f0d2c0" opacity="0.52" />
<circle cx="745" cy="104" r="25" fill="#f0d2c0" opacity="0.56" />
<circle cx="410" cy="451" r="9" fill="#f0d2c0" opacity="0.44" />
<circle cx="595" cy="221" r="25" fill="#f0d2c0" opacity="0.55" />
<circle cx="434" cy="414" r="15" fill="#f0d2c0" opacity="0.40" />
<circle cx="71" cy="228" r="28" fill="#f0d2c0" opacity="0.36" />
<circle cx="604" cy="546" r="21" fill="#f0d2c0" opacity="0.49" />
<circle cx="0" cy="376" r="14" fill="#f0d2c0" opacity="0.57" />
<circle cx="724" cy="575" r="14" fill="#f0d2c0" opacity="0.50" />
<circle cx="636" cy="406" r="17" fill="#f0d2c0" opacity="0.46" />
<circle cx="400" cy="266" r="9" fill="#f0d2c0" opacity="0.50" />
<circle cx="880" cy="437" r="12" fill="#f0d2c0" opacity="0.45" />
<circle cx="84" cy="584" r="16" fill="#f0d2c0" opacity="0.43" />
<circle cx="40" cy="274" r="14" fill="#f0d2c0" opacity="0.56" />
<circle cx="336" cy="441" r="13" fill="#f0d2c0" opacity="0.54" />
<circle cx="783" cy="293" r="21" fill="#f0d2c0" opacity="0.47" />
<circle cx="246" cy="569" r="14" fill="#f0d2c0" opacity="0.39" />
<circle cx="686" cy="55" r="8" fill="#f0d2c0" opacity="0.42" />
<circle cx="416" cy="162" r="19" fill="#f0d2c0" opacity="0.56" />
<circle cx="105" cy="3" r="20" fill="#f0d2c0" opacity="0.55" />
<circle cx="753" cy="531" r="24" fill="#f0d2c0" opacity="0.37" />
<circle cx="702" cy="144" r="24" fill="#f0d2c0" opacity="0.37" />
<circle cx="750" cy="246" r="27" fill="#f0d2c0" opacity="0.40" />
<circle cx="252" cy="76" r="13" fill="#f0d2c0" opacity="0.40" />
<circle cx="92" cy="51" r="20" fill="#f0d2c0" opacity="0.46" />
<circle cx="345" cy="98" r="8" fill="#f0d2c0" opacity="0.56" />
<circle cx="113" cy="462" r="14" fill="#f0d2c0" opacity="0.41" />
<circle cx="568" cy="156" r="17" fill="#f0d2c0" opacity="0.53" />
<circle cx="392" cy="292" r="19" fill="#f0d2c0" opacity="0.45" />
<circle cx="277" cy="566" r="10" fill="#f0d2c0" opacity="0.59" />
<circle cx="548" cy="385" r="21" fill="#f0d2c0" opacity="0.59" />
<circle cx="197" cy="473" r="25" fill="#f0d2c0" opacity="0.52" />
<circle cx="585" cy="297" r="28" fill="#f0d2c0" opacity="0.41" />
<circle cx="329" cy="330" r="13" fill="#f0d2c0" opacity="0.47" />
<circle cx="160" cy="8" r="20" fill="#f0d2c0" opacity="0.39" />
<circle cx="121" cy="274" r="13" fill="#f0d2c0" opacity="0.38" />
<circle cx="384" cy="269" r="22" fill="#f0d2c0" opacity="0.43" />
<circle cx="309" cy="334" r="24" fill="#f0d2c0" opacity="0.43" />
<circle cx="713" cy="389" r="8" fill="#f0d2c0" opacity="0.49" />
<circle cx="293" cy="495" r="24" fill="#f0d2c0" opacity="0.59" />
<circle cx="586" cy="492" r="9" fill="#f0d2c0" opacity="0.37" />
<circle cx="628" cy="19" r="26" fill="#f0d2c0" opacity="0.40" />
<circle cx="818" cy="272" r="14" fill="#f0d2c0" opacity="0.38" />
<circle cx="498" cy="290" r="26" fill="#f0d2c0" opacity="0.40" />
<circle cx="364" cy="356" r="28" fill="#f0d2c0" opacity="0.52" />
<circle cx="803" cy="550" r="26" fill="#f0d2c0" opacity="0.37" />
<circle cx="383" cy="438" r="15" fill="#f0d2c0" opacity="0.45" />
<circle cx="521" cy="428" r="14" fill="#f0d2c0" opacity="0.42" />
<circle cx="840" cy="6" r="25" fill="#f0d2c0" opacity="0.40" />
<circle cx="708" cy="543" r="11" fill="#f0d2c0" opacity="0.60" />
<circle cx="186" cy="559" r="26" fill="#f0d2c0" opacity="0.53" />
<circle cx="795" cy="137" r="23" fill="#f0d2c0" opacity="0.37" />
<circle cx="182" cy="538" r="15" fill="#f0d2c0" opacity="0.45" />
<circle cx="684" cy="48" r="11" fill="#f0d2c0" opacity="0.37" />
<circle cx="868" cy="406" r="22" fill="#f0d2c0" opacity="0.41" />
<circle cx="102" cy="255" r="10" fill="#f0d2c0" opacity="0.57" />
<circle cx="30" cy="71" r="20" fill="#f0d2c0" opacity="0.55" />
<circle cx="473" cy="568" r="17" fill="#f0d2c0" opacity="0.39" />
<circle cx="469" cy="49" r="24" fill="#f0d2c0" opacity="0.45" />
<circle cx="430" cy="233" r="27" fill="#f0d2c0" opacity="0.38" />
<circle cx="47" cy="397" r="15" fill="#f0d2c0" opacity="0.57" />
<circle cx="396" cy="300" r="11" fill="#f0d2c0" opacity="0.48" />
<circle cx="584" cy="445" r="15" fill="#f0d2c0" opacity="0.59" />
<circle cx="483" cy="546" r="27" fill="#f0d2c0" opacity="0.43" />
<circle cx="89" cy="524" r="26" fill="#f0d2c0" opacity="0.46" />
<circle cx="767" cy="485" r="24" fill="#f0d2c0" opacity="0.49" />
<circle cx="624" cy="228" r="18" fill="#f0d2c0" opacity="0.57" />
<circle cx="871" cy="285" r="19" fill="#f0d2c0" opacity="0.46" />
<circle cx="709" cy="66" r="23" fill="#f0d2c0" opacity="0.44" />
<circle cx="687" cy="499" r="8" fill="#f0d2c0" opacity="0.56" />
<circle cx="168" cy="372" r="10" fill="#f0d2c0" opacity="0.56" />
<circle cx="732" cy="346" r="23" fill="#f0d2c0" opacity="0.46" />
<circle cx="177" cy="82" r="15" fill="#f0d2c0" opacity="0.49" />
<circle cx="258" cy="382" r="9" fill="#f0d2c0" opacity="0.42" />
<circle cx="642" cy="599" r="16" fill="#f0d2c0" opacity="0.39" />
<circle cx="429" cy="246" r="13" fill="#f0d2c0" opacity="0.49" />
<circle cx="192" cy="380" r="11" fill="#f0d2c0" opacity="0.43" />
<circle cx="138" cy="326" r="13" fill="#f0d2c0" opacity="0.52" />
<circle cx="190" cy="471" r="9" fill="#f0d2c0" opacity="0.49" />
<circle cx="369" cy="249" r="15" fill="#f0d2c0" opacity="0.53" />
<circle cx="540" cy="587" r="27" fill="#f0d2c0" opacity="0.54" />
<circle cx="60" cy="553" r="9" fill="#f0d2c0" opacity="0.49" />
<circle cx="169" cy="392" r="29" fill="#f0d2c0" opacity="0.54" />
<circle cx="628" cy="9" r="14" fill="#f0d2c0" opacity="0.40" />
<circle cx="562" cy="480" r="27" fill="#f0d2c0" opacity="0.36" />
<circle cx="693" cy="369" r="21" fill="#f0d2c0" opacity="0.41" />
<circle cx="279" cy="447" r="14" fill="#f0d2c0" opacity="0.57" />
<circle cx="642" cy="310" r="23" fill="#f0d2c0" opacity="0.43" />
<circle cx="194" cy="321" r="11" fill="#f0d2c0" opacity="0.59" />
<circle cx="305" cy="519" r="11" fill="#f0d2c0" opacity="0.37" />
<circle cx="115" cy="574" r="17" fill="#f0d2c0" opacity="0.46" />
<circle cx="229" cy="450" r="19" fill="#f0d2c0" opacity="0.48" />
<circle cx="619" cy="538" r="13" fill="#f0d2c0" opacity="0.39" />
<circle cx="646" cy="414" r="25" fill="#f0d2c0" opacity="0.43" />
<circle cx="413" cy="571" r="28" fill="#f0d2c0" opacity="0.54" />
<circle cx="653" cy="197" r="11" fill="#f0d2c0" opacity="0.43" />
<circle cx="519" cy="471" r="19" fill="#f0d2c0" opacity="0.40" />
<circle cx="298" cy="360" r="24" fill="#f0d2c0" opacity="0.52" />
<circle cx="409" cy="411" r="18" fill="#f0d2c0" opacity="0.50" />
<circle cx="402" cy="251" r="18" fill="#f0d2c0" opacity="0.45" />
<circle cx="371" cy="362" r="12" fill="#f0d2c0" opacity="0.36" />
<circle cx="311" cy="386" r="25" fill="#f0d2c0" opacity="0.56" />
<circle cx="708" cy="363" r="16" fill="#f0d2c0" opacity="0.40" />
<circle cx="625" cy="390" r="20" fill="#f0d2c0" opacity="0.59" />
<circle cx="763" cy="123" r="17" fill="#f0d2c0" opacity="0.59" />
<circle cx="256" cy="206" r="22" fill="#f0d2c0" opacity="0.45" />
<circle cx="414" cy="373" r="25" fill="#f0d2c0" opacity="0.45" />
<circle cx="74" cy="517" r="26" fill="#f0d2c0" opacity="0.50" />
<circle cx="188" cy="186" r="12" fill="#f0d2c0" opacity="0.59" />
<circle cx="409" cy="13" r="20" fill="#f0d2c0" opacity="0.38" />
<circle cx="370" cy="511" r="23" fill="#f0d2c0" opacity="0.58" />
<circle cx="750" cy="446" r="19" fill="#f0d2c0" opacity="0.55" />
<circle cx="503" cy="278" r="12" fill="#f0d2c0" opacity="0.36" />
<circle cx="516" cy="13" r="28" fill="#f0d2c0" opacity="0.54" />
<circle cx="721" cy="205" r="27" fill="#f0d2c0" opacity="0.35" />
<circle cx="752" cy="276" r="8" fill="#f0d2c0" opacity="0.49" />
<circle cx="537" cy="190" r="12" fill="#f0d2c0" opacity="0.53" />
<circle cx="732" cy="333" r="21" fill="#f0d2c0" opacity="0.52" />
<circle cx="161" cy="79" r="19" fill="#f0d2c0" opacity="0.41" />
<circle cx="139" cy="337" r="26" fill="#f0d2c0" opacity="0.42" />
<circle cx="9" cy="162" r="24" fill="#f0d2c0" opacity="0.41" />
<circle cx="871" cy="220" r="22" fill="#f0d2c0" opacity="0.48" />
<circle cx="289" cy="245" r="15" fill="#f0d2c0" opacity="0.46" />
<circle cx="18" cy="43" r="20" fill="#f0d2c0" opacity="0.47" />
<circle cx="631" cy="72" r="21" fill="#f0d2c0" opacity="0.55" />
<circle cx="165" cy="351" r="8" fill="#f0d2c0" opacity="0.36" />
<circle cx="272" cy="306" r="27" fill="#f0d2c0" opacity="0.44" />
<circle cx="503" cy="90" r="9" fill="#f0d2c0" opacity="0.40" />
<circle cx="299" cy="131" r="29" fill="#f0d2c0" opacity="0.60" />
<circle cx="579" cy="6" r="17" fill="#f0d2c0" opacity="0.60" />
<circle cx="158" cy="580" r="16" fill="#f0d2c0" opacity="0.37" />
<circle cx="41" cy="66" r="24" fill="#f0d2c0" opacity="0.39" />
<circle cx="718" cy="208" r="16" fill="#f0d2c0" opacity="0.40" />
<circle cx="671" cy="396" r="10" fill="#f0d2c0" opacity="0.49" />
<circle cx="134" cy="54" r="29" fill="#f0d2c0" opacity="0.41" />
<circle cx="766" cy="270" r="25" fill="#f0d2c0" opacity="0.52" />
<circle cx="148" cy="413" r="16" fill="#f0d2c0" opacity="0.39" />
<circle cx="682" cy="566" r="15" fill="#f0d2c0" opacity="0.56" />
<circle cx="65" cy="441" r="21" fill="#f0d2c0" opacity="0.56" />
<circle cx="250" cy="35" r="24" fill="#f0d2c0" opacity="0.38" />
<circle cx="856" cy="199" r="18" fill="#f0d2c0" opacity="0.42" />
<circle cx="297" cy="66" r="11" fill="#f0d2c0" opacity="0.56" />
<circle cx="402" cy="283" r="16" fill="#f0d2c0" opacity="0.54" />
<circle cx="247" cy="448" r="12" fill="#f0d2c0" opacity="0.51" />
<circle cx="20" cy="543" r="21" fill="#f0d2c0" opacity="0.59" />
<circle cx="222" cy="590" r="23" fill="#f0d2c0" opacity="0.52" />
<circle cx="582" cy="323" r="15" fill="#f0d2c0" opacity="0.37" />
<circle cx="181" cy="6" r="16" fill="#f0d2c0" opacity="0.49" />
<circle cx="858" cy="568" r="13" fill="#f0d2c0" opacity="0.48" />
<circle cx="585" cy="352" r="13" fill="#f0d2c0" opacity="0.53" />
<circle cx="896" cy="486" r="27" fill="#f0d2c0" opacity="0.46" />
<circle cx="407" cy="513" r="27" fill="#f0d2c0" opacity="0.55" />
<circle cx="266" cy="400" r="10" fill="#f0d2c0" opacity="0.48" />
<circle cx="773" cy="177" r="14" fill="#f0d2c0" opacity="0.56" />
<circle cx="522" cy="415" r="20" fill="#f0d2c0" opacity="0.52" />
<circle cx="312" cy="113" r="17" fill="#f0d2c0" opacity="0.37" />
<circle cx="188" cy="347" r="14" fill="#f0d2c0" opacity="0.49" />
<circle cx="5" cy="246" r="27" fill="#f0d2c0" opacity="0.50" />
<circle cx="277" cy="453" r="17" fill="#f0d2c0" opacity="0.59" />
<circle cx="870" cy="437" r="23" fill="#f0d2c0" opacity="0.51" />
<circle cx="214" cy="565" r="29" fill="#f0d2c0" opacity="0.42" />
<circle cx="623" cy="508" r="24" fill="#f0d2c0" opacity="0.53" />
<circle cx="830" cy="412" r="10" fill="#f0d2c0" opacity="0.43" />
<circle cx="527" cy="44" r="8" fill="#f0d2c0" opacity="0.43" />
<circle cx="299" cy="547" r="26" fill="#f0d2c0" opacity="0.58" />
<circle cx="896" cy="80" r="16" fill="#f0d2c0" opacity="0.44" />
<circle cx="480" cy="528" r="15" fill="#f0d2c0" opacity="0.57" />
<circle cx="687" cy="332" r="29" fill="#f0d2c0" opacity="0.55" />
<circle cx="419" cy="385" r="19" fill="#f0d2c0" opacity="0.41" />
<circle cx="28" cy="164" r="26" fill="#f0d2c0" opacity="0.58" />
<circle cx="359" cy="486" r="28" fill="#f0d2c0" opacity="0.59" />
<circle cx="608" cy="286" r="3" fill="#6f4c8b" opacity="0.75" />
<circle cx="766" cy="68" r="5" fill="#6f4c8b" opacity="0.74" />
<circle cx="311" cy="353" r="6" fill="#6f4c8b" opacity="0.74" />
<circle cx="304" cy="440" r="9" fill="#6f4c8b" opacity="0.73" />
<circle cx="103" cy="506" r="11" fill="#6f4c8b" opacity="0.66" />
<circle cx="401" cy="281" r="10" fill="#6f4c8b" opacity="0.76" />
<circle cx="186" cy="570" r="5" fill="#6f4c8b" opacity="0.89" />
<circle cx="213" cy="436" r="3" fill="#6f4c8b" opacity="0.80" />
<circle cx="140" cy="124" r="9" fill="#6f4c8b" opacity="0.60" />
<circle cx="171" cy="49" r="10" fill="#6f4c8b" opacity="0.81" />
<circle cx="879" cy="119" r="10" fill="#6f4c8b" opacity="0.90" />
<circle cx="644" cy="86" r="7" fill="#6f4c8b" opacity="0.89" />
<circle cx="13" cy="335" r="9" fill="#6f4c8b" opacity="0.89" />
<circle cx="813" cy="35" r="11" fill="#6f4c8b" opacity="0.56" />
<circle cx="356" cy="442" r="9" fill="#6f4c8b" opacity="0.62" />
<circle cx="518" cy="151" r="7" fill="#6f4c8b" opacity="0.66" />
<circle cx="334" cy="18" r="9" fill="#6f4c8b" opacity="0.74" />
<circle cx="214" cy="119" r="7" fill="#6f4c8b" opacity="0.60" />
<circle cx="699" cy="382" r="9" fill="#6f4c8b" opacity="0.78" />
<circle cx="123" cy="24" r="11" fill="#6f4c8b" opacity="0.88" />
<circle cx="62" cy="205" r="6" fill="#6f4c8b" opacity="0.71" />
<circle cx="596" cy="246" r="11" fill="#6f4c8b" opacity="0.80" />
<circle cx="372" cy="532" r="8" fill="#6f4c8b" opacity="0.65" />
<circle cx="882" cy="46" r="11" fill="#6f4c8b" opacity="0.62" />
<circle cx="791" cy="367" r="7" fill="#6f4c8b" opacity="0.67" />
<circle cx="237" cy="174" r="5" fill="#6f4c8b" opacity="0.76" />
<circle cx="309" cy="210" r="3" fill="#6f4c8b" opacity="0.67" />
<circle cx="61" cy="341" r="6" fill="#6f4c8b" opacity="0.79" />
<circle cx="762" cy="581" r="11" fill="#6f4c8b" opacity="0.82" />
<circle cx="390" cy="437" r="11" fill="#6f4c8b" opacity="0.58" />
<circle cx="404" cy="534" r="11" fill="#6f4c8b" opacity="0.64" />
<circle cx="253" cy="366" r="6" fill="#6f4c8b" opacity="0.77" />
<circle cx="810" cy="453" r="8" fill="#6f4c8b" opacity="0.71" />
<circle cx="333" cy="558" r="3" fill="#6f4c8b" opacity="0.60" />
<circle cx="146" cy="581" r="11" fill="#6f4c8b" opacity="0.77" />
<circle cx="732" cy="324" r="4" fill="#6f4c8b" opacity="0.76" />
<circle cx="71" cy="3" r="4" fill="#6f4c8b" opacity="0.74" />
<circle cx="216" cy="142" r="4" fill="#6f4c8b" opacity="0.72" />
<circle cx="297" cy="380" r="7" fill="#6f4c8b" opacity="0.56" />
<circle cx="527" cy="232" r="9" fill="#6f4c8b" opacity="0.65" />
<circle cx="527" cy="38" r="11" fill="#6f4c8b" opacity="0.86" />
<circle cx="26" cy="459" r="8" fill="#6f4c8b" opacity="0.73" />
<circle cx="582" cy="77" r="6" fill="#6f4c8b" opacity="0.84" />
<circle cx="629" cy="210" r="3" fill="#6f4c8b" opacity="0.59" />
<circle cx="42" cy="561" r="7" fill="#6f4c8b" opacity="0.69" />
<circle cx="507" cy="355" r="8" fill="#6f4c8b" opacity="0.58" />
<circle cx="706" cy="493" r="6" fill="#6f4c8b" opacity="0.89" />
<circle cx="253" cy="257" r="4" fill="#6f4c8b" opacity="0.62" />
<circle cx="220" cy="405" r="7" fill="#6f4c8b" opacity="0.65" />
<circle cx="846" cy="393" r="11" fill="#6f4c8b" opacity="0.58" />
<circle cx="536" cy="67" r="4" fill="#6f4c8b" opacity="0.78" />
<circle cx="831" cy="57" r="6" fill="#6f4c8b" opacity="0.72" />
<circle cx="639" cy="372" r="11" fill="#6f4c8b" opacity="0.87" />
<circle cx="871" cy="269" r="6" fill="#6f4c8b" opacity="0.87" />
<circle cx="540" cy="450" r="6" fill="#6f4c8b" opacity="0.79" />
<circle cx="665" cy="424" r="6" fill="#6f4c8b" opacity="0.80" />
<circle cx="502" cy="255" r="9" fill="#6f4c8b" opacity="0.69" />
<circle cx="80" cy="471" r="6" fill="#6f4c8b" opacity="0.57" />
<circle cx="822" cy="192" r="5" fill="#6f4c8b" opacity="0.62" />
<circle cx="162" cy="324" r="4" fill="#6f4c8b" opacity="0.80" />
<circle cx="281" cy="541" r="7" fill="#6f4c8b" opacity="0.60" />
<circle cx="45" cy="494" r="8" fill="#6f4c8b" opacity="0.67" />
<circle cx="677" cy="379" r="3" fill="#6f4c8b" opacity="0.76" />
<circle cx="727" cy="124" r="8" fill="#6f4c8b" opacity="0.77" />
<circle cx="733" cy="521" r="8" fill="#6f4c8b" opacity="0.81" />
<circle cx="743" cy="81" r="6" fill="#6f4c8b" opacity="0.60" />
<circle cx="148" cy="405" r="10" fill="#6f4c8b" opacity="0.65" />
<circle cx="494" cy="574" r="7" fill="#6f4c8b" opacity="0.63" />
<circle cx="401" cy="241" r="7" fill="#6f4c8b" opacity="0.64" />
<circle cx="303" cy="446" r="4" fill="#6f4c8b" opacity="0.85" />
<circle cx="501" cy="356" r="5" fill="#6f4c8b" opacity="0.75" />
<circle cx="508" cy="566" r="8" fill="#6f4c8b" opacity="0.56" />
<circle cx="377" cy="530" r="6" fill="#6f4c8b" opacity="0.74" />
<circle cx="890" cy="444" r="11" fill="#6f4c8b" opacity="0.87" />
<circle cx="273" cy="143" r="10" fill="#6f4c8b" opacity="0.89" />
<circle cx="759" cy="273" r="7" fill="#6f4c8b" opacity="0.66" />
<circle cx="732" cy="255" r="3" fill="#6f4c8b" opacity="0.58" />
<circle cx="550" cy="193" r="4" fill="#6f4c8b" opacity="0.58" />
<circle cx="372" cy="519" r="7" fill="#6f4c8b" opacity="0.80" />
<circle cx="214" cy="443" r="11" fill="#6f4c8b" opacity="0.89" />
<circle cx="451" cy="459" r="9" fill="#6f4c8b" opacity="0.75" />
<circle cx="457" cy="328" r="4" fill="#6f4c8b" opacity="0.64" />
<circle cx="480" cy="267" r="9" fill="#6f4c8b" opacity="0.77" />
<circle cx="49" cy="412" r="3" fill="#6f4c8b" opacity="0.70" />
<circle cx="254" cy="343" r="8" fill="#6f4c8b" opacity="0.69" />
<circle cx="835" cy="263" r="7" fill="#6f4c8b" opacity="0.57" />
<circle cx="433" cy="336" r="9" fill="#6f4c8b" opacity="0.85" />
<circle cx="177" cy="566" r="10" fill="#6f4c8b" opacity="0.86" />
<circle cx="180" cy="540" r="8" fill="#6f4c8b" opacity="0.81" />
<circle cx="222" cy="546" r="5" fill="#6f4c8b" opacity="0.58" />
<circle cx="214" cy="305" r="8" fill="#6f4c8b" opacity="0.60" />
<circle cx="846" cy="2" r="9" fill="#6f4c8b" opacity="0.68" />
<circle cx="450" cy="181" r="4" fill="#6f4c8b" opacity="0.86" />
<circle cx="739" cy="509" r="11" fill="#6f4c8b" opacity="0.82" />
<circle cx="660" cy="451" r="7" fill="#6f4c8b" opacity="0.65" />
<circle cx="645" cy="194" r="3" fill="#6f4c8b" opacity="0.71" />
<circle cx="777" cy="509" r="8" fill="#6f4c8b" opacity="0.58" />
<circle cx="27" cy="157" r="5" fill="#6f4c8b" opacity="0.80" />
<circle cx="340" cy="241" r="10" fill="#6f4c8b" opacity="0.84" />
<line x1="365" y1="463" x2="305" y2="453" stroke="#c889a0" stroke-width="1.45" opacity="0.2" />
<line x1="158" y1="318" x2="159" y2="306" stroke="#c889a0" stroke-width="3.46" opacity="0.2" />
<line x1="411" y1="483" x2="414" y2="486" stroke="#c889a0" stroke-width="3.30" opacity="0.2" />
<line x1="859" y1="246" x2="823" y2="286" stroke="#c889a0" stroke-width="2.15" opacity="0.2" />
<line x1="771" y1="76" x2="779" y2="39" stroke="#c889a0" stroke-width="1.78" opacity="0.2" />
<line x1="324" y1="561" x2="382" y2="568" stroke="#c889a0" stroke-width="3.35" opacity="0.2" />
<line x1="171" y1="265" x2="207" y2="259" stroke="#c889a0" stroke-width="2.55" opacity="0.2" />
<line x1="644" y1="165" x2="640" y2="209" stroke="#c889a0" stroke-width="2.24" opacity="0.2" />
<line x1="627" y1="174" x2="639" y2="115" stroke="#c889a0" stroke-width="2.69" opacity="0.2" />
<line x1="539" y1="22" x2="593" y2="-14" stroke="#c889a0" stroke-width="2.34" opacity="0.2" />
<line x1="117" y1="384" x2="122" y2="352" stroke="#c889a0" stroke-width="2.56" opacity="0.2" />
<line x1="720" y1="421" x2="708" y2="467" stroke="#c889a0" stroke-width="2.06" opacity="0.2" />
<line x1="143" y1="168" x2="130" y2="199" stroke="#c889a0" stroke-width="2.68" opacity="0.2" />
<line x1="61" y1="357" x2="73" y2="412" stroke="#c889a0" stroke-width="2.41" opacity="0.2" />
<line x1="41" y1="231" x2="55" y2="265" stroke="#c889a0" stroke-width="1.31" opacity="0.2" />
<line x1="348" y1="5" x2="331" y2="-2" stroke="#c889a0" stroke-width="1.01" opacity="0.2" />
<line x1="758" y1="157" x2="739" y2="161" stroke="#c889a0" stroke-width="1.95" opacity="0.2" />
<line x1="314" y1="93" x2="306" y2="90" stroke="#c889a0" stroke-width="2.24" opacity="0.2" />
<line x1="671" y1="393" x2="694" y2="361" stroke="#c889a0" stroke-width="1.01" opacity="0.2" />
<line x1="568" y1="564" x2="518" y2="561" stroke="#c889a0" stroke-width="2.24" opacity="0.2" />
<line x1="110" y1="271" x2="128" y2="286" stroke="#c889a0" stroke-width="2.66" opacity="0.2" />
<line x1="777" y1="394" x2="811" y2="413" stroke="#c889a0" stroke-width="3.48" opacity="0.2" />
<line x1="368" y1="287" x2="421" y2="265" stroke="#c889a0" stroke-width="2.49" opacity="0.2" />
<line x1="852" y1="359" x2="894" y2="328" stroke="#c889a0" stroke-width="2.94" opacity="0.2" />
<line x1="336" y1="258" x2="292" y2="212" stroke="#c889a0" stroke-width="2.14" opacity="0.2" />
<line x1="475" y1="74" x2="418" y2="65" stroke="#c889a0" stroke-width="3.10" opacity="0.2" />
<line x1="764" y1="148" x2="821" y2="149" stroke="#c889a0" stroke-width="2.88" opacity="0.2" />
<line x1="554" y1="198" x2="539" y2="176" stroke="#c889a0" stroke-width="3.17" opacity="0.2" />
<line x1="118" y1="133" x2="106" y2="179" stroke="#c889a0" stroke-width="3.42" opacity="0.2" />
<line x1="524" y1="394" x2="551" y2="385" stroke="#c889a0" stroke-width="3.43" opacity="0.2" />
</svg>